<?xml version="1.0" encoding="UTF-8"?>
<svg xmlns="http://www.w3.org/2000/svg" xmlns:xlink="http://www.w3.org/1999/xlink" width="100pt" height="50pt" viewBox="0 0 100 50" version="1.1">
<g id="surface2">
<rect x="0" y="0" width="100" height="50" style="fill:rgb(100%,100%,100%);fill-opacity:1;stroke:none;"/>
<path style=" stroke:none;fill-rule:nonzero;fill:rgb(0%,0%,0%);fill-opacity:1;" d="M 59.03125 22.0625 C 58.175781 22.90625 57.414062 23.496094 56.75 23.828125 C 56.082031 24.160156 55.332031 24.328125 54.5 24.328125 C 53.300781 24.328125 52.300781 23.949219 51.5 23.1875 C 50.695312 22.429688 50.296875 21.476562 50.296875 20.328125 C 50.296875 18.996094 50.816406 17.914062 51.859375 17.078125 C 52.523438 16.546875 53.304688 16.179688 54.203125 15.96875 C 55.097656 15.75 56.332031 15.640625 57.90625 15.640625 L 58.4375 15.640625 L 58.4375 13.875 C 58.4375 11.648438 57.59375 10.53125 55.90625 10.53125 C 55.113281 10.53125 54.414062 10.777344 53.8125 11.265625 C 53.445312 11.558594 53.21875 12.164062 53.125 13.078125 L 53.109375 13.328125 L 51.375 13.328125 L 51.375 10.734375 C 53.175781 9.945312 54.84375 9.546875 56.375 9.546875 C 57.71875 9.546875 58.8125 9.859375 59.65625 10.484375 C 60.175781 10.882812 60.53125 11.3125 60.71875 11.78125 C 60.90625 12.242188 61 12.90625 61 13.78125 L 61 20.078125 C 61 21.203125 61.097656 22 61.296875 22.46875 C 61.492188 22.929688 61.835938 23.15625 62.328125 23.15625 C 62.492188 23.15625 62.722656 23.117188 63.015625 23.03125 L 63.09375 24 C 62.476562 24.21875 61.921875 24.328125 61.421875 24.328125 C 60.160156 24.328125 59.363281 23.574219 59.03125 22.0625 Z M 58.4375 21.765625 L 58.4375 16.453125 L 57.84375 16.453125 C 56.332031 16.453125 55.148438 16.765625 54.296875 17.390625 C 53.453125 18.007812 53.03125 18.867188 53.03125 19.96875 C 53.03125 20.78125 53.289062 21.460938 53.8125 22 C 54.332031 22.53125 54.988281 22.796875 55.78125 22.796875 C 56.539062 22.796875 57.425781 22.453125 58.4375 21.765625 Z M 73.511719 22.0625 C 72.65625 22.90625 71.894531 23.496094 71.230469 23.828125 C 70.5625 24.160156 69.8125 24.328125 68.980469 24.328125 C 67.78125 24.328125 66.78125 23.949219 65.980469 23.1875 C 65.175781 22.429688 64.777344 21.476562 64.777344 20.328125 C 64.777344 18.996094 65.296875 17.914062 66.339844 17.078125 C 67.003906 16.546875 67.785156 16.179688 68.683594 15.96875 C 69.578125 15.75 70.8125 15.640625 72.386719 15.640625 L 72.917969 15.640625 L 72.917969 13.875 C 72.917969 11.648438 72.074219 10.53125 70.386719 10.53125 C 69.59375 10.53125 68.894531 10.777344 68.292969 11.265625 C 67.925781 11.558594 67.699219 12.164062 67.605469 13.078125 L 67.589844 13.328125 L 65.855469 13.328125 L 65.855469 10.734375 C 67.65625 9.945312 69.324219 9.546875 70.855469 9.546875 C 72.199219 9.546875 73.292969 9.859375 74.136719 10.484375 C 74.65625 10.882812 75.011719 11.3125 75.199219 11.78125 C 75.386719 12.242188 75.480469 12.90625 75.480469 13.78125 L 75.480469 20.078125 C 75.480469 21.203125 75.578125 22 75.777344 22.46875 C 75.972656 22.929688 76.316406 23.15625 76.808594 23.15625 C 76.972656 23.15625 77.203125 23.117188 77.496094 23.03125 L 77.574219 24 C 76.957031 24.21875 76.402344 24.328125 75.902344 24.328125 C 74.640625 24.328125 73.84375 23.574219 73.511719 22.0625 Z M 72.917969 21.765625 L 72.917969 16.453125 L 72.324219 16.453125 C 70.8125 16.453125 69.628906 16.765625 68.777344 17.390625 C 67.933594 18.007812 67.511719 18.867188 67.511719 19.96875 C 67.511719 20.78125 67.769531 21.460938 68.292969 22 C 68.8125 22.53125 69.46875 22.796875 70.261719 22.796875 C 71.019531 22.796875 71.90625 22.453125 72.917969 21.765625 Z M 87.996094 22.0625 C 87.140625 22.90625 86.378906 23.496094 85.714844 23.828125 C 85.046875 24.160156 84.296875 24.328125 83.464844 24.328125 C 82.265625 24.328125 81.265625 23.949219 80.464844 23.1875 C 79.660156 22.429688 79.261719 21.476562 79.261719 20.328125 C 79.261719 18.996094 79.78125 17.914062 80.824219 17.078125 C 81.488281 16.546875 82.269531 16.179688 83.167969 15.96875 C 84.0625 15.75 85.296875 15.640625 86.871094 15.640625 L 87.402344 15.640625 L 87.402344 13.875 C 87.402344 11.648438 86.558594 10.53125 84.871094 10.53125 C 84.078125 10.53125 83.378906 10.777344 82.777344 11.265625 C 82.410156 11.558594 82.183594 12.164062 82.089844 13.078125 L 82.074219 13.328125 L 80.339844 13.328125 L 80.339844 10.734375 C 82.140625 9.945312 83.808594 9.546875 85.339844 9.546875 C 86.683594 9.546875 87.777344 9.859375 88.621094 10.484375 C 89.140625 10.882812 89.496094 11.3125 89.683594 11.78125 C 89.871094 12.242188 89.964844 12.90625 89.964844 13.78125 L 89.964844 20.078125 C 89.964844 21.203125 90.0625 22 90.261719 22.46875 C 90.457031 22.929688 90.800781 23.15625 91.292969 23.15625 C 91.457031 23.15625 91.6875 23.117188 91.980469 23.03125 L 92.058594 24 C 91.441406 24.21875 90.886719 24.328125 90.386719 24.328125 C 89.125 24.328125 88.328125 23.574219 87.996094 22.0625 Z M 87.402344 21.765625 L 87.402344 16.453125 L 86.808594 16.453125 C 85.296875 16.453125 84.113281 16.765625 83.261719 17.390625 C 82.417969 18.007812 81.996094 18.867188 81.996094 19.96875 C 81.996094 20.78125 82.253906 21.460938 82.777344 22 C 83.296875 22.53125 83.953125 22.796875 84.746094 22.796875 C 85.503906 22.796875 86.390625 22.453125 87.402344 21.765625 Z M 87.402344 21.765625 "/>
<path style=" stroke:none;fill-rule:nonzero;fill:rgb(0%,0%,0%);fill-opacity:1;" d="M 13.078125 24.15625 L 13.078125 6.8125 L 13 5.515625 C 12.96875 5.027344 12.882812 4.714844 12.75 4.578125 C 12.613281 4.445312 12.296875 4.359375 11.796875 4.328125 L 10.921875 4.25 L 10.671875 4.25 L 10.671875 3.4375 L 15.65625 3.4375 L 15.65625 12.515625 C 16.925781 10.539062 18.582031 9.546875 20.625 9.546875 C 22.21875 9.546875 23.488281 10.179688 24.4375 11.4375 C 25.382812 12.699219 25.859375 14.390625 25.859375 16.515625 C 25.859375 18.871094 25.316406 20.761719 24.234375 22.1875 C 23.148438 23.617188 21.707031 24.328125 19.90625 24.328125 C 18.25 24.328125 16.832031 23.683594 15.65625 22.390625 L 15.5 22.390625 L 15.171875 24.15625 Z M 15.65625 21.375 C 17.007812 22.386719 18.3125 22.890625 19.5625 22.890625 C 20.71875 22.890625 21.597656 22.40625 22.203125 21.4375 C 22.816406 20.460938 23.125 19.054688 23.125 17.21875 C 23.125 15.199219 22.835938 13.695312 22.265625 12.703125 C 21.691406 11.703125 20.828125 11.203125 19.671875 11.203125 C 18.960938 11.203125 18.242188 11.402344 17.515625 11.796875 C 16.796875 12.195312 16.175781 12.730469 15.65625 13.40625 Z M 38.945312 21.34375 C 37.683594 23.335938 36.03125 24.328125 33.992188 24.328125 C 32.386719 24.328125 31.109375 23.699219 30.164062 22.4375 C 29.226562 21.167969 28.757812 19.46875 28.757812 17.34375 C 28.757812 14.980469 29.296875 13.089844 30.382812 11.671875 C 31.464844 10.257812 32.902344 9.546875 34.695312 9.546875 C 36.351562 9.546875 37.765625 10.1875 38.945312 11.46875 L 38.945312 9.859375 L 41.523438 9.859375 L 41.523438 25.765625 C 41.523438 26.472656 41.578125 27.097656 41.695312 27.640625 C 41.746094 27.867188 41.839844 28.019531 41.976562 28.09375 C 42.121094 28.175781 42.402344 28.234375 42.820312 28.265625 L 43.695312 28.328125 L 43.929688 28.34375 L 43.929688 29.140625 L 36.539062 29.140625 L 36.539062 28.34375 L 36.789062 28.328125 L 37.664062 28.265625 C 38.078125 28.234375 38.355469 28.175781 38.492188 28.09375 C 38.625 28.019531 38.71875 27.867188 38.773438 27.640625 C 38.886719 27.109375 38.945312 26.484375 38.945312 25.765625 Z M 38.945312 12.46875 C 37.609375 11.480469 36.308594 10.984375 35.039062 10.984375 C 33.882812 10.984375 32.996094 11.46875 32.382812 12.4375 C 31.777344 13.40625 31.476562 14.808594 31.476562 16.640625 C 31.476562 18.652344 31.761719 20.15625 32.335938 21.15625 C 32.90625 22.15625 33.773438 22.65625 34.929688 22.65625 C 35.648438 22.65625 36.371094 22.460938 37.101562 22.0625 C 37.839844 21.65625 38.453125 21.117188 38.945312 20.4375 Z M 38.945312 12.46875 "/>
</g>
</svg>
