<?xml version="1.0" encoding="UTF-8"?>
<svg xmlns="http://www.w3.org/2000/svg" xmlns:xlink="http://www.w3.org/1999/xlink" width="150pt" height="150pt" viewBox="0 0 150 150" version="1.1">
<g id="surface2">
<rect x="0" y="0" width="150" height="150" style="fill:rgb(100%,100%,100%);fill-opacity:1;stroke:none;"/>
<path style=" stroke:none;fill-rule:evenodd;fill:rgb(100%,0%,0%);fill-opacity:1;" d="M 63.09375 69.121094 L 69.59375 69.121094 L 69.59375 70.121094 L 63.09375 70.121094 Z M 63.09375 69.121094 "/>
<path style=" stroke:none;fill-rule:evenodd;fill:rgb(0%,100%,0%);fill-opacity:1;" d="M 70.59375 54.121094 L 77.09375 54.121094 L 77.09375 70.121094 L 70.59375 70.121094 Z M 70.59375 54.121094 "/>
<path style=" stroke:none;fill-rule:evenodd;fill:rgb(0%,0%,100%);fill-opacity:1;" d="M 78.09375 61.121094 L 84.59375 61.121094 L 84.59375 70.121094 L 78.09375 70.121094 Z M 78.09375 61.121094 "/>
<path style=" stroke:none;fill-rule:evenodd;fill:rgb(100%,0%,100%);fill-opacity:1;" d="M 85.59375 40.121094 L 92.09375 40.121094 L 92.09375 70.121094 L 85.59375 70.121094 Z M 85.59375 40.121094 "/>
<path style=" stroke:none;fill-rule:evenodd;fill:rgb(100%,0%,0%);fill-opacity:1;" d="M 70.132812 81.140625 L 76.632812 81.140625 L 76.632812 111.140625 L 70.132812 111.140625 Z M 70.132812 81.140625 "/>
<path style=" stroke:none;fill-rule:evenodd;fill:rgb(0%,100%,0%);fill-opacity:1;" d="M 77.632812 90.140625 L 84.132812 90.140625 L 84.132812 111.140625 L 77.632812 111.140625 Z M 77.632812 90.140625 "/>
<path style=" stroke:none;fill-rule:evenodd;fill:rgb(0%,0%,100%);fill-opacity:1;" d="M 85.132812 89.140625 L 91.632812 89.140625 L 91.632812 111.140625 L 85.132812 111.140625 Z M 85.132812 89.140625 "/>
<path style=" stroke:none;fill-rule:evenodd;fill:rgb(100%,0%,100%);fill-opacity:1;" d="M 92.632812 97.140625 L 99.132812 97.140625 L 99.132812 111.140625 L 92.632812 111.140625 Z M 92.632812 97.140625 "/>
<path style=" stroke:none;fill-rule:evenodd;fill:rgb(100%,0%,0%);fill-opacity:1;" d="M 6.128906 64.117188 L 12.628906 64.117188 L 12.628906 89.117188 L 6.128906 89.117188 Z M 6.128906 64.117188 "/>
<path style=" stroke:none;fill-rule:evenodd;fill:rgb(0%,100%,0%);fill-opacity:1;" d="M 13.628906 86.117188 L 20.128906 86.117188 L 20.128906 89.117188 L 13.628906 89.117188 Z M 13.628906 86.117188 "/>
<path style=" stroke:none;fill-rule:evenodd;fill:rgb(0%,0%,100%);fill-opacity:1;" d="M 21.128906 59.117188 L 27.628906 59.117188 L 27.628906 89.117188 L 21.128906 89.117188 Z M 21.128906 59.117188 "/>
<path style=" stroke:none;fill-rule:evenodd;fill:rgb(100%,0%,100%);fill-opacity:1;" d="M 28.628906 86.117188 L 35.128906 86.117188 L 35.128906 89.117188 L 28.628906 89.117188 Z M 28.628906 86.117188 "/>
</g>
</svg>
