<?xml version="1.0" encoding="UTF-8"?>
<svg xmlns="http://www.w3.org/2000/svg" xmlns:xlink="http://www.w3.org/1999/xlink" width="150pt" height="150pt" viewBox="0 0 150 150" version="1.1">
<g id="surface2">
<rect x="0" y="0" width="150" height="150" style="fill:rgb(100%,100%,100%);fill-opacity:1;stroke:none;"/>
<path style=" stroke:none;fill-rule:evenodd;fill:rgb(100%,0%,0%);fill-opacity:1;" d="M 78.09375 55.121094 L 93.09375 55.121094 L 92.867188 57.730469 Z M 78.09375 55.121094 "/>
<path style=" stroke:none;fill-rule:evenodd;fill:rgb(0%,100%,0%);fill-opacity:1;" d="M 78.09375 55.121094 L 92.867188 57.730469 L 91.71875 61.402344 L 89.667969 64.660156 L 86.859375 67.292969 L 83.472656 69.125 L 79.734375 70.03125 L 75.886719 69.957031 L 72.46875 69.023438 Z M 78.09375 55.121094 "/>
<path style=" stroke:none;fill-rule:evenodd;fill:rgb(0%,0%,100%);fill-opacity:1;" d="M 78.09375 55.121094 L 72.46875 69.023438 L 69.113281 67.136719 L 66.351562 64.453125 L 64.363281 61.160156 L 63.285156 57.507812 Z M 78.09375 55.121094 "/>
<path style=" stroke:none;fill-rule:evenodd;fill:rgb(100%,0%,100%);fill-opacity:1;" d="M 78.09375 55.121094 L 63.285156 57.507812 L 63.167969 53.660156 L 64.03125 49.910156 L 65.820312 46.5 L 68.417969 43.660156 L 71.652344 41.574219 L 75.308594 40.382812 L 79.152344 40.15625 L 82.925781 40.917969 L 86.378906 42.617188 L 89.289062 45.136719 L 91.460938 48.3125 L 92.753906 51.9375 L 93.09375 55.121094 Z M 78.09375 55.121094 "/>
<path style=" stroke:none;fill-rule:evenodd;fill:rgb(100%,0%,0%);fill-opacity:1;" d="M 85.132812 96.140625 L 100.132812 96.140625 L 99.636719 99.957031 L 98.1875 103.523438 L 95.878906 106.601562 L 92.863281 108.992188 L 89.339844 110.539062 L 85.535156 111.132812 L 81.707031 110.742188 L 78.101562 109.390625 L 77.019531 108.753906 Z M 85.132812 96.140625 "/>
<path style=" stroke:none;fill-rule:evenodd;fill:rgb(0%,100%,0%);fill-opacity:1;" d="M 85.132812 96.140625 L 77.019531 108.753906 L 74.074219 106.277344 L 71.859375 103.128906 L 70.519531 99.519531 L 70.136719 95.691406 L 70.746094 91.890625 L 71.996094 88.894531 Z M 85.132812 96.140625 "/>
<path style=" stroke:none;fill-rule:evenodd;fill:rgb(0%,0%,100%);fill-opacity:1;" d="M 85.132812 96.140625 L 71.996094 88.894531 L 74.273438 85.789062 L 77.265625 83.367188 L 80.773438 81.785156 L 84.570312 81.148438 L 88.402344 81.5 L 92.449219 83.046875 Z M 85.132812 96.140625 "/>
<path style=" stroke:none;fill-rule:evenodd;fill:rgb(100%,0%,100%);fill-opacity:1;" d="M 85.132812 96.140625 L 92.449219 83.046875 L 95.542969 85.339844 L 97.949219 88.34375 L 99.507812 91.863281 L 100.132812 96.140625 Z M 85.132812 96.140625 "/>
<path style=" stroke:none;fill-rule:evenodd;fill:rgb(100%,0%,0%);fill-opacity:1;" d="M 21.128906 74.117188 L 36.128906 74.117188 L 35.636719 77.933594 L 34.1875 81.5 L 31.878906 84.578125 L 28.859375 86.96875 L 25.335938 88.515625 L 21.53125 89.113281 L 17.703125 88.722656 L 14.101562 87.367188 L 10.960938 85.144531 L 8.910156 82.820312 Z M 21.128906 74.117188 "/>
<path style=" stroke:none;fill-rule:evenodd;fill:rgb(0%,100%,0%);fill-opacity:1;" d="M 21.128906 74.117188 L 8.910156 82.820312 L 7.097656 79.421875 L 6.511719 77.480469 Z M 21.128906 74.117188 "/>
<path style=" stroke:none;fill-rule:evenodd;fill:rgb(0%,0%,100%);fill-opacity:1;" d="M 21.128906 74.117188 L 6.511719 77.480469 L 6.136719 73.652344 L 6.75 69.851562 L 8.308594 66.332031 L 10.710938 63.324219 L 13.800781 61.03125 L 17.371094 59.59375 L 21.191406 59.117188 L 25.007812 59.625 L 28.566406 61.089844 L 31.636719 63.410156 L 34.015625 66.4375 L 34.976562 68.351562 Z M 21.128906 74.117188 "/>
<path style=" stroke:none;fill-rule:evenodd;fill:rgb(100%,0%,100%);fill-opacity:1;" d="M 21.128906 74.117188 L 34.976562 68.351562 L 35.988281 72.066406 L 36.128906 74.117188 Z M 21.128906 74.117188 "/>
</g>
</svg>
