<?xml version="1.0" encoding="UTF-8"?>
<svg xmlns="http://www.w3.org/2000/svg" xmlns:xlink="http://www.w3.org/1999/xlink" width="400pt" height="300pt" viewBox="0 0 400 300" version="1.1">
<defs>
<clipPath id="clip1">
  <rect width="400" height="300"/>
</clipPath>
<g id="surface6" clip-path="url(#clip1)">
<path style=" stroke:none;fill-rule:evenodd;fill:rgb(49.803922%,78.823529%,49.803922%);fill-opacity:1;" d="M 99.832031 249.167969 L 114.832031 249.167969 L 114.339844 252.984375 L 112.890625 256.550781 L 110.582031 259.628906 L 107.566406 262.019531 L 104.039062 263.566406 L 100.238281 264.160156 L 96.410156 263.769531 L 92.804688 262.417969 L 89.664062 260.191406 L 87.191406 257.242188 L 85.554688 253.761719 L 84.855469 249.976562 L 85.140625 246.136719 L 86.398438 242.496094 L 88.535156 239.296875 L 91.417969 236.75 L 94.855469 235.015625 L 98.621094 234.214844 L 102.464844 234.398438 L 106.136719 235.554688 L 109.394531 237.609375 L 112.019531 240.421875 L 113.84375 243.8125 L 114.746094 247.550781 L 114.832031 249.167969 Z M 99.832031 249.167969 "/>
<path style=" stroke:none;fill-rule:evenodd;fill:rgb(49.803922%,78.823529%,49.803922%);fill-opacity:1;" d="M 99.832031 199.332031 L 114.832031 199.332031 L 114.339844 203.152344 L 112.890625 206.714844 L 110.582031 209.796875 L 107.566406 212.1875 L 104.039062 213.730469 L 100.238281 214.328125 L 96.410156 213.9375 L 92.804688 212.585938 L 89.664062 210.359375 L 87.191406 207.410156 L 85.554688 203.925781 L 84.832031 199.332031 Z M 99.832031 199.332031 "/>
<path style=" stroke:none;fill-rule:evenodd;fill:rgb(99.215686%,75.294118%,52.54902%);fill-opacity:1;" d="M 99.832031 199.332031 L 84.832031 199.332031 L 85.328125 195.515625 L 86.777344 191.949219 L 89.085938 188.871094 L 92.101562 186.480469 L 95.625 184.933594 L 99.429688 184.339844 L 103.257812 184.730469 L 106.863281 186.082031 L 110.003906 188.308594 L 112.472656 191.257812 L 114.113281 194.738281 L 114.832031 199.332031 Z M 99.832031 199.332031 "/>
<path style=" stroke:none;fill-rule:evenodd;fill:rgb(49.803922%,78.823529%,49.803922%);fill-opacity:1;" d="M 99.832031 149.5 L 114.832031 149.5 L 114.339844 153.316406 L 112.890625 156.882812 L 110.582031 159.960938 L 107.566406 162.355469 L 104.039062 163.898438 L 100.238281 164.496094 L 96.410156 164.105469 L 92.332031 162.492188 Z M 99.832031 149.5 "/>
<path style=" stroke:none;fill-rule:evenodd;fill:rgb(74.509804%,68.235294%,83.137255%);fill-opacity:1;" d="M 99.832031 149.5 L 92.332031 162.492188 L 89.273438 160.152344 L 86.910156 157.117188 L 85.398438 153.578125 L 84.835938 149.769531 L 85.261719 145.945312 L 86.644531 142.351562 L 88.898438 139.230469 L 92.332031 136.507812 Z M 99.832031 149.5 "/>
<path style=" stroke:none;fill-rule:evenodd;fill:rgb(99.215686%,75.294118%,52.54902%);fill-opacity:1;" d="M 99.832031 149.5 L 92.332031 136.507812 L 95.886719 135.027344 L 99.699219 134.5 L 103.519531 134.960938 L 107.097656 136.378906 L 110.199219 138.65625 L 112.617188 141.652344 L 114.191406 145.164062 L 114.832031 149.5 Z M 99.832031 149.5 "/>
<path style=" stroke:none;fill-rule:evenodd;fill:rgb(49.803922%,78.823529%,49.803922%);fill-opacity:1;" d="M 99.832031 99.667969 L 114.832031 99.667969 L 114.339844 103.484375 L 112.890625 107.050781 L 110.582031 110.128906 L 107.566406 112.519531 L 104.039062 114.066406 L 99.832031 114.667969 Z M 99.832031 99.667969 "/>
<path style=" stroke:none;fill-rule:evenodd;fill:rgb(74.509804%,68.235294%,83.137255%);fill-opacity:1;" d="M 99.832031 99.667969 L 99.832031 114.667969 L 96.015625 114.171875 L 92.449219 112.722656 L 89.371094 110.414062 L 86.980469 107.398438 L 85.433594 103.875 L 84.832031 99.667969 Z M 99.832031 99.667969 "/>
<path style=" stroke:none;fill-rule:evenodd;fill:rgb(99.215686%,75.294118%,52.54902%);fill-opacity:1;" d="M 99.832031 99.667969 L 84.832031 99.667969 L 85.328125 95.847656 L 86.777344 92.285156 L 89.085938 89.203125 L 92.101562 86.8125 L 95.625 85.269531 L 99.832031 84.667969 Z M 99.832031 99.667969 "/>
<path style=" stroke:none;fill-rule:evenodd;fill:rgb(100%,100%,60%);fill-opacity:1;" d="M 99.832031 99.667969 L 99.832031 84.667969 L 103.652344 85.160156 L 107.214844 86.609375 L 110.296875 88.917969 L 112.6875 91.933594 L 114.230469 95.460938 L 114.832031 99.667969 Z M 99.832031 99.667969 "/>
<path style=" stroke:none;fill-rule:evenodd;fill:rgb(74.509804%,68.235294%,83.137255%);fill-opacity:1;" d="M 199.5 249.167969 L 214.5 249.167969 L 214.007812 252.984375 L 212.558594 256.550781 L 210.25 259.628906 L 207.230469 262.019531 L 203.707031 263.566406 L 199.902344 264.160156 L 196.074219 263.769531 L 192.472656 262.417969 L 189.332031 260.191406 L 186.859375 257.242188 L 185.21875 253.761719 L 184.5 249.167969 Z M 199.5 249.167969 "/>
<path style=" stroke:none;fill-rule:evenodd;fill:rgb(100%,100%,60%);fill-opacity:1;" d="M 199.5 249.167969 L 184.5 249.167969 L 184.992188 245.347656 L 186.441406 241.785156 L 188.75 238.703125 L 191.769531 236.3125 L 195.292969 234.769531 L 199.097656 234.171875 L 202.925781 234.5625 L 206.527344 235.914062 L 209.667969 238.140625 L 212.140625 241.089844 L 213.78125 244.574219 L 214.5 249.167969 Z M 199.5 249.167969 "/>
<path style=" stroke:none;fill-rule:evenodd;fill:rgb(74.509804%,68.235294%,83.137255%);fill-opacity:1;" d="M 199.5 199.332031 L 214.5 199.332031 L 214.007812 203.152344 L 212.558594 206.714844 L 210.25 209.796875 L 207.230469 212.1875 L 203.707031 213.730469 L 199.902344 214.328125 L 196.074219 213.9375 L 192 212.324219 Z M 199.5 199.332031 "/>
<path style=" stroke:none;fill-rule:evenodd;fill:rgb(99.215686%,75.294118%,52.54902%);fill-opacity:1;" d="M 199.5 199.332031 L 192 212.324219 L 188.941406 209.988281 L 186.578125 206.949219 L 185.066406 203.410156 L 184.503906 199.601562 L 184.925781 195.777344 L 186.3125 192.1875 L 188.566406 189.066406 L 192 186.34375 Z M 199.5 199.332031 "/>
<path style=" stroke:none;fill-rule:evenodd;fill:rgb(100%,100%,60%);fill-opacity:1;" d="M 199.5 199.332031 L 192 186.34375 L 195.550781 184.863281 L 199.367188 184.332031 L 203.1875 184.792969 L 206.765625 186.210938 L 209.867188 188.492188 L 212.285156 191.484375 L 213.859375 194.996094 L 214.5 199.332031 Z M 199.5 199.332031 "/>
<path style=" stroke:none;fill-rule:evenodd;fill:rgb(74.509804%,68.235294%,83.137255%);fill-opacity:1;" d="M 199.5 149.5 L 214.5 149.5 L 214.007812 153.316406 L 212.558594 156.882812 L 210.25 159.960938 L 207.230469 162.355469 L 203.707031 163.898438 L 199.902344 164.496094 L 196.074219 164.105469 L 192.472656 162.75 L 189.332031 160.527344 L 186.859375 157.574219 L 185.21875 154.09375 L 184.523438 150.308594 L 184.808594 146.46875 L 186.0625 142.832031 L 188.203125 139.632812 L 191.085938 137.082031 L 194.523438 135.347656 L 198.289062 134.550781 L 202.132812 134.734375 L 205.804688 135.890625 L 209.058594 137.941406 L 211.6875 140.753906 L 213.511719 144.144531 L 214.414062 147.886719 L 214.5 149.5 Z M 199.5 149.5 "/>
<path style=" stroke:none;fill-rule:evenodd;fill:rgb(49.803922%,78.823529%,49.803922%);fill-opacity:1;" d="M 199.5 99.667969 L 214.5 99.667969 L 214.007812 103.484375 L 212.558594 107.050781 L 210.25 110.128906 L 207.230469 112.519531 L 203.707031 114.066406 L 199.902344 114.660156 L 196.074219 114.269531 L 192 112.65625 Z M 199.5 99.667969 "/>
<path style=" stroke:none;fill-rule:evenodd;fill:rgb(74.509804%,68.235294%,83.137255%);fill-opacity:1;" d="M 199.5 99.667969 L 192 112.65625 L 188.941406 110.320312 L 186.578125 107.28125 L 185.066406 103.742188 L 184.503906 99.9375 L 184.925781 96.109375 L 186.3125 92.519531 L 188.566406 89.398438 L 192 86.675781 Z M 199.5 99.667969 "/>
<path style=" stroke:none;fill-rule:evenodd;fill:rgb(99.215686%,75.294118%,52.54902%);fill-opacity:1;" d="M 199.5 99.667969 L 192 86.675781 L 195.550781 85.195312 L 199.367188 84.667969 L 203.1875 85.125 L 206.765625 86.542969 L 209.867188 88.824219 L 212.285156 91.820312 L 213.859375 95.332031 L 214.5 99.667969 Z M 199.5 99.667969 "/>
<path style=" stroke:none;fill-rule:evenodd;fill:rgb(74.509804%,68.235294%,83.137255%);fill-opacity:1;" d="M 299.167969 249.167969 L 314.167969 249.167969 L 313.671875 252.984375 L 312.222656 256.550781 L 309.914062 259.628906 L 306.898438 262.019531 L 303.375 263.566406 L 299.570312 264.160156 L 295.742188 263.769531 L 292.136719 262.417969 L 288.996094 260.191406 L 286.527344 257.242188 L 284.886719 253.761719 L 284.167969 249.167969 Z M 299.167969 249.167969 "/>
<path style=" stroke:none;fill-rule:evenodd;fill:rgb(100%,100%,60%);fill-opacity:1;" d="M 299.167969 249.167969 L 284.167969 249.167969 L 284.660156 245.347656 L 286.109375 241.785156 L 288.417969 238.703125 L 291.433594 236.3125 L 294.960938 234.769531 L 298.761719 234.171875 L 302.589844 234.5625 L 306.195312 235.914062 L 309.335938 238.140625 L 311.808594 241.089844 L 313.445312 244.574219 L 314.167969 249.167969 Z M 299.167969 249.167969 "/>
<path style=" stroke:none;fill-rule:evenodd;fill:rgb(49.803922%,78.823529%,49.803922%);fill-opacity:1;" d="M 299.167969 199.332031 L 314.167969 199.332031 L 313.671875 203.152344 L 312.222656 206.714844 L 309.914062 209.796875 L 306.898438 212.1875 L 303.375 213.730469 L 299.570312 214.328125 L 295.742188 213.9375 L 292.136719 212.585938 L 288.996094 210.359375 L 286.527344 207.410156 L 284.886719 203.925781 L 284.167969 199.332031 Z M 299.167969 199.332031 "/>
<path style=" stroke:none;fill-rule:evenodd;fill:rgb(74.509804%,68.235294%,83.137255%);fill-opacity:1;" d="M 299.167969 199.332031 L 284.167969 199.332031 L 284.660156 195.515625 L 286.109375 191.949219 L 288.417969 188.871094 L 291.433594 186.480469 L 294.960938 184.933594 L 298.761719 184.339844 L 302.589844 184.730469 L 306.195312 186.082031 L 309.335938 188.308594 L 311.808594 191.257812 L 313.445312 194.738281 L 314.167969 199.332031 Z M 299.167969 199.332031 "/>
<path style=" stroke:none;fill-rule:evenodd;fill:rgb(74.509804%,68.235294%,83.137255%);fill-opacity:1;" d="M 299.167969 149.5 L 314.167969 149.5 L 313.671875 153.316406 L 312.222656 156.882812 L 309.914062 159.960938 L 306.898438 162.355469 L 303.375 163.898438 L 299.570312 164.496094 L 295.742188 164.105469 L 291.667969 162.492188 Z M 299.167969 149.5 "/>
<path style=" stroke:none;fill-rule:evenodd;fill:rgb(99.215686%,75.294118%,52.54902%);fill-opacity:1;" d="M 299.167969 149.5 L 291.667969 162.492188 L 288.609375 160.152344 L 286.246094 157.117188 L 284.730469 153.578125 L 284.167969 149.769531 L 284.59375 145.945312 L 285.980469 142.351562 L 288.230469 139.230469 L 291.667969 136.507812 Z M 299.167969 149.5 "/>
<path style=" stroke:none;fill-rule:evenodd;fill:rgb(100%,100%,60%);fill-opacity:1;" d="M 299.167969 149.5 L 291.667969 136.507812 L 295.21875 135.027344 L 299.03125 134.5 L 302.851562 134.960938 L 306.433594 136.378906 L 309.53125 138.65625 L 311.949219 141.652344 L 313.527344 145.164062 L 314.167969 149.5 Z M 299.167969 149.5 "/>
<path style=" stroke:none;fill-rule:evenodd;fill:rgb(49.803922%,78.823529%,49.803922%);fill-opacity:1;" d="M 299.167969 99.667969 L 314.167969 99.667969 L 313.671875 103.484375 L 312.222656 107.050781 L 309.914062 110.128906 L 306.898438 112.519531 L 303.375 114.066406 L 299.570312 114.660156 L 295.742188 114.269531 L 292.136719 112.917969 L 288.996094 110.691406 L 286.527344 107.742188 L 284.886719 104.261719 L 284.167969 99.667969 Z M 299.167969 99.667969 "/>
<path style=" stroke:none;fill-rule:evenodd;fill:rgb(100%,100%,60%);fill-opacity:1;" d="M 299.167969 99.667969 L 284.167969 99.667969 L 284.660156 95.847656 L 286.109375 92.285156 L 288.417969 89.203125 L 291.433594 86.8125 L 294.960938 85.269531 L 298.761719 84.671875 L 302.589844 85.0625 L 306.195312 86.414062 L 309.335938 88.640625 L 311.808594 91.589844 L 313.445312 95.074219 L 314.167969 99.667969 Z M 299.167969 99.667969 "/>
</g>
</defs>
<g id="surface2">
<rect x="0" y="0" width="400" height="300" style="fill:rgb(100%,100%,100%);fill-opacity:1;stroke:none;"/>
<use xlink:href="#surface6"/>
</g>
</svg>
