<?xml version="1.0" encoding="UTF-8"?>
<svg xmlns="http://www.w3.org/2000/svg" xmlns:xlink="http://www.w3.org/1999/xlink" width="500pt" height="500pt" viewBox="0 0 500 500" version="1.1">
<g id="surface2">
<rect x="0" y="0" width="500" height="500" style="fill:rgb(100%,100%,100%);fill-opacity:1;stroke:none;"/>
<path style="fill:none;stroke-width:1;stroke-linecap:round;stroke-linejoin:round;stroke:rgb(0%,0%,100%);stroke-opacity:1;stroke-miterlimit:10;" d="M 203.078125 201.226562 L 174.027344 171.324219 L 34.765625 186.703125 L 5.714844 291.792969 L 81.753906 324.257812 L 216.746094 279.832031 L 209.058594 214.898438 "/>
<path style=" stroke:none;fill-rule:nonzero;fill:rgb(0%,0%,0%);fill-opacity:1;" d="M 176.347656 165.832031 L 172.316406 177.019531 L 171.707031 176.800781 L 175.738281 165.613281 Z M 176.347656 165.832031 "/>
<path style=" stroke:none;fill-rule:nonzero;fill:rgb(0%,0%,0%);fill-opacity:1;" d="M 31.144531 181.980469 L 38.863281 191.027344 L 38.378906 191.433594 L 30.660156 182.386719 Z M 31.144531 181.980469 "/>
<path style=" stroke:none;fill-rule:nonzero;fill:rgb(0%,0%,0%);fill-opacity:1;" d="M 11.203125 289.496094 L 0.484375 294.652344 L 0.21875 294.074219 L 10.9375 288.917969 Z M 11.203125 289.496094 "/>
<path style=" stroke:none;fill-rule:nonzero;fill:rgb(0%,0%,0%);fill-opacity:1;" d="M 82.324219 318.328125 L 81.824219 330.203125 L 81.183594 330.171875 L 81.683594 318.296875 Z M 82.324219 318.328125 "/>
<path style=" stroke:none;fill-rule:nonzero;fill:rgb(0%,0%,0%);fill-opacity:1;" d="M 211.902344 276.359375 L 221.933594 282.765625 L 221.589844 283.296875 L 211.558594 276.890625 Z M 211.902344 276.359375 "/>
<path style=" stroke:none;fill-rule:nonzero;fill:rgb(0%,0%,100%);fill-opacity:1;" d="M 215.484375 219.960938 L 214.40625 220.085938 L 208.65625 211.304688 L 208.625 211.320312 L 205.078125 221.195312 L 204 221.320312 L 208.390625 209.164062 Z M 215.484375 219.960938 "/>
<path style=" stroke:none;fill-rule:nonzero;fill:rgb(0%,0%,100%);fill-opacity:1;" d="M 203.203125 193.058594 L 207.109375 205.371094 L 194.90625 201.121094 L 195.6875 200.371094 L 205.578125 203.839844 L 205.59375 203.808594 L 202.4375 193.808594 Z M 203.203125 193.058594 "/>
<path style="fill:none;stroke-width:1;stroke-linecap:round;stroke-linejoin:round;stroke:rgb(0%,0%,0%);stroke-opacity:1;stroke-miterlimit:10;" d="M 203.078125 201.226562 L 174.027344 171.324219 L 34.765625 186.703125 L 5.714844 291.792969 L 81.753906 324.257812 L 216.746094 279.832031 L 209.058594 214.898438 "/>
<path style="fill:none;stroke-width:1;stroke-linecap:round;stroke-linejoin:round;stroke:rgb(100%,0%,0%);stroke-opacity:1;stroke-miterlimit:10;" d="M 203.078125 201.226562 L 34.765625 186.703125 L 5.714844 291.792969 L 216.746094 279.832031 L 209.058594 214.898438 "/>
<path style="fill:none;stroke-width:1;stroke-linecap:round;stroke-linejoin:round;stroke:rgb(0%,100%,0%);stroke-opacity:1;stroke-miterlimit:10;" d="M 203.078125 201.226562 L 34.765625 186.703125 L 5.714844 291.792969 L 81.753906 324.257812 L 216.746094 279.832031 L 209.058594 214.898438 "/>
<path style="fill:none;stroke-width:1;stroke-linecap:round;stroke-linejoin:round;stroke:rgb(0%,0%,100%);stroke-opacity:1;stroke-miterlimit:10;" d="M 287.660156 226.003906 L 324.398438 246.507812 L 341.484375 268.722656 L 361.136719 290.9375 L 386.769531 296.0625 L 405.5625 312.296875 L 409.835938 315.714844 L 470.496094 327.675781 L 474.769531 296.917969 L 491.855469 271.285156 "/>
<path style=" stroke:none;fill-rule:nonzero;fill:rgb(0%,0%,0%);fill-opacity:1;" d="M 328.523438 242.21875 L 320.757812 251.21875 L 320.273438 250.796875 L 328.039062 241.796875 Z M 328.523438 242.21875 "/>
<path style=" stroke:none;fill-rule:nonzero;fill:rgb(0%,0%,0%);fill-opacity:1;" d="M 346.28125 265.195312 L 337.109375 272.757812 L 336.703125 272.257812 L 345.875 264.695312 Z M 346.28125 265.195312 "/>
<path style=" stroke:none;fill-rule:nonzero;fill:rgb(0%,0%,0%);fill-opacity:1;" d="M 364.382812 285.949219 L 358.445312 296.261719 L 357.882812 295.933594 L 363.820312 285.621094 Z M 364.382812 285.949219 "/>
<path style=" stroke:none;fill-rule:nonzero;fill:rgb(0%,0%,0%);fill-opacity:1;" d="M 389.675781 290.867188 L 384.441406 301.554688 L 383.863281 301.273438 L 389.097656 290.585938 Z M 389.675781 290.867188 "/>
<path style=" stroke:none;fill-rule:nonzero;fill:rgb(0%,0%,0%);fill-opacity:1;" d="M 409.613281 307.9375 L 402.003906 317.078125 L 401.519531 316.65625 L 409.128906 307.515625 Z M 409.613281 307.9375 "/>
<path style=" stroke:none;fill-rule:nonzero;fill:rgb(0%,0%,0%);fill-opacity:1;" d="M 412.644531 310.453125 L 407.628906 321.234375 L 407.035156 320.96875 L 412.050781 310.1875 Z M 412.644531 310.453125 "/>
<path style=" stroke:none;fill-rule:nonzero;fill:rgb(0%,0%,0%);fill-opacity:1;" d="M 467.300781 322.636719 L 474.207031 332.324219 L 473.691406 332.699219 L 466.785156 323.011719 Z M 467.300781 322.636719 "/>
<path style=" stroke:none;fill-rule:nonzero;fill:rgb(0%,0%,0%);fill-opacity:1;" d="M 469.328125 294.5 L 480.4375 298.734375 L 480.21875 299.34375 L 469.109375 295.109375 Z M 469.328125 294.5 "/>
<path style=" stroke:none;fill-rule:nonzero;fill:rgb(0%,0%,100%);fill-opacity:1;" d="M 493.457031 279.296875 L 492.566406 278.703125 L 493.863281 268.28125 L 493.832031 268.265625 L 484.738281 273.484375 L 483.832031 272.890625 L 495.066406 266.484375 Z M 493.457031 279.296875 "/>
<path style=" stroke:none;fill-rule:nonzero;fill:rgb(0%,0%,100%);fill-opacity:1;" d="M 289.898438 233.863281 L 282.601562 223.191406 L 295.539062 223.769531 L 295.007812 224.707031 L 284.523438 224.222656 L 284.507812 224.253906 L 290.429688 232.925781 Z M 289.898438 233.863281 "/>
<path style="fill:none;stroke-width:1;stroke-linecap:round;stroke-linejoin:round;stroke:rgb(0%,0%,0%);stroke-opacity:1;stroke-miterlimit:10;" d="M 287.660156 226.003906 L 409.835938 315.714844 L 470.496094 327.675781 L 491.855469 271.285156 "/>
<path style="fill:none;stroke-width:1;stroke-linecap:round;stroke-linejoin:round;stroke:rgb(100%,0%,0%);stroke-opacity:1;stroke-miterlimit:10;" d="M 287.660156 226.003906 L 409.835938 315.714844 L 491.855469 271.285156 "/>
<path style="fill:none;stroke-width:1;stroke-linecap:round;stroke-linejoin:round;stroke:rgb(0%,100%,0%);stroke-opacity:1;stroke-miterlimit:10;" d="M 287.660156 226.003906 L 341.484375 268.722656 L 386.769531 296.0625 L 470.496094 327.675781 L 491.855469 271.285156 "/>
<path style="fill:none;stroke-width:1;stroke-linecap:round;stroke-linejoin:round;stroke:rgb(0%,0%,100%);stroke-opacity:1;stroke-miterlimit:10;" d="M 51.746094 285.4375 L 159.148438 207.910156 L 183.375 222.449219 "/>
<path style=" stroke:none;fill-rule:nonzero;fill:rgb(0%,0%,0%);fill-opacity:1;" d="M 159.214844 201.960938 L 159.714844 213.835938 L 159.074219 213.851562 L 158.574219 201.976562 Z M 159.214844 201.960938 "/>
<path style=" stroke:none;fill-rule:nonzero;fill:rgb(0%,0%,100%);fill-opacity:1;" d="M 175.441406 224.4375 L 175.988281 223.515625 L 186.472656 224.328125 L 186.488281 224.296875 L 180.832031 215.453125 L 181.394531 214.515625 L 188.332031 225.421875 Z M 175.441406 224.4375 "/>
<path style=" stroke:none;fill-rule:nonzero;fill:rgb(0%,0%,100%);fill-opacity:1;" d="M 59.820312 286.746094 L 47.054688 288.824219 L 53.054688 277.371094 L 53.679688 278.246094 L 48.804688 287.527344 L 48.820312 287.558594 L 59.195312 285.871094 Z M 59.820312 286.746094 "/>
<path style="fill:none;stroke-width:1;stroke-linecap:round;stroke-linejoin:round;stroke:rgb(0%,0%,0%);stroke-opacity:1;stroke-miterlimit:10;" d="M 51.746094 285.4375 L 159.148438 207.910156 L 183.375 222.449219 "/>
<path style="fill:none;stroke-width:1;stroke-linecap:round;stroke-linejoin:round;stroke:rgb(100%,0%,0%);stroke-opacity:1;stroke-miterlimit:10;" d="M 51.746094 285.4375 L 183.375 222.449219 "/>
<path style="fill:none;stroke-width:1;stroke-linecap:round;stroke-linejoin:round;stroke:rgb(0%,100%,0%);stroke-opacity:1;stroke-miterlimit:10;" d="M 51.746094 285.4375 L 159.148438 207.910156 L 183.375 222.449219 "/>
<path style="fill-rule:nonzero;fill:rgb(0%,0%,0%);fill-opacity:1;stroke-width:1;stroke-linecap:round;stroke-linejoin:round;stroke:rgb(100%,0%,0%);stroke-opacity:1;stroke-miterlimit:10;" d="M 251.285156 249.5 C 251.285156 252.832031 246.285156 252.832031 246.285156 249.5 C 246.285156 246.167969 251.285156 246.167969 251.285156 249.5 "/>
</g>
</svg>
