<?xml version="1.0" encoding="UTF-8"?>
<svg xmlns="http://www.w3.org/2000/svg" xmlns:xlink="http://www.w3.org/1999/xlink" width="400pt" height="300pt" viewBox="0 0 400 300" version="1.1">
<defs>
<clipPath id="clip1">
  <rect width="400" height="300"/>
</clipPath>
<g id="surface6" clip-path="url(#clip1)">
<path style=" stroke:none;fill-rule:nonzero;fill:rgb(100%,0%,0%);fill-opacity:1;" d="M 52.5 249 C 52.5 252.332031 47.5 252.332031 47.5 249 C 47.5 245.667969 52.5 245.667969 52.5 249 "/>
</g>
<clipPath id="clip2">
  <rect width="400" height="300"/>
</clipPath>
<g id="surface8" clip-path="url(#clip2)">
<path style="fill:none;stroke-width:1;stroke-linecap:round;stroke-linejoin:round;stroke:rgb(100%,0%,0%);stroke-opacity:1;stroke-miterlimit:10;" d="M 99.832031 199.332031 L 149.667969 149.5 L 398.832031 149.5 "/>
</g>
</defs>
<g id="surface2">
<rect x="0" y="0" width="400" height="300" style="fill:rgb(100%,100%,100%);fill-opacity:1;stroke:none;"/>
<use xlink:href="#surface6"/>
<use xlink:href="#surface8"/>
<path style=" stroke:none;fill-rule:nonzero;fill:rgb(0%,0%,0%);fill-opacity:1;" d="M 102.1875 190.71875 L 107.65625 196.1875 C 107.882812 196.417969 108.109375 196.601562 108.328125 196.734375 C 108.421875 196.789062 108.492188 196.808594 108.546875 196.796875 C 108.609375 196.777344 108.710938 196.703125 108.859375 196.578125 L 109.171875 196.296875 L 109.265625 196.234375 L 109.515625 196.484375 L 107.15625 198.84375 L 106.90625 198.59375 L 106.96875 198.5 L 107.234375 198.203125 C 107.378906 198.039062 107.453125 197.90625 107.453125 197.8125 C 107.453125 197.71875 107.378906 197.601562 107.234375 197.453125 L 106.84375 197 L 102.453125 192.609375 L 102.015625 192.234375 C 101.851562 192.070312 101.726562 191.992188 101.640625 192 C 101.546875 192 101.417969 192.074219 101.25 192.21875 L 100.953125 192.484375 L 100.875 192.5625 L 100.609375 192.296875 Z M 102.1875 190.71875 "/>
<path style=" stroke:none;fill-rule:nonzero;fill:rgb(0%,0%,0%);fill-opacity:1;" d="M 111.5625 192.1875 C 111.5625 192.730469 111.503906 193.164062 111.390625 193.484375 C 111.285156 193.796875 111.101562 194.085938 110.84375 194.34375 C 110.46875 194.71875 110.03125 194.917969 109.53125 194.9375 C 109.039062 194.949219 108.617188 194.773438 108.25 194.40625 C 107.824219 193.980469 107.648438 193.46875 107.71875 192.875 C 107.75 192.511719 107.882812 192.152344 108.109375 191.796875 C 108.328125 191.433594 108.6875 191 109.1875 190.5 L 109.34375 190.34375 L 108.78125 189.78125 C 108.074219 189.074219 107.453125 188.984375 106.921875 189.515625 C 106.671875 189.765625 106.523438 190.0625 106.46875 190.40625 C 106.460938 190.625 106.578125 190.890625 106.828125 191.203125 L 106.90625 191.28125 L 106.34375 191.84375 L 105.53125 191.03125 C 105.855469 190.210938 106.261719 189.554688 106.75 189.0625 C 107.179688 188.636719 107.625 188.386719 108.09375 188.3125 C 108.386719 188.273438 108.636719 188.292969 108.84375 188.375 C 109.050781 188.460938 109.296875 188.640625 109.578125 188.921875 L 111.578125 190.921875 C 111.941406 191.289062 112.226562 191.511719 112.4375 191.59375 C 112.644531 191.679688 112.828125 191.640625 112.984375 191.484375 C 113.023438 191.445312 113.082031 191.355469 113.15625 191.21875 L 113.484375 191.515625 C 113.347656 191.777344 113.203125 191.984375 113.046875 192.140625 C 112.640625 192.546875 112.144531 192.5625 111.5625 192.1875 Z M 111.296875 192.296875 L 109.59375 190.59375 L 109.40625 190.78125 C 108.929688 191.261719 108.652344 191.734375 108.578125 192.203125 C 108.507812 192.671875 108.648438 193.085938 109 193.4375 C 109.257812 193.699219 109.554688 193.828125 109.890625 193.828125 C 110.222656 193.828125 110.515625 193.703125 110.765625 193.453125 C 111.003906 193.214844 111.179688 192.828125 111.296875 192.296875 Z M 111.296875 192.296875 "/>
<path style=" stroke:none;fill-rule:nonzero;fill:rgb(0%,0%,0%);fill-opacity:1;" d="M 115.71875 189.40625 L 110.1875 183.875 L 109.765625 183.484375 C 109.589844 183.328125 109.460938 183.25 109.375 183.25 C 109.292969 183.25 109.164062 183.328125 108.984375 183.484375 L 108.703125 183.734375 L 108.625 183.8125 L 108.359375 183.546875 L 109.9375 181.96875 L 112.828125 184.859375 C 112.609375 183.828125 112.824219 182.992188 113.46875 182.34375 C 113.980469 181.835938 114.585938 181.625 115.28125 181.71875 C 115.976562 181.8125 116.664062 182.199219 117.34375 182.875 C 118.09375 183.625 118.519531 184.402344 118.625 185.203125 C 118.726562 186.007812 118.5 186.6875 117.9375 187.25 C 117.40625 187.78125 116.75 188.03125 115.96875 188 L 115.90625 188.0625 L 116.390625 188.734375 Z M 115.65625 187.6875 C 116.394531 187.574219 116.96875 187.3125 117.375 186.90625 C 117.738281 186.542969 117.863281 186.109375 117.75 185.609375 C 117.632812 185.109375 117.285156 184.570312 116.703125 183.984375 C 116.066406 183.351562 115.5 182.964844 115 182.828125 C 114.492188 182.683594 114.054688 182.792969 113.6875 183.15625 C 113.460938 183.386719 113.296875 183.683594 113.203125 184.046875 C 113.101562 184.402344 113.070312 184.765625 113.109375 185.140625 Z M 115.65625 187.6875 "/>
<path style=" stroke:none;fill-rule:nonzero;fill:rgb(0%,0%,0%);fill-opacity:1;" d="M 125.859375 179.734375 C 125.535156 180.453125 125.160156 181.027344 124.734375 181.453125 C 124.066406 182.121094 123.304688 182.445312 122.453125 182.421875 C 121.609375 182.390625 120.828125 182.015625 120.109375 181.296875 C 119.433594 180.621094 119.070312 179.882812 119.015625 179.078125 C 118.964844 178.277344 119.226562 177.589844 119.796875 177.015625 C 120.339844 176.476562 120.933594 176.242188 121.578125 176.3125 C 122.222656 176.386719 122.878906 176.757812 123.546875 177.421875 L 123.625 177.5 L 120.875 180.25 C 121.5 180.875 122.050781 181.261719 122.53125 181.40625 C 123.28125 181.617188 123.921875 181.453125 124.453125 180.921875 C 124.960938 180.414062 125.289062 179.875 125.4375 179.3125 Z M 120.640625 179.984375 L 122.5 178.125 L 122.328125 177.921875 C 122.003906 177.601562 121.75 177.375 121.5625 177.25 C 121.375 177.125 121.183594 177.046875 120.984375 177.015625 C 120.601562 176.945312 120.273438 177.042969 120 177.3125 C 119.6875 177.625 119.589844 178.023438 119.703125 178.5 C 119.820312 178.980469 120.132812 179.476562 120.640625 179.984375 Z M 120.640625 179.984375 "/>
<path style=" stroke:none;fill-rule:nonzero;fill:rgb(0%,0%,0%);fill-opacity:1;" d="M 123.1875 169.71875 L 128.65625 175.1875 C 128.882812 175.417969 129.109375 175.601562 129.328125 175.734375 C 129.421875 175.789062 129.492188 175.808594 129.546875 175.796875 C 129.609375 175.777344 129.710938 175.703125 129.859375 175.578125 L 130.171875 175.296875 L 130.265625 175.234375 L 130.515625 175.484375 L 128.15625 177.84375 L 127.90625 177.59375 L 127.96875 177.5 L 128.234375 177.203125 C 128.378906 177.039062 128.453125 176.90625 128.453125 176.8125 C 128.453125 176.71875 128.378906 176.601562 128.234375 176.453125 L 127.84375 176 L 123.453125 171.609375 L 123.015625 171.234375 C 122.851562 171.070312 122.726562 170.992188 122.640625 171 C 122.546875 171 122.417969 171.074219 122.25 171.21875 L 121.953125 171.484375 L 121.875 171.5625 L 121.609375 171.296875 Z M 123.1875 169.71875 "/>
<path style=" stroke:none;fill-rule:nonzero;fill:rgb(0%,0%,0%);fill-opacity:1;" d="M 131.75 162.515625 L 131.203125 161.921875 L 136.25 157.3125 L 136.796875 157.90625 Z M 142.484375 163.046875 C 142.210938 163.484375 141.8125 164.011719 141.28125 164.625 C 140.757812 165.242188 140.253906 165.773438 139.765625 166.21875 C 138.742188 167.148438 137.78125 167.71875 136.875 167.9375 C 135.96875 168.148438 135.257812 167.96875 134.75 167.40625 C 134.230469 166.835938 134.011719 165.746094 134.09375 164.140625 L 134.953125 164.078125 C 134.871094 165.433594 135.007812 166.308594 135.375 166.703125 C 135.738281 167.101562 136.257812 167.203125 136.9375 167.015625 C 137.625 166.820312 138.378906 166.34375 139.203125 165.59375 C 139.660156 165.167969 140.132812 164.664062 140.625 164.078125 C 141.125 163.496094 141.507812 162.984375 141.78125 162.546875 Z M 142.484375 163.046875 "/>
<path style=" stroke:none;fill-rule:nonzero;fill:rgb(0%,0%,0%);fill-opacity:1;" d="M 141.78125 155.234375 L 144.1875 153.78125 L 143.125 152.046875 L 143.875 151.59375 L 145.828125 154.8125 C 146.179688 153.625 146.507812 152.730469 146.8125 152.125 C 147.125 151.511719 147.445312 151.105469 147.78125 150.90625 C 148.164062 150.667969 148.535156 150.640625 148.890625 150.828125 C 149.242188 151.015625 149.644531 151.476562 150.09375 152.203125 C 150.332031 152.621094 150.59375 153.148438 150.875 153.78125 C 151.164062 154.449219 151.421875 154.96875 151.640625 155.34375 C 151.953125 155.855469 152.203125 156.164062 152.390625 156.265625 C 152.578125 156.371094 152.75 156.375 152.90625 156.28125 C 153.226562 156.085938 153.488281 155.5 153.6875 154.53125 L 154.4375 154.828125 C 154.332031 155.371094 154.164062 155.859375 153.9375 156.296875 C 153.707031 156.734375 153.460938 157.039062 153.203125 157.203125 C 152.804688 157.433594 152.429688 157.449219 152.078125 157.25 C 151.734375 157.054688 151.34375 156.59375 150.90625 155.875 C 150.664062 155.480469 150.398438 154.953125 150.109375 154.296875 C 149.816406 153.640625 149.554688 153.132812 149.328125 152.765625 C 149.023438 152.257812 148.78125 151.945312 148.59375 151.828125 C 148.40625 151.703125 148.226562 151.6875 148.0625 151.78125 C 147.664062 152.023438 147.125 153.359375 146.4375 155.796875 L 149.203125 160.375 L 148.453125 160.828125 L 146.125 156.984375 L 145.296875 160.234375 L 144.484375 160.015625 L 145.515625 155.96875 L 144.59375 154.46875 L 142.1875 155.921875 Z M 141.78125 155.234375 "/>
<path style=" stroke:none;fill-rule:nonzero;fill:rgb(0%,0%,0%);fill-opacity:1;" d="M 156.890625 147.921875 C 156.847656 148.851562 156.78125 149.808594 156.6875 150.796875 L 156.703125 150.8125 C 157.191406 150.355469 157.800781 149.96875 158.53125 149.65625 C 159.269531 149.34375 159.96875 149.167969 160.625 149.125 C 162.851562 148.96875 164.03125 149.777344 164.15625 151.546875 C 164.226562 152.601562 163.847656 153.433594 163.015625 154.046875 C 162.191406 154.652344 160.921875 155.015625 159.203125 155.140625 C 158.421875 155.191406 157.601562 155.203125 156.75 155.171875 L 156.734375 154.359375 C 157.734375 154.390625 158.539062 154.386719 159.15625 154.34375 C 160.53125 154.25 161.550781 153.976562 162.21875 153.515625 C 162.894531 153.046875 163.207031 152.414062 163.15625 151.609375 C 163.0625 150.359375 162.195312 149.792969 160.5625 149.90625 C 159.9375 149.949219 159.242188 150.15625 158.484375 150.53125 C 157.722656 150.90625 157.066406 151.355469 156.515625 151.875 L 155.671875 151.71875 C 155.828125 150.3125 155.941406 149.039062 156.015625 147.890625 Z M 156.765625 145.8125 C 158.628906 145.917969 160.425781 145.914062 162.15625 145.796875 L 162.21875 146.59375 C 160.414062 146.71875 158.582031 146.726562 156.71875 146.609375 Z M 156.765625 145.8125 "/>
<path style=" stroke:none;fill-rule:nonzero;fill:rgb(0%,0%,0%);fill-opacity:1;" d="M 180 147.1875 L 177.875 147.234375 L 177.953125 151.15625 C 178.546875 151.554688 179.269531 152.15625 180.125 152.96875 L 179.53125 153.59375 C 178.882812 152.96875 178.367188 152.507812 177.984375 152.203125 C 177.953125 153.671875 177.175781 154.421875 175.65625 154.453125 C 174.832031 154.472656 174.191406 154.300781 173.734375 153.9375 C 173.273438 153.574219 173.039062 153.058594 173.03125 152.390625 C 173.019531 151.765625 173.234375 151.28125 173.671875 150.9375 C 174.109375 150.585938 174.738281 150.398438 175.5625 150.375 C 176.070312 150.367188 176.578125 150.460938 177.078125 150.65625 L 177 147.25 L 173.234375 147.328125 L 173.21875 146.53125 L 176.984375 146.453125 L 176.953125 144.453125 L 177.828125 144.4375 L 177.859375 146.4375 L 179.984375 146.390625 Z M 171.4375 144.875 C 171.082031 146.367188 170.921875 147.960938 170.953125 149.65625 C 170.992188 151.355469 171.222656 152.949219 171.640625 154.4375 L 170.78125 154.5625 C 170.34375 153.054688 170.101562 151.421875 170.0625 149.671875 C 170.03125 147.921875 170.203125 146.292969 170.578125 144.78125 Z M 177.09375 151.59375 C 176.570312 151.3125 176.054688 151.179688 175.546875 151.1875 C 174.429688 151.210938 173.882812 151.601562 173.90625 152.359375 C 173.914062 152.789062 174.066406 153.109375 174.359375 153.328125 C 174.648438 153.546875 175.066406 153.652344 175.609375 153.640625 C 176.148438 153.632812 176.535156 153.5 176.765625 153.25 C 177.003906 152.992188 177.117188 152.578125 177.109375 152.015625 Z M 177.09375 151.59375 "/>
<path style=" stroke:none;fill-rule:nonzero;fill:rgb(0%,0%,0%);fill-opacity:1;" d="M 183.625 152.5625 L 184.234375 152.046875 C 185.066406 152.859375 185.875 153.726562 186.65625 154.640625 L 186.03125 155.109375 C 185.394531 154.347656 184.59375 153.5 183.625 152.5625 Z M 183.625 152.5625 "/>
<path style=" stroke:none;fill-rule:nonzero;fill:rgb(0%,0%,0%);fill-opacity:1;" d="M 206.40625 145.953125 L 207.25 145.65625 C 207.789062 146.667969 208.203125 147.828125 208.484375 149.140625 C 208.773438 150.445312 208.921875 151.792969 208.921875 153.1875 L 208 153.1875 C 208 151.875 207.859375 150.585938 207.578125 149.3125 C 207.304688 148.042969 206.914062 146.921875 206.40625 145.953125 Z M 200.828125 145.84375 C 200.484375 147.085938 200.3125 148.414062 200.3125 149.828125 C 200.3125 150.871094 200.492188 151.746094 200.859375 152.453125 C 201.234375 153.164062 201.609375 153.515625 201.984375 153.515625 C 202.242188 153.515625 202.570312 153.257812 202.96875 152.734375 C 203.375 152.214844 203.757812 151.480469 204.125 150.53125 L 204.953125 150.859375 C 204.554688 151.976562 204.070312 152.851562 203.5 153.484375 C 202.925781 154.109375 202.398438 154.421875 201.921875 154.421875 C 201.296875 154.421875 200.71875 153.976562 200.1875 153.078125 C 199.664062 152.183594 199.40625 151.101562 199.40625 149.828125 C 199.40625 148.320312 199.582031 146.949219 199.9375 145.71875 Z M 200.828125 145.84375 "/>
<path style=" stroke:none;fill-rule:nonzero;fill:rgb(0%,0%,0%);fill-opacity:1;" d="M 221.703125 145.125 C 220.160156 146.355469 218.648438 147.460938 217.171875 148.4375 C 216.703125 148.75 216.398438 148.964844 216.265625 149.078125 C 216.140625 149.195312 216.078125 149.324219 216.078125 149.46875 C 216.078125 149.59375 216.132812 149.714844 216.25 149.828125 C 216.363281 149.933594 216.628906 150.125 217.046875 150.40625 C 218.710938 151.542969 220.390625 152.84375 222.078125 154.3125 L 221.421875 154.953125 C 219.734375 153.507812 218.09375 152.230469 216.5 151.125 C 215.863281 150.6875 215.460938 150.382812 215.296875 150.203125 C 215.128906 150.015625 215.046875 149.773438 215.046875 149.46875 C 215.046875 149.148438 215.128906 148.898438 215.296875 148.71875 C 215.472656 148.53125 215.90625 148.210938 216.59375 147.75 C 218.09375 146.761719 219.597656 145.664062 221.109375 144.453125 Z M 221.703125 145.125 "/>
<path style=" stroke:none;fill-rule:nonzero;fill:rgb(0%,0%,0%);fill-opacity:1;" d="M 229.0625 146.734375 C 231.414062 146.109375 233.191406 145.796875 234.390625 145.796875 C 237.410156 145.796875 238.921875 147.058594 238.921875 149.578125 C 238.921875 151.070312 238.273438 152.203125 236.984375 152.984375 C 235.703125 153.757812 233.800781 154.140625 231.28125 154.140625 L 231.21875 153.265625 C 235.695312 153.265625 237.9375 152.070312 237.9375 149.671875 C 237.9375 148.664062 237.640625 147.917969 237.046875 147.4375 C 236.460938 146.949219 235.554688 146.703125 234.328125 146.703125 C 233.242188 146.703125 231.554688 147.007812 229.265625 147.609375 Z M 229.0625 146.734375 "/>
<path style=" stroke:none;fill-rule:nonzero;fill:rgb(0%,0%,0%);fill-opacity:1;" d="M 244.15625 147.625 L 244.15625 146.828125 L 246.5 146.828125 C 246.726562 145.839844 246.898438 144.996094 247.015625 144.296875 L 247.890625 144.390625 C 247.773438 145.089844 247.613281 145.902344 247.40625 146.828125 L 248.484375 146.828125 C 248.847656 146.828125 249.125 146.828125 249.3125 146.828125 C 249.507812 146.828125 249.71875 146.851562 249.9375 146.890625 C 250.164062 146.933594 250.328125 146.96875 250.421875 147 C 250.515625 147.03125 250.613281 147.117188 250.71875 147.25 C 250.832031 147.386719 250.898438 147.507812 250.921875 147.609375 C 250.953125 147.714844 250.984375 147.902344 251.015625 148.171875 C 251.054688 148.433594 251.078125 148.679688 251.078125 148.90625 C 251.078125 149.136719 251.078125 149.46875 251.078125 149.90625 C 251.078125 151.386719 250.898438 152.511719 250.546875 153.28125 C 250.191406 154.039062 249.742188 154.421875 249.203125 154.421875 C 248.523438 154.421875 247.710938 154.203125 246.765625 153.765625 L 247.0625 152.96875 C 247.957031 153.355469 248.613281 153.546875 249.03125 153.546875 C 249.320312 153.546875 249.582031 153.226562 249.8125 152.578125 C 250.039062 151.933594 250.15625 151 250.15625 149.78125 C 250.15625 149.523438 250.15625 149.328125 250.15625 149.203125 C 250.15625 149.078125 250.148438 148.929688 250.140625 148.75 C 250.128906 148.5625 250.117188 148.4375 250.109375 148.375 C 250.109375 148.304688 250.085938 148.214844 250.046875 148.109375 C 250.015625 147.996094 249.988281 147.929688 249.96875 147.90625 C 249.957031 147.875 249.910156 147.835938 249.828125 147.78125 C 249.742188 147.71875 249.679688 147.6875 249.640625 147.6875 C 249.597656 147.679688 249.507812 147.667969 249.375 147.65625 C 249.25 147.636719 249.140625 147.625 249.046875 147.625 C 248.960938 147.625 248.828125 147.625 248.640625 147.625 L 247.21875 147.625 C 246.625 150.03125 245.832031 152.324219 244.84375 154.5 L 244.015625 154.1875 C 244.953125 152.117188 245.71875 149.929688 246.3125 147.625 Z M 251.609375 146.046875 L 252.4375 145.75 C 253.332031 147.792969 254.039062 149.824219 254.5625 151.84375 L 253.703125 152.0625 C 253.472656 151.167969 253.160156 150.15625 252.765625 149.03125 C 252.378906 147.90625 251.992188 146.914062 251.609375 146.046875 Z M 251.609375 146.046875 "/>
<path style=" stroke:none;fill-rule:nonzero;fill:rgb(0%,0%,0%);fill-opacity:1;" d="M 265.15625 153.453125 C 266.113281 153.351562 266.859375 152.976562 267.390625 152.328125 C 267.929688 151.671875 268.203125 150.796875 268.203125 149.703125 C 268.203125 148.695312 267.863281 147.855469 267.1875 147.1875 C 266.519531 146.523438 265.660156 146.171875 264.609375 146.140625 C 264.441406 147.695312 264.234375 149.007812 263.984375 150.078125 C 263.734375 151.152344 263.453125 151.964844 263.140625 152.515625 C 262.835938 153.058594 262.535156 153.4375 262.234375 153.65625 C 261.929688 153.875 261.597656 153.984375 261.234375 153.984375 C 260.660156 153.984375 260.128906 153.640625 259.640625 152.953125 C 259.160156 152.257812 258.921875 151.402344 258.921875 150.390625 C 258.921875 148.882812 259.4375 147.65625 260.46875 146.71875 C 261.5 145.773438 262.835938 145.296875 264.484375 145.296875 C 265.804688 145.296875 266.898438 145.714844 267.765625 146.546875 C 268.640625 147.371094 269.078125 148.421875 269.078125 149.703125 C 269.078125 151.039062 268.738281 152.117188 268.0625 152.9375 C 267.382812 153.75 266.472656 154.203125 265.328125 154.296875 Z M 263.703125 146.1875 C 262.515625 146.34375 261.566406 146.804688 260.859375 147.5625 C 260.148438 148.3125 259.796875 149.257812 259.796875 150.390625 C 259.796875 151.140625 259.957031 151.78125 260.28125 152.3125 C 260.601562 152.835938 260.921875 153.09375 261.234375 153.09375 C 261.378906 153.09375 261.53125 153.042969 261.6875 152.9375 C 261.84375 152.835938 262.015625 152.632812 262.203125 152.328125 C 262.398438 152.015625 262.582031 151.617188 262.75 151.125 C 262.914062 150.625 263.082031 149.953125 263.25 149.109375 C 263.425781 148.257812 263.578125 147.28125 263.703125 146.1875 Z M 263.703125 146.1875 "/>
<path style=" stroke:none;fill-rule:nonzero;fill:rgb(0%,0%,0%);fill-opacity:1;" d="M 274.796875 144.71875 L 283.203125 144.71875 L 283.203125 154.921875 L 282.265625 154.921875 L 282.265625 154.15625 L 275.734375 154.15625 L 275.734375 154.921875 L 274.796875 154.921875 Z M 275.734375 148.921875 L 282.265625 148.921875 L 282.265625 145.546875 L 275.734375 145.546875 Z M 275.734375 149.71875 L 275.734375 153.359375 L 282.265625 153.359375 L 282.265625 149.71875 Z M 275.734375 149.71875 "/>
<path style=" stroke:none;fill-rule:nonzero;fill:rgb(0%,0%,0%);fill-opacity:1;" d="M 292.984375 147 L 288.6875 147 L 288.6875 146.171875 L 293.53125 146.171875 L 293.53125 144.203125 L 294.46875 144.203125 L 294.46875 146.171875 L 299.3125 146.171875 L 299.3125 147 L 295.015625 147 C 296.046875 148.992188 297.625 150.917969 299.75 152.78125 L 299.25 153.5625 C 297.257812 151.824219 295.664062 149.859375 294.46875 147.671875 L 294.46875 152.21875 L 297.1875 152.21875 L 297.1875 153.015625 L 294.46875 153.015625 L 294.46875 155.15625 L 293.53125 155.15625 L 293.53125 153.015625 L 290.8125 153.015625 L 290.8125 152.21875 L 293.53125 152.21875 L 293.53125 147.671875 C 292.332031 149.859375 290.738281 151.824219 288.75 153.5625 L 288.25 152.78125 C 290.375 150.917969 291.953125 148.992188 292.984375 147 Z M 292.984375 147 "/>
<path style=" stroke:none;fill-rule:nonzero;fill:rgb(0%,0%,0%);fill-opacity:1;" d="M 304.109375 150.578125 L 304.109375 149.8125 L 307.78125 149.8125 L 307.78125 150.578125 Z M 304.109375 148.875 L 304.109375 148.125 L 307.78125 148.125 L 307.78125 148.875 Z M 303.6875 147.1875 L 303.6875 146.375 L 308.15625 146.375 L 308.15625 147.1875 Z M 304.015625 145.484375 L 304.015625 144.703125 L 307.828125 144.703125 L 307.828125 145.484375 Z M 313.046875 153.609375 L 313.046875 151.390625 L 309.5625 151.390625 L 309.5625 153.609375 Z M 310.53125 148.984375 L 312.71875 148.984375 L 312.71875 147.5 L 310.84375 147.5 Z M 304.890625 153.8125 L 307 153.8125 L 307 152.28125 L 304.890625 152.28125 Z M 304.890625 154.578125 L 304.890625 155.109375 L 304.015625 155.109375 L 304.015625 151.515625 L 307.84375 151.515625 L 307.84375 154.578125 Z M 309.5625 154.359375 L 309.5625 154.875 L 308.65625 154.875 L 308.65625 150.609375 L 313.953125 150.609375 L 313.953125 154.875 L 313.046875 154.875 L 313.046875 154.359375 Z M 311 146.765625 L 313.640625 146.765625 L 313.640625 148.984375 L 314.515625 148.984375 L 314.515625 149.765625 L 308.1875 149.765625 L 308.1875 148.984375 L 309.578125 148.984375 L 309.90625 147.5 L 308.703125 147.5 L 308.703125 146.765625 L 310.0625 146.765625 L 310.3125 145.5 L 308.421875 145.5 L 308.421875 144.71875 L 314.203125 144.71875 L 314.203125 145.5 L 311.265625 145.5 Z M 311 146.765625 "/>
<path style=" stroke:none;fill-rule:nonzero;fill:rgb(0%,0%,0%);fill-opacity:1;" d="M 325.15625 153.453125 C 326.113281 153.351562 326.859375 152.976562 327.390625 152.328125 C 327.929688 151.671875 328.203125 150.796875 328.203125 149.703125 C 328.203125 148.695312 327.863281 147.855469 327.1875 147.1875 C 326.519531 146.523438 325.660156 146.171875 324.609375 146.140625 C 324.441406 147.695312 324.234375 149.007812 323.984375 150.078125 C 323.734375 151.152344 323.453125 151.964844 323.140625 152.515625 C 322.835938 153.058594 322.535156 153.4375 322.234375 153.65625 C 321.929688 153.875 321.597656 153.984375 321.234375 153.984375 C 320.660156 153.984375 320.128906 153.640625 319.640625 152.953125 C 319.160156 152.257812 318.921875 151.402344 318.921875 150.390625 C 318.921875 148.882812 319.4375 147.65625 320.46875 146.71875 C 321.5 145.773438 322.835938 145.296875 324.484375 145.296875 C 325.804688 145.296875 326.898438 145.714844 327.765625 146.546875 C 328.640625 147.371094 329.078125 148.421875 329.078125 149.703125 C 329.078125 151.039062 328.738281 152.117188 328.0625 152.9375 C 327.382812 153.75 326.472656 154.203125 325.328125 154.296875 Z M 323.703125 146.1875 C 322.515625 146.34375 321.566406 146.804688 320.859375 147.5625 C 320.148438 148.3125 319.796875 149.257812 319.796875 150.390625 C 319.796875 151.140625 319.957031 151.78125 320.28125 152.3125 C 320.601562 152.835938 320.921875 153.09375 321.234375 153.09375 C 321.378906 153.09375 321.53125 153.042969 321.6875 152.9375 C 321.84375 152.835938 322.015625 152.632812 322.203125 152.328125 C 322.398438 152.015625 322.582031 151.617188 322.75 151.125 C 322.914062 150.625 323.082031 149.953125 323.25 149.109375 C 323.425781 148.257812 323.578125 147.28125 323.703125 146.1875 Z M 323.703125 146.1875 "/>
<path style=" stroke:none;fill-rule:nonzero;fill:rgb(0%,0%,0%);fill-opacity:1;" d="M 335.671875 147.421875 L 336.5625 147.171875 C 337 148.433594 337.53125 149.476562 338.15625 150.296875 C 338.40625 150.632812 338.679688 150.945312 338.984375 151.234375 C 339.597656 150.632812 340.09375 149.96875 340.46875 149.25 C 340.863281 148.5 341.222656 147.636719 341.546875 146.65625 L 333.75 146.65625 L 333.75 145.8125 L 338.515625 145.8125 L 338.515625 144.046875 L 339.484375 144.046875 L 339.484375 145.8125 L 344.25 145.8125 L 344.25 146.65625 L 342.546875 146.65625 C 342.171875 147.8125 341.765625 148.804688 341.328125 149.625 C 340.867188 150.46875 340.316406 151.203125 339.671875 151.828125 C 339.929688 152.027344 340.210938 152.214844 340.515625 152.390625 C 341.453125 152.953125 342.6875 153.46875 344.21875 153.9375 L 343.953125 154.75 C 342.316406 154.269531 340.992188 153.726562 339.984375 153.109375 C 339.628906 152.890625 339.296875 152.664062 338.984375 152.421875 C 338.460938 152.851562 337.898438 153.214844 337.296875 153.515625 C 336.453125 153.953125 335.367188 154.363281 334.046875 154.75 L 333.78125 153.9375 C 334.976562 153.585938 335.984375 153.199219 336.796875 152.78125 C 337.347656 152.5 337.847656 152.183594 338.296875 151.828125 C 337.972656 151.515625 337.679688 151.183594 337.421875 150.828125 C 336.753906 149.964844 336.171875 148.828125 335.671875 147.421875 Z M 335.671875 147.421875 "/>
<path style=" stroke:none;fill-rule:nonzero;fill:rgb(0%,0%,0%);fill-opacity:1;" d="M 358.0625 146.109375 L 349.9375 146.109375 L 349.9375 148.09375 L 349.046875 148.09375 L 349.046875 145.34375 L 353.515625 145.34375 L 353.515625 144.046875 L 354.484375 144.046875 L 354.484375 145.34375 L 358.953125 145.34375 L 358.953125 148.09375 L 358.0625 148.09375 Z M 350.734375 148 L 350.734375 147.203125 L 357.296875 147.203125 L 357.296875 148 C 356.503906 148.804688 355.617188 149.515625 354.640625 150.140625 L 354.640625 150.5625 L 359.4375 150.5625 L 359.4375 151.390625 L 354.640625 151.390625 L 354.640625 153.625 C 354.640625 153.898438 354.632812 154.066406 354.625 154.140625 C 354.613281 154.253906 354.585938 154.367188 354.546875 154.484375 C 354.515625 154.578125 354.46875 154.65625 354.40625 154.71875 C 354.363281 154.757812 354.28125 154.800781 354.15625 154.84375 C 354.03125 154.875 353.898438 154.894531 353.765625 154.90625 C 353.660156 154.914062 353.46875 154.921875 353.1875 154.921875 C 352.914062 154.921875 352.289062 154.898438 351.3125 154.859375 L 351.28125 154.03125 C 352.21875 154.070312 352.820312 154.09375 353.09375 154.09375 C 353.382812 154.09375 353.550781 154.066406 353.59375 154.015625 C 353.644531 153.976562 353.671875 153.808594 353.671875 153.515625 L 353.671875 151.390625 L 348.5625 151.390625 L 348.5625 150.5625 L 353.671875 150.5625 L 353.671875 149.4375 L 354.140625 149.4375 C 354.816406 149.011719 355.453125 148.53125 356.046875 148 Z M 350.734375 148 "/>
<path style=" stroke:none;fill-rule:nonzero;fill:rgb(0%,0%,0%);fill-opacity:1;" d="M 362.984375 145.640625 C 366.171875 145.640625 369.410156 145.558594 372.703125 145.390625 L 372.75 146.234375 C 370.726562 146.421875 369.175781 146.90625 368.09375 147.6875 C 367.007812 148.46875 366.46875 149.429688 366.46875 150.5625 C 366.46875 151.511719 366.773438 152.261719 367.390625 152.8125 C 368.015625 153.355469 368.847656 153.625 369.890625 153.625 C 370.359375 153.625 370.859375 153.585938 371.390625 153.5 L 371.484375 154.34375 C 370.921875 154.4375 370.375 154.484375 369.84375 154.484375 C 368.53125 154.484375 367.476562 154.132812 366.6875 153.4375 C 365.894531 152.742188 365.5 151.808594 365.5 150.640625 C 365.5 149.703125 365.804688 148.867188 366.421875 148.125 C 367.046875 147.375 367.929688 146.789062 369.078125 146.359375 L 369.0625 146.328125 C 366.988281 146.421875 364.960938 146.46875 362.984375 146.46875 Z M 369.71875 148.171875 L 370.421875 147.765625 C 370.929688 148.507812 371.359375 149.148438 371.703125 149.6875 L 370.984375 150.078125 C 370.535156 149.351562 370.113281 148.714844 369.71875 148.171875 Z M 372.671875 149.734375 C 372.296875 149.109375 371.859375 148.453125 371.359375 147.765625 L 372.078125 147.359375 C 372.578125 148.070312 373.015625 148.730469 373.390625 149.34375 Z M 372.671875 149.734375 "/>
<path style=" stroke:none;fill-rule:nonzero;fill:rgb(0%,0%,0%);fill-opacity:1;" d="M 376.875 145.828125 L 382.953125 145.828125 L 382.953125 144.265625 L 383.84375 144.265625 L 383.84375 145.828125 L 387.125 145.828125 L 387.125 146.578125 L 383.84375 146.578125 L 383.84375 149.265625 C 383.988281 149.703125 384.0625 150.199219 384.0625 150.75 C 384.0625 151.9375 383.738281 152.84375 383.09375 153.46875 C 382.457031 154.09375 381.429688 154.503906 380.015625 154.703125 L 379.875 153.875 C 381 153.730469 381.828125 153.445312 382.359375 153.015625 C 382.890625 152.589844 383.175781 152 383.21875 151.25 L 383.21875 151.09375 L 383.1875 151.09375 C 382.820312 151.636719 382.210938 151.90625 381.359375 151.90625 C 380.703125 151.90625 380.148438 151.6875 379.703125 151.25 C 379.253906 150.8125 379.03125 150.273438 379.03125 149.625 C 379.03125 148.96875 379.253906 148.429688 379.703125 148 C 380.148438 147.5625 380.703125 147.34375 381.359375 147.34375 C 381.972656 147.34375 382.5 147.523438 382.9375 147.875 L 382.953125 147.875 L 382.953125 146.578125 L 376.875 146.578125 Z M 379.9375 149.625 C 379.9375 150.042969 380.085938 150.398438 380.390625 150.6875 C 380.691406 150.96875 381.0625 151.109375 381.5 151.109375 C 381.945312 151.109375 382.316406 150.96875 382.609375 150.6875 C 382.910156 150.398438 383.0625 150.042969 383.0625 149.625 C 383.0625 149.210938 382.910156 148.859375 382.609375 148.578125 C 382.316406 148.289062 381.945312 148.140625 381.5 148.140625 C 381.0625 148.140625 380.691406 148.289062 380.390625 148.578125 C 380.085938 148.871094 379.9375 149.21875 379.9375 149.625 Z M 379.9375 149.625 "/>
<path style=" stroke:none;fill-rule:evenodd;fill:rgb(0%,100%,0%);fill-opacity:1;" d="M 52 256 L 52 242 L 303 242 L 303 256 Z M 52 256 "/>
<path style=" stroke:none;fill-rule:evenodd;fill:rgb(0%,0%,0%);fill-opacity:1;" d="M 56.453125 243.75 L 56.453125 251.484375 C 56.453125 251.808594 56.476562 252.089844 56.53125 252.328125 C 56.5625 252.433594 56.601562 252.5 56.65625 252.53125 C 56.71875 252.5625 56.84375 252.585938 57.03125 252.59375 L 57.4375 252.625 L 57.546875 252.640625 L 57.546875 253 L 54.21875 253 L 54.21875 252.640625 L 54.328125 252.625 L 54.71875 252.59375 C 54.945312 252.585938 55.09375 252.546875 55.15625 252.484375 C 55.21875 252.421875 55.253906 252.28125 55.265625 252.0625 L 55.296875 251.484375 L 55.296875 245.265625 L 55.265625 244.6875 C 55.253906 244.460938 55.21875 244.320312 55.15625 244.265625 C 55.09375 244.203125 54.945312 244.164062 54.71875 244.140625 L 54.328125 244.109375 L 54.21875 244.109375 L 54.21875 243.75 Z M 62.277344 252.125 C 61.890625 252.5 61.546875 252.765625 61.246094 252.921875 C 60.941406 253.066406 60.605469 253.140625 60.230469 253.140625 C 59.699219 253.140625 59.25 252.976562 58.886719 252.640625 C 58.53125 252.296875 58.355469 251.867188 58.355469 251.34375 C 58.355469 250.742188 58.589844 250.25 59.058594 249.875 C 59.347656 249.648438 59.699219 249.484375 60.105469 249.390625 C 60.511719 249.289062 61.066406 249.234375 61.777344 249.234375 L 62.011719 249.234375 L 62.011719 248.453125 C 62.011719 247.445312 61.628906 246.9375 60.871094 246.9375 C 60.515625 246.9375 60.199219 247.046875 59.917969 247.265625 C 59.761719 247.402344 59.660156 247.671875 59.621094 248.078125 L 59.621094 248.1875 L 58.824219 248.1875 L 58.824219 247.03125 C 59.636719 246.679688 60.386719 246.5 61.074219 246.5 C 61.675781 246.5 62.171875 246.640625 62.558594 246.921875 C 62.785156 247.101562 62.941406 247.292969 63.027344 247.5 C 63.121094 247.710938 63.167969 248.011719 63.167969 248.40625 L 63.167969 251.234375 C 63.167969 251.746094 63.207031 252.105469 63.292969 252.3125 C 63.386719 252.523438 63.542969 252.625 63.761719 252.625 C 63.832031 252.625 63.9375 252.605469 64.074219 252.5625 L 64.105469 253 C 63.824219 253.09375 63.574219 253.140625 63.355469 253.140625 C 62.78125 253.140625 62.421875 252.804688 62.277344 252.125 Z M 62.011719 252 L 62.011719 249.59375 L 61.746094 249.59375 C 61.058594 249.59375 60.519531 249.734375 60.136719 250.015625 C 59.761719 250.296875 59.574219 250.6875 59.574219 251.1875 C 59.574219 251.554688 59.6875 251.855469 59.917969 252.09375 C 60.15625 252.335938 60.453125 252.453125 60.808594 252.453125 C 61.152344 252.453125 61.550781 252.304688 62.011719 252 Z M 65.214844 253.078125 L 65.214844 245.265625 L 65.183594 244.6875 C 65.160156 244.460938 65.121094 244.320312 65.058594 244.265625 C 65.003906 244.203125 64.863281 244.164062 64.636719 244.140625 L 64.246094 244.109375 L 64.136719 244.109375 L 64.136719 243.75 L 66.371094 243.75 L 66.371094 247.828125 C 66.941406 246.945312 67.6875 246.5 68.605469 246.5 C 69.324219 246.5 69.894531 246.78125 70.324219 247.34375 C 70.75 247.90625 70.964844 248.667969 70.964844 249.625 C 70.964844 250.6875 70.71875 251.542969 70.230469 252.1875 C 69.738281 252.824219 69.09375 253.140625 68.292969 253.140625 C 67.542969 253.140625 66.902344 252.855469 66.371094 252.28125 L 66.292969 252.28125 L 66.152344 253.078125 Z M 66.371094 251.828125 C 66.984375 252.277344 67.574219 252.5 68.136719 252.5 C 68.65625 252.5 69.050781 252.28125 69.324219 251.84375 C 69.59375 251.40625 69.730469 250.777344 69.730469 249.953125 C 69.730469 249.046875 69.597656 248.371094 69.339844 247.921875 C 69.089844 247.464844 68.703125 247.234375 68.183594 247.234375 C 67.859375 247.234375 67.535156 247.328125 67.214844 247.515625 C 66.890625 247.695312 66.609375 247.933594 66.371094 248.234375 Z M 77.363281 252.71875 C 76.621094 253 75.949219 253.140625 75.347656 253.140625 C 74.410156 253.140625 73.648438 252.828125 73.066406 252.203125 C 72.480469 251.578125 72.191406 250.761719 72.191406 249.75 C 72.191406 248.792969 72.449219 248.011719 72.972656 247.40625 C 73.503906 246.804688 74.175781 246.5 74.988281 246.5 C 75.757812 246.5 76.347656 246.757812 76.753906 247.265625 C 77.160156 247.777344 77.363281 248.507812 77.363281 249.453125 L 77.363281 249.5625 L 73.472656 249.5625 C 73.472656 250.4375 73.589844 251.09375 73.832031 251.53125 C 74.207031 252.21875 74.773438 252.5625 75.535156 252.5625 C 76.242188 252.5625 76.851562 252.417969 77.363281 252.125 Z M 73.488281 249.203125 L 76.128906 249.203125 L 76.144531 248.9375 C 76.144531 248.480469 76.121094 248.140625 76.082031 247.921875 C 76.039062 247.703125 75.957031 247.511719 75.832031 247.34375 C 75.613281 247.023438 75.308594 246.859375 74.925781 246.859375 C 74.488281 246.859375 74.136719 247.074219 73.878906 247.5 C 73.617188 247.917969 73.488281 248.484375 73.488281 249.203125 Z M 80.421875 243.75 L 80.421875 251.484375 C 80.421875 251.808594 80.445312 252.089844 80.5 252.328125 C 80.53125 252.433594 80.570312 252.5 80.625 252.53125 C 80.6875 252.5625 80.8125 252.585938 81 252.59375 L 81.40625 252.625 L 81.515625 252.640625 L 81.515625 253 L 78.1875 253 L 78.1875 252.640625 L 78.296875 252.625 L 78.6875 252.59375 C 78.914062 252.585938 79.0625 252.546875 79.125 252.484375 C 79.1875 252.421875 79.222656 252.28125 79.234375 252.0625 L 79.265625 251.484375 L 79.265625 245.265625 L 79.234375 244.6875 C 79.222656 244.460938 79.1875 244.320312 79.125 244.265625 C 79.0625 244.203125 78.914062 244.164062 78.6875 244.140625 L 78.296875 244.109375 L 78.1875 244.109375 L 78.1875 243.75 Z M 88.023438 245.28125 L 88.023438 244.46875 L 94.867188 244.46875 L 94.867188 245.28125 Z M 95.601562 252.90625 C 95.109375 253.050781 94.460938 253.171875 93.648438 253.265625 C 92.84375 253.367188 92.117188 253.421875 91.460938 253.421875 C 90.074219 253.421875 88.976562 253.191406 88.164062 252.734375 C 87.351562 252.277344 86.945312 251.667969 86.945312 250.90625 C 86.945312 250.136719 87.515625 249.1875 88.664062 248.0625 L 89.335938 248.59375 C 88.367188 249.542969 87.882812 250.289062 87.882812 250.828125 C 87.882812 251.359375 88.199219 251.789062 88.835938 252.109375 C 89.46875 252.421875 90.34375 252.578125 91.460938 252.578125 C 92.085938 252.578125 92.777344 252.53125 93.539062 252.4375 C 94.296875 252.335938 94.921875 252.210938 95.414062 252.0625 Z M 98.132812 245.546875 L 100.945312 245.546875 L 100.945312 243.515625 L 101.820312 243.515625 L 101.820312 247.28125 C 102.734375 246.449219 103.480469 245.855469 104.054688 245.5 C 104.636719 245.136719 105.121094 244.953125 105.507812 244.953125 C 105.964844 244.953125 106.292969 245.125 106.492188 245.46875 C 106.699219 245.8125 106.804688 246.414062 106.804688 247.265625 C 106.804688 247.746094 106.757812 248.328125 106.664062 249.015625 C 106.570312 249.734375 106.523438 250.3125 106.523438 250.75 C 106.523438 251.34375 106.574219 251.742188 106.679688 251.9375 C 106.78125 252.125 106.921875 252.21875 107.101562 252.21875 C 107.484375 252.21875 108.011719 251.855469 108.679688 251.125 L 109.164062 251.75 C 108.796875 252.167969 108.402344 252.507812 107.976562 252.765625 C 107.558594 253.015625 107.195312 253.140625 106.882812 253.140625 C 106.421875 253.140625 106.09375 252.96875 105.898438 252.625 C 105.699219 252.273438 105.601562 251.671875 105.601562 250.828125 C 105.601562 250.359375 105.648438 249.777344 105.742188 249.078125 C 105.835938 248.359375 105.882812 247.78125 105.882812 247.34375 C 105.882812 246.75 105.828125 246.355469 105.726562 246.15625 C 105.632812 245.960938 105.492188 245.859375 105.304688 245.859375 C 104.835938 245.859375 103.671875 246.71875 101.820312 248.4375 L 101.820312 253.78125 L 100.945312 253.78125 L 100.945312 249.28125 L 98.554688 251.640625 L 97.976562 251.046875 L 100.945312 248.109375 L 100.945312 246.34375 L 98.132812 246.34375 Z M 112.773438 246.140625 C 112.667969 247.058594 112.527344 248.007812 112.351562 248.984375 L 112.367188 249 C 112.898438 248.585938 113.539062 248.246094 114.289062 247.984375 C 115.039062 247.726562 115.742188 247.59375 116.398438 247.59375 C 118.636719 247.59375 119.757812 248.484375 119.757812 250.265625 C 119.757812 251.320312 119.320312 252.121094 118.445312 252.671875 C 117.578125 253.222656 116.289062 253.5 114.570312 253.5 C 113.789062 253.5 112.964844 253.453125 112.101562 253.359375 L 112.148438 252.546875 C 113.148438 252.652344 113.953125 252.703125 114.570312 252.703125 C 115.945312 252.703125 116.980469 252.5 117.679688 252.09375 C 118.386719 251.679688 118.742188 251.070312 118.742188 250.265625 C 118.742188 249.007812 117.921875 248.375 116.289062 248.375 C 115.664062 248.375 114.953125 248.539062 114.164062 248.859375 C 113.382812 249.171875 112.695312 249.574219 112.101562 250.0625 L 111.273438 249.84375 C 111.523438 248.449219 111.726562 247.183594 111.882812 246.046875 Z M 112.789062 244.03125 C 114.640625 244.273438 116.433594 244.390625 118.164062 244.390625 L 118.164062 245.1875 C 116.359375 245.1875 114.539062 245.070312 112.695312 244.828125 Z M 132.523438 246.421875 L 130.398438 246.421875 L 130.398438 250.34375 C 130.980469 250.75 131.6875 251.371094 132.523438 252.203125 L 131.914062 252.8125 C 131.289062 252.179688 130.78125 251.703125 130.398438 251.390625 C 130.335938 252.859375 129.542969 253.59375 128.023438 253.59375 C 127.199219 253.59375 126.5625 253.40625 126.117188 253.03125 C 125.667969 252.65625 125.445312 252.136719 125.445312 251.46875 C 125.445312 250.84375 125.667969 250.367188 126.117188 250.03125 C 126.5625 249.6875 127.199219 249.515625 128.023438 249.515625 C 128.53125 249.515625 129.03125 249.621094 129.523438 249.828125 L 129.523438 246.421875 L 125.757812 246.421875 L 125.757812 245.625 L 129.523438 245.625 L 129.523438 243.625 L 130.398438 243.625 L 130.398438 245.625 L 132.523438 245.625 Z M 124.007812 243.921875 C 123.621094 245.414062 123.429688 247.007812 123.429688 248.703125 C 123.429688 250.402344 123.621094 251.996094 124.007812 253.484375 L 123.148438 253.59375 C 122.742188 252.085938 122.539062 250.453125 122.539062 248.703125 C 122.539062 246.953125 122.742188 245.324219 123.148438 243.8125 Z M 129.523438 250.765625 C 129.011719 250.476562 128.5 250.328125 127.992188 250.328125 C 126.875 250.328125 126.320312 250.710938 126.320312 251.46875 C 126.320312 251.898438 126.460938 252.226562 126.742188 252.453125 C 127.03125 252.671875 127.449219 252.78125 127.992188 252.78125 C 128.53125 252.78125 128.921875 252.65625 129.164062 252.40625 C 129.402344 252.15625 129.523438 251.75 129.523438 251.1875 Z M 134.007812 251.5625 L 134.617188 251.046875 C 135.449219 251.859375 136.257812 252.726562 137.039062 253.640625 L 136.414062 254.109375 C 135.777344 253.347656 134.976562 252.5 134.007812 251.5625 Z M 153.789062 244.953125 L 154.632812 244.65625 C 155.171875 245.667969 155.585938 246.828125 155.867188 248.140625 C 156.15625 249.445312 156.304688 250.792969 156.304688 252.1875 L 155.382812 252.1875 C 155.382812 250.875 155.242188 249.585938 154.960938 248.3125 C 154.6875 247.042969 154.296875 245.921875 153.789062 244.953125 Z M 148.210938 244.84375 C 147.867188 246.085938 147.695312 247.414062 147.695312 248.828125 C 147.695312 249.871094 147.875 250.746094 148.242188 251.453125 C 148.617188 252.164062 148.992188 252.515625 149.367188 252.515625 C 149.625 252.515625 149.953125 252.257812 150.351562 251.734375 C 150.757812 251.214844 151.140625 250.480469 151.507812 249.53125 L 152.335938 249.859375 C 151.9375 250.976562 151.453125 251.851562 150.882812 252.484375 C 150.308594 253.109375 149.78125 253.421875 149.304688 253.421875 C 148.679688 253.421875 148.101562 252.976562 147.570312 252.078125 C 147.046875 251.183594 146.789062 250.101562 146.789062 248.828125 C 146.789062 247.320312 146.964844 245.949219 147.320312 244.71875 Z M 166.085938 244.125 C 164.542969 245.355469 163.03125 246.460938 161.554688 247.4375 C 161.085938 247.75 160.78125 247.964844 160.648438 248.078125 C 160.523438 248.195312 160.460938 248.324219 160.460938 248.46875 C 160.460938 248.59375 160.515625 248.714844 160.632812 248.828125 C 160.746094 248.933594 161.011719 249.125 161.429688 249.40625 C 163.09375 250.542969 164.773438 251.84375 166.460938 253.3125 L 165.804688 253.953125 C 164.117188 252.507812 162.476562 251.230469 160.882812 250.125 C 160.246094 249.6875 159.84375 249.382812 159.679688 249.203125 C 159.511719 249.015625 159.429688 248.773438 159.429688 248.46875 C 159.429688 248.148438 159.511719 247.898438 159.679688 247.71875 C 159.855469 247.53125 160.289062 247.210938 160.976562 246.75 C 162.476562 245.761719 163.980469 244.664062 165.492188 243.453125 Z M 170.445312 245.734375 C 172.796875 245.109375 174.574219 244.796875 175.773438 244.796875 C 178.792969 244.796875 180.304688 246.058594 180.304688 248.578125 C 180.304688 250.070312 179.65625 251.203125 178.367188 251.984375 C 177.085938 252.757812 175.183594 253.140625 172.664062 253.140625 L 172.601562 252.265625 C 177.078125 252.265625 179.320312 251.070312 179.320312 248.671875 C 179.320312 247.664062 179.023438 246.917969 178.429688 246.4375 C 177.84375 245.949219 176.9375 245.703125 175.710938 245.703125 C 174.625 245.703125 172.9375 246.007812 170.648438 246.609375 Z M 182.539062 246.625 L 182.539062 245.828125 L 184.882812 245.828125 C 185.109375 244.839844 185.28125 243.996094 185.398438 243.296875 L 186.273438 243.390625 C 186.15625 244.089844 185.996094 244.902344 185.789062 245.828125 L 186.867188 245.828125 C 187.230469 245.828125 187.507812 245.828125 187.695312 245.828125 C 187.890625 245.828125 188.101562 245.851562 188.320312 245.890625 C 188.546875 245.933594 188.710938 245.96875 188.804688 246 C 188.898438 246.03125 188.996094 246.117188 189.101562 246.25 C 189.214844 246.386719 189.28125 246.507812 189.304688 246.609375 C 189.335938 246.714844 189.367188 246.902344 189.398438 247.171875 C 189.4375 247.433594 189.460938 247.679688 189.460938 247.90625 C 189.460938 248.136719 189.460938 248.46875 189.460938 248.90625 C 189.460938 250.386719 189.28125 251.511719 188.929688 252.28125 C 188.574219 253.039062 188.125 253.421875 187.585938 253.421875 C 186.90625 253.421875 186.09375 253.203125 185.148438 252.765625 L 185.445312 251.96875 C 186.339844 252.355469 186.996094 252.546875 187.414062 252.546875 C 187.703125 252.546875 187.964844 252.226562 188.195312 251.578125 C 188.421875 250.933594 188.539062 250 188.539062 248.78125 C 188.539062 248.523438 188.539062 248.328125 188.539062 248.203125 C 188.539062 248.078125 188.53125 247.929688 188.523438 247.75 C 188.511719 247.5625 188.5 247.4375 188.492188 247.375 C 188.492188 247.304688 188.46875 247.214844 188.429688 247.109375 C 188.398438 246.996094 188.371094 246.929688 188.351562 246.90625 C 188.339844 246.875 188.292969 246.835938 188.210938 246.78125 C 188.125 246.71875 188.0625 246.6875 188.023438 246.6875 C 187.980469 246.679688 187.890625 246.667969 187.757812 246.65625 C 187.632812 246.636719 187.523438 246.625 187.429688 246.625 C 187.34375 246.625 187.210938 246.625 187.023438 246.625 L 185.601562 246.625 C 185.007812 249.03125 184.214844 251.324219 183.226562 253.5 L 182.398438 253.1875 C 183.335938 251.117188 184.101562 248.929688 184.695312 246.625 Z M 189.992188 245.046875 L 190.820312 244.75 C 191.714844 246.792969 192.421875 248.824219 192.945312 250.84375 L 192.085938 251.0625 C 191.855469 250.167969 191.542969 249.15625 191.148438 248.03125 C 190.761719 246.90625 190.375 245.914062 189.992188 245.046875 Z M 200.539062 252.453125 C 201.496094 252.351562 202.242188 251.976562 202.773438 251.328125 C 203.3125 250.671875 203.585938 249.796875 203.585938 248.703125 C 203.585938 247.695312 203.246094 246.855469 202.570312 246.1875 C 201.902344 245.523438 201.042969 245.171875 199.992188 245.140625 C 199.824219 246.695312 199.617188 248.007812 199.367188 249.078125 C 199.117188 250.152344 198.835938 250.964844 198.523438 251.515625 C 198.21875 252.058594 197.917969 252.4375 197.617188 252.65625 C 197.3125 252.875 196.980469 252.984375 196.617188 252.984375 C 196.042969 252.984375 195.511719 252.640625 195.023438 251.953125 C 194.542969 251.257812 194.304688 250.402344 194.304688 249.390625 C 194.304688 247.882812 194.820312 246.65625 195.851562 245.71875 C 196.882812 244.773438 198.21875 244.296875 199.867188 244.296875 C 201.1875 244.296875 202.28125 244.714844 203.148438 245.546875 C 204.023438 246.371094 204.460938 247.421875 204.460938 248.703125 C 204.460938 250.039062 204.121094 251.117188 203.445312 251.9375 C 202.765625 252.75 201.855469 253.203125 200.710938 253.296875 Z M 199.085938 245.1875 C 197.898438 245.34375 196.949219 245.804688 196.242188 246.5625 C 195.53125 247.3125 195.179688 248.257812 195.179688 249.390625 C 195.179688 250.140625 195.339844 250.78125 195.664062 251.3125 C 195.984375 251.835938 196.304688 252.09375 196.617188 252.09375 C 196.761719 252.09375 196.914062 252.042969 197.070312 251.9375 C 197.226562 251.835938 197.398438 251.632812 197.585938 251.328125 C 197.78125 251.015625 197.964844 250.617188 198.132812 250.125 C 198.296875 249.625 198.464844 248.953125 198.632812 248.109375 C 198.808594 247.257812 198.960938 246.28125 199.085938 245.1875 Z M 207.179688 243.71875 L 215.585938 243.71875 L 215.585938 253.921875 L 214.648438 253.921875 L 214.648438 253.15625 L 208.117188 253.15625 L 208.117188 253.921875 L 207.179688 253.921875 Z M 208.117188 247.921875 L 214.648438 247.921875 L 214.648438 244.546875 L 208.117188 244.546875 Z M 208.117188 248.71875 L 208.117188 252.359375 L 214.648438 252.359375 L 214.648438 248.71875 Z M 222.367188 246 L 218.070312 246 L 218.070312 245.171875 L 222.914062 245.171875 L 222.914062 243.203125 L 223.851562 243.203125 L 223.851562 245.171875 L 228.695312 245.171875 L 228.695312 246 L 224.398438 246 C 225.429688 247.992188 227.007812 249.917969 229.132812 251.78125 L 228.632812 252.5625 C 226.640625 250.824219 225.046875 248.859375 223.851562 246.671875 L 223.851562 251.21875 L 226.570312 251.21875 L 226.570312 252.015625 L 223.851562 252.015625 L 223.851562 254.15625 L 222.914062 254.15625 L 222.914062 252.015625 L 220.195312 252.015625 L 220.195312 251.21875 L 222.914062 251.21875 L 222.914062 246.671875 C 221.714844 248.859375 220.121094 250.824219 218.132812 252.5625 L 217.632812 251.78125 C 219.757812 249.917969 221.335938 247.992188 222.367188 246 Z M 230.492188 249.578125 L 230.492188 248.8125 L 234.164062 248.8125 L 234.164062 249.578125 Z M 230.492188 247.875 L 230.492188 247.125 L 234.164062 247.125 L 234.164062 247.875 Z M 230.070312 246.1875 L 230.070312 245.375 L 234.539062 245.375 L 234.539062 246.1875 Z M 230.398438 244.484375 L 230.398438 243.703125 L 234.210938 243.703125 L 234.210938 244.484375 Z M 239.429688 252.609375 L 239.429688 250.390625 L 235.945312 250.390625 L 235.945312 252.609375 Z M 236.914062 247.984375 L 239.101562 247.984375 L 239.101562 246.5 L 237.226562 246.5 Z M 231.273438 252.8125 L 233.382812 252.8125 L 233.382812 251.28125 L 231.273438 251.28125 Z M 231.273438 253.578125 L 231.273438 254.109375 L 230.398438 254.109375 L 230.398438 250.515625 L 234.226562 250.515625 L 234.226562 253.578125 Z M 235.945312 253.359375 L 235.945312 253.875 L 235.039062 253.875 L 235.039062 249.609375 L 240.335938 249.609375 L 240.335938 253.875 L 239.429688 253.875 L 239.429688 253.359375 Z M 237.382812 245.765625 L 240.023438 245.765625 L 240.023438 247.984375 L 240.898438 247.984375 L 240.898438 248.765625 L 234.570312 248.765625 L 234.570312 247.984375 L 235.960938 247.984375 L 236.289062 246.5 L 235.085938 246.5 L 235.085938 245.765625 L 236.445312 245.765625 L 236.695312 244.5 L 234.804688 244.5 L 234.804688 243.71875 L 240.585938 243.71875 L 240.585938 244.5 L 237.648438 244.5 Z M 248.539062 252.453125 C 249.496094 252.351562 250.242188 251.976562 250.773438 251.328125 C 251.3125 250.671875 251.585938 249.796875 251.585938 248.703125 C 251.585938 247.695312 251.246094 246.855469 250.570312 246.1875 C 249.902344 245.523438 249.042969 245.171875 247.992188 245.140625 C 247.824219 246.695312 247.617188 248.007812 247.367188 249.078125 C 247.117188 250.152344 246.835938 250.964844 246.523438 251.515625 C 246.21875 252.058594 245.917969 252.4375 245.617188 252.65625 C 245.3125 252.875 244.980469 252.984375 244.617188 252.984375 C 244.042969 252.984375 243.511719 252.640625 243.023438 251.953125 C 242.542969 251.257812 242.304688 250.402344 242.304688 249.390625 C 242.304688 247.882812 242.820312 246.65625 243.851562 245.71875 C 244.882812 244.773438 246.21875 244.296875 247.867188 244.296875 C 249.1875 244.296875 250.28125 244.714844 251.148438 245.546875 C 252.023438 246.371094 252.460938 247.421875 252.460938 248.703125 C 252.460938 250.039062 252.121094 251.117188 251.445312 251.9375 C 250.765625 252.75 249.855469 253.203125 248.710938 253.296875 Z M 247.085938 245.1875 C 245.898438 245.34375 244.949219 245.804688 244.242188 246.5625 C 243.53125 247.3125 243.179688 248.257812 243.179688 249.390625 C 243.179688 250.140625 243.339844 250.78125 243.664062 251.3125 C 243.984375 251.835938 244.304688 252.09375 244.617188 252.09375 C 244.761719 252.09375 244.914062 252.042969 245.070312 251.9375 C 245.226562 251.835938 245.398438 251.632812 245.585938 251.328125 C 245.78125 251.015625 245.964844 250.617188 246.132812 250.125 C 246.296875 249.625 246.464844 248.953125 246.632812 248.109375 C 246.808594 247.257812 246.960938 246.28125 247.085938 245.1875 Z M 256.054688 246.421875 L 256.945312 246.171875 C 257.382812 247.433594 257.914062 248.476562 258.539062 249.296875 C 258.789062 249.632812 259.0625 249.945312 259.367188 250.234375 C 259.980469 249.632812 260.476562 248.96875 260.851562 248.25 C 261.246094 247.5 261.605469 246.636719 261.929688 245.65625 L 254.132812 245.65625 L 254.132812 244.8125 L 258.898438 244.8125 L 258.898438 243.046875 L 259.867188 243.046875 L 259.867188 244.8125 L 264.632812 244.8125 L 264.632812 245.65625 L 262.929688 245.65625 C 262.554688 246.8125 262.148438 247.804688 261.710938 248.625 C 261.25 249.46875 260.699219 250.203125 260.054688 250.828125 C 260.3125 251.027344 260.59375 251.214844 260.898438 251.390625 C 261.835938 251.953125 263.070312 252.46875 264.601562 252.9375 L 264.335938 253.75 C 262.699219 253.269531 261.375 252.726562 260.367188 252.109375 C 260.011719 251.890625 259.679688 251.664062 259.367188 251.421875 C 258.84375 251.851562 258.28125 252.214844 257.679688 252.515625 C 256.835938 252.953125 255.75 253.363281 254.429688 253.75 L 254.164062 252.9375 C 255.359375 252.585938 256.367188 252.199219 257.179688 251.78125 C 257.730469 251.5 258.230469 251.183594 258.679688 250.828125 C 258.355469 250.515625 258.0625 250.183594 257.804688 249.828125 C 257.136719 248.964844 256.554688 247.828125 256.054688 246.421875 Z M 275.445312 245.109375 L 267.320312 245.109375 L 267.320312 247.09375 L 266.429688 247.09375 L 266.429688 244.34375 L 270.898438 244.34375 L 270.898438 243.046875 L 271.867188 243.046875 L 271.867188 244.34375 L 276.335938 244.34375 L 276.335938 247.09375 L 275.445312 247.09375 Z M 268.117188 247 L 268.117188 246.203125 L 274.679688 246.203125 L 274.679688 247 C 273.886719 247.804688 273 248.515625 272.023438 249.140625 L 272.023438 249.5625 L 276.820312 249.5625 L 276.820312 250.390625 L 272.023438 250.390625 L 272.023438 252.625 C 272.023438 252.898438 272.015625 253.066406 272.007812 253.140625 C 271.996094 253.253906 271.96875 253.367188 271.929688 253.484375 C 271.898438 253.578125 271.851562 253.65625 271.789062 253.71875 C 271.746094 253.757812 271.664062 253.800781 271.539062 253.84375 C 271.414062 253.875 271.28125 253.894531 271.148438 253.90625 C 271.042969 253.914062 270.851562 253.921875 270.570312 253.921875 C 270.296875 253.921875 269.671875 253.898438 268.695312 253.859375 L 268.664062 253.03125 C 269.601562 253.070312 270.203125 253.09375 270.476562 253.09375 C 270.765625 253.09375 270.933594 253.066406 270.976562 253.015625 C 271.027344 252.976562 271.054688 252.808594 271.054688 252.515625 L 271.054688 250.390625 L 265.945312 250.390625 L 265.945312 249.5625 L 271.054688 249.5625 L 271.054688 248.4375 L 271.523438 248.4375 C 272.199219 248.011719 272.835938 247.53125 273.429688 247 Z M 278.367188 244.640625 C 281.554688 244.640625 284.792969 244.558594 288.085938 244.390625 L 288.132812 245.234375 C 286.109375 245.421875 284.558594 245.90625 283.476562 246.6875 C 282.390625 247.46875 281.851562 248.429688 281.851562 249.5625 C 281.851562 250.511719 282.15625 251.261719 282.773438 251.8125 C 283.398438 252.355469 284.230469 252.625 285.273438 252.625 C 285.742188 252.625 286.242188 252.585938 286.773438 252.5 L 286.867188 253.34375 C 286.304688 253.4375 285.757812 253.484375 285.226562 253.484375 C 283.914062 253.484375 282.859375 253.132812 282.070312 252.4375 C 281.277344 251.742188 280.882812 250.808594 280.882812 249.640625 C 280.882812 248.703125 281.1875 247.867188 281.804688 247.125 C 282.429688 246.375 283.3125 245.789062 284.460938 245.359375 L 284.445312 245.328125 C 282.371094 245.421875 280.34375 245.46875 278.367188 245.46875 Z M 285.101562 247.171875 L 285.804688 246.765625 C 286.3125 247.507812 286.742188 248.148438 287.085938 248.6875 L 286.367188 249.078125 C 285.917969 248.351562 285.496094 247.714844 285.101562 247.171875 Z M 288.054688 248.734375 C 287.679688 248.109375 287.242188 247.453125 286.742188 246.765625 L 287.460938 246.359375 C 287.960938 247.070312 288.398438 247.730469 288.773438 248.34375 Z M 290.257812 244.828125 L 296.335938 244.828125 L 296.335938 243.265625 L 297.226562 243.265625 L 297.226562 244.828125 L 300.507812 244.828125 L 300.507812 245.578125 L 297.226562 245.578125 L 297.226562 248.265625 C 297.371094 248.703125 297.445312 249.199219 297.445312 249.75 C 297.445312 250.9375 297.121094 251.84375 296.476562 252.46875 C 295.839844 253.09375 294.8125 253.503906 293.398438 253.703125 L 293.257812 252.875 C 294.382812 252.730469 295.210938 252.445312 295.742188 252.015625 C 296.273438 251.589844 296.558594 251 296.601562 250.25 L 296.601562 250.09375 L 296.570312 250.09375 C 296.203125 250.636719 295.59375 250.90625 294.742188 250.90625 C 294.085938 250.90625 293.53125 250.6875 293.085938 250.25 C 292.636719 249.8125 292.414062 249.273438 292.414062 248.625 C 292.414062 247.96875 292.636719 247.429688 293.085938 247 C 293.53125 246.5625 294.085938 246.34375 294.742188 246.34375 C 295.355469 246.34375 295.882812 246.523438 296.320312 246.875 L 296.335938 246.875 L 296.335938 245.578125 L 290.257812 245.578125 Z M 293.320312 248.625 C 293.320312 249.042969 293.46875 249.398438 293.773438 249.6875 C 294.074219 249.96875 294.445312 250.109375 294.882812 250.109375 C 295.328125 250.109375 295.699219 249.96875 295.992188 249.6875 C 296.292969 249.398438 296.445312 249.042969 296.445312 248.625 C 296.445312 248.210938 296.292969 247.859375 295.992188 247.578125 C 295.699219 247.289062 295.328125 247.140625 294.882812 247.140625 C 294.445312 247.140625 294.074219 247.289062 293.773438 247.578125 C 293.46875 247.871094 293.320312 248.21875 293.320312 248.625 Z M 293.320312 248.625 "/>
</g>
</svg>
