<?xml version="1.0" encoding="UTF-8"?>
<svg xmlns="http://www.w3.org/2000/svg" xmlns:xlink="http://www.w3.org/1999/xlink" width="400pt" height="300pt" viewBox="0 0 400 300" version="1.1">
<g id="surface2">
<rect x="0" y="0" width="400" height="300" style="fill:rgb(100%,100%,100%);fill-opacity:1;stroke:none;"/>
<path style="fill:none;stroke-width:1;stroke-linecap:round;stroke-linejoin:round;stroke:rgb(0%,0%,100%);stroke-opacity:1;stroke-miterlimit:10;" d="M 0.167969 249.167969 L 401 242.484375 "/>
<path style="fill:none;stroke-width:1;stroke-linecap:round;stroke-linejoin:round;stroke:rgb(0%,0%,100%);stroke-opacity:1;stroke-miterlimit:10;" d="M 0.167969 219.265625 L 402 212.570312 "/>
<path style="fill:none;stroke-width:4;stroke-linecap:round;stroke-linejoin:round;stroke:rgb(100%,100%,100%);stroke-opacity:1;stroke-miterlimit:10;" d="M 4.563168 -0.00208304 L 4.565251 -1.064696 C 4.316653 -0.682067 4.010901 -0.38634 3.644025 -0.173674 C 3.285091 0.0313108 2.912356 0.126675 2.529597 0.120296 C 2.037347 0.119905 1.657062 -0.034891 1.381058 -0.352034 C 1.105055 -0.669178 0.963929 -1.109091 0.965491 -1.671643 L 0.962627 -4.312682 L 0.939713 -4.813134 C 0.919534 -5.00881 0.88256 -5.134443 0.82098 -5.190165 C 0.767341 -5.253567 0.642879 -5.286896 0.447594 -5.290151 L 0.0887898 -5.327385 L -0.00468685 -5.34457 L 0.000520761 -5.657027 L 1.985141 -5.655204 L 1.983839 -1.826569 C 1.983839 -1.357754 2.052449 -1.020626 2.185894 -0.823063 C 2.327281 -0.63318 2.571778 -0.535342 2.915481 -0.529614 C 3.153729 -0.525643 3.432401 -0.603041 3.747657 -0.765779 C 4.063042 -0.936328 4.336182 -1.150556 4.57098 -1.408398 L 4.556919 -4.315286 L 4.534006 -4.815737 C 4.525739 -5.022935 4.492735 -5.152409 4.431155 -5.208131 C 4.36951 -5.259947 4.237172 -5.2895 4.041887 -5.292755 L 3.683082 -5.329989 L 3.589606 -5.347174 L 3.594813 -5.659631 L 5.595056 -5.657548 L 5.601305 -1.344345 L 5.623959 -0.82827 C 5.62845 -0.628949 5.665424 -0.503316 5.727069 -0.4515 C 5.788649 -0.395778 5.917147 -0.370196 6.116338 -0.366876 L 6.475142 -0.329642 L 6.568879 -0.328079 L 6.563411 0.000000000548738 Z M 8.933199 -4.590053 C 9.177827 -4.968841 9.479608 -5.260728 9.838542 -5.465712 C 10.205419 -5.678378 10.582189 -5.781489 10.968854 -5.775044 C 11.457198 -5.774719 11.841389 -5.619858 12.117393 -5.302714 C 12.393396 -4.985571 12.530617 -4.545723 12.53296 -3.983106 L 12.535824 -1.342066 L 12.5741 -0.825732 C 12.578592 -0.62641 12.607754 -0.500907 12.661588 -0.449221 C 12.723168 -0.3935 12.851666 -0.367918 13.050857 -0.364598 L 13.409661 -0.327363 L 13.503398 -0.325801 L 13.49793 0.00227833 L 10.544434 -0.0000650942 L 10.549902 -0.328145 L 10.643639 -0.326582 L 10.988122 -0.367722 C 11.183538 -0.372279 11.309041 -0.401442 11.364633 -0.45521 C 11.416253 -0.505138 11.449582 -0.6296 11.464619 -0.828596 L 11.504457 -1.343629 L 11.498989 -3.82844 C 11.495213 -4.305131 11.434415 -4.642129 11.312557 -4.831686 C 11.190829 -5.029054 10.96586 -5.126567 10.645462 -5.124093 C 10.176581 -5.120187 9.601336 -4.828952 8.927471 -4.24635 L 8.941532 -1.339462 C 8.936845 -1.058251 8.952207 -0.807961 8.991525 -0.588525 C 9.021338 -0.502079 9.059484 -0.446748 9.113643 -0.414591 C 9.175744 -0.390115 9.288749 -0.372605 9.456564 -0.361994 L 9.799746 -0.32502 L 9.909106 -0.323197 L 9.903638 0.00488214 L 6.934519 0.00227833 L 6.939987 -0.325801 L 7.049347 -0.323978 L 7.39383 -0.365119 C 7.589245 -0.369675 7.714749 -0.398838 7.77034 -0.452606 C 7.821961 -0.502534 7.855289 -0.626996 7.870326 -0.825992 L 7.910164 -1.341025 L 7.897145 -4.310404 L 7.874232 -4.810855 C 7.86577 -5.006336 7.832701 -5.131904 7.771121 -5.187626 C 7.709671 -5.251159 7.577463 -5.288523 7.382373 -5.303495 L 7.038931 -5.324846 L 6.929832 -5.342292 L 6.935039 -5.654749 L 8.935283 -5.652665 Z M 18.392368 -0.185716 C 17.845829 0.023955 17.31283 0.124462 16.793371 0.115804 C 15.968941 0.121598 15.29755 -0.14744 14.775422 -0.699187 C 14.261236 -1.258614 14.007625 -1.981691 14.01459 -2.868417 C 14.017454 -3.743491 14.263579 -4.446518 14.753029 -4.981405 C 15.250226 -5.512255 15.907101 -5.77869 16.719683 -5.776867 C 17.145536 -5.777583 17.70288 -5.697972 18.387681 -5.530287 L 18.396273 -4.17058 L 17.755737 -4.181255 L 17.726054 -4.275513 C 17.732954 -4.689518 17.675084 -4.967865 17.55238 -5.106648 C 17.356834 -5.328687 17.077316 -5.434922 16.713955 -5.433165 C 16.214024 -5.441497 15.819613 -5.21757 15.530786 -4.765289 C 15.241894 -4.309102 15.094974 -3.698184 15.093867 -2.928565 C 15.08866 -2.147293 15.261878 -1.523226 15.609681 -1.060335 C 15.953709 -0.60532 16.430466 -0.378593 17.036046 -0.380221 C 17.543918 -0.37957 17.994636 -0.465821 18.384296 -0.639039 Z M 21.108852 -8.231409 L 21.119007 -1.339658 C 21.11432 -1.058447 21.129683 -0.808156 21.169 -0.58872 C 21.198814 -0.502274 21.236959 -0.446943 21.291119 -0.414786 C 21.353219 -0.39031 21.466225 -0.3728 21.63404 -0.362189 L 21.977221 -0.325215 L 22.086581 -0.323393 L 22.081113 0.00468685 L 19.111994 0.00208305 L 19.117462 -0.325996 L 19.226822 -0.324174 L 19.571305 -0.365314 C 19.766721 -0.369871 19.892224 -0.399033 19.947816 -0.452802 C 19.999436 -0.50273 20.032765 -0.627192 20.047802 -0.826187 L 20.08764 -1.34122 L 20.086078 -6.873264 L 20.047802 -7.389599 C 20.039339 -7.585079 20.006271 -7.710648 19.944691 -7.766369 C 19.891053 -7.829772 19.766656 -7.867006 19.571566 -7.881978 L 19.228124 -7.903329 L 19.118764 -7.905152 L 19.108609 -8.233492 Z M 24.460861 -5.651754 L 24.46711 -1.338551 C 24.462423 -1.05734 24.477785 -0.807049 24.517103 -0.587614 C 24.546916 -0.501167 24.585062 -0.445837 24.639221 -0.41368 C 24.701322 -0.389204 24.814327 -0.371693 24.982142 -0.361083 L 25.325324 -0.324109 L 25.434684 -0.322286 L 25.429216 0.00579347 L 22.460097 0.00318966 L 22.465565 -0.32489 L 22.574925 -0.323067 L 22.919408 -0.364207 C 23.114824 -0.368764 23.240327 -0.397927 23.295918 -0.451695 C 23.347539 -0.501623 23.380867 -0.626085 23.395904 -0.825081 L 23.435743 -1.340113 L 23.422724 -4.309493 L 23.39981 -4.809944 C 23.391348 -5.005425 23.358279 -5.130993 23.296699 -5.186715 C 23.23525 -5.250247 23.103041 -5.287612 22.907951 -5.302584 L 22.564509 -5.323935 L 22.45541 -5.341381 L 22.460618 -5.653837 Z M 23.431056 -6.684684 L 23.432618 -7.716051 L 24.463985 -7.714489 L 24.462423 -6.683121 Z M 27.733193 -0.635589 L 27.742046 0.708495 C 27.737229 0.997518 27.756497 1.247874 27.807662 1.459693 C 27.825628 1.553756 27.859868 1.609021 27.914157 1.633367 C 27.976128 1.665654 28.089068 1.68707 28.256818 1.701587 L 28.599999 1.738561 L 28.709359 1.740383 L 28.703891 2.068463 L 25.734772 2.065859 L 25.74024 1.737779 L 25.8496 1.739602 L 26.194084 1.698462 C 26.389564 1.69 26.515133 1.656931 26.570854 1.595351 C 26.634257 1.541713 26.667585 1.417251 26.67084 1.221966 L 26.710678 0.706933 L 26.700524 -4.309558 L 26.67761 -4.810009 C 26.669148 -5.00549 26.636079 -5.131058 26.574499 -5.18678 C 26.51305 -5.250313 26.380841 -5.287677 26.185751 -5.302649 L 25.842309 -5.324 L 25.73321 -5.341446 L 25.738418 -5.653902 L 27.738661 -5.651819 L 27.736578 -4.589206 C 28.249853 -5.381544 28.912781 -5.776802 29.725364 -5.774979 C 30.358219 -5.772245 30.865831 -5.521564 31.244163 -5.015189 C 31.618721 -4.51669 31.810751 -3.849335 31.820125 -3.005312 C 31.812118 -2.056095 31.592357 -1.294026 31.156936 -0.719171 C 30.729456 -0.151997 30.158312 0.127586 29.439466 0.127326 C 28.77146 0.124006 28.201357 -0.127717 27.733193 -0.635589 Z M 27.739963 -1.041782 C 28.284028 -0.634222 28.808109 -0.434054 29.308234 -0.437439 C 29.765332 -0.437635 30.11242 -0.635003 30.349496 -1.029545 C 30.594319 -1.42005 30.717023 -1.98449 30.72158 -2.726705 C 30.723207 -3.52757 30.608184 -4.127226 30.376576 -4.529579 C 30.152713 -4.927896 29.812201 -5.125004 29.355103 -5.124809 C 29.062175 -5.129691 28.767815 -5.048648 28.476058 -4.889425 C 28.192048 -4.726167 27.942278 -4.507642 27.730589 -4.229881 Z M 34.57788 -0.634808 L 34.586733 0.709276 C 34.581916 0.998299 34.601184 1.248655 34.652349 1.460474 C 34.670315 1.554537 34.704555 1.609802 34.758845 1.634148 C 34.820815 1.666435 34.933755 1.687852 35.101505 1.702368 L 35.444687 1.739342 L 35.554047 1.741164 L 35.548579 2.069244 L 32.57946 2.06664 L 32.584928 1.738561 L 32.694288 1.740383 L 33.038771 1.699243 C 33.234252 1.690781 33.35982 1.657712 33.415542 1.596132 C 33.478944 1.542494 33.512273 1.418032 33.515528 1.222747 L 33.555366 0.707714 L 33.545211 -4.308777 L 33.522298 -4.809228 C 33.513835 -5.004709 33.480767 -5.130277 33.419187 -5.185999 C 33.357737 -5.249531 33.225529 -5.286896 33.030439 -5.301868 L 32.686997 -5.323219 L 32.577897 -5.340665 L 32.583105 -5.653121 L 34.583348 -5.651038 L 34.581265 -4.588425 C 35.09454 -5.380763 35.757469 -5.776021 36.570051 -5.774198 C 37.202906 -5.771464 37.710518 -5.520783 38.088851 -5.014408 C 38.463408 -4.515909 38.655439 -3.848554 38.664813 -3.004531 C 38.656806 -2.055314 38.437045 -1.293245 38.001623 -0.71839 C 37.574144 -0.151216 37.002999 0.128368 36.284154 0.128107 C 35.616147 0.124787 35.046044 -0.126935 34.57788 -0.634808 Z M 34.58465 -1.041001 C 35.128715 -0.633441 35.652796 -0.433273 36.152922 -0.436658 C 36.61002 -0.436853 36.957107 -0.634222 37.194183 -1.028763 C 37.439006 -1.419269 37.561711 -1.983709 37.566267 -2.725924 C 37.567895 -3.526789 37.452871 -4.126445 37.221263 -4.528798 C 36.997401 -4.927115 36.656888 -5.124223 36.19979 -5.124028 C 35.906862 -5.12891 35.612502 -5.047867 35.320746 -4.888644 C 35.036736 -4.725385 34.786966 -4.506861 34.575276 -4.2291 Z M 44.357837 -0.241308 C 43.697317 0.0094388 43.09369 0.128302 42.554702 0.119319 C 41.730272 0.125113 41.058946 -0.147831 40.537013 -0.711294 C 40.015016 -1.270852 39.753659 -1.997965 39.760819 -2.896408 C 39.763163 -3.740236 39.993404 -4.427901 40.451609 -4.963308 C 40.917755 -5.506397 41.516109 -5.777713 42.246672 -5.777258 C 42.922489 -5.773808 43.438303 -5.54643 43.798019 -5.095061 C 44.165481 -4.639655 44.350026 -3.991959 44.359399 -3.147935 L 44.357577 -3.038575 L 40.90415 -3.049251 C 40.899073 -2.275791 41.006545 -1.691887 41.21869 -1.293766 C 41.552497 -0.69437 42.055357 -0.392979 42.735146 -0.39337 C 43.368001 -0.390636 43.909266 -0.518352 44.351067 -0.772744 Z M 40.909618 -3.37733 L 43.253563 -3.369519 L 43.257469 -3.603861 C 43.264239 -4.010055 43.245752 -4.307279 43.209819 -4.495404 C 43.170111 -4.691406 43.098897 -4.872305 42.999953 -5.030226 C 42.793862 -5.322763 42.522805 -5.467926 42.178973 -5.465842 C 41.792308 -5.472287 41.480502 -5.282144 41.247592 -4.90316 C 41.022428 -4.52014 40.908446 -4.01025 40.909618 -3.37733 Z M 49.553795 -0.00234342 L 49.555878 -1.064956 C 49.050349 -0.268582 48.387486 0.122769 47.567092 0.120817 C 46.930331 0.118017 46.42272 -0.132664 46.048292 -0.638974 C 45.669959 -1.145349 45.478059 -1.820515 45.472591 -2.664474 C 45.476627 -3.60985 45.692417 -4.368078 46.119897 -4.935252 C 46.555123 -5.49839 47.134144 -5.781749 47.85299 -5.781489 C 48.51709 -5.778234 49.087193 -5.526511 49.559263 -5.018574 L 49.559003 -6.878211 C 49.552103 -7.167429 49.529059 -7.425661 49.493647 -7.645032 C 49.47158 -7.727442 49.433499 -7.786679 49.371529 -7.818966 C 49.31737 -7.851123 49.20827 -7.868569 49.04423 -7.871303 L 48.701049 -7.908277 L 48.591689 -7.910099 L 48.581534 -8.238439 L 50.581777 -8.236356 L 50.591932 -1.344605 C 50.587245 -1.063394 50.606513 -0.813038 50.657548 -0.593407 C 50.687362 -0.506961 50.725507 -0.45163 50.779667 -0.419473 C 50.82992 -0.387381 50.939019 -0.369936 51.106965 -0.367137 L 51.465769 -0.329902 L 51.559506 -0.32834 L 51.554038 -0.000260376 Z M 49.552493 -4.61238 C 49.015979 -5.004188 48.491833 -5.20045 47.983961 -5.201101 C 47.523088 -5.208782 47.17216 -5.015384 46.927337 -4.624879 C 46.690456 -4.242054 46.571722 -3.681455 46.571136 -2.943081 C 46.565538 -2.138375 46.676656 -1.538784 46.900518 -1.140467 C 47.132126 -0.738114 47.476479 -0.537035 47.937353 -0.529354 C 48.226505 -0.532348 48.524902 -0.621138 48.832541 -0.795723 C 49.13621 -0.966467 49.374133 -1.177376 49.546244 -1.424542 Z M 57.176369 -8.23193 L 57.186524 -1.340178 C 57.181837 -1.058968 57.1972 -0.808677 57.236517 -0.589241 C 57.266331 -0.502795 57.304476 -0.447464 57.358636 -0.415307 C 57.420736 -0.390831 57.533742 -0.373321 57.701557 -0.36271 L 58.044738 -0.325736 L 58.154098 -0.323913 L 58.14863 0.00416609 L 55.179511 0.00156229 L 55.184979 -0.326517 L 55.294339 -0.324694 L 55.638822 -0.365835 C 55.834238 -0.370391 55.959741 -0.399554 56.015333 -0.453322 C 56.066953 -0.50325 56.100282 -0.627712 56.115319 -0.826708 L 56.155157 -1.341741 L 56.153595 -6.873785 L 56.115319 -7.390119 C 56.106856 -7.5856 56.073788 -7.711169 56.012208 -7.76689 C 55.95857 -7.830293 55.834173 -7.867527 55.639083 -7.882499 L 55.295641 -7.90385 L 55.186281 -7.905673 L 55.176126 -8.234013 Z M 60.524472 -5.65234 L 60.530721 -1.339137 C 60.526034 -1.057926 60.541397 -0.807635 60.580714 -0.5882 C 60.610528 -0.501753 60.648674 -0.446422 60.702833 -0.414265 C 60.764933 -0.38979 60.877939 -0.372279 61.045754 -0.361669 L 61.388935 -0.324694 L 61.498295 -0.322872 L 61.492827 0.00520762 L 58.523708 0.00260381 L 58.529176 -0.325476 L 58.638536 -0.323653 L 58.983019 -0.364793 C 59.178435 -0.36935 59.303938 -0.398512 59.35953 -0.452281 C 59.41115 -0.502209 59.444479 -0.626671 59.459516 -0.825667 L 59.499354 -1.340699 L 59.486335 -4.310078 L 59.463421 -4.81053 C 59.454959 -5.00601 59.421891 -5.131579 59.360311 -5.1873 C 59.298861 -5.250833 59.166653 -5.288198 58.971563 -5.30317 L 58.628121 -5.324521 L 58.519021 -5.341966 L 58.524229 -5.654423 Z M 59.494667 -6.685269 L 59.496229 -7.716637 L 60.527597 -7.715074 L 60.526034 -6.683707 Z M 63.800189 -4.589792 C 64.044816 -4.968581 64.346597 -5.260467 64.705532 -5.465452 C 65.072408 -5.678118 65.449179 -5.781228 65.835844 -5.774784 C 66.324187 -5.774458 66.708379 -5.619597 66.984382 -5.302454 C 67.260385 -4.98531 67.397606 -4.545462 67.399949 -3.982845 L 67.402814 -1.341806 L 67.44109 -0.825471 C 67.445581 -0.62615 67.474744 -0.500647 67.528577 -0.448961 C 67.590157 -0.39324 67.718655 -0.367657 67.917846 -0.364337 L 68.276651 -0.327103 L 68.370388 -0.325541 L 68.36492 0.00253872 L 65.411424 0.000195291 L 65.416892 -0.327884 L 65.510628 -0.326322 L 65.855112 -0.367462 C 66.050527 -0.372019 66.176031 -0.401181 66.231622 -0.45495 C 66.283243 -0.504878 66.316571 -0.62934 66.331608 -0.828335 L 66.371446 -1.343368 L 66.365978 -3.828179 C 66.362203 -4.304871 66.301404 -4.641868 66.179546 -4.831425 C 66.057818 -5.028794 65.832849 -5.126306 65.512451 -5.123833 C 65.043571 -5.119927 64.468325 -4.828691 63.794461 -4.24609 L 63.808521 -1.339202 C 63.803834 -1.057991 63.819197 -0.8077 63.858514 -0.588265 C 63.888328 -0.501818 63.926474 -0.446487 63.980633 -0.41433 C 64.042733 -0.389855 64.155739 -0.372344 64.323554 -0.361734 L 64.666735 -0.32476 L 64.776095 -0.322937 L 64.770627 0.00514252 L 61.801508 0.00253872 L 61.806976 -0.325541 L 61.916336 -0.323718 L 62.260819 -0.364858 C 62.456235 -0.369415 62.581738 -0.398577 62.63733 -0.452346 C 62.68895 -0.502274 62.722279 -0.626736 62.737316 -0.825732 L 62.777154 -1.340764 L 62.764135 -4.310144 L 62.741221 -4.810595 C 62.732759 -5.006076 62.699691 -5.131644 62.638111 -5.187366 C 62.576661 -5.250898 62.444453 -5.288263 62.249363 -5.303235 L 61.905921 -5.324586 L 61.796821 -5.342032 L 61.802029 -5.654488 L 63.802272 -5.652405 Z M 73.475212 -0.244367 C 72.814692 0.00637933 72.211065 0.125243 71.672077 0.11626 C 70.847648 0.122053 70.176322 -0.15089 69.654389 -0.714354 C 69.132391 -1.273912 68.871034 -2.001024 68.878195 -2.899467 C 68.880538 -3.743295 69.11078 -4.43096 69.568984 -4.966368 C 70.03513 -5.509456 70.633485 -5.780773 71.364047 -5.780317 C 72.039865 -5.776867 72.555679 -5.54949 72.915394 -5.09812 C 73.282856 -4.642715 73.467401 -3.995018 73.476775 -3.150995 L 73.474952 -3.041635 L 70.021525 -3.05231 C 70.016448 -2.27885 70.12392 -1.694947 70.336065 -1.296825 C 70.669873 -0.697429 71.172733 -0.396039 71.852521 -0.396429 C 72.485376 -0.393695 73.026642 -0.521412 73.468443 -0.775804 Z M 70.026993 -3.38039 L 72.370939 -3.372578 L 72.374844 -3.606921 C 72.381614 -4.013115 72.363127 -4.310339 72.327195 -4.498464 C 72.287487 -4.694465 72.216273 -4.875365 72.117328 -5.033285 C 71.911237 -5.325823 71.640181 -5.470985 71.296348 -5.468902 C 70.909683 -5.475346 70.597878 -5.285203 70.364967 -4.90622 C 70.139803 -4.5232 70.025822 -4.01331 70.026993 -3.38039 Z " transform="matrix(0.999861,-0.0166644,0.0166644,0.999861,262,219)"/>
<path style=" stroke:none;fill-rule:nonzero;fill:rgb(0%,0%,0%);fill-opacity:1;" d="M 266.5625 218.921875 L 266.546875 217.859375 C 266.304688 218.246094 266.003906 218.546875 265.640625 218.765625 C 265.285156 218.976562 264.914062 219.078125 264.53125 219.078125 C 264.039062 219.085938 263.65625 218.9375 263.375 218.625 C 263.09375 218.3125 262.945312 217.875 262.9375 217.3125 L 262.890625 214.671875 L 262.859375 214.171875 C 262.835938 213.976562 262.796875 213.851562 262.734375 213.796875 C 262.679688 213.734375 262.554688 213.703125 262.359375 213.703125 L 262 213.671875 L 261.90625 213.65625 L 261.90625 213.34375 L 263.890625 213.3125 L 263.953125 217.140625 C 263.960938 217.609375 264.035156 217.945312 264.171875 218.140625 C 264.316406 218.328125 264.5625 218.421875 264.90625 218.421875 C 265.144531 218.421875 265.421875 218.339844 265.734375 218.171875 C 266.046875 217.996094 266.316406 217.777344 266.546875 217.515625 L 266.484375 214.609375 L 266.453125 214.109375 C 266.441406 213.902344 266.40625 213.773438 266.34375 213.71875 C 266.28125 213.667969 266.148438 213.640625 265.953125 213.640625 L 265.59375 213.609375 L 265.5 213.59375 L 265.5 213.28125 L 267.5 213.25 L 267.578125 217.5625 L 267.609375 218.078125 C 267.617188 218.277344 267.65625 218.402344 267.71875 218.453125 C 267.78125 218.507812 267.910156 218.53125 268.109375 218.53125 L 268.46875 218.5625 L 268.5625 218.5625 L 268.5625 218.890625 Z M 270.855469 214.261719 C 271.09375 213.878906 271.390625 213.582031 271.746094 213.371094 C 272.109375 213.152344 272.484375 213.042969 272.871094 213.042969 C 273.359375 213.035156 273.746094 213.183594 274.027344 213.496094 C 274.308594 213.808594 274.453125 214.246094 274.464844 214.808594 L 274.511719 217.449219 L 274.558594 217.964844 C 274.566406 218.164062 274.597656 218.289062 274.652344 218.339844 C 274.714844 218.394531 274.84375 218.417969 275.042969 218.417969 L 275.402344 218.449219 L 275.496094 218.449219 L 275.496094 218.777344 L 272.542969 218.824219 L 272.542969 218.496094 L 272.636719 218.496094 L 272.980469 218.449219 C 273.175781 218.441406 273.300781 218.410156 273.355469 218.355469 C 273.40625 218.304688 273.4375 218.179688 273.449219 217.980469 L 273.480469 217.464844 L 273.433594 214.980469 C 273.421875 214.503906 273.355469 214.167969 273.230469 213.980469 C 273.105469 213.785156 272.878906 213.691406 272.558594 213.699219 C 272.089844 213.710938 271.519531 214.011719 270.855469 214.605469 L 270.917969 217.511719 C 270.917969 217.792969 270.9375 218.042969 270.980469 218.261719 C 271.011719 218.347656 271.050781 218.402344 271.105469 218.433594 C 271.167969 218.457031 271.28125 218.472656 271.449219 218.480469 L 271.792969 218.511719 L 271.902344 218.511719 L 271.902344 218.839844 L 268.933594 218.886719 L 268.933594 218.558594 L 269.042969 218.558594 L 269.386719 218.511719 C 269.582031 218.503906 269.707031 218.472656 269.761719 218.417969 C 269.8125 218.367188 269.84375 218.242188 269.855469 218.042969 L 269.886719 217.527344 L 269.824219 214.558594 L 269.792969 214.058594 C 269.78125 213.863281 269.746094 213.738281 269.683594 213.683594 C 269.621094 213.621094 269.488281 213.585938 269.292969 213.574219 L 268.949219 213.558594 L 268.839844 213.542969 L 268.839844 213.230469 L 270.839844 213.199219 Z M 280.386719 218.507812 C 279.84375 218.726562 279.3125 218.835938 278.792969 218.835938 C 277.96875 218.855469 277.292969 218.597656 276.761719 218.054688 C 276.238281 217.503906 275.972656 216.785156 275.964844 215.898438 C 275.953125 215.023438 276.1875 214.316406 276.667969 213.773438 C 277.15625 213.234375 277.808594 212.957031 278.621094 212.945312 C 279.046875 212.9375 279.605469 213.007812 280.292969 213.164062 L 280.324219 214.523438 L 279.683594 214.523438 L 279.652344 214.429688 C 279.652344 214.015625 279.589844 213.738281 279.464844 213.601562 C 279.265625 213.382812 278.984375 213.28125 278.621094 213.289062 C 278.121094 213.289062 277.730469 213.519531 277.449219 213.976562 C 277.167969 214.4375 277.03125 215.050781 277.042969 215.820312 C 277.050781 216.601562 277.234375 217.222656 277.589844 217.679688 C 277.941406 218.128906 278.421875 218.347656 279.027344 218.335938 C 279.535156 218.328125 279.984375 218.234375 280.371094 218.054688 Z M 282.96875 210.417969 L 283.09375 217.308594 C 283.09375 217.589844 283.113281 217.839844 283.15625 218.058594 C 283.1875 218.144531 283.226562 218.199219 283.28125 218.230469 C 283.34375 218.253906 283.457031 218.269531 283.625 218.277344 L 283.96875 218.308594 L 284.078125 218.308594 L 284.078125 218.636719 L 281.109375 218.683594 L 281.109375 218.355469 L 281.21875 218.355469 L 281.5625 218.308594 C 281.757812 218.300781 281.882812 218.269531 281.9375 218.214844 C 281.988281 218.164062 282.019531 218.039062 282.03125 217.839844 L 282.0625 217.324219 L 281.96875 211.792969 L 281.921875 211.277344 C 281.910156 211.082031 281.875 210.957031 281.8125 210.902344 C 281.757812 210.839844 281.632812 210.804688 281.4375 210.792969 L 281.09375 210.777344 L 280.984375 210.777344 L 280.96875 210.449219 Z M 286.363281 212.941406 L 286.441406 217.253906 C 286.441406 217.535156 286.460938 217.785156 286.503906 218.003906 C 286.535156 218.089844 286.574219 218.144531 286.628906 218.175781 C 286.691406 218.199219 286.804688 218.214844 286.972656 218.222656 L 287.316406 218.253906 L 287.425781 218.253906 L 287.425781 218.582031 L 284.457031 218.628906 L 284.457031 218.300781 L 284.566406 218.300781 L 284.910156 218.253906 C 285.105469 218.246094 285.230469 218.214844 285.285156 218.160156 C 285.335938 218.109375 285.367188 217.984375 285.378906 217.785156 L 285.410156 217.269531 L 285.347656 214.300781 L 285.316406 213.800781 C 285.304688 213.605469 285.269531 213.480469 285.207031 213.425781 C 285.144531 213.363281 285.011719 213.328125 284.816406 213.316406 L 284.472656 213.300781 L 284.363281 213.285156 L 284.363281 212.972656 Z M 285.316406 211.925781 L 285.300781 210.894531 L 286.332031 210.878906 L 286.347656 211.910156 Z M 289.71875 217.902344 L 289.75 219.246094 C 289.75 219.535156 289.773438 219.785156 289.828125 219.996094 C 289.847656 220.089844 289.882812 220.144531 289.9375 220.167969 C 290 220.199219 290.113281 220.21875 290.28125 220.230469 L 290.625 220.261719 L 290.734375 220.261719 L 290.734375 220.589844 L 287.765625 220.636719 L 287.765625 220.308594 L 287.875 220.308594 L 288.21875 220.261719 C 288.414062 220.25 288.539062 220.214844 288.59375 220.152344 C 288.65625 220.097656 288.6875 219.972656 288.6875 219.777344 L 288.71875 219.261719 L 288.625 214.246094 L 288.59375 213.746094 C 288.582031 213.550781 288.546875 213.425781 288.484375 213.371094 C 288.421875 213.308594 288.289062 213.273438 288.09375 213.261719 L 287.75 213.246094 L 287.640625 213.230469 L 287.640625 212.917969 L 289.640625 212.886719 L 289.65625 213.949219 C 290.15625 213.148438 290.8125 212.742188 291.625 212.730469 C 292.257812 212.722656 292.769531 212.964844 293.15625 213.464844 C 293.539062 213.957031 293.742188 214.621094 293.765625 215.464844 C 293.773438 216.414062 293.566406 217.179688 293.140625 217.761719 C 292.722656 218.335938 292.15625 218.625 291.4375 218.636719 C 290.769531 218.644531 290.195312 218.402344 289.71875 217.902344 Z M 289.71875 217.496094 C 290.269531 217.894531 290.796875 218.085938 291.296875 218.074219 C 291.753906 218.066406 292.097656 217.863281 292.328125 217.464844 C 292.566406 217.070312 292.679688 216.503906 292.671875 215.761719 C 292.660156 214.960938 292.535156 214.363281 292.296875 213.964844 C 292.066406 213.570312 291.722656 213.378906 291.265625 213.386719 C 290.972656 213.386719 290.679688 213.472656 290.390625 213.636719 C 290.109375 213.804688 289.863281 214.027344 289.65625 214.308594 Z M 296.5625 217.789062 L 296.59375 219.132812 C 296.59375 219.421875 296.617188 219.671875 296.671875 219.882812 C 296.691406 219.976562 296.726562 220.03125 296.78125 220.054688 C 296.84375 220.085938 296.957031 220.105469 297.125 220.117188 L 297.46875 220.148438 L 297.578125 220.148438 L 297.578125 220.476562 L 294.609375 220.523438 L 294.609375 220.195312 L 294.71875 220.195312 L 295.0625 220.148438 C 295.257812 220.136719 295.382812 220.101562 295.4375 220.039062 C 295.5 219.984375 295.53125 219.859375 295.53125 219.664062 L 295.5625 219.148438 L 295.46875 214.132812 L 295.4375 213.632812 C 295.425781 213.4375 295.390625 213.3125 295.328125 213.257812 C 295.265625 213.195312 295.132812 213.160156 294.9375 213.148438 L 294.59375 213.132812 L 294.484375 213.117188 L 294.484375 212.804688 L 296.484375 212.773438 L 296.5 213.835938 C 297 213.035156 297.65625 212.628906 298.46875 212.617188 C 299.101562 212.609375 299.613281 212.851562 300 213.351562 C 300.382812 213.84375 300.585938 214.507812 300.609375 215.351562 C 300.617188 216.300781 300.410156 217.066406 299.984375 217.648438 C 299.566406 218.222656 299 218.511719 298.28125 218.523438 C 297.613281 218.53125 297.039062 218.289062 296.5625 217.789062 Z M 296.5625 217.382812 C 297.113281 217.78125 297.640625 217.972656 298.140625 217.960938 C 298.597656 217.953125 298.941406 217.75 299.171875 217.351562 C 299.410156 216.957031 299.523438 216.390625 299.515625 215.648438 C 299.503906 214.847656 299.378906 214.25 299.140625 213.851562 C 298.910156 213.457031 298.566406 213.265625 298.109375 213.273438 C 297.816406 213.273438 297.523438 213.359375 297.234375 213.523438 C 296.953125 213.691406 296.707031 213.914062 296.5 214.195312 Z M 306.347656 218.019531 C 305.691406 218.28125 305.089844 218.410156 304.550781 218.410156 C 303.726562 218.429688 303.050781 218.167969 302.519531 217.613281 C 301.988281 217.0625 301.714844 216.339844 301.707031 215.441406 C 301.695312 214.597656 301.914062 213.90625 302.363281 213.363281 C 302.820312 212.8125 303.414062 212.53125 304.144531 212.519531 C 304.820312 212.511719 305.339844 212.730469 305.707031 213.175781 C 306.082031 213.625 306.277344 214.269531 306.300781 215.113281 L 306.300781 215.222656 L 302.847656 215.269531 C 302.855469 216.042969 302.972656 216.625 303.191406 217.019531 C 303.535156 217.613281 304.042969 217.90625 304.722656 217.894531 C 305.355469 217.886719 305.894531 217.75 306.332031 217.488281 Z M 302.847656 214.941406 L 305.191406 214.910156 L 305.191406 214.675781 C 305.191406 214.269531 305.167969 213.972656 305.128906 213.785156 C 305.085938 213.589844 305.011719 213.410156 304.910156 213.253906 C 304.699219 212.964844 304.425781 212.824219 304.082031 212.832031 C 303.695312 212.832031 303.386719 213.027344 303.160156 213.410156 C 302.941406 213.796875 302.835938 214.308594 302.847656 214.941406 Z M 311.546875 218.171875 L 311.53125 217.109375 C 311.039062 217.914062 310.382812 218.316406 309.5625 218.328125 C 308.925781 218.335938 308.414062 218.09375 308.03125 217.59375 C 307.644531 217.09375 307.441406 216.421875 307.421875 215.578125 C 307.410156 214.632812 307.613281 213.871094 308.03125 213.296875 C 308.457031 212.726562 309.03125 212.433594 309.75 212.421875 C 310.414062 212.414062 310.988281 212.65625 311.46875 213.15625 L 311.4375 211.296875 C 311.425781 211.007812 311.398438 210.75 311.359375 210.53125 C 311.335938 210.449219 311.296875 210.390625 311.234375 210.359375 C 311.179688 210.328125 311.070312 210.3125 310.90625 210.3125 L 310.5625 210.28125 L 310.453125 210.28125 L 310.4375 209.953125 L 312.4375 209.921875 L 312.5625 216.8125 C 312.5625 217.09375 312.585938 217.34375 312.640625 217.5625 C 312.671875 217.648438 312.710938 217.703125 312.765625 217.734375 C 312.816406 217.765625 312.925781 217.78125 313.09375 217.78125 L 313.453125 217.8125 L 313.546875 217.8125 L 313.546875 218.140625 Z M 311.46875 213.5625 C 310.925781 213.179688 310.398438 212.992188 309.890625 213 C 309.429688 213 309.082031 213.199219 308.84375 213.59375 C 308.613281 213.980469 308.503906 214.542969 308.515625 215.28125 C 308.523438 216.085938 308.644531 216.683594 308.875 217.078125 C 309.113281 217.476562 309.460938 217.671875 309.921875 217.671875 C 310.210938 217.664062 310.507812 217.570312 310.8125 217.390625 C 311.113281 217.214844 311.347656 217 311.515625 216.75 Z M 319.03125 209.816406 L 319.15625 216.707031 C 319.15625 216.988281 319.175781 217.238281 319.21875 217.457031 C 319.25 217.542969 319.289062 217.597656 319.34375 217.628906 C 319.40625 217.652344 319.519531 217.667969 319.6875 217.675781 L 320.03125 217.707031 L 320.140625 217.707031 L 320.140625 218.035156 L 317.171875 218.082031 L 317.171875 217.753906 L 317.28125 217.753906 L 317.625 217.707031 C 317.820312 217.699219 317.945312 217.667969 318 217.613281 C 318.050781 217.5625 318.082031 217.4375 318.09375 217.238281 L 318.125 216.722656 L 318.03125 211.191406 L 317.984375 210.675781 C 317.972656 210.480469 317.9375 210.355469 317.875 210.300781 C 317.820312 210.238281 317.695312 210.203125 317.5 210.191406 L 317.15625 210.175781 L 317.046875 210.175781 L 317.03125 209.847656 Z M 322.421875 212.339844 L 322.5 216.652344 C 322.5 216.933594 322.519531 217.183594 322.5625 217.402344 C 322.59375 217.488281 322.632812 217.542969 322.6875 217.574219 C 322.75 217.597656 322.863281 217.613281 323.03125 217.621094 L 323.375 217.652344 L 323.484375 217.652344 L 323.484375 217.980469 L 320.515625 218.027344 L 320.515625 217.699219 L 320.625 217.699219 L 320.96875 217.652344 C 321.164062 217.644531 321.289062 217.613281 321.34375 217.558594 C 321.394531 217.507812 321.425781 217.382812 321.4375 217.183594 L 321.46875 216.667969 L 321.40625 213.699219 L 321.375 213.199219 C 321.363281 213.003906 321.328125 212.878906 321.265625 212.824219 C 321.203125 212.761719 321.070312 212.726562 320.875 212.714844 L 320.53125 212.699219 L 320.421875 212.683594 L 320.421875 212.371094 Z M 321.375 211.324219 L 321.359375 210.292969 L 322.390625 210.277344 L 322.40625 211.308594 Z M 325.714844 213.347656 C 325.953125 212.964844 326.25 212.667969 326.605469 212.457031 C 326.96875 212.238281 327.34375 212.128906 327.730469 212.128906 C 328.21875 212.121094 328.605469 212.269531 328.886719 212.582031 C 329.167969 212.894531 329.3125 213.332031 329.324219 213.894531 L 329.371094 216.535156 L 329.417969 217.050781 C 329.425781 217.25 329.457031 217.375 329.511719 217.425781 C 329.574219 217.480469 329.703125 217.503906 329.902344 217.503906 L 330.261719 217.535156 L 330.355469 217.535156 L 330.355469 217.863281 L 327.402344 217.910156 L 327.402344 217.582031 L 327.496094 217.582031 L 327.839844 217.535156 C 328.035156 217.527344 328.160156 217.496094 328.214844 217.441406 C 328.265625 217.390625 328.296875 217.265625 328.308594 217.066406 L 328.339844 216.550781 L 328.292969 214.066406 C 328.28125 213.589844 328.214844 213.253906 328.089844 213.066406 C 327.964844 212.871094 327.738281 212.777344 327.417969 212.785156 C 326.949219 212.796875 326.378906 213.097656 325.714844 213.691406 L 325.777344 216.597656 C 325.777344 216.878906 325.796875 217.128906 325.839844 217.347656 C 325.871094 217.433594 325.910156 217.488281 325.964844 217.519531 C 326.027344 217.542969 326.140625 217.558594 326.308594 217.566406 L 326.652344 217.597656 L 326.761719 217.597656 L 326.761719 217.925781 L 323.792969 217.972656 L 323.792969 217.644531 L 323.902344 217.644531 L 324.246094 217.597656 C 324.441406 217.589844 324.566406 217.558594 324.621094 217.503906 C 324.671875 217.453125 324.703125 217.328125 324.714844 217.128906 L 324.746094 216.613281 L 324.683594 213.644531 L 324.652344 213.144531 C 324.640625 212.949219 324.605469 212.824219 324.542969 212.769531 C 324.480469 212.707031 324.347656 212.671875 324.152344 212.660156 L 323.808594 212.644531 L 323.699219 212.628906 L 323.699219 212.316406 L 325.699219 212.285156 Z M 335.460938 217.53125 C 334.804688 217.792969 334.203125 217.921875 333.664062 217.921875 C 332.839844 217.941406 332.164062 217.679688 331.632812 217.125 C 331.101562 216.574219 330.828125 215.851562 330.820312 214.953125 C 330.808594 214.109375 331.027344 213.417969 331.476562 212.875 C 331.933594 212.324219 332.527344 212.042969 333.257812 212.03125 C 333.933594 212.023438 334.453125 212.242188 334.820312 212.6875 C 335.195312 213.136719 335.390625 213.78125 335.414062 214.625 L 335.414062 214.734375 L 331.960938 214.78125 C 331.96875 215.554688 332.085938 216.136719 332.304688 216.53125 C 332.648438 217.125 333.15625 217.417969 333.835938 217.40625 C 334.46875 217.398438 335.007812 217.261719 335.445312 217 Z M 331.960938 214.453125 L 334.304688 214.421875 L 334.304688 214.1875 C 334.304688 213.78125 334.28125 213.484375 334.242188 213.296875 C 334.199219 213.101562 334.125 212.921875 334.023438 212.765625 C 333.8125 212.476562 333.539062 212.335938 333.195312 212.34375 C 332.808594 212.34375 332.5 212.539062 332.273438 212.921875 C 332.054688 213.308594 331.949219 213.820312 331.960938 214.453125 Z "/>
<path style="fill:none;stroke-width:4;stroke-linecap:round;stroke-linejoin:round;stroke:rgb(100%,100%,100%);stroke-opacity:1;stroke-miterlimit:10;" d="M 4.894372 -0.184089 C 4.347834 0.0255824 3.814835 0.126089 3.295376 0.117432 C 2.470946 0.123225 1.799555 -0.145813 1.277427 -0.697559 C 0.76324 -1.256987 0.50963 -1.980064 0.516595 -2.866789 C 0.519459 -3.741863 0.765584 -4.444891 1.255034 -4.979777 C 1.752231 -5.510628 2.409106 -5.777062 3.221688 -5.77524 C 3.64754 -5.775956 4.204885 -5.696344 4.889686 -5.528659 L 4.898278 -4.168952 L 4.257742 -4.179628 L 4.228059 -4.273886 C 4.234959 -4.687891 4.177089 -4.966237 4.054385 -5.10502 C 3.858839 -5.32706 3.579321 -5.433295 3.21596 -5.431537 C 2.716029 -5.43987 2.321618 -5.215942 2.032791 -4.763661 C 1.743898 -4.307475 1.596979 -3.696557 1.595872 -2.926937 C 1.590665 -2.145666 1.763883 -1.521599 2.111686 -1.058707 C 2.455714 -0.603692 2.93247 -0.376966 3.53805 -0.378593 C 4.045922 -0.377942 4.496641 -0.464193 4.886301 -0.637411 Z M 7.614763 -8.229716 L 7.624918 -1.337965 C 7.620231 -1.056754 7.635593 -0.806464 7.674911 -0.587028 C 7.704724 -0.500582 7.74287 -0.445251 7.797029 -0.413094 C 7.85913 -0.388618 7.972135 -0.371107 8.13995 -0.360497 L 8.483132 -0.323523 L 8.592492 -0.3217 L 8.587024 0.00637932 L 5.617905 0.00377552 L 5.623373 -0.324304 L 5.732732 -0.322481 L 6.077216 -0.363621 C 6.272631 -0.368178 6.398135 -0.397341 6.453726 -0.451109 C 6.505347 -0.501037 6.538675 -0.625499 6.553712 -0.824495 L 6.59355 -1.339528 L 6.591988 -6.871572 L 6.553712 -7.387906 C 6.54525 -7.583387 6.512182 -7.708955 6.450602 -7.764677 C 6.396963 -7.82808 6.272566 -7.865314 6.077476 -7.880286 L 5.734034 -7.901637 L 5.624675 -7.90346 L 5.61452 -8.231799 Z M 10.962866 -5.650127 L 10.969115 -1.336924 C 10.964428 -1.055713 10.97979 -0.805422 11.019108 -0.585986 C 11.048921 -0.49954 11.087067 -0.444209 11.141226 -0.412052 C 11.203327 -0.387576 11.316332 -0.370066 11.484147 -0.359455 L 11.827329 -0.322481 L 11.936689 -0.320659 L 11.931221 0.00742085 L 8.962102 0.00481704 L 8.96757 -0.323262 L 9.07693 -0.32144 L 9.421413 -0.36258 C 9.616828 -0.367137 9.742332 -0.396299 9.797923 -0.450068 C 9.849544 -0.499996 9.882872 -0.624458 9.897909 -0.823453 L 9.937747 -1.338486 L 9.924728 -4.307865 L 9.901815 -4.808317 C 9.893353 -5.003797 9.860284 -5.129366 9.798704 -5.185087 C 9.737254 -5.24862 9.605046 -5.285985 9.409956 -5.300957 L 9.066514 -5.322308 L 8.957415 -5.339753 L 8.962622 -5.65221 Z M 9.933061 -6.683056 L 9.934623 -7.714423 L 10.96599 -7.712861 L 10.964428 -6.681494 Z M 14.235198 -0.633961 L 14.24405 0.710123 C 14.239233 0.999145 14.258502 1.249501 14.309666 1.46132 C 14.327633 1.555383 14.361873 1.610649 14.416162 1.634994 C 14.478133 1.667281 14.591073 1.688698 14.758823 1.703214 L 15.102004 1.740188 L 15.211364 1.742011 L 15.205896 2.07009 L 12.236777 2.067486 L 12.242245 1.739407 L 12.351605 1.74123 L 12.696088 1.700089 C 12.891569 1.691627 13.017138 1.658559 13.072859 1.596979 C 13.136262 1.54334 13.16959 1.418878 13.172845 1.223593 L 13.212683 0.70856 L 13.202528 -4.30793 L 13.179615 -4.808382 C 13.171153 -5.003862 13.138084 -5.129431 13.076504 -5.185152 C 13.015054 -5.248685 12.882846 -5.28605 12.687756 -5.301022 L 12.344314 -5.322373 L 12.235215 -5.339818 L 12.240422 -5.652275 L 14.240665 -5.650192 L 14.238582 -4.587579 C 14.751858 -5.379917 15.414786 -5.775175 16.227369 -5.773352 C 16.860224 -5.770618 17.367835 -5.519937 17.746168 -5.013562 C 18.120726 -4.515063 18.312756 -3.847708 18.32213 -3.003684 C 18.314123 -2.054467 18.094362 -1.292399 17.658941 -0.717544 C 17.231461 -0.15037 16.660316 0.129214 15.941471 0.128953 C 15.273465 0.125634 14.703362 -0.126089 14.235198 -0.633961 Z M 14.241967 -1.040155 C 14.786032 -0.632594 15.310113 -0.432427 15.810239 -0.435812 C 16.267337 -0.436007 16.614424 -0.633376 16.851501 -1.027917 C 17.096324 -1.418423 17.219028 -1.982863 17.223585 -2.725077 C 17.225212 -3.525943 17.110189 -4.125599 16.87858 -4.527952 C 16.654718 -4.926269 16.314206 -5.123377 15.857108 -5.123182 C 15.56418 -5.128064 15.269819 -5.04702 14.978063 -4.887798 C 14.694053 -4.724539 14.444283 -4.506015 14.232594 -4.228254 Z M 21.083856 -0.637021 L 21.092709 0.707063 C 21.087892 0.996086 21.10716 1.246441 21.158325 1.458261 C 21.176291 1.552323 21.210531 1.607589 21.26482 1.631935 C 21.326791 1.664222 21.439731 1.685638 21.607481 1.700155 L 21.950662 1.737129 L 22.060022 1.738951 L 22.054554 2.067031 L 19.085435 2.064427 L 19.090903 1.736347 L 19.200263 1.73817 L 19.544747 1.69703 C 19.740227 1.688568 19.865796 1.655499 19.921517 1.593919 C 19.98492 1.540281 20.018249 1.415819 20.021503 1.220534 L 20.061342 0.705501 L 20.051187 -4.31099 L 20.028273 -4.811441 C 20.019811 -5.006922 19.986742 -5.13249 19.925162 -5.188212 C 19.863713 -5.251745 19.731504 -5.289109 19.536414 -5.304081 L 19.192973 -5.325432 L 19.083873 -5.342878 L 19.089081 -5.655334 L 21.089324 -5.653251 L 21.087241 -4.590638 C 21.600516 -5.382976 22.263445 -5.778234 23.076027 -5.776411 C 23.708882 -5.773677 24.216494 -5.522996 24.594826 -5.016621 C 24.969384 -4.518123 25.161414 -3.850767 25.170788 -3.006744 C 25.162781 -2.057527 24.94302 -1.295458 24.507599 -0.720603 C 24.080119 -0.153429 23.508975 0.126154 22.790129 0.125894 C 22.122123 0.122574 21.55202 -0.129149 21.083856 -0.637021 Z M 21.090626 -1.043214 C 21.634691 -0.635654 22.158772 -0.435486 22.658897 -0.438871 C 23.115995 -0.439067 23.463083 -0.636435 23.700159 -1.030977 C 23.944982 -1.421482 24.067686 -1.985922 24.072243 -2.728137 C 24.07387 -3.529002 23.958847 -4.128658 23.727239 -4.531011 C 23.503376 -4.929328 23.162864 -5.126436 22.705766 -5.126241 C 22.412838 -5.131123 22.118478 -5.05008 21.826721 -4.890857 C 21.542711 -4.727599 21.292941 -4.509074 21.081252 -4.231313 Z M 30.859907 -0.243586 C 30.199387 0.00716047 29.59576 0.126024 29.056772 0.117041 C 28.232342 0.122835 27.561016 -0.150109 27.039083 -0.713573 C 26.517086 -1.27313 26.255729 -2.000243 26.262889 -2.898686 C 26.265233 -3.742514 26.495474 -4.430179 26.953679 -4.965586 C 27.419825 -5.508675 28.018179 -5.779992 28.748742 -5.779536 C 29.424559 -5.776086 29.940373 -5.548709 30.300089 -5.097339 C 30.667551 -4.641933 30.852095 -3.994237 30.861469 -3.150214 L 30.859647 -3.040854 L 27.40622 -3.051529 C 27.401142 -2.278069 27.508615 -1.694166 27.72076 -1.296044 C 28.054567 -0.696648 28.557427 -0.395258 29.237216 -0.395648 C 29.87007 -0.392914 30.411336 -0.520631 30.853137 -0.775023 Z M 27.411688 -3.379609 L 29.755633 -3.371797 L 29.759539 -3.60614 C 29.766309 -4.012333 29.747822 -4.309558 29.711889 -4.497683 C 29.672181 -4.693684 29.600967 -4.874583 29.502023 -5.032504 C 29.295931 -5.325042 29.024875 -5.470204 28.681043 -5.468121 C 28.294378 -5.474565 27.982572 -5.284422 27.749662 -4.905439 C 27.524498 -4.522419 27.410516 -4.012529 27.411688 -3.379609 Z M 36.0558 -0.000716043 L 36.057883 -1.063329 C 35.552354 -0.266955 34.889491 0.124397 34.069097 0.122444 C 33.432336 0.119645 32.924724 -0.131036 32.550297 -0.637346 C 32.171964 -1.143721 31.980064 -1.818888 31.974596 -2.662846 C 31.978632 -3.608223 32.194422 -4.366451 32.621902 -4.933625 C 33.057128 -5.496763 33.636149 -5.780122 34.354994 -5.779861 C 35.019095 -5.776607 35.589198 -5.524884 36.061268 -5.016946 L 36.061008 -6.876584 C 36.054107 -7.165802 36.031064 -7.424034 35.995652 -7.643405 C 35.973585 -7.725815 35.935504 -7.785052 35.873534 -7.817339 C 35.819374 -7.849496 35.710275 -7.866941 35.546235 -7.869675 L 35.203054 -7.906649 L 35.093694 -7.908472 L 35.083539 -8.236812 L 37.083782 -8.234729 L 37.093937 -1.342978 C 37.08925 -1.061767 37.108518 -0.811411 37.159553 -0.59178 C 37.189366 -0.505333 37.227512 -0.450003 37.281671 -0.417846 C 37.331925 -0.385754 37.441024 -0.368308 37.60897 -0.365509 L 37.967774 -0.328275 L 38.061511 -0.326712 L 38.056043 0.001367 Z M 36.054498 -4.610753 C 35.517984 -5.00256 34.993838 -5.198822 34.485966 -5.199473 C 34.025092 -5.207154 33.674165 -5.013757 33.429342 -4.623251 C 33.192461 -4.240427 33.073727 -3.679827 33.073141 -2.941453 C 33.067543 -2.136748 33.17866 -1.537156 33.402523 -1.138839 C 33.634131 -0.736486 33.978484 -0.535407 34.439358 -0.527726 C 34.72851 -0.530721 35.026906 -0.61951 35.334546 -0.794095 C 35.638215 -0.96484 35.876137 -1.175748 36.048249 -1.422914 Z M 43.678374 -8.230302 L 43.688529 -1.338551 C 43.683842 -1.05734 43.699205 -0.807049 43.738522 -0.587614 C 43.768336 -0.501167 43.806481 -0.445837 43.86064 -0.41368 C 43.922741 -0.389204 44.035746 -0.371693 44.203562 -0.361083 L 44.546743 -0.324109 L 44.656103 -0.322286 L 44.650635 0.00579347 L 41.681516 0.00318966 L 41.686984 -0.32489 L 41.796344 -0.323067 L 42.140827 -0.364207 C 42.336243 -0.368764 42.461746 -0.397927 42.517337 -0.451695 C 42.568958 -0.501623 42.602287 -0.626085 42.617324 -0.825081 L 42.657162 -1.340113 L 42.655599 -6.872158 L 42.617324 -7.388492 C 42.608861 -7.583973 42.575793 -7.709541 42.514213 -7.765263 C 42.460574 -7.828665 42.336178 -7.8659 42.141088 -7.880872 L 41.797646 -7.902223 L 41.688286 -7.904046 L 41.678131 -8.232385 Z M 47.026477 -5.650713 L 47.032726 -1.33751 C 47.028039 -1.056299 47.043402 -0.806008 47.082719 -0.586572 C 47.112533 -0.500126 47.150678 -0.444795 47.204837 -0.412638 C 47.266938 -0.388162 47.379943 -0.370652 47.547759 -0.360041 L 47.89094 -0.323067 L 48.0003 -0.321244 L 47.994832 0.00683499 L 45.025713 0.00423119 L 45.031181 -0.323848 L 45.140541 -0.322026 L 45.485024 -0.363166 C 45.68044 -0.367722 45.805943 -0.396885 45.861534 -0.450654 C 45.913155 -0.500582 45.946484 -0.625043 45.961521 -0.824039 L 46.001359 -1.339072 L 45.98834 -4.308451 L 45.965426 -4.808902 C 45.956964 -5.004383 45.923896 -5.129952 45.862316 -5.185673 C 45.800866 -5.249206 45.668658 -5.28657 45.473567 -5.301542 L 45.130126 -5.322894 L 45.021026 -5.340339 L 45.026234 -5.652796 Z M 45.996672 -6.683642 L 45.998234 -7.715009 L 47.029601 -7.713447 L 47.028039 -6.68208 Z M 50.302194 -4.588165 C 50.546821 -4.966953 50.848602 -5.25884 51.207537 -5.463825 C 51.574413 -5.67649 51.951183 -5.779601 52.337849 -5.773157 C 52.826192 -5.772831 53.210384 -5.61797 53.486387 -5.300826 C 53.76239 -4.983683 53.899611 -4.543835 53.901954 -3.981218 L 53.904818 -1.340178 L 53.943094 -0.823844 C 53.947586 -0.624523 53.976749 -0.499019 54.030582 -0.447334 C 54.092162 -0.391612 54.22066 -0.36603 54.419851 -0.36271 L 54.778655 -0.325476 L 54.872392 -0.323913 L 54.866924 0.00416609 L 51.913428 0.00182267 L 51.918896 -0.326257 L 52.012633 -0.324694 L 52.357117 -0.365835 C 52.552532 -0.370391 52.678036 -0.399554 52.733627 -0.453322 C 52.785247 -0.50325 52.818576 -0.627712 52.833613 -0.826708 L 52.873451 -1.341741 L 52.867983 -3.826552 C 52.864208 -4.303244 52.803409 -4.640241 52.681551 -4.829798 C 52.559823 -5.027166 52.334854 -5.124679 52.014456 -5.122205 C 51.545576 -5.1183 50.97033 -4.827064 50.296465 -4.244463 L 50.310526 -1.337575 C 50.305839 -1.056364 50.321202 -0.806073 50.360519 -0.586637 C 50.390333 -0.500191 50.428478 -0.44486 50.482637 -0.412703 C 50.544738 -0.388227 50.657743 -0.370717 50.825559 -0.360106 L 51.16874 -0.323132 L 51.2781 -0.32131 L 51.272632 0.0067699 L 48.303513 0.00416609 L 48.308981 -0.323913 L 48.418341 -0.322091 L 48.762824 -0.363231 C 48.95824 -0.367787 49.083743 -0.39695 49.139334 -0.450719 C 49.190955 -0.500647 49.224284 -0.625108 49.239321 -0.824104 L 49.279159 -1.339137 L 49.26614 -4.308516 L 49.243226 -4.808968 C 49.234764 -5.004448 49.201696 -5.130017 49.140116 -5.185738 C 49.078666 -5.249271 48.946458 -5.286636 48.751367 -5.301607 L 48.407926 -5.322959 L 48.298826 -5.340404 L 48.304034 -5.652861 L 50.304277 -5.650778 Z M 59.981123 -0.242675 C 59.320603 0.0080718 58.716976 0.126936 58.177988 0.117952 C 57.353558 0.123746 56.682232 -0.149198 56.160299 -0.712661 C 55.638302 -1.272219 55.376945 -1.999332 55.384105 -2.897775 C 55.386449 -3.741603 55.61669 -4.429268 56.074895 -4.964675 C 56.541041 -5.507764 57.139395 -5.77908 57.869958 -5.778625 C 58.545775 -5.775175 59.061589 -5.547797 59.421305 -5.096428 C 59.788767 -4.641022 59.973312 -3.993326 59.982685 -3.149302 L 59.980863 -3.039942 L 56.527436 -3.050618 C 56.522359 -2.277158 56.629831 -1.693254 56.841976 -1.295133 C 57.175783 -0.695737 57.678643 -0.394346 58.358432 -0.394737 C 58.991287 -0.392003 59.532552 -0.519719 59.974353 -0.774111 Z M 56.532904 -3.378697 L 58.876849 -3.370886 L 58.880755 -3.605228 C 58.887525 -4.011422 58.869038 -4.308646 58.833105 -4.496771 C 58.793397 -4.692773 58.722183 -4.873672 58.623239 -5.031593 C 58.417147 -5.32413 58.146091 -5.469293 57.802259 -5.467209 C 57.415594 -5.473654 57.103788 -5.283511 56.870878 -4.904527 C 56.645714 -4.521507 56.531732 -4.011617 56.532904 -3.378697 Z " transform="matrix(0.999861,-0.0166644,0.0166644,0.999861,170,250)"/>
<path style=" stroke:none;fill-rule:nonzero;fill:rgb(0%,0%,0%);fill-opacity:1;" d="M 174.890625 249.734375 C 174.347656 249.953125 173.816406 250.0625 173.296875 250.0625 C 172.472656 250.082031 171.796875 249.824219 171.265625 249.28125 C 170.742188 248.730469 170.476562 248.011719 170.46875 247.125 C 170.457031 246.25 170.691406 245.542969 171.171875 245 C 171.660156 244.460938 172.3125 244.183594 173.125 244.171875 C 173.550781 244.164062 174.109375 244.234375 174.796875 244.390625 L 174.828125 245.75 L 174.1875 245.75 L 174.15625 245.65625 C 174.15625 245.242188 174.09375 244.964844 173.96875 244.828125 C 173.769531 244.609375 173.488281 244.507812 173.125 244.515625 C 172.625 244.515625 172.234375 244.746094 171.953125 245.203125 C 171.671875 245.664062 171.535156 246.277344 171.546875 247.046875 C 171.554688 247.828125 171.738281 248.449219 172.09375 248.90625 C 172.445312 249.355469 172.925781 249.574219 173.53125 249.5625 C 174.039062 249.554688 174.488281 249.460938 174.875 249.28125 Z M 177.476562 241.644531 L 177.601562 248.535156 C 177.601562 248.816406 177.621094 249.066406 177.664062 249.285156 C 177.695312 249.371094 177.734375 249.425781 177.789062 249.457031 C 177.851562 249.480469 177.964844 249.496094 178.132812 249.503906 L 178.476562 249.535156 L 178.585938 249.535156 L 178.585938 249.863281 L 175.617188 249.910156 L 175.617188 249.582031 L 175.726562 249.582031 L 176.070312 249.535156 C 176.265625 249.527344 176.390625 249.496094 176.445312 249.441406 C 176.496094 249.390625 176.527344 249.265625 176.539062 249.066406 L 176.570312 248.550781 L 176.476562 243.019531 L 176.429688 242.503906 C 176.417969 242.308594 176.382812 242.183594 176.320312 242.128906 C 176.265625 242.066406 176.140625 242.03125 175.945312 242.019531 L 175.601562 242.003906 L 175.492188 242.003906 L 175.476562 241.675781 Z M 180.867188 244.167969 L 180.945312 248.480469 C 180.945312 248.761719 180.964844 249.011719 181.007812 249.230469 C 181.039062 249.316406 181.078125 249.371094 181.132812 249.402344 C 181.195312 249.425781 181.308594 249.441406 181.476562 249.449219 L 181.820312 249.480469 L 181.929688 249.480469 L 181.929688 249.808594 L 178.960938 249.855469 L 178.960938 249.527344 L 179.070312 249.527344 L 179.414062 249.480469 C 179.609375 249.472656 179.734375 249.441406 179.789062 249.386719 C 179.839844 249.335938 179.871094 249.210938 179.882812 249.011719 L 179.914062 248.496094 L 179.851562 245.527344 L 179.820312 245.027344 C 179.808594 244.832031 179.773438 244.707031 179.710938 244.652344 C 179.648438 244.589844 179.515625 244.554688 179.320312 244.542969 L 178.976562 244.527344 L 178.867188 244.511719 L 178.867188 244.199219 Z M 179.820312 243.152344 L 179.804688 242.121094 L 180.835938 242.105469 L 180.851562 243.136719 Z M 184.222656 249.128906 L 184.253906 250.472656 C 184.253906 250.761719 184.277344 251.011719 184.332031 251.222656 C 184.351562 251.316406 184.386719 251.371094 184.441406 251.394531 C 184.503906 251.425781 184.617188 251.445312 184.785156 251.457031 L 185.128906 251.488281 L 185.238281 251.488281 L 185.238281 251.816406 L 182.269531 251.863281 L 182.269531 251.535156 L 182.378906 251.535156 L 182.722656 251.488281 C 182.917969 251.476562 183.042969 251.441406 183.097656 251.378906 C 183.160156 251.324219 183.191406 251.199219 183.191406 251.003906 L 183.222656 250.488281 L 183.128906 245.472656 L 183.097656 244.972656 C 183.085938 244.777344 183.050781 244.652344 182.988281 244.597656 C 182.925781 244.535156 182.792969 244.5 182.597656 244.488281 L 182.253906 244.472656 L 182.144531 244.457031 L 182.144531 244.144531 L 184.144531 244.113281 L 184.160156 245.175781 C 184.660156 244.375 185.316406 243.96875 186.128906 243.957031 C 186.761719 243.949219 187.273438 244.191406 187.660156 244.691406 C 188.042969 245.183594 188.246094 245.847656 188.269531 246.691406 C 188.277344 247.640625 188.070312 248.40625 187.644531 248.988281 C 187.226562 249.5625 186.660156 249.851562 185.941406 249.863281 C 185.273438 249.871094 184.699219 249.628906 184.222656 249.128906 Z M 184.222656 248.722656 C 184.773438 249.121094 185.300781 249.3125 185.800781 249.300781 C 186.257812 249.292969 186.601562 249.089844 186.832031 248.691406 C 187.070312 248.296875 187.183594 247.730469 187.175781 246.988281 C 187.164062 246.1875 187.039062 245.589844 186.800781 245.191406 C 186.570312 244.796875 186.226562 244.605469 185.769531 244.613281 C 185.476562 244.613281 185.183594 244.699219 184.894531 244.863281 C 184.613281 245.03125 184.367188 245.253906 184.160156 245.535156 Z M 191.070312 249.011719 L 191.101562 250.355469 C 191.101562 250.644531 191.125 250.894531 191.179688 251.105469 C 191.199219 251.199219 191.234375 251.253906 191.289062 251.277344 C 191.351562 251.308594 191.464844 251.328125 191.632812 251.339844 L 191.976562 251.371094 L 192.085938 251.371094 L 192.085938 251.699219 L 189.117188 251.746094 L 189.117188 251.417969 L 189.226562 251.417969 L 189.570312 251.371094 C 189.765625 251.359375 189.890625 251.324219 189.945312 251.261719 C 190.007812 251.207031 190.039062 251.082031 190.039062 250.886719 L 190.070312 250.371094 L 189.976562 245.355469 L 189.945312 244.855469 C 189.933594 244.660156 189.898438 244.535156 189.835938 244.480469 C 189.773438 244.417969 189.640625 244.382812 189.445312 244.371094 L 189.101562 244.355469 L 188.992188 244.339844 L 188.992188 244.027344 L 190.992188 243.996094 L 191.007812 245.058594 C 191.507812 244.257812 192.164062 243.851562 192.976562 243.839844 C 193.609375 243.832031 194.121094 244.074219 194.507812 244.574219 C 194.890625 245.066406 195.09375 245.730469 195.117188 246.574219 C 195.125 247.523438 194.917969 248.289062 194.492188 248.871094 C 194.074219 249.445312 193.507812 249.734375 192.789062 249.746094 C 192.121094 249.753906 191.546875 249.511719 191.070312 249.011719 Z M 191.070312 248.605469 C 191.621094 249.003906 192.148438 249.195312 192.648438 249.183594 C 193.105469 249.175781 193.449219 248.972656 193.679688 248.574219 C 193.917969 248.179688 194.03125 247.613281 194.023438 246.871094 C 194.011719 246.070312 193.886719 245.472656 193.648438 245.074219 C 193.417969 244.679688 193.074219 244.488281 192.617188 244.496094 C 192.324219 244.496094 192.03125 244.582031 191.742188 244.746094 C 191.460938 244.914062 191.214844 245.136719 191.007812 245.417969 Z M 200.851562 249.242188 C 200.195312 249.503906 199.59375 249.632812 199.054688 249.632812 C 198.230469 249.652344 197.554688 249.390625 197.023438 248.835938 C 196.492188 248.285156 196.21875 247.5625 196.210938 246.664062 C 196.199219 245.820312 196.417969 245.128906 196.867188 244.585938 C 197.324219 244.035156 197.917969 243.753906 198.648438 243.742188 C 199.324219 243.734375 199.84375 243.953125 200.210938 244.398438 C 200.585938 244.847656 200.78125 245.492188 200.804688 246.335938 L 200.804688 246.445312 L 197.351562 246.492188 C 197.359375 247.265625 197.476562 247.847656 197.695312 248.242188 C 198.039062 248.835938 198.546875 249.128906 199.226562 249.117188 C 199.859375 249.109375 200.398438 248.972656 200.835938 248.710938 Z M 197.351562 246.164062 L 199.695312 246.132812 L 199.695312 245.898438 C 199.695312 245.492188 199.671875 245.195312 199.632812 245.007812 C 199.589844 244.8125 199.515625 244.632812 199.414062 244.476562 C 199.203125 244.1875 198.929688 244.046875 198.585938 244.054688 C 198.199219 244.054688 197.890625 244.25 197.664062 244.632812 C 197.445312 245.019531 197.339844 245.53125 197.351562 246.164062 Z M 206.050781 249.398438 L 206.035156 248.335938 C 205.542969 249.140625 204.886719 249.542969 204.066406 249.554688 C 203.429688 249.5625 202.917969 249.320312 202.535156 248.820312 C 202.148438 248.320312 201.945312 247.648438 201.925781 246.804688 C 201.914062 245.859375 202.117188 245.097656 202.535156 244.523438 C 202.960938 243.953125 203.535156 243.660156 204.253906 243.648438 C 204.917969 243.640625 205.492188 243.882812 205.972656 244.382812 L 205.941406 242.523438 C 205.929688 242.234375 205.902344 241.976562 205.863281 241.757812 C 205.839844 241.675781 205.800781 241.617188 205.738281 241.585938 C 205.683594 241.554688 205.574219 241.539062 205.410156 241.539062 L 205.066406 241.507812 L 204.957031 241.507812 L 204.941406 241.179688 L 206.941406 241.148438 L 207.066406 248.039062 C 207.066406 248.320312 207.089844 248.570312 207.144531 248.789062 C 207.175781 248.875 207.214844 248.929688 207.269531 248.960938 C 207.320312 248.992188 207.429688 249.007812 207.597656 249.007812 L 207.957031 249.039062 L 208.050781 249.039062 L 208.050781 249.367188 Z M 205.972656 244.789062 C 205.429688 244.40625 204.902344 244.21875 204.394531 244.226562 C 203.933594 244.226562 203.585938 244.425781 203.347656 244.820312 C 203.117188 245.207031 203.007812 245.769531 203.019531 246.507812 C 203.027344 247.3125 203.148438 247.910156 203.378906 248.304688 C 203.617188 248.703125 203.964844 248.898438 204.425781 248.898438 C 204.714844 248.890625 205.011719 248.796875 205.316406 248.617188 C 205.617188 248.441406 205.851562 248.226562 206.019531 247.976562 Z M 213.535156 241.042969 L 213.660156 247.933594 C 213.660156 248.214844 213.679688 248.464844 213.722656 248.683594 C 213.753906 248.769531 213.792969 248.824219 213.847656 248.855469 C 213.910156 248.878906 214.023438 248.894531 214.191406 248.902344 L 214.535156 248.933594 L 214.644531 248.933594 L 214.644531 249.261719 L 211.675781 249.308594 L 211.675781 248.980469 L 211.785156 248.980469 L 212.128906 248.933594 C 212.324219 248.925781 212.449219 248.894531 212.503906 248.839844 C 212.554688 248.789062 212.585938 248.664062 212.597656 248.464844 L 212.628906 247.949219 L 212.535156 242.417969 L 212.488281 241.902344 C 212.476562 241.707031 212.441406 241.582031 212.378906 241.527344 C 212.324219 241.464844 212.199219 241.429688 212.003906 241.417969 L 211.660156 241.402344 L 211.550781 241.402344 L 211.535156 241.074219 Z M 216.925781 243.566406 L 217.003906 247.878906 C 217.003906 248.160156 217.023438 248.410156 217.066406 248.628906 C 217.097656 248.714844 217.136719 248.769531 217.191406 248.800781 C 217.253906 248.824219 217.367188 248.839844 217.535156 248.847656 L 217.878906 248.878906 L 217.988281 248.878906 L 217.988281 249.207031 L 215.019531 249.253906 L 215.019531 248.925781 L 215.128906 248.925781 L 215.472656 248.878906 C 215.667969 248.871094 215.792969 248.839844 215.847656 248.785156 C 215.898438 248.734375 215.929688 248.609375 215.941406 248.410156 L 215.972656 247.894531 L 215.910156 244.925781 L 215.878906 244.425781 C 215.867188 244.230469 215.832031 244.105469 215.769531 244.050781 C 215.707031 243.988281 215.574219 243.953125 215.378906 243.941406 L 215.035156 243.925781 L 214.925781 243.910156 L 214.925781 243.597656 Z M 215.878906 242.550781 L 215.863281 241.519531 L 216.894531 241.503906 L 216.910156 242.535156 Z M 220.21875 244.574219 C 220.457031 244.191406 220.753906 243.894531 221.109375 243.683594 C 221.472656 243.464844 221.847656 243.355469 222.234375 243.355469 C 222.722656 243.347656 223.109375 243.496094 223.390625 243.808594 C 223.671875 244.121094 223.816406 244.558594 223.828125 245.121094 L 223.875 247.761719 L 223.921875 248.277344 C 223.929688 248.476562 223.960938 248.601562 224.015625 248.652344 C 224.078125 248.707031 224.207031 248.730469 224.40625 248.730469 L 224.765625 248.761719 L 224.859375 248.761719 L 224.859375 249.089844 L 221.90625 249.136719 L 221.90625 248.808594 L 222 248.808594 L 222.34375 248.761719 C 222.539062 248.753906 222.664062 248.722656 222.71875 248.667969 C 222.769531 248.617188 222.800781 248.492188 222.8125 248.292969 L 222.84375 247.777344 L 222.796875 245.292969 C 222.785156 244.816406 222.71875 244.480469 222.59375 244.292969 C 222.46875 244.097656 222.242188 244.003906 221.921875 244.011719 C 221.453125 244.023438 220.882812 244.324219 220.21875 244.917969 L 220.28125 247.824219 C 220.28125 248.105469 220.300781 248.355469 220.34375 248.574219 C 220.375 248.660156 220.414062 248.714844 220.46875 248.746094 C 220.53125 248.769531 220.644531 248.785156 220.8125 248.792969 L 221.15625 248.824219 L 221.265625 248.824219 L 221.265625 249.152344 L 218.296875 249.199219 L 218.296875 248.871094 L 218.40625 248.871094 L 218.75 248.824219 C 218.945312 248.816406 219.070312 248.785156 219.125 248.730469 C 219.175781 248.679688 219.207031 248.554688 219.21875 248.355469 L 219.25 247.839844 L 219.1875 244.871094 L 219.15625 244.371094 C 219.144531 244.175781 219.109375 244.050781 219.046875 243.996094 C 218.984375 243.933594 218.851562 243.898438 218.65625 243.886719 L 218.3125 243.871094 L 218.203125 243.855469 L 218.203125 243.542969 L 220.203125 243.511719 Z M 229.96875 248.757812 C 229.3125 249.019531 228.710938 249.148438 228.171875 249.148438 C 227.347656 249.167969 226.671875 248.90625 226.140625 248.351562 C 225.609375 247.800781 225.335938 247.078125 225.328125 246.179688 C 225.316406 245.335938 225.535156 244.644531 225.984375 244.101562 C 226.441406 243.550781 227.035156 243.269531 227.765625 243.257812 C 228.441406 243.25 228.960938 243.46875 229.328125 243.914062 C 229.703125 244.363281 229.898438 245.007812 229.921875 245.851562 L 229.921875 245.960938 L 226.46875 246.007812 C 226.476562 246.78125 226.59375 247.363281 226.8125 247.757812 C 227.15625 248.351562 227.664062 248.644531 228.34375 248.632812 C 228.976562 248.625 229.515625 248.488281 229.953125 248.226562 Z M 226.46875 245.679688 L 228.8125 245.648438 L 228.8125 245.414062 C 228.8125 245.007812 228.789062 244.710938 228.75 244.523438 C 228.707031 244.328125 228.632812 244.148438 228.53125 243.992188 C 228.320312 243.703125 228.046875 243.5625 227.703125 243.570312 C 227.316406 243.570312 227.007812 243.765625 226.78125 244.148438 C 226.5625 244.535156 226.457031 245.046875 226.46875 245.679688 Z "/>
</g>
</svg>
