<?xml version="1.0" encoding="UTF-8"?>
<svg xmlns="http://www.w3.org/2000/svg" xmlns:xlink="http://www.w3.org/1999/xlink" width="300pt" height="100pt" viewBox="0 0 300 100" version="1.1">
<g id="surface2">
<rect x="0" y="0" width="300" height="100" style="fill:rgb(100%,100%,100%);fill-opacity:1;stroke:none;"/>
<path style=" stroke:none;fill-rule:nonzero;fill:rgb(100%,0%,0%);fill-opacity:1;" d="M 77.75 74.25 C 77.75 77.582031 72.75 77.582031 72.75 74.25 C 72.75 70.917969 77.75 70.917969 77.75 74.25 "/>
<path style="fill:none;stroke-width:1;stroke-linecap:round;stroke-linejoin:round;stroke:rgb(100%,0%,0%);stroke-opacity:1;stroke-miterlimit:10;" d="M 100 49.5 L 124.75 24.75 L 248.5 24.75 "/>
<path style=" stroke:none;fill-rule:nonzero;fill:rgb(0%,0%,0%);fill-opacity:1;" d="M 103.125 39.644531 L 108.59375 45.113281 C 108.820312 45.34375 109.046875 45.527344 109.265625 45.660156 C 109.359375 45.714844 109.429688 45.734375 109.484375 45.722656 C 109.546875 45.703125 109.648438 45.628906 109.796875 45.503906 L 110.109375 45.222656 L 110.203125 45.160156 L 110.453125 45.410156 L 108.09375 47.769531 L 107.84375 47.519531 L 107.90625 47.425781 L 108.171875 47.128906 C 108.316406 46.964844 108.390625 46.832031 108.390625 46.738281 C 108.390625 46.644531 108.316406 46.527344 108.171875 46.378906 L 107.78125 45.925781 L 103.390625 41.535156 L 102.953125 41.160156 C 102.789062 40.996094 102.664062 40.917969 102.578125 40.925781 C 102.484375 40.925781 102.355469 41 102.1875 41.144531 L 101.890625 41.410156 L 101.8125 41.488281 L 101.546875 41.222656 Z M 113.164062 41.449219 C 113.164062 41.992188 113.105469 42.425781 112.992188 42.746094 C 112.886719 43.058594 112.703125 43.347656 112.445312 43.605469 C 112.070312 43.980469 111.632812 44.179688 111.132812 44.199219 C 110.640625 44.210938 110.21875 44.035156 109.851562 43.667969 C 109.425781 43.242188 109.25 42.730469 109.320312 42.136719 C 109.351562 41.773438 109.484375 41.414062 109.710938 41.058594 C 109.929688 40.695312 110.289062 40.261719 110.789062 39.761719 L 110.945312 39.605469 L 110.382812 39.042969 C 109.675781 38.335938 109.054688 38.246094 108.523438 38.777344 C 108.273438 39.027344 108.125 39.324219 108.070312 39.667969 C 108.0625 39.886719 108.179688 40.152344 108.429688 40.464844 L 108.507812 40.542969 L 107.945312 41.105469 L 107.132812 40.292969 C 107.457031 39.472656 107.863281 38.816406 108.351562 38.324219 C 108.78125 37.898438 109.226562 37.648438 109.695312 37.574219 C 109.988281 37.535156 110.238281 37.554688 110.445312 37.636719 C 110.652344 37.722656 110.898438 37.902344 111.179688 38.183594 L 113.179688 40.183594 C 113.542969 40.550781 113.828125 40.773438 114.039062 40.855469 C 114.246094 40.941406 114.429688 40.902344 114.585938 40.746094 C 114.625 40.707031 114.683594 40.617188 114.757812 40.480469 L 115.085938 40.777344 C 114.949219 41.039062 114.804688 41.246094 114.648438 41.402344 C 114.242188 41.808594 113.746094 41.824219 113.164062 41.449219 Z M 112.898438 41.558594 L 111.195312 39.855469 L 111.007812 40.042969 C 110.53125 40.523438 110.253906 40.996094 110.179688 41.464844 C 110.109375 41.933594 110.25 42.347656 110.601562 42.699219 C 110.859375 42.960938 111.15625 43.089844 111.492188 43.089844 C 111.824219 43.089844 112.117188 42.964844 112.367188 42.714844 C 112.605469 42.476562 112.78125 42.089844 112.898438 41.558594 Z M 115.925781 40.0625 L 110.394531 34.53125 L 109.972656 34.140625 C 109.796875 33.984375 109.667969 33.90625 109.582031 33.90625 C 109.5 33.90625 109.371094 33.984375 109.191406 34.140625 L 108.910156 34.390625 L 108.832031 34.46875 L 108.566406 34.203125 L 110.144531 32.625 L 113.035156 35.515625 C 112.816406 34.484375 113.03125 33.648438 113.675781 33 C 114.1875 32.492188 114.792969 32.28125 115.488281 32.375 C 116.183594 32.46875 116.871094 32.855469 117.550781 33.53125 C 118.300781 34.28125 118.726562 35.058594 118.832031 35.859375 C 118.933594 36.664062 118.707031 37.34375 118.144531 37.90625 C 117.613281 38.4375 116.957031 38.6875 116.175781 38.65625 L 116.113281 38.71875 L 116.597656 39.390625 Z M 115.863281 38.34375 C 116.601562 38.230469 117.175781 37.96875 117.582031 37.5625 C 117.945312 37.199219 118.070312 36.765625 117.957031 36.265625 C 117.839844 35.765625 117.492188 35.226562 116.910156 34.640625 C 116.273438 34.007812 115.707031 33.621094 115.207031 33.484375 C 114.699219 33.339844 114.261719 33.449219 113.894531 33.8125 C 113.667969 34.042969 113.503906 34.339844 113.410156 34.703125 C 113.308594 35.058594 113.277344 35.421875 113.316406 35.796875 Z M 124.261719 31.195312 C 123.9375 31.914062 123.5625 32.488281 123.136719 32.914062 C 122.46875 33.582031 121.707031 33.90625 120.855469 33.882812 C 120.011719 33.851562 119.230469 33.476562 118.511719 32.757812 C 117.835938 32.082031 117.472656 31.34375 117.417969 30.539062 C 117.367188 29.738281 117.628906 29.050781 118.199219 28.476562 C 118.742188 27.9375 119.335938 27.703125 119.980469 27.773438 C 120.625 27.847656 121.28125 28.21875 121.949219 28.882812 L 122.027344 28.960938 L 119.277344 31.710938 C 119.902344 32.335938 120.453125 32.722656 120.933594 32.867188 C 121.683594 33.078125 122.324219 32.914062 122.855469 32.382812 C 123.363281 31.875 123.691406 31.335938 123.839844 30.773438 Z M 119.042969 31.445312 L 120.902344 29.585938 L 120.730469 29.382812 C 120.40625 29.0625 120.152344 28.835938 119.964844 28.710938 C 119.777344 28.585938 119.585938 28.507812 119.386719 28.476562 C 119.003906 28.40625 118.675781 28.503906 118.402344 28.773438 C 118.089844 29.085938 117.992188 29.484375 118.105469 29.960938 C 118.222656 30.441406 118.535156 30.9375 119.042969 31.445312 Z M 120.085938 22.683594 L 125.554688 28.152344 C 125.78125 28.382812 126.007812 28.566406 126.226562 28.699219 C 126.320312 28.753906 126.390625 28.773438 126.445312 28.761719 C 126.507812 28.742188 126.609375 28.667969 126.757812 28.542969 L 127.070312 28.261719 L 127.164062 28.199219 L 127.414062 28.449219 L 125.054688 30.808594 L 124.804688 30.558594 L 124.867188 30.464844 L 125.132812 30.167969 C 125.277344 30.003906 125.351562 29.871094 125.351562 29.777344 C 125.351562 29.683594 125.277344 29.566406 125.132812 29.417969 L 124.742188 28.964844 L 120.351562 24.574219 L 119.914062 24.199219 C 119.75 24.035156 119.625 23.957031 119.539062 23.964844 C 119.445312 23.964844 119.316406 24.039062 119.148438 24.183594 L 118.851562 24.449219 L 118.773438 24.527344 L 118.507812 24.261719 Z M 130.167969 21.273438 L 130.089844 20.460938 L 136.902344 19.742188 L 136.980469 20.554688 Z M 138.496094 28.054688 C 138.035156 28.253906 137.40625 28.445312 136.605469 28.632812 C 135.8125 28.8125 135.09375 28.9375 134.449219 29.007812 C 133.074219 29.15625 131.953125 29.039062 131.089844 28.664062 C 130.234375 28.289062 129.765625 27.726562 129.683594 26.976562 C 129.597656 26.207031 130.074219 25.207031 131.105469 23.976562 L 131.824219 24.429688 C 130.957031 25.472656 130.550781 26.265625 130.605469 26.804688 C 130.667969 27.328125 131.027344 27.710938 131.683594 27.960938 C 132.347656 28.210938 133.238281 28.28125 134.355469 28.164062 C 134.96875 28.101562 135.652344 27.984375 136.402344 27.804688 C 137.152344 27.617188 137.761719 27.425781 138.230469 27.226562 Z M 140.324219 21.742188 L 143.121094 21.445312 L 142.902344 19.414062 L 143.761719 19.320312 L 144.152344 23.070312 C 144.984375 22.144531 145.667969 21.472656 146.199219 21.054688 C 146.738281 20.640625 147.203125 20.410156 147.589844 20.367188 C 148.046875 20.328125 148.394531 20.46875 148.636719 20.789062 C 148.875 21.113281 149.035156 21.695312 149.121094 22.539062 C 149.171875 23.019531 149.1875 23.597656 149.167969 24.273438 C 149.144531 25.003906 149.160156 25.585938 149.214844 26.023438 C 149.277344 26.609375 149.371094 26.992188 149.496094 27.179688 C 149.621094 27.359375 149.769531 27.441406 149.949219 27.429688 C 150.324219 27.390625 150.800781 26.972656 151.386719 26.179688 L 151.949219 26.742188 C 151.625 27.191406 151.265625 27.566406 150.871094 27.867188 C 150.472656 28.171875 150.125 28.335938 149.824219 28.367188 C 149.363281 28.421875 149.015625 28.285156 148.777344 27.960938 C 148.546875 27.628906 148.386719 27.046875 148.292969 26.210938 C 148.25 25.742188 148.238281 25.15625 148.261719 24.445312 C 148.269531 23.726562 148.253906 23.148438 148.214844 22.710938 C 148.152344 22.117188 148.058594 21.734375 147.933594 21.554688 C 147.816406 21.367188 147.667969 21.285156 147.480469 21.304688 C 147.011719 21.347656 145.941406 22.320312 144.277344 24.226562 L 144.839844 29.539062 L 143.980469 29.632812 L 143.511719 25.148438 L 141.386719 27.742188 L 140.746094 27.226562 L 143.386719 23.992188 L 143.199219 22.226562 L 140.402344 22.523438 Z M 155.011719 22.039062 C 155 22.96875 154.957031 23.925781 154.886719 24.914062 L 154.902344 24.929688 C 155.390625 24.472656 155.996094 24.070312 156.714844 23.726562 C 157.433594 23.382812 158.113281 23.179688 158.761719 23.117188 C 160.988281 22.878906 162.199219 23.644531 162.386719 25.414062 C 162.488281 26.457031 162.136719 27.300781 161.324219 27.945312 C 160.519531 28.59375 159.265625 29.003906 157.558594 29.179688 C 156.785156 29.261719 155.964844 29.304688 155.089844 29.304688 L 155.058594 28.476562 C 156.058594 28.476562 156.863281 28.445312 157.480469 28.382812 C 158.84375 28.238281 159.855469 27.925781 160.511719 27.445312 C 161.175781 26.96875 161.46875 26.328125 161.386719 25.523438 C 161.25 24.273438 160.371094 23.734375 158.746094 23.898438 C 158.121094 23.972656 157.433594 24.207031 156.683594 24.601562 C 155.933594 25 155.285156 25.472656 154.746094 26.023438 L 153.902344 25.882812 C 154.003906 24.476562 154.074219 23.195312 154.105469 22.039062 Z M 154.808594 19.945312 C 156.671875 19.988281 158.464844 19.921875 160.183594 19.742188 L 160.261719 20.539062 C 158.46875 20.726562 156.644531 20.800781 154.792969 20.757812 Z M 174.746094 21.507812 L 172.636719 21.726562 L 173.042969 25.632812 C 173.65625 25.976562 174.425781 26.519531 175.355469 27.257812 L 174.808594 27.929688 C 174.121094 27.359375 173.566406 26.941406 173.152344 26.679688 C 173.246094 28.148438 172.535156 28.960938 171.027344 29.117188 C 170.203125 29.210938 169.546875 29.097656 169.058594 28.773438 C 168.578125 28.441406 168.308594 27.945312 168.246094 27.289062 C 168.171875 26.664062 168.339844 26.160156 168.746094 25.773438 C 169.160156 25.390625 169.78125 25.148438 170.605469 25.054688 C 171.105469 25.003906 171.609375 25.054688 172.121094 25.210938 L 171.761719 21.820312 L 168.011719 22.226562 L 167.917969 21.445312 L 171.667969 21.039062 L 171.464844 19.039062 L 172.339844 18.945312 L 172.542969 20.945312 L 174.652344 20.726562 Z M 166.011719 19.914062 C 165.78125 21.4375 165.753906 23.046875 165.933594 24.742188 C 166.109375 26.429688 166.46875 27.992188 167.011719 29.429688 L 166.167969 29.632812 C 165.613281 28.175781 165.246094 26.578125 165.058594 24.835938 C 164.871094 23.085938 164.894531 21.441406 165.136719 19.898438 Z M 172.214844 26.148438 C 171.671875 25.910156 171.152344 25.816406 170.652344 25.867188 C 169.535156 25.992188 169.019531 26.4375 169.105469 27.195312 C 169.144531 27.613281 169.324219 27.921875 169.636719 28.117188 C 169.949219 28.304688 170.375 28.367188 170.917969 28.304688 C 171.449219 28.253906 171.816406 28.09375 172.027344 27.820312 C 172.234375 27.539062 172.3125 27.125 172.261719 26.570312 Z M 176.824219 27.742188 L 177.386719 27.164062 C 178.292969 27.875 179.183594 28.644531 180.058594 29.476562 L 179.480469 30.023438 C 178.769531 29.324219 177.886719 28.566406 176.824219 27.742188 Z M 195.871094 20.335938 L 196.683594 19.960938 C 197.316406 20.898438 197.84375 22.003906 198.261719 23.273438 C 198.6875 24.546875 198.980469 25.875 199.136719 27.257812 L 198.214844 27.367188 C 198.066406 26.066406 197.792969 24.796875 197.386719 23.554688 C 196.988281 22.316406 196.484375 21.242188 195.871094 20.335938 Z M 190.308594 20.820312 C 190.097656 22.082031 190.066406 23.414062 190.214844 24.820312 C 190.316406 25.863281 190.59375 26.71875 191.042969 27.382812 C 191.488281 28.050781 191.902344 28.363281 192.277344 28.320312 C 192.527344 28.300781 192.824219 28.007812 193.167969 27.445312 C 193.511719 26.882812 193.816406 26.113281 194.089844 25.132812 L 194.949219 25.367188 C 194.667969 26.523438 194.269531 27.445312 193.761719 28.132812 C 193.261719 28.820312 192.777344 29.191406 192.308594 29.242188 C 191.683594 29.304688 191.058594 28.921875 190.433594 28.085938 C 189.816406 27.253906 189.441406 26.203125 189.308594 24.929688 C 189.152344 23.429688 189.183594 22.050781 189.402344 20.789062 Z M 206.042969 28.335938 C 205.332031 28.703125 204.683594 28.914062 204.089844 28.976562 C 203.152344 29.070312 202.359375 28.84375 201.714844 28.289062 C 201.066406 27.726562 200.691406 26.941406 200.589844 25.929688 C 200.484375 24.984375 200.660156 24.179688 201.121094 23.523438 C 201.578125 22.859375 202.214844 22.484375 203.027344 22.398438 C 203.785156 22.316406 204.394531 22.507812 204.855469 22.976562 C 205.324219 23.445312 205.605469 24.148438 205.699219 25.085938 L 205.714844 25.195312 L 201.839844 25.601562 C 201.933594 26.476562 202.121094 27.125 202.402344 27.539062 C 202.847656 28.175781 203.453125 28.457031 204.214844 28.382812 C 204.910156 28.300781 205.5 28.085938 205.980469 27.742188 Z M 201.808594 25.242188 L 204.433594 24.976562 L 204.433594 24.695312 C 204.378906 24.25 204.324219 23.921875 204.261719 23.710938 C 204.199219 23.492188 204.09375 23.3125 203.949219 23.164062 C 203.707031 22.863281 203.394531 22.734375 203.011719 22.773438 C 202.574219 22.816406 202.246094 23.0625 202.027344 23.507812 C 201.808594 23.957031 201.734375 24.535156 201.808594 25.242188 Z M 208.605469 23.820312 C 208.832031 23.382812 209.140625 23.023438 209.527344 22.742188 C 209.910156 22.460938 210.316406 22.300781 210.746094 22.257812 C 211.296875 22.195312 211.746094 22.332031 212.089844 22.664062 C 212.433594 22.988281 212.640625 23.460938 212.714844 24.085938 L 213.027344 27.039062 L 213.136719 27.601562 C 213.167969 27.820312 213.214844 27.960938 213.277344 28.023438 C 213.347656 28.078125 213.488281 28.09375 213.699219 28.070312 L 214.230469 28.070312 L 214.261719 28.429688 L 210.949219 28.773438 L 210.917969 28.414062 L 211.011719 28.398438 L 211.402344 28.320312 C 211.628906 28.289062 211.769531 28.238281 211.824219 28.164062 C 211.886719 28.09375 211.910156 27.945312 211.902344 27.726562 L 211.871094 27.164062 L 211.574219 24.398438 C 211.511719 23.847656 211.394531 23.472656 211.230469 23.273438 C 211.074219 23.078125 210.8125 23 210.449219 23.039062 C 209.9375 23.09375 209.339844 23.484375 208.652344 24.210938 L 208.996094 27.460938 C 209.027344 27.773438 209.078125 28.050781 209.152344 28.289062 C 209.203125 28.394531 209.253906 28.457031 209.308594 28.476562 C 209.371094 28.5 209.496094 28.507812 209.683594 28.507812 L 210.089844 28.492188 L 210.214844 28.492188 L 210.246094 28.851562 L 206.933594 29.210938 L 206.902344 28.851562 L 206.996094 28.820312 L 207.386719 28.742188 C 207.613281 28.710938 207.753906 28.664062 207.808594 28.601562 C 207.871094 28.53125 207.894531 28.378906 207.886719 28.148438 L 207.855469 27.585938 L 207.496094 24.273438 L 207.402344 23.695312 C 207.371094 23.488281 207.316406 23.359375 207.246094 23.304688 C 207.183594 23.242188 207.035156 23.210938 206.808594 23.210938 L 206.417969 23.226562 L 206.308594 23.242188 L 206.261719 22.882812 L 208.480469 22.632812 Z M 215.917969 28.804688 C 215.46875 28.648438 215.230469 28.394531 215.199219 28.039062 C 215.175781 27.832031 215.234375 27.632812 215.371094 27.445312 C 215.503906 27.257812 215.769531 27.039062 216.167969 26.789062 C 215.738281 26.65625 215.394531 26.421875 215.136719 26.085938 C 214.875 25.753906 214.71875 25.363281 214.667969 24.914062 C 214.59375 24.238281 214.75 23.675781 215.136719 23.226562 C 215.53125 22.769531 216.09375 22.5 216.824219 22.414062 C 217.261719 22.375 217.667969 22.410156 218.042969 22.523438 L 220.261719 22.117188 L 220.027344 22.851562 L 218.480469 22.757812 C 219.03125 23.195312 219.339844 23.738281 219.402344 24.382812 C 219.472656 25.03125 219.3125 25.59375 218.917969 26.070312 C 218.519531 26.539062 217.988281 26.8125 217.324219 26.882812 C 217.0625 26.914062 216.785156 26.90625 216.496094 26.851562 C 216.246094 27.082031 216.128906 27.328125 216.152344 27.585938 C 216.183594 27.859375 216.441406 27.96875 216.933594 27.914062 L 217.933594 27.820312 C 218.933594 27.71875 219.609375 27.75 219.964844 27.914062 C 220.359375 28.101562 220.582031 28.460938 220.636719 28.992188 C 220.699219 29.59375 220.472656 30.109375 219.964844 30.539062 C 219.453125 30.964844 218.75 31.226562 217.855469 31.320312 C 216.96875 31.414062 216.25 31.359375 215.699219 31.164062 C 215.144531 30.976562 214.84375 30.679688 214.792969 30.273438 C 214.738281 29.75 215.113281 29.261719 215.917969 28.804688 Z M 215.808594 24.710938 C 215.941406 26.003906 216.421875 26.601562 217.246094 26.507812 C 217.640625 26.46875 217.921875 26.273438 218.089844 25.929688 C 218.265625 25.585938 218.324219 25.109375 218.261719 24.492188 C 218.199219 23.898438 218.046875 23.457031 217.808594 23.164062 C 217.566406 22.863281 217.253906 22.734375 216.871094 22.773438 C 216.464844 22.816406 216.167969 23.007812 215.980469 23.351562 C 215.800781 23.6875 215.746094 24.140625 215.808594 24.710938 Z M 216.246094 28.882812 C 215.984375 29.195312 215.875 29.558594 215.917969 29.976562 C 215.957031 30.328125 216.152344 30.59375 216.496094 30.773438 C 216.839844 30.960938 217.285156 31.027344 217.839844 30.976562 C 218.402344 30.914062 218.832031 30.742188 219.136719 30.460938 C 219.449219 30.179688 219.582031 29.824219 219.542969 29.398438 C 219.511719 29.078125 219.394531 28.863281 219.199219 28.757812 C 219.011719 28.65625 218.691406 28.625 218.246094 28.664062 Z M 222.621094 19.757812 L 223.433594 27.460938 C 223.464844 27.773438 223.515625 28.050781 223.589844 28.289062 C 223.640625 28.394531 223.691406 28.457031 223.746094 28.476562 C 223.808594 28.5 223.933594 28.507812 224.121094 28.507812 L 224.527344 28.492188 L 224.652344 28.492188 L 224.683594 28.851562 L 221.371094 29.210938 L 221.339844 28.851562 L 221.433594 28.820312 L 221.824219 28.742188 C 222.050781 28.710938 222.191406 28.664062 222.246094 28.601562 C 222.308594 28.53125 222.332031 28.378906 222.324219 28.148438 L 222.292969 27.585938 L 221.636719 21.398438 L 221.542969 20.820312 C 221.511719 20.601562 221.457031 20.46875 221.386719 20.414062 C 221.324219 20.363281 221.171875 20.335938 220.933594 20.335938 L 220.542969 20.351562 L 220.433594 20.367188 L 220.402344 20.007812 Z M 226.683594 22.632812 L 227.199219 27.460938 C 227.230469 27.773438 227.28125 28.050781 227.355469 28.289062 C 227.40625 28.394531 227.457031 28.457031 227.511719 28.476562 C 227.574219 28.5 227.699219 28.507812 227.886719 28.507812 L 228.292969 28.492188 L 228.417969 28.492188 L 228.449219 28.851562 L 225.136719 29.210938 L 225.105469 28.851562 L 225.199219 28.820312 L 225.589844 28.742188 C 225.816406 28.710938 225.957031 28.664062 226.011719 28.601562 C 226.074219 28.53125 226.097656 28.378906 226.089844 28.148438 L 226.058594 27.585938 L 225.699219 24.273438 L 225.605469 23.695312 C 225.574219 23.488281 225.519531 23.359375 225.449219 23.304688 C 225.386719 23.242188 225.238281 23.210938 225.011719 23.210938 L 224.621094 23.226562 L 224.511719 23.242188 L 224.464844 22.882812 Z M 225.417969 21.617188 L 225.308594 20.460938 L 226.449219 20.335938 L 226.558594 21.492188 Z M 229.386719 28.820312 L 229.214844 27.210938 L 229.855469 27.132812 L 229.886719 27.257812 L 229.996094 27.851562 C 230.046875 28.15625 230.214844 28.375 230.496094 28.507812 C 230.859375 28.664062 231.246094 28.722656 231.652344 28.679688 C 232.003906 28.648438 232.277344 28.515625 232.464844 28.273438 C 232.660156 28.035156 232.746094 27.75 232.714844 27.414062 C 232.683594 27.132812 232.582031 26.914062 232.417969 26.757812 C 232.25 26.59375 231.96875 26.457031 231.574219 26.351562 L 230.949219 26.179688 C 230.292969 26.015625 229.808594 25.789062 229.496094 25.507812 C 229.183594 25.226562 229 24.875 228.949219 24.445312 C 228.894531 23.925781 229.058594 23.476562 229.433594 23.101562 C 229.808594 22.726562 230.3125 22.503906 230.949219 22.429688 C 231.5625 22.367188 232.214844 22.425781 232.902344 22.601562 L 233.058594 24.117188 L 232.402344 24.179688 L 232.386719 24.070312 L 232.292969 23.539062 C 232.238281 23.3125 232.1875 23.160156 232.136719 23.085938 C 232.082031 23.015625 231.96875 22.941406 231.792969 22.867188 C 231.550781 22.796875 231.3125 22.769531 231.074219 22.789062 C 230.730469 22.820312 230.453125 22.957031 230.246094 23.195312 C 230.046875 23.4375 229.964844 23.722656 229.996094 24.054688 C 230.027344 24.328125 230.140625 24.535156 230.339844 24.679688 C 230.535156 24.816406 230.921875 24.972656 231.496094 25.148438 L 232.058594 25.304688 C 232.660156 25.484375 233.09375 25.691406 233.355469 25.929688 C 233.613281 26.160156 233.765625 26.476562 233.808594 26.882812 C 233.871094 27.4375 233.699219 27.921875 233.292969 28.335938 C 232.886719 28.742188 232.324219 28.984375 231.605469 29.054688 C 230.832031 29.140625 230.09375 29.0625 229.386719 28.820312 Z M 236.542969 23.820312 C 236.769531 23.382812 237.078125 23.023438 237.464844 22.742188 C 237.847656 22.460938 238.253906 22.300781 238.683594 22.257812 C 239.234375 22.195312 239.683594 22.332031 240.027344 22.664062 C 240.371094 22.988281 240.578125 23.460938 240.652344 24.085938 L 240.964844 27.039062 L 241.074219 27.601562 C 241.105469 27.820312 241.152344 27.960938 241.214844 28.023438 C 241.285156 28.078125 241.425781 28.09375 241.636719 28.070312 L 242.167969 28.070312 L 242.199219 28.429688 L 238.886719 28.773438 L 238.855469 28.414062 L 238.949219 28.398438 L 239.339844 28.320312 C 239.566406 28.289062 239.707031 28.238281 239.761719 28.164062 C 239.824219 28.09375 239.847656 27.945312 239.839844 27.726562 L 239.808594 27.164062 L 239.511719 24.398438 C 239.449219 23.847656 239.332031 23.472656 239.167969 23.273438 C 239.011719 23.078125 238.75 23 238.386719 23.039062 C 237.875 23.09375 237.277344 23.484375 236.589844 24.210938 L 236.933594 27.460938 C 236.964844 27.773438 237.015625 28.050781 237.089844 28.289062 C 237.140625 28.394531 237.191406 28.457031 237.246094 28.476562 C 237.308594 28.5 237.433594 28.507812 237.621094 28.507812 L 238.027344 28.492188 L 238.152344 28.492188 L 238.183594 28.851562 L 234.871094 29.210938 L 234.839844 28.851562 L 234.933594 28.820312 L 235.324219 28.742188 C 235.550781 28.710938 235.691406 28.664062 235.746094 28.601562 C 235.808594 28.53125 235.832031 28.378906 235.824219 28.148438 L 235.792969 27.585938 L 235.136719 21.398438 L 235.042969 20.820312 C 235.011719 20.601562 234.957031 20.46875 234.886719 20.414062 C 234.824219 20.363281 234.671875 20.335938 234.433594 20.335938 L 234.042969 20.351562 L 233.933594 20.367188 L 233.902344 20.007812 L 236.121094 19.757812 Z M 236.542969 23.820312 "/>
<path style=" stroke:none;fill-rule:evenodd;fill:rgb(0%,100%,0%);fill-opacity:1;" d="M 78.25 65.546875 L 78.25 79.703125 L 261.546875 79.703125 L 261.546875 65.546875 Z M 78.25 65.546875 "/>
<path style=" stroke:none;fill-rule:evenodd;fill:rgb(0%,0%,0%);fill-opacity:1;" d="M 81.703125 67 L 81.703125 74.734375 C 81.703125 75.058594 81.726562 75.339844 81.78125 75.578125 C 81.8125 75.683594 81.851562 75.75 81.90625 75.78125 C 81.96875 75.8125 82.09375 75.835938 82.28125 75.84375 L 82.6875 75.875 L 82.796875 75.890625 L 82.796875 76.25 L 79.46875 76.25 L 79.46875 75.890625 L 79.578125 75.875 L 79.96875 75.84375 C 80.195312 75.835938 80.34375 75.796875 80.40625 75.734375 C 80.46875 75.671875 80.503906 75.53125 80.515625 75.3125 L 80.546875 74.734375 L 80.546875 68.515625 L 80.515625 67.9375 C 80.503906 67.710938 80.46875 67.570312 80.40625 67.515625 C 80.34375 67.453125 80.195312 67.414062 79.96875 67.390625 L 79.578125 67.359375 L 79.46875 67.359375 L 79.46875 67 Z M 87.53125 75.375 C 87.144531 75.75 86.800781 76.015625 86.5 76.171875 C 86.195312 76.316406 85.859375 76.390625 85.484375 76.390625 C 84.953125 76.390625 84.503906 76.226562 84.140625 75.890625 C 83.785156 75.546875 83.609375 75.117188 83.609375 74.59375 C 83.609375 73.992188 83.84375 73.5 84.3125 73.125 C 84.601562 72.898438 84.953125 72.734375 85.359375 72.640625 C 85.765625 72.539062 86.320312 72.484375 87.03125 72.484375 L 87.265625 72.484375 L 87.265625 71.703125 C 87.265625 70.695312 86.882812 70.1875 86.125 70.1875 C 85.769531 70.1875 85.453125 70.296875 85.171875 70.515625 C 85.015625 70.652344 84.914062 70.921875 84.875 71.328125 L 84.875 71.4375 L 84.078125 71.4375 L 84.078125 70.28125 C 84.890625 69.929688 85.640625 69.75 86.328125 69.75 C 86.929688 69.75 87.425781 69.890625 87.8125 70.171875 C 88.039062 70.351562 88.195312 70.542969 88.28125 70.75 C 88.375 70.960938 88.421875 71.261719 88.421875 71.65625 L 88.421875 74.484375 C 88.421875 74.996094 88.460938 75.355469 88.546875 75.5625 C 88.640625 75.773438 88.796875 75.875 89.015625 75.875 C 89.085938 75.875 89.191406 75.855469 89.328125 75.8125 L 89.359375 76.25 C 89.078125 76.34375 88.828125 76.390625 88.609375 76.390625 C 88.035156 76.390625 87.675781 76.054688 87.53125 75.375 Z M 87.265625 75.25 L 87.265625 72.84375 L 87 72.84375 C 86.3125 72.84375 85.773438 72.984375 85.390625 73.265625 C 85.015625 73.546875 84.828125 73.9375 84.828125 74.4375 C 84.828125 74.804688 84.941406 75.105469 85.171875 75.34375 C 85.410156 75.585938 85.707031 75.703125 86.0625 75.703125 C 86.40625 75.703125 86.804688 75.554688 87.265625 75.25 Z M 90.46875 76.328125 L 90.46875 68.515625 L 90.4375 67.9375 C 90.414062 67.710938 90.375 67.570312 90.3125 67.515625 C 90.257812 67.453125 90.117188 67.414062 89.890625 67.390625 L 89.5 67.359375 L 89.390625 67.359375 L 89.390625 67 L 91.625 67 L 91.625 71.078125 C 92.195312 70.195312 92.941406 69.75 93.859375 69.75 C 94.578125 69.75 95.148438 70.03125 95.578125 70.59375 C 96.003906 71.15625 96.21875 71.917969 96.21875 72.875 C 96.21875 73.9375 95.972656 74.792969 95.484375 75.4375 C 94.992188 76.074219 94.347656 76.390625 93.546875 76.390625 C 92.796875 76.390625 92.15625 76.105469 91.625 75.53125 L 91.546875 75.53125 L 91.40625 76.328125 Z M 91.625 75.078125 C 92.238281 75.527344 92.828125 75.75 93.390625 75.75 C 93.910156 75.75 94.304688 75.53125 94.578125 75.09375 C 94.847656 74.65625 94.984375 74.027344 94.984375 73.203125 C 94.984375 72.296875 94.851562 71.621094 94.59375 71.171875 C 94.34375 70.714844 93.957031 70.484375 93.4375 70.484375 C 93.113281 70.484375 92.789062 70.578125 92.46875 70.765625 C 92.144531 70.945312 91.863281 71.183594 91.625 71.484375 Z M 102.625 75.96875 C 101.882812 76.25 101.210938 76.390625 100.609375 76.390625 C 99.671875 76.390625 98.910156 76.078125 98.328125 75.453125 C 97.742188 74.828125 97.453125 74.011719 97.453125 73 C 97.453125 72.042969 97.710938 71.261719 98.234375 70.65625 C 98.765625 70.054688 99.4375 69.75 100.25 69.75 C 101.019531 69.75 101.609375 70.007812 102.015625 70.515625 C 102.421875 71.027344 102.625 71.757812 102.625 72.703125 L 102.625 72.8125 L 98.734375 72.8125 C 98.734375 73.6875 98.851562 74.34375 99.09375 74.78125 C 99.46875 75.46875 100.035156 75.8125 100.796875 75.8125 C 101.503906 75.8125 102.113281 75.667969 102.625 75.375 Z M 98.75 72.453125 L 101.390625 72.453125 L 101.40625 72.1875 C 101.40625 71.730469 101.382812 71.390625 101.34375 71.171875 C 101.300781 70.953125 101.21875 70.761719 101.09375 70.59375 C 100.875 70.273438 100.570312 70.109375 100.1875 70.109375 C 99.75 70.109375 99.398438 70.324219 99.140625 70.75 C 98.878906 71.167969 98.75 71.734375 98.75 72.453125 Z M 105.6875 67 L 105.6875 74.734375 C 105.6875 75.058594 105.710938 75.339844 105.765625 75.578125 C 105.796875 75.683594 105.835938 75.75 105.890625 75.78125 C 105.953125 75.8125 106.078125 75.835938 106.265625 75.84375 L 106.671875 75.875 L 106.78125 75.890625 L 106.78125 76.25 L 103.453125 76.25 L 103.453125 75.890625 L 103.5625 75.875 L 103.953125 75.84375 C 104.179688 75.835938 104.328125 75.796875 104.390625 75.734375 C 104.453125 75.671875 104.488281 75.53125 104.5 75.3125 L 104.53125 74.734375 L 104.53125 68.515625 L 104.5 67.9375 C 104.488281 67.710938 104.453125 67.570312 104.390625 67.515625 C 104.328125 67.453125 104.179688 67.414062 103.953125 67.390625 L 103.5625 67.359375 L 103.453125 67.359375 L 103.453125 67 Z M 113.296875 68.53125 L 113.296875 67.71875 L 120.140625 67.71875 L 120.140625 68.53125 Z M 120.875 76.15625 C 120.382812 76.300781 119.734375 76.421875 118.921875 76.515625 C 118.117188 76.617188 117.390625 76.671875 116.734375 76.671875 C 115.347656 76.671875 114.25 76.441406 113.4375 75.984375 C 112.625 75.527344 112.21875 74.917969 112.21875 74.15625 C 112.21875 73.386719 112.789062 72.4375 113.9375 71.3125 L 114.609375 71.84375 C 113.640625 72.792969 113.15625 73.539062 113.15625 74.078125 C 113.15625 74.609375 113.472656 75.039062 114.109375 75.359375 C 114.742188 75.671875 115.617188 75.828125 116.734375 75.828125 C 117.359375 75.828125 118.050781 75.78125 118.8125 75.6875 C 119.570312 75.585938 120.195312 75.460938 120.6875 75.3125 Z M 123.40625 68.796875 L 126.21875 68.796875 L 126.21875 66.765625 L 127.09375 66.765625 L 127.09375 70.53125 C 128.007812 69.699219 128.753906 69.105469 129.328125 68.75 C 129.910156 68.386719 130.394531 68.203125 130.78125 68.203125 C 131.238281 68.203125 131.566406 68.375 131.765625 68.71875 C 131.972656 69.0625 132.078125 69.664062 132.078125 70.515625 C 132.078125 70.996094 132.03125 71.578125 131.9375 72.265625 C 131.84375 72.984375 131.796875 73.5625 131.796875 74 C 131.796875 74.59375 131.847656 74.992188 131.953125 75.1875 C 132.054688 75.375 132.195312 75.46875 132.375 75.46875 C 132.757812 75.46875 133.285156 75.105469 133.953125 74.375 L 134.4375 75 C 134.070312 75.417969 133.675781 75.757812 133.25 76.015625 C 132.832031 76.265625 132.46875 76.390625 132.15625 76.390625 C 131.695312 76.390625 131.367188 76.21875 131.171875 75.875 C 130.972656 75.523438 130.875 74.921875 130.875 74.078125 C 130.875 73.609375 130.921875 73.027344 131.015625 72.328125 C 131.109375 71.609375 131.15625 71.03125 131.15625 70.59375 C 131.15625 70 131.101562 69.605469 131 69.40625 C 130.90625 69.210938 130.765625 69.109375 130.578125 69.109375 C 130.109375 69.109375 128.945312 69.96875 127.09375 71.6875 L 127.09375 77.03125 L 126.21875 77.03125 L 126.21875 72.53125 L 123.828125 74.890625 L 123.25 74.296875 L 126.21875 71.359375 L 126.21875 69.59375 L 123.40625 69.59375 Z M 138.046875 69.390625 C 137.941406 70.308594 137.800781 71.257812 137.625 72.234375 L 137.640625 72.25 C 138.171875 71.835938 138.8125 71.496094 139.5625 71.234375 C 140.3125 70.976562 141.015625 70.84375 141.671875 70.84375 C 143.910156 70.84375 145.03125 71.734375 145.03125 73.515625 C 145.03125 74.570312 144.59375 75.371094 143.71875 75.921875 C 142.851562 76.472656 141.5625 76.75 139.84375 76.75 C 139.0625 76.75 138.238281 76.703125 137.375 76.609375 L 137.421875 75.796875 C 138.421875 75.902344 139.226562 75.953125 139.84375 75.953125 C 141.21875 75.953125 142.253906 75.75 142.953125 75.34375 C 143.660156 74.929688 144.015625 74.320312 144.015625 73.515625 C 144.015625 72.257812 143.195312 71.625 141.5625 71.625 C 140.9375 71.625 140.226562 71.789062 139.4375 72.109375 C 138.65625 72.421875 137.96875 72.824219 137.375 73.3125 L 136.546875 73.09375 C 136.796875 71.699219 137 70.433594 137.15625 69.296875 Z M 138.0625 67.28125 C 139.914062 67.523438 141.707031 67.640625 143.4375 67.640625 L 143.4375 68.4375 C 141.632812 68.4375 139.8125 68.320312 137.96875 68.078125 Z M 157.796875 69.671875 L 155.671875 69.671875 L 155.671875 73.59375 C 156.253906 74 156.960938 74.621094 157.796875 75.453125 L 157.1875 76.0625 C 156.5625 75.429688 156.054688 74.953125 155.671875 74.640625 C 155.609375 76.109375 154.816406 76.84375 153.296875 76.84375 C 152.472656 76.84375 151.835938 76.65625 151.390625 76.28125 C 150.941406 75.90625 150.71875 75.386719 150.71875 74.71875 C 150.71875 74.09375 150.941406 73.617188 151.390625 73.28125 C 151.835938 72.9375 152.472656 72.765625 153.296875 72.765625 C 153.804688 72.765625 154.304688 72.871094 154.796875 73.078125 L 154.796875 69.671875 L 151.03125 69.671875 L 151.03125 68.875 L 154.796875 68.875 L 154.796875 66.875 L 155.671875 66.875 L 155.671875 68.875 L 157.796875 68.875 Z M 149.28125 67.171875 C 148.894531 68.664062 148.703125 70.257812 148.703125 71.953125 C 148.703125 73.652344 148.894531 75.246094 149.28125 76.734375 L 148.421875 76.84375 C 148.015625 75.335938 147.8125 73.703125 147.8125 71.953125 C 147.8125 70.203125 148.015625 68.574219 148.421875 67.0625 Z M 154.796875 74.015625 C 154.285156 73.726562 153.773438 73.578125 153.265625 73.578125 C 152.148438 73.578125 151.59375 73.960938 151.59375 74.71875 C 151.59375 75.148438 151.734375 75.476562 152.015625 75.703125 C 152.304688 75.921875 152.722656 76.03125 153.265625 76.03125 C 153.804688 76.03125 154.195312 75.90625 154.4375 75.65625 C 154.675781 75.40625 154.796875 75 154.796875 74.4375 Z M 159.28125 74.8125 L 159.890625 74.296875 C 160.722656 75.109375 161.53125 75.976562 162.3125 76.890625 L 161.6875 77.359375 C 161.050781 76.597656 160.25 75.75 159.28125 74.8125 Z M 179.0625 68.203125 L 179.90625 67.90625 C 180.445312 68.917969 180.859375 70.078125 181.140625 71.390625 C 181.429688 72.695312 181.578125 74.042969 181.578125 75.4375 L 180.65625 75.4375 C 180.65625 74.125 180.515625 72.835938 180.234375 71.5625 C 179.960938 70.292969 179.570312 69.171875 179.0625 68.203125 Z M 173.484375 68.09375 C 173.140625 69.335938 172.96875 70.664062 172.96875 72.078125 C 172.96875 73.121094 173.148438 73.996094 173.515625 74.703125 C 173.890625 75.414062 174.265625 75.765625 174.640625 75.765625 C 174.898438 75.765625 175.226562 75.507812 175.625 74.984375 C 176.03125 74.464844 176.414062 73.730469 176.78125 72.78125 L 177.609375 73.109375 C 177.210938 74.226562 176.726562 75.101562 176.15625 75.734375 C 175.582031 76.359375 175.054688 76.671875 174.578125 76.671875 C 173.953125 76.671875 173.375 76.226562 172.84375 75.328125 C 172.320312 74.433594 172.0625 73.351562 172.0625 72.078125 C 172.0625 70.570312 172.238281 69.199219 172.59375 67.96875 Z M 191.359375 67.375 C 189.816406 68.605469 188.304688 69.710938 186.828125 70.6875 C 186.359375 71 186.054688 71.214844 185.921875 71.328125 C 185.796875 71.445312 185.734375 71.574219 185.734375 71.71875 C 185.734375 71.84375 185.789062 71.964844 185.90625 72.078125 C 186.019531 72.183594 186.285156 72.375 186.703125 72.65625 C 188.367188 73.792969 190.046875 75.09375 191.734375 76.5625 L 191.078125 77.203125 C 189.390625 75.757812 187.75 74.480469 186.15625 73.375 C 185.519531 72.9375 185.117188 72.632812 184.953125 72.453125 C 184.785156 72.265625 184.703125 72.023438 184.703125 71.71875 C 184.703125 71.398438 184.785156 71.148438 184.953125 70.96875 C 185.128906 70.78125 185.5625 70.460938 186.25 70 C 187.75 69.011719 189.253906 67.914062 190.765625 66.703125 Z M 195.71875 68.984375 C 198.070312 68.359375 199.847656 68.046875 201.046875 68.046875 C 204.066406 68.046875 205.578125 69.308594 205.578125 71.828125 C 205.578125 73.320312 204.929688 74.453125 203.640625 75.234375 C 202.359375 76.007812 200.457031 76.390625 197.9375 76.390625 L 197.875 75.515625 C 202.351562 75.515625 204.59375 74.320312 204.59375 71.921875 C 204.59375 70.914062 204.296875 70.167969 203.703125 69.6875 C 203.117188 69.199219 202.210938 68.953125 200.984375 68.953125 C 199.898438 68.953125 198.210938 69.257812 195.921875 69.859375 Z M 207.8125 69.875 L 207.8125 69.078125 L 210.15625 69.078125 C 210.382812 68.089844 210.554688 67.246094 210.671875 66.546875 L 211.546875 66.640625 C 211.429688 67.339844 211.269531 68.152344 211.0625 69.078125 L 212.140625 69.078125 C 212.503906 69.078125 212.78125 69.078125 212.96875 69.078125 C 213.164062 69.078125 213.375 69.101562 213.59375 69.140625 C 213.820312 69.183594 213.984375 69.21875 214.078125 69.25 C 214.171875 69.28125 214.269531 69.367188 214.375 69.5 C 214.488281 69.636719 214.554688 69.757812 214.578125 69.859375 C 214.609375 69.964844 214.640625 70.152344 214.671875 70.421875 C 214.710938 70.683594 214.734375 70.929688 214.734375 71.15625 C 214.734375 71.386719 214.734375 71.71875 214.734375 72.15625 C 214.734375 73.636719 214.554688 74.761719 214.203125 75.53125 C 213.847656 76.289062 213.398438 76.671875 212.859375 76.671875 C 212.179688 76.671875 211.367188 76.453125 210.421875 76.015625 L 210.71875 75.21875 C 211.613281 75.605469 212.269531 75.796875 212.6875 75.796875 C 212.976562 75.796875 213.238281 75.476562 213.46875 74.828125 C 213.695312 74.183594 213.8125 73.25 213.8125 72.03125 C 213.8125 71.773438 213.8125 71.578125 213.8125 71.453125 C 213.8125 71.328125 213.804688 71.179688 213.796875 71 C 213.785156 70.8125 213.773438 70.6875 213.765625 70.625 C 213.765625 70.554688 213.742188 70.464844 213.703125 70.359375 C 213.671875 70.246094 213.644531 70.179688 213.625 70.15625 C 213.613281 70.125 213.566406 70.085938 213.484375 70.03125 C 213.398438 69.96875 213.335938 69.9375 213.296875 69.9375 C 213.253906 69.929688 213.164062 69.917969 213.03125 69.90625 C 212.90625 69.886719 212.796875 69.875 212.703125 69.875 C 212.617188 69.875 212.484375 69.875 212.296875 69.875 L 210.875 69.875 C 210.28125 72.28125 209.488281 74.574219 208.5 76.75 L 207.671875 76.4375 C 208.609375 74.367188 209.375 72.179688 209.96875 69.875 Z M 215.265625 68.296875 L 216.09375 68 C 216.988281 70.042969 217.695312 72.074219 218.21875 74.09375 L 217.359375 74.3125 C 217.128906 73.417969 216.816406 72.40625 216.421875 71.28125 C 216.035156 70.15625 215.648438 69.164062 215.265625 68.296875 Z M 224.40625 75.96875 C 223.664062 76.25 222.992188 76.390625 222.390625 76.390625 C 221.453125 76.390625 220.691406 76.078125 220.109375 75.453125 C 219.523438 74.828125 219.234375 74.011719 219.234375 73 C 219.234375 72.042969 219.492188 71.261719 220.015625 70.65625 C 220.546875 70.054688 221.21875 69.75 222.03125 69.75 C 222.800781 69.75 223.390625 70.007812 223.796875 70.515625 C 224.203125 71.027344 224.40625 71.757812 224.40625 72.703125 L 224.40625 72.8125 L 220.515625 72.8125 C 220.515625 73.6875 220.632812 74.34375 220.875 74.78125 C 221.25 75.46875 221.816406 75.8125 222.578125 75.8125 C 223.285156 75.8125 223.894531 75.667969 224.40625 75.375 Z M 220.53125 72.453125 L 223.171875 72.453125 L 223.1875 72.1875 C 223.1875 71.730469 223.164062 71.390625 223.125 71.171875 C 223.082031 70.953125 223 70.761719 222.875 70.59375 C 222.65625 70.273438 222.351562 70.109375 221.96875 70.109375 C 221.53125 70.109375 221.179688 70.324219 220.921875 70.75 C 220.660156 71.167969 220.53125 71.734375 220.53125 72.453125 Z M 227.46875 71.078125 C 227.738281 70.664062 228.078125 70.339844 228.484375 70.109375 C 228.898438 69.871094 229.328125 69.75 229.765625 69.75 C 230.316406 69.75 230.742188 69.933594 231.046875 70.296875 C 231.359375 70.652344 231.515625 71.140625 231.515625 71.765625 L 231.515625 74.734375 L 231.5625 75.3125 C 231.570312 75.53125 231.609375 75.671875 231.671875 75.734375 C 231.734375 75.796875 231.875 75.835938 232.09375 75.84375 L 232.5 75.875 L 232.609375 75.890625 L 232.609375 76.25 L 229.28125 76.25 L 229.28125 75.890625 L 229.390625 75.875 L 229.78125 75.84375 C 230.007812 75.835938 230.15625 75.796875 230.21875 75.734375 C 230.28125 75.671875 230.316406 75.53125 230.328125 75.3125 L 230.359375 74.734375 L 230.359375 71.953125 C 230.359375 71.402344 230.285156 71.023438 230.140625 70.8125 C 230.003906 70.59375 229.753906 70.484375 229.390625 70.484375 C 228.867188 70.484375 228.226562 70.8125 227.46875 71.46875 L 227.46875 74.734375 C 227.46875 75.058594 227.492188 75.339844 227.546875 75.578125 C 227.578125 75.683594 227.617188 75.75 227.671875 75.78125 C 227.734375 75.8125 227.859375 75.835938 228.046875 75.84375 L 228.453125 75.875 L 228.5625 75.890625 L 228.5625 76.25 L 225.234375 76.25 L 225.234375 75.890625 L 225.34375 75.875 L 225.734375 75.84375 C 225.960938 75.835938 226.109375 75.796875 226.171875 75.734375 C 226.234375 75.671875 226.269531 75.53125 226.28125 75.3125 L 226.3125 74.734375 L 226.3125 71.40625 L 226.28125 70.828125 C 226.269531 70.609375 226.234375 70.46875 226.171875 70.40625 C 226.109375 70.34375 225.960938 70.304688 225.734375 70.28125 L 225.34375 70.25 L 225.234375 70.25 L 225.234375 69.890625 L 227.46875 69.890625 Z M 234.265625 76 C 233.828125 75.804688 233.609375 75.527344 233.609375 75.171875 C 233.609375 74.953125 233.6875 74.761719 233.84375 74.59375 C 234.007812 74.417969 234.300781 74.226562 234.71875 74.015625 C 234.3125 73.839844 233.992188 73.574219 233.765625 73.21875 C 233.535156 72.855469 233.421875 72.445312 233.421875 71.984375 C 233.421875 71.308594 233.640625 70.765625 234.078125 70.359375 C 234.515625 69.953125 235.097656 69.75 235.828125 69.75 C 236.265625 69.75 236.664062 69.828125 237.03125 69.984375 L 239.265625 69.8125 L 238.96875 70.515625 L 237.4375 70.265625 C 237.9375 70.757812 238.1875 71.324219 238.1875 71.96875 C 238.1875 72.625 237.96875 73.167969 237.53125 73.59375 C 237.09375 74.023438 236.535156 74.234375 235.859375 74.234375 C 235.597656 74.234375 235.320312 74.195312 235.03125 74.109375 C 234.757812 74.320312 234.625 74.554688 234.625 74.8125 C 234.625 75.09375 234.867188 75.234375 235.359375 75.234375 L 236.359375 75.234375 C 237.367188 75.234375 238.039062 75.339844 238.375 75.546875 C 238.738281 75.777344 238.921875 76.15625 238.921875 76.6875 C 238.921875 77.289062 238.644531 77.773438 238.09375 78.140625 C 237.539062 78.515625 236.8125 78.703125 235.90625 78.703125 C 235.019531 78.703125 234.3125 78.578125 233.78125 78.328125 C 233.25 78.085938 232.984375 77.757812 232.984375 77.34375 C 232.984375 76.820312 233.410156 76.375 234.265625 76 Z M 234.578125 71.90625 C 234.578125 73.210938 234.988281 73.859375 235.8125 73.859375 C 236.207031 73.859375 236.507812 73.699219 236.71875 73.375 C 236.9375 73.054688 237.046875 72.578125 237.046875 71.953125 C 237.046875 71.359375 236.9375 70.90625 236.71875 70.59375 C 236.507812 70.273438 236.210938 70.109375 235.828125 70.109375 C 235.421875 70.109375 235.109375 70.265625 234.890625 70.578125 C 234.679688 70.890625 234.578125 71.335938 234.578125 71.90625 Z M 234.578125 76.109375 C 234.285156 76.390625 234.140625 76.738281 234.140625 77.15625 C 234.140625 77.519531 234.300781 77.8125 234.625 78.03125 C 234.945312 78.25 235.382812 78.359375 235.9375 78.359375 C 236.5 78.359375 236.945312 78.234375 237.28125 77.984375 C 237.625 77.734375 237.796875 77.394531 237.796875 76.96875 C 237.796875 76.644531 237.707031 76.421875 237.53125 76.296875 C 237.351562 76.171875 237.035156 76.109375 236.578125 76.109375 Z M 241.90625 67 L 241.90625 74.734375 C 241.90625 75.058594 241.929688 75.339844 241.984375 75.578125 C 242.015625 75.683594 242.054688 75.75 242.109375 75.78125 C 242.171875 75.8125 242.296875 75.835938 242.484375 75.84375 L 242.890625 75.875 L 243 75.890625 L 243 76.25 L 239.671875 76.25 L 239.671875 75.890625 L 239.78125 75.875 L 240.171875 75.84375 C 240.398438 75.835938 240.546875 75.796875 240.609375 75.734375 C 240.671875 75.671875 240.707031 75.53125 240.71875 75.3125 L 240.75 74.734375 L 240.75 68.515625 L 240.71875 67.9375 C 240.707031 67.710938 240.671875 67.570312 240.609375 67.515625 C 240.546875 67.453125 240.398438 67.414062 240.171875 67.390625 L 239.78125 67.359375 L 239.671875 67.359375 L 239.671875 67 Z M 245.671875 69.890625 L 245.671875 74.734375 C 245.671875 75.058594 245.695312 75.339844 245.75 75.578125 C 245.78125 75.683594 245.820312 75.75 245.875 75.78125 C 245.9375 75.8125 246.0625 75.835938 246.25 75.84375 L 246.65625 75.875 L 246.765625 75.890625 L 246.765625 76.25 L 243.4375 76.25 L 243.4375 75.890625 L 243.546875 75.875 L 243.9375 75.84375 C 244.164062 75.835938 244.3125 75.796875 244.375 75.734375 C 244.4375 75.671875 244.472656 75.53125 244.484375 75.3125 L 244.515625 74.734375 L 244.515625 71.40625 L 244.484375 70.828125 C 244.472656 70.609375 244.4375 70.46875 244.375 70.40625 C 244.3125 70.34375 244.164062 70.304688 243.9375 70.28125 L 243.546875 70.25 L 243.4375 70.25 L 243.4375 69.890625 Z M 244.515625 68.734375 L 244.515625 67.578125 L 245.671875 67.578125 L 245.671875 68.734375 Z M 247.71875 75.921875 L 247.71875 74.296875 L 248.375 74.296875 L 248.390625 74.421875 L 248.4375 75.03125 C 248.457031 75.34375 248.597656 75.578125 248.859375 75.734375 C 249.203125 75.933594 249.578125 76.03125 249.984375 76.03125 C 250.335938 76.03125 250.625 75.929688 250.84375 75.71875 C 251.070312 75.5 251.1875 75.226562 251.1875 74.890625 C 251.1875 74.601562 251.109375 74.367188 250.953125 74.1875 C 250.804688 74.011719 250.539062 73.851562 250.15625 73.703125 L 249.5625 73.46875 C 248.925781 73.230469 248.460938 72.960938 248.171875 72.65625 C 247.890625 72.34375 247.75 71.96875 247.75 71.53125 C 247.75 71.011719 247.957031 70.585938 248.375 70.25 C 248.789062 69.917969 249.316406 69.75 249.953125 69.75 C 250.566406 69.75 251.207031 69.871094 251.875 70.109375 L 251.875 71.625 L 251.21875 71.625 L 251.21875 71.515625 L 251.171875 70.984375 C 251.148438 70.757812 251.113281 70.601562 251.0625 70.515625 C 251.007812 70.433594 250.898438 70.351562 250.734375 70.265625 C 250.503906 70.164062 250.269531 70.109375 250.03125 70.109375 C 249.6875 70.109375 249.398438 70.21875 249.171875 70.4375 C 248.953125 70.648438 248.84375 70.917969 248.84375 71.25 C 248.84375 71.523438 248.929688 71.742188 249.109375 71.90625 C 249.296875 72.074219 249.660156 72.273438 250.203125 72.5 L 250.75 72.71875 C 251.332031 72.960938 251.738281 73.210938 251.96875 73.46875 C 252.207031 73.730469 252.328125 74.0625 252.328125 74.46875 C 252.328125 75.03125 252.101562 75.496094 251.65625 75.859375 C 251.207031 76.214844 250.625 76.390625 249.90625 76.390625 C 249.132812 76.390625 248.40625 76.234375 247.71875 75.921875 Z M 255.40625 71.078125 C 255.675781 70.664062 256.015625 70.339844 256.421875 70.109375 C 256.835938 69.871094 257.265625 69.75 257.703125 69.75 C 258.253906 69.75 258.679688 69.933594 258.984375 70.296875 C 259.296875 70.652344 259.453125 71.140625 259.453125 71.765625 L 259.453125 74.734375 L 259.5 75.3125 C 259.507812 75.53125 259.546875 75.671875 259.609375 75.734375 C 259.671875 75.796875 259.8125 75.835938 260.03125 75.84375 L 260.4375 75.875 L 260.546875 75.890625 L 260.546875 76.25 L 257.21875 76.25 L 257.21875 75.890625 L 257.328125 75.875 L 257.71875 75.84375 C 257.945312 75.835938 258.09375 75.796875 258.15625 75.734375 C 258.21875 75.671875 258.253906 75.53125 258.265625 75.3125 L 258.296875 74.734375 L 258.296875 71.953125 C 258.296875 71.402344 258.222656 71.023438 258.078125 70.8125 C 257.941406 70.59375 257.691406 70.484375 257.328125 70.484375 C 256.804688 70.484375 256.164062 70.8125 255.40625 71.46875 L 255.40625 74.734375 C 255.40625 75.058594 255.429688 75.339844 255.484375 75.578125 C 255.515625 75.683594 255.554688 75.75 255.609375 75.78125 C 255.671875 75.8125 255.796875 75.835938 255.984375 75.84375 L 256.390625 75.875 L 256.5 75.890625 L 256.5 76.25 L 253.171875 76.25 L 253.171875 75.890625 L 253.28125 75.875 L 253.671875 75.84375 C 253.898438 75.835938 254.046875 75.796875 254.109375 75.734375 C 254.171875 75.671875 254.207031 75.53125 254.21875 75.3125 L 254.25 74.734375 L 254.25 68.515625 L 254.21875 67.9375 C 254.207031 67.710938 254.171875 67.570312 254.109375 67.515625 C 254.046875 67.453125 253.898438 67.414062 253.671875 67.390625 L 253.28125 67.359375 L 253.171875 67.359375 L 253.171875 67 L 255.40625 67 Z M 255.40625 71.078125 "/>
</g>
</svg>
