<?xml version="1.0" encoding="UTF-8"?>
<svg xmlns="http://www.w3.org/2000/svg" xmlns:xlink="http://www.w3.org/1999/xlink" width="400pt" height="300pt" viewBox="0 0 400 300" version="1.1">
<g id="surface2">
<rect x="0" y="0" width="400" height="300" style="fill:rgb(100%,100%,100%);fill-opacity:1;stroke:none;"/>
<path style=" stroke:none;fill-rule:nonzero;fill:rgb(100%,0%,0%);fill-opacity:1;" d="M 52.5 249 C 52.5 252.332031 47.5 252.332031 47.5 249 C 47.5 245.667969 52.5 245.667969 52.5 249 "/>
<path style="fill:none;stroke-width:1;stroke-linecap:round;stroke-linejoin:round;stroke:rgb(100%,0%,0%);stroke-opacity:1;stroke-miterlimit:10;" d="M 99.832031 199.332031 L 149.667969 149.5 L 398.832031 149.5 "/>
<path style=" stroke:none;fill-rule:nonzero;fill:rgb(0%,0%,0%);fill-opacity:1;" d="M 119.1875 172.71875 L 124.65625 178.1875 C 124.882812 178.417969 125.109375 178.601562 125.328125 178.734375 C 125.421875 178.789062 125.492188 178.808594 125.546875 178.796875 C 125.609375 178.777344 125.710938 178.703125 125.859375 178.578125 L 126.171875 178.296875 L 126.265625 178.234375 L 126.515625 178.484375 L 124.15625 180.84375 L 123.90625 180.59375 L 123.96875 180.5 L 124.234375 180.203125 C 124.378906 180.039062 124.453125 179.90625 124.453125 179.8125 C 124.453125 179.71875 124.378906 179.601562 124.234375 179.453125 L 123.84375 179 L 119.453125 174.609375 L 119.015625 174.234375 C 118.851562 174.070312 118.726562 173.992188 118.640625 174 C 118.546875 174 118.417969 174.074219 118.25 174.21875 L 117.953125 174.484375 L 117.875 174.5625 L 117.609375 174.296875 Z "/>
<path style=" stroke:none;fill-rule:nonzero;fill:rgb(0%,0%,0%);fill-opacity:1;" d="M 128.5625 175.1875 C 128.5625 175.730469 128.503906 176.164062 128.390625 176.484375 C 128.285156 176.796875 128.101562 177.085938 127.84375 177.34375 C 127.46875 177.71875 127.03125 177.917969 126.53125 177.9375 C 126.039062 177.949219 125.617188 177.773438 125.25 177.40625 C 124.824219 176.980469 124.648438 176.46875 124.71875 175.875 C 124.75 175.511719 124.882812 175.152344 125.109375 174.796875 C 125.328125 174.433594 125.6875 174 126.1875 173.5 L 126.34375 173.34375 L 125.78125 172.78125 C 125.074219 172.074219 124.453125 171.984375 123.921875 172.515625 C 123.671875 172.765625 123.523438 173.0625 123.46875 173.40625 C 123.460938 173.625 123.578125 173.890625 123.828125 174.203125 L 123.90625 174.28125 L 123.34375 174.84375 L 122.53125 174.03125 C 122.855469 173.210938 123.261719 172.554688 123.75 172.0625 C 124.179688 171.636719 124.625 171.386719 125.09375 171.3125 C 125.386719 171.273438 125.636719 171.292969 125.84375 171.375 C 126.050781 171.460938 126.296875 171.640625 126.578125 171.921875 L 128.578125 173.921875 C 128.941406 174.289062 129.226562 174.511719 129.4375 174.59375 C 129.644531 174.679688 129.828125 174.640625 129.984375 174.484375 C 130.023438 174.445312 130.082031 174.355469 130.15625 174.21875 L 130.484375 174.515625 C 130.347656 174.777344 130.203125 174.984375 130.046875 175.140625 C 129.640625 175.546875 129.144531 175.5625 128.5625 175.1875 Z M 128.296875 175.296875 L 126.59375 173.59375 L 126.40625 173.78125 C 125.929688 174.261719 125.652344 174.734375 125.578125 175.203125 C 125.507812 175.671875 125.648438 176.085938 126 176.4375 C 126.257812 176.699219 126.554688 176.828125 126.890625 176.828125 C 127.222656 176.828125 127.515625 176.703125 127.765625 176.453125 C 128.003906 176.214844 128.179688 175.828125 128.296875 175.296875 Z "/>
<path style=" stroke:none;fill-rule:nonzero;fill:rgb(0%,0%,0%);fill-opacity:1;" d="M 131.71875 173.40625 L 126.1875 167.875 L 125.765625 167.484375 C 125.589844 167.328125 125.460938 167.25 125.375 167.25 C 125.292969 167.25 125.164062 167.328125 124.984375 167.484375 L 124.703125 167.734375 L 124.625 167.8125 L 124.359375 167.546875 L 125.9375 165.96875 L 128.828125 168.859375 C 128.609375 167.828125 128.824219 166.992188 129.46875 166.34375 C 129.980469 165.835938 130.585938 165.625 131.28125 165.71875 C 131.976562 165.8125 132.664062 166.199219 133.34375 166.875 C 134.09375 167.625 134.519531 168.402344 134.625 169.203125 C 134.726562 170.007812 134.5 170.6875 133.9375 171.25 C 133.40625 171.78125 132.75 172.03125 131.96875 172 L 131.90625 172.0625 L 132.390625 172.734375 Z M 131.65625 171.6875 C 132.394531 171.574219 132.96875 171.3125 133.375 170.90625 C 133.738281 170.542969 133.863281 170.109375 133.75 169.609375 C 133.632812 169.109375 133.285156 168.570312 132.703125 167.984375 C 132.066406 167.351562 131.5 166.964844 131 166.828125 C 130.492188 166.683594 130.054688 166.792969 129.6875 167.15625 C 129.460938 167.386719 129.296875 167.683594 129.203125 168.046875 C 129.101562 168.402344 129.070312 168.765625 129.109375 169.140625 Z "/>
<path style=" stroke:none;fill-rule:nonzero;fill:rgb(0%,0%,0%);fill-opacity:1;" d="M 140.859375 164.734375 C 140.535156 165.453125 140.160156 166.027344 139.734375 166.453125 C 139.066406 167.121094 138.304688 167.445312 137.453125 167.421875 C 136.609375 167.390625 135.828125 167.015625 135.109375 166.296875 C 134.433594 165.621094 134.070312 164.882812 134.015625 164.078125 C 133.964844 163.277344 134.226562 162.589844 134.796875 162.015625 C 135.339844 161.476562 135.933594 161.242188 136.578125 161.3125 C 137.222656 161.386719 137.878906 161.757812 138.546875 162.421875 L 138.625 162.5 L 135.875 165.25 C 136.5 165.875 137.050781 166.261719 137.53125 166.40625 C 138.28125 166.617188 138.921875 166.453125 139.453125 165.921875 C 139.960938 165.414062 140.289062 164.875 140.4375 164.3125 Z M 135.640625 164.984375 L 137.5 163.125 L 137.328125 162.921875 C 137.003906 162.601562 136.75 162.375 136.5625 162.25 C 136.375 162.125 136.183594 162.046875 135.984375 162.015625 C 135.601562 161.945312 135.273438 162.042969 135 162.3125 C 134.6875 162.625 134.589844 163.023438 134.703125 163.5 C 134.820312 163.980469 135.132812 164.476562 135.640625 164.984375 Z "/>
<path style=" stroke:none;fill-rule:nonzero;fill:rgb(0%,0%,0%);fill-opacity:1;" d="M 137.46875 155.578125 L 142.765625 161.21875 C 142.984375 161.460938 143.191406 161.648438 143.390625 161.78125 C 143.472656 161.835938 143.546875 161.855469 143.609375 161.84375 C 143.679688 161.824219 143.789062 161.75 143.9375 161.625 L 144.25 161.375 L 144.34375 161.3125 L 144.59375 161.578125 L 142.15625 163.84375 L 141.90625 163.578125 L 141.984375 163.5 L 142.25 163.21875 C 142.414062 163.042969 142.492188 162.914062 142.484375 162.828125 C 142.484375 162.746094 142.414062 162.621094 142.28125 162.453125 L 141.921875 162 L 137.65625 157.46875 L 137.234375 157.078125 C 137.070312 156.914062 136.949219 156.828125 136.875 156.828125 C 136.792969 156.828125 136.65625 156.902344 136.46875 157.046875 L 136.078125 157.359375 L 135.828125 157.09375 Z "/>
<path style=" stroke:none;fill-rule:nonzero;fill:rgb(0%,0%,0%);fill-opacity:1;" d="M 146.125 150.890625 L 145.765625 150.15625 L 151.96875 147.265625 L 152.328125 148 Z M 156.203125 154.59375 C 155.828125 154.929688 155.289062 155.308594 154.59375 155.734375 C 153.90625 156.164062 153.265625 156.515625 152.671875 156.796875 C 151.421875 157.382812 150.332031 157.640625 149.40625 157.578125 C 148.476562 157.515625 147.851562 157.140625 147.53125 156.453125 C 147.207031 155.757812 147.320312 154.652344 147.875 153.140625 L 148.703125 153.34375 C 148.234375 154.605469 148.113281 155.480469 148.34375 155.96875 C 148.570312 156.449219 149.039062 156.699219 149.75 156.71875 C 150.457031 156.742188 151.316406 156.515625 152.328125 156.046875 C 152.898438 155.789062 153.503906 155.449219 154.140625 155.03125 C 154.785156 154.617188 155.300781 154.242188 155.6875 153.90625 Z "/>
<path style=" stroke:none;fill-rule:nonzero;fill:rgb(0%,0%,0%);fill-opacity:1;" d="M 155.421875 147.515625 L 158.234375 147.390625 L 158.140625 145.375 L 159.015625 145.328125 L 159.1875 149.078125 C 160.0625 148.203125 160.78125 147.578125 161.34375 147.203125 C 161.90625 146.820312 162.375 146.621094 162.75 146.609375 C 163.207031 146.589844 163.546875 146.746094 163.765625 147.078125 C 163.984375 147.402344 164.113281 147.992188 164.15625 148.84375 C 164.175781 149.324219 164.15625 149.914062 164.09375 150.609375 C 164.03125 151.328125 164.007812 151.90625 164.03125 152.34375 C 164.050781 152.9375 164.117188 153.328125 164.234375 153.515625 C 164.347656 153.703125 164.492188 153.792969 164.671875 153.78125 C 165.054688 153.773438 165.566406 153.386719 166.203125 152.625 L 166.703125 153.21875 C 166.359375 153.65625 165.976562 154.015625 165.5625 154.296875 C 165.15625 154.570312 164.796875 154.710938 164.484375 154.71875 C 164.023438 154.742188 163.6875 154.585938 163.46875 154.25 C 163.257812 153.90625 163.140625 153.3125 163.109375 152.46875 C 163.085938 152 163.109375 151.414062 163.171875 150.703125 C 163.234375 149.984375 163.253906 149.40625 163.234375 148.96875 C 163.203125 148.375 163.132812 147.984375 163.03125 147.796875 C 162.925781 147.601562 162.78125 147.5 162.59375 147.5 C 162.132812 147.523438 161.015625 148.433594 159.234375 150.234375 L 159.46875 155.578125 L 158.59375 155.625 L 158.390625 151.125 L 156.109375 153.59375 L 155.5 153.015625 L 158.34375 149.953125 L 158.265625 148.1875 L 155.453125 148.3125 Z "/>
<path style=" stroke:none;fill-rule:nonzero;fill:rgb(0%,0%,0%);fill-opacity:1;" d="M 170.28125 147.078125 C 170.1875 148.007812 170.0625 148.960938 169.90625 149.9375 L 169.921875 149.953125 C 170.441406 149.527344 171.070312 149.179688 171.8125 148.90625 C 172.5625 148.625 173.265625 148.480469 173.921875 148.46875 C 176.160156 148.4375 177.296875 149.3125 177.328125 151.09375 C 177.347656 152.148438 176.925781 152.960938 176.0625 153.53125 C 175.207031 154.09375 173.921875 154.382812 172.203125 154.40625 C 171.421875 154.425781 170.59375 154.394531 169.71875 154.3125 L 169.765625 153.5 C 170.765625 153.585938 171.570312 153.621094 172.1875 153.609375 C 173.5625 153.589844 174.59375 153.371094 175.28125 152.953125 C 175.976562 152.527344 176.320312 151.914062 176.3125 151.109375 C 176.289062 149.851562 175.460938 149.234375 173.828125 149.265625 C 173.203125 149.277344 172.5 149.449219 171.71875 149.78125 C 170.9375 150.105469 170.253906 150.515625 169.671875 151.015625 L 168.84375 150.8125 C 169.0625 149.417969 169.238281 148.148438 169.375 147 Z M 170.25 144.96875 C 172.113281 145.179688 173.910156 145.273438 175.640625 145.25 L 175.65625 146.046875 C 173.851562 146.070312 172.023438 145.976562 170.171875 145.765625 Z "/>
<path style=" stroke:none;fill-rule:nonzero;fill:rgb(0%,0%,0%);fill-opacity:1;" d="M 191.140625 147.421875 L 189.015625 147.421875 L 189.015625 151.34375 C 189.597656 151.75 190.304688 152.371094 191.140625 153.203125 L 190.53125 153.8125 C 189.90625 153.179688 189.398438 152.703125 189.015625 152.390625 C 188.953125 153.859375 188.160156 154.59375 186.640625 154.59375 C 185.816406 154.59375 185.179688 154.40625 184.734375 154.03125 C 184.285156 153.65625 184.0625 153.136719 184.0625 152.46875 C 184.0625 151.84375 184.285156 151.367188 184.734375 151.03125 C 185.179688 150.6875 185.816406 150.515625 186.640625 150.515625 C 187.148438 150.515625 187.648438 150.621094 188.140625 150.828125 L 188.140625 147.421875 L 184.375 147.421875 L 184.375 146.625 L 188.140625 146.625 L 188.140625 144.625 L 189.015625 144.625 L 189.015625 146.625 L 191.140625 146.625 Z M 182.625 144.921875 C 182.238281 146.414062 182.046875 148.007812 182.046875 149.703125 C 182.046875 151.402344 182.238281 152.996094 182.625 154.484375 L 181.765625 154.59375 C 181.359375 153.085938 181.15625 151.453125 181.15625 149.703125 C 181.15625 147.953125 181.359375 146.324219 181.765625 144.8125 Z M 188.140625 151.765625 C 187.628906 151.476562 187.117188 151.328125 186.609375 151.328125 C 185.492188 151.328125 184.9375 151.710938 184.9375 152.46875 C 184.9375 152.898438 185.078125 153.226562 185.359375 153.453125 C 185.648438 153.671875 186.066406 153.78125 186.609375 153.78125 C 187.148438 153.78125 187.539062 153.65625 187.78125 153.40625 C 188.019531 153.15625 188.140625 152.75 188.140625 152.1875 Z "/>
<path style=" stroke:none;fill-rule:nonzero;fill:rgb(0%,0%,0%);fill-opacity:1;" d="M 192.625 152.5625 L 193.234375 152.046875 C 194.066406 152.859375 194.875 153.726562 195.65625 154.640625 L 195.03125 155.109375 C 194.394531 154.347656 193.59375 153.5 192.625 152.5625 Z "/>
<path style=" stroke:none;fill-rule:nonzero;fill:rgb(0%,0%,0%);fill-opacity:1;" d="M 213.40625 145.953125 L 214.25 145.65625 C 214.789062 146.667969 215.203125 147.828125 215.484375 149.140625 C 215.773438 150.445312 215.921875 151.792969 215.921875 153.1875 L 215 153.1875 C 215 151.875 214.859375 150.585938 214.578125 149.3125 C 214.304688 148.042969 213.914062 146.921875 213.40625 145.953125 Z M 207.828125 145.84375 C 207.484375 147.085938 207.3125 148.414062 207.3125 149.828125 C 207.3125 150.871094 207.492188 151.746094 207.859375 152.453125 C 208.234375 153.164062 208.609375 153.515625 208.984375 153.515625 C 209.242188 153.515625 209.570312 153.257812 209.96875 152.734375 C 210.375 152.214844 210.757812 151.480469 211.125 150.53125 L 211.953125 150.859375 C 211.554688 151.976562 211.070312 152.851562 210.5 153.484375 C 209.925781 154.109375 209.398438 154.421875 208.921875 154.421875 C 208.296875 154.421875 207.71875 153.976562 207.1875 153.078125 C 206.664062 152.183594 206.40625 151.101562 206.40625 149.828125 C 206.40625 148.320312 206.582031 146.949219 206.9375 145.71875 Z "/>
<path style=" stroke:none;fill-rule:nonzero;fill:rgb(0%,0%,0%);fill-opacity:1;" d="M 225.703125 145.125 C 224.160156 146.355469 222.648438 147.460938 221.171875 148.4375 C 220.703125 148.75 220.398438 148.964844 220.265625 149.078125 C 220.140625 149.195312 220.078125 149.324219 220.078125 149.46875 C 220.078125 149.59375 220.132812 149.714844 220.25 149.828125 C 220.363281 149.933594 220.628906 150.125 221.046875 150.40625 C 222.710938 151.542969 224.390625 152.84375 226.078125 154.3125 L 225.421875 154.953125 C 223.734375 153.507812 222.09375 152.230469 220.5 151.125 C 219.863281 150.6875 219.460938 150.382812 219.296875 150.203125 C 219.128906 150.015625 219.046875 149.773438 219.046875 149.46875 C 219.046875 149.148438 219.128906 148.898438 219.296875 148.71875 C 219.472656 148.53125 219.90625 148.210938 220.59375 147.75 C 222.09375 146.761719 223.597656 145.664062 225.109375 144.453125 Z "/>
<path style=" stroke:none;fill-rule:nonzero;fill:rgb(0%,0%,0%);fill-opacity:1;" d="M 231.0625 146.734375 C 233.414062 146.109375 235.191406 145.796875 236.390625 145.796875 C 239.410156 145.796875 240.921875 147.058594 240.921875 149.578125 C 240.921875 151.070312 240.273438 152.203125 238.984375 152.984375 C 237.703125 153.757812 235.800781 154.140625 233.28125 154.140625 L 233.21875 153.265625 C 237.695312 153.265625 239.9375 152.070312 239.9375 149.671875 C 239.9375 148.664062 239.640625 147.917969 239.046875 147.4375 C 238.460938 146.949219 237.554688 146.703125 236.328125 146.703125 C 235.242188 146.703125 233.554688 147.007812 231.265625 147.609375 Z "/>
<path style=" stroke:none;fill-rule:nonzero;fill:rgb(0%,0%,0%);fill-opacity:1;" d="M 244.15625 147.625 L 244.15625 146.828125 L 246.5 146.828125 C 246.726562 145.839844 246.898438 144.996094 247.015625 144.296875 L 247.890625 144.390625 C 247.773438 145.089844 247.613281 145.902344 247.40625 146.828125 L 248.484375 146.828125 C 248.847656 146.828125 249.125 146.828125 249.3125 146.828125 C 249.507812 146.828125 249.71875 146.851562 249.9375 146.890625 C 250.164062 146.933594 250.328125 146.96875 250.421875 147 C 250.515625 147.03125 250.613281 147.117188 250.71875 147.25 C 250.832031 147.386719 250.898438 147.507812 250.921875 147.609375 C 250.953125 147.714844 250.984375 147.902344 251.015625 148.171875 C 251.054688 148.433594 251.078125 148.679688 251.078125 148.90625 C 251.078125 149.136719 251.078125 149.46875 251.078125 149.90625 C 251.078125 151.386719 250.898438 152.511719 250.546875 153.28125 C 250.191406 154.039062 249.742188 154.421875 249.203125 154.421875 C 248.523438 154.421875 247.710938 154.203125 246.765625 153.765625 L 247.0625 152.96875 C 247.957031 153.355469 248.613281 153.546875 249.03125 153.546875 C 249.320312 153.546875 249.582031 153.226562 249.8125 152.578125 C 250.039062 151.933594 250.15625 151 250.15625 149.78125 C 250.15625 149.523438 250.15625 149.328125 250.15625 149.203125 C 250.15625 149.078125 250.148438 148.929688 250.140625 148.75 C 250.128906 148.5625 250.117188 148.4375 250.109375 148.375 C 250.109375 148.304688 250.085938 148.214844 250.046875 148.109375 C 250.015625 147.996094 249.988281 147.929688 249.96875 147.90625 C 249.957031 147.875 249.910156 147.835938 249.828125 147.78125 C 249.742188 147.71875 249.679688 147.6875 249.640625 147.6875 C 249.597656 147.679688 249.507812 147.667969 249.375 147.65625 C 249.25 147.636719 249.140625 147.625 249.046875 147.625 C 248.960938 147.625 248.828125 147.625 248.640625 147.625 L 247.21875 147.625 C 246.625 150.03125 245.832031 152.324219 244.84375 154.5 L 244.015625 154.1875 C 244.953125 152.117188 245.71875 149.929688 246.3125 147.625 Z M 251.609375 146.046875 L 252.4375 145.75 C 253.332031 147.792969 254.039062 149.824219 254.5625 151.84375 L 253.703125 152.0625 C 253.472656 151.167969 253.160156 150.15625 252.765625 149.03125 C 252.378906 147.90625 251.992188 146.914062 251.609375 146.046875 Z "/>
<path style=" stroke:none;fill-rule:nonzero;fill:rgb(0%,0%,0%);fill-opacity:1;" d="M 262.15625 153.453125 C 263.113281 153.351562 263.859375 152.976562 264.390625 152.328125 C 264.929688 151.671875 265.203125 150.796875 265.203125 149.703125 C 265.203125 148.695312 264.863281 147.855469 264.1875 147.1875 C 263.519531 146.523438 262.660156 146.171875 261.609375 146.140625 C 261.441406 147.695312 261.234375 149.007812 260.984375 150.078125 C 260.734375 151.152344 260.453125 151.964844 260.140625 152.515625 C 259.835938 153.058594 259.535156 153.4375 259.234375 153.65625 C 258.929688 153.875 258.597656 153.984375 258.234375 153.984375 C 257.660156 153.984375 257.128906 153.640625 256.640625 152.953125 C 256.160156 152.257812 255.921875 151.402344 255.921875 150.390625 C 255.921875 148.882812 256.4375 147.65625 257.46875 146.71875 C 258.5 145.773438 259.835938 145.296875 261.484375 145.296875 C 262.804688 145.296875 263.898438 145.714844 264.765625 146.546875 C 265.640625 147.371094 266.078125 148.421875 266.078125 149.703125 C 266.078125 151.039062 265.738281 152.117188 265.0625 152.9375 C 264.382812 153.75 263.472656 154.203125 262.328125 154.296875 Z M 260.703125 146.1875 C 259.515625 146.34375 258.566406 146.804688 257.859375 147.5625 C 257.148438 148.3125 256.796875 149.257812 256.796875 150.390625 C 256.796875 151.140625 256.957031 151.78125 257.28125 152.3125 C 257.601562 152.835938 257.921875 153.09375 258.234375 153.09375 C 258.378906 153.09375 258.53125 153.042969 258.6875 152.9375 C 258.84375 152.835938 259.015625 152.632812 259.203125 152.328125 C 259.398438 152.015625 259.582031 151.617188 259.75 151.125 C 259.914062 150.625 260.082031 149.953125 260.25 149.109375 C 260.425781 148.257812 260.578125 147.28125 260.703125 146.1875 Z "/>
<path style=" stroke:none;fill-rule:nonzero;fill:rgb(0%,0%,0%);fill-opacity:1;" d="M 269.796875 144.71875 L 278.203125 144.71875 L 278.203125 154.921875 L 277.265625 154.921875 L 277.265625 154.15625 L 270.734375 154.15625 L 270.734375 154.921875 L 269.796875 154.921875 Z M 270.734375 148.921875 L 277.265625 148.921875 L 277.265625 145.546875 L 270.734375 145.546875 Z M 270.734375 149.71875 L 270.734375 153.359375 L 277.265625 153.359375 L 277.265625 149.71875 Z "/>
<path style=" stroke:none;fill-rule:nonzero;fill:rgb(0%,0%,0%);fill-opacity:1;" d="M 284.984375 147 L 280.6875 147 L 280.6875 146.171875 L 285.53125 146.171875 L 285.53125 144.203125 L 286.46875 144.203125 L 286.46875 146.171875 L 291.3125 146.171875 L 291.3125 147 L 287.015625 147 C 288.046875 148.992188 289.625 150.917969 291.75 152.78125 L 291.25 153.5625 C 289.257812 151.824219 287.664062 149.859375 286.46875 147.671875 L 286.46875 152.21875 L 289.1875 152.21875 L 289.1875 153.015625 L 286.46875 153.015625 L 286.46875 155.15625 L 285.53125 155.15625 L 285.53125 153.015625 L 282.8125 153.015625 L 282.8125 152.21875 L 285.53125 152.21875 L 285.53125 147.671875 C 284.332031 149.859375 282.738281 151.824219 280.75 153.5625 L 280.25 152.78125 C 282.375 150.917969 283.953125 148.992188 284.984375 147 Z "/>
<path style=" stroke:none;fill-rule:nonzero;fill:rgb(0%,0%,0%);fill-opacity:1;" d="M 294.109375 150.578125 L 294.109375 149.8125 L 297.78125 149.8125 L 297.78125 150.578125 Z M 294.109375 148.875 L 294.109375 148.125 L 297.78125 148.125 L 297.78125 148.875 Z M 293.6875 147.1875 L 293.6875 146.375 L 298.15625 146.375 L 298.15625 147.1875 Z M 294.015625 145.484375 L 294.015625 144.703125 L 297.828125 144.703125 L 297.828125 145.484375 Z M 303.046875 153.609375 L 303.046875 151.390625 L 299.5625 151.390625 L 299.5625 153.609375 Z M 300.53125 148.984375 L 302.71875 148.984375 L 302.71875 147.5 L 300.84375 147.5 Z M 294.890625 153.8125 L 297 153.8125 L 297 152.28125 L 294.890625 152.28125 Z M 294.890625 154.578125 L 294.890625 155.109375 L 294.015625 155.109375 L 294.015625 151.515625 L 297.84375 151.515625 L 297.84375 154.578125 Z M 299.5625 154.359375 L 299.5625 154.875 L 298.65625 154.875 L 298.65625 150.609375 L 303.953125 150.609375 L 303.953125 154.875 L 303.046875 154.875 L 303.046875 154.359375 Z M 301 146.765625 L 303.640625 146.765625 L 303.640625 148.984375 L 304.515625 148.984375 L 304.515625 149.765625 L 298.1875 149.765625 L 298.1875 148.984375 L 299.578125 148.984375 L 299.90625 147.5 L 298.703125 147.5 L 298.703125 146.765625 L 300.0625 146.765625 L 300.3125 145.5 L 298.421875 145.5 L 298.421875 144.71875 L 304.203125 144.71875 L 304.203125 145.5 L 301.265625 145.5 Z "/>
<path style=" stroke:none;fill-rule:nonzero;fill:rgb(0%,0%,0%);fill-opacity:1;" d="M 313.15625 153.453125 C 314.113281 153.351562 314.859375 152.976562 315.390625 152.328125 C 315.929688 151.671875 316.203125 150.796875 316.203125 149.703125 C 316.203125 148.695312 315.863281 147.855469 315.1875 147.1875 C 314.519531 146.523438 313.660156 146.171875 312.609375 146.140625 C 312.441406 147.695312 312.234375 149.007812 311.984375 150.078125 C 311.734375 151.152344 311.453125 151.964844 311.140625 152.515625 C 310.835938 153.058594 310.535156 153.4375 310.234375 153.65625 C 309.929688 153.875 309.597656 153.984375 309.234375 153.984375 C 308.660156 153.984375 308.128906 153.640625 307.640625 152.953125 C 307.160156 152.257812 306.921875 151.402344 306.921875 150.390625 C 306.921875 148.882812 307.4375 147.65625 308.46875 146.71875 C 309.5 145.773438 310.835938 145.296875 312.484375 145.296875 C 313.804688 145.296875 314.898438 145.714844 315.765625 146.546875 C 316.640625 147.371094 317.078125 148.421875 317.078125 149.703125 C 317.078125 151.039062 316.738281 152.117188 316.0625 152.9375 C 315.382812 153.75 314.472656 154.203125 313.328125 154.296875 Z M 311.703125 146.1875 C 310.515625 146.34375 309.566406 146.804688 308.859375 147.5625 C 308.148438 148.3125 307.796875 149.257812 307.796875 150.390625 C 307.796875 151.140625 307.957031 151.78125 308.28125 152.3125 C 308.601562 152.835938 308.921875 153.09375 309.234375 153.09375 C 309.378906 153.09375 309.53125 153.042969 309.6875 152.9375 C 309.84375 152.835938 310.015625 152.632812 310.203125 152.328125 C 310.398438 152.015625 310.582031 151.617188 310.75 151.125 C 310.914062 150.625 311.082031 149.953125 311.25 149.109375 C 311.425781 148.257812 311.578125 147.28125 311.703125 146.1875 Z "/>
<path style=" stroke:none;fill-rule:nonzero;fill:rgb(0%,0%,0%);fill-opacity:1;" d="M 320.671875 147.421875 L 321.5625 147.171875 C 322 148.433594 322.53125 149.476562 323.15625 150.296875 C 323.40625 150.632812 323.679688 150.945312 323.984375 151.234375 C 324.597656 150.632812 325.09375 149.96875 325.46875 149.25 C 325.863281 148.5 326.222656 147.636719 326.546875 146.65625 L 318.75 146.65625 L 318.75 145.8125 L 323.515625 145.8125 L 323.515625 144.046875 L 324.484375 144.046875 L 324.484375 145.8125 L 329.25 145.8125 L 329.25 146.65625 L 327.546875 146.65625 C 327.171875 147.8125 326.765625 148.804688 326.328125 149.625 C 325.867188 150.46875 325.316406 151.203125 324.671875 151.828125 C 324.929688 152.027344 325.210938 152.214844 325.515625 152.390625 C 326.453125 152.953125 327.6875 153.46875 329.21875 153.9375 L 328.953125 154.75 C 327.316406 154.269531 325.992188 153.726562 324.984375 153.109375 C 324.628906 152.890625 324.296875 152.664062 323.984375 152.421875 C 323.460938 152.851562 322.898438 153.214844 322.296875 153.515625 C 321.453125 153.953125 320.367188 154.363281 319.046875 154.75 L 318.78125 153.9375 C 319.976562 153.585938 320.984375 153.199219 321.796875 152.78125 C 322.347656 152.5 322.847656 152.183594 323.296875 151.828125 C 322.972656 151.515625 322.679688 151.183594 322.421875 150.828125 C 321.753906 149.964844 321.171875 148.828125 320.671875 147.421875 Z "/>
<path style=" stroke:none;fill-rule:nonzero;fill:rgb(0%,0%,0%);fill-opacity:1;" d="M 341.0625 146.109375 L 332.9375 146.109375 L 332.9375 148.09375 L 332.046875 148.09375 L 332.046875 145.34375 L 336.515625 145.34375 L 336.515625 144.046875 L 337.484375 144.046875 L 337.484375 145.34375 L 341.953125 145.34375 L 341.953125 148.09375 L 341.0625 148.09375 Z M 333.734375 148 L 333.734375 147.203125 L 340.296875 147.203125 L 340.296875 148 C 339.503906 148.804688 338.617188 149.515625 337.640625 150.140625 L 337.640625 150.5625 L 342.4375 150.5625 L 342.4375 151.390625 L 337.640625 151.390625 L 337.640625 153.625 C 337.640625 153.898438 337.632812 154.066406 337.625 154.140625 C 337.613281 154.253906 337.585938 154.367188 337.546875 154.484375 C 337.515625 154.578125 337.46875 154.65625 337.40625 154.71875 C 337.363281 154.757812 337.28125 154.800781 337.15625 154.84375 C 337.03125 154.875 336.898438 154.894531 336.765625 154.90625 C 336.660156 154.914062 336.46875 154.921875 336.1875 154.921875 C 335.914062 154.921875 335.289062 154.898438 334.3125 154.859375 L 334.28125 154.03125 C 335.21875 154.070312 335.820312 154.09375 336.09375 154.09375 C 336.382812 154.09375 336.550781 154.066406 336.59375 154.015625 C 336.644531 153.976562 336.671875 153.808594 336.671875 153.515625 L 336.671875 151.390625 L 331.5625 151.390625 L 331.5625 150.5625 L 336.671875 150.5625 L 336.671875 149.4375 L 337.140625 149.4375 C 337.816406 149.011719 338.453125 148.53125 339.046875 148 Z "/>
<path style=" stroke:none;fill-rule:nonzero;fill:rgb(0%,0%,0%);fill-opacity:1;" d="M 343.984375 145.640625 C 347.171875 145.640625 350.410156 145.558594 353.703125 145.390625 L 353.75 146.234375 C 351.726562 146.421875 350.175781 146.90625 349.09375 147.6875 C 348.007812 148.46875 347.46875 149.429688 347.46875 150.5625 C 347.46875 151.511719 347.773438 152.261719 348.390625 152.8125 C 349.015625 153.355469 349.847656 153.625 350.890625 153.625 C 351.359375 153.625 351.859375 153.585938 352.390625 153.5 L 352.484375 154.34375 C 351.921875 154.4375 351.375 154.484375 350.84375 154.484375 C 349.53125 154.484375 348.476562 154.132812 347.6875 153.4375 C 346.894531 152.742188 346.5 151.808594 346.5 150.640625 C 346.5 149.703125 346.804688 148.867188 347.421875 148.125 C 348.046875 147.375 348.929688 146.789062 350.078125 146.359375 L 350.0625 146.328125 C 347.988281 146.421875 345.960938 146.46875 343.984375 146.46875 Z M 350.71875 148.171875 L 351.421875 147.765625 C 351.929688 148.507812 352.359375 149.148438 352.703125 149.6875 L 351.984375 150.078125 C 351.535156 149.351562 351.113281 148.714844 350.71875 148.171875 Z M 353.671875 149.734375 C 353.296875 149.109375 352.859375 148.453125 352.359375 147.765625 L 353.078125 147.359375 C 353.578125 148.070312 354.015625 148.730469 354.390625 149.34375 Z "/>
<path style=" stroke:none;fill-rule:nonzero;fill:rgb(0%,0%,0%);fill-opacity:1;" d="M 354.875 145.828125 L 360.953125 145.828125 L 360.953125 144.265625 L 361.84375 144.265625 L 361.84375 145.828125 L 365.125 145.828125 L 365.125 146.578125 L 361.84375 146.578125 L 361.84375 149.265625 C 361.988281 149.703125 362.0625 150.199219 362.0625 150.75 C 362.0625 151.9375 361.738281 152.84375 361.09375 153.46875 C 360.457031 154.09375 359.429688 154.503906 358.015625 154.703125 L 357.875 153.875 C 359 153.730469 359.828125 153.445312 360.359375 153.015625 C 360.890625 152.589844 361.175781 152 361.21875 151.25 L 361.21875 151.09375 L 361.1875 151.09375 C 360.820312 151.636719 360.210938 151.90625 359.359375 151.90625 C 358.703125 151.90625 358.148438 151.6875 357.703125 151.25 C 357.253906 150.8125 357.03125 150.273438 357.03125 149.625 C 357.03125 148.96875 357.253906 148.429688 357.703125 148 C 358.148438 147.5625 358.703125 147.34375 359.359375 147.34375 C 359.972656 147.34375 360.5 147.523438 360.9375 147.875 L 360.953125 147.875 L 360.953125 146.578125 L 354.875 146.578125 Z M 357.9375 149.625 C 357.9375 150.042969 358.085938 150.398438 358.390625 150.6875 C 358.691406 150.96875 359.0625 151.109375 359.5 151.109375 C 359.945312 151.109375 360.316406 150.96875 360.609375 150.6875 C 360.910156 150.398438 361.0625 150.042969 361.0625 149.625 C 361.0625 149.210938 360.910156 148.859375 360.609375 148.578125 C 360.316406 148.289062 359.945312 148.140625 359.5 148.140625 C 359.0625 148.140625 358.691406 148.289062 358.390625 148.578125 C 358.085938 148.871094 357.9375 149.21875 357.9375 149.625 Z "/>
<path style=" stroke:none;fill-rule:evenodd;fill:rgb(0%,100%,0%);fill-opacity:1;" d="M 53 255.5 L 53 242.5 L 304 242.5 L 304 255.5 Z "/>
<path style=" stroke:none;fill-rule:evenodd;fill:rgb(0%,0%,0%);fill-opacity:1;" d="M 57.453125 244.75 L 57.453125 252.484375 C 57.453125 252.808594 57.476562 253.089844 57.53125 253.328125 C 57.5625 253.433594 57.601562 253.5 57.65625 253.53125 C 57.71875 253.5625 57.84375 253.585938 58.03125 253.59375 L 58.4375 253.625 L 58.546875 253.640625 L 58.546875 254 L 55.21875 254 L 55.21875 253.640625 L 55.328125 253.625 L 55.71875 253.59375 C 55.945312 253.585938 56.09375 253.546875 56.15625 253.484375 C 56.21875 253.421875 56.253906 253.28125 56.265625 253.0625 L 56.296875 252.484375 L 56.296875 246.265625 L 56.265625 245.6875 C 56.253906 245.460938 56.21875 245.320312 56.15625 245.265625 C 56.09375 245.203125 55.945312 245.164062 55.71875 245.140625 L 55.328125 245.109375 L 55.21875 245.109375 L 55.21875 244.75 Z M 63.277344 253.125 C 62.890625 253.5 62.546875 253.765625 62.246094 253.921875 C 61.941406 254.066406 61.605469 254.140625 61.230469 254.140625 C 60.699219 254.140625 60.25 253.976562 59.886719 253.640625 C 59.53125 253.296875 59.355469 252.867188 59.355469 252.34375 C 59.355469 251.742188 59.589844 251.25 60.058594 250.875 C 60.347656 250.648438 60.699219 250.484375 61.105469 250.390625 C 61.511719 250.289062 62.066406 250.234375 62.777344 250.234375 L 63.011719 250.234375 L 63.011719 249.453125 C 63.011719 248.445312 62.628906 247.9375 61.871094 247.9375 C 61.515625 247.9375 61.199219 248.046875 60.917969 248.265625 C 60.761719 248.402344 60.660156 248.671875 60.621094 249.078125 L 60.621094 249.1875 L 59.824219 249.1875 L 59.824219 248.03125 C 60.636719 247.679688 61.386719 247.5 62.074219 247.5 C 62.675781 247.5 63.171875 247.640625 63.558594 247.921875 C 63.785156 248.101562 63.941406 248.292969 64.027344 248.5 C 64.121094 248.710938 64.167969 249.011719 64.167969 249.40625 L 64.167969 252.234375 C 64.167969 252.746094 64.207031 253.105469 64.292969 253.3125 C 64.386719 253.523438 64.542969 253.625 64.761719 253.625 C 64.832031 253.625 64.9375 253.605469 65.074219 253.5625 L 65.105469 254 C 64.824219 254.09375 64.574219 254.140625 64.355469 254.140625 C 63.78125 254.140625 63.421875 253.804688 63.277344 253.125 Z M 63.011719 253 L 63.011719 250.59375 L 62.746094 250.59375 C 62.058594 250.59375 61.519531 250.734375 61.136719 251.015625 C 60.761719 251.296875 60.574219 251.6875 60.574219 252.1875 C 60.574219 252.554688 60.6875 252.855469 60.917969 253.09375 C 61.15625 253.335938 61.453125 253.453125 61.808594 253.453125 C 62.152344 253.453125 62.550781 253.304688 63.011719 253 Z M 66.214844 254.078125 L 66.214844 246.265625 L 66.183594 245.6875 C 66.160156 245.460938 66.121094 245.320312 66.058594 245.265625 C 66.003906 245.203125 65.863281 245.164062 65.636719 245.140625 L 65.246094 245.109375 L 65.136719 245.109375 L 65.136719 244.75 L 67.371094 244.75 L 67.371094 248.828125 C 67.941406 247.945312 68.6875 247.5 69.605469 247.5 C 70.324219 247.5 70.894531 247.78125 71.324219 248.34375 C 71.75 248.90625 71.964844 249.667969 71.964844 250.625 C 71.964844 251.6875 71.71875 252.542969 71.230469 253.1875 C 70.738281 253.824219 70.09375 254.140625 69.292969 254.140625 C 68.542969 254.140625 67.902344 253.855469 67.371094 253.28125 L 67.292969 253.28125 L 67.152344 254.078125 Z M 67.371094 252.828125 C 67.984375 253.277344 68.574219 253.5 69.136719 253.5 C 69.65625 253.5 70.050781 253.28125 70.324219 252.84375 C 70.59375 252.40625 70.730469 251.777344 70.730469 250.953125 C 70.730469 250.046875 70.597656 249.371094 70.339844 248.921875 C 70.089844 248.464844 69.703125 248.234375 69.183594 248.234375 C 68.859375 248.234375 68.535156 248.328125 68.214844 248.515625 C 67.890625 248.695312 67.609375 248.933594 67.371094 249.234375 Z M 78.363281 253.71875 C 77.621094 254 76.949219 254.140625 76.347656 254.140625 C 75.410156 254.140625 74.648438 253.828125 74.066406 253.203125 C 73.480469 252.578125 73.191406 251.761719 73.191406 250.75 C 73.191406 249.792969 73.449219 249.011719 73.972656 248.40625 C 74.503906 247.804688 75.175781 247.5 75.988281 247.5 C 76.757812 247.5 77.347656 247.757812 77.753906 248.265625 C 78.160156 248.777344 78.363281 249.507812 78.363281 250.453125 L 78.363281 250.5625 L 74.472656 250.5625 C 74.472656 251.4375 74.589844 252.09375 74.832031 252.53125 C 75.207031 253.21875 75.773438 253.5625 76.535156 253.5625 C 77.242188 253.5625 77.851562 253.417969 78.363281 253.125 Z M 74.488281 250.203125 L 77.128906 250.203125 L 77.144531 249.9375 C 77.144531 249.480469 77.121094 249.140625 77.082031 248.921875 C 77.039062 248.703125 76.957031 248.511719 76.832031 248.34375 C 76.613281 248.023438 76.308594 247.859375 75.925781 247.859375 C 75.488281 247.859375 75.136719 248.074219 74.878906 248.5 C 74.617188 248.917969 74.488281 249.484375 74.488281 250.203125 Z M 81.421875 244.75 L 81.421875 252.484375 C 81.421875 252.808594 81.445312 253.089844 81.5 253.328125 C 81.53125 253.433594 81.570312 253.5 81.625 253.53125 C 81.6875 253.5625 81.8125 253.585938 82 253.59375 L 82.40625 253.625 L 82.515625 253.640625 L 82.515625 254 L 79.1875 254 L 79.1875 253.640625 L 79.296875 253.625 L 79.6875 253.59375 C 79.914062 253.585938 80.0625 253.546875 80.125 253.484375 C 80.1875 253.421875 80.222656 253.28125 80.234375 253.0625 L 80.265625 252.484375 L 80.265625 246.265625 L 80.234375 245.6875 C 80.222656 245.460938 80.1875 245.320312 80.125 245.265625 C 80.0625 245.203125 79.914062 245.164062 79.6875 245.140625 L 79.296875 245.109375 L 79.1875 245.109375 L 79.1875 244.75 Z M 89.023438 246.28125 L 89.023438 245.46875 L 95.867188 245.46875 L 95.867188 246.28125 Z M 96.601562 253.90625 C 96.109375 254.050781 95.460938 254.171875 94.648438 254.265625 C 93.84375 254.367188 93.117188 254.421875 92.460938 254.421875 C 91.074219 254.421875 89.976562 254.191406 89.164062 253.734375 C 88.351562 253.277344 87.945312 252.667969 87.945312 251.90625 C 87.945312 251.136719 88.515625 250.1875 89.664062 249.0625 L 90.335938 249.59375 C 89.367188 250.542969 88.882812 251.289062 88.882812 251.828125 C 88.882812 252.359375 89.199219 252.789062 89.835938 253.109375 C 90.46875 253.421875 91.34375 253.578125 92.460938 253.578125 C 93.085938 253.578125 93.777344 253.53125 94.539062 253.4375 C 95.296875 253.335938 95.921875 253.210938 96.414062 253.0625 Z M 99.132812 246.546875 L 101.945312 246.546875 L 101.945312 244.515625 L 102.820312 244.515625 L 102.820312 248.28125 C 103.734375 247.449219 104.480469 246.855469 105.054688 246.5 C 105.636719 246.136719 106.121094 245.953125 106.507812 245.953125 C 106.964844 245.953125 107.292969 246.125 107.492188 246.46875 C 107.699219 246.8125 107.804688 247.414062 107.804688 248.265625 C 107.804688 248.746094 107.757812 249.328125 107.664062 250.015625 C 107.570312 250.734375 107.523438 251.3125 107.523438 251.75 C 107.523438 252.34375 107.574219 252.742188 107.679688 252.9375 C 107.78125 253.125 107.921875 253.21875 108.101562 253.21875 C 108.484375 253.21875 109.011719 252.855469 109.679688 252.125 L 110.164062 252.75 C 109.796875 253.167969 109.402344 253.507812 108.976562 253.765625 C 108.558594 254.015625 108.195312 254.140625 107.882812 254.140625 C 107.421875 254.140625 107.09375 253.96875 106.898438 253.625 C 106.699219 253.273438 106.601562 252.671875 106.601562 251.828125 C 106.601562 251.359375 106.648438 250.777344 106.742188 250.078125 C 106.835938 249.359375 106.882812 248.78125 106.882812 248.34375 C 106.882812 247.75 106.828125 247.355469 106.726562 247.15625 C 106.632812 246.960938 106.492188 246.859375 106.304688 246.859375 C 105.835938 246.859375 104.671875 247.71875 102.820312 249.4375 L 102.820312 254.78125 L 101.945312 254.78125 L 101.945312 250.28125 L 99.554688 252.640625 L 98.976562 252.046875 L 101.945312 249.109375 L 101.945312 247.34375 L 99.132812 247.34375 Z M 113.773438 247.140625 C 113.667969 248.058594 113.527344 249.007812 113.351562 249.984375 L 113.367188 250 C 113.898438 249.585938 114.539062 249.246094 115.289062 248.984375 C 116.039062 248.726562 116.742188 248.59375 117.398438 248.59375 C 119.636719 248.59375 120.757812 249.484375 120.757812 251.265625 C 120.757812 252.320312 120.320312 253.121094 119.445312 253.671875 C 118.578125 254.222656 117.289062 254.5 115.570312 254.5 C 114.789062 254.5 113.964844 254.453125 113.101562 254.359375 L 113.148438 253.546875 C 114.148438 253.652344 114.953125 253.703125 115.570312 253.703125 C 116.945312 253.703125 117.980469 253.5 118.679688 253.09375 C 119.386719 252.679688 119.742188 252.070312 119.742188 251.265625 C 119.742188 250.007812 118.921875 249.375 117.289062 249.375 C 116.664062 249.375 115.953125 249.539062 115.164062 249.859375 C 114.382812 250.171875 113.695312 250.574219 113.101562 251.0625 L 112.273438 250.84375 C 112.523438 249.449219 112.726562 248.183594 112.882812 247.046875 Z M 113.789062 245.03125 C 115.640625 245.273438 117.433594 245.390625 119.164062 245.390625 L 119.164062 246.1875 C 117.359375 246.1875 115.539062 246.070312 113.695312 245.828125 Z M 133.523438 247.421875 L 131.398438 247.421875 L 131.398438 251.34375 C 131.980469 251.75 132.6875 252.371094 133.523438 253.203125 L 132.914062 253.8125 C 132.289062 253.179688 131.78125 252.703125 131.398438 252.390625 C 131.335938 253.859375 130.542969 254.59375 129.023438 254.59375 C 128.199219 254.59375 127.5625 254.40625 127.117188 254.03125 C 126.667969 253.65625 126.445312 253.136719 126.445312 252.46875 C 126.445312 251.84375 126.667969 251.367188 127.117188 251.03125 C 127.5625 250.6875 128.199219 250.515625 129.023438 250.515625 C 129.53125 250.515625 130.03125 250.621094 130.523438 250.828125 L 130.523438 247.421875 L 126.757812 247.421875 L 126.757812 246.625 L 130.523438 246.625 L 130.523438 244.625 L 131.398438 244.625 L 131.398438 246.625 L 133.523438 246.625 Z M 125.007812 244.921875 C 124.621094 246.414062 124.429688 248.007812 124.429688 249.703125 C 124.429688 251.402344 124.621094 252.996094 125.007812 254.484375 L 124.148438 254.59375 C 123.742188 253.085938 123.539062 251.453125 123.539062 249.703125 C 123.539062 247.953125 123.742188 246.324219 124.148438 244.8125 Z M 130.523438 251.765625 C 130.011719 251.476562 129.5 251.328125 128.992188 251.328125 C 127.875 251.328125 127.320312 251.710938 127.320312 252.46875 C 127.320312 252.898438 127.460938 253.226562 127.742188 253.453125 C 128.03125 253.671875 128.449219 253.78125 128.992188 253.78125 C 129.53125 253.78125 129.921875 253.65625 130.164062 253.40625 C 130.402344 253.15625 130.523438 252.75 130.523438 252.1875 Z M 135.007812 252.5625 L 135.617188 252.046875 C 136.449219 252.859375 137.257812 253.726562 138.039062 254.640625 L 137.414062 255.109375 C 136.777344 254.347656 135.976562 253.5 135.007812 252.5625 Z M 154.789062 245.953125 L 155.632812 245.65625 C 156.171875 246.667969 156.585938 247.828125 156.867188 249.140625 C 157.15625 250.445312 157.304688 251.792969 157.304688 253.1875 L 156.382812 253.1875 C 156.382812 251.875 156.242188 250.585938 155.960938 249.3125 C 155.6875 248.042969 155.296875 246.921875 154.789062 245.953125 Z M 149.210938 245.84375 C 148.867188 247.085938 148.695312 248.414062 148.695312 249.828125 C 148.695312 250.871094 148.875 251.746094 149.242188 252.453125 C 149.617188 253.164062 149.992188 253.515625 150.367188 253.515625 C 150.625 253.515625 150.953125 253.257812 151.351562 252.734375 C 151.757812 252.214844 152.140625 251.480469 152.507812 250.53125 L 153.335938 250.859375 C 152.9375 251.976562 152.453125 252.851562 151.882812 253.484375 C 151.308594 254.109375 150.78125 254.421875 150.304688 254.421875 C 149.679688 254.421875 149.101562 253.976562 148.570312 253.078125 C 148.046875 252.183594 147.789062 251.101562 147.789062 249.828125 C 147.789062 248.320312 147.964844 246.949219 148.320312 245.71875 Z M 167.085938 245.125 C 165.542969 246.355469 164.03125 247.460938 162.554688 248.4375 C 162.085938 248.75 161.78125 248.964844 161.648438 249.078125 C 161.523438 249.195312 161.460938 249.324219 161.460938 249.46875 C 161.460938 249.59375 161.515625 249.714844 161.632812 249.828125 C 161.746094 249.933594 162.011719 250.125 162.429688 250.40625 C 164.09375 251.542969 165.773438 252.84375 167.460938 254.3125 L 166.804688 254.953125 C 165.117188 253.507812 163.476562 252.230469 161.882812 251.125 C 161.246094 250.6875 160.84375 250.382812 160.679688 250.203125 C 160.511719 250.015625 160.429688 249.773438 160.429688 249.46875 C 160.429688 249.148438 160.511719 248.898438 160.679688 248.71875 C 160.855469 248.53125 161.289062 248.210938 161.976562 247.75 C 163.476562 246.761719 164.980469 245.664062 166.492188 244.453125 Z M 171.445312 246.734375 C 173.796875 246.109375 175.574219 245.796875 176.773438 245.796875 C 179.792969 245.796875 181.304688 247.058594 181.304688 249.578125 C 181.304688 251.070312 180.65625 252.203125 179.367188 252.984375 C 178.085938 253.757812 176.183594 254.140625 173.664062 254.140625 L 173.601562 253.265625 C 178.078125 253.265625 180.320312 252.070312 180.320312 249.671875 C 180.320312 248.664062 180.023438 247.917969 179.429688 247.4375 C 178.84375 246.949219 177.9375 246.703125 176.710938 246.703125 C 175.625 246.703125 173.9375 247.007812 171.648438 247.609375 Z M 183.539062 247.625 L 183.539062 246.828125 L 185.882812 246.828125 C 186.109375 245.839844 186.28125 244.996094 186.398438 244.296875 L 187.273438 244.390625 C 187.15625 245.089844 186.996094 245.902344 186.789062 246.828125 L 187.867188 246.828125 C 188.230469 246.828125 188.507812 246.828125 188.695312 246.828125 C 188.890625 246.828125 189.101562 246.851562 189.320312 246.890625 C 189.546875 246.933594 189.710938 246.96875 189.804688 247 C 189.898438 247.03125 189.996094 247.117188 190.101562 247.25 C 190.214844 247.386719 190.28125 247.507812 190.304688 247.609375 C 190.335938 247.714844 190.367188 247.902344 190.398438 248.171875 C 190.4375 248.433594 190.460938 248.679688 190.460938 248.90625 C 190.460938 249.136719 190.460938 249.46875 190.460938 249.90625 C 190.460938 251.386719 190.28125 252.511719 189.929688 253.28125 C 189.574219 254.039062 189.125 254.421875 188.585938 254.421875 C 187.90625 254.421875 187.09375 254.203125 186.148438 253.765625 L 186.445312 252.96875 C 187.339844 253.355469 187.996094 253.546875 188.414062 253.546875 C 188.703125 253.546875 188.964844 253.226562 189.195312 252.578125 C 189.421875 251.933594 189.539062 251 189.539062 249.78125 C 189.539062 249.523438 189.539062 249.328125 189.539062 249.203125 C 189.539062 249.078125 189.53125 248.929688 189.523438 248.75 C 189.511719 248.5625 189.5 248.4375 189.492188 248.375 C 189.492188 248.304688 189.46875 248.214844 189.429688 248.109375 C 189.398438 247.996094 189.371094 247.929688 189.351562 247.90625 C 189.339844 247.875 189.292969 247.835938 189.210938 247.78125 C 189.125 247.71875 189.0625 247.6875 189.023438 247.6875 C 188.980469 247.679688 188.890625 247.667969 188.757812 247.65625 C 188.632812 247.636719 188.523438 247.625 188.429688 247.625 C 188.34375 247.625 188.210938 247.625 188.023438 247.625 L 186.601562 247.625 C 186.007812 250.03125 185.214844 252.324219 184.226562 254.5 L 183.398438 254.1875 C 184.335938 252.117188 185.101562 249.929688 185.695312 247.625 Z M 190.992188 246.046875 L 191.820312 245.75 C 192.714844 247.792969 193.421875 249.824219 193.945312 251.84375 L 193.085938 252.0625 C 192.855469 251.167969 192.542969 250.15625 192.148438 249.03125 C 191.761719 247.90625 191.375 246.914062 190.992188 246.046875 Z M 201.539062 253.453125 C 202.496094 253.351562 203.242188 252.976562 203.773438 252.328125 C 204.3125 251.671875 204.585938 250.796875 204.585938 249.703125 C 204.585938 248.695312 204.246094 247.855469 203.570312 247.1875 C 202.902344 246.523438 202.042969 246.171875 200.992188 246.140625 C 200.824219 247.695312 200.617188 249.007812 200.367188 250.078125 C 200.117188 251.152344 199.835938 251.964844 199.523438 252.515625 C 199.21875 253.058594 198.917969 253.4375 198.617188 253.65625 C 198.3125 253.875 197.980469 253.984375 197.617188 253.984375 C 197.042969 253.984375 196.511719 253.640625 196.023438 252.953125 C 195.542969 252.257812 195.304688 251.402344 195.304688 250.390625 C 195.304688 248.882812 195.820312 247.65625 196.851562 246.71875 C 197.882812 245.773438 199.21875 245.296875 200.867188 245.296875 C 202.1875 245.296875 203.28125 245.714844 204.148438 246.546875 C 205.023438 247.371094 205.460938 248.421875 205.460938 249.703125 C 205.460938 251.039062 205.121094 252.117188 204.445312 252.9375 C 203.765625 253.75 202.855469 254.203125 201.710938 254.296875 Z M 200.085938 246.1875 C 198.898438 246.34375 197.949219 246.804688 197.242188 247.5625 C 196.53125 248.3125 196.179688 249.257812 196.179688 250.390625 C 196.179688 251.140625 196.339844 251.78125 196.664062 252.3125 C 196.984375 252.835938 197.304688 253.09375 197.617188 253.09375 C 197.761719 253.09375 197.914062 253.042969 198.070312 252.9375 C 198.226562 252.835938 198.398438 252.632812 198.585938 252.328125 C 198.78125 252.015625 198.964844 251.617188 199.132812 251.125 C 199.296875 250.625 199.464844 249.953125 199.632812 249.109375 C 199.808594 248.257812 199.960938 247.28125 200.085938 246.1875 Z M 208.179688 244.71875 L 216.585938 244.71875 L 216.585938 254.921875 L 215.648438 254.921875 L 215.648438 254.15625 L 209.117188 254.15625 L 209.117188 254.921875 L 208.179688 254.921875 Z M 209.117188 248.921875 L 215.648438 248.921875 L 215.648438 245.546875 L 209.117188 245.546875 Z M 209.117188 249.71875 L 209.117188 253.359375 L 215.648438 253.359375 L 215.648438 249.71875 Z M 223.367188 247 L 219.070312 247 L 219.070312 246.171875 L 223.914062 246.171875 L 223.914062 244.203125 L 224.851562 244.203125 L 224.851562 246.171875 L 229.695312 246.171875 L 229.695312 247 L 225.398438 247 C 226.429688 248.992188 228.007812 250.917969 230.132812 252.78125 L 229.632812 253.5625 C 227.640625 251.824219 226.046875 249.859375 224.851562 247.671875 L 224.851562 252.21875 L 227.570312 252.21875 L 227.570312 253.015625 L 224.851562 253.015625 L 224.851562 255.15625 L 223.914062 255.15625 L 223.914062 253.015625 L 221.195312 253.015625 L 221.195312 252.21875 L 223.914062 252.21875 L 223.914062 247.671875 C 222.714844 249.859375 221.121094 251.824219 219.132812 253.5625 L 218.632812 252.78125 C 220.757812 250.917969 222.335938 248.992188 223.367188 247 Z M 231.492188 250.578125 L 231.492188 249.8125 L 235.164062 249.8125 L 235.164062 250.578125 Z M 231.492188 248.875 L 231.492188 248.125 L 235.164062 248.125 L 235.164062 248.875 Z M 231.070312 247.1875 L 231.070312 246.375 L 235.539062 246.375 L 235.539062 247.1875 Z M 231.398438 245.484375 L 231.398438 244.703125 L 235.210938 244.703125 L 235.210938 245.484375 Z M 240.429688 253.609375 L 240.429688 251.390625 L 236.945312 251.390625 L 236.945312 253.609375 Z M 237.914062 248.984375 L 240.101562 248.984375 L 240.101562 247.5 L 238.226562 247.5 Z M 232.273438 253.8125 L 234.382812 253.8125 L 234.382812 252.28125 L 232.273438 252.28125 Z M 232.273438 254.578125 L 232.273438 255.109375 L 231.398438 255.109375 L 231.398438 251.515625 L 235.226562 251.515625 L 235.226562 254.578125 Z M 236.945312 254.359375 L 236.945312 254.875 L 236.039062 254.875 L 236.039062 250.609375 L 241.335938 250.609375 L 241.335938 254.875 L 240.429688 254.875 L 240.429688 254.359375 Z M 238.382812 246.765625 L 241.023438 246.765625 L 241.023438 248.984375 L 241.898438 248.984375 L 241.898438 249.765625 L 235.570312 249.765625 L 235.570312 248.984375 L 236.960938 248.984375 L 237.289062 247.5 L 236.085938 247.5 L 236.085938 246.765625 L 237.445312 246.765625 L 237.695312 245.5 L 235.804688 245.5 L 235.804688 244.71875 L 241.585938 244.71875 L 241.585938 245.5 L 238.648438 245.5 Z M 249.539062 253.453125 C 250.496094 253.351562 251.242188 252.976562 251.773438 252.328125 C 252.3125 251.671875 252.585938 250.796875 252.585938 249.703125 C 252.585938 248.695312 252.246094 247.855469 251.570312 247.1875 C 250.902344 246.523438 250.042969 246.171875 248.992188 246.140625 C 248.824219 247.695312 248.617188 249.007812 248.367188 250.078125 C 248.117188 251.152344 247.835938 251.964844 247.523438 252.515625 C 247.21875 253.058594 246.917969 253.4375 246.617188 253.65625 C 246.3125 253.875 245.980469 253.984375 245.617188 253.984375 C 245.042969 253.984375 244.511719 253.640625 244.023438 252.953125 C 243.542969 252.257812 243.304688 251.402344 243.304688 250.390625 C 243.304688 248.882812 243.820312 247.65625 244.851562 246.71875 C 245.882812 245.773438 247.21875 245.296875 248.867188 245.296875 C 250.1875 245.296875 251.28125 245.714844 252.148438 246.546875 C 253.023438 247.371094 253.460938 248.421875 253.460938 249.703125 C 253.460938 251.039062 253.121094 252.117188 252.445312 252.9375 C 251.765625 253.75 250.855469 254.203125 249.710938 254.296875 Z M 248.085938 246.1875 C 246.898438 246.34375 245.949219 246.804688 245.242188 247.5625 C 244.53125 248.3125 244.179688 249.257812 244.179688 250.390625 C 244.179688 251.140625 244.339844 251.78125 244.664062 252.3125 C 244.984375 252.835938 245.304688 253.09375 245.617188 253.09375 C 245.761719 253.09375 245.914062 253.042969 246.070312 252.9375 C 246.226562 252.835938 246.398438 252.632812 246.585938 252.328125 C 246.78125 252.015625 246.964844 251.617188 247.132812 251.125 C 247.296875 250.625 247.464844 249.953125 247.632812 249.109375 C 247.808594 248.257812 247.960938 247.28125 248.085938 246.1875 Z M 257.054688 247.421875 L 257.945312 247.171875 C 258.382812 248.433594 258.914062 249.476562 259.539062 250.296875 C 259.789062 250.632812 260.0625 250.945312 260.367188 251.234375 C 260.980469 250.632812 261.476562 249.96875 261.851562 249.25 C 262.246094 248.5 262.605469 247.636719 262.929688 246.65625 L 255.132812 246.65625 L 255.132812 245.8125 L 259.898438 245.8125 L 259.898438 244.046875 L 260.867188 244.046875 L 260.867188 245.8125 L 265.632812 245.8125 L 265.632812 246.65625 L 263.929688 246.65625 C 263.554688 247.8125 263.148438 248.804688 262.710938 249.625 C 262.25 250.46875 261.699219 251.203125 261.054688 251.828125 C 261.3125 252.027344 261.59375 252.214844 261.898438 252.390625 C 262.835938 252.953125 264.070312 253.46875 265.601562 253.9375 L 265.335938 254.75 C 263.699219 254.269531 262.375 253.726562 261.367188 253.109375 C 261.011719 252.890625 260.679688 252.664062 260.367188 252.421875 C 259.84375 252.851562 259.28125 253.214844 258.679688 253.515625 C 257.835938 253.953125 256.75 254.363281 255.429688 254.75 L 255.164062 253.9375 C 256.359375 253.585938 257.367188 253.199219 258.179688 252.78125 C 258.730469 252.5 259.230469 252.183594 259.679688 251.828125 C 259.355469 251.515625 259.0625 251.183594 258.804688 250.828125 C 258.136719 249.964844 257.554688 248.828125 257.054688 247.421875 Z M 276.445312 246.109375 L 268.320312 246.109375 L 268.320312 248.09375 L 267.429688 248.09375 L 267.429688 245.34375 L 271.898438 245.34375 L 271.898438 244.046875 L 272.867188 244.046875 L 272.867188 245.34375 L 277.335938 245.34375 L 277.335938 248.09375 L 276.445312 248.09375 Z M 269.117188 248 L 269.117188 247.203125 L 275.679688 247.203125 L 275.679688 248 C 274.886719 248.804688 274 249.515625 273.023438 250.140625 L 273.023438 250.5625 L 277.820312 250.5625 L 277.820312 251.390625 L 273.023438 251.390625 L 273.023438 253.625 C 273.023438 253.898438 273.015625 254.066406 273.007812 254.140625 C 272.996094 254.253906 272.96875 254.367188 272.929688 254.484375 C 272.898438 254.578125 272.851562 254.65625 272.789062 254.71875 C 272.746094 254.757812 272.664062 254.800781 272.539062 254.84375 C 272.414062 254.875 272.28125 254.894531 272.148438 254.90625 C 272.042969 254.914062 271.851562 254.921875 271.570312 254.921875 C 271.296875 254.921875 270.671875 254.898438 269.695312 254.859375 L 269.664062 254.03125 C 270.601562 254.070312 271.203125 254.09375 271.476562 254.09375 C 271.765625 254.09375 271.933594 254.066406 271.976562 254.015625 C 272.027344 253.976562 272.054688 253.808594 272.054688 253.515625 L 272.054688 251.390625 L 266.945312 251.390625 L 266.945312 250.5625 L 272.054688 250.5625 L 272.054688 249.4375 L 272.523438 249.4375 C 273.199219 249.011719 273.835938 248.53125 274.429688 248 Z M 279.367188 245.640625 C 282.554688 245.640625 285.792969 245.558594 289.085938 245.390625 L 289.132812 246.234375 C 287.109375 246.421875 285.558594 246.90625 284.476562 247.6875 C 283.390625 248.46875 282.851562 249.429688 282.851562 250.5625 C 282.851562 251.511719 283.15625 252.261719 283.773438 252.8125 C 284.398438 253.355469 285.230469 253.625 286.273438 253.625 C 286.742188 253.625 287.242188 253.585938 287.773438 253.5 L 287.867188 254.34375 C 287.304688 254.4375 286.757812 254.484375 286.226562 254.484375 C 284.914062 254.484375 283.859375 254.132812 283.070312 253.4375 C 282.277344 252.742188 281.882812 251.808594 281.882812 250.640625 C 281.882812 249.703125 282.1875 248.867188 282.804688 248.125 C 283.429688 247.375 284.3125 246.789062 285.460938 246.359375 L 285.445312 246.328125 C 283.371094 246.421875 281.34375 246.46875 279.367188 246.46875 Z M 286.101562 248.171875 L 286.804688 247.765625 C 287.3125 248.507812 287.742188 249.148438 288.085938 249.6875 L 287.367188 250.078125 C 286.917969 249.351562 286.496094 248.714844 286.101562 248.171875 Z M 289.054688 249.734375 C 288.679688 249.109375 288.242188 248.453125 287.742188 247.765625 L 288.460938 247.359375 C 288.960938 248.070312 289.398438 248.730469 289.773438 249.34375 Z M 291.257812 245.828125 L 297.335938 245.828125 L 297.335938 244.265625 L 298.226562 244.265625 L 298.226562 245.828125 L 301.507812 245.828125 L 301.507812 246.578125 L 298.226562 246.578125 L 298.226562 249.265625 C 298.371094 249.703125 298.445312 250.199219 298.445312 250.75 C 298.445312 251.9375 298.121094 252.84375 297.476562 253.46875 C 296.839844 254.09375 295.8125 254.503906 294.398438 254.703125 L 294.257812 253.875 C 295.382812 253.730469 296.210938 253.445312 296.742188 253.015625 C 297.273438 252.589844 297.558594 252 297.601562 251.25 L 297.601562 251.09375 L 297.570312 251.09375 C 297.203125 251.636719 296.59375 251.90625 295.742188 251.90625 C 295.085938 251.90625 294.53125 251.6875 294.085938 251.25 C 293.636719 250.8125 293.414062 250.273438 293.414062 249.625 C 293.414062 248.96875 293.636719 248.429688 294.085938 248 C 294.53125 247.5625 295.085938 247.34375 295.742188 247.34375 C 296.355469 247.34375 296.882812 247.523438 297.320312 247.875 L 297.335938 247.875 L 297.335938 246.578125 L 291.257812 246.578125 Z M 294.320312 249.625 C 294.320312 250.042969 294.46875 250.398438 294.773438 250.6875 C 295.074219 250.96875 295.445312 251.109375 295.882812 251.109375 C 296.328125 251.109375 296.699219 250.96875 296.992188 250.6875 C 297.292969 250.398438 297.445312 250.042969 297.445312 249.625 C 297.445312 249.210938 297.292969 248.859375 296.992188 248.578125 C 296.699219 248.289062 296.328125 248.140625 295.882812 248.140625 C 295.445312 248.140625 295.074219 248.289062 294.773438 248.578125 C 294.46875 248.871094 294.320312 249.21875 294.320312 249.625 Z "/>
</g>
</svg>
