<?xml version="1.0" encoding="UTF-8"?>
<svg xmlns="http://www.w3.org/2000/svg" xmlns:xlink="http://www.w3.org/1999/xlink" width="300pt" height="100pt" viewBox="0 0 300 100" version="1.1">
<g id="surface2">
<rect x="0" y="0" width="300" height="100" style="fill:rgb(100%,100%,100%);fill-opacity:1;stroke:none;"/>
<path style=" stroke:none;fill-rule:nonzero;fill:rgb(100%,0%,0%);fill-opacity:1;" d="M 77.5 74 C 77.5 77.332031 72.5 77.332031 72.5 74 C 72.5 70.667969 77.5 70.667969 77.5 74 "/>
<path style="fill:none;stroke-width:1;stroke-linecap:round;stroke-linejoin:round;stroke:rgb(100%,0%,0%);stroke-opacity:1;stroke-miterlimit:10;" d="M 100 49.5 L 124.75 24.75 L 248.5 24.75 "/>
<path style=" stroke:none;fill-rule:nonzero;fill:rgb(0%,0%,0%);fill-opacity:1;" d="M 100.1875 42.71875 L 105.65625 48.1875 C 105.882812 48.417969 106.109375 48.601562 106.328125 48.734375 C 106.417969 48.789062 106.492188 48.808594 106.546875 48.796875 C 106.605469 48.777344 106.710938 48.703125 106.859375 48.578125 L 107.171875 48.296875 L 107.265625 48.234375 L 107.515625 48.484375 L 105.15625 50.84375 L 104.90625 50.59375 L 104.96875 50.5 L 105.234375 50.203125 C 105.378906 50.039062 105.453125 49.90625 105.453125 49.8125 C 105.453125 49.722656 105.378906 49.601562 105.234375 49.453125 L 104.84375 49 L 100.453125 44.609375 L 100.015625 44.234375 C 99.851562 44.070312 99.726562 43.992188 99.640625 44 C 99.550781 44 99.417969 44.074219 99.25 44.21875 L 98.953125 44.484375 L 98.875 44.5625 L 98.609375 44.296875 Z M 100.1875 42.71875 "/>
<path style=" stroke:none;fill-rule:nonzero;fill:rgb(0%,0%,0%);fill-opacity:1;" d="M 110.5625 44.1875 C 110.5625 44.730469 110.503906 45.164062 110.390625 45.484375 C 110.285156 45.796875 110.101562 46.085938 109.84375 46.34375 C 109.46875 46.71875 109.027344 46.917969 108.53125 46.9375 C 108.039062 46.949219 107.617188 46.773438 107.25 46.40625 C 106.824219 45.980469 106.648438 45.46875 106.71875 44.875 C 106.75 44.511719 106.882812 44.152344 107.109375 43.796875 C 107.328125 43.433594 107.691406 43 108.1875 42.5 L 108.34375 42.34375 L 107.78125 41.78125 C 107.074219 41.074219 106.453125 40.988281 105.921875 41.515625 C 105.675781 41.765625 105.523438 42.066406 105.46875 42.40625 C 105.460938 42.625 105.582031 42.894531 105.828125 43.203125 L 105.90625 43.28125 L 105.34375 43.84375 L 104.53125 43.03125 C 104.855469 42.210938 105.261719 41.554688 105.75 41.0625 C 106.179688 40.636719 106.628906 40.386719 107.09375 40.3125 C 107.386719 40.273438 107.636719 40.292969 107.84375 40.375 C 108.050781 40.460938 108.296875 40.644531 108.578125 40.921875 L 110.578125 42.921875 C 110.941406 43.289062 111.226562 43.511719 111.4375 43.59375 C 111.644531 43.679688 111.828125 43.640625 111.984375 43.484375 C 112.023438 43.445312 112.082031 43.355469 112.15625 43.21875 L 112.484375 43.515625 C 112.347656 43.777344 112.199219 43.988281 112.046875 44.140625 C 111.640625 44.546875 111.144531 44.5625 110.5625 44.1875 Z M 110.296875 44.296875 L 108.59375 42.59375 L 108.40625 42.78125 C 107.929688 43.261719 107.652344 43.738281 107.578125 44.203125 C 107.507812 44.671875 107.648438 45.085938 108 45.4375 C 108.257812 45.699219 108.554688 45.828125 108.890625 45.828125 C 109.222656 45.828125 109.515625 45.703125 109.765625 45.453125 C 110.003906 45.214844 110.179688 44.828125 110.296875 44.296875 Z M 110.296875 44.296875 "/>
<path style=" stroke:none;fill-rule:nonzero;fill:rgb(0%,0%,0%);fill-opacity:1;" d="M 112.71875 43.40625 L 107.1875 37.875 L 106.765625 37.484375 C 106.589844 37.332031 106.460938 37.25 106.375 37.25 C 106.292969 37.25 106.164062 37.332031 105.984375 37.484375 L 105.703125 37.734375 L 105.625 37.8125 L 105.359375 37.546875 L 106.9375 35.96875 L 109.828125 38.859375 C 109.613281 37.832031 109.824219 36.992188 110.46875 36.34375 C 110.980469 35.835938 111.585938 35.628906 112.28125 35.71875 C 112.976562 35.8125 113.664062 36.199219 114.34375 36.875 C 115.089844 37.625 115.519531 38.402344 115.625 39.203125 C 115.726562 40.007812 115.496094 40.691406 114.9375 41.25 C 114.40625 41.78125 113.746094 42.03125 112.96875 42 L 112.90625 42.0625 L 113.390625 42.734375 Z M 112.65625 41.6875 C 113.394531 41.574219 113.96875 41.3125 114.375 40.90625 C 114.738281 40.542969 114.863281 40.109375 114.75 39.609375 C 114.632812 39.113281 114.285156 38.570312 113.703125 37.984375 C 113.066406 37.351562 112.496094 36.964844 112 36.828125 C 111.492188 36.683594 111.054688 36.792969 110.6875 37.15625 C 110.460938 37.386719 110.296875 37.683594 110.203125 38.046875 C 110.101562 38.402344 110.070312 38.769531 110.109375 39.140625 Z M 112.65625 41.6875 "/>
<path style=" stroke:none;fill-rule:nonzero;fill:rgb(0%,0%,0%);fill-opacity:1;" d="M 121.875 33.75 C 121.550781 34.46875 121.175781 35.042969 120.75 35.46875 C 120.082031 36.125 119.320312 36.4375 118.46875 36.40625 C 117.617188 36.378906 116.828125 36 116.109375 35.28125 C 115.445312 34.605469 115.085938 33.871094 115.03125 33.078125 C 114.980469 32.277344 115.242188 31.589844 115.8125 31.015625 C 116.367188 30.476562 116.964844 30.242188 117.609375 30.3125 C 118.253906 30.386719 118.910156 30.761719 119.578125 31.4375 L 119.65625 31.515625 L 116.890625 34.25 C 117.507812 34.875 118.054688 35.257812 118.546875 35.390625 C 119.285156 35.621094 119.925781 35.464844 120.46875 34.921875 C 120.964844 34.425781 121.300781 33.890625 121.46875 33.328125 Z M 116.65625 33.984375 L 118.53125 32.125 L 118.359375 31.9375 C 118.035156 31.605469 117.78125 31.375 117.59375 31.25 C 117.410156 31.128906 117.214844 31.046875 117.015625 31.015625 C 116.632812 30.933594 116.296875 31.035156 116.015625 31.3125 C 115.714844 31.617188 115.621094 32.011719 115.734375 32.5 C 115.839844 32.980469 116.148438 33.476562 116.65625 33.984375 Z M 116.65625 33.984375 "/>
<path style=" stroke:none;fill-rule:nonzero;fill:rgb(0%,0%,0%);fill-opacity:1;" d="M 119.015625 24.296875 L 123.921875 30.265625 C 124.128906 30.515625 124.332031 30.722656 124.53125 30.875 C 124.613281 30.9375 124.6875 30.964844 124.75 30.953125 C 124.820312 30.933594 124.929688 30.871094 125.078125 30.765625 L 125.421875 30.515625 L 125.5 30.46875 L 125.734375 30.75 L 123.171875 32.859375 L 122.9375 32.578125 L 123.015625 32.5 L 123.296875 32.234375 C 123.472656 32.082031 123.5625 31.960938 123.5625 31.875 C 123.570312 31.785156 123.511719 31.652344 123.390625 31.484375 L 123.03125 31 L 119.09375 26.203125 L 118.703125 25.78125 C 118.550781 25.605469 118.429688 25.515625 118.34375 25.515625 C 118.261719 25.515625 118.125 25.582031 117.9375 25.703125 L 117.609375 25.9375 L 117.53125 26 L 117.296875 25.71875 Z M 119.015625 24.296875 "/>
<path style=" stroke:none;fill-rule:nonzero;fill:rgb(0%,0%,0%);fill-opacity:1;" d="M 129.453125 22.21875 L 129.4375 21.40625 L 136.28125 21.25 L 136.296875 22.0625 Z M 137.21875 29.671875 C 136.726562 29.828125 136.082031 29.964844 135.28125 30.078125 C 134.476562 30.191406 133.746094 30.257812 133.09375 30.28125 C 131.707031 30.308594 130.601562 30.105469 129.78125 29.671875 C 128.957031 29.238281 128.535156 28.636719 128.515625 27.875 C 128.492188 27.105469 129.046875 26.140625 130.171875 24.984375 L 130.84375 25.5 C 129.90625 26.46875 129.441406 27.226562 129.453125 27.765625 C 129.460938 28.296875 129.785156 28.714844 130.421875 29.015625 C 131.066406 29.320312 131.945312 29.460938 133.0625 29.4375 C 133.683594 29.417969 134.378906 29.351562 135.140625 29.234375 C 135.898438 29.121094 136.523438 28.984375 137.015625 28.828125 Z M 137.21875 29.671875 "/>
<path style=" stroke:none;fill-rule:nonzero;fill:rgb(0%,0%,0%);fill-opacity:1;" d="M 139.6875 21.546875 L 142.5 21.515625 L 142.484375 19.484375 L 143.359375 19.484375 L 143.390625 23.25 C 144.304688 22.410156 145.050781 21.804688 145.625 21.4375 C 146.195312 21.074219 146.675781 20.890625 147.0625 20.890625 C 147.519531 20.890625 147.851562 21.066406 148.0625 21.40625 C 148.269531 21.742188 148.375 22.335938 148.375 23.1875 C 148.382812 23.667969 148.339844 24.257812 148.25 24.953125 C 148.164062 25.671875 148.125 26.253906 148.125 26.6875 C 148.125 27.28125 148.175781 27.675781 148.28125 27.859375 C 148.394531 28.046875 148.539062 28.140625 148.71875 28.140625 C 149.101562 28.140625 149.625 27.777344 150.28125 27.046875 L 150.765625 27.65625 C 150.410156 28.085938 150.019531 28.429688 149.59375 28.6875 C 149.175781 28.9375 148.808594 29.0625 148.5 29.0625 C 148.039062 29.070312 147.710938 28.90625 147.515625 28.5625 C 147.316406 28.210938 147.210938 27.609375 147.203125 26.765625 C 147.203125 26.300781 147.242188 25.714844 147.328125 25.015625 C 147.417969 24.300781 147.460938 23.71875 147.453125 23.28125 C 147.453125 22.691406 147.398438 22.292969 147.296875 22.09375 C 147.203125 21.898438 147.058594 21.796875 146.875 21.796875 C 146.40625 21.808594 145.246094 22.679688 143.40625 24.40625 L 143.4375 29.75 L 142.5625 29.75 L 142.53125 25.25 L 140.15625 27.625 L 139.578125 27.046875 L 142.53125 24.078125 L 142.515625 22.3125 L 139.703125 22.34375 Z M 139.6875 21.546875 "/>
<path style=" stroke:none;fill-rule:nonzero;fill:rgb(0%,0%,0%);fill-opacity:1;" d="M 154.390625 22.140625 C 154.285156 23.058594 154.144531 24.007812 153.96875 24.984375 L 153.984375 25 C 154.511719 24.585938 155.15625 24.246094 155.90625 23.984375 C 156.652344 23.726562 157.359375 23.59375 158.015625 23.59375 C 160.253906 23.59375 161.375 24.488281 161.375 26.265625 C 161.375 27.320312 160.933594 28.121094 160.0625 28.671875 C 159.195312 29.222656 157.902344 29.5 156.1875 29.5 C 155.40625 29.5 154.582031 29.449219 153.71875 29.359375 L 153.765625 28.546875 C 154.761719 28.652344 155.570312 28.703125 156.1875 28.703125 C 157.558594 28.703125 158.597656 28.5 159.296875 28.09375 C 160.003906 27.679688 160.359375 27.070312 160.359375 26.265625 C 160.359375 25.007812 159.539062 24.375 157.90625 24.375 C 157.28125 24.375 156.570312 24.539062 155.78125 24.859375 C 155 25.171875 154.308594 25.574219 153.71875 26.0625 L 152.890625 25.84375 C 153.136719 24.449219 153.34375 23.183594 153.5 22.046875 Z M 154.40625 20.03125 C 156.257812 20.273438 158.050781 20.390625 159.78125 20.390625 L 159.78125 21.1875 C 157.976562 21.1875 156.152344 21.070312 154.3125 20.828125 Z M 154.40625 20.03125 "/>
<path style=" stroke:none;fill-rule:nonzero;fill:rgb(0%,0%,0%);fill-opacity:1;" d="M 174.140625 22.421875 L 172.015625 22.421875 L 172.015625 26.34375 C 172.597656 26.75 173.304688 27.371094 174.140625 28.203125 L 173.53125 28.8125 C 172.90625 28.179688 172.398438 27.703125 172.015625 27.390625 C 171.953125 28.859375 171.160156 29.59375 169.640625 29.59375 C 168.816406 29.59375 168.179688 29.402344 167.734375 29.03125 C 167.285156 28.660156 167.0625 28.136719 167.0625 27.46875 C 167.0625 26.847656 167.285156 26.367188 167.734375 26.03125 C 168.179688 25.691406 168.816406 25.515625 169.640625 25.515625 C 170.148438 25.515625 170.648438 25.621094 171.140625 25.828125 L 171.140625 22.421875 L 167.375 22.421875 L 167.375 21.625 L 171.140625 21.625 L 171.140625 19.625 L 172.015625 19.625 L 172.015625 21.625 L 174.140625 21.625 Z M 165.625 19.921875 C 165.238281 21.414062 165.046875 23.007812 165.046875 24.703125 C 165.046875 26.402344 165.238281 27.996094 165.625 29.484375 L 164.765625 29.59375 C 164.359375 28.085938 164.15625 26.453125 164.15625 24.703125 C 164.15625 22.957031 164.359375 21.324219 164.765625 19.8125 Z M 171.140625 26.765625 C 170.628906 26.476562 170.117188 26.328125 169.609375 26.328125 C 168.492188 26.328125 167.9375 26.710938 167.9375 27.46875 C 167.9375 27.898438 168.078125 28.226562 168.359375 28.453125 C 168.648438 28.671875 169.066406 28.78125 169.609375 28.78125 C 170.148438 28.78125 170.539062 28.65625 170.78125 28.40625 C 171.019531 28.160156 171.140625 27.75 171.140625 27.1875 Z M 171.140625 26.765625 "/>
<path style=" stroke:none;fill-rule:nonzero;fill:rgb(0%,0%,0%);fill-opacity:1;" d="M 176.625 27.5625 L 177.234375 27.046875 C 178.066406 27.859375 178.875 28.726562 179.65625 29.640625 L 179.03125 30.109375 C 178.394531 29.347656 177.589844 28.5 176.625 27.5625 Z M 176.625 27.5625 "/>
<path style=" stroke:none;fill-rule:nonzero;fill:rgb(0%,0%,0%);fill-opacity:1;" d="M 196.40625 20.953125 L 197.25 20.65625 C 197.789062 21.667969 198.203125 22.832031 198.484375 24.140625 C 198.773438 25.445312 198.921875 26.792969 198.921875 28.1875 L 198 28.1875 C 198 26.878906 197.855469 25.585938 197.578125 24.3125 C 197.304688 23.042969 196.914062 21.921875 196.40625 20.953125 Z M 190.828125 20.84375 C 190.484375 22.085938 190.3125 23.414062 190.3125 24.828125 C 190.3125 25.871094 190.492188 26.746094 190.859375 27.453125 C 191.230469 28.164062 191.609375 28.515625 191.984375 28.515625 C 192.242188 28.515625 192.570312 28.257812 192.96875 27.734375 C 193.371094 27.214844 193.757812 26.480469 194.125 25.53125 L 194.953125 25.859375 C 194.554688 26.976562 194.070312 27.851562 193.5 28.484375 C 192.925781 29.105469 192.398438 29.421875 191.921875 29.421875 C 191.296875 29.421875 190.714844 28.976562 190.1875 28.078125 C 189.664062 27.183594 189.40625 26.101562 189.40625 24.828125 C 189.40625 23.320312 189.582031 21.949219 189.9375 20.71875 Z M 190.828125 20.84375 "/>
<path style=" stroke:none;fill-rule:nonzero;fill:rgb(0%,0%,0%);fill-opacity:1;" d="M 205.75 28.71875 C 205.007812 29 204.335938 29.140625 203.734375 29.140625 C 202.796875 29.140625 202.035156 28.828125 201.453125 28.203125 C 200.867188 27.582031 200.578125 26.761719 200.578125 25.75 C 200.578125 24.792969 200.835938 24.011719 201.359375 23.40625 C 201.886719 22.804688 202.5625 22.5 203.375 22.5 C 204.144531 22.5 204.734375 22.757812 205.140625 23.265625 C 205.542969 23.777344 205.75 24.507812 205.75 25.453125 L 205.75 25.5625 L 201.859375 25.5625 C 201.859375 26.4375 201.976562 27.097656 202.21875 27.53125 C 202.589844 28.21875 203.160156 28.5625 203.921875 28.5625 C 204.628906 28.5625 205.238281 28.417969 205.75 28.125 Z M 201.875 25.203125 L 204.515625 25.203125 L 204.53125 24.9375 C 204.53125 24.480469 204.507812 24.140625 204.46875 23.921875 C 204.425781 23.707031 204.339844 23.511719 204.21875 23.34375 C 204 23.023438 203.695312 22.859375 203.3125 22.859375 C 202.875 22.859375 202.523438 23.074219 202.265625 23.5 C 202.003906 23.917969 201.875 24.488281 201.875 25.203125 Z M 201.875 25.203125 "/>
<path style=" stroke:none;fill-rule:nonzero;fill:rgb(0%,0%,0%);fill-opacity:1;" d="M 210.453125 23.828125 C 210.722656 23.414062 211.0625 23.089844 211.46875 22.859375 C 211.882812 22.621094 212.3125 22.5 212.75 22.5 C 213.300781 22.5 213.726562 22.683594 214.03125 23.046875 C 214.339844 23.402344 214.5 23.894531 214.5 24.515625 L 214.5 27.484375 L 214.546875 28.0625 C 214.554688 28.28125 214.59375 28.425781 214.65625 28.484375 C 214.714844 28.546875 214.859375 28.585938 215.078125 28.59375 L 215.484375 28.625 L 215.59375 28.640625 L 215.59375 29 L 212.265625 29 L 212.265625 28.640625 L 212.375 28.625 L 212.765625 28.59375 C 212.992188 28.585938 213.140625 28.546875 213.203125 28.484375 C 213.261719 28.425781 213.300781 28.28125 213.3125 28.0625 L 213.34375 27.484375 L 213.34375 24.703125 C 213.34375 24.152344 213.269531 23.773438 213.125 23.5625 C 212.988281 23.347656 212.738281 23.234375 212.375 23.234375 C 211.851562 23.234375 211.210938 23.566406 210.453125 24.21875 L 210.453125 27.484375 C 210.453125 27.808594 210.476562 28.089844 210.53125 28.328125 C 210.558594 28.433594 210.601562 28.503906 210.65625 28.53125 C 210.714844 28.5625 210.84375 28.585938 211.03125 28.59375 L 211.4375 28.625 L 211.546875 28.640625 L 211.546875 29 L 208.21875 29 L 208.21875 28.640625 L 208.328125 28.625 L 208.71875 28.59375 C 208.945312 28.585938 209.09375 28.546875 209.15625 28.484375 C 209.214844 28.425781 209.253906 28.28125 209.265625 28.0625 L 209.296875 27.484375 L 209.296875 24.15625 L 209.265625 23.578125 C 209.253906 23.363281 209.214844 23.21875 209.15625 23.15625 C 209.09375 23.097656 208.945312 23.054688 208.71875 23.03125 L 208.328125 23 L 208.21875 23 L 208.21875 22.640625 L 210.453125 22.640625 Z M 210.453125 23.828125 "/>
<path style=" stroke:none;fill-rule:nonzero;fill:rgb(0%,0%,0%);fill-opacity:1;" d="M 217.65625 28.75 C 217.21875 28.554688 217 28.277344 217 27.921875 C 217 27.707031 217.078125 27.511719 217.234375 27.34375 C 217.398438 27.167969 217.691406 26.976562 218.109375 26.765625 C 217.703125 26.589844 217.382812 26.324219 217.15625 25.96875 C 216.925781 25.605469 216.8125 25.195312 216.8125 24.734375 C 216.8125 24.058594 217.03125 23.515625 217.46875 23.109375 C 217.902344 22.707031 218.488281 22.5 219.21875 22.5 C 219.652344 22.5 220.054688 22.582031 220.421875 22.734375 L 222.65625 22.5625 L 222.359375 23.265625 L 220.828125 23.015625 C 221.324219 23.507812 221.578125 24.074219 221.578125 24.71875 C 221.578125 25.375 221.355469 25.917969 220.921875 26.34375 C 220.484375 26.773438 219.925781 26.984375 219.25 26.984375 C 218.988281 26.984375 218.710938 26.945312 218.421875 26.859375 C 218.148438 27.070312 218.015625 27.304688 218.015625 27.5625 C 218.015625 27.84375 218.257812 27.984375 218.75 27.984375 L 219.75 27.984375 C 220.757812 27.984375 221.429688 28.089844 221.765625 28.296875 C 222.128906 28.527344 222.3125 28.910156 222.3125 29.4375 C 222.3125 30.039062 222.035156 30.523438 221.484375 30.890625 C 220.929688 31.261719 220.199219 31.453125 219.296875 31.453125 C 218.410156 31.453125 217.699219 31.324219 217.171875 31.078125 C 216.640625 30.835938 216.375 30.507812 216.375 30.09375 C 216.375 29.570312 216.800781 29.121094 217.65625 28.75 Z M 217.96875 24.65625 C 217.96875 25.960938 218.378906 26.609375 219.203125 26.609375 C 219.597656 26.609375 219.898438 26.449219 220.109375 26.125 C 220.324219 25.804688 220.4375 25.328125 220.4375 24.703125 C 220.4375 24.113281 220.324219 23.65625 220.109375 23.34375 C 219.898438 23.023438 219.601562 22.859375 219.21875 22.859375 C 218.8125 22.859375 218.496094 23.019531 218.28125 23.328125 C 218.070312 23.640625 217.96875 24.085938 217.96875 24.65625 Z M 217.96875 28.859375 C 217.675781 29.136719 217.53125 29.488281 217.53125 29.90625 C 217.53125 30.269531 217.691406 30.5625 218.015625 30.78125 C 218.335938 30.996094 218.773438 31.109375 219.328125 31.109375 C 219.886719 31.109375 220.335938 30.980469 220.671875 30.734375 C 221.011719 30.484375 221.1875 30.144531 221.1875 29.71875 C 221.1875 29.394531 221.097656 29.167969 220.921875 29.046875 C 220.742188 28.925781 220.425781 28.859375 219.96875 28.859375 Z M 217.96875 28.859375 "/>
<path style=" stroke:none;fill-rule:nonzero;fill:rgb(0%,0%,0%);fill-opacity:1;" d="M 225.453125 19.75 L 225.453125 27.484375 C 225.453125 27.808594 225.476562 28.089844 225.53125 28.328125 C 225.558594 28.433594 225.601562 28.503906 225.65625 28.53125 C 225.714844 28.5625 225.84375 28.585938 226.03125 28.59375 L 226.4375 28.625 L 226.546875 28.640625 L 226.546875 29 L 223.21875 29 L 223.21875 28.640625 L 223.328125 28.625 L 223.71875 28.59375 C 223.945312 28.585938 224.09375 28.546875 224.15625 28.484375 C 224.214844 28.425781 224.253906 28.28125 224.265625 28.0625 L 224.296875 27.484375 L 224.296875 21.265625 L 224.265625 20.6875 C 224.253906 20.460938 224.214844 20.320312 224.15625 20.265625 C 224.09375 20.207031 223.945312 20.164062 223.71875 20.140625 L 223.328125 20.109375 L 223.21875 20.109375 L 223.21875 19.75 Z M 225.453125 19.75 "/>
<path style=" stroke:none;fill-rule:nonzero;fill:rgb(0%,0%,0%);fill-opacity:1;" d="M 229.453125 22.640625 L 229.453125 27.484375 C 229.453125 27.808594 229.476562 28.089844 229.53125 28.328125 C 229.558594 28.433594 229.601562 28.503906 229.65625 28.53125 C 229.714844 28.5625 229.84375 28.585938 230.03125 28.59375 L 230.4375 28.625 L 230.546875 28.640625 L 230.546875 29 L 227.21875 29 L 227.21875 28.640625 L 227.328125 28.625 L 227.71875 28.59375 C 227.945312 28.585938 228.09375 28.546875 228.15625 28.484375 C 228.214844 28.425781 228.253906 28.28125 228.265625 28.0625 L 228.296875 27.484375 L 228.296875 24.15625 L 228.265625 23.578125 C 228.253906 23.363281 228.214844 23.21875 228.15625 23.15625 C 228.09375 23.097656 227.945312 23.054688 227.71875 23.03125 L 227.328125 23 L 227.21875 23 L 227.21875 22.640625 Z M 228.296875 21.484375 L 228.296875 20.328125 L 229.453125 20.328125 L 229.453125 21.484375 Z M 228.296875 21.484375 "/>
<path style=" stroke:none;fill-rule:nonzero;fill:rgb(0%,0%,0%);fill-opacity:1;" d="M 231.8125 28.671875 L 231.8125 27.046875 L 232.46875 27.046875 L 232.484375 27.171875 L 232.53125 27.78125 C 232.550781 28.09375 232.691406 28.332031 232.953125 28.484375 C 233.292969 28.683594 233.671875 28.78125 234.078125 28.78125 C 234.429688 28.78125 234.71875 28.679688 234.9375 28.46875 C 235.164062 28.253906 235.28125 27.976562 235.28125 27.640625 C 235.28125 27.351562 235.199219 27.117188 235.046875 26.9375 C 234.898438 26.761719 234.632812 26.601562 234.25 26.453125 L 233.65625 26.21875 C 233.019531 25.980469 232.554688 25.710938 232.265625 25.40625 C 231.984375 25.097656 231.84375 24.71875 231.84375 24.28125 C 231.84375 23.761719 232.050781 23.335938 232.46875 23 C 232.882812 22.667969 233.410156 22.5 234.046875 22.5 C 234.660156 22.5 235.300781 22.621094 235.96875 22.859375 L 235.96875 24.375 L 235.3125 24.375 L 235.3125 24.265625 L 235.265625 23.734375 C 235.242188 23.507812 235.207031 23.351562 235.15625 23.265625 C 235.101562 23.183594 234.992188 23.101562 234.828125 23.015625 C 234.597656 22.914062 234.363281 22.859375 234.125 22.859375 C 233.78125 22.859375 233.492188 22.972656 233.265625 23.1875 C 233.046875 23.398438 232.9375 23.667969 232.9375 24 C 232.9375 24.273438 233.023438 24.492188 233.203125 24.65625 C 233.386719 24.824219 233.753906 25.023438 234.296875 25.25 L 234.84375 25.46875 C 235.425781 25.710938 235.832031 25.960938 236.0625 26.21875 C 236.300781 26.480469 236.421875 26.816406 236.421875 27.21875 C 236.421875 27.78125 236.195312 28.246094 235.75 28.609375 C 235.300781 28.964844 234.714844 29.140625 234 29.140625 C 233.226562 29.140625 232.496094 28.984375 231.8125 28.671875 Z M 231.8125 28.671875 "/>
<path style=" stroke:none;fill-rule:nonzero;fill:rgb(0%,0%,0%);fill-opacity:1;" d="M 238.453125 23.828125 C 238.722656 23.414062 239.0625 23.089844 239.46875 22.859375 C 239.882812 22.621094 240.3125 22.5 240.75 22.5 C 241.300781 22.5 241.726562 22.683594 242.03125 23.046875 C 242.339844 23.402344 242.5 23.894531 242.5 24.515625 L 242.5 27.484375 L 242.546875 28.0625 C 242.554688 28.28125 242.59375 28.425781 242.65625 28.484375 C 242.714844 28.546875 242.859375 28.585938 243.078125 28.59375 L 243.484375 28.625 L 243.59375 28.640625 L 243.59375 29 L 240.265625 29 L 240.265625 28.640625 L 240.375 28.625 L 240.765625 28.59375 C 240.992188 28.585938 241.140625 28.546875 241.203125 28.484375 C 241.261719 28.425781 241.300781 28.28125 241.3125 28.0625 L 241.34375 27.484375 L 241.34375 24.703125 C 241.34375 24.152344 241.269531 23.773438 241.125 23.5625 C 240.988281 23.347656 240.738281 23.234375 240.375 23.234375 C 239.851562 23.234375 239.210938 23.566406 238.453125 24.21875 L 238.453125 27.484375 C 238.453125 27.808594 238.476562 28.089844 238.53125 28.328125 C 238.558594 28.433594 238.601562 28.503906 238.65625 28.53125 C 238.714844 28.5625 238.84375 28.585938 239.03125 28.59375 L 239.4375 28.625 L 239.546875 28.640625 L 239.546875 29 L 236.21875 29 L 236.21875 28.640625 L 236.328125 28.625 L 236.71875 28.59375 C 236.945312 28.585938 237.09375 28.546875 237.15625 28.484375 C 237.214844 28.425781 237.253906 28.28125 237.265625 28.0625 L 237.296875 27.484375 L 237.296875 21.265625 L 237.265625 20.6875 C 237.253906 20.460938 237.214844 20.320312 237.15625 20.265625 C 237.09375 20.207031 236.945312 20.164062 236.71875 20.140625 L 236.328125 20.109375 L 236.21875 20.109375 L 236.21875 19.75 L 238.453125 19.75 Z M 238.453125 23.828125 "/>
<path style=" stroke:none;fill-rule:evenodd;fill:rgb(0%,100%,0%);fill-opacity:1;" d="M 78 80.5 L 78 67.5 L 263 67.5 L 263 80.5 Z M 78 80.5 "/>
<path style=" stroke:none;fill-rule:evenodd;fill:rgb(0%,0%,0%);fill-opacity:1;" d="M 82.453125 68.75 L 82.453125 76.484375 C 82.453125 76.808594 82.476562 77.089844 82.53125 77.328125 C 82.558594 77.433594 82.601562 77.503906 82.65625 77.53125 C 82.714844 77.5625 82.84375 77.585938 83.03125 77.59375 L 83.4375 77.625 L 83.546875 77.640625 L 83.546875 78 L 80.21875 78 L 80.21875 77.640625 L 80.328125 77.625 L 80.71875 77.59375 C 80.945312 77.585938 81.09375 77.546875 81.15625 77.484375 C 81.214844 77.425781 81.253906 77.28125 81.265625 77.0625 L 81.296875 76.484375 L 81.296875 70.265625 L 81.265625 69.6875 C 81.253906 69.460938 81.214844 69.320312 81.15625 69.265625 C 81.09375 69.207031 80.945312 69.164062 80.71875 69.140625 L 80.328125 69.109375 L 80.21875 69.109375 L 80.21875 68.75 Z M 88.277344 77.125 C 87.890625 77.5 87.546875 77.769531 87.246094 77.921875 C 86.941406 78.066406 86.601562 78.140625 86.230469 78.140625 C 85.699219 78.140625 85.25 77.976562 84.886719 77.640625 C 84.53125 77.300781 84.355469 76.867188 84.355469 76.34375 C 84.355469 75.742188 84.589844 75.25 85.058594 74.875 C 85.347656 74.648438 85.699219 74.484375 86.105469 74.390625 C 86.507812 74.289062 87.066406 74.234375 87.777344 74.234375 L 88.011719 74.234375 L 88.011719 73.453125 C 88.011719 72.445312 87.628906 71.9375 86.871094 71.9375 C 86.515625 71.9375 86.195312 72.050781 85.917969 72.265625 C 85.761719 72.402344 85.660156 72.675781 85.621094 73.078125 L 85.621094 73.1875 L 84.824219 73.1875 L 84.824219 72.03125 C 85.632812 71.679688 86.386719 71.5 87.074219 71.5 C 87.675781 71.5 88.171875 71.644531 88.558594 71.921875 C 88.785156 72.101562 88.941406 72.292969 89.027344 72.5 C 89.117188 72.710938 89.167969 73.011719 89.167969 73.40625 L 89.167969 76.234375 C 89.167969 76.746094 89.207031 77.105469 89.292969 77.3125 C 89.382812 77.523438 89.542969 77.625 89.761719 77.625 C 89.832031 77.625 89.9375 77.605469 90.074219 77.5625 L 90.105469 78 C 89.824219 78.089844 89.570312 78.140625 89.355469 78.140625 C 88.78125 78.140625 88.421875 77.804688 88.277344 77.125 Z M 88.011719 77 L 88.011719 74.59375 L 87.746094 74.59375 C 87.058594 74.59375 86.519531 74.738281 86.136719 75.015625 C 85.761719 75.296875 85.574219 75.691406 85.574219 76.1875 C 85.574219 76.554688 85.6875 76.855469 85.917969 77.09375 C 86.15625 77.335938 86.453125 77.453125 86.808594 77.453125 C 87.148438 77.453125 87.550781 77.304688 88.011719 77 Z M 91.214844 78.078125 L 91.214844 70.265625 L 91.183594 69.6875 C 91.160156 69.460938 91.117188 69.320312 91.058594 69.265625 C 91.003906 69.207031 90.863281 69.164062 90.636719 69.140625 L 90.246094 69.109375 L 90.136719 69.109375 L 90.136719 68.75 L 92.371094 68.75 L 92.371094 72.828125 C 92.941406 71.945312 93.6875 71.5 94.605469 71.5 C 95.320312 71.5 95.894531 71.785156 96.324219 72.34375 C 96.75 72.90625 96.964844 73.667969 96.964844 74.625 C 96.964844 75.6875 96.71875 76.542969 96.230469 77.1875 C 95.738281 77.824219 95.09375 78.140625 94.292969 78.140625 C 93.542969 78.140625 92.898438 77.855469 92.371094 77.28125 L 92.292969 77.28125 L 92.152344 78.078125 Z M 92.371094 76.828125 C 92.984375 77.277344 93.574219 77.5 94.136719 77.5 C 94.65625 77.5 95.050781 77.28125 95.324219 76.84375 C 95.59375 76.410156 95.730469 75.777344 95.730469 74.953125 C 95.730469 74.050781 95.597656 73.371094 95.339844 72.921875 C 95.089844 72.464844 94.703125 72.234375 94.183594 72.234375 C 93.859375 72.234375 93.535156 72.332031 93.214844 72.515625 C 92.890625 72.695312 92.609375 72.933594 92.371094 73.234375 Z M 103.363281 77.71875 C 102.621094 78 101.949219 78.140625 101.347656 78.140625 C 100.410156 78.140625 99.648438 77.828125 99.066406 77.203125 C 98.480469 76.582031 98.191406 75.761719 98.191406 74.75 C 98.191406 73.792969 98.449219 73.011719 98.972656 72.40625 C 99.5 71.804688 100.175781 71.5 100.988281 71.5 C 101.757812 71.5 102.347656 71.757812 102.753906 72.265625 C 103.15625 72.777344 103.363281 73.507812 103.363281 74.453125 L 103.363281 74.5625 L 99.472656 74.5625 C 99.472656 75.4375 99.589844 76.097656 99.832031 76.53125 C 100.203125 77.21875 100.773438 77.5625 101.535156 77.5625 C 102.242188 77.5625 102.851562 77.417969 103.363281 77.125 Z M 99.488281 74.203125 L 102.128906 74.203125 L 102.144531 73.9375 C 102.144531 73.480469 102.121094 73.140625 102.082031 72.921875 C 102.039062 72.707031 101.953125 72.511719 101.832031 72.34375 C 101.613281 72.023438 101.308594 71.859375 100.925781 71.859375 C 100.488281 71.859375 100.136719 72.074219 99.878906 72.5 C 99.617188 72.917969 99.488281 73.488281 99.488281 74.203125 Z M 106.421875 68.75 L 106.421875 76.484375 C 106.421875 76.808594 106.445312 77.089844 106.5 77.328125 C 106.527344 77.433594 106.570312 77.503906 106.625 77.53125 C 106.683594 77.5625 106.8125 77.585938 107 77.59375 L 107.40625 77.625 L 107.515625 77.640625 L 107.515625 78 L 104.1875 78 L 104.1875 77.640625 L 104.296875 77.625 L 104.6875 77.59375 C 104.914062 77.585938 105.0625 77.546875 105.125 77.484375 C 105.183594 77.425781 105.222656 77.28125 105.234375 77.0625 L 105.265625 76.484375 L 105.265625 70.265625 L 105.234375 69.6875 C 105.222656 69.460938 105.183594 69.320312 105.125 69.265625 C 105.0625 69.207031 104.914062 69.164062 104.6875 69.140625 L 104.296875 69.109375 L 104.1875 69.109375 L 104.1875 68.75 Z M 114.023438 70.28125 L 114.023438 69.46875 L 120.867188 69.46875 L 120.867188 70.28125 Z M 121.601562 77.90625 C 121.109375 78.050781 120.457031 78.171875 119.648438 78.265625 C 118.84375 78.367188 118.113281 78.421875 117.460938 78.421875 C 116.074219 78.421875 114.972656 78.191406 114.164062 77.734375 C 113.351562 77.277344 112.945312 76.667969 112.945312 75.90625 C 112.945312 75.136719 113.515625 74.1875 114.664062 73.0625 L 115.335938 73.59375 C 114.367188 74.542969 113.882812 75.289062 113.882812 75.828125 C 113.882812 76.359375 114.199219 76.789062 114.835938 77.109375 C 115.46875 77.421875 116.34375 77.578125 117.460938 77.578125 C 118.082031 77.578125 118.777344 77.53125 119.539062 77.4375 C 120.296875 77.335938 120.921875 77.210938 121.414062 77.0625 Z M 124.132812 70.546875 L 126.945312 70.546875 L 126.945312 68.515625 L 127.820312 68.515625 L 127.820312 72.28125 C 128.734375 71.449219 129.480469 70.855469 130.054688 70.5 C 130.636719 70.136719 131.121094 69.953125 131.507812 69.953125 C 131.964844 69.953125 132.292969 70.128906 132.492188 70.46875 C 132.699219 70.8125 132.804688 71.414062 132.804688 72.265625 C 132.804688 72.746094 132.753906 73.332031 132.664062 74.015625 C 132.570312 74.734375 132.523438 75.316406 132.523438 75.75 C 132.523438 76.34375 132.574219 76.742188 132.679688 76.9375 C 132.78125 77.125 132.921875 77.21875 133.101562 77.21875 C 133.484375 77.21875 134.011719 76.855469 134.679688 76.125 L 135.164062 76.75 C 134.796875 77.167969 134.402344 77.507812 133.976562 77.765625 C 133.558594 78.011719 133.191406 78.140625 132.882812 78.140625 C 132.421875 78.140625 132.09375 77.96875 131.898438 77.625 C 131.699219 77.273438 131.601562 76.671875 131.601562 75.828125 C 131.601562 75.363281 131.648438 74.777344 131.742188 74.078125 C 131.832031 73.363281 131.882812 72.78125 131.882812 72.34375 C 131.882812 71.753906 131.828125 71.355469 131.726562 71.15625 C 131.632812 70.960938 131.488281 70.859375 131.304688 70.859375 C 130.835938 70.859375 129.671875 71.722656 127.820312 73.4375 L 127.820312 78.78125 L 126.945312 78.78125 L 126.945312 74.28125 L 124.554688 76.640625 L 123.976562 76.046875 L 126.945312 73.109375 L 126.945312 71.34375 L 124.132812 71.34375 Z M 138.773438 71.140625 C 138.667969 72.058594 138.527344 73.007812 138.351562 73.984375 L 138.367188 74 C 138.894531 73.585938 139.539062 73.246094 140.289062 72.984375 C 141.035156 72.726562 141.742188 72.59375 142.398438 72.59375 C 144.636719 72.59375 145.757812 73.488281 145.757812 75.265625 C 145.757812 76.320312 145.316406 77.121094 144.445312 77.671875 C 143.578125 78.222656 142.285156 78.5 140.570312 78.5 C 139.789062 78.5 138.964844 78.449219 138.101562 78.359375 L 138.148438 77.546875 C 139.144531 77.652344 139.953125 77.703125 140.570312 77.703125 C 141.941406 77.703125 142.980469 77.5 143.679688 77.09375 C 144.386719 76.679688 144.742188 76.070312 144.742188 75.265625 C 144.742188 74.007812 143.921875 73.375 142.289062 73.375 C 141.664062 73.375 140.953125 73.539062 140.164062 73.859375 C 139.382812 74.171875 138.691406 74.574219 138.101562 75.0625 L 137.273438 74.84375 C 137.519531 73.449219 137.726562 72.183594 137.882812 71.046875 Z M 138.789062 69.03125 C 140.640625 69.273438 142.433594 69.390625 144.164062 69.390625 L 144.164062 70.1875 C 142.359375 70.1875 140.535156 70.070312 138.695312 69.828125 Z M 158.523438 71.421875 L 156.398438 71.421875 L 156.398438 75.34375 C 156.980469 75.75 157.6875 76.371094 158.523438 77.203125 L 157.914062 77.8125 C 157.289062 77.179688 156.78125 76.703125 156.398438 76.390625 C 156.335938 77.859375 155.542969 78.59375 154.023438 78.59375 C 153.199219 78.59375 152.5625 78.402344 152.117188 78.03125 C 151.667969 77.660156 151.445312 77.136719 151.445312 76.46875 C 151.445312 75.847656 151.667969 75.367188 152.117188 75.03125 C 152.5625 74.691406 153.199219 74.515625 154.023438 74.515625 C 154.53125 74.515625 155.03125 74.621094 155.523438 74.828125 L 155.523438 71.421875 L 151.757812 71.421875 L 151.757812 70.625 L 155.523438 70.625 L 155.523438 68.625 L 156.398438 68.625 L 156.398438 70.625 L 158.523438 70.625 Z M 150.007812 68.921875 C 149.621094 70.414062 149.429688 72.007812 149.429688 73.703125 C 149.429688 75.402344 149.621094 76.996094 150.007812 78.484375 L 149.148438 78.59375 C 148.742188 77.085938 148.539062 75.453125 148.539062 73.703125 C 148.539062 71.957031 148.742188 70.324219 149.148438 68.8125 Z M 155.523438 75.765625 C 155.011719 75.476562 154.5 75.328125 153.992188 75.328125 C 152.875 75.328125 152.320312 75.710938 152.320312 76.46875 C 152.320312 76.898438 152.460938 77.226562 152.742188 77.453125 C 153.03125 77.671875 153.449219 77.78125 153.992188 77.78125 C 154.53125 77.78125 154.921875 77.65625 155.164062 77.40625 C 155.402344 77.160156 155.523438 76.75 155.523438 76.1875 Z M 160.007812 76.5625 L 160.617188 76.046875 C 161.449219 76.859375 162.257812 77.726562 163.039062 78.640625 L 162.414062 79.109375 C 161.777344 78.347656 160.972656 77.5 160.007812 76.5625 Z M 179.789062 69.953125 L 180.632812 69.65625 C 181.171875 70.667969 181.585938 71.832031 181.867188 73.140625 C 182.15625 74.445312 182.304688 75.792969 182.304688 77.1875 L 181.382812 77.1875 C 181.382812 75.878906 181.238281 74.585938 180.960938 73.3125 C 180.6875 72.042969 180.296875 70.921875 179.789062 69.953125 Z M 174.210938 69.84375 C 173.867188 71.085938 173.695312 72.414062 173.695312 73.828125 C 173.695312 74.871094 173.875 75.746094 174.242188 76.453125 C 174.613281 77.164062 174.992188 77.515625 175.367188 77.515625 C 175.625 77.515625 175.953125 77.257812 176.351562 76.734375 C 176.753906 76.214844 177.140625 75.480469 177.507812 74.53125 L 178.335938 74.859375 C 177.9375 75.976562 177.453125 76.851562 176.882812 77.484375 C 176.308594 78.105469 175.78125 78.421875 175.304688 78.421875 C 174.679688 78.421875 174.097656 77.976562 173.570312 77.078125 C 173.046875 76.183594 172.789062 75.101562 172.789062 73.828125 C 172.789062 72.320312 172.964844 70.949219 173.320312 69.71875 Z M 192.085938 69.125 C 190.542969 70.355469 189.03125 71.460938 187.554688 72.4375 C 187.085938 72.75 186.78125 72.964844 186.648438 73.078125 C 186.523438 73.195312 186.460938 73.324219 186.460938 73.46875 C 186.460938 73.59375 186.515625 73.714844 186.632812 73.828125 C 186.746094 73.933594 187.011719 74.128906 187.429688 74.40625 C 189.09375 75.542969 190.773438 76.847656 192.460938 78.3125 L 191.804688 78.953125 C 190.117188 77.507812 188.472656 76.230469 186.882812 75.125 C 186.246094 74.691406 185.84375 74.382812 185.679688 74.203125 C 185.511719 74.019531 185.429688 73.773438 185.429688 73.46875 C 185.429688 73.148438 185.511719 72.898438 185.679688 72.71875 C 185.855469 72.535156 186.289062 72.210938 186.976562 71.75 C 188.472656 70.761719 189.980469 69.664062 191.492188 68.453125 Z M 196.445312 70.734375 C 198.796875 70.113281 200.574219 69.796875 201.773438 69.796875 C 204.792969 69.796875 206.304688 71.058594 206.304688 73.578125 C 206.304688 75.070312 205.65625 76.207031 204.367188 76.984375 C 203.085938 77.757812 201.183594 78.140625 198.664062 78.140625 L 198.601562 77.265625 C 203.078125 77.265625 205.320312 76.070312 205.320312 73.671875 C 205.320312 72.664062 205.019531 71.917969 204.429688 71.4375 C 203.84375 70.949219 202.9375 70.703125 201.710938 70.703125 C 200.625 70.703125 198.9375 71.007812 196.648438 71.609375 Z M 208.539062 71.625 L 208.539062 70.828125 L 210.882812 70.828125 C 211.109375 69.839844 211.28125 68.996094 211.398438 68.296875 L 212.273438 68.390625 C 212.15625 69.089844 211.996094 69.902344 211.789062 70.828125 L 212.867188 70.828125 C 213.230469 70.828125 213.507812 70.828125 213.695312 70.828125 C 213.890625 70.828125 214.101562 70.851562 214.320312 70.890625 C 214.546875 70.933594 214.710938 70.972656 214.804688 71 C 214.894531 71.03125 214.996094 71.117188 215.101562 71.25 C 215.214844 71.386719 215.28125 71.507812 215.304688 71.609375 C 215.332031 71.714844 215.367188 71.902344 215.398438 72.171875 C 215.4375 72.433594 215.460938 72.679688 215.460938 72.90625 C 215.460938 73.136719 215.460938 73.472656 215.460938 73.90625 C 215.460938 75.386719 215.28125 76.511719 214.929688 77.28125 C 214.574219 78.039062 214.125 78.421875 213.585938 78.421875 C 212.90625 78.421875 212.09375 78.199219 211.148438 77.765625 L 211.445312 76.96875 C 212.339844 77.355469 212.996094 77.546875 213.414062 77.546875 C 213.703125 77.546875 213.964844 77.226562 214.195312 76.578125 C 214.421875 75.933594 214.539062 75 214.539062 73.78125 C 214.539062 73.523438 214.539062 73.328125 214.539062 73.203125 C 214.539062 73.082031 214.53125 72.929688 214.523438 72.75 C 214.511719 72.566406 214.5 72.4375 214.492188 72.375 C 214.492188 72.304688 214.46875 72.214844 214.429688 72.109375 C 214.398438 71.996094 214.371094 71.929688 214.351562 71.90625 C 214.339844 71.878906 214.292969 71.835938 214.210938 71.78125 C 214.125 71.722656 214.0625 71.6875 214.023438 71.6875 C 213.980469 71.679688 213.890625 71.667969 213.757812 71.65625 C 213.632812 71.636719 213.519531 71.625 213.429688 71.625 C 213.34375 71.625 213.207031 71.625 213.023438 71.625 L 211.601562 71.625 C 211.007812 74.03125 210.214844 76.324219 209.226562 78.5 L 208.398438 78.1875 C 209.332031 76.117188 210.101562 73.929688 210.695312 71.625 Z M 215.992188 70.046875 L 216.820312 69.75 C 217.714844 71.792969 218.421875 73.824219 218.945312 75.84375 L 218.085938 76.0625 C 217.855469 75.167969 217.542969 74.15625 217.148438 73.03125 C 216.761719 71.910156 216.375 70.914062 215.992188 70.046875 Z M 225.132812 77.71875 C 224.390625 78 223.71875 78.140625 223.117188 78.140625 C 222.179688 78.140625 221.417969 77.828125 220.835938 77.203125 C 220.25 76.582031 219.960938 75.761719 219.960938 74.75 C 219.960938 73.792969 220.21875 73.011719 220.742188 72.40625 C 221.269531 71.804688 221.945312 71.5 222.757812 71.5 C 223.527344 71.5 224.117188 71.757812 224.523438 72.265625 C 224.925781 72.777344 225.132812 73.507812 225.132812 74.453125 L 225.132812 74.5625 L 221.242188 74.5625 C 221.242188 75.4375 221.359375 76.097656 221.601562 76.53125 C 221.972656 77.21875 222.542969 77.5625 223.304688 77.5625 C 224.011719 77.5625 224.621094 77.417969 225.132812 77.125 Z M 221.257812 74.203125 L 223.898438 74.203125 L 223.914062 73.9375 C 223.914062 73.480469 223.890625 73.140625 223.851562 72.921875 C 223.808594 72.707031 223.722656 72.511719 223.601562 72.34375 C 223.382812 72.023438 223.078125 71.859375 222.695312 71.859375 C 222.257812 71.859375 221.90625 72.074219 221.648438 72.5 C 221.386719 72.917969 221.257812 73.488281 221.257812 74.203125 Z M 228.195312 72.828125 C 228.464844 72.414062 228.804688 72.089844 229.210938 71.859375 C 229.625 71.621094 230.054688 71.5 230.492188 71.5 C 231.042969 71.5 231.46875 71.683594 231.773438 72.046875 C 232.082031 72.402344 232.242188 72.894531 232.242188 73.515625 L 232.242188 76.484375 L 232.289062 77.0625 C 232.296875 77.28125 232.335938 77.425781 232.398438 77.484375 C 232.457031 77.546875 232.601562 77.585938 232.820312 77.59375 L 233.226562 77.625 L 233.335938 77.640625 L 233.335938 78 L 230.007812 78 L 230.007812 77.640625 L 230.117188 77.625 L 230.507812 77.59375 C 230.734375 77.585938 230.882812 77.546875 230.945312 77.484375 C 231.003906 77.425781 231.042969 77.28125 231.054688 77.0625 L 231.085938 76.484375 L 231.085938 73.703125 C 231.085938 73.152344 231.011719 72.773438 230.867188 72.5625 C 230.730469 72.347656 230.480469 72.234375 230.117188 72.234375 C 229.59375 72.234375 228.953125 72.566406 228.195312 73.21875 L 228.195312 76.484375 C 228.195312 76.808594 228.21875 77.089844 228.273438 77.328125 C 228.300781 77.433594 228.34375 77.503906 228.398438 77.53125 C 228.457031 77.5625 228.585938 77.585938 228.773438 77.59375 L 229.179688 77.625 L 229.289062 77.640625 L 229.289062 78 L 225.960938 78 L 225.960938 77.640625 L 226.070312 77.625 L 226.460938 77.59375 C 226.6875 77.585938 226.835938 77.546875 226.898438 77.484375 C 226.957031 77.425781 226.996094 77.28125 227.007812 77.0625 L 227.039062 76.484375 L 227.039062 73.15625 L 227.007812 72.578125 C 226.996094 72.363281 226.957031 72.21875 226.898438 72.15625 C 226.835938 72.097656 226.6875 72.054688 226.460938 72.03125 L 226.070312 72 L 225.960938 72 L 225.960938 71.640625 L 228.195312 71.640625 Z M 234.984375 77.75 C 234.546875 77.554688 234.328125 77.277344 234.328125 76.921875 C 234.328125 76.707031 234.40625 76.511719 234.5625 76.34375 C 234.726562 76.167969 235.019531 75.976562 235.4375 75.765625 C 235.03125 75.589844 234.710938 75.324219 234.484375 74.96875 C 234.253906 74.605469 234.140625 74.195312 234.140625 73.734375 C 234.140625 73.058594 234.359375 72.515625 234.796875 72.109375 C 235.230469 71.707031 235.816406 71.5 236.546875 71.5 C 236.980469 71.5 237.382812 71.582031 237.75 71.734375 L 239.984375 71.5625 L 239.6875 72.265625 L 238.15625 72.015625 C 238.652344 72.507812 238.90625 73.074219 238.90625 73.71875 C 238.90625 74.375 238.683594 74.917969 238.25 75.34375 C 237.8125 75.773438 237.253906 75.984375 236.578125 75.984375 C 236.316406 75.984375 236.039062 75.945312 235.75 75.859375 C 235.476562 76.070312 235.34375 76.304688 235.34375 76.5625 C 235.34375 76.84375 235.585938 76.984375 236.078125 76.984375 L 237.078125 76.984375 C 238.085938 76.984375 238.757812 77.089844 239.09375 77.296875 C 239.457031 77.527344 239.640625 77.910156 239.640625 78.4375 C 239.640625 79.039062 239.363281 79.523438 238.8125 79.890625 C 238.257812 80.261719 237.527344 80.453125 236.625 80.453125 C 235.738281 80.453125 235.027344 80.324219 234.5 80.078125 C 233.96875 79.835938 233.703125 79.507812 233.703125 79.09375 C 233.703125 78.570312 234.128906 78.121094 234.984375 77.75 Z M 235.296875 73.65625 C 235.296875 74.960938 235.707031 75.609375 236.53125 75.609375 C 236.925781 75.609375 237.226562 75.449219 237.4375 75.125 C 237.652344 74.804688 237.765625 74.328125 237.765625 73.703125 C 237.765625 73.113281 237.652344 72.65625 237.4375 72.34375 C 237.226562 72.023438 236.929688 71.859375 236.546875 71.859375 C 236.140625 71.859375 235.824219 72.019531 235.609375 72.328125 C 235.398438 72.640625 235.296875 73.085938 235.296875 73.65625 Z M 235.296875 77.859375 C 235.003906 78.136719 234.859375 78.488281 234.859375 78.90625 C 234.859375 79.269531 235.019531 79.5625 235.34375 79.78125 C 235.664062 79.996094 236.101562 80.109375 236.65625 80.109375 C 237.214844 80.109375 237.664062 79.980469 238 79.734375 C 238.339844 79.484375 238.515625 79.144531 238.515625 78.71875 C 238.515625 78.394531 238.425781 78.167969 238.25 78.046875 C 238.070312 77.925781 237.753906 77.859375 237.296875 77.859375 Z M 242.632812 68.75 L 242.632812 76.484375 C 242.632812 76.808594 242.65625 77.089844 242.710938 77.328125 C 242.738281 77.433594 242.78125 77.503906 242.835938 77.53125 C 242.894531 77.5625 243.023438 77.585938 243.210938 77.59375 L 243.617188 77.625 L 243.726562 77.640625 L 243.726562 78 L 240.398438 78 L 240.398438 77.640625 L 240.507812 77.625 L 240.898438 77.59375 C 241.125 77.585938 241.273438 77.546875 241.335938 77.484375 C 241.394531 77.425781 241.433594 77.28125 241.445312 77.0625 L 241.476562 76.484375 L 241.476562 70.265625 L 241.445312 69.6875 C 241.433594 69.460938 241.394531 69.320312 241.335938 69.265625 C 241.273438 69.207031 241.125 69.164062 240.898438 69.140625 L 240.507812 69.109375 L 240.398438 69.109375 L 240.398438 68.75 Z M 246.394531 71.640625 L 246.394531 76.484375 C 246.394531 76.808594 246.417969 77.089844 246.472656 77.328125 C 246.5 77.433594 246.542969 77.503906 246.597656 77.53125 C 246.65625 77.5625 246.785156 77.585938 246.972656 77.59375 L 247.378906 77.625 L 247.488281 77.640625 L 247.488281 78 L 244.160156 78 L 244.160156 77.640625 L 244.269531 77.625 L 244.660156 77.59375 C 244.886719 77.585938 245.035156 77.546875 245.097656 77.484375 C 245.15625 77.425781 245.195312 77.28125 245.207031 77.0625 L 245.238281 76.484375 L 245.238281 73.15625 L 245.207031 72.578125 C 245.195312 72.363281 245.15625 72.21875 245.097656 72.15625 C 245.035156 72.097656 244.886719 72.054688 244.660156 72.03125 L 244.269531 72 L 244.160156 72 L 244.160156 71.640625 Z M 245.238281 70.484375 L 245.238281 69.328125 L 246.394531 69.328125 L 246.394531 70.484375 Z M 248.4375 77.671875 L 248.4375 76.046875 L 249.09375 76.046875 L 249.109375 76.171875 L 249.15625 76.78125 C 249.175781 77.09375 249.316406 77.332031 249.578125 77.484375 C 249.917969 77.683594 250.296875 77.78125 250.703125 77.78125 C 251.054688 77.78125 251.34375 77.679688 251.5625 77.46875 C 251.789062 77.253906 251.90625 76.976562 251.90625 76.640625 C 251.90625 76.351562 251.824219 76.117188 251.671875 75.9375 C 251.523438 75.761719 251.257812 75.601562 250.875 75.453125 L 250.28125 75.21875 C 249.644531 74.980469 249.179688 74.710938 248.890625 74.40625 C 248.609375 74.097656 248.46875 73.71875 248.46875 73.28125 C 248.46875 72.761719 248.675781 72.335938 249.09375 72 C 249.507812 71.667969 250.035156 71.5 250.671875 71.5 C 251.285156 71.5 251.925781 71.621094 252.59375 71.859375 L 252.59375 73.375 L 251.9375 73.375 L 251.9375 73.265625 L 251.890625 72.734375 C 251.867188 72.507812 251.832031 72.351562 251.78125 72.265625 C 251.726562 72.183594 251.617188 72.101562 251.453125 72.015625 C 251.222656 71.914062 250.988281 71.859375 250.75 71.859375 C 250.40625 71.859375 250.117188 71.972656 249.890625 72.1875 C 249.671875 72.398438 249.5625 72.667969 249.5625 73 C 249.5625 73.273438 249.648438 73.492188 249.828125 73.65625 C 250.011719 73.824219 250.378906 74.023438 250.921875 74.25 L 251.46875 74.46875 C 252.050781 74.710938 252.457031 74.960938 252.6875 75.21875 C 252.925781 75.480469 253.046875 75.816406 253.046875 76.21875 C 253.046875 76.78125 252.820312 77.246094 252.375 77.609375 C 251.925781 77.964844 251.339844 78.140625 250.625 78.140625 C 249.851562 78.140625 249.121094 77.984375 248.4375 77.671875 Z M 256.125 72.828125 C 256.394531 72.414062 256.734375 72.089844 257.140625 71.859375 C 257.554688 71.621094 257.984375 71.5 258.421875 71.5 C 258.972656 71.5 259.398438 71.683594 259.703125 72.046875 C 260.011719 72.402344 260.171875 72.894531 260.171875 73.515625 L 260.171875 76.484375 L 260.21875 77.0625 C 260.226562 77.28125 260.265625 77.425781 260.328125 77.484375 C 260.386719 77.546875 260.53125 77.585938 260.75 77.59375 L 261.15625 77.625 L 261.265625 77.640625 L 261.265625 78 L 257.9375 78 L 257.9375 77.640625 L 258.046875 77.625 L 258.4375 77.59375 C 258.664062 77.585938 258.8125 77.546875 258.875 77.484375 C 258.933594 77.425781 258.972656 77.28125 258.984375 77.0625 L 259.015625 76.484375 L 259.015625 73.703125 C 259.015625 73.152344 258.941406 72.773438 258.796875 72.5625 C 258.660156 72.347656 258.410156 72.234375 258.046875 72.234375 C 257.523438 72.234375 256.882812 72.566406 256.125 73.21875 L 256.125 76.484375 C 256.125 76.808594 256.148438 77.089844 256.203125 77.328125 C 256.230469 77.433594 256.273438 77.503906 256.328125 77.53125 C 256.386719 77.5625 256.515625 77.585938 256.703125 77.59375 L 257.109375 77.625 L 257.21875 77.640625 L 257.21875 78 L 253.890625 78 L 253.890625 77.640625 L 254 77.625 L 254.390625 77.59375 C 254.617188 77.585938 254.765625 77.546875 254.828125 77.484375 C 254.886719 77.425781 254.925781 77.28125 254.9375 77.0625 L 254.96875 76.484375 L 254.96875 70.265625 L 254.9375 69.6875 C 254.925781 69.460938 254.886719 69.320312 254.828125 69.265625 C 254.765625 69.207031 254.617188 69.164062 254.390625 69.140625 L 254 69.109375 L 253.890625 69.109375 L 253.890625 68.75 L 256.125 68.75 Z M 256.125 72.828125 "/>
</g>
</svg>
