<?xml version="1.0" encoding="UTF-8"?>
<svg xmlns="http://www.w3.org/2000/svg" xmlns:xlink="http://www.w3.org/1999/xlink" width="400pt" height="300pt" viewBox="0 0 400 300" version="1.1">
<g id="surface0">
<rect x="0" y="0" width="400" height="300" style="fill:rgb(100%,100%,100%);fill-opacity:1;stroke:none;"/>
<path style=" stroke:none;fill-rule:nonzero;fill:rgb(100%,0%,0%);fill-opacity:1;" d="M 52.5 249 C 52.5 252.332031 47.5 252.332031 47.5 249 C 47.5 245.667969 52.5 245.667969 52.5 249 "/>
<path style="fill:none;stroke-width:1;stroke-linecap:round;stroke-linejoin:round;stroke:rgb(100%,0%,0%);stroke-opacity:1;stroke-miterlimit:10;" d="M 99.832031 199.332031 L 149.667969 149.5 L 398.832031 149.5 "/>
<path style=" stroke:none;fill-rule:nonzero;fill:rgb(0%,0%,0%);fill-opacity:1;" d="M 120.1875 172.71875 L 125.65625 178.1875 C 125.882812 178.417969 126.109375 178.601562 126.328125 178.734375 C 126.421875 178.789062 126.492188 178.808594 126.546875 178.796875 C 126.609375 178.777344 126.710938 178.703125 126.859375 178.578125 L 127.171875 178.296875 L 127.265625 178.234375 L 127.515625 178.484375 L 125.15625 180.84375 L 124.90625 180.59375 L 124.96875 180.5 L 125.234375 180.203125 C 125.378906 180.039062 125.453125 179.90625 125.453125 179.8125 C 125.453125 179.71875 125.378906 179.601562 125.234375 179.453125 L 124.84375 179 L 120.453125 174.609375 L 120.015625 174.234375 C 119.851562 174.070312 119.726562 173.992188 119.640625 174 C 119.546875 174 119.417969 174.074219 119.25 174.21875 L 118.953125 174.484375 L 118.875 174.5625 L 118.609375 174.296875 L 120.1875 172.71875 Z M 120.1875 172.71875 "/>
<path style=" stroke:none;fill-rule:nonzero;fill:rgb(0%,0%,0%);fill-opacity:1;" d="M 130.5625 174.1875 C 130.5625 174.730469 130.503906 175.164062 130.390625 175.484375 C 130.285156 175.796875 130.101562 176.085938 129.84375 176.34375 C 129.46875 176.71875 129.03125 176.917969 128.53125 176.9375 C 128.039062 176.949219 127.617188 176.773438 127.25 176.40625 C 126.824219 175.980469 126.648438 175.46875 126.71875 174.875 C 126.75 174.511719 126.882812 174.152344 127.109375 173.796875 C 127.328125 173.433594 127.6875 173 128.1875 172.5 L 128.34375 172.34375 L 127.78125 171.78125 C 127.074219 171.074219 126.453125 170.984375 125.921875 171.515625 C 125.671875 171.765625 125.523438 172.0625 125.46875 172.40625 C 125.460938 172.625 125.578125 172.890625 125.828125 173.203125 L 125.90625 173.28125 L 125.34375 173.84375 L 124.53125 173.03125 C 124.855469 172.210938 125.261719 171.554688 125.75 171.0625 C 126.179688 170.636719 126.625 170.386719 127.09375 170.3125 C 127.386719 170.273438 127.636719 170.292969 127.84375 170.375 C 128.050781 170.460938 128.296875 170.640625 128.578125 170.921875 L 130.578125 172.921875 C 130.941406 173.289062 131.226562 173.511719 131.4375 173.59375 C 131.644531 173.679688 131.828125 173.640625 131.984375 173.484375 C 132.023438 173.445312 132.082031 173.355469 132.15625 173.21875 L 132.484375 173.515625 C 132.347656 173.777344 132.203125 173.984375 132.046875 174.140625 C 131.640625 174.546875 131.144531 174.5625 130.5625 174.1875 Z M 130.296875 174.296875 L 128.59375 172.59375 L 128.40625 172.78125 C 127.929688 173.261719 127.652344 173.734375 127.578125 174.203125 C 127.507812 174.671875 127.648438 175.085938 128 175.4375 C 128.257812 175.699219 128.554688 175.828125 128.890625 175.828125 C 129.222656 175.828125 129.515625 175.703125 129.765625 175.453125 C 130.003906 175.214844 130.179688 174.828125 130.296875 174.296875 Z M 130.296875 174.296875 "/>
<path style=" stroke:none;fill-rule:nonzero;fill:rgb(0%,0%,0%);fill-opacity:1;" d="M 132.71875 172.40625 L 127.1875 166.875 L 126.765625 166.484375 C 126.589844 166.328125 126.460938 166.25 126.375 166.25 C 126.292969 166.25 126.164062 166.328125 125.984375 166.484375 L 125.703125 166.734375 L 125.625 166.8125 L 125.359375 166.546875 L 126.9375 164.96875 L 129.828125 167.859375 C 129.609375 166.828125 129.824219 165.992188 130.46875 165.34375 C 130.980469 164.835938 131.585938 164.625 132.28125 164.71875 C 132.976562 164.8125 133.664062 165.199219 134.34375 165.875 C 135.09375 166.625 135.519531 167.402344 135.625 168.203125 C 135.726562 169.007812 135.5 169.6875 134.9375 170.25 C 134.40625 170.78125 133.75 171.03125 132.96875 171 L 132.90625 171.0625 L 133.390625 171.734375 L 132.71875 172.40625 Z M 132.65625 170.6875 C 133.394531 170.574219 133.96875 170.3125 134.375 169.90625 C 134.738281 169.542969 134.863281 169.109375 134.75 168.609375 C 134.632812 168.109375 134.285156 167.570312 133.703125 166.984375 C 133.066406 166.351562 132.5 165.964844 132 165.828125 C 131.492188 165.683594 131.054688 165.792969 130.6875 166.15625 C 130.460938 166.386719 130.296875 166.683594 130.203125 167.046875 C 130.101562 167.402344 130.070312 167.765625 130.109375 168.140625 L 132.65625 170.6875 Z M 132.65625 170.6875 "/>
<path style=" stroke:none;fill-rule:nonzero;fill:rgb(0%,0%,0%);fill-opacity:1;" d="M 140.859375 163.734375 C 140.535156 164.453125 140.160156 165.027344 139.734375 165.453125 C 139.066406 166.121094 138.304688 166.445312 137.453125 166.421875 C 136.609375 166.390625 135.828125 166.015625 135.109375 165.296875 C 134.433594 164.621094 134.070312 163.882812 134.015625 163.078125 C 133.964844 162.277344 134.226562 161.589844 134.796875 161.015625 C 135.339844 160.476562 135.933594 160.242188 136.578125 160.3125 C 137.222656 160.386719 137.878906 160.757812 138.546875 161.421875 L 138.625 161.5 L 135.875 164.25 C 136.5 164.875 137.050781 165.261719 137.53125 165.40625 C 138.28125 165.617188 138.921875 165.453125 139.453125 164.921875 C 139.960938 164.414062 140.289062 163.875 140.4375 163.3125 L 140.859375 163.734375 Z M 135.640625 163.984375 L 137.5 162.125 L 137.328125 161.921875 C 137.003906 161.601562 136.75 161.375 136.5625 161.25 C 136.375 161.125 136.183594 161.046875 135.984375 161.015625 C 135.601562 160.945312 135.273438 161.042969 135 161.3125 C 134.6875 161.625 134.589844 162.023438 134.703125 162.5 C 134.820312 162.980469 135.132812 163.476562 135.640625 163.984375 Z M 135.640625 163.984375 "/>
<path style=" stroke:none;fill-rule:nonzero;fill:rgb(0%,0%,0%);fill-opacity:1;" d="M 136.4375 155.578125 L 141.75 161.203125 C 141.96875 161.445312 142.179688 161.636719 142.390625 161.78125 C 142.472656 161.835938 142.546875 161.851562 142.609375 161.828125 C 142.679688 161.808594 142.785156 161.742188 142.921875 161.625 L 143.25 161.375 L 143.328125 161.296875 L 143.578125 161.5625 L 141.15625 163.84375 L 140.90625 163.578125 L 140.984375 163.515625 L 141.25 163.203125 C 141.414062 163.039062 141.492188 162.914062 141.484375 162.828125 C 141.484375 162.746094 141.414062 162.621094 141.28125 162.453125 L 140.90625 162 L 136.640625 157.46875 L 136.234375 157.078125 C 136.058594 156.914062 135.933594 156.828125 135.859375 156.828125 C 135.777344 156.828125 135.648438 156.902344 135.46875 157.046875 L 135.140625 157.3125 L 135.0625 157.375 L 134.8125 157.109375 L 136.4375 155.578125 Z M 136.4375 155.578125 "/>
<path style=" stroke:none;fill-rule:nonzero;fill:rgb(0%,0%,0%);fill-opacity:1;" d=""/>
<path style=" stroke:none;fill-rule:nonzero;fill:rgb(0%,0%,0%);fill-opacity:1;" d="M 147.34375 150.875 L 147.015625 150.125 L 153.296875 147.390625 L 153.625 148.140625 L 147.34375 150.875 Z M 157.34375 154.828125 C 156.945312 155.164062 156.394531 155.539062 155.6875 155.953125 C 154.988281 156.371094 154.34375 156.710938 153.75 156.96875 C 152.476562 157.523438 151.378906 157.75 150.453125 157.65625 C 149.523438 157.554688 148.910156 157.152344 148.609375 156.453125 C 148.296875 155.746094 148.441406 154.648438 149.046875 153.15625 L 149.859375 153.375 C 149.359375 154.636719 149.21875 155.515625 149.4375 156.015625 C 149.644531 156.496094 150.101562 156.757812 150.8125 156.796875 C 151.519531 156.828125 152.382812 156.625 153.40625 156.1875 C 153.976562 155.9375 154.59375 155.621094 155.25 155.234375 C 155.914062 154.839844 156.441406 154.476562 156.828125 154.140625 L 157.34375 154.828125 Z M 157.34375 154.828125 "/>
<path style=" stroke:none;fill-rule:nonzero;fill:rgb(0%,0%,0%);fill-opacity:1;" d="M 156.4375 147.515625 L 159.25 147.390625 L 159.15625 145.375 L 160.03125 145.34375 L 160.203125 149.09375 C 161.078125 148.21875 161.796875 147.59375 162.359375 147.21875 C 162.921875 146.835938 163.394531 146.632812 163.78125 146.609375 C 164.226562 146.589844 164.5625 146.75 164.78125 147.09375 C 165 147.429688 165.128906 148.023438 165.171875 148.875 C 165.179688 149.355469 165.15625 149.9375 165.09375 150.625 C 165.03125 151.34375 165.007812 151.921875 165.03125 152.359375 C 165.050781 152.953125 165.117188 153.351562 165.234375 153.546875 C 165.347656 153.734375 165.492188 153.824219 165.671875 153.8125 C 166.054688 153.792969 166.566406 153.40625 167.203125 152.65625 L 167.71875 153.25 C 167.363281 153.6875 166.976562 154.042969 166.5625 154.3125 C 166.15625 154.585938 165.796875 154.726562 165.484375 154.734375 C 165.023438 154.757812 164.691406 154.601562 164.484375 154.265625 C 164.285156 153.921875 164.164062 153.328125 164.125 152.484375 C 164.101562 152.015625 164.125 151.429688 164.1875 150.71875 C 164.257812 150 164.285156 149.421875 164.265625 148.984375 C 164.234375 148.390625 164.164062 148 164.0625 147.8125 C 163.957031 147.617188 163.8125 147.523438 163.625 147.53125 C 163.15625 147.554688 162.03125 148.460938 160.25 150.25 L 160.46875 155.59375 L 159.59375 155.625 L 159.40625 151.125 L 157.109375 153.59375 L 156.515625 153.015625 L 159.359375 149.953125 L 159.28125 148.1875 L 156.46875 148.3125 L 156.4375 147.515625 Z M 156.4375 147.515625 "/>
<path style=" stroke:none;fill-rule:nonzero;fill:rgb(0%,0%,0%);fill-opacity:1;" d="M 171.28125 147.09375 C 171.1875 148.011719 171.0625 148.960938 170.90625 149.9375 L 170.921875 149.953125 C 171.441406 149.527344 172.078125 149.179688 172.828125 148.90625 C 173.578125 148.636719 174.28125 148.496094 174.9375 148.484375 C 177.175781 148.453125 178.304688 149.328125 178.328125 151.109375 C 178.347656 152.164062 177.925781 152.96875 177.0625 153.53125 C 176.207031 154.09375 174.921875 154.390625 173.203125 154.421875 C 172.421875 154.429688 171.59375 154.394531 170.71875 154.3125 L 170.765625 153.5 C 171.765625 153.59375 172.570312 153.636719 173.1875 153.625 C 174.5625 153.605469 175.59375 153.386719 176.28125 152.96875 C 176.976562 152.542969 177.320312 151.929688 177.3125 151.125 C 177.289062 149.867188 176.460938 149.246094 174.828125 149.265625 C 174.203125 149.277344 173.5 149.449219 172.71875 149.78125 C 171.9375 150.105469 171.253906 150.515625 170.671875 151.015625 L 169.84375 150.8125 C 170.070312 149.417969 170.253906 148.148438 170.390625 147 L 171.28125 147.09375 Z M 171.265625 144.984375 C 173.117188 145.195312 174.910156 145.28125 176.640625 145.25 L 176.65625 146.046875 C 174.851562 146.078125 173.03125 145.992188 171.1875 145.78125 L 171.265625 144.984375 Z M 171.265625 144.984375 "/>
<path style=" stroke:none;fill-rule:nonzero;fill:rgb(0%,0%,0%);fill-opacity:1;" d="M 191.140625 147.421875 L 189.015625 147.421875 L 189.015625 151.34375 C 189.597656 151.75 190.304688 152.371094 191.140625 153.203125 L 190.53125 153.8125 C 189.90625 153.179688 189.398438 152.703125 189.015625 152.390625 C 188.953125 153.859375 188.160156 154.59375 186.640625 154.59375 C 185.816406 154.59375 185.179688 154.40625 184.734375 154.03125 C 184.285156 153.65625 184.0625 153.136719 184.0625 152.46875 C 184.0625 151.84375 184.285156 151.367188 184.734375 151.03125 C 185.179688 150.6875 185.816406 150.515625 186.640625 150.515625 C 187.148438 150.515625 187.648438 150.621094 188.140625 150.828125 L 188.140625 147.421875 L 184.375 147.421875 L 184.375 146.625 L 188.140625 146.625 L 188.140625 144.625 L 189.015625 144.625 L 189.015625 146.625 L 191.140625 146.625 L 191.140625 147.421875 Z M 182.625 144.921875 C 182.238281 146.414062 182.046875 148.007812 182.046875 149.703125 C 182.046875 151.402344 182.238281 152.996094 182.625 154.484375 L 181.765625 154.59375 C 181.359375 153.085938 181.15625 151.453125 181.15625 149.703125 C 181.15625 147.953125 181.359375 146.324219 181.765625 144.8125 L 182.625 144.921875 Z M 188.140625 151.765625 C 187.628906 151.476562 187.117188 151.328125 186.609375 151.328125 C 185.492188 151.328125 184.9375 151.710938 184.9375 152.46875 C 184.9375 152.898438 185.078125 153.226562 185.359375 153.453125 C 185.648438 153.671875 186.066406 153.78125 186.609375 153.78125 C 187.148438 153.78125 187.539062 153.65625 187.78125 153.40625 C 188.019531 153.15625 188.140625 152.75 188.140625 152.1875 L 188.140625 151.765625 Z M 188.140625 151.765625 "/>
<path style=" stroke:none;fill-rule:nonzero;fill:rgb(0%,0%,0%);fill-opacity:1;" d="M 193.625 152.5625 L 194.234375 152.046875 C 195.066406 152.859375 195.875 153.726562 196.65625 154.640625 L 196.03125 155.109375 C 195.394531 154.347656 194.59375 153.5 193.625 152.5625 Z M 193.625 152.5625 "/>
<path style=" stroke:none;fill-rule:nonzero;fill:rgb(0%,0%,0%);fill-opacity:1;" d="M 213.40625 145.953125 L 214.25 145.65625 C 214.789062 146.667969 215.203125 147.828125 215.484375 149.140625 C 215.773438 150.445312 215.921875 151.792969 215.921875 153.1875 L 215 153.1875 C 215 151.875 214.859375 150.585938 214.578125 149.3125 C 214.304688 148.042969 213.914062 146.921875 213.40625 145.953125 Z M 207.828125 145.84375 C 207.484375 147.085938 207.3125 148.414062 207.3125 149.828125 C 207.3125 150.871094 207.492188 151.746094 207.859375 152.453125 C 208.234375 153.164062 208.609375 153.515625 208.984375 153.515625 C 209.242188 153.515625 209.570312 153.257812 209.96875 152.734375 C 210.375 152.214844 210.757812 151.480469 211.125 150.53125 L 211.953125 150.859375 C 211.554688 151.976562 211.070312 152.851562 210.5 153.484375 C 209.925781 154.109375 209.398438 154.421875 208.921875 154.421875 C 208.296875 154.421875 207.71875 153.976562 207.1875 153.078125 C 206.664062 152.183594 206.40625 151.101562 206.40625 149.828125 C 206.40625 148.320312 206.582031 146.949219 206.9375 145.71875 L 207.828125 145.84375 Z M 207.828125 145.84375 "/>
<path style=" stroke:none;fill-rule:nonzero;fill:rgb(0%,0%,0%);fill-opacity:1;" d="M 226.703125 145.125 C 225.160156 146.355469 223.648438 147.460938 222.171875 148.4375 C 221.703125 148.75 221.398438 148.964844 221.265625 149.078125 C 221.140625 149.195312 221.078125 149.324219 221.078125 149.46875 C 221.078125 149.59375 221.132812 149.714844 221.25 149.828125 C 221.363281 149.933594 221.628906 150.125 222.046875 150.40625 C 223.710938 151.542969 225.390625 152.84375 227.078125 154.3125 L 226.421875 154.953125 C 224.734375 153.507812 223.09375 152.230469 221.5 151.125 C 220.863281 150.6875 220.460938 150.382812 220.296875 150.203125 C 220.128906 150.015625 220.046875 149.773438 220.046875 149.46875 C 220.046875 149.148438 220.128906 148.898438 220.296875 148.71875 C 220.472656 148.53125 220.90625 148.210938 221.59375 147.75 C 223.09375 146.761719 224.597656 145.664062 226.109375 144.453125 L 226.703125 145.125 Z M 226.703125 145.125 "/>
<path style=" stroke:none;fill-rule:nonzero;fill:rgb(0%,0%,0%);fill-opacity:1;" d="M 232.0625 146.734375 C 234.414062 146.109375 236.191406 145.796875 237.390625 145.796875 C 240.410156 145.796875 241.921875 147.058594 241.921875 149.578125 C 241.921875 151.070312 241.273438 152.203125 239.984375 152.984375 C 238.703125 153.757812 236.800781 154.140625 234.28125 154.140625 L 234.21875 153.265625 C 238.695312 153.265625 240.9375 152.070312 240.9375 149.671875 C 240.9375 148.664062 240.640625 147.917969 240.046875 147.4375 C 239.460938 146.949219 238.554688 146.703125 237.328125 146.703125 C 236.242188 146.703125 234.554688 147.007812 232.265625 147.609375 L 232.0625 146.734375 Z M 232.0625 146.734375 "/>
<path style=" stroke:none;fill-rule:nonzero;fill:rgb(0%,0%,0%);fill-opacity:1;" d="M 244.15625 147.625 L 244.15625 146.828125 L 246.5 146.828125 C 246.726562 145.839844 246.898438 144.996094 247.015625 144.296875 L 247.890625 144.390625 C 247.773438 145.089844 247.613281 145.902344 247.40625 146.828125 L 248.484375 146.828125 C 248.847656 146.828125 249.125 146.828125 249.3125 146.828125 C 249.507812 146.828125 249.71875 146.851562 249.9375 146.890625 C 250.164062 146.933594 250.328125 146.96875 250.421875 147 C 250.515625 147.03125 250.613281 147.117188 250.71875 147.25 C 250.832031 147.386719 250.898438 147.507812 250.921875 147.609375 C 250.953125 147.714844 250.984375 147.902344 251.015625 148.171875 C 251.054688 148.433594 251.078125 148.679688 251.078125 148.90625 C 251.078125 149.136719 251.078125 149.46875 251.078125 149.90625 C 251.078125 151.386719 250.898438 152.511719 250.546875 153.28125 C 250.191406 154.039062 249.742188 154.421875 249.203125 154.421875 C 248.523438 154.421875 247.710938 154.203125 246.765625 153.765625 L 247.0625 152.96875 C 247.957031 153.355469 248.613281 153.546875 249.03125 153.546875 C 249.320312 153.546875 249.582031 153.226562 249.8125 152.578125 C 250.039062 151.933594 250.15625 151 250.15625 149.78125 C 250.15625 149.523438 250.15625 149.328125 250.15625 149.203125 C 250.15625 149.078125 250.148438 148.929688 250.140625 148.75 C 250.128906 148.5625 250.117188 148.4375 250.109375 148.375 C 250.109375 148.304688 250.085938 148.214844 250.046875 148.109375 C 250.015625 147.996094 249.988281 147.929688 249.96875 147.90625 C 249.957031 147.875 249.910156 147.835938 249.828125 147.78125 C 249.742188 147.71875 249.679688 147.6875 249.640625 147.6875 C 249.597656 147.679688 249.507812 147.667969 249.375 147.65625 C 249.25 147.636719 249.140625 147.625 249.046875 147.625 C 248.960938 147.625 248.828125 147.625 248.640625 147.625 L 247.21875 147.625 C 246.625 150.03125 245.832031 152.324219 244.84375 154.5 L 244.015625 154.1875 C 244.953125 152.117188 245.71875 149.929688 246.3125 147.625 L 244.15625 147.625 Z M 251.609375 146.046875 L 252.4375 145.75 C 253.332031 147.792969 254.039062 149.824219 254.5625 151.84375 L 253.703125 152.0625 C 253.472656 151.167969 253.160156 150.15625 252.765625 149.03125 C 252.378906 147.90625 251.992188 146.914062 251.609375 146.046875 Z M 251.609375 146.046875 "/>
<path style=" stroke:none;fill-rule:nonzero;fill:rgb(0%,0%,0%);fill-opacity:1;" d="M 263.15625 153.453125 C 264.113281 153.351562 264.859375 152.976562 265.390625 152.328125 C 265.929688 151.671875 266.203125 150.796875 266.203125 149.703125 C 266.203125 148.695312 265.863281 147.855469 265.1875 147.1875 C 264.519531 146.523438 263.660156 146.171875 262.609375 146.140625 C 262.441406 147.695312 262.234375 149.007812 261.984375 150.078125 C 261.734375 151.152344 261.453125 151.964844 261.140625 152.515625 C 260.835938 153.058594 260.535156 153.4375 260.234375 153.65625 C 259.929688 153.875 259.597656 153.984375 259.234375 153.984375 C 258.660156 153.984375 258.128906 153.640625 257.640625 152.953125 C 257.160156 152.257812 256.921875 151.402344 256.921875 150.390625 C 256.921875 148.882812 257.4375 147.65625 258.46875 146.71875 C 259.5 145.773438 260.835938 145.296875 262.484375 145.296875 C 263.804688 145.296875 264.898438 145.714844 265.765625 146.546875 C 266.640625 147.371094 267.078125 148.421875 267.078125 149.703125 C 267.078125 151.039062 266.738281 152.117188 266.0625 152.9375 C 265.382812 153.75 264.472656 154.203125 263.328125 154.296875 L 263.15625 153.453125 Z M 261.703125 146.1875 C 260.515625 146.34375 259.566406 146.804688 258.859375 147.5625 C 258.148438 148.3125 257.796875 149.257812 257.796875 150.390625 C 257.796875 151.140625 257.957031 151.78125 258.28125 152.3125 C 258.601562 152.835938 258.921875 153.09375 259.234375 153.09375 C 259.378906 153.09375 259.53125 153.042969 259.6875 152.9375 C 259.84375 152.835938 260.015625 152.632812 260.203125 152.328125 C 260.398438 152.015625 260.582031 151.617188 260.75 151.125 C 260.914062 150.625 261.082031 149.953125 261.25 149.109375 C 261.425781 148.257812 261.578125 147.28125 261.703125 146.1875 Z M 261.703125 146.1875 "/>
<path style=" stroke:none;fill-rule:nonzero;fill:rgb(0%,0%,0%);fill-opacity:1;" d="M 269.796875 144.71875 L 278.203125 144.71875 L 278.203125 154.921875 L 277.265625 154.921875 L 277.265625 154.15625 L 270.734375 154.15625 L 270.734375 154.921875 L 269.796875 154.921875 L 269.796875 144.71875 Z M 270.734375 148.921875 L 277.265625 148.921875 L 277.265625 145.546875 L 270.734375 145.546875 L 270.734375 148.921875 Z M 270.734375 149.71875 L 270.734375 153.359375 L 277.265625 153.359375 L 277.265625 149.71875 L 270.734375 149.71875 Z M 270.734375 149.71875 "/>
<path style=" stroke:none;fill-rule:nonzero;fill:rgb(0%,0%,0%);fill-opacity:1;" d="M 285.984375 147 L 281.6875 147 L 281.6875 146.171875 L 286.53125 146.171875 L 286.53125 144.203125 L 287.46875 144.203125 L 287.46875 146.171875 L 292.3125 146.171875 L 292.3125 147 L 288.015625 147 C 289.046875 148.992188 290.625 150.917969 292.75 152.78125 L 292.25 153.5625 C 290.257812 151.824219 288.664062 149.859375 287.46875 147.671875 L 287.46875 152.21875 L 290.1875 152.21875 L 290.1875 153.015625 L 287.46875 153.015625 L 287.46875 155.15625 L 286.53125 155.15625 L 286.53125 153.015625 L 283.8125 153.015625 L 283.8125 152.21875 L 286.53125 152.21875 L 286.53125 147.671875 C 285.332031 149.859375 283.738281 151.824219 281.75 153.5625 L 281.25 152.78125 C 283.375 150.917969 284.953125 148.992188 285.984375 147 Z M 285.984375 147 "/>
<path style=" stroke:none;fill-rule:nonzero;fill:rgb(0%,0%,0%);fill-opacity:1;" d="M 295.109375 150.578125 L 295.109375 149.8125 L 298.78125 149.8125 L 298.78125 150.578125 L 295.109375 150.578125 Z M 295.109375 148.875 L 295.109375 148.125 L 298.78125 148.125 L 298.78125 148.875 L 295.109375 148.875 Z M 294.6875 147.1875 L 294.6875 146.375 L 299.15625 146.375 L 299.15625 147.1875 L 294.6875 147.1875 Z M 295.015625 145.484375 L 295.015625 144.703125 L 298.828125 144.703125 L 298.828125 145.484375 L 295.015625 145.484375 Z M 304.046875 153.609375 L 304.046875 151.390625 L 300.5625 151.390625 L 300.5625 153.609375 L 304.046875 153.609375 Z M 301.53125 148.984375 L 303.71875 148.984375 L 303.71875 147.5 L 301.84375 147.5 L 301.53125 148.984375 Z M 295.890625 153.8125 L 298 153.8125 L 298 152.28125 L 295.890625 152.28125 L 295.890625 153.8125 Z M 295.890625 154.578125 L 295.890625 155.109375 L 295.015625 155.109375 L 295.015625 151.515625 L 298.84375 151.515625 L 298.84375 154.578125 L 295.890625 154.578125 Z M 300.5625 154.359375 L 300.5625 154.875 L 299.65625 154.875 L 299.65625 150.609375 L 304.953125 150.609375 L 304.953125 154.875 L 304.046875 154.875 L 304.046875 154.359375 L 300.5625 154.359375 Z M 302 146.765625 L 304.640625 146.765625 L 304.640625 148.984375 L 305.515625 148.984375 L 305.515625 149.765625 L 299.1875 149.765625 L 299.1875 148.984375 L 300.578125 148.984375 L 300.90625 147.5 L 299.703125 147.5 L 299.703125 146.765625 L 301.0625 146.765625 L 301.3125 145.5 L 299.421875 145.5 L 299.421875 144.71875 L 305.203125 144.71875 L 305.203125 145.5 L 302.265625 145.5 L 302 146.765625 Z M 302 146.765625 "/>
<path style=" stroke:none;fill-rule:nonzero;fill:rgb(0%,0%,0%);fill-opacity:1;" d="M 313.15625 153.453125 C 314.113281 153.351562 314.859375 152.976562 315.390625 152.328125 C 315.929688 151.671875 316.203125 150.796875 316.203125 149.703125 C 316.203125 148.695312 315.863281 147.855469 315.1875 147.1875 C 314.519531 146.523438 313.660156 146.171875 312.609375 146.140625 C 312.441406 147.695312 312.234375 149.007812 311.984375 150.078125 C 311.734375 151.152344 311.453125 151.964844 311.140625 152.515625 C 310.835938 153.058594 310.535156 153.4375 310.234375 153.65625 C 309.929688 153.875 309.597656 153.984375 309.234375 153.984375 C 308.660156 153.984375 308.128906 153.640625 307.640625 152.953125 C 307.160156 152.257812 306.921875 151.402344 306.921875 150.390625 C 306.921875 148.882812 307.4375 147.65625 308.46875 146.71875 C 309.5 145.773438 310.835938 145.296875 312.484375 145.296875 C 313.804688 145.296875 314.898438 145.714844 315.765625 146.546875 C 316.640625 147.371094 317.078125 148.421875 317.078125 149.703125 C 317.078125 151.039062 316.738281 152.117188 316.0625 152.9375 C 315.382812 153.75 314.472656 154.203125 313.328125 154.296875 L 313.15625 153.453125 Z M 311.703125 146.1875 C 310.515625 146.34375 309.566406 146.804688 308.859375 147.5625 C 308.148438 148.3125 307.796875 149.257812 307.796875 150.390625 C 307.796875 151.140625 307.957031 151.78125 308.28125 152.3125 C 308.601562 152.835938 308.921875 153.09375 309.234375 153.09375 C 309.378906 153.09375 309.53125 153.042969 309.6875 152.9375 C 309.84375 152.835938 310.015625 152.632812 310.203125 152.328125 C 310.398438 152.015625 310.582031 151.617188 310.75 151.125 C 310.914062 150.625 311.082031 149.953125 311.25 149.109375 C 311.425781 148.257812 311.578125 147.28125 311.703125 146.1875 Z M 311.703125 146.1875 "/>
<path style=" stroke:none;fill-rule:nonzero;fill:rgb(0%,0%,0%);fill-opacity:1;" d="M 321.671875 147.421875 L 322.5625 147.171875 C 323 148.433594 323.53125 149.476562 324.15625 150.296875 C 324.40625 150.632812 324.679688 150.945312 324.984375 151.234375 C 325.597656 150.632812 326.09375 149.96875 326.46875 149.25 C 326.863281 148.5 327.222656 147.636719 327.546875 146.65625 L 319.75 146.65625 L 319.75 145.8125 L 324.515625 145.8125 L 324.515625 144.046875 L 325.484375 144.046875 L 325.484375 145.8125 L 330.25 145.8125 L 330.25 146.65625 L 328.546875 146.65625 C 328.171875 147.8125 327.765625 148.804688 327.328125 149.625 C 326.867188 150.46875 326.316406 151.203125 325.671875 151.828125 C 325.929688 152.027344 326.210938 152.214844 326.515625 152.390625 C 327.453125 152.953125 328.6875 153.46875 330.21875 153.9375 L 329.953125 154.75 C 328.316406 154.269531 326.992188 153.726562 325.984375 153.109375 C 325.628906 152.890625 325.296875 152.664062 324.984375 152.421875 C 324.460938 152.851562 323.898438 153.214844 323.296875 153.515625 C 322.453125 153.953125 321.367188 154.363281 320.046875 154.75 L 319.78125 153.9375 C 320.976562 153.585938 321.984375 153.199219 322.796875 152.78125 C 323.347656 152.5 323.847656 152.183594 324.296875 151.828125 C 323.972656 151.515625 323.679688 151.183594 323.421875 150.828125 C 322.753906 149.964844 322.171875 148.828125 321.671875 147.421875 Z M 321.671875 147.421875 "/>
<path style=" stroke:none;fill-rule:nonzero;fill:rgb(0%,0%,0%);fill-opacity:1;" d="M 341.0625 146.109375 L 332.9375 146.109375 L 332.9375 148.09375 L 332.046875 148.09375 L 332.046875 145.34375 L 336.515625 145.34375 L 336.515625 144.046875 L 337.484375 144.046875 L 337.484375 145.34375 L 341.953125 145.34375 L 341.953125 148.09375 L 341.0625 148.09375 L 341.0625 146.109375 Z M 333.734375 148 L 333.734375 147.203125 L 340.296875 147.203125 L 340.296875 148 C 339.503906 148.804688 338.617188 149.515625 337.640625 150.140625 L 337.640625 150.5625 L 342.4375 150.5625 L 342.4375 151.390625 L 337.640625 151.390625 L 337.640625 153.625 C 337.640625 153.898438 337.632812 154.066406 337.625 154.140625 C 337.613281 154.253906 337.585938 154.367188 337.546875 154.484375 C 337.515625 154.578125 337.46875 154.65625 337.40625 154.71875 C 337.363281 154.757812 337.28125 154.800781 337.15625 154.84375 C 337.03125 154.875 336.898438 154.894531 336.765625 154.90625 C 336.660156 154.914062 336.46875 154.921875 336.1875 154.921875 C 335.914062 154.921875 335.289062 154.898438 334.3125 154.859375 L 334.28125 154.03125 C 335.21875 154.070312 335.820312 154.09375 336.09375 154.09375 C 336.382812 154.09375 336.550781 154.066406 336.59375 154.015625 C 336.644531 153.976562 336.671875 153.808594 336.671875 153.515625 L 336.671875 151.390625 L 331.5625 151.390625 L 331.5625 150.5625 L 336.671875 150.5625 L 336.671875 149.4375 L 337.140625 149.4375 C 337.816406 149.011719 338.453125 148.53125 339.046875 148 L 333.734375 148 Z M 333.734375 148 "/>
<path style=" stroke:none;fill-rule:nonzero;fill:rgb(0%,0%,0%);fill-opacity:1;" d="M 343.984375 145.640625 C 347.171875 145.640625 350.410156 145.558594 353.703125 145.390625 L 353.75 146.234375 C 351.726562 146.421875 350.175781 146.90625 349.09375 147.6875 C 348.007812 148.46875 347.46875 149.429688 347.46875 150.5625 C 347.46875 151.511719 347.773438 152.261719 348.390625 152.8125 C 349.015625 153.355469 349.847656 153.625 350.890625 153.625 C 351.359375 153.625 351.859375 153.585938 352.390625 153.5 L 352.484375 154.34375 C 351.921875 154.4375 351.375 154.484375 350.84375 154.484375 C 349.53125 154.484375 348.476562 154.132812 347.6875 153.4375 C 346.894531 152.742188 346.5 151.808594 346.5 150.640625 C 346.5 149.703125 346.804688 148.867188 347.421875 148.125 C 348.046875 147.375 348.929688 146.789062 350.078125 146.359375 L 350.0625 146.328125 C 347.988281 146.421875 345.960938 146.46875 343.984375 146.46875 L 343.984375 145.640625 Z M 350.71875 148.171875 L 351.421875 147.765625 C 351.929688 148.507812 352.359375 149.148438 352.703125 149.6875 L 351.984375 150.078125 C 351.535156 149.351562 351.113281 148.714844 350.71875 148.171875 Z M 353.671875 149.734375 C 353.296875 149.109375 352.859375 148.453125 352.359375 147.765625 L 353.078125 147.359375 C 353.578125 148.070312 354.015625 148.730469 354.390625 149.34375 L 353.671875 149.734375 Z M 353.671875 149.734375 "/>
<path style=" stroke:none;fill-rule:nonzero;fill:rgb(0%,0%,0%);fill-opacity:1;" d="M 355.875 145.828125 L 361.953125 145.828125 L 361.953125 144.265625 L 362.84375 144.265625 L 362.84375 145.828125 L 366.125 145.828125 L 366.125 146.578125 L 362.84375 146.578125 L 362.84375 149.265625 C 362.988281 149.703125 363.0625 150.199219 363.0625 150.75 C 363.0625 151.9375 362.738281 152.84375 362.09375 153.46875 C 361.457031 154.09375 360.429688 154.503906 359.015625 154.703125 L 358.875 153.875 C 360 153.730469 360.828125 153.445312 361.359375 153.015625 C 361.890625 152.589844 362.175781 152 362.21875 151.25 L 362.21875 151.09375 L 362.1875 151.09375 C 361.820312 151.636719 361.210938 151.90625 360.359375 151.90625 C 359.703125 151.90625 359.148438 151.6875 358.703125 151.25 C 358.253906 150.8125 358.03125 150.273438 358.03125 149.625 C 358.03125 148.96875 358.253906 148.429688 358.703125 148 C 359.148438 147.5625 359.703125 147.34375 360.359375 147.34375 C 360.972656 147.34375 361.5 147.523438 361.9375 147.875 L 361.953125 147.875 L 361.953125 146.578125 L 355.875 146.578125 L 355.875 145.828125 Z M 358.9375 149.625 C 358.9375 150.042969 359.085938 150.398438 359.390625 150.6875 C 359.691406 150.96875 360.0625 151.109375 360.5 151.109375 C 360.945312 151.109375 361.316406 150.96875 361.609375 150.6875 C 361.910156 150.398438 362.0625 150.042969 362.0625 149.625 C 362.0625 149.210938 361.910156 148.859375 361.609375 148.578125 C 361.316406 148.289062 360.945312 148.140625 360.5 148.140625 C 360.0625 148.140625 359.691406 148.289062 359.390625 148.578125 C 359.085938 148.871094 358.9375 149.21875 358.9375 149.625 Z M 358.9375 149.625 "/>
<path style=" stroke:none;fill-rule:evenodd;fill:rgb(0%,100%,0%);fill-opacity:1;" d="M 53 255.5 L 53 242.5 L 303 242.5 L 303 255.5 L 53 255.5 Z M 53 255.5 "/>
<path style=" stroke:none;fill-rule:evenodd;fill:rgb(0%,0%,0%);fill-opacity:1;" d="M 56.453125 244.75 L 56.453125 252.484375 C 56.453125 252.808594 56.476562 253.089844 56.53125 253.328125 C 56.5625 253.433594 56.601562 253.5 56.65625 253.53125 C 56.71875 253.5625 56.84375 253.585938 57.03125 253.59375 L 57.4375 253.625 L 57.546875 253.640625 L 57.546875 254 L 54.21875 254 L 54.21875 253.640625 L 54.328125 253.625 L 54.71875 253.59375 C 54.945312 253.585938 55.09375 253.546875 55.15625 253.484375 C 55.21875 253.421875 55.253906 253.28125 55.265625 253.0625 L 55.296875 252.484375 L 55.296875 246.265625 L 55.265625 245.6875 C 55.253906 245.460938 55.21875 245.320312 55.15625 245.265625 C 55.09375 245.203125 54.945312 245.164062 54.71875 245.140625 L 54.328125 245.109375 L 54.21875 245.109375 L 54.21875 244.75 L 56.453125 244.75 Z M 62.277344 253.125 C 61.890625 253.5 61.546875 253.765625 61.246094 253.921875 C 60.941406 254.066406 60.605469 254.140625 60.230469 254.140625 C 59.699219 254.140625 59.25 253.976562 58.886719 253.640625 C 58.53125 253.296875 58.355469 252.867188 58.355469 252.34375 C 58.355469 251.742188 58.589844 251.25 59.058594 250.875 C 59.347656 250.648438 59.699219 250.484375 60.105469 250.390625 C 60.511719 250.289062 61.066406 250.234375 61.777344 250.234375 L 62.011719 250.234375 L 62.011719 249.453125 C 62.011719 248.445312 61.628906 247.9375 60.871094 247.9375 C 60.515625 247.9375 60.199219 248.046875 59.917969 248.265625 C 59.761719 248.402344 59.660156 248.671875 59.621094 249.078125 L 59.621094 249.1875 L 58.824219 249.1875 L 58.824219 248.03125 C 59.636719 247.679688 60.386719 247.5 61.074219 247.5 C 61.675781 247.5 62.171875 247.640625 62.558594 247.921875 C 62.785156 248.101562 62.941406 248.292969 63.027344 248.5 C 63.121094 248.710938 63.167969 249.011719 63.167969 249.40625 L 63.167969 252.234375 C 63.167969 252.746094 63.207031 253.105469 63.292969 253.3125 C 63.386719 253.523438 63.542969 253.625 63.761719 253.625 C 63.832031 253.625 63.9375 253.605469 64.074219 253.5625 L 64.105469 254 C 63.824219 254.09375 63.574219 254.140625 63.355469 254.140625 C 62.78125 254.140625 62.421875 253.804688 62.277344 253.125 Z M 62.011719 253 L 62.011719 250.59375 L 61.746094 250.59375 C 61.058594 250.59375 60.519531 250.734375 60.136719 251.015625 C 59.761719 251.296875 59.574219 251.6875 59.574219 252.1875 C 59.574219 252.554688 59.6875 252.855469 59.917969 253.09375 C 60.15625 253.335938 60.453125 253.453125 60.808594 253.453125 C 61.152344 253.453125 61.550781 253.304688 62.011719 253 Z M 65.214844 254.078125 L 65.214844 246.265625 L 65.183594 245.6875 C 65.160156 245.460938 65.121094 245.320312 65.058594 245.265625 C 65.003906 245.203125 64.863281 245.164062 64.636719 245.140625 L 64.246094 245.109375 L 64.136719 245.109375 L 64.136719 244.75 L 66.371094 244.75 L 66.371094 248.828125 C 66.941406 247.945312 67.6875 247.5 68.605469 247.5 C 69.324219 247.5 69.894531 247.78125 70.324219 248.34375 C 70.75 248.90625 70.964844 249.667969 70.964844 250.625 C 70.964844 251.6875 70.71875 252.542969 70.230469 253.1875 C 69.738281 253.824219 69.09375 254.140625 68.292969 254.140625 C 67.542969 254.140625 66.902344 253.855469 66.371094 253.28125 L 66.292969 253.28125 L 66.152344 254.078125 L 65.214844 254.078125 Z M 66.371094 252.828125 C 66.984375 253.277344 67.574219 253.5 68.136719 253.5 C 68.65625 253.5 69.050781 253.28125 69.324219 252.84375 C 69.59375 252.40625 69.730469 251.777344 69.730469 250.953125 C 69.730469 250.046875 69.597656 249.371094 69.339844 248.921875 C 69.089844 248.464844 68.703125 248.234375 68.183594 248.234375 C 67.859375 248.234375 67.535156 248.328125 67.214844 248.515625 C 66.890625 248.695312 66.609375 248.933594 66.371094 249.234375 L 66.371094 252.828125 Z M 77.363281 253.71875 C 76.621094 254 75.949219 254.140625 75.347656 254.140625 C 74.410156 254.140625 73.648438 253.828125 73.066406 253.203125 C 72.480469 252.578125 72.191406 251.761719 72.191406 250.75 C 72.191406 249.792969 72.449219 249.011719 72.972656 248.40625 C 73.503906 247.804688 74.175781 247.5 74.988281 247.5 C 75.757812 247.5 76.347656 247.757812 76.753906 248.265625 C 77.160156 248.777344 77.363281 249.507812 77.363281 250.453125 L 77.363281 250.5625 L 73.472656 250.5625 C 73.472656 251.4375 73.589844 252.09375 73.832031 252.53125 C 74.207031 253.21875 74.773438 253.5625 75.535156 253.5625 C 76.242188 253.5625 76.851562 253.417969 77.363281 253.125 L 77.363281 253.71875 Z M 73.488281 250.203125 L 76.128906 250.203125 L 76.144531 249.9375 C 76.144531 249.480469 76.121094 249.140625 76.082031 248.921875 C 76.039062 248.703125 75.957031 248.511719 75.832031 248.34375 C 75.613281 248.023438 75.308594 247.859375 74.925781 247.859375 C 74.488281 247.859375 74.136719 248.074219 73.878906 248.5 C 73.617188 248.917969 73.488281 249.484375 73.488281 250.203125 Z M 80.421875 244.75 L 80.421875 252.484375 C 80.421875 252.808594 80.445312 253.089844 80.5 253.328125 C 80.53125 253.433594 80.570312 253.5 80.625 253.53125 C 80.6875 253.5625 80.8125 253.585938 81 253.59375 L 81.40625 253.625 L 81.515625 253.640625 L 81.515625 254 L 78.1875 254 L 78.1875 253.640625 L 78.296875 253.625 L 78.6875 253.59375 C 78.914062 253.585938 79.0625 253.546875 79.125 253.484375 C 79.1875 253.421875 79.222656 253.28125 79.234375 253.0625 L 79.265625 252.484375 L 79.265625 246.265625 L 79.234375 245.6875 C 79.222656 245.460938 79.1875 245.320312 79.125 245.265625 C 79.0625 245.203125 78.914062 245.164062 78.6875 245.140625 L 78.296875 245.109375 L 78.1875 245.109375 L 78.1875 244.75 L 80.421875 244.75 Z M 88.023438 246.28125 L 88.023438 245.46875 L 94.867188 245.46875 L 94.867188 246.28125 L 88.023438 246.28125 Z M 95.601562 253.90625 C 95.109375 254.050781 94.460938 254.171875 93.648438 254.265625 C 92.84375 254.367188 92.117188 254.421875 91.460938 254.421875 C 90.074219 254.421875 88.976562 254.191406 88.164062 253.734375 C 87.351562 253.277344 86.945312 252.667969 86.945312 251.90625 C 86.945312 251.136719 87.515625 250.1875 88.664062 249.0625 L 89.335938 249.59375 C 88.367188 250.542969 87.882812 251.289062 87.882812 251.828125 C 87.882812 252.359375 88.199219 252.789062 88.835938 253.109375 C 89.46875 253.421875 90.34375 253.578125 91.460938 253.578125 C 92.085938 253.578125 92.777344 253.53125 93.539062 253.4375 C 94.296875 253.335938 94.921875 253.210938 95.414062 253.0625 L 95.601562 253.90625 Z M 98.132812 246.546875 L 100.945312 246.546875 L 100.945312 244.515625 L 101.820312 244.515625 L 101.820312 248.28125 C 102.734375 247.449219 103.480469 246.855469 104.054688 246.5 C 104.636719 246.136719 105.121094 245.953125 105.507812 245.953125 C 105.964844 245.953125 106.292969 246.125 106.492188 246.46875 C 106.699219 246.8125 106.804688 247.414062 106.804688 248.265625 C 106.804688 248.746094 106.757812 249.328125 106.664062 250.015625 C 106.570312 250.734375 106.523438 251.3125 106.523438 251.75 C 106.523438 252.34375 106.574219 252.742188 106.679688 252.9375 C 106.78125 253.125 106.921875 253.21875 107.101562 253.21875 C 107.484375 253.21875 108.011719 252.855469 108.679688 252.125 L 109.164062 252.75 C 108.796875 253.167969 108.402344 253.507812 107.976562 253.765625 C 107.558594 254.015625 107.195312 254.140625 106.882812 254.140625 C 106.421875 254.140625 106.09375 253.96875 105.898438 253.625 C 105.699219 253.273438 105.601562 252.671875 105.601562 251.828125 C 105.601562 251.359375 105.648438 250.777344 105.742188 250.078125 C 105.835938 249.359375 105.882812 248.78125 105.882812 248.34375 C 105.882812 247.75 105.828125 247.355469 105.726562 247.15625 C 105.632812 246.960938 105.492188 246.859375 105.304688 246.859375 C 104.835938 246.859375 103.671875 247.71875 101.820312 249.4375 L 101.820312 254.78125 L 100.945312 254.78125 L 100.945312 250.28125 L 98.554688 252.640625 L 97.976562 252.046875 L 100.945312 249.109375 L 100.945312 247.34375 L 98.132812 247.34375 L 98.132812 246.546875 Z M 112.773438 247.140625 C 112.667969 248.058594 112.527344 249.007812 112.351562 249.984375 L 112.367188 250 C 112.898438 249.585938 113.539062 249.246094 114.289062 248.984375 C 115.039062 248.726562 115.742188 248.59375 116.398438 248.59375 C 118.636719 248.59375 119.757812 249.484375 119.757812 251.265625 C 119.757812 252.320312 119.320312 253.121094 118.445312 253.671875 C 117.578125 254.222656 116.289062 254.5 114.570312 254.5 C 113.789062 254.5 112.964844 254.453125 112.101562 254.359375 L 112.148438 253.546875 C 113.148438 253.652344 113.953125 253.703125 114.570312 253.703125 C 115.945312 253.703125 116.980469 253.5 117.679688 253.09375 C 118.386719 252.679688 118.742188 252.070312 118.742188 251.265625 C 118.742188 250.007812 117.921875 249.375 116.289062 249.375 C 115.664062 249.375 114.953125 249.539062 114.164062 249.859375 C 113.382812 250.171875 112.695312 250.574219 112.101562 251.0625 L 111.273438 250.84375 C 111.523438 249.449219 111.726562 248.183594 111.882812 247.046875 L 112.773438 247.140625 Z M 112.789062 245.03125 C 114.640625 245.273438 116.433594 245.390625 118.164062 245.390625 L 118.164062 246.1875 C 116.359375 246.1875 114.539062 246.070312 112.695312 245.828125 L 112.789062 245.03125 Z M 132.523438 247.421875 L 130.398438 247.421875 L 130.398438 251.34375 C 130.980469 251.75 131.6875 252.371094 132.523438 253.203125 L 131.914062 253.8125 C 131.289062 253.179688 130.78125 252.703125 130.398438 252.390625 C 130.335938 253.859375 129.542969 254.59375 128.023438 254.59375 C 127.199219 254.59375 126.5625 254.40625 126.117188 254.03125 C 125.667969 253.65625 125.445312 253.136719 125.445312 252.46875 C 125.445312 251.84375 125.667969 251.367188 126.117188 251.03125 C 126.5625 250.6875 127.199219 250.515625 128.023438 250.515625 C 128.53125 250.515625 129.03125 250.621094 129.523438 250.828125 L 129.523438 247.421875 L 125.757812 247.421875 L 125.757812 246.625 L 129.523438 246.625 L 129.523438 244.625 L 130.398438 244.625 L 130.398438 246.625 L 132.523438 246.625 L 132.523438 247.421875 Z M 124.007812 244.921875 C 123.621094 246.414062 123.429688 248.007812 123.429688 249.703125 C 123.429688 251.402344 123.621094 252.996094 124.007812 254.484375 L 123.148438 254.59375 C 122.742188 253.085938 122.539062 251.453125 122.539062 249.703125 C 122.539062 247.953125 122.742188 246.324219 123.148438 244.8125 L 124.007812 244.921875 Z M 129.523438 251.765625 C 129.011719 251.476562 128.5 251.328125 127.992188 251.328125 C 126.875 251.328125 126.320312 251.710938 126.320312 252.46875 C 126.320312 252.898438 126.460938 253.226562 126.742188 253.453125 C 127.03125 253.671875 127.449219 253.78125 127.992188 253.78125 C 128.53125 253.78125 128.921875 253.65625 129.164062 253.40625 C 129.402344 253.15625 129.523438 252.75 129.523438 252.1875 L 129.523438 251.765625 Z M 134.007812 252.5625 L 134.617188 252.046875 C 135.449219 252.859375 136.257812 253.726562 137.039062 254.640625 L 136.414062 255.109375 C 135.777344 254.347656 134.976562 253.5 134.007812 252.5625 Z M 153.789062 245.953125 L 154.632812 245.65625 C 155.171875 246.667969 155.585938 247.828125 155.867188 249.140625 C 156.15625 250.445312 156.304688 251.792969 156.304688 253.1875 L 155.382812 253.1875 C 155.382812 251.875 155.242188 250.585938 154.960938 249.3125 C 154.6875 248.042969 154.296875 246.921875 153.789062 245.953125 Z M 148.210938 245.84375 C 147.867188 247.085938 147.695312 248.414062 147.695312 249.828125 C 147.695312 250.871094 147.875 251.746094 148.242188 252.453125 C 148.617188 253.164062 148.992188 253.515625 149.367188 253.515625 C 149.625 253.515625 149.953125 253.257812 150.351562 252.734375 C 150.757812 252.214844 151.140625 251.480469 151.507812 250.53125 L 152.335938 250.859375 C 151.9375 251.976562 151.453125 252.851562 150.882812 253.484375 C 150.308594 254.109375 149.78125 254.421875 149.304688 254.421875 C 148.679688 254.421875 148.101562 253.976562 147.570312 253.078125 C 147.046875 252.183594 146.789062 251.101562 146.789062 249.828125 C 146.789062 248.320312 146.964844 246.949219 147.320312 245.71875 L 148.210938 245.84375 Z M 166.085938 245.125 C 164.542969 246.355469 163.03125 247.460938 161.554688 248.4375 C 161.085938 248.75 160.78125 248.964844 160.648438 249.078125 C 160.523438 249.195312 160.460938 249.324219 160.460938 249.46875 C 160.460938 249.59375 160.515625 249.714844 160.632812 249.828125 C 160.746094 249.933594 161.011719 250.125 161.429688 250.40625 C 163.09375 251.542969 164.773438 252.84375 166.460938 254.3125 L 165.804688 254.953125 C 164.117188 253.507812 162.476562 252.230469 160.882812 251.125 C 160.246094 250.6875 159.84375 250.382812 159.679688 250.203125 C 159.511719 250.015625 159.429688 249.773438 159.429688 249.46875 C 159.429688 249.148438 159.511719 248.898438 159.679688 248.71875 C 159.855469 248.53125 160.289062 248.210938 160.976562 247.75 C 162.476562 246.761719 163.980469 245.664062 165.492188 244.453125 L 166.085938 245.125 Z M 170.445312 246.734375 C 172.796875 246.109375 174.574219 245.796875 175.773438 245.796875 C 178.792969 245.796875 180.304688 247.058594 180.304688 249.578125 C 180.304688 251.070312 179.65625 252.203125 178.367188 252.984375 C 177.085938 253.757812 175.183594 254.140625 172.664062 254.140625 L 172.601562 253.265625 C 177.078125 253.265625 179.320312 252.070312 179.320312 249.671875 C 179.320312 248.664062 179.023438 247.917969 178.429688 247.4375 C 177.84375 246.949219 176.9375 246.703125 175.710938 246.703125 C 174.625 246.703125 172.9375 247.007812 170.648438 247.609375 L 170.445312 246.734375 Z M 182.539062 247.625 L 182.539062 246.828125 L 184.882812 246.828125 C 185.109375 245.839844 185.28125 244.996094 185.398438 244.296875 L 186.273438 244.390625 C 186.15625 245.089844 185.996094 245.902344 185.789062 246.828125 L 186.867188 246.828125 C 187.230469 246.828125 187.507812 246.828125 187.695312 246.828125 C 187.890625 246.828125 188.101562 246.851562 188.320312 246.890625 C 188.546875 246.933594 188.710938 246.96875 188.804688 247 C 188.898438 247.03125 188.996094 247.117188 189.101562 247.25 C 189.214844 247.386719 189.28125 247.507812 189.304688 247.609375 C 189.335938 247.714844 189.367188 247.902344 189.398438 248.171875 C 189.4375 248.433594 189.460938 248.679688 189.460938 248.90625 C 189.460938 249.136719 189.460938 249.46875 189.460938 249.90625 C 189.460938 251.386719 189.28125 252.511719 188.929688 253.28125 C 188.574219 254.039062 188.125 254.421875 187.585938 254.421875 C 186.90625 254.421875 186.09375 254.203125 185.148438 253.765625 L 185.445312 252.96875 C 186.339844 253.355469 186.996094 253.546875 187.414062 253.546875 C 187.703125 253.546875 187.964844 253.226562 188.195312 252.578125 C 188.421875 251.933594 188.539062 251 188.539062 249.78125 C 188.539062 249.523438 188.539062 249.328125 188.539062 249.203125 C 188.539062 249.078125 188.53125 248.929688 188.523438 248.75 C 188.511719 248.5625 188.5 248.4375 188.492188 248.375 C 188.492188 248.304688 188.46875 248.214844 188.429688 248.109375 C 188.398438 247.996094 188.371094 247.929688 188.351562 247.90625 C 188.339844 247.875 188.292969 247.835938 188.210938 247.78125 C 188.125 247.71875 188.0625 247.6875 188.023438 247.6875 C 187.980469 247.679688 187.890625 247.667969 187.757812 247.65625 C 187.632812 247.636719 187.523438 247.625 187.429688 247.625 C 187.34375 247.625 187.210938 247.625 187.023438 247.625 L 185.601562 247.625 C 185.007812 250.03125 184.214844 252.324219 183.226562 254.5 L 182.398438 254.1875 C 183.335938 252.117188 184.101562 249.929688 184.695312 247.625 L 182.539062 247.625 Z M 189.992188 246.046875 L 190.820312 245.75 C 191.714844 247.792969 192.421875 249.824219 192.945312 251.84375 L 192.085938 252.0625 C 191.855469 251.167969 191.542969 250.15625 191.148438 249.03125 C 190.761719 247.90625 190.375 246.914062 189.992188 246.046875 Z M 200.539062 253.453125 C 201.496094 253.351562 202.242188 252.976562 202.773438 252.328125 C 203.3125 251.671875 203.585938 250.796875 203.585938 249.703125 C 203.585938 248.695312 203.246094 247.855469 202.570312 247.1875 C 201.902344 246.523438 201.042969 246.171875 199.992188 246.140625 C 199.824219 247.695312 199.617188 249.007812 199.367188 250.078125 C 199.117188 251.152344 198.835938 251.964844 198.523438 252.515625 C 198.21875 253.058594 197.917969 253.4375 197.617188 253.65625 C 197.3125 253.875 196.980469 253.984375 196.617188 253.984375 C 196.042969 253.984375 195.511719 253.640625 195.023438 252.953125 C 194.542969 252.257812 194.304688 251.402344 194.304688 250.390625 C 194.304688 248.882812 194.820312 247.65625 195.851562 246.71875 C 196.882812 245.773438 198.21875 245.296875 199.867188 245.296875 C 201.1875 245.296875 202.28125 245.714844 203.148438 246.546875 C 204.023438 247.371094 204.460938 248.421875 204.460938 249.703125 C 204.460938 251.039062 204.121094 252.117188 203.445312 252.9375 C 202.765625 253.75 201.855469 254.203125 200.710938 254.296875 L 200.539062 253.453125 Z M 199.085938 246.1875 C 197.898438 246.34375 196.949219 246.804688 196.242188 247.5625 C 195.53125 248.3125 195.179688 249.257812 195.179688 250.390625 C 195.179688 251.140625 195.339844 251.78125 195.664062 252.3125 C 195.984375 252.835938 196.304688 253.09375 196.617188 253.09375 C 196.761719 253.09375 196.914062 253.042969 197.070312 252.9375 C 197.226562 252.835938 197.398438 252.632812 197.585938 252.328125 C 197.78125 252.015625 197.964844 251.617188 198.132812 251.125 C 198.296875 250.625 198.464844 249.953125 198.632812 249.109375 C 198.808594 248.257812 198.960938 247.28125 199.085938 246.1875 Z M 207.179688 244.71875 L 215.585938 244.71875 L 215.585938 254.921875 L 214.648438 254.921875 L 214.648438 254.15625 L 208.117188 254.15625 L 208.117188 254.921875 L 207.179688 254.921875 L 207.179688 244.71875 Z M 208.117188 248.921875 L 214.648438 248.921875 L 214.648438 245.546875 L 208.117188 245.546875 L 208.117188 248.921875 Z M 208.117188 249.71875 L 208.117188 253.359375 L 214.648438 253.359375 L 214.648438 249.71875 L 208.117188 249.71875 Z M 222.367188 247 L 218.070312 247 L 218.070312 246.171875 L 222.914062 246.171875 L 222.914062 244.203125 L 223.851562 244.203125 L 223.851562 246.171875 L 228.695312 246.171875 L 228.695312 247 L 224.398438 247 C 225.429688 248.992188 227.007812 250.917969 229.132812 252.78125 L 228.632812 253.5625 C 226.640625 251.824219 225.046875 249.859375 223.851562 247.671875 L 223.851562 252.21875 L 226.570312 252.21875 L 226.570312 253.015625 L 223.851562 253.015625 L 223.851562 255.15625 L 222.914062 255.15625 L 222.914062 253.015625 L 220.195312 253.015625 L 220.195312 252.21875 L 222.914062 252.21875 L 222.914062 247.671875 C 221.714844 249.859375 220.121094 251.824219 218.132812 253.5625 L 217.632812 252.78125 C 219.757812 250.917969 221.335938 248.992188 222.367188 247 Z M 230.492188 250.578125 L 230.492188 249.8125 L 234.164062 249.8125 L 234.164062 250.578125 L 230.492188 250.578125 Z M 230.492188 248.875 L 230.492188 248.125 L 234.164062 248.125 L 234.164062 248.875 L 230.492188 248.875 Z M 230.070312 247.1875 L 230.070312 246.375 L 234.539062 246.375 L 234.539062 247.1875 L 230.070312 247.1875 Z M 230.398438 245.484375 L 230.398438 244.703125 L 234.210938 244.703125 L 234.210938 245.484375 L 230.398438 245.484375 Z M 239.429688 253.609375 L 239.429688 251.390625 L 235.945312 251.390625 L 235.945312 253.609375 L 239.429688 253.609375 Z M 236.914062 248.984375 L 239.101562 248.984375 L 239.101562 247.5 L 237.226562 247.5 L 236.914062 248.984375 Z M 231.273438 253.8125 L 233.382812 253.8125 L 233.382812 252.28125 L 231.273438 252.28125 L 231.273438 253.8125 Z M 231.273438 254.578125 L 231.273438 255.109375 L 230.398438 255.109375 L 230.398438 251.515625 L 234.226562 251.515625 L 234.226562 254.578125 L 231.273438 254.578125 Z M 235.945312 254.359375 L 235.945312 254.875 L 235.039062 254.875 L 235.039062 250.609375 L 240.335938 250.609375 L 240.335938 254.875 L 239.429688 254.875 L 239.429688 254.359375 L 235.945312 254.359375 Z M 237.382812 246.765625 L 240.023438 246.765625 L 240.023438 248.984375 L 240.898438 248.984375 L 240.898438 249.765625 L 234.570312 249.765625 L 234.570312 248.984375 L 235.960938 248.984375 L 236.289062 247.5 L 235.085938 247.5 L 235.085938 246.765625 L 236.445312 246.765625 L 236.695312 245.5 L 234.804688 245.5 L 234.804688 244.71875 L 240.585938 244.71875 L 240.585938 245.5 L 237.648438 245.5 L 237.382812 246.765625 Z M 248.539062 253.453125 C 249.496094 253.351562 250.242188 252.976562 250.773438 252.328125 C 251.3125 251.671875 251.585938 250.796875 251.585938 249.703125 C 251.585938 248.695312 251.246094 247.855469 250.570312 247.1875 C 249.902344 246.523438 249.042969 246.171875 247.992188 246.140625 C 247.824219 247.695312 247.617188 249.007812 247.367188 250.078125 C 247.117188 251.152344 246.835938 251.964844 246.523438 252.515625 C 246.21875 253.058594 245.917969 253.4375 245.617188 253.65625 C 245.3125 253.875 244.980469 253.984375 244.617188 253.984375 C 244.042969 253.984375 243.511719 253.640625 243.023438 252.953125 C 242.542969 252.257812 242.304688 251.402344 242.304688 250.390625 C 242.304688 248.882812 242.820312 247.65625 243.851562 246.71875 C 244.882812 245.773438 246.21875 245.296875 247.867188 245.296875 C 249.1875 245.296875 250.28125 245.714844 251.148438 246.546875 C 252.023438 247.371094 252.460938 248.421875 252.460938 249.703125 C 252.460938 251.039062 252.121094 252.117188 251.445312 252.9375 C 250.765625 253.75 249.855469 254.203125 248.710938 254.296875 L 248.539062 253.453125 Z M 247.085938 246.1875 C 245.898438 246.34375 244.949219 246.804688 244.242188 247.5625 C 243.53125 248.3125 243.179688 249.257812 243.179688 250.390625 C 243.179688 251.140625 243.339844 251.78125 243.664062 252.3125 C 243.984375 252.835938 244.304688 253.09375 244.617188 253.09375 C 244.761719 253.09375 244.914062 253.042969 245.070312 252.9375 C 245.226562 252.835938 245.398438 252.632812 245.585938 252.328125 C 245.78125 252.015625 245.964844 251.617188 246.132812 251.125 C 246.296875 250.625 246.464844 249.953125 246.632812 249.109375 C 246.808594 248.257812 246.960938 247.28125 247.085938 246.1875 Z M 256.054688 247.421875 L 256.945312 247.171875 C 257.382812 248.433594 257.914062 249.476562 258.539062 250.296875 C 258.789062 250.632812 259.0625 250.945312 259.367188 251.234375 C 259.980469 250.632812 260.476562 249.96875 260.851562 249.25 C 261.246094 248.5 261.605469 247.636719 261.929688 246.65625 L 254.132812 246.65625 L 254.132812 245.8125 L 258.898438 245.8125 L 258.898438 244.046875 L 259.867188 244.046875 L 259.867188 245.8125 L 264.632812 245.8125 L 264.632812 246.65625 L 262.929688 246.65625 C 262.554688 247.8125 262.148438 248.804688 261.710938 249.625 C 261.25 250.46875 260.699219 251.203125 260.054688 251.828125 C 260.3125 252.027344 260.59375 252.214844 260.898438 252.390625 C 261.835938 252.953125 263.070312 253.46875 264.601562 253.9375 L 264.335938 254.75 C 262.699219 254.269531 261.375 253.726562 260.367188 253.109375 C 260.011719 252.890625 259.679688 252.664062 259.367188 252.421875 C 258.84375 252.851562 258.28125 253.214844 257.679688 253.515625 C 256.835938 253.953125 255.75 254.363281 254.429688 254.75 L 254.164062 253.9375 C 255.359375 253.585938 256.367188 253.199219 257.179688 252.78125 C 257.730469 252.5 258.230469 252.183594 258.679688 251.828125 C 258.355469 251.515625 258.0625 251.183594 257.804688 250.828125 C 257.136719 249.964844 256.554688 248.828125 256.054688 247.421875 Z M 275.445312 246.109375 L 267.320312 246.109375 L 267.320312 248.09375 L 266.429688 248.09375 L 266.429688 245.34375 L 270.898438 245.34375 L 270.898438 244.046875 L 271.867188 244.046875 L 271.867188 245.34375 L 276.335938 245.34375 L 276.335938 248.09375 L 275.445312 248.09375 L 275.445312 246.109375 Z M 268.117188 248 L 268.117188 247.203125 L 274.679688 247.203125 L 274.679688 248 C 273.886719 248.804688 273 249.515625 272.023438 250.140625 L 272.023438 250.5625 L 276.820312 250.5625 L 276.820312 251.390625 L 272.023438 251.390625 L 272.023438 253.625 C 272.023438 253.898438 272.015625 254.066406 272.007812 254.140625 C 271.996094 254.253906 271.96875 254.367188 271.929688 254.484375 C 271.898438 254.578125 271.851562 254.65625 271.789062 254.71875 C 271.746094 254.757812 271.664062 254.800781 271.539062 254.84375 C 271.414062 254.875 271.28125 254.894531 271.148438 254.90625 C 271.042969 254.914062 270.851562 254.921875 270.570312 254.921875 C 270.296875 254.921875 269.671875 254.898438 268.695312 254.859375 L 268.664062 254.03125 C 269.601562 254.070312 270.203125 254.09375 270.476562 254.09375 C 270.765625 254.09375 270.933594 254.066406 270.976562 254.015625 C 271.027344 253.976562 271.054688 253.808594 271.054688 253.515625 L 271.054688 251.390625 L 265.945312 251.390625 L 265.945312 250.5625 L 271.054688 250.5625 L 271.054688 249.4375 L 271.523438 249.4375 C 272.199219 249.011719 272.835938 248.53125 273.429688 248 L 268.117188 248 Z M 278.367188 245.640625 C 281.554688 245.640625 284.792969 245.558594 288.085938 245.390625 L 288.132812 246.234375 C 286.109375 246.421875 284.558594 246.90625 283.476562 247.6875 C 282.390625 248.46875 281.851562 249.429688 281.851562 250.5625 C 281.851562 251.511719 282.15625 252.261719 282.773438 252.8125 C 283.398438 253.355469 284.230469 253.625 285.273438 253.625 C 285.742188 253.625 286.242188 253.585938 286.773438 253.5 L 286.867188 254.34375 C 286.304688 254.4375 285.757812 254.484375 285.226562 254.484375 C 283.914062 254.484375 282.859375 254.132812 282.070312 253.4375 C 281.277344 252.742188 280.882812 251.808594 280.882812 250.640625 C 280.882812 249.703125 281.1875 248.867188 281.804688 248.125 C 282.429688 247.375 283.3125 246.789062 284.460938 246.359375 L 284.445312 246.328125 C 282.371094 246.421875 280.34375 246.46875 278.367188 246.46875 L 278.367188 245.640625 Z M 285.101562 248.171875 L 285.804688 247.765625 C 286.3125 248.507812 286.742188 249.148438 287.085938 249.6875 L 286.367188 250.078125 C 285.917969 249.351562 285.496094 248.714844 285.101562 248.171875 Z M 288.054688 249.734375 C 287.679688 249.109375 287.242188 248.453125 286.742188 247.765625 L 287.460938 247.359375 C 287.960938 248.070312 288.398438 248.730469 288.773438 249.34375 L 288.054688 249.734375 Z M 290.257812 245.828125 L 296.335938 245.828125 L 296.335938 244.265625 L 297.226562 244.265625 L 297.226562 245.828125 L 300.507812 245.828125 L 300.507812 246.578125 L 297.226562 246.578125 L 297.226562 249.265625 C 297.371094 249.703125 297.445312 250.199219 297.445312 250.75 C 297.445312 251.9375 297.121094 252.84375 296.476562 253.46875 C 295.839844 254.09375 294.8125 254.503906 293.398438 254.703125 L 293.257812 253.875 C 294.382812 253.730469 295.210938 253.445312 295.742188 253.015625 C 296.273438 252.589844 296.558594 252 296.601562 251.25 L 296.601562 251.09375 L 296.570312 251.09375 C 296.203125 251.636719 295.59375 251.90625 294.742188 251.90625 C 294.085938 251.90625 293.53125 251.6875 293.085938 251.25 C 292.636719 250.8125 292.414062 250.273438 292.414062 249.625 C 292.414062 248.96875 292.636719 248.429688 293.085938 248 C 293.53125 247.5625 294.085938 247.34375 294.742188 247.34375 C 295.355469 247.34375 295.882812 247.523438 296.320312 247.875 L 296.335938 247.875 L 296.335938 246.578125 L 290.257812 246.578125 L 290.257812 245.828125 Z M 293.320312 249.625 C 293.320312 250.042969 293.46875 250.398438 293.773438 250.6875 C 294.074219 250.96875 294.445312 251.109375 294.882812 251.109375 C 295.328125 251.109375 295.699219 250.96875 295.992188 250.6875 C 296.292969 250.398438 296.445312 250.042969 296.445312 249.625 C 296.445312 249.210938 296.292969 248.859375 295.992188 248.578125 C 295.699219 248.289062 295.328125 248.140625 294.882812 248.140625 C 294.445312 248.140625 294.074219 248.289062 293.773438 248.578125 C 293.46875 248.871094 293.320312 249.21875 293.320312 249.625 Z M 293.320312 249.625 "/>
</g>
</svg>
