<?xml version="1.0" encoding="UTF-8"?>
<svg xmlns="http://www.w3.org/2000/svg" xmlns:xlink="http://www.w3.org/1999/xlink" width="600pt" height="600pt" viewBox="0 0 600 600" version="1.1">
<defs>
<clipPath id="clip1">
  <rect width="600" height="600"/>
</clipPath>
<g id="surface7" clip-path="url(#clip1)">
<path style="fill:none;stroke-width:0.5;stroke-linecap:round;stroke-linejoin:round;stroke:rgb(0%,100%,0%);stroke-opacity:1;stroke-miterlimit:10;" d="M 110 250 L 124 250 M 117 243 L 117 257 "/>
<path style="fill:none;stroke-width:1;stroke-linecap:round;stroke-linejoin:round;stroke:rgb(100%,100%,0%);stroke-opacity:1;stroke-miterlimit:10;" d="M 122 250 C 122 256.667969 112 256.667969 112 250 C 112 243.332031 122 243.332031 122 250 "/>
<path style="fill:none;stroke-width:1;stroke-linecap:round;stroke-linejoin:round;stroke:rgb(100%,0%,0%);stroke-opacity:1;stroke-miterlimit:10;" d="M 102 266 L 102 234 L 132 234 L 132 266 L 102 266 "/>
<path style="fill:none;stroke-width:1;stroke-linecap:round;stroke-linejoin:round;stroke:rgb(0%,0%,100%);stroke-opacity:1;stroke-miterlimit:10;" d="M 122 250 C 122 256.667969 112 256.667969 112 250 C 112 243.332031 122 243.332031 122 250 "/>
<path style=" stroke:none;fill-rule:nonzero;fill:rgb(0%,0%,0%);fill-opacity:1;" d="M 104.625 242.84375 L 104.625 241.359375 L 105.171875 241.359375 L 105.171875 241.453125 C 105.179688 241.632812 105.1875 241.761719 105.1875 241.84375 C 105.1875 242.011719 105.207031 242.136719 105.25 242.21875 C 105.289062 242.292969 105.382812 242.375 105.53125 242.46875 C 105.894531 242.699219 106.300781 242.8125 106.75 242.8125 C 107.207031 242.8125 107.566406 242.683594 107.828125 242.421875 C 108.085938 242.152344 108.21875 241.789062 108.21875 241.328125 C 108.21875 240.945312 108.132812 240.636719 107.96875 240.40625 C 107.800781 240.179688 107.476562 239.929688 107 239.65625 L 106.453125 239.34375 C 105.804688 238.980469 105.347656 238.632812 105.078125 238.296875 C 104.804688 237.964844 104.671875 237.585938 104.671875 237.15625 C 104.671875 236.5625 104.882812 236.074219 105.3125 235.6875 C 105.738281 235.292969 106.273438 235.09375 106.921875 235.09375 C 107.472656 235.09375 108.117188 235.203125 108.859375 235.421875 L 108.859375 236.796875 L 108.28125 236.796875 L 108.28125 236.703125 C 108.269531 236.515625 108.265625 236.382812 108.265625 236.296875 C 108.265625 235.984375 108.171875 235.777344 107.984375 235.671875 C 107.722656 235.515625 107.382812 235.4375 106.96875 235.4375 C 106.59375 235.4375 106.289062 235.5625 106.0625 235.8125 C 105.832031 236.054688 105.71875 236.375 105.71875 236.78125 C 105.71875 237.117188 105.796875 237.398438 105.953125 237.625 C 106.117188 237.84375 106.410156 238.074219 106.828125 238.3125 L 107.375 238.625 C 108.125 239.054688 108.628906 239.429688 108.890625 239.75 C 109.160156 240.074219 109.296875 240.476562 109.296875 240.953125 C 109.296875 241.601562 109.054688 242.136719 108.578125 242.5625 C 108.109375 242.980469 107.515625 243.1875 106.796875 243.1875 C 106.441406 243.1875 106.050781 243.148438 105.625 243.078125 C 105.207031 243.015625 104.875 242.9375 104.625 242.84375 Z M 112.957031 243.125 C 112.144531 243.125 111.496094 242.859375 111.019531 242.328125 C 110.539062 241.796875 110.300781 241.078125 110.300781 240.171875 C 110.300781 239.257812 110.539062 238.539062 111.019531 238.015625 C 111.507812 237.484375 112.167969 237.21875 113.003906 237.21875 C 113.835938 237.21875 114.492188 237.484375 114.972656 238.015625 C 115.460938 238.539062 115.707031 239.25 115.707031 240.15625 C 115.707031 241.085938 115.460938 241.8125 114.972656 242.34375 C 114.480469 242.867188 113.808594 243.125 112.957031 243.125 Z M 112.972656 242.8125 C 113.449219 242.8125 113.839844 242.5625 114.144531 242.0625 C 114.457031 241.5625 114.613281 240.929688 114.613281 240.15625 C 114.613281 239.417969 114.457031 238.796875 114.144531 238.296875 C 113.839844 237.789062 113.460938 237.53125 113.003906 237.53125 C 112.542969 237.53125 112.160156 237.789062 111.847656 238.296875 C 111.542969 238.796875 111.394531 239.421875 111.394531 240.171875 C 111.394531 240.921875 111.542969 241.554688 111.847656 242.0625 C 112.148438 242.5625 112.523438 242.8125 112.972656 242.8125 Z M 118.402344 238.40625 C 118.996094 237.617188 119.644531 237.21875 120.355469 237.21875 C 120.75 237.21875 121.074219 237.324219 121.324219 237.53125 C 121.574219 237.730469 121.734375 238.023438 121.808594 238.40625 C 122.171875 237.96875 122.503906 237.664062 122.808594 237.484375 C 123.109375 237.308594 123.449219 237.21875 123.824219 237.21875 C 124.292969 237.21875 124.660156 237.371094 124.933594 237.671875 C 125.203125 237.964844 125.339844 238.371094 125.339844 238.890625 L 125.339844 241.65625 C 125.339844 241.9375 125.363281 242.1875 125.417969 242.40625 C 125.4375 242.492188 125.472656 242.546875 125.527344 242.578125 C 125.578125 242.609375 125.6875 242.632812 125.855469 242.640625 L 126.214844 242.671875 L 126.308594 242.671875 L 126.308594 243 L 123.355469 243 L 123.355469 242.671875 L 123.449219 242.671875 L 123.808594 242.640625 C 123.964844 242.632812 124.066406 242.609375 124.121094 242.578125 C 124.183594 242.546875 124.222656 242.492188 124.246094 242.40625 C 124.285156 242.1875 124.308594 241.9375 124.308594 241.65625 L 124.308594 239.078125 C 124.308594 238.632812 124.25 238.324219 124.136719 238.15625 C 124.019531 237.980469 123.816406 237.890625 123.527344 237.890625 C 123.015625 237.890625 122.464844 238.183594 121.871094 238.765625 L 121.871094 241.65625 L 121.902344 242.171875 C 121.910156 242.371094 121.941406 242.496094 121.996094 242.546875 C 122.058594 242.601562 122.1875 242.632812 122.386719 242.640625 L 122.746094 242.671875 L 122.839844 242.671875 L 122.839844 243 L 119.871094 243 L 119.871094 242.671875 L 119.980469 242.671875 L 120.324219 242.640625 C 120.488281 242.632812 120.597656 242.609375 120.652344 242.578125 C 120.714844 242.546875 120.753906 242.492188 120.777344 242.40625 C 120.816406 242.1875 120.839844 241.9375 120.839844 241.65625 L 120.839844 239.078125 C 120.839844 238.632812 120.78125 238.324219 120.667969 238.15625 C 120.550781 237.980469 120.347656 237.890625 120.058594 237.890625 C 119.515625 237.890625 118.964844 238.183594 118.402344 238.765625 L 118.402344 241.65625 C 118.402344 241.9375 118.421875 242.1875 118.464844 242.40625 C 118.484375 242.492188 118.519531 242.546875 118.574219 242.578125 C 118.636719 242.609375 118.75 242.632812 118.917969 242.640625 L 119.261719 242.671875 L 119.371094 242.671875 L 119.371094 243 L 116.402344 243 L 116.402344 242.671875 L 116.511719 242.671875 L 116.855469 242.640625 C 117.050781 242.632812 117.175781 242.601562 117.230469 242.546875 C 117.292969 242.496094 117.328125 242.371094 117.339844 242.171875 L 117.371094 241.65625 L 117.371094 238.6875 L 117.339844 238.1875 C 117.328125 237.992188 117.292969 237.867188 117.230469 237.8125 C 117.175781 237.75 117.050781 237.714844 116.855469 237.703125 L 116.511719 237.671875 L 116.402344 237.65625 L 116.402344 237.34375 L 118.402344 237.34375 Z M 131.417969 242.75 C 130.761719 243 130.160156 243.125 129.621094 243.125 C 128.796875 243.125 128.125 242.851562 127.605469 242.296875 C 127.082031 241.734375 126.824219 241.007812 126.824219 240.109375 C 126.824219 239.265625 127.050781 238.574219 127.511719 238.03125 C 127.980469 237.492188 128.578125 237.21875 129.308594 237.21875 C 129.984375 237.21875 130.503906 237.449219 130.871094 237.90625 C 131.234375 238.355469 131.417969 239 131.417969 239.84375 L 131.417969 239.953125 L 127.964844 239.953125 C 127.964844 240.726562 128.066406 241.308594 128.277344 241.703125 C 128.609375 242.308594 129.113281 242.609375 129.792969 242.609375 C 130.425781 242.609375 130.96875 242.480469 131.417969 242.21875 Z M 127.980469 239.625 L 130.324219 239.625 L 130.324219 239.390625 C 130.324219 238.984375 130.300781 238.6875 130.261719 238.5 C 130.230469 238.304688 130.160156 238.125 130.058594 237.96875 C 129.859375 237.679688 129.589844 237.53125 129.246094 237.53125 C 128.859375 237.53125 128.550781 237.726562 128.324219 238.109375 C 128.09375 238.484375 127.980469 238.992188 127.980469 239.625 Z M 106.1875 245.765625 L 106.1875 252.65625 C 106.1875 252.9375 106.207031 253.1875 106.25 253.40625 C 106.269531 253.492188 106.304688 253.546875 106.359375 253.578125 C 106.421875 253.609375 106.535156 253.632812 106.703125 253.640625 L 107.046875 253.671875 L 107.15625 253.671875 L 107.15625 254 L 104.1875 254 L 104.1875 253.671875 L 104.296875 253.671875 L 104.640625 253.640625 C 104.835938 253.632812 104.960938 253.601562 105.015625 253.546875 C 105.078125 253.496094 105.113281 253.371094 105.125 253.171875 L 105.15625 252.65625 L 105.15625 247.125 L 105.125 246.609375 C 105.113281 246.414062 105.078125 246.289062 105.015625 246.234375 C 104.960938 246.171875 104.835938 246.136719 104.640625 246.125 L 104.296875 246.09375 L 104.1875 246.09375 L 104.1875 245.765625 Z M 111.359375 253.21875 C 111.015625 253.5625 110.707031 253.804688 110.4375 253.9375 C 110.175781 254.0625 109.878906 254.125 109.546875 254.125 C 109.066406 254.125 108.664062 253.976562 108.34375 253.671875 C 108.019531 253.371094 107.859375 252.992188 107.859375 252.53125 C 107.859375 252 108.066406 251.570312 108.484375 251.234375 C 108.753906 251.015625 109.066406 250.867188 109.421875 250.78125 C 109.785156 250.699219 110.28125 250.65625 110.90625 250.65625 L 111.125 250.65625 L 111.125 249.953125 C 111.125 249.058594 110.785156 248.609375 110.109375 248.609375 C 109.785156 248.609375 109.503906 248.710938 109.265625 248.90625 C 109.117188 249.023438 109.03125 249.261719 109 249.625 L 108.984375 249.734375 L 108.296875 249.734375 L 108.296875 248.6875 C 109.015625 248.375 109.679688 248.21875 110.296875 248.21875 C 110.828125 248.21875 111.265625 248.34375 111.609375 248.59375 C 111.816406 248.75 111.957031 248.921875 112.03125 249.109375 C 112.101562 249.296875 112.140625 249.5625 112.140625 249.90625 L 112.140625 252.4375 C 112.140625 252.886719 112.175781 253.203125 112.25 253.390625 C 112.332031 253.570312 112.472656 253.65625 112.671875 253.65625 C 112.742188 253.65625 112.835938 253.640625 112.953125 253.609375 L 112.984375 254 C 112.734375 254.082031 112.507812 254.125 112.3125 254.125 C 111.8125 254.125 111.492188 253.824219 111.359375 253.21875 Z M 111.125 253.109375 L 111.125 250.984375 L 110.875 250.984375 C 110.269531 250.984375 109.796875 251.109375 109.453125 251.359375 C 109.117188 251.601562 108.953125 251.945312 108.953125 252.390625 C 108.953125 252.714844 109.054688 252.984375 109.265625 253.203125 C 109.472656 253.414062 109.738281 253.515625 110.0625 253.515625 C 110.363281 253.515625 110.71875 253.382812 111.125 253.109375 Z M 113.96875 254.0625 L 113.96875 247.125 L 113.9375 246.609375 C 113.925781 246.414062 113.894531 246.289062 113.84375 246.234375 C 113.789062 246.171875 113.660156 246.136719 113.453125 246.125 L 113.109375 246.09375 L 113.015625 246.09375 L 113.015625 245.765625 L 115 245.765625 L 115 249.40625 C 115.507812 248.617188 116.171875 248.21875 116.984375 248.21875 C 117.628906 248.21875 118.140625 248.476562 118.515625 248.984375 C 118.898438 249.484375 119.09375 250.15625 119.09375 251 C 119.09375 251.949219 118.875 252.710938 118.4375 253.28125 C 118 253.84375 117.421875 254.125 116.703125 254.125 C 116.035156 254.125 115.46875 253.871094 115 253.359375 L 114.9375 253.359375 L 114.8125 254.0625 Z M 115 252.953125 C 115.539062 253.359375 116.0625 253.5625 116.5625 253.5625 C 117.03125 253.5625 117.382812 253.371094 117.625 252.984375 C 117.863281 252.589844 117.984375 252.023438 117.984375 251.28125 C 117.984375 250.480469 117.867188 249.882812 117.640625 249.484375 C 117.410156 249.078125 117.066406 248.875 116.609375 248.875 C 116.328125 248.875 116.039062 248.960938 115.75 249.125 C 115.457031 249.28125 115.207031 249.496094 115 249.765625 Z M 124.773438 253.75 C 124.117188 254 123.515625 254.125 122.976562 254.125 C 122.152344 254.125 121.480469 253.851562 120.960938 253.296875 C 120.4375 252.734375 120.179688 252.007812 120.179688 251.109375 C 120.179688 250.265625 120.40625 249.574219 120.867188 249.03125 C 121.335938 248.492188 121.933594 248.21875 122.664062 248.21875 C 123.339844 248.21875 123.859375 248.449219 124.226562 248.90625 C 124.589844 249.355469 124.773438 250 124.773438 250.84375 L 124.773438 250.953125 L 121.320312 250.953125 C 121.320312 251.726562 121.421875 252.308594 121.632812 252.703125 C 121.964844 253.308594 122.46875 253.609375 123.148438 253.609375 C 123.78125 253.609375 124.324219 253.480469 124.773438 253.21875 Z M 121.335938 250.625 L 123.679688 250.625 L 123.679688 250.390625 C 123.679688 249.984375 123.65625 249.6875 123.617188 249.5 C 123.585938 249.304688 123.515625 249.125 123.414062 248.96875 C 123.214844 248.679688 122.945312 248.53125 122.601562 248.53125 C 122.214844 248.53125 121.90625 248.726562 121.679688 249.109375 C 121.449219 249.484375 121.335938 249.992188 121.335938 250.625 Z M 127.503906 245.765625 L 127.503906 252.65625 C 127.503906 252.9375 127.523438 253.1875 127.566406 253.40625 C 127.585938 253.492188 127.621094 253.546875 127.675781 253.578125 C 127.738281 253.609375 127.851562 253.632812 128.019531 253.640625 L 128.363281 253.671875 L 128.472656 253.671875 L 128.472656 254 L 125.503906 254 L 125.503906 253.671875 L 125.613281 253.671875 L 125.957031 253.640625 C 126.152344 253.632812 126.277344 253.601562 126.332031 253.546875 C 126.394531 253.496094 126.429688 253.371094 126.441406 253.171875 L 126.472656 252.65625 L 126.472656 247.125 L 126.441406 246.609375 C 126.429688 246.414062 126.394531 246.289062 126.332031 246.234375 C 126.277344 246.171875 126.152344 246.136719 125.957031 246.125 L 125.613281 246.09375 L 125.503906 246.09375 L 125.503906 245.765625 Z M 110.996094 264.96875 C 110.734375 265.070312 110.488281 265.125 110.261719 265.125 C 109.730469 265.125 109.308594 264.992188 108.996094 264.71875 C 108.816406 264.554688 108.691406 264.367188 108.621094 264.15625 C 108.558594 263.949219 108.527344 263.640625 108.527344 263.234375 L 108.527344 259.765625 L 107.699219 259.765625 L 107.699219 259.34375 L 108.527344 259.34375 L 108.527344 258.3125 L 109.558594 258.0625 L 109.558594 259.34375 L 111.136719 259.34375 L 111.136719 259.765625 L 109.558594 259.765625 L 109.558594 263.375 C 109.558594 263.867188 109.605469 264.1875 109.699219 264.34375 C 109.832031 264.59375 110.066406 264.71875 110.402344 264.71875 C 110.566406 264.71875 110.765625 264.664062 110.996094 264.546875 Z M 116.535156 264.75 C 115.878906 265 115.277344 265.125 114.738281 265.125 C 113.914062 265.125 113.242188 264.851562 112.722656 264.296875 C 112.199219 263.734375 111.941406 263.007812 111.941406 262.109375 C 111.941406 261.265625 112.167969 260.574219 112.628906 260.03125 C 113.097656 259.492188 113.695312 259.21875 114.425781 259.21875 C 115.101562 259.21875 115.621094 259.449219 115.988281 259.90625 C 116.351562 260.355469 116.535156 261 116.535156 261.84375 L 116.535156 261.953125 L 113.082031 261.953125 C 113.082031 262.726562 113.183594 263.308594 113.394531 263.703125 C 113.726562 264.308594 114.230469 264.609375 114.910156 264.609375 C 115.542969 264.609375 116.085938 264.480469 116.535156 264.21875 Z M 113.097656 261.625 L 115.441406 261.625 L 115.441406 261.390625 C 115.441406 260.984375 115.417969 260.6875 115.378906 260.5 C 115.347656 260.304688 115.277344 260.125 115.175781 259.96875 C 114.976562 259.679688 114.707031 259.53125 114.363281 259.53125 C 113.976562 259.53125 113.667969 259.726562 113.441406 260.109375 C 113.210938 260.484375 113.097656 260.992188 113.097656 261.625 Z M 117.09375 265 L 117.09375 264.671875 L 117.1875 264.671875 C 117.375 264.664062 117.566406 264.542969 117.765625 264.3125 L 118.34375 263.65625 L 119.515625 262.265625 L 118.328125 260.703125 L 117.8125 260.078125 C 117.675781 259.914062 117.570312 259.808594 117.5 259.765625 C 117.425781 259.714844 117.3125 259.683594 117.15625 259.671875 L 117.0625 259.65625 L 117.0625 259.34375 L 119.625 259.34375 L 119.625 259.65625 L 119.53125 259.65625 L 119.3125 259.671875 C 119.070312 259.671875 118.953125 259.726562 118.953125 259.828125 C 118.953125 259.890625 119.148438 260.183594 119.546875 260.703125 L 120.34375 261.796875 L 121.140625 260.734375 C 121.242188 260.589844 121.351562 260.414062 121.46875 260.203125 C 121.582031 259.996094 121.640625 259.867188 121.640625 259.8125 C 121.640625 259.71875 121.546875 259.671875 121.359375 259.671875 L 121.15625 259.65625 L 121.046875 259.65625 L 121.046875 259.34375 L 122.84375 259.34375 L 122.84375 259.65625 L 122.75 259.671875 C 122.601562 259.683594 122.484375 259.714844 122.390625 259.765625 C 122.304688 259.820312 122.210938 259.921875 122.109375 260.078125 C 121.941406 260.308594 121.78125 260.515625 121.625 260.703125 L 120.5625 262.0625 L 121.78125 263.65625 C 122.070312 264.042969 122.300781 264.308594 122.46875 264.453125 C 122.632812 264.589844 122.796875 264.664062 122.953125 264.671875 L 123.046875 264.671875 L 123.046875 265 L 120.46875 265 L 120.46875 264.671875 L 120.796875 264.671875 C 121.046875 264.671875 121.171875 264.632812 121.171875 264.546875 C 121.171875 264.527344 121.15625 264.496094 121.125 264.453125 C 121.09375 264.414062 121.050781 264.351562 121 264.265625 C 120.863281 264.046875 120.726562 263.84375 120.59375 263.65625 L 119.703125 262.515625 L 118.828125 263.65625 L 118.546875 264.03125 L 118.28125 264.40625 C 118.25 264.460938 118.234375 264.496094 118.234375 264.515625 C 118.234375 264.621094 118.359375 264.671875 118.609375 264.671875 L 118.9375 264.671875 L 118.9375 265 Z M 126.773438 264.96875 C 126.511719 265.070312 126.265625 265.125 126.039062 265.125 C 125.507812 265.125 125.085938 264.992188 124.773438 264.71875 C 124.59375 264.554688 124.46875 264.367188 124.398438 264.15625 C 124.335938 263.949219 124.304688 263.640625 124.304688 263.234375 L 124.304688 259.765625 L 123.476562 259.765625 L 123.476562 259.34375 L 124.304688 259.34375 L 124.304688 258.3125 L 125.335938 258.0625 L 125.335938 259.34375 L 126.914062 259.34375 L 126.914062 259.765625 L 125.335938 259.765625 L 125.335938 263.375 C 125.335938 263.867188 125.382812 264.1875 125.476562 264.34375 C 125.609375 264.59375 125.84375 264.71875 126.179688 264.71875 C 126.34375 264.71875 126.542969 264.664062 126.773438 264.546875 Z M 126.773438 264.96875 "/>
</g>
</defs>
<g id="surface2">
<rect x="0" y="0" width="600" height="600" style="fill:rgb(100%,100%,100%);fill-opacity:1;stroke:none;"/>
<use xlink:href="#surface7"/>
<path style=" stroke:none;fill-rule:evenodd;fill:rgb(78.431373%,19.607843%,19.607843%);fill-opacity:1;" d="M 354 374 L 354 358 L 494 358 L 494 374 Z M 354 374 "/>
<path style="fill:none;stroke-width:1;stroke-linecap:round;stroke-linejoin:round;stroke:rgb(39.215686%,39.215686%,39.215686%);stroke-opacity:1;stroke-miterlimit:10;" d="M 354 349 C 354 354.523438 349.523438 359 344 359 C 338.476562 359 334 354.523438 334 349 C 334 343.476562 338.476562 339 344 339 C 349.523438 339 354 343.476562 354 349 "/>
<path style="fill:none;stroke-width:1;stroke-linecap:round;stroke-linejoin:round;stroke:rgb(0%,0%,0%);stroke-opacity:1;stroke-miterlimit:10;" d="M 346 349 C 346 351.667969 342 351.667969 342 349 C 342 346.332031 346 346.332031 346 349 "/>
<path style=" stroke:none;fill-rule:evenodd;fill:rgb(100%,100%,0%);fill-opacity:1;" d="M 355.078125 372.71875 L 355.078125 370.125 L 356.046875 370.125 L 356.046875 370.296875 C 356.066406 370.601562 356.078125 370.824219 356.078125 370.96875 C 356.078125 371.273438 356.113281 371.492188 356.1875 371.625 C 356.269531 371.761719 356.429688 371.90625 356.671875 372.0625 C 357.316406 372.460938 358.035156 372.65625 358.828125 372.65625 C 359.617188 372.65625 360.242188 372.429688 360.703125 371.96875 C 361.160156 371.511719 361.390625 370.875 361.390625 370.0625 C 361.390625 369.386719 361.242188 368.851562 360.953125 368.453125 C 360.660156 368.046875 360.09375 367.609375 359.25 367.140625 L 358.28125 366.59375 C 357.164062 365.960938 356.367188 365.351562 355.890625 364.765625 C 355.421875 364.183594 355.1875 363.515625 355.1875 362.765625 C 355.1875 361.734375 355.554688 360.882812 356.296875 360.203125 C 357.046875 359.515625 357.984375 359.171875 359.109375 359.171875 C 360.078125 359.171875 361.210938 359.367188 362.515625 359.75 L 362.515625 362.140625 L 361.5 362.140625 L 361.5 361.984375 C 361.46875 361.664062 361.453125 361.421875 361.453125 361.265625 C 361.453125 360.726562 361.296875 360.367188 360.984375 360.1875 C 360.515625 359.917969 359.921875 359.78125 359.203125 359.78125 C 358.546875 359.78125 358.015625 359.996094 357.609375 360.421875 C 357.210938 360.851562 357.015625 361.414062 357.015625 362.109375 C 357.015625 362.703125 357.148438 363.199219 357.421875 363.59375 C 357.703125 363.980469 358.207031 364.382812 358.9375 364.796875 L 359.90625 365.34375 C 361.226562 366.09375 362.117188 366.75 362.578125 367.3125 C 363.035156 367.875 363.265625 368.578125 363.265625 369.421875 C 363.265625 370.546875 362.847656 371.484375 362.015625 372.234375 C 361.191406 372.976562 360.148438 373.34375 358.890625 373.34375 C 358.273438 373.34375 357.597656 373.28125 356.859375 373.15625 C 356.128906 373.039062 355.535156 372.898438 355.078125 372.71875 Z M 369.683594 373.234375 C 368.253906 373.234375 367.121094 372.765625 366.277344 371.828125 C 365.441406 370.890625 365.027344 369.632812 365.027344 368.046875 C 365.027344 366.453125 365.449219 365.195312 366.292969 364.265625 C 367.136719 363.339844 368.285156 362.875 369.746094 362.875 C 371.203125 362.875 372.355469 363.339844 373.199219 364.265625 C 374.042969 365.195312 374.464844 366.449219 374.464844 368.03125 C 374.464844 369.65625 374.035156 370.933594 373.183594 371.859375 C 372.339844 372.777344 371.171875 373.234375 369.683594 373.234375 Z M 369.714844 372.65625 C 370.546875 372.65625 371.230469 372.226562 371.761719 371.359375 C 372.292969 370.496094 372.558594 369.386719 372.558594 368.03125 C 372.558594 366.730469 372.285156 365.640625 371.746094 364.765625 C 371.214844 363.882812 370.546875 363.4375 369.746094 363.4375 C 368.941406 363.4375 368.269531 363.882812 367.730469 364.765625 C 367.199219 365.640625 366.933594 366.734375 366.933594 368.046875 C 366.933594 369.359375 367.199219 370.460938 367.730469 371.34375 C 368.261719 372.21875 368.921875 372.65625 369.714844 372.65625 Z M 379.183594 364.953125 C 380.222656 363.570312 381.371094 362.875 382.621094 362.875 C 383.308594 362.875 383.871094 363.058594 384.308594 363.421875 C 384.746094 363.777344 385.027344 364.289062 385.152344 364.953125 C 385.785156 364.183594 386.363281 363.648438 386.886719 363.34375 C 387.417969 363.03125 388.015625 362.875 388.683594 362.875 C 389.503906 362.875 390.152344 363.136719 390.621094 363.65625 C 391.097656 364.179688 391.339844 364.890625 391.339844 365.796875 L 391.339844 370.640625 C 391.339844 371.140625 391.378906 371.578125 391.464844 371.953125 C 391.496094 372.109375 391.558594 372.21875 391.652344 372.28125 C 391.753906 372.335938 391.953125 372.367188 392.246094 372.375 L 392.855469 372.421875 L 393.027344 372.4375 L 393.027344 373 L 387.855469 373 L 387.855469 372.4375 L 388.027344 372.421875 L 388.652344 372.375 C 388.933594 372.367188 389.121094 372.335938 389.214844 372.28125 C 389.316406 372.21875 389.386719 372.109375 389.417969 371.953125 C 389.5 371.570312 389.542969 371.132812 389.542969 370.640625 L 389.542969 366.125 C 389.542969 365.34375 389.4375 364.804688 389.230469 364.5 C 389.03125 364.199219 388.671875 364.046875 388.152344 364.046875 C 387.265625 364.046875 386.308594 364.558594 385.277344 365.578125 L 385.277344 370.640625 L 385.324219 371.546875 C 385.34375 371.890625 385.402344 372.109375 385.496094 372.203125 C 385.597656 372.296875 385.824219 372.355469 386.167969 372.375 L 386.792969 372.421875 L 386.964844 372.4375 L 386.964844 373 L 381.777344 373 L 381.777344 372.4375 L 381.949219 372.421875 L 382.574219 372.375 C 382.855469 372.367188 383.042969 372.335938 383.136719 372.28125 C 383.238281 372.21875 383.3125 372.109375 383.355469 371.953125 C 383.425781 371.578125 383.464844 371.140625 383.464844 370.640625 L 383.464844 366.125 C 383.464844 365.355469 383.363281 364.820312 383.167969 364.515625 C 382.96875 364.203125 382.613281 364.046875 382.105469 364.046875 C 381.15625 364.046875 380.183594 364.558594 379.183594 365.578125 L 379.183594 370.640625 C 379.183594 371.140625 379.230469 371.578125 379.324219 371.953125 C 379.355469 372.109375 379.417969 372.21875 379.511719 372.28125 C 379.605469 372.335938 379.796875 372.367188 380.089844 372.375 L 380.714844 372.421875 L 380.886719 372.4375 L 380.886719 373 L 375.714844 373 L 375.714844 372.4375 L 375.886719 372.421875 L 376.496094 372.375 C 376.847656 372.355469 377.074219 372.296875 377.167969 372.203125 C 377.261719 372.109375 377.316406 371.890625 377.339844 371.546875 L 377.402344 370.640625 L 377.402344 365.453125 L 377.339844 364.5625 C 377.316406 364.21875 377.261719 364 377.167969 363.90625 C 377.074219 363.804688 376.847656 363.742188 376.496094 363.71875 L 375.886719 363.671875 L 375.714844 363.65625 L 375.714844 363.09375 L 379.183594 363.09375 Z M 401.96875 372.546875 C 400.820312 373.003906 399.78125 373.234375 398.84375 373.234375 C 397.382812 373.234375 396.203125 372.746094 395.296875 371.765625 C 394.390625 370.789062 393.9375 369.515625 393.9375 367.953125 C 393.9375 366.464844 394.34375 365.246094 395.15625 364.296875 C 395.96875 363.351562 397.015625 362.875 398.296875 362.875 C 399.472656 362.875 400.378906 363.277344 401.015625 364.078125 C 401.648438 364.871094 401.96875 366.007812 401.96875 367.484375 L 401.96875 367.65625 L 395.921875 367.65625 C 395.921875 369.023438 396.109375 370.042969 396.484375 370.71875 C 397.066406 371.78125 397.945312 372.3125 399.125 372.3125 C 400.238281 372.3125 401.1875 372.085938 401.96875 371.625 Z M 395.953125 367.09375 L 400.0625 367.09375 L 400.0625 366.6875 C 400.0625 365.96875 400.03125 365.445312 399.96875 365.109375 C 399.90625 364.765625 399.785156 364.460938 399.609375 364.1875 C 399.253906 363.6875 398.773438 363.4375 398.171875 363.4375 C 397.492188 363.4375 396.953125 363.773438 396.546875 364.4375 C 396.148438 365.09375 395.953125 365.980469 395.953125 367.09375 Z M 412.414062 358.609375 L 412.414062 370.640625 C 412.414062 371.140625 412.460938 371.578125 412.554688 371.953125 C 412.585938 372.109375 412.648438 372.21875 412.742188 372.28125 C 412.835938 372.335938 413.027344 372.367188 413.320312 372.375 L 413.945312 372.421875 L 414.117188 372.4375 L 414.117188 373 L 408.945312 373 L 408.945312 372.4375 L 409.117188 372.421875 L 409.726562 372.375 C 410.078125 372.355469 410.304688 372.296875 410.398438 372.203125 C 410.492188 372.109375 410.546875 371.890625 410.570312 371.546875 L 410.632812 370.640625 L 410.632812 360.96875 L 410.570312 360.0625 C 410.546875 359.71875 410.492188 359.5 410.398438 359.40625 C 410.304688 359.3125 410.078125 359.25 409.726562 359.21875 L 409.117188 359.171875 L 408.945312 359.171875 L 408.945312 358.609375 Z M 421.472656 371.640625 C 420.878906 372.234375 420.347656 372.652344 419.878906 372.890625 C 419.410156 373.117188 418.882812 373.234375 418.300781 373.234375 C 417.464844 373.234375 416.769531 372.96875 416.207031 372.4375 C 415.644531 371.898438 415.363281 371.226562 415.363281 370.421875 C 415.363281 369.496094 415.726562 368.742188 416.457031 368.15625 C 416.925781 367.78125 417.472656 367.523438 418.097656 367.375 C 418.722656 367.21875 419.585938 367.140625 420.691406 367.140625 L 421.066406 367.140625 L 421.066406 365.921875 C 421.066406 364.359375 420.472656 363.578125 419.285156 363.578125 C 418.730469 363.578125 418.242188 363.746094 417.816406 364.078125 C 417.566406 364.289062 417.410156 364.710938 417.347656 365.34375 L 417.332031 365.53125 L 416.113281 365.53125 L 416.113281 363.703125 C 417.382812 363.152344 418.550781 362.875 419.613281 362.875 C 420.558594 362.875 421.324219 363.09375 421.910156 363.53125 C 422.273438 363.8125 422.523438 364.121094 422.660156 364.453125 C 422.792969 364.777344 422.863281 365.242188 422.863281 365.84375 L 422.863281 370.25 C 422.863281 371.042969 422.929688 371.601562 423.066406 371.921875 C 423.199219 372.246094 423.441406 372.40625 423.785156 372.40625 C 423.898438 372.40625 424.058594 372.382812 424.269531 372.328125 L 424.316406 373 C 423.886719 373.15625 423.503906 373.234375 423.160156 373.234375 C 422.273438 373.234375 421.710938 372.703125 421.472656 371.640625 Z M 421.066406 371.4375 L 421.066406 367.71875 L 420.644531 367.71875 C 419.589844 367.71875 418.761719 367.9375 418.160156 368.375 C 417.566406 368.804688 417.269531 369.402344 417.269531 370.171875 C 417.269531 370.746094 417.449219 371.21875 417.816406 371.59375 C 418.191406 371.96875 418.652344 372.15625 419.207031 372.15625 C 419.738281 372.15625 420.355469 371.917969 421.066406 371.4375 Z M 426.046875 373.109375 L 426.046875 360.96875 L 426 360.0625 C 425.976562 359.71875 425.914062 359.5 425.8125 359.40625 C 425.71875 359.3125 425.5 359.25 425.15625 359.21875 L 424.53125 359.171875 L 424.359375 359.171875 L 424.359375 358.609375 L 427.84375 358.609375 L 427.84375 364.953125 C 428.738281 363.570312 429.898438 362.875 431.328125 362.875 C 432.453125 362.875 433.34375 363.320312 434 364.203125 C 434.664062 365.089844 435 366.273438 435 367.75 C 435 369.40625 434.617188 370.734375 433.859375 371.734375 C 433.097656 372.734375 432.085938 373.234375 430.828125 373.234375 C 429.671875 373.234375 428.675781 372.78125 427.84375 371.875 L 427.734375 371.875 L 427.515625 373.109375 Z M 427.84375 371.171875 C 428.800781 371.871094 429.71875 372.21875 430.59375 372.21875 C 431.40625 372.21875 432.019531 371.882812 432.4375 371.203125 C 432.863281 370.515625 433.078125 369.53125 433.078125 368.25 C 433.078125 366.84375 432.875 365.792969 432.46875 365.09375 C 432.070312 364.386719 431.472656 364.03125 430.671875 364.03125 C 430.171875 364.03125 429.664062 364.171875 429.15625 364.453125 C 428.65625 364.734375 428.21875 365.117188 427.84375 365.59375 Z M 444.945312 372.546875 C 443.796875 373.003906 442.757812 373.234375 441.820312 373.234375 C 440.359375 373.234375 439.179688 372.746094 438.273438 371.765625 C 437.367188 370.789062 436.914062 369.515625 436.914062 367.953125 C 436.914062 366.464844 437.320312 365.246094 438.132812 364.296875 C 438.945312 363.351562 439.992188 362.875 441.273438 362.875 C 442.449219 362.875 443.355469 363.277344 443.992188 364.078125 C 444.625 364.871094 444.945312 366.007812 444.945312 367.484375 L 444.945312 367.65625 L 438.898438 367.65625 C 438.898438 369.023438 439.085938 370.042969 439.460938 370.71875 C 440.042969 371.78125 440.921875 372.3125 442.101562 372.3125 C 443.214844 372.3125 444.164062 372.085938 444.945312 371.625 Z M 438.929688 367.09375 L 443.039062 367.09375 L 443.039062 366.6875 C 443.039062 365.96875 443.007812 365.445312 442.945312 365.109375 C 442.882812 364.765625 442.761719 364.460938 442.585938 364.1875 C 442.230469 363.6875 441.75 363.4375 441.148438 363.4375 C 440.46875 363.4375 439.929688 363.773438 439.523438 364.4375 C 439.125 365.09375 438.929688 365.980469 438.929688 367.09375 Z M 449.714844 358.609375 L 449.714844 370.640625 C 449.714844 371.140625 449.761719 371.578125 449.855469 371.953125 C 449.886719 372.109375 449.949219 372.21875 450.042969 372.28125 C 450.136719 372.335938 450.328125 372.367188 450.621094 372.375 L 451.246094 372.421875 L 451.417969 372.4375 L 451.417969 373 L 446.246094 373 L 446.246094 372.4375 L 446.417969 372.421875 L 447.027344 372.375 C 447.378906 372.355469 447.605469 372.296875 447.699219 372.203125 C 447.792969 372.109375 447.847656 371.890625 447.871094 371.546875 L 447.933594 370.640625 L 447.933594 360.96875 L 447.871094 360.0625 C 447.847656 359.71875 447.792969 359.5 447.699219 359.40625 C 447.605469 359.3125 447.378906 359.25 447.027344 359.21875 L 446.417969 359.171875 L 446.246094 359.171875 L 446.246094 358.609375 Z M 464.011719 372.9375 C 463.550781 373.132812 463.113281 373.234375 462.699219 373.234375 C 461.78125 373.234375 461.050781 372.992188 460.511719 372.5 C 460.1875 372.210938 459.96875 371.886719 459.855469 371.53125 C 459.738281 371.167969 459.683594 370.625 459.683594 369.90625 L 459.683594 363.84375 L 458.214844 363.84375 L 458.214844 363.09375 L 459.683594 363.09375 L 459.683594 361.296875 L 461.480469 360.859375 L 461.480469 363.09375 L 464.230469 363.09375 L 464.230469 363.84375 L 461.480469 363.84375 L 461.480469 370.140625 C 461.480469 371.007812 461.558594 371.574219 461.714844 371.84375 C 461.964844 372.28125 462.378906 372.5 462.964844 372.5 C 463.253906 372.5 463.605469 372.40625 464.011719 372.21875 Z M 473.683594 372.546875 C 472.535156 373.003906 471.496094 373.234375 470.558594 373.234375 C 469.097656 373.234375 467.917969 372.746094 467.011719 371.765625 C 466.105469 370.789062 465.652344 369.515625 465.652344 367.953125 C 465.652344 366.464844 466.058594 365.246094 466.871094 364.296875 C 467.683594 363.351562 468.730469 362.875 470.011719 362.875 C 471.1875 362.875 472.09375 363.277344 472.730469 364.078125 C 473.363281 364.871094 473.683594 366.007812 473.683594 367.484375 L 473.683594 367.65625 L 467.636719 367.65625 C 467.636719 369.023438 467.824219 370.042969 468.199219 370.71875 C 468.78125 371.78125 469.660156 372.3125 470.839844 372.3125 C 471.953125 372.3125 472.902344 372.085938 473.683594 371.625 Z M 467.667969 367.09375 L 471.777344 367.09375 L 471.777344 366.6875 C 471.777344 365.96875 471.746094 365.445312 471.683594 365.109375 C 471.621094 364.765625 471.5 364.460938 471.324219 364.1875 C 470.96875 363.6875 470.488281 363.4375 469.886719 363.4375 C 469.207031 363.4375 468.667969 363.773438 468.261719 364.4375 C 467.863281 365.09375 467.667969 365.980469 467.667969 367.09375 Z M 474.667969 373 L 474.667969 372.4375 L 474.824219 372.421875 C 475.15625 372.402344 475.5 372.1875 475.855469 371.78125 L 476.839844 370.65625 L 478.917969 368.203125 L 476.808594 365.484375 L 475.917969 364.390625 C 475.675781 364.089844 475.496094 363.902344 475.371094 363.828125 C 475.246094 363.746094 475.046875 363.695312 474.777344 363.671875 L 474.621094 363.65625 L 474.621094 363.09375 L 479.105469 363.09375 L 479.105469 363.65625 L 478.917969 363.65625 L 478.542969 363.6875 C 478.136719 363.6875 477.933594 363.777344 477.933594 363.953125 C 477.933594 364.070312 478.269531 364.578125 478.949219 365.484375 L 480.355469 367.390625 L 481.746094 365.53125 C 481.921875 365.28125 482.109375 364.976562 482.308594 364.609375 C 482.515625 364.246094 482.621094 364.015625 482.621094 363.921875 C 482.621094 363.757812 482.453125 363.671875 482.121094 363.671875 L 481.777344 363.65625 L 481.574219 363.65625 L 481.574219 363.09375 L 484.730469 363.09375 L 484.730469 363.65625 L 484.542969 363.671875 C 484.292969 363.695312 484.089844 363.75 483.933594 363.84375 C 483.785156 363.9375 483.621094 364.121094 483.433594 364.390625 C 483.140625 364.796875 482.863281 365.164062 482.605469 365.484375 L 480.730469 367.84375 L 482.871094 370.640625 C 483.378906 371.320312 483.777344 371.78125 484.058594 372.03125 C 484.347656 372.273438 484.636719 372.402344 484.917969 372.421875 L 485.074219 372.4375 L 485.074219 373 L 480.558594 373 L 480.558594 372.4375 L 480.730469 372.4375 L 481.152344 372.421875 C 481.589844 372.421875 481.808594 372.355469 481.808594 372.21875 C 481.808594 372.179688 481.777344 372.121094 481.714844 372.046875 C 481.660156 371.976562 481.589844 371.859375 481.496094 371.703125 C 481.265625 371.320312 481.027344 370.96875 480.777344 370.65625 L 479.246094 368.65625 L 477.699219 370.65625 L 477.199219 371.296875 L 476.746094 371.953125 C 476.683594 372.046875 476.652344 372.117188 476.652344 372.15625 C 476.652344 372.335938 476.875 372.421875 477.324219 372.421875 L 477.683594 372.4375 L 477.886719 372.4375 L 477.886719 373 Z M 491.617188 372.9375 C 491.15625 373.132812 490.71875 373.234375 490.304688 373.234375 C 489.386719 373.234375 488.65625 372.992188 488.117188 372.5 C 487.792969 372.210938 487.574219 371.886719 487.460938 371.53125 C 487.34375 371.167969 487.289062 370.625 487.289062 369.90625 L 487.289062 363.84375 L 485.820312 363.84375 L 485.820312 363.09375 L 487.289062 363.09375 L 487.289062 361.296875 L 489.085938 360.859375 L 489.085938 363.09375 L 491.835938 363.09375 L 491.835938 363.84375 L 489.085938 363.84375 L 489.085938 370.140625 C 489.085938 371.007812 489.164062 371.574219 489.320312 371.84375 C 489.570312 372.28125 489.984375 372.5 490.570312 372.5 C 490.859375 372.5 491.210938 372.40625 491.617188 372.21875 Z M 491.617188 372.9375 "/>
</g>
</svg>
