<?xml version="1.0" encoding="UTF-8"?>
<svg xmlns="http://www.w3.org/2000/svg" xmlns:xlink="http://www.w3.org/1999/xlink" width="400pt" height="300pt" viewBox="0 0 400 300" version="1.1">
<g id="surface2">
<rect x="0" y="0" width="400" height="300" style="fill:rgb(100%,100%,100%);fill-opacity:1;stroke:none;"/>
<path style="fill:none;stroke-width:5;stroke-linecap:round;stroke-linejoin:round;stroke:rgb(0%,0%,100%);stroke-opacity:1;stroke-miterlimit:10;" d="M 161.984375 109.878906 L 138.140625 85.335938 L 23.84375 97.960938 L 0 184.210938 L 62.410156 210.859375 L 173.203125 174.394531 L 166.894531 121.101562 "/>
<path style="fill:none;stroke-width:5;stroke-linecap:round;stroke-linejoin:round;stroke:rgb(0%,0%,100%);stroke-opacity:1;stroke-miterlimit:10;" d="M 231.40625 130.214844 L 261.558594 147.046875 L 275.582031 165.277344 L 291.710938 183.507812 L 312.75 187.71875 L 328.175781 201.039062 L 331.683594 203.84375 L 381.46875 213.664062 L 384.976562 188.417969 L 399 167.382812 "/>
<path style="fill:none;stroke-width:5;stroke-linecap:round;stroke-linejoin:round;stroke:rgb(0%,0%,100%);stroke-opacity:1;stroke-miterlimit:10;" d="M 37.777344 178.996094 L 125.929688 115.367188 L 145.8125 127.296875 "/>
<path style="fill:none;stroke-width:3;stroke-linecap:round;stroke-linejoin:round;stroke:rgb(100%,100%,100%);stroke-opacity:1;stroke-miterlimit:10;" d="M 161.984375 109.878906 L 138.140625 85.335938 L 23.84375 97.960938 L 0 184.210938 L 62.410156 210.859375 L 173.203125 174.394531 L 166.894531 121.101562 "/>
<path style="fill:none;stroke-width:3;stroke-linecap:round;stroke-linejoin:round;stroke:rgb(100%,100%,100%);stroke-opacity:1;stroke-miterlimit:10;" d="M 231.40625 130.214844 L 261.558594 147.046875 L 275.582031 165.277344 L 291.710938 183.507812 L 312.75 187.71875 L 328.175781 201.039062 L 331.683594 203.84375 L 381.46875 213.664062 L 384.976562 188.417969 L 399 167.382812 "/>
<path style="fill:none;stroke-width:3;stroke-linecap:round;stroke-linejoin:round;stroke:rgb(100%,100%,100%);stroke-opacity:1;stroke-miterlimit:10;" d="M 37.777344 178.996094 L 125.929688 115.367188 L 145.8125 127.296875 "/>
<path style="fill:none;stroke-width:4;stroke-linecap:round;stroke-linejoin:round;stroke:rgb(100%,100%,100%);stroke-opacity:1;stroke-miterlimit:10;" d="M 2.19685 -8.222805 L 2.200851 -1.340477 C 2.189492 -1.064442 2.20821 -0.810054 2.255244 -0.588221 C 2.25984 -0.507823 2.291347 -0.451358 2.348883 -0.424281 C 2.410468 -0.389464 2.53116 -0.369793 2.706388 -0.358934 L 3.047699 -0.324546 L 3.160294 -0.320354 L 3.156865 0.00476292 L 0.190707 0.0027625 L 0.194137 -0.322355 L 0.294063 -0.327308 L 0.646614 -0.361887 C 0.836441 -0.364578 0.963277 -0.393465 1.023076 -0.456288 C 1.086923 -0.511371 1.119787 -0.636993 1.119382 -0.829987 L 1.160057 -1.340191 L 1.149389 -6.878422 L 1.121097 -7.399867 C 1.118406 -7.589693 1.092686 -7.714244 1.039365 -7.767184 C 0.977423 -7.821529 0.845466 -7.858965 0.640327 -7.88178 L 0.289871 -7.903499 L 0.189945 -7.898545 L 0.193375 -8.223662 Z M 2.19685 -8.222805 " transform="matrix(0.81084,-0.585268,0.585268,0.81084,73,170)"/>
<path style="fill:none;stroke-width:4;stroke-linecap:round;stroke-linejoin:round;stroke:rgb(100%,100%,100%);stroke-opacity:1;stroke-miterlimit:10;" d="M 4.014477 -0.782929 C 3.673095 -0.436784 3.36722 -0.1999 3.099139 -0.0754447 C 2.835106 0.0567502 2.537804 0.121574 2.211806 0.112691 C 1.733632 0.114405 1.329308 -0.0329118 1.00974 -0.331023 C 0.684718 -0.628253 0.520826 -1.001881 0.514015 -1.459645 C 0.517563 -1.99183 0.725917 -2.433996 1.139958 -2.78069 C 1.410301 -2.995045 1.728869 -3.136051 2.088446 -3.213734 C 2.443975 -3.299157 2.937795 -3.342572 3.56762 -3.340809 L 3.789286 -3.354241 L 3.776426 -4.057248 C 3.777236 -4.952725 3.447951 -5.397558 2.776784 -5.395439 C 2.441641 -5.391652 2.155961 -5.289535 1.919744 -5.089088 C 1.773403 -4.97311 1.686384 -4.732416 1.654639 -4.374744 L 1.628634 -4.258624 L 0.943916 -4.271103 L 0.952775 -5.324567 C 1.664499 -5.629822 2.330522 -5.784998 2.947678 -5.792381 C 3.478458 -5.780212 3.918314 -5.655423 4.260911 -5.422587 C 4.46574 -5.245835 4.606532 -5.067131 4.683287 -4.886473 C 4.754588 -4.704934 4.79231 -4.436829 4.801026 -4.088493 L 4.793977 -1.569193 C 4.797621 -1.113714 4.83782 -0.795646 4.914574 -0.614989 C 4.985875 -0.43345 5.125762 -0.346931 5.325614 -0.356838 C 5.395987 -0.354219 5.489578 -0.363744 5.600054 -0.389988 L 5.641682 0.0061918 C 5.391533 0.0857802 5.167938 0.121907 4.978112 0.124598 C 4.477243 0.124384 4.153626 -0.181467 4.014477 -0.782929 Z M 3.784333 -0.891238 L 3.776712 -3.016454 L 3.520562 -3.008643 C 2.913432 -3.008476 2.443737 -2.885021 2.114642 -2.635992 C 1.780095 -2.386081 1.614464 -2.043151 1.620918 -1.604914 C 1.609749 -1.275749 1.71239 -1.004143 1.92022 -0.791502 C 2.129455 -0.587483 2.397774 -0.485342 2.719724 -0.484199 C 3.022146 -0.482698 3.378365 -0.615798 3.784333 -0.891238 Z M 3.784333 -0.891238 " transform="matrix(0.81084,-0.585268,0.585268,0.81084,76,168)"/>
<path style="fill:none;stroke-width:4;stroke-linecap:round;stroke-linejoin:round;stroke:rgb(100%,100%,100%);stroke-opacity:1;stroke-miterlimit:10;" d="M 0.826177 0.056774 L 0.824271 -6.881852 L 0.79598 -7.403297 C 0.788716 -7.586788 0.758424 -7.705004 0.705103 -7.757944 C 0.65002 -7.821791 0.520349 -7.862395 0.31521 -7.885209 L -0.0352456 -7.906928 L -0.122502 -7.89283 L -0.119073 -8.217947 L 1.859064 -8.235379 L 1.85373 -4.597173 C 2.358957 -5.383889 3.022098 -5.782021 3.832248 -5.789809 C 4.477028 -5.782069 4.994329 -5.5243 5.377816 -5.021073 C 5.755849 -4.516965 5.951843 -3.840749 5.96175 -3.000165 C 5.955678 -2.050676 5.734392 -1.290252 5.30018 -0.722059 C 4.865087 -0.15932 4.289703 0.123907 3.568572 0.128504 C 2.901977 0.124288 2.328379 -0.135577 1.854111 -0.646519 L 1.788668 -0.635945 L 1.676263 0.0537258 Z M 1.856111 -1.049748 C 2.403537 -0.640161 2.932436 -0.43183 3.433305 -0.431616 C 3.896523 -0.439308 4.247622 -0.638732 4.478862 -1.025838 C 4.721009 -1.414707 4.836438 -1.981757 4.832366 -2.716962 C 4.834081 -3.520252 4.7222 -4.12612 4.496199 -4.52049 C 4.271603 -4.923481 3.927959 -5.128167 3.469313 -5.12681 C 3.1873 -5.123214 2.901263 -5.040625 2.614368 -4.876757 C 2.318853 -4.714293 2.067156 -4.505749 1.853825 -4.250242 Z M 1.856111 -1.049748 " transform="matrix(0.81084,-0.585268,0.585268,0.81084,80,164)"/>
<path style="fill:none;stroke-width:4;stroke-linecap:round;stroke-linejoin:round;stroke:rgb(100%,100%,100%);stroke-opacity:1;stroke-miterlimit:10;" d="M 5.108901 -0.243481 C 4.459263 -0.00421519 3.860611 0.117692 3.321567 0.123645 C 2.498748 0.122288 1.821699 -0.154438 1.296753 -0.70196 C 0.77638 -1.255816 0.516158 -1.98321 0.519254 -2.881854 C 0.517087 -3.726487 0.748946 -4.421469 1.212545 -4.963632 C 1.67069 -5.504915 2.265079 -5.774425 2.994831 -5.777616 C 3.665998 -5.779735 4.181179 -5.552401 4.548115 -5.099661 C 4.909597 -4.646041 5.098899 -3.993925 5.108806 -3.153341 L 5.104615 -3.040745 L 1.657116 -3.043317 C 1.652401 -2.275915 1.752136 -1.693267 1.960895 -1.301707 C 2.286179 -0.691148 2.796455 -0.390274 3.483983 -0.395037 C 4.108354 -0.392393 4.652994 -0.519563 5.111569 -0.781119 Z M 1.68236 -3.371959 L 4.010952 -3.367672 L 4.006666 -3.602008 C 4.004618 -4.012977 3.98659 -4.315041 3.949415 -4.510488 C 3.916289 -4.698195 3.852204 -4.869707 3.755755 -5.016405 C 3.551068 -5.313493 3.273938 -5.470169 2.931579 -5.476409 C 2.546473 -5.470145 2.239002 -5.277771 2.016907 -4.903334 C 1.795693 -4.523443 1.685527 -4.010405 1.68236 -3.371959 Z M 1.68236 -3.371959 " transform="matrix(0.81084,-0.585268,0.585268,0.81084,86,160)"/>
<path style="fill:none;stroke-width:4;stroke-linecap:round;stroke-linejoin:round;stroke:rgb(100%,100%,100%);stroke-opacity:1;stroke-miterlimit:10;" d="M 2.19685 -8.222805 L 2.200851 -1.340477 C 2.189492 -1.064442 2.20821 -0.810054 2.255244 -0.588221 C 2.25984 -0.507823 2.291347 -0.451358 2.348883 -0.424281 C 2.410468 -0.389464 2.53116 -0.369793 2.706388 -0.358934 L 3.047699 -0.324546 L 3.160294 -0.320354 L 3.156865 0.00476292 L 0.190707 0.0027625 L 0.194137 -0.322355 L 0.294063 -0.327308 L 0.646614 -0.361887 C 0.836441 -0.364578 0.963277 -0.393465 1.023076 -0.456288 C 1.086923 -0.511371 1.119787 -0.636993 1.119382 -0.829987 L 1.160057 -1.340191 L 1.149389 -6.878422 L 1.121097 -7.399867 C 1.118406 -7.589693 1.092686 -7.714244 1.039365 -7.767184 C 0.977423 -7.821529 0.845466 -7.858965 0.640327 -7.88178 L 0.289871 -7.903499 L 0.189945 -7.898545 L 0.193375 -8.223662 Z M 2.19685 -8.222805 " transform="matrix(0.81084,-0.585268,0.585268,0.81084,91,156)"/>
<path style="fill:none;stroke-width:4;stroke-linecap:round;stroke-linejoin:round;stroke:rgb(100%,100%,100%);stroke-opacity:1;stroke-miterlimit:10;" d="" transform="matrix(0.81084,-0.585268,0.585268,0.81084,94,154)"/>
<path style="fill:none;stroke-width:4;stroke-linecap:round;stroke-linejoin:round;stroke:rgb(100%,100%,100%);stroke-opacity:1;stroke-miterlimit:10;" d="M 3.756422 -0.0249577 C 3.494842 0.0704674 3.24486 0.116453 3.018264 0.116692 C 2.48696 0.118597 2.06487 -0.0174561 1.75428 -0.294634 C 1.573908 -0.45855 1.454049 -0.646233 1.384677 -0.850467 C 1.309851 -1.05382 1.276868 -1.361862 1.280274 -1.773712 L 1.279321 -5.243025 L 0.463718 -5.234357 L 0.462194 -5.6594 L 1.277797 -5.668069 L 1.281036 -6.687048 L 2.314018 -6.943484 L 2.318591 -5.668354 L 3.897023 -5.665973 L 3.898547 -5.24093 L 2.320115 -5.243311 L 2.311256 -1.626919 C 2.312447 -1.134671 2.35898 -0.812031 2.444522 -0.66357 C 2.580409 -0.411326 2.816364 -0.28437 3.154674 -0.285871 C 3.321805 -0.290491 3.525515 -0.345788 3.754898 -0.450001 Z M 3.756422 -0.0249577 " transform="matrix(0.81084,-0.585268,0.585268,0.81084,97,152)"/>
<path style="fill:none;stroke-width:4;stroke-linecap:round;stroke-linejoin:round;stroke:rgb(100%,100%,100%);stroke-opacity:1;stroke-miterlimit:10;" d="M 5.108901 -0.243481 C 4.459263 -0.00421519 3.860611 0.117692 3.321567 0.123645 C 2.498748 0.122288 1.821699 -0.154438 1.296753 -0.70196 C 0.77638 -1.255816 0.516158 -1.98321 0.519254 -2.881854 C 0.517087 -3.726487 0.748946 -4.421469 1.212545 -4.963632 C 1.67069 -5.504915 2.265079 -5.774425 2.994831 -5.777616 C 3.665998 -5.779735 4.181179 -5.552401 4.548115 -5.099661 C 4.909597 -4.646041 5.098899 -3.993925 5.108806 -3.153341 L 5.104615 -3.040745 L 1.657116 -3.043317 C 1.652401 -2.275915 1.752136 -1.693267 1.960895 -1.301707 C 2.286179 -0.691148 2.796455 -0.390274 3.483983 -0.395037 C 4.108354 -0.392393 4.652994 -0.519563 5.111569 -0.781119 Z M 1.68236 -3.371959 L 4.010952 -3.367672 L 4.006666 -3.602008 C 4.004618 -4.012977 3.98659 -4.315041 3.949415 -4.510488 C 3.916289 -4.698195 3.852204 -4.869707 3.755755 -5.016405 C 3.551068 -5.313493 3.273938 -5.470169 2.931579 -5.476409 C 2.546473 -5.470145 2.239002 -5.277771 2.016907 -4.903334 C 1.795693 -4.523443 1.685527 -4.010405 1.68236 -3.371959 Z M 1.68236 -3.371959 " transform="matrix(0.81084,-0.585268,0.585268,0.81084,101,150)"/>
<path style="fill:none;stroke-width:4;stroke-linecap:round;stroke-linejoin:round;stroke:rgb(100%,100%,100%);stroke-opacity:1;stroke-miterlimit:10;" d="M 0.0218142 -0.00352456 L 0.0252435 -0.328642 L 0.116025 -0.320926 C 0.294587 -0.341382 0.490009 -0.46529 0.693672 -0.694053 L 1.272653 -1.336 L 2.434806 -2.732489 L 1.252839 -4.298633 L 0.738253 -4.920575 C 0.600104 -5.08292 0.498916 -5.189681 0.429235 -5.239977 C 0.356386 -5.29256 0.231645 -5.31997 0.0682051 -5.327139 L -0.0225763 -5.334854 L -0.0191469 -5.659972 L 2.543782 -5.659972 L 2.540352 -5.334854 L 2.449571 -5.34257 L 2.227905 -5.329139 C 1.982662 -5.32309 1.862517 -5.270103 1.862017 -5.169295 C 1.87171 -5.109306 2.073229 -4.814505 2.462526 -4.292632 L 3.254505 -3.200684 L 4.057153 -4.259291 C 4.164604 -4.408156 4.272223 -4.590624 4.384937 -4.793501 C 4.505391 -5.000426 4.565523 -5.130454 4.5685 -5.181298 C 4.558974 -5.274889 4.45569 -5.325352 4.265864 -5.322661 L 4.084301 -5.338093 L 3.971706 -5.342285 L 3.975135 -5.667402 L 5.766089 -5.665782 L 5.76266 -5.340665 L 5.653589 -5.323042 C 5.517774 -5.315088 5.405012 -5.285677 5.320756 -5.23569 C 5.231047 -5.184822 5.131501 -5.073608 5.026693 -4.908382 C 4.866659 -4.686668 4.703982 -4.481315 4.544114 -4.293203 L 3.487507 -2.936151 L 4.707482 -1.342573 C 4.998044 -0.96423 5.227879 -0.701983 5.393819 -0.558119 C 5.554306 -0.413374 5.718294 -0.333547 5.879447 -0.323212 L 5.979373 -0.328165 L 5.975944 -0.00304827 L 3.391201 0.000476292 L 3.39463 -0.324641 L 3.494556 -0.329594 L 3.719747 -0.321212 C 3.962704 -0.324093 4.086897 -0.369341 4.08916 -0.459241 C 4.08423 -0.472434 4.071203 -0.501107 4.053247 -0.542973 C 4.020335 -0.590817 3.976159 -0.656426 3.9216 -0.734347 C 3.777807 -0.948941 3.643517 -1.156676 3.519609 -1.352098 L 2.620655 -2.482721 L 1.763139 -1.348098 L 1.46698 -0.964492 L 1.201781 -0.59708 C 1.171536 -0.54183 1.15589 -0.500131 1.153961 -0.477435 C 1.151175 -0.373461 1.277154 -0.321069 1.525564 -0.324831 L 1.738086 -0.325593 L 1.859826 -0.334071 L 1.856397 -0.00895429 Z M 0.0218142 -0.00352456 " transform="matrix(0.81084,-0.585268,0.585268,0.81084,106,146)"/>
<path style="fill:none;stroke-width:4;stroke-linecap:round;stroke-linejoin:round;stroke:rgb(100%,100%,100%);stroke-opacity:1;stroke-miterlimit:10;" d="M 3.756422 -0.0249577 C 3.494842 0.0704674 3.24486 0.116453 3.018264 0.116692 C 2.48696 0.118597 2.06487 -0.0174561 1.75428 -0.294634 C 1.573908 -0.45855 1.454049 -0.646233 1.384677 -0.850467 C 1.309851 -1.05382 1.276868 -1.361862 1.280274 -1.773712 L 1.279321 -5.243025 L 0.463718 -5.234357 L 0.462194 -5.6594 L 1.277797 -5.668069 L 1.281036 -6.687048 L 2.314018 -6.943484 L 2.318591 -5.668354 L 3.897023 -5.665973 L 3.898547 -5.24093 L 2.320115 -5.243311 L 2.311256 -1.626919 C 2.312447 -1.134671 2.35898 -0.812031 2.444522 -0.66357 C 2.580409 -0.411326 2.816364 -0.28437 3.154674 -0.285871 C 3.321805 -0.290491 3.525515 -0.345788 3.754898 -0.450001 Z M 3.756422 -0.0249577 " transform="matrix(0.81084,-0.585268,0.585268,0.81084,111,142)"/>
<path style=" stroke:none;fill-rule:nonzero;fill:rgb(0%,0%,0%);fill-opacity:1;" d="M 69.96875 162.046875 L 74 167.625 C 74.152344 167.855469 74.316406 168.050781 74.484375 168.203125 C 74.535156 168.265625 74.59375 168.292969 74.65625 168.28125 C 74.726562 168.273438 74.835938 168.21875 74.984375 168.125 L 75.28125 167.953125 L 75.375 167.890625 L 75.5625 168.15625 L 73.15625 169.890625 L 72.96875 169.625 L 73.046875 169.5625 L 73.3125 169.328125 C 73.464844 169.214844 73.550781 169.117188 73.5625 169.03125 C 73.582031 168.949219 73.535156 168.828125 73.421875 168.671875 L 73.15625 168.234375 L 69.90625 163.75 L 69.578125 163.34375 C 69.464844 163.191406 69.371094 163.105469 69.296875 163.09375 C 69.214844 163.085938 69.085938 163.132812 68.90625 163.234375 L 68.609375 163.421875 L 68.53125 163.484375 L 68.34375 163.21875 Z M 69.96875 162.046875 "/>
<path style=" stroke:none;fill-rule:nonzero;fill:rgb(0%,0%,0%);fill-opacity:1;" d="M 78.796875 165.015625 C 78.722656 165.496094 78.613281 165.867188 78.46875 166.125 C 78.332031 166.386719 78.128906 166.613281 77.859375 166.796875 C 77.472656 167.078125 77.058594 167.195312 76.625 167.140625 C 76.1875 167.089844 75.835938 166.882812 75.5625 166.515625 C 75.253906 166.082031 75.164062 165.601562 75.296875 165.078125 C 75.390625 164.746094 75.566406 164.445312 75.8125 164.171875 C 76.050781 163.894531 76.425781 163.570312 76.9375 163.203125 L 77.109375 163.0625 L 76.6875 162.5 C 76.164062 161.773438 75.636719 161.605469 75.09375 162 C 74.824219 162.199219 74.652344 162.449219 74.578125 162.75 C 74.527344 162.929688 74.597656 163.175781 74.78125 163.484375 L 74.828125 163.59375 L 74.265625 163.984375 L 73.65625 163.125 C 74.054688 162.460938 74.503906 161.945312 75 161.578125 C 75.4375 161.277344 75.867188 161.121094 76.28125 161.109375 C 76.550781 161.132812 76.769531 161.195312 76.9375 161.296875 C 77.101562 161.402344 77.289062 161.597656 77.5 161.875 L 78.96875 163.921875 C 79.238281 164.289062 79.457031 164.523438 79.625 164.625 C 79.789062 164.730469 79.953125 164.71875 80.109375 164.59375 C 80.167969 164.554688 80.238281 164.492188 80.3125 164.40625 L 80.578125 164.703125 C 80.421875 164.914062 80.261719 165.074219 80.109375 165.1875 C 79.703125 165.480469 79.261719 165.421875 78.796875 165.015625 Z M 78.546875 165.0625 L 77.296875 163.34375 L 77.09375 163.5 C 76.601562 163.855469 76.292969 164.230469 76.171875 164.625 C 76.046875 165.023438 76.113281 165.398438 76.375 165.75 C 76.558594 166.023438 76.800781 166.183594 77.09375 166.234375 C 77.382812 166.277344 77.660156 166.203125 77.921875 166.015625 C 78.167969 165.839844 78.378906 165.523438 78.546875 165.0625 Z M 78.546875 165.0625 "/>
<path style=" stroke:none;fill-rule:nonzero;fill:rgb(0%,0%,0%);fill-opacity:1;" d="M 80.703125 163.5625 L 76.640625 157.9375 L 76.3125 157.53125 C 76.199219 157.386719 76.105469 157.308594 76.03125 157.296875 C 75.949219 157.277344 75.820312 157.320312 75.640625 157.421875 L 75.34375 157.609375 L 75.28125 157.671875 L 75.09375 157.40625 L 76.6875 156.234375 L 78.8125 159.1875 C 78.761719 158.253906 79.066406 157.542969 79.71875 157.0625 C 80.246094 156.691406 80.816406 156.597656 81.421875 156.78125 C 82.023438 156.96875 82.578125 157.402344 83.078125 158.078125 C 83.628906 158.851562 83.894531 159.597656 83.875 160.3125 C 83.851562 161.023438 83.550781 161.589844 82.96875 162.015625 C 82.425781 162.402344 81.808594 162.527344 81.125 162.390625 L 81.078125 162.4375 L 81.390625 163.0625 Z M 80.890625 162.0625 C 81.574219 162.074219 82.125 161.933594 82.53125 161.640625 C 82.902344 161.363281 83.070312 160.996094 83.03125 160.546875 C 83 160.089844 82.761719 159.5625 82.328125 158.96875 C 81.859375 158.316406 81.414062 157.890625 81 157.703125 C 80.582031 157.507812 80.183594 157.542969 79.8125 157.8125 C 79.585938 157.980469 79.402344 158.214844 79.265625 158.515625 C 79.121094 158.820312 79.039062 159.136719 79.015625 159.46875 Z M 80.890625 162.0625 "/>
<path style=" stroke:none;fill-rule:nonzero;fill:rgb(0%,0%,0%);fill-opacity:1;" d="M 90 156.8125 C 89.613281 157.386719 89.199219 157.835938 88.765625 158.15625 C 88.097656 158.636719 87.386719 158.808594 86.640625 158.671875 C 85.894531 158.527344 85.257812 158.089844 84.734375 157.359375 C 84.238281 156.675781 84.019531 155.976562 84.078125 155.265625 C 84.132812 154.558594 84.457031 153.992188 85.046875 153.5625 C 85.589844 153.167969 86.140625 153.050781 86.703125 153.203125 C 87.261719 153.359375 87.796875 153.777344 88.296875 154.453125 L 88.359375 154.546875 L 85.5625 156.5625 C 86.007812 157.1875 86.429688 157.601562 86.828125 157.796875 C 87.449219 158.101562 88.039062 158.046875 88.59375 157.640625 C 89.101562 157.277344 89.46875 156.855469 89.6875 156.375 Z M 85.390625 156.28125 L 87.28125 154.921875 L 87.140625 154.734375 C 86.898438 154.402344 86.707031 154.167969 86.5625 154.03125 C 86.425781 153.898438 86.273438 153.796875 86.109375 153.734375 C 85.769531 153.613281 85.453125 153.648438 85.171875 153.84375 C 84.863281 154.074219 84.726562 154.410156 84.765625 154.84375 C 84.808594 155.28125 85.019531 155.761719 85.390625 156.28125 Z M 85.390625 156.28125 "/>
<path style=" stroke:none;fill-rule:nonzero;fill:rgb(0%,0%,0%);fill-opacity:1;" d="M 87.96875 148.046875 L 92 153.625 C 92.152344 153.855469 92.316406 154.050781 92.484375 154.203125 C 92.535156 154.265625 92.59375 154.292969 92.65625 154.28125 C 92.726562 154.273438 92.835938 154.21875 92.984375 154.125 L 93.28125 153.953125 L 93.375 153.890625 L 93.5625 154.15625 L 91.15625 155.890625 L 90.96875 155.625 L 91.046875 155.5625 L 91.3125 155.328125 C 91.464844 155.214844 91.550781 155.117188 91.5625 155.03125 C 91.582031 154.949219 91.535156 154.828125 91.421875 154.671875 L 91.15625 154.234375 L 87.90625 149.75 L 87.578125 149.34375 C 87.464844 149.191406 87.371094 149.105469 87.296875 149.09375 C 87.214844 149.085938 87.085938 149.132812 86.90625 149.234375 L 86.609375 149.421875 L 86.53125 149.484375 L 86.34375 149.21875 Z M 87.96875 148.046875 "/>
<path style=" stroke:none;fill-rule:nonzero;fill:rgb(0%,0%,0%);fill-opacity:1;" d="M 100.03125 149.78125 C 99.875 150.011719 99.699219 150.195312 99.515625 150.328125 C 99.085938 150.640625 98.664062 150.777344 98.25 150.734375 C 98.007812 150.707031 97.800781 150.625 97.625 150.5 C 97.445312 150.378906 97.238281 150.148438 97 149.8125 L 94.96875 147 L 94.3125 147.484375 L 94.0625 147.140625 L 94.71875 146.65625 L 94.125 145.828125 L 94.8125 145.015625 L 95.5625 146.046875 L 96.84375 145.125 L 97.09375 145.46875 L 95.8125 146.390625 L 97.921875 149.328125 C 98.210938 149.726562 98.4375 149.960938 98.59375 150.03125 C 98.851562 150.15625 99.117188 150.121094 99.390625 149.921875 C 99.523438 149.820312 99.65625 149.65625 99.78125 149.4375 Z M 100.03125 149.78125 "/>
<path style=" stroke:none;fill-rule:nonzero;fill:rgb(0%,0%,0%);fill-opacity:1;" d="M 105 146.8125 C 104.613281 147.386719 104.199219 147.835938 103.765625 148.15625 C 103.097656 148.636719 102.386719 148.808594 101.640625 148.671875 C 100.894531 148.527344 100.257812 148.089844 99.734375 147.359375 C 99.238281 146.675781 99.019531 145.976562 99.078125 145.265625 C 99.132812 144.558594 99.457031 143.992188 100.046875 143.5625 C 100.589844 143.167969 101.140625 143.050781 101.703125 143.203125 C 102.261719 143.359375 102.796875 143.777344 103.296875 144.453125 L 103.359375 144.546875 L 100.5625 146.5625 C 101.007812 147.1875 101.429688 147.601562 101.828125 147.796875 C 102.449219 148.101562 103.039062 148.046875 103.59375 147.640625 C 104.101562 147.277344 104.46875 146.855469 104.6875 146.375 Z M 100.390625 146.28125 L 102.28125 144.921875 L 102.140625 144.734375 C 101.898438 144.402344 101.707031 144.167969 101.5625 144.03125 C 101.425781 143.898438 101.273438 143.796875 101.109375 143.734375 C 100.769531 143.613281 100.453125 143.648438 100.171875 143.84375 C 99.863281 144.074219 99.726562 144.410156 99.765625 144.84375 C 99.808594 145.28125 100.019531 145.761719 100.390625 146.28125 Z M 100.390625 146.28125 "/>
<path style=" stroke:none;fill-rule:nonzero;fill:rgb(0%,0%,0%);fill-opacity:1;" d="M 106.015625 145.984375 L 105.828125 145.71875 L 105.90625 145.671875 C 106.039062 145.550781 106.125 145.335938 106.15625 145.03125 L 106.25 144.171875 L 106.375 142.359375 L 104.5 141.78125 L 103.71875 141.578125 C 103.511719 141.527344 103.367188 141.5 103.28125 141.5 C 103.191406 141.5 103.074219 141.550781 102.9375 141.640625 L 102.859375 141.6875 L 102.671875 141.421875 L 104.75 139.921875 L 104.9375 140.1875 L 104.859375 140.234375 L 104.6875 140.375 C 104.492188 140.523438 104.425781 140.636719 104.484375 140.71875 C 104.527344 140.761719 104.863281 140.882812 105.484375 141.078125 L 106.765625 141.5 L 106.796875 140.171875 C 106.796875 139.988281 106.777344 139.777344 106.75 139.546875 C 106.726562 139.308594 106.699219 139.167969 106.671875 139.125 C 106.609375 139.054688 106.496094 139.074219 106.34375 139.1875 L 106.1875 139.28125 L 106.09375 139.34375 L 105.90625 139.078125 L 107.359375 138.03125 L 107.546875 138.296875 L 107.46875 138.375 C 107.363281 138.460938 107.289062 138.550781 107.25 138.640625 C 107.207031 138.734375 107.191406 138.882812 107.203125 139.078125 C 107.203125 139.351562 107.191406 139.613281 107.171875 139.859375 L 107.109375 141.578125 L 109.03125 142.15625 C 109.488281 142.292969 109.828125 142.371094 110.046875 142.390625 C 110.261719 142.414062 110.441406 142.382812 110.578125 142.296875 L 110.65625 142.234375 L 110.84375 142.5 L 108.75 144.015625 L 108.5625 143.75 L 108.640625 143.6875 L 108.828125 143.5625 C 109.023438 143.417969 109.097656 143.308594 109.046875 143.234375 C 109.035156 143.226562 109.007812 143.210938 108.96875 143.1875 C 108.914062 143.167969 108.839844 143.140625 108.75 143.109375 C 108.507812 143.019531 108.277344 142.929688 108.0625 142.84375 L 106.671875 142.453125 L 106.640625 143.875 L 106.625 144.359375 L 106.625 144.8125 C 106.632812 144.875 106.644531 144.917969 106.65625 144.9375 C 106.714844 145.023438 106.847656 144.992188 107.046875 144.84375 L 107.21875 144.71875 L 107.3125 144.640625 L 107.5 144.90625 Z M 106.015625 145.984375 "/>
<path style=" stroke:none;fill-rule:nonzero;fill:rgb(0%,0%,0%);fill-opacity:1;" d="M 114.03125 139.78125 C 113.875 140.011719 113.699219 140.195312 113.515625 140.328125 C 113.085938 140.640625 112.664062 140.777344 112.25 140.734375 C 112.007812 140.707031 111.800781 140.625 111.625 140.5 C 111.445312 140.378906 111.238281 140.148438 111 139.8125 L 108.96875 137 L 108.3125 137.484375 L 108.0625 137.140625 L 108.71875 136.65625 L 108.125 135.828125 L 108.8125 135.015625 L 109.5625 136.046875 L 110.84375 135.125 L 111.09375 135.46875 L 109.8125 136.390625 L 111.921875 139.328125 C 112.210938 139.726562 112.4375 139.960938 112.59375 140.03125 C 112.851562 140.15625 113.117188 140.121094 113.390625 139.921875 C 113.523438 139.820312 113.65625 139.65625 113.78125 139.4375 Z M 114.03125 139.78125 "/>
<path style="fill:none;stroke-width:4;stroke-linecap:round;stroke-linejoin:round;stroke:rgb(100%,100%,100%);stroke-opacity:1;stroke-miterlimit:10;" d="M 2.193901 -8.242867 L 2.187697 -1.35104 C 2.18908 -1.067713 2.209526 -0.81803 2.247992 -0.605757 C 2.27195 -0.519167 2.309523 -0.456608 2.362394 -0.426654 C 2.413584 -0.388127 2.528775 -0.367309 2.705244 -0.359392 L 3.054821 -0.326416 L 3.168568 -0.325464 L 3.161544 0.000720434 L 0.19321 -0.00482096 L 0.200235 -0.331005 L 0.298923 -0.325886 L 0.646893 -0.357313 C 0.835297 -0.364857 0.960577 -0.395466 1.012481 -0.442251 C 1.069831 -0.498649 1.106348 -0.630342 1.116586 -0.827719 L 1.153075 -1.340388 L 1.147848 -6.867242 L 1.115766 -7.393362 C 1.104457 -7.580725 1.069041 -7.708728 1.011602 -7.769843 C 0.962734 -7.829276 0.834805 -7.866835 0.641193 -7.878115 L 0.291617 -7.911092 L 0.192928 -7.916211 L 0.199953 -8.242395 Z M 2.193901 -8.242867 " transform="matrix(0.963791,0.266659,-0.266659,0.963791,301,199)"/>
<path style="fill:none;stroke-width:4;stroke-linecap:round;stroke-linejoin:round;stroke:rgb(100%,100%,100%);stroke-opacity:1;stroke-miterlimit:10;" d="M 4.024958 -0.783685 C 3.673014 -0.433288 3.364845 -0.190466 3.104124 -0.0656402 C 2.839879 0.0608725 2.540061 0.12213 2.206357 0.121656 C 1.727709 0.116952 1.324995 -0.0367094 0.998213 -0.339328 C 0.683538 -0.63475 0.52235 -1.01665 0.521545 -1.479668 C 0.5201 -2.007342 0.72661 -2.43536 1.137552 -2.762033 C 1.408652 -2.982776 1.725746 -3.134592 2.081786 -3.214105 C 2.44656 -3.29347 2.940049 -3.33918 3.558729 -3.349549 L 3.775077 -3.331866 L 3.780297 -4.044628 C 3.779775 -4.932206 3.44328 -5.381755 2.769124 -5.396796 C 2.447527 -5.390074 2.166265 -5.290061 1.925337 -5.096756 C 1.774775 -4.977031 1.686776 -4.73568 1.66149 -4.381435 L 1.645602 -4.269887 L 0.95368 -4.267761 L 0.95079 -5.32311 C 1.665414 -5.630604 2.333678 -5.781646 2.950373 -5.778072 C 3.479735 -5.775994 3.917832 -5.647934 4.257767 -5.399253 C 4.466512 -5.243673 4.6103 -5.069986 4.682086 -4.874819 C 4.757545 -4.690072 4.798411 -4.4238 4.801311 -4.083049 L 4.79991 -1.55315 C 4.804538 -1.109286 4.84282 -0.794137 4.916741 -0.621647 C 4.990513 -0.440424 5.132275 -0.352383 5.338502 -0.35584 C 5.403158 -0.35648 5.496001 -0.370614 5.61182 -0.40008 L 5.646919 -0.00112033 C 5.397366 0.0837117 5.171387 0.118279 4.974043 0.113152 C 4.477779 0.116882 4.161417 -0.182064 4.024958 -0.783685 Z M 3.788967 -0.878581 L 3.77644 -3.003372 L 3.531906 -3.00756 C 2.930841 -3.005625 2.456996 -2.882702 2.113893 -2.640479 C 1.774463 -2.408676 1.602546 -2.062184 1.600127 -1.614946 C 1.603326 -1.291662 1.710535 -1.022506 1.914859 -0.812839 C 2.12072 -0.590915 2.389659 -0.481477 2.712943 -0.484676 C 3.013401 -0.481277 3.370338 -0.613191 3.788967 -0.878581 Z M 3.788967 -0.878581 " transform="matrix(0.901955,0.43183,-0.43183,0.901955,304,199)"/>
<path style="fill:none;stroke-width:4;stroke-linecap:round;stroke-linejoin:round;stroke:rgb(100%,100%,100%);stroke-opacity:1;stroke-miterlimit:10;" d="M 0.815539 0.0619814 L 0.832297 -6.878331 L 0.796568 -7.392954 C 0.788381 -7.582622 0.75387 -7.705588 0.700994 -7.758253 C 0.649253 -7.821908 0.522672 -7.859968 0.324282 -7.874896 L -0.039527 -7.901348 L -0.127448 -7.910425 L -0.127515 -8.232542 L 1.849152 -8.228403 L 1.850662 -4.585063 C 2.362476 -5.373599 3.025578 -5.771646 3.839965 -5.779204 C 4.481169 -5.776873 4.999263 -5.523454 5.383255 -5.020083 C 5.756824 -4.523341 5.94815 -3.84826 5.952871 -3.006397 C 5.957804 -2.058993 5.734942 -1.298939 5.284852 -0.731729 C 4.845752 -0.163385 4.272063 0.121712 3.563783 0.123564 C 2.886578 0.120293 2.315998 -0.135767 1.854507 -0.641586 L 1.798422 -0.636269 L 1.659866 0.0602913 Z M 1.851393 -1.041769 C 2.399264 -0.646436 2.925494 -0.444937 3.422692 -0.446366 C 3.894311 -0.442105 4.244811 -0.636395 4.48215 -1.025638 C 4.724984 -1.414314 4.852956 -1.981457 4.856973 -2.719675 C 4.847713 -3.517578 4.732005 -4.118209 4.49886 -4.522702 C 4.265148 -4.921701 3.919493 -5.123995 3.461895 -5.129585 C 3.181274 -5.128011 2.894608 -5.040981 2.602462 -4.873987 C 2.318843 -4.708891 2.071615 -4.492832 1.858314 -4.228841 Z M 1.851393 -1.041769 " transform="matrix(0.775984,0.630753,-0.630753,0.775984,308,201)"/>
<path style="fill:none;stroke-width:4;stroke-linecap:round;stroke-linejoin:round;stroke:rgb(100%,100%,100%);stroke-opacity:1;stroke-miterlimit:10;" d="M 5.110241 -0.239904 C 4.452336 -0.00224894 3.851326 0.121062 3.315701 0.127981 C 2.495434 0.124447 1.81819 -0.15795 1.292463 -0.721257 C 0.7713 -1.273086 0.511296 -1.993889 0.51245 -2.883664 C 0.509373 -3.723902 0.740185 -4.413868 1.199383 -4.954033 C 1.667071 -5.496244 2.269768 -5.769109 2.999451 -5.776085 C 3.678655 -5.776284 4.199567 -5.546051 4.559669 -5.088374 C 4.928262 -4.632743 5.108828 -3.988032 5.114422 -3.144807 L 5.116967 -3.04479 L 1.657881 -3.051953 C 1.653074 -2.281694 1.752321 -1.691056 1.961595 -1.285072 C 2.301451 -0.687742 2.810747 -0.386425 3.492939 -0.389141 C 4.116631 -0.388538 4.659612 -0.514033 5.111343 -0.772071 Z M 1.674142 -3.372139 L 4.02486 -3.370941 L 4.023531 -3.615008 C 4.026874 -4.011146 4.010746 -4.309148 3.966656 -4.506968 C 3.922095 -4.699284 3.853636 -4.871463 3.755776 -5.023976 C 3.551564 -5.326956 3.279145 -5.480519 2.941037 -5.481678 C 2.549462 -5.473543 2.236415 -5.28128 2.00394 -4.896397 C 1.779957 -4.513561 1.667194 -4.004793 1.674142 -3.372139 Z M 1.674142 -3.372139 " transform="matrix(0.764722,0.64436,-0.64436,0.764722,313,206)"/>
<path style="fill:none;stroke-width:4;stroke-linecap:round;stroke-linejoin:round;stroke:rgb(100%,100%,100%);stroke-opacity:1;stroke-miterlimit:10;" d="M 2.178568 -8.232607 L 2.189697 -1.341442 C 2.184445 -1.06141 2.204723 -0.811958 2.243183 -0.602215 C 2.275177 -0.512634 2.315631 -0.449921 2.36818 -0.422017 C 2.415238 -0.394708 2.52449 -0.377347 2.695345 -0.364444 L 3.156699 -0.314598 L 3.155235 0.00751669 L 0.187925 0.00919122 L 0.189389 -0.312923 L 0.638268 -0.353327 C 0.837102 -0.367962 0.968173 -0.398252 1.025987 -0.444791 C 1.080758 -0.488881 1.111477 -0.618916 1.122448 -0.823319 L 1.157446 -1.352954 L 1.15531 -6.88738 L 1.131825 -7.389996 C 1.124539 -7.579701 1.088163 -7.705873 1.02819 -7.767917 C 0.967623 -7.824468 0.838181 -7.860679 0.639864 -7.87655 L 0.298154 -7.902356 L 0.185935 -7.892255 L 0.177601 -8.226541 Z M 2.178568 -8.232607 " transform="matrix(0.778972,0.627059,-0.627059,0.778972,319,210)"/>
<path style="fill:none;stroke-width:4;stroke-linecap:round;stroke-linejoin:round;stroke:rgb(100%,100%,100%);stroke-opacity:1;stroke-miterlimit:10;" d="" transform="matrix(0.817303,0.576208,-0.576208,0.817303,322,212)"/>
<path style="fill:none;stroke-width:4;stroke-linecap:round;stroke-linejoin:round;stroke:rgb(100%,100%,100%);stroke-opacity:1;stroke-miterlimit:10;" d="M 3.756314 -0.0378479 C 3.481934 0.0648461 3.234103 0.115894 3.015561 0.122613 C 2.481561 0.122274 2.055087 -0.0142397 1.744827 -0.286009 C 1.569371 -0.45391 1.451531 -0.635033 1.388566 -0.836694 C 1.320574 -1.040645 1.286941 -1.353386 1.290404 -1.7676 L 1.277974 -5.233123 L 0.44223 -5.237312 L 0.451641 -5.657922 L 1.287385 -5.653734 L 1.284384 -6.68699 L 2.323286 -6.942358 L 2.320641 -5.656736 L 3.887897 -5.659398 L 3.878486 -5.238787 L 2.31123 -5.236125 L 2.314419 -1.61699 C 2.318679 -1.126421 2.366026 -0.810471 2.458279 -0.653138 C 2.581105 -0.402976 2.815565 -0.278014 3.149315 -0.277802 C 3.309794 -0.283644 3.512824 -0.34295 3.751091 -0.452982 Z M 3.756314 -0.0378479 " transform="matrix(0.936552,0.350529,-0.350529,0.936552,326,215)"/>
<path style="fill:none;stroke-width:4;stroke-linecap:round;stroke-linejoin:round;stroke:rgb(100%,100%,100%);stroke-opacity:1;stroke-miterlimit:10;" d="M 5.108155 -0.251975 C 4.448407 0.00584746 3.845028 0.135668 3.305654 0.135844 C 2.481173 0.129437 1.808971 -0.153468 1.286051 -0.708231 C 0.770768 -1.264637 0.513431 -1.996411 0.512687 -2.891274 C 0.511989 -3.730209 0.743316 -4.419283 1.20285 -4.957675 C 1.6692 -5.501529 2.271908 -5.78304 3.004979 -5.792926 C 3.673951 -5.785025 4.194417 -5.557377 4.55956 -5.104519 C 4.933162 -4.649486 5.113496 -3.99704 5.109022 -3.145006 L 5.113466 -3.050067 L 1.659502 -3.058106 C 1.655513 -2.278097 1.755315 -1.684242 1.961084 -1.284998 C 2.290064 -0.684512 2.797766 -0.386192 3.482014 -0.381578 C 4.117148 -0.382379 4.667596 -0.516794 5.1219 -0.782357 Z M 1.673434 -3.364772 L 4.005532 -3.371078 L 4.017334 -3.613356 C 4.014543 -4.016315 3.994927 -4.311767 3.955488 -4.495073 C 3.922043 -4.687659 3.854229 -4.87285 3.757506 -5.043831 C 3.556471 -5.328219 3.286257 -5.469863 2.948508 -5.461125 C 2.564642 -5.462442 2.250235 -5.270931 2.015921 -4.892874 C 1.786247 -4.51182 1.672632 -3.999907 1.673434 -3.364772 Z M 1.673434 -3.364772 " transform="matrix(0.977628,0.210343,-0.210343,0.977628,330,217)"/>
<path style="fill:none;stroke-width:4;stroke-linecap:round;stroke-linejoin:round;stroke:rgb(100%,100%,100%);stroke-opacity:1;stroke-miterlimit:10;" d="M 0.0153159 -0.00309249 L 0.0116372 -0.337097 L 0.106625 -0.340336 C 0.292772 -0.346041 0.48945 -0.457484 0.691283 -0.681551 L 1.260038 -1.338361 L 2.443349 -2.740932 L 1.236207 -4.29845 L 0.72637 -4.928762 C 0.599684 -5.082511 0.495309 -5.184974 0.425504 -5.234641 C 0.352644 -5.279706 0.23078 -5.310891 0.072945 -5.322858 L -0.00981949 -5.338027 L -0.0104057 -5.656715 L 2.554416 -5.664498 L 2.555002 -5.345809 L 2.460014 -5.34257 L 2.22409 -5.326815 C 1.990449 -5.31949 1.877936 -5.264892 1.890379 -5.163792 C 1.878229 -5.105548 2.071037 -4.821687 2.461919 -4.306834 L 3.272915 -3.211299 L 4.061545 -4.279133 C 4.16931 -4.41646 4.278547 -4.585964 4.388485 -4.791476 C 4.501478 -5.00159 4.562522 -5.133468 4.565505 -5.177906 C 4.555381 -5.267519 4.461056 -5.320205 4.280248 -5.327533 L 4.087179 -5.336371 L 3.973783 -5.345355 L 3.973197 -5.664043 L 5.775022 -5.661229 L 5.775608 -5.342541 L 5.668397 -5.320893 C 5.51903 -5.31066 5.398822 -5.274433 5.307 -5.216042 C 5.221289 -5.166855 5.126485 -5.064026 5.031753 -4.921361 C 4.864418 -4.684334 4.699328 -4.475657 4.536485 -4.295328 L 3.487924 -2.935906 L 4.704344 -1.33244 C 4.99155 -0.956057 5.218783 -0.699072 5.386041 -0.561485 C 5.548698 -0.426955 5.715073 -0.352951 5.876737 -0.341757 L 5.959501 -0.326588 L 5.96318 0.00741644 L 3.395266 -0.000117074 L 3.391587 -0.334121 L 3.486575 -0.33736 L 3.710276 -0.334707 C 3.961552 -0.333637 4.093247 -0.372184 4.102304 -0.445744 C 4.097666 -0.468718 4.07922 -0.500859 4.050025 -0.54677 C 4.018547 -0.58425 3.973999 -0.646987 3.917927 -0.727322 C 3.777325 -0.949993 3.644417 -1.154292 3.524579 -1.333334 L 2.621542 -2.489986 L 1.753386 -1.342333 L 1.46297 -0.964888 L 1.203186 -0.593627 C 1.183378 -0.533836 1.167362 -0.494737 1.163569 -0.474046 C 1.159151 -0.377511 1.280278 -0.330237 1.525406 -0.339881 L 1.73379 -0.334136 L 1.862503 -0.328244 L 1.866181 0.00576005 Z M 0.0153159 -0.00309249 " transform="matrix(0.980218,0.19792,-0.19792,0.980218,336,218)"/>
<path style="fill:none;stroke-width:4;stroke-linecap:round;stroke-linejoin:round;stroke:rgb(100%,100%,100%);stroke-opacity:1;stroke-miterlimit:10;" d="M 3.73551 -0.0358416 C 3.478574 0.074544 3.234808 0.130573 3.002702 0.124582 C 2.468749 0.122369 2.047773 -0.0136025 1.744361 -0.280255 C 1.57244 -0.445428 1.447319 -0.635756 1.378173 -0.845083 C 1.30595 -1.049823 1.269244 -1.357121 1.276478 -1.764657 L 1.276693 -5.236537 L 0.449315 -5.232651 L 0.447372 -5.64634 L 1.27475 -5.650227 L 1.277557 -6.685961 L 2.310917 -6.9375 L 2.310485 -5.64742 L 3.88557 -5.655409 L 3.887513 -5.241719 L 2.312428 -5.23373 L 2.308757 -1.617836 C 2.309729 -1.128307 2.357122 -0.807191 2.45018 -0.658319 C 2.582805 -0.409749 2.814588 -0.284249 3.144772 -0.285653 C 3.311025 -0.290565 3.514955 -0.346702 3.748897 -0.452554 Z M 3.73551 -0.0358416 " transform="matrix(0.981109,0.193458,-0.193458,0.981109,342,219)"/>
<path style=" stroke:none;fill-rule:nonzero;fill:rgb(0%,0%,0%);fill-opacity:1;" d="M 305.3125 191.640625 L 303.46875 198.28125 C 303.394531 198.554688 303.347656 198.800781 303.328125 199.015625 C 303.328125 199.105469 303.347656 199.175781 303.390625 199.21875 C 303.429688 199.269531 303.535156 199.320312 303.703125 199.375 L 304.03125 199.5 L 304.140625 199.53125 L 304.046875 199.84375 L 301.1875 199.046875 L 301.28125 198.734375 L 301.375 198.765625 L 301.71875 198.828125 C 301.902344 198.871094 302.03125 198.875 302.09375 198.84375 C 302.164062 198.804688 302.234375 198.6875 302.296875 198.5 L 302.46875 198.015625 L 303.9375 192.6875 L 304.046875 192.171875 C 304.085938 191.988281 304.085938 191.855469 304.046875 191.78125 C 304.015625 191.710938 303.902344 191.640625 303.71875 191.578125 L 303.390625 191.453125 L 303.296875 191.421875 L 303.390625 191.109375 Z M 305.3125 191.640625 "/>
<path style=" stroke:none;fill-rule:nonzero;fill:rgb(0%,0%,0%);fill-opacity:1;" d="M 307.96875 200.03125 C 307.5 200.195312 307.117188 200.28125 306.828125 200.28125 C 306.535156 200.28125 306.238281 200.207031 305.9375 200.0625 C 305.507812 199.851562 305.210938 199.539062 305.046875 199.125 C 304.890625 198.722656 304.910156 198.308594 305.109375 197.890625 C 305.335938 197.414062 305.707031 197.117188 306.21875 197 C 306.558594 196.917969 306.910156 196.917969 307.265625 197 C 307.628906 197.085938 308.09375 197.257812 308.65625 197.515625 L 308.84375 197.625 L 309.15625 196.984375 C 309.539062 196.183594 309.429688 195.632812 308.828125 195.328125 C 308.535156 195.195312 308.238281 195.164062 307.9375 195.234375 C 307.75 195.277344 307.566406 195.457031 307.390625 195.765625 L 307.328125 195.859375 L 306.703125 195.5625 L 307.15625 194.609375 C 307.933594 194.640625 308.601562 194.792969 309.15625 195.0625 C 309.632812 195.292969 309.972656 195.597656 310.171875 195.96875 C 310.292969 196.199219 310.347656 196.417969 310.328125 196.625 C 310.316406 196.824219 310.238281 197.082031 310.09375 197.390625 L 309 199.671875 C 308.8125 200.074219 308.710938 200.375 308.703125 200.5625 C 308.691406 200.757812 308.78125 200.898438 308.96875 200.984375 C 309.027344 201.011719 309.117188 201.039062 309.234375 201.0625 L 309.09375 201.4375 C 308.832031 201.40625 308.613281 201.339844 308.4375 201.25 C 307.988281 201.039062 307.832031 200.632812 307.96875 200.03125 Z M 307.796875 199.84375 L 308.703125 197.921875 L 308.484375 197.8125 C 307.941406 197.554688 307.460938 197.460938 307.046875 197.53125 C 306.640625 197.59375 306.335938 197.832031 306.140625 198.234375 C 306.003906 198.527344 305.984375 198.816406 306.078125 199.09375 C 306.167969 199.382812 306.363281 199.597656 306.65625 199.734375 C 306.925781 199.867188 307.304688 199.902344 307.796875 199.84375 Z M 307.796875 199.84375 "/>
<path style=" stroke:none;fill-rule:nonzero;fill:rgb(0%,0%,0%);fill-opacity:1;" d="M 308.59375 201.5625 L 312.984375 196.1875 L 313.28125 195.765625 C 313.394531 195.613281 313.445312 195.496094 313.4375 195.421875 C 313.4375 195.339844 313.363281 195.230469 313.21875 195.09375 L 312.953125 194.84375 L 312.890625 194.78125 L 313.09375 194.53125 L 314.625 195.78125 L 312.328125 198.609375 C 313.222656 198.320312 313.988281 198.429688 314.625 198.9375 C 315.121094 199.34375 315.363281 199.867188 315.34375 200.5 C 315.320312 201.121094 315.042969 201.765625 314.515625 202.421875 C 313.921875 203.160156 313.269531 203.609375 312.5625 203.765625 C 311.863281 203.929688 311.238281 203.789062 310.6875 203.34375 C 310.164062 202.914062 309.882812 202.355469 309.84375 201.671875 L 309.796875 201.640625 L 309.25 202.09375 Z M 310.09375 201.359375 C 310.269531 202.011719 310.550781 202.5 310.9375 202.8125 C 311.300781 203.113281 311.695312 203.183594 312.125 203.03125 C 312.558594 202.882812 313.015625 202.523438 313.484375 201.953125 C 313.980469 201.328125 314.269531 200.789062 314.34375 200.328125 C 314.414062 199.871094 314.273438 199.496094 313.921875 199.203125 C 313.703125 199.027344 313.425781 198.914062 313.09375 198.859375 C 312.769531 198.808594 312.441406 198.820312 312.109375 198.890625 Z M 310.09375 201.359375 "/>
<path style=" stroke:none;fill-rule:nonzero;fill:rgb(0%,0%,0%);fill-opacity:1;" d="M 317.0625 209.109375 C 316.40625 208.867188 315.867188 208.574219 315.453125 208.234375 C 314.828125 207.703125 314.492188 207.050781 314.453125 206.28125 C 314.410156 205.523438 314.675781 204.804688 315.25 204.125 C 315.789062 203.480469 316.410156 203.101562 317.109375 202.984375 C 317.816406 202.871094 318.453125 203.050781 319.015625 203.515625 C 319.535156 203.953125 319.785156 204.464844 319.765625 205.046875 C 319.753906 205.632812 319.476562 206.242188 318.9375 206.890625 L 318.875 206.96875 L 316.234375 204.734375 C 315.734375 205.320312 315.429688 205.835938 315.328125 206.28125 C 315.203125 206.957031 315.398438 207.515625 315.921875 207.953125 C 316.398438 208.355469 316.894531 208.609375 317.40625 208.703125 Z M 316.453125 204.5 L 318.25 206.015625 L 318.40625 205.828125 C 318.664062 205.527344 318.84375 205.289062 318.9375 205.109375 C 319.027344 204.933594 319.085938 204.757812 319.109375 204.578125 C 319.148438 204.214844 319.039062 203.921875 318.78125 203.703125 C 318.476562 203.457031 318.113281 203.402344 317.6875 203.546875 C 317.269531 203.695312 316.855469 204.011719 316.453125 204.5 Z M 316.453125 204.5 "/>
<path style=" stroke:none;fill-rule:nonzero;fill:rgb(0%,0%,0%);fill-opacity:1;" d="M 325.859375 204.953125 L 321.546875 210.328125 C 321.367188 210.542969 321.226562 210.75 321.125 210.9375 C 321.09375 211.027344 321.085938 211.101562 321.109375 211.15625 C 321.128906 211.207031 321.203125 211.289062 321.328125 211.40625 L 321.65625 211.734375 L 321.453125 211.984375 L 319.140625 210.125 L 319.34375 209.875 L 319.71875 210.125 C 319.882812 210.238281 320.003906 210.296875 320.078125 210.296875 C 320.148438 210.296875 320.253906 210.214844 320.390625 210.0625 L 320.75 209.671875 L 324.21875 205.359375 L 324.515625 204.953125 C 324.628906 204.800781 324.679688 204.679688 324.671875 204.59375 C 324.660156 204.511719 324.582031 204.402344 324.4375 204.265625 L 324.1875 204.03125 L 324.09375 203.96875 L 324.296875 203.703125 Z M 325.859375 204.953125 "/>
<path style=" stroke:none;fill-rule:nonzero;fill:rgb(0%,0%,0%);fill-opacity:1;" d="M 329.53125 216.28125 C 329.238281 216.28125 328.988281 216.242188 328.78125 216.171875 C 328.28125 215.984375 327.929688 215.707031 327.734375 215.34375 C 327.628906 215.125 327.582031 214.914062 327.59375 214.703125 C 327.601562 214.488281 327.679688 214.183594 327.828125 213.796875 L 329.03125 210.546875 L 328.25 210.25 L 328.40625 209.859375 L 329.1875 210.15625 L 329.546875 209.1875 L 330.609375 209.3125 L 330.15625 210.515625 L 331.625 211.0625 L 331.46875 211.453125 L 330 210.90625 L 328.734375 214.296875 C 328.566406 214.757812 328.5 215.070312 328.53125 215.25 C 328.558594 215.527344 328.734375 215.726562 329.046875 215.84375 C 329.199219 215.894531 329.410156 215.910156 329.671875 215.890625 Z M 329.53125 216.28125 "/>
<path style=" stroke:none;fill-rule:nonzero;fill:rgb(0%,0%,0%);fill-opacity:1;" d="M 335.046875 217.828125 C 334.347656 217.941406 333.730469 217.941406 333.203125 217.828125 C 332.398438 217.648438 331.800781 217.230469 331.40625 216.578125 C 331.019531 215.925781 330.921875 215.15625 331.109375 214.28125 C 331.285156 213.460938 331.65625 212.835938 332.21875 212.40625 C 332.789062 211.972656 333.4375 211.824219 334.15625 211.96875 C 334.808594 212.117188 335.269531 212.449219 335.53125 212.96875 C 335.800781 213.492188 335.839844 214.167969 335.65625 215 L 335.640625 215.09375 L 332.265625 214.359375 C 332.097656 215.121094 332.070312 215.722656 332.1875 216.15625 C 332.382812 216.8125 332.816406 217.210938 333.484375 217.359375 C 334.105469 217.492188 334.671875 217.476562 335.171875 217.3125 Z M 332.34375 214.0625 L 334.625 214.546875 L 334.6875 214.3125 C 334.769531 213.917969 334.8125 213.625 334.8125 213.4375 C 334.820312 213.242188 334.792969 213.046875 334.734375 212.859375 C 334.597656 212.539062 334.363281 212.34375 334.03125 212.28125 C 333.65625 212.199219 333.308594 212.320312 333 212.640625 C 332.695312 212.964844 332.476562 213.441406 332.34375 214.0625 Z M 332.34375 214.0625 "/>
<path style=" stroke:none;fill-rule:nonzero;fill:rgb(0%,0%,0%);fill-opacity:1;" d="M 336.015625 218 L 336.078125 217.671875 L 336.171875 217.6875 C 336.355469 217.71875 336.570312 217.648438 336.8125 217.46875 L 337.5 216.9375 L 338.9375 215.796875 L 338.0625 214.03125 L 337.6875 213.3125 C 337.59375 213.136719 337.511719 213.015625 337.453125 212.953125 C 337.390625 212.894531 337.277344 212.839844 337.125 212.796875 L 337.046875 212.765625 L 337.109375 212.453125 L 339.625 212.953125 L 339.5625 213.265625 L 339.46875 213.25 L 339.234375 213.21875 C 339.003906 213.179688 338.882812 213.210938 338.875 213.3125 C 338.851562 213.367188 338.984375 213.683594 339.265625 214.265625 L 339.84375 215.5 L 340.828125 214.609375 C 340.960938 214.496094 341.101562 214.351562 341.25 214.171875 C 341.402344 213.988281 341.488281 213.871094 341.5 213.828125 C 341.507812 213.738281 341.425781 213.667969 341.25 213.625 L 341.0625 213.578125 L 340.953125 213.546875 L 341.015625 213.234375 L 342.78125 213.59375 L 342.71875 213.90625 L 342.609375 213.90625 C 342.460938 213.886719 342.335938 213.898438 342.234375 213.9375 C 342.140625 213.96875 342.027344 214.050781 341.90625 214.171875 C 341.695312 214.371094 341.492188 214.542969 341.296875 214.6875 L 340 215.8125 L 340.875 217.625 C 341.082031 218.050781 341.253906 218.347656 341.390625 218.515625 C 341.523438 218.679688 341.671875 218.785156 341.828125 218.828125 L 341.90625 218.859375 L 341.84375 219.1875 L 339.328125 218.671875 L 339.390625 218.34375 L 339.484375 218.359375 L 339.703125 218.40625 C 339.949219 218.457031 340.085938 218.445312 340.109375 218.375 C 340.109375 218.351562 340.097656 218.316406 340.078125 218.265625 C 340.054688 218.222656 340.023438 218.152344 339.984375 218.0625 C 339.890625 217.816406 339.800781 217.589844 339.71875 217.390625 L 339.0625 216.078125 L 337.984375 217.03125 L 337.625 217.34375 L 337.296875 217.65625 C 337.265625 217.710938 337.242188 217.746094 337.234375 217.765625 C 337.210938 217.859375 337.320312 217.929688 337.5625 217.96875 L 337.765625 218.015625 L 337.890625 218.046875 L 337.828125 218.375 Z M 336.015625 218 "/>
<path style=" stroke:none;fill-rule:nonzero;fill:rgb(0%,0%,0%);fill-opacity:1;" d="M 345.671875 219.6875 C 345.398438 219.746094 345.148438 219.753906 344.921875 219.703125 C 344.398438 219.597656 344.011719 219.382812 343.765625 219.0625 C 343.628906 218.867188 343.542969 218.65625 343.515625 218.4375 C 343.484375 218.222656 343.507812 217.914062 343.59375 217.515625 L 344.265625 214.109375 L 343.453125 213.953125 L 343.53125 213.546875 L 344.34375 213.703125 L 344.546875 212.6875 L 345.609375 212.640625 L 345.359375 213.90625 L 346.90625 214.203125 L 346.828125 214.609375 L 345.28125 214.3125 L 344.578125 217.859375 C 344.484375 218.339844 344.46875 218.664062 344.53125 218.828125 C 344.613281 219.097656 344.816406 219.265625 345.140625 219.328125 C 345.304688 219.355469 345.515625 219.339844 345.765625 219.28125 Z M 345.671875 219.6875 "/>
</g>
</svg>
