<?xml version="1.0" encoding="UTF-8"?>
<svg xmlns="http://www.w3.org/2000/svg" xmlns:xlink="http://www.w3.org/1999/xlink" width="200pt" height="100pt" viewBox="0 0 200 100" version="1.1">
<g id="surface2">
<rect x="0" y="0" width="200" height="100" style="fill:rgb(100%,100%,100%);fill-opacity:1;stroke:none;"/>
<path style="fill:none;stroke-width:1;stroke-linecap:round;stroke-linejoin:round;stroke:rgb(0%,0%,100%);stroke-opacity:1;stroke-miterlimit:10;" d="M 0.5 74.25 L 201 70.910156 "/>
<path style="fill:none;stroke-width:1;stroke-linecap:round;stroke-linejoin:round;stroke:rgb(0%,0%,100%);stroke-opacity:1;stroke-miterlimit:10;" d="M 201 57.792969 L 0.5 54.449219 "/>
<path style="fill:none;stroke-width:4;stroke-linecap:round;stroke-linejoin:round;stroke:rgb(100%,100%,100%);stroke-opacity:1;stroke-miterlimit:10;" d="M 2.181728 -4.115054 L 2.180947 -1.349031 C 2.185634 -1.06782 2.209394 -0.814275 2.255937 -0.600177 C 2.26518 -0.514382 2.297467 -0.452411 2.352798 -0.414265 C 2.411905 -0.383996 2.529466 -0.362515 2.697542 -0.357502 L 3.041765 -0.331985 L 3.276108 -0.335891 L 3.281576 -0.00781141 L 0.187474 -0.00312457 L 0.182006 -0.331204 L 0.291366 -0.333027 L 0.634808 -0.354378 C 0.829963 -0.365444 0.962236 -0.398903 1.023816 -0.454624 C 1.081556 -0.506375 1.11853 -0.632009 1.126927 -0.831395 L 1.14958 -1.347469 L 1.162599 -4.316848 L 1.123021 -4.816258 C 1.108049 -5.011348 1.074721 -5.13581 1.023035 -5.189644 C 0.967379 -5.247318 0.841745 -5.284292 0.646264 -5.292755 L 0.301781 -5.333895 L 0.192161 -5.347695 L 0.186953 -5.660151 L 2.187196 -5.662234 L 2.189279 -4.599622 C 2.652822 -5.384799 3.263479 -5.781749 4.013505 -5.786436 C 4.115054 -5.788128 4.236521 -5.766712 4.373872 -5.729933 L 4.368664 -4.16713 L 3.790359 -4.173118 L 3.788797 -4.266855 L 3.735419 -4.656645 C 3.721814 -4.769715 3.693237 -4.843468 3.653659 -4.874063 C 3.621763 -4.912599 3.551069 -4.934862 3.449521 -4.933169 C 3.199425 -4.936814 2.962284 -4.866447 2.749879 -4.718355 C 2.533437 -4.57801 2.341472 -4.375564 2.181728 -4.115054 Z M 6.883159 -5.662365 L 6.87691 -1.349162 C 6.881596 -1.067951 6.905356 -0.814405 6.951899 -0.600307 C 6.961143 -0.514512 6.99343 -0.452541 7.048761 -0.414396 C 7.107867 -0.384126 7.225429 -0.362645 7.393504 -0.357633 L 7.737727 -0.332115 L 7.847087 -0.333938 L 7.852555 -0.00585856 L 4.883436 -0.00325476 L 4.877968 -0.331334 L 4.987328 -0.333157 L 5.33077 -0.354508 C 5.525925 -0.365574 5.658199 -0.399033 5.719779 -0.454755 C 5.777518 -0.506505 5.814492 -0.632139 5.822889 -0.831525 L 5.845542 -1.347599 L 5.858561 -4.316979 L 5.818984 -4.816388 C 5.804012 -5.011478 5.770683 -5.13594 5.718997 -5.189774 C 5.663341 -5.247448 5.537707 -5.284422 5.342227 -5.292885 L 4.997743 -5.334025 L 4.888123 -5.347825 L 4.882916 -5.660282 Z M 5.850229 -6.69217 L 5.848667 -7.723537 L 6.880034 -7.725099 L 6.881596 -6.693732 Z M 9.439184 -0.212015 C 9.061176 -0.389334 8.869471 -0.64008 8.864264 -0.952537 C 8.861009 -1.147822 8.928448 -1.320845 9.074391 -1.471736 C 9.224175 -1.626597 9.483058 -1.798904 9.8472 -1.984685 C 9.47733 -2.142606 9.192083 -2.380073 8.99159 -2.689275 C 8.787061 -3.006223 8.68714 -3.375703 8.691892 -3.793809 C 8.689679 -4.395418 8.884769 -4.879205 9.277227 -5.241264 C 9.665845 -5.599353 10.18244 -5.779861 10.830918 -5.782856 C 11.225589 -5.777713 11.586216 -5.705588 11.912799 -5.56648 L 13.894815 -5.724531 L 13.624019 -5.09493 L 12.27655 -5.30688 C 12.717244 -4.884478 12.940455 -4.384222 12.942343 -3.802141 C 12.940195 -3.227807 12.74504 -2.747926 12.356747 -2.370309 C 11.964614 -1.988721 11.467743 -1.796821 10.866069 -1.798513 C 10.635632 -1.794673 10.388922 -1.829629 10.129713 -1.911258 C 9.882872 -1.719618 9.753658 -1.502591 9.749818 -1.264212 C 9.753854 -1.022059 9.974656 -0.900721 10.412226 -0.900201 L 11.31861 -0.89968 C 12.201496 -0.902674 12.796856 -0.81102 13.10456 -0.632529 C 13.428474 -0.419148 13.598242 -0.0781792 13.606053 0.390506 C 13.603319 0.929689 13.352703 1.363613 12.861886 1.684336 C 12.367293 2.012937 11.709832 2.180166 10.90122 2.185829 C 10.119884 2.187131 9.488982 2.072629 9.020232 1.842127 C 8.547706 1.619502 8.312322 1.326508 8.317985 0.963082 C 8.317985 0.494267 8.6943 0.101223 9.439184 -0.212015 Z M 9.722217 -3.857863 C 9.718051 -2.701383 10.083235 -2.12145 10.813733 -2.125812 C 11.165442 -2.119953 11.436563 -2.261209 11.61935 -2.545545 C 11.809818 -2.837822 11.908242 -3.261396 11.910716 -3.816202 C 11.909739 -4.343602 11.813073 -4.752205 11.624818 -5.030356 C 11.440338 -5.316384 11.176117 -5.464345 10.836125 -5.470399 C 10.480576 -5.472287 10.205549 -5.330965 10.014885 -5.050405 C 9.820381 -4.765875 9.721567 -4.365735 9.722217 -3.857863 Z M 9.721957 -0.122965 C 9.464246 0.119645 9.332558 0.422663 9.330866 0.789929 C 9.336399 1.121915 9.481431 1.385159 9.765961 1.579663 C 10.046521 1.770327 10.434944 1.869337 10.927258 1.872852 C 11.435131 1.872201 11.839567 1.759977 12.140632 1.540086 C 12.437726 1.316354 12.585036 1.013075 12.578852 0.642033 C 12.581977 0.360692 12.504318 0.154926 12.349978 0.0363882 C 12.191861 -0.0742735 11.905768 -0.128107 11.503481 -0.121402 Z M 16.253732 -4.599622 C 16.485927 -4.966823 16.781979 -5.253047 17.145796 -5.458357 C 17.513388 -5.671543 17.89439 -5.783376 18.281055 -5.789821 C 18.769464 -5.786241 19.151116 -5.624609 19.429854 -5.308898 C 19.70475 -4.989216 19.84106 -4.546113 19.842557 -3.987467 L 19.839693 -1.346428 L 19.895154 -0.831655 C 19.906285 -0.632594 19.935708 -0.508067 19.979517 -0.458009 C 20.031202 -0.404176 20.156771 -0.371107 20.356288 -0.354899 L 20.716133 -0.329642 L 20.80987 -0.331204 L 20.815338 -0.00312456 L 17.861842 -0.00078114 L 17.856374 -0.328861 L 17.950111 -0.330423 L 18.293553 -0.351774 C 18.488708 -0.36284 18.620982 -0.396299 18.682562 -0.452021 C 18.740301 -0.503771 18.777275 -0.629405 18.785672 -0.828791 L 18.808325 -1.344865 L 18.813793 -3.829676 C 18.813663 -4.306303 18.749479 -4.641217 18.625278 -4.826673 C 18.497041 -5.019876 18.268752 -5.121554 17.948289 -5.127934 C 17.479474 -5.127934 16.913927 -4.837219 16.259461 -4.255919 L 16.2454 -1.349031 C 16.250087 -1.06782 16.273847 -0.814275 16.32039 -0.600177 C 16.329633 -0.514382 16.36192 -0.452411 16.417251 -0.414265 C 16.476358 -0.383996 16.593919 -0.362515 16.761995 -0.357502 L 17.106218 -0.331985 L 17.215578 -0.333808 L 17.221046 -0.00572837 L 14.251927 -0.00312456 L 14.246459 -0.331204 L 14.355819 -0.333027 L 14.699261 -0.354378 C 14.894416 -0.365444 15.026689 -0.398903 15.088269 -0.454624 C 15.146009 -0.506375 15.182983 -0.632009 15.19138 -0.831395 L 15.214033 -1.347469 L 15.215595 -6.879513 L 15.19138 -7.394806 C 15.176408 -7.589896 15.135268 -7.714228 15.075771 -7.767932 C 15.020115 -7.825606 14.894481 -7.86258 14.699 -7.871042 L 14.354517 -7.912182 L 14.245157 -7.91036 L 14.255312 -8.2387 L 16.255555 -8.240783 Z M 24.561498 -0.0303994 C 24.301508 0.0755103 24.056229 0.12648 23.829568 0.122444 C 23.298197 0.11958 22.870131 -0.0139304 22.557089 -0.278282 C 22.386409 -0.439522 22.262208 -0.624978 22.18839 -0.834715 C 22.122318 -1.048487 22.089706 -1.364394 22.094653 -1.770783 L 22.09934 -5.240093 L 21.271069 -5.241915 L 21.264039 -5.663732 L 22.092309 -5.661909 L 22.090747 -6.693276 L 23.117948 -6.944804 L 23.123677 -5.663471 L 24.702103 -5.658524 L 24.709134 -5.236708 L 23.130707 -5.241655 L 23.128363 -1.63174 C 23.124848 -1.139425 23.173279 -0.812062 23.26975 -0.649584 C 23.394993 -0.401637 23.627513 -0.280495 23.963404 -0.286093 C 24.127639 -0.27711 24.325984 -0.331204 24.554467 -0.452216 Z M 31.988266 -0.0330683 C 31.728276 0.0728414 31.482997 0.123811 31.256336 0.119775 C 30.724965 0.116911 30.296899 -0.0165993 29.983857 -0.280951 C 29.813177 -0.442191 29.688976 -0.627647 29.615158 -0.837384 C 29.549086 -1.051156 29.516474 -1.367063 29.521421 -1.773452 L 29.526108 -5.242761 L 28.697837 -5.244584 L 28.690807 -5.666401 L 29.519077 -5.664578 L 29.517515 -6.695945 L 30.544716 -6.947473 L 30.550445 -5.66614 L 32.128871 -5.661193 L 32.135902 -5.239377 L 30.557475 -5.244324 L 30.555132 -1.634408 C 30.551616 -1.142094 30.600047 -0.814731 30.696518 -0.652253 C 30.821761 -0.404306 31.054281 -0.283164 31.390172 -0.288762 C 31.554407 -0.279779 31.752752 -0.333873 31.981236 -0.454885 Z M 35.592843 0.117822 C 34.780261 0.119645 34.131328 -0.139108 33.657695 -0.662538 C 33.180027 -1.193714 32.937483 -1.916335 32.934098 -2.822655 C 32.926677 -3.736721 33.164665 -4.459537 33.648061 -4.991104 C 34.135429 -5.51883 34.799073 -5.783832 35.635025 -5.789951 C 36.467331 -5.780382 37.124206 -5.513948 37.601679 -4.994489 C 38.087028 -4.471254 38.333413 -3.752604 38.340639 -2.850255 C 38.344414 -1.920502 38.09868 -1.193649 37.611313 -0.665923 C 37.120105 -0.134226 36.444613 0.12316 35.592843 0.117822 Z M 35.603259 -0.194895 C 36.07995 -0.191119 36.474362 -0.436007 36.778616 -0.933334 C 37.090617 -1.434697 37.247952 -2.074126 37.24678 -2.847651 C 37.242289 -3.58596 37.087362 -4.208465 36.778095 -4.7151 C 36.476705 -5.21796 36.097396 -5.473394 35.640233 -5.477494 C 35.179359 -5.469813 34.79302 -5.209433 34.481019 -4.70807 C 34.176894 -4.202932 34.023335 -3.571379 34.027957 -2.825259 C 34.028738 -2.075168 34.179889 -1.444786 34.481279 -0.941926 C 34.778829 -0.435096 35.154102 -0.187409 35.603259 -0.194895 Z M 44.282913 -8.23909 L 44.272758 -1.347339 C 44.277445 -1.066128 44.301204 -0.812582 44.347747 -0.598485 C 44.356991 -0.512689 44.389278 -0.450719 44.444609 -0.412573 C 44.503715 -0.382304 44.621277 -0.360822 44.789353 -0.35581 L 45.133576 -0.330293 L 45.242935 -0.332115 L 45.248403 -0.00403589 L 42.279285 -0.00143209 L 42.273817 -0.329512 L 42.383176 -0.331334 L 42.726618 -0.352685 C 42.921773 -0.363752 43.054047 -0.39721 43.115627 -0.452932 C 43.173366 -0.504683 43.21034 -0.630316 43.218737 -0.829702 L 43.241391 -1.345777 L 43.242953 -6.877821 L 43.218737 -7.393114 C 43.203766 -7.588204 43.162625 -7.712536 43.103128 -7.766239 C 43.047472 -7.823913 42.921839 -7.860887 42.726358 -7.86935 L 42.381874 -7.91049 L 42.272515 -7.908667 L 42.282669 -8.237007 Z M 50.545715 -0.25641 C 49.893527 -0.00722555 49.294066 0.123876 48.755078 0.132859 C 47.930583 0.12316 47.25789 -0.154731 46.740774 -0.708691 C 46.219818 -1.258679 45.95768 -1.984881 45.954425 -2.883389 C 45.948241 -3.723246 46.178873 -4.418592 46.638705 -4.95758 C 47.106218 -5.504509 47.707177 -5.780187 48.437674 -5.784548 C 49.113557 -5.784093 49.633016 -5.558343 49.996051 -5.107299 C 50.366963 -4.652479 50.549685 -4.00309 50.544152 -3.163037 L 50.545975 -3.053677 L 47.092548 -3.043002 C 47.09372 -2.269476 47.197156 -1.689088 47.402922 -1.297932 C 47.733475 -0.686168 48.238613 -0.382043 48.918336 -0.385558 C 49.551256 -0.384387 50.095972 -0.518483 50.552485 -0.787846 Z M 47.118326 -3.371602 L 49.462271 -3.379413 L 49.458366 -3.613756 C 49.451661 -4.016044 49.42712 -4.316458 49.396655 -4.503476 C 49.362155 -4.698241 49.288858 -4.876732 49.184706 -5.031267 C 48.992415 -5.317165 48.720382 -5.464996 48.38039 -5.47105 C 47.993725 -5.464606 47.684458 -5.268018 47.452394 -4.893005 C 47.228207 -4.514217 47.115592 -4.004457 47.118326 -3.371602 Z M 52.381397 -5.209563 L 51.553127 -5.211386 L 51.545576 -5.664448 L 52.373846 -5.662625 L 52.369159 -5.943836 C 52.368313 -6.463425 52.404701 -6.858618 52.474353 -7.133254 C 52.540164 -7.40392 52.669053 -7.640475 52.853207 -7.842791 C 53.156094 -8.18773 53.586829 -8.362901 54.141569 -8.364333 C 54.629978 -8.360753 55.089289 -8.227764 55.523409 -7.96543 L 55.528096 -6.746589 L 54.887299 -6.751536 L 54.870114 -6.845013 C 54.866664 -7.052015 54.863995 -7.212149 54.862042 -7.329321 C 54.858071 -7.567569 54.796557 -7.742349 54.681338 -7.857633 C 54.562279 -7.968945 54.373764 -8.028312 54.115792 -8.035733 C 53.842392 -8.031176 53.641574 -7.891092 53.513271 -7.619385 C 53.441536 -7.469731 53.404497 -7.113595 53.405994 -6.554949 L 53.405213 -5.664187 L 54.827412 -5.656636 L 54.834442 -5.23482 L 53.412244 -5.242371 L 53.398964 -1.350984 C 53.403651 -1.069773 53.431382 -0.812387 53.489837 -0.586767 C 53.499211 -0.493161 53.531563 -0.427284 53.586699 -0.400856 C 53.645675 -0.378398 53.774823 -0.364923 53.962428 -0.360236 L 54.337896 -0.33524 L 54.494385 -0.322221 L 54.499853 0.00585857 L 51.421114 -0.0053378 L 51.415646 -0.333417 L 51.509383 -0.33498 L 51.852825 -0.356331 C 52.059697 -0.367592 52.188065 -0.400986 52.241833 -0.456577 C 52.299573 -0.508328 52.336547 -0.633961 52.344944 -0.833348 L 52.367597 -1.349422 Z M 59.152202 -0.0326127 C 58.892212 0.0732971 58.646933 0.124267 58.420272 0.120231 C 57.888901 0.117367 57.460835 -0.0161436 57.147793 -0.280495 C 56.977113 -0.441736 56.852912 -0.627192 56.779094 -0.836928 C 56.713022 -1.0507 56.68041 -1.366607 56.685357 -1.772996 L 56.690044 -5.242306 L 55.861773 -5.244128 L 55.854743 -5.665945 L 56.683013 -5.664122 L 56.681451 -6.695489 L 57.708652 -6.947017 L 57.714381 -5.665685 L 59.292807 -5.660737 L 59.299837 -5.238921 L 57.721411 -5.243868 L 57.719067 -1.633953 C 57.715552 -1.141638 57.763983 -0.814275 57.860454 -0.651797 C 57.985697 -0.40385 58.218217 -0.282708 58.554108 -0.288306 C 58.718343 -0.279323 58.916687 -0.333417 59.145171 -0.454429 Z M 59.152202 -0.0326127 " transform="matrix(0.999861,0.0166644,-0.0166644,0.999861,72,60)"/>
<path style=" stroke:none;fill-rule:nonzero;fill:rgb(0%,0%,0%);fill-opacity:1;" d="M 74.25 55.921875 L 74.203125 58.6875 C 74.203125 58.96875 74.222656 59.222656 74.265625 59.4375 C 74.273438 59.523438 74.304688 59.585938 74.359375 59.625 C 74.417969 59.65625 74.535156 59.679688 74.703125 59.6875 L 75.046875 59.71875 L 75.28125 59.71875 L 75.28125 60.046875 L 72.1875 60 L 72.1875 59.671875 L 72.296875 59.671875 L 72.640625 59.65625 C 72.835938 59.648438 72.96875 59.617188 73.03125 59.5625 C 73.089844 59.511719 73.128906 59.386719 73.140625 59.1875 L 73.171875 58.671875 L 73.234375 55.703125 L 73.203125 55.203125 C 73.191406 55.007812 73.160156 54.882812 73.109375 54.828125 C 73.054688 54.769531 72.929688 54.730469 72.734375 54.71875 L 72.390625 54.671875 L 72.28125 54.65625 L 72.28125 54.34375 L 74.28125 54.375 L 74.265625 55.4375 C 74.742188 54.660156 75.359375 54.273438 76.109375 54.28125 C 76.210938 54.28125 76.332031 54.304688 76.46875 54.34375 L 76.4375 55.90625 L 75.859375 55.890625 L 75.859375 55.796875 L 75.8125 55.40625 C 75.800781 55.292969 75.773438 55.21875 75.734375 55.1875 C 75.703125 55.148438 75.632812 55.125 75.53125 55.125 C 75.28125 55.117188 75.042969 55.183594 74.828125 55.328125 C 74.609375 55.464844 74.414062 55.664062 74.25 55.921875 Z M 78.976562 54.453125 L 78.898438 58.765625 C 78.898438 59.046875 78.917969 59.300781 78.960938 59.515625 C 78.96875 59.601562 79 59.664062 79.054688 59.703125 C 79.113281 59.734375 79.230469 59.757812 79.398438 59.765625 L 79.742188 59.796875 L 79.851562 59.796875 L 79.851562 60.125 L 76.882812 60.078125 L 76.882812 59.75 L 76.992188 59.75 L 77.335938 59.734375 C 77.53125 59.726562 77.664062 59.695312 77.726562 59.640625 C 77.785156 59.589844 77.824219 59.464844 77.835938 59.265625 L 77.867188 58.75 L 77.929688 55.78125 L 77.898438 55.28125 C 77.886719 55.085938 77.855469 54.960938 77.804688 54.90625 C 77.75 54.847656 77.625 54.808594 77.429688 54.796875 L 77.085938 54.75 L 76.976562 54.734375 L 76.976562 54.421875 Z M 77.960938 53.40625 L 77.976562 52.375 L 79.007812 52.390625 L 78.992188 53.421875 Z M 81.441406 59.945312 C 81.066406 59.761719 80.878906 59.507812 80.878906 59.195312 C 80.878906 59 80.949219 58.828125 81.097656 58.679688 C 81.25 58.527344 81.511719 58.359375 81.878906 58.179688 C 81.511719 58.015625 81.230469 57.773438 81.035156 57.460938 C 80.835938 57.140625 80.742188 56.769531 80.753906 56.351562 C 80.761719 55.75 80.964844 55.269531 81.363281 54.914062 C 81.757812 54.5625 82.277344 54.390625 82.925781 54.398438 C 83.320312 54.410156 83.679688 54.488281 84.003906 54.632812 L 85.988281 54.507812 L 85.707031 55.132812 L 84.363281 54.898438 C 84.796875 55.328125 85.011719 55.832031 85.003906 56.414062 C 84.992188 56.988281 84.789062 57.464844 84.394531 57.835938 C 83.996094 58.210938 83.496094 58.394531 82.894531 58.382812 C 82.664062 58.382812 82.417969 58.34375 82.160156 58.257812 C 81.910156 58.445312 81.777344 58.660156 81.769531 58.898438 C 81.769531 59.140625 81.988281 59.265625 82.425781 59.273438 L 83.332031 59.289062 C 84.214844 59.300781 84.808594 59.402344 85.113281 59.585938 C 85.433594 59.804688 85.597656 60.148438 85.597656 60.617188 C 85.585938 61.15625 85.328125 61.585938 84.832031 61.898438 C 84.332031 62.21875 83.671875 62.375 82.863281 62.367188 C 82.082031 62.355469 81.453125 62.230469 80.988281 61.992188 C 80.519531 61.761719 80.289062 61.464844 80.300781 61.101562 C 80.308594 60.632812 80.691406 60.246094 81.441406 59.945312 Z M 81.785156 56.304688 C 81.761719 57.460938 82.117188 58.046875 82.847656 58.054688 C 83.199219 58.066406 83.472656 57.929688 83.660156 57.648438 C 83.855469 57.359375 83.960938 56.9375 83.972656 56.382812 C 83.980469 55.855469 83.890625 55.445312 83.707031 55.164062 C 83.527344 54.875 83.265625 54.722656 82.925781 54.710938 C 82.570312 54.703125 82.292969 54.839844 82.097656 55.117188 C 81.898438 55.398438 81.792969 55.796875 81.785156 56.304688 Z M 81.722656 60.039062 C 81.460938 60.277344 81.324219 60.578125 81.316406 60.945312 C 81.316406 61.277344 81.457031 61.542969 81.738281 61.742188 C 82.015625 61.9375 82.402344 62.042969 82.894531 62.054688 C 83.402344 62.0625 83.808594 61.957031 84.113281 61.742188 C 84.414062 61.523438 84.566406 61.222656 84.566406 60.851562 C 84.574219 60.570312 84.5 60.363281 84.347656 60.242188 C 84.191406 60.128906 83.90625 60.070312 83.503906 60.070312 Z M 88.328125 55.671875 C 88.566406 55.308594 88.867188 55.027344 89.234375 54.828125 C 89.605469 54.621094 89.988281 54.515625 90.375 54.515625 C 90.863281 54.527344 91.242188 54.695312 91.515625 55.015625 C 91.785156 55.339844 91.914062 55.785156 91.90625 56.34375 L 91.859375 58.984375 L 91.90625 59.5 C 91.914062 59.699219 91.941406 59.824219 91.984375 59.875 C 92.035156 59.929688 92.160156 59.964844 92.359375 59.984375 L 92.71875 60.015625 L 92.8125 60.015625 L 92.8125 60.34375 L 89.859375 60.296875 L 89.859375 59.96875 L 89.953125 59.96875 L 90.296875 59.953125 C 90.492188 59.945312 90.625 59.914062 90.6875 59.859375 C 90.746094 59.808594 90.785156 59.683594 90.796875 59.484375 L 90.828125 58.96875 L 90.875 56.484375 C 90.882812 56.007812 90.824219 55.671875 90.703125 55.484375 C 90.578125 55.289062 90.351562 55.183594 90.03125 55.171875 C 89.5625 55.164062 88.992188 55.445312 88.328125 56.015625 L 88.265625 58.921875 C 88.265625 59.203125 88.285156 59.457031 88.328125 59.671875 C 88.335938 59.757812 88.367188 59.820312 88.421875 59.859375 C 88.480469 59.890625 88.597656 59.914062 88.765625 59.921875 L 89.109375 59.953125 L 89.21875 59.953125 L 89.21875 60.28125 L 86.25 60.234375 L 86.25 59.90625 L 86.359375 59.90625 L 86.703125 59.890625 C 86.898438 59.882812 87.03125 59.851562 87.09375 59.796875 C 87.152344 59.746094 87.191406 59.621094 87.203125 59.421875 L 87.234375 58.90625 L 87.328125 53.375 L 87.3125 52.859375 C 87.300781 52.664062 87.261719 52.539062 87.203125 52.484375 C 87.148438 52.425781 87.023438 52.386719 86.828125 52.375 L 86.484375 52.328125 L 86.375 52.328125 L 86.390625 52 L 88.390625 52.03125 Z M 96.558594 60.378906 C 96.296875 60.480469 96.050781 60.527344 95.824219 60.519531 C 95.292969 60.507812 94.867188 60.367188 94.558594 60.097656 C 94.390625 59.933594 94.269531 59.746094 94.199219 59.535156 C 94.136719 59.320312 94.109375 59.003906 94.121094 58.597656 L 94.183594 55.128906 L 93.355469 55.113281 L 93.355469 54.691406 L 94.183594 54.707031 L 94.199219 53.675781 L 95.230469 53.441406 L 95.214844 54.722656 L 96.792969 54.753906 L 96.792969 55.175781 L 95.214844 55.144531 L 95.152344 58.753906 C 95.140625 59.246094 95.183594 59.574219 95.277344 59.738281 C 95.398438 59.988281 95.628906 60.113281 95.964844 60.113281 C 96.128906 60.125 96.328125 60.074219 96.558594 59.957031 Z M 103.984375 60.5 C 103.722656 60.601562 103.476562 60.648438 103.25 60.640625 C 102.71875 60.628906 102.292969 60.488281 101.984375 60.21875 C 101.816406 60.054688 101.695312 59.867188 101.625 59.65625 C 101.5625 59.441406 101.535156 59.125 101.546875 58.71875 L 101.609375 55.25 L 100.78125 55.234375 L 100.78125 54.8125 L 101.609375 54.828125 L 101.625 53.796875 L 102.65625 53.5625 L 102.640625 54.84375 L 104.21875 54.875 L 104.21875 55.296875 L 102.640625 55.265625 L 102.578125 58.875 C 102.566406 59.367188 102.609375 59.695312 102.703125 59.859375 C 102.824219 60.109375 103.054688 60.234375 103.390625 60.234375 C 103.554688 60.246094 103.753906 60.195312 103.984375 60.078125 Z M 107.585938 60.710938 C 106.773438 60.699219 106.128906 60.429688 105.664062 59.898438 C 105.195312 59.359375 104.964844 58.632812 104.976562 57.726562 C 104.984375 56.8125 105.234375 56.09375 105.726562 55.570312 C 106.222656 55.050781 106.890625 54.796875 107.726562 54.804688 C 108.558594 54.828125 109.210938 55.105469 109.679688 55.632812 C 110.15625 56.164062 110.390625 56.886719 110.382812 57.789062 C 110.371094 58.71875 110.113281 59.441406 109.617188 59.960938 C 109.117188 60.484375 108.4375 60.730469 107.585938 60.710938 Z M 107.601562 60.398438 C 108.078125 60.410156 108.476562 60.171875 108.789062 59.679688 C 109.109375 59.183594 109.277344 58.546875 109.289062 57.773438 C 109.296875 57.035156 109.152344 56.410156 108.851562 55.898438 C 108.558594 55.390625 108.183594 55.128906 107.726562 55.117188 C 107.265625 55.117188 106.875 55.371094 106.554688 55.867188 C 106.242188 56.367188 106.078125 56.996094 106.070312 57.742188 C 106.058594 58.492188 106.199219 59.125 106.492188 59.632812 C 106.78125 60.144531 107.152344 60.398438 107.601562 60.398438 Z M 116.414062 52.5 L 116.289062 59.390625 C 116.289062 59.671875 116.308594 59.925781 116.351562 60.140625 C 116.359375 60.226562 116.390625 60.289062 116.445312 60.328125 C 116.503906 60.359375 116.621094 60.382812 116.789062 60.390625 L 117.132812 60.421875 L 117.242188 60.421875 L 117.242188 60.75 L 114.273438 60.703125 L 114.273438 60.375 L 114.382812 60.375 L 114.726562 60.359375 C 114.921875 60.351562 115.054688 60.320312 115.117188 60.265625 C 115.175781 60.214844 115.214844 60.089844 115.226562 59.890625 L 115.257812 59.375 L 115.351562 53.84375 L 115.335938 53.328125 C 115.324219 53.132812 115.285156 53.007812 115.226562 52.953125 C 115.171875 52.894531 115.046875 52.855469 114.851562 52.84375 L 114.507812 52.796875 L 114.398438 52.796875 L 114.414062 52.46875 Z M 122.542969 60.585938 C 121.886719 60.824219 121.285156 60.945312 120.746094 60.945312 C 119.921875 60.921875 119.253906 60.632812 118.746094 60.070312 C 118.234375 59.511719 117.984375 58.78125 117.996094 57.882812 C 118.003906 57.042969 118.246094 56.351562 118.714844 55.820312 C 119.191406 55.28125 119.796875 55.015625 120.527344 55.023438 C 121.203125 55.035156 121.71875 55.269531 122.074219 55.726562 C 122.4375 56.1875 122.609375 56.839844 122.589844 57.679688 L 122.589844 57.789062 L 119.136719 57.742188 C 119.125 58.515625 119.21875 59.097656 119.417969 59.492188 C 119.738281 60.109375 120.238281 60.421875 120.917969 60.429688 C 121.550781 60.441406 122.097656 60.316406 122.558594 60.054688 Z M 119.167969 57.414062 L 121.511719 57.445312 L 121.511719 57.210938 C 121.511719 56.808594 121.492188 56.507812 121.464844 56.320312 C 121.433594 56.125 121.363281 55.945312 121.261719 55.789062 C 121.074219 55.5 120.804688 55.347656 120.464844 55.335938 C 120.078125 55.335938 119.765625 55.527344 119.527344 55.898438 C 119.296875 56.273438 119.175781 56.78125 119.167969 57.414062 Z M 124.460938 55.664062 L 123.632812 55.648438 L 123.632812 55.195312 L 124.460938 55.210938 L 124.460938 54.929688 C 124.46875 54.410156 124.511719 54.015625 124.585938 53.742188 C 124.65625 53.472656 124.789062 53.238281 124.976562 53.039062 C 125.285156 52.699219 125.71875 52.53125 126.273438 52.539062 C 126.761719 52.550781 127.21875 52.691406 127.648438 52.960938 L 127.632812 54.179688 L 126.992188 54.164062 L 126.976562 54.070312 C 126.976562 53.863281 126.976562 53.703125 126.976562 53.585938 C 126.976562 53.347656 126.917969 53.171875 126.804688 53.054688 C 126.6875 52.941406 126.5 52.878906 126.242188 52.867188 C 125.96875 52.867188 125.765625 53.003906 125.632812 53.273438 C 125.558594 53.421875 125.515625 53.777344 125.507812 54.335938 L 125.492188 55.226562 L 126.914062 55.257812 L 126.914062 55.679688 L 125.492188 55.648438 L 125.414062 59.539062 C 125.414062 59.820312 125.4375 60.078125 125.492188 60.304688 C 125.5 60.398438 125.53125 60.464844 125.585938 60.492188 C 125.644531 60.515625 125.773438 60.53125 125.960938 60.539062 L 126.335938 60.570312 L 126.492188 60.585938 L 126.492188 60.914062 L 123.414062 60.851562 L 123.414062 60.523438 L 123.507812 60.523438 L 123.851562 60.507812 C 124.058594 60.5 124.1875 60.46875 124.242188 60.414062 C 124.300781 60.363281 124.339844 60.238281 124.351562 60.039062 L 124.382812 59.523438 Z M 131.144531 60.953125 C 130.882812 61.054688 130.636719 61.101562 130.410156 61.09375 C 129.878906 61.082031 129.453125 60.941406 129.144531 60.671875 C 128.976562 60.507812 128.855469 60.320312 128.785156 60.109375 C 128.722656 59.894531 128.695312 59.578125 128.707031 59.171875 L 128.769531 55.703125 L 127.941406 55.6875 L 127.941406 55.265625 L 128.769531 55.28125 L 128.785156 54.25 L 129.816406 54.015625 L 129.800781 55.296875 L 131.378906 55.328125 L 131.378906 55.75 L 129.800781 55.71875 L 129.738281 59.328125 C 129.726562 59.820312 129.769531 60.148438 129.863281 60.3125 C 129.984375 60.5625 130.214844 60.6875 130.550781 60.6875 C 130.714844 60.699219 130.914062 60.648438 131.144531 60.53125 Z M 131.144531 60.953125 "/>
<path style="fill:none;stroke-width:4;stroke-linecap:round;stroke-linejoin:round;stroke:rgb(100%,100%,100%);stroke-opacity:1;stroke-miterlimit:10;" d="M 1.15635 -0.00364533 L 1.162339 -0.58195 L 6.168414 -3.071969 L 6.168154 -3.087592 L 1.156871 -5.598181 L 1.162859 -6.176486 L 7.324764 -3.075615 Z M 1.15635 -0.00364533 " transform="matrix(-0.999861,-0.0166644,0.0166644,-0.999861,152,54)"/>
<path style=" stroke:none;fill-rule:nonzero;fill:rgb(0%,0%,0%);fill-opacity:1;" d="M 150.84375 53.984375 L 150.828125 54.5625 L 145.78125 56.96875 L 145.78125 56.984375 L 150.75 59.578125 L 150.734375 60.15625 L 144.625 56.953125 Z M 150.84375 53.984375 "/>
<path style="fill:none;stroke-width:4;stroke-linecap:round;stroke-linejoin:round;stroke:rgb(100%,100%,100%);stroke-opacity:1;stroke-miterlimit:10;" d="M 1.15635 -0.00364533 L 1.162339 -0.58195 L 6.168414 -3.071969 L 6.168154 -3.087592 L 1.156871 -5.598181 L 1.162859 -6.176486 L 7.324764 -3.075615 Z M 1.15635 -0.00364533 " transform="matrix(-0.999861,-0.0166644,0.0166644,-0.999861,59,52)"/>
<path style=" stroke:none;fill-rule:nonzero;fill:rgb(0%,0%,0%);fill-opacity:1;" d="M 57.84375 51.984375 L 57.828125 52.5625 L 52.78125 54.96875 L 52.78125 54.984375 L 57.75 57.578125 L 57.734375 58.15625 L 51.625 54.953125 Z M 57.84375 51.984375 "/>
<path style="fill:none;stroke-width:4;stroke-linecap:round;stroke-linejoin:round;stroke:rgb(100%,100%,100%);stroke-opacity:1;stroke-miterlimit:10;" d="M 1.15635 -0.00364533 L 1.162339 -0.58195 L 6.168414 -3.071969 L 6.168154 -3.087592 L 1.156871 -5.598181 L 1.162859 -6.176486 L 7.324764 -3.075615 Z M 1.15635 -0.00364533 " transform="matrix(-0.999861,-0.0166644,0.0166644,-0.999861,167,54)"/>
<path style=" stroke:none;fill-rule:nonzero;fill:rgb(0%,0%,0%);fill-opacity:1;" d="M 165.84375 53.984375 L 165.828125 54.5625 L 160.78125 56.96875 L 160.78125 56.984375 L 165.75 59.578125 L 165.734375 60.15625 L 159.625 56.953125 Z M 165.84375 53.984375 "/>
<path style="fill:none;stroke-width:4;stroke-linecap:round;stroke-linejoin:round;stroke:rgb(100%,100%,100%);stroke-opacity:1;stroke-miterlimit:10;" d="M 1.15635 -0.00364533 L 1.162339 -0.58195 L 6.168414 -3.071969 L 6.168154 -3.087592 L 1.156871 -5.598181 L 1.162859 -6.176486 L 7.324764 -3.075615 Z M 1.15635 -0.00364533 " transform="matrix(-0.999861,-0.0166644,0.0166644,-0.999861,44,52)"/>
<path style=" stroke:none;fill-rule:nonzero;fill:rgb(0%,0%,0%);fill-opacity:1;" d="M 42.84375 51.984375 L 42.828125 52.5625 L 37.78125 54.96875 L 37.78125 54.984375 L 42.75 57.578125 L 42.734375 58.15625 L 36.625 54.953125 Z M 42.84375 51.984375 "/>
<path style="fill:none;stroke-width:4;stroke-linecap:round;stroke-linejoin:round;stroke:rgb(100%,100%,100%);stroke-opacity:1;stroke-miterlimit:10;" d="M 1.15635 -0.00364533 L 1.162339 -0.58195 L 6.168414 -3.071969 L 6.168154 -3.087592 L 1.156871 -5.598181 L 1.162859 -6.176486 L 7.324764 -3.075615 Z M 1.15635 -0.00364533 " transform="matrix(-0.999861,-0.0166644,0.0166644,-0.999861,182,54)"/>
<path style=" stroke:none;fill-rule:nonzero;fill:rgb(0%,0%,0%);fill-opacity:1;" d="M 180.84375 53.984375 L 180.828125 54.5625 L 175.78125 56.96875 L 175.78125 56.984375 L 180.75 59.578125 L 180.734375 60.15625 L 174.625 56.953125 Z M 180.84375 53.984375 "/>
<path style="fill:none;stroke-width:4;stroke-linecap:round;stroke-linejoin:round;stroke:rgb(100%,100%,100%);stroke-opacity:1;stroke-miterlimit:10;" d="M 1.15635 -0.00364533 L 1.162339 -0.58195 L 6.168414 -3.071969 L 6.168154 -3.087592 L 1.156871 -5.598181 L 1.162859 -6.176486 L 7.324764 -3.075615 Z M 1.15635 -0.00364533 " transform="matrix(-0.999861,-0.0166644,0.0166644,-0.999861,28,52)"/>
<path style=" stroke:none;fill-rule:nonzero;fill:rgb(0%,0%,0%);fill-opacity:1;" d="M 26.84375 51.984375 L 26.828125 52.5625 L 21.78125 54.96875 L 21.78125 54.984375 L 26.75 57.578125 L 26.734375 58.15625 L 20.625 54.953125 Z M 26.84375 51.984375 "/>
<path style="fill:none;stroke-width:4;stroke-linecap:round;stroke-linejoin:round;stroke:rgb(100%,100%,100%);stroke-opacity:1;stroke-miterlimit:10;" d="M 1.15635 -0.00364533 L 1.162339 -0.58195 L 6.168414 -3.071969 L 6.168154 -3.087592 L 1.156871 -5.598181 L 1.162859 -6.176486 L 7.324764 -3.075615 Z M 1.15635 -0.00364533 " transform="matrix(-0.999861,-0.0166644,0.0166644,-0.999861,198,55)"/>
<path style=" stroke:none;fill-rule:nonzero;fill:rgb(0%,0%,0%);fill-opacity:1;" d="M 196.84375 54.984375 L 196.828125 55.5625 L 191.78125 57.96875 L 191.78125 57.984375 L 196.75 60.578125 L 196.734375 61.15625 L 190.625 57.953125 Z M 196.84375 54.984375 "/>
<path style="fill:none;stroke-width:4;stroke-linecap:round;stroke-linejoin:round;stroke:rgb(100%,100%,100%);stroke-opacity:1;stroke-miterlimit:10;" d="M 1.15635 -0.00364533 L 1.162339 -0.58195 L 6.168414 -3.071969 L 6.168154 -3.087592 L 1.156871 -5.598181 L 1.162859 -6.176486 L 7.324764 -3.075615 Z M 1.15635 -0.00364533 " transform="matrix(-0.999861,-0.0166644,0.0166644,-0.999861,13,52)"/>
<path style=" stroke:none;fill-rule:nonzero;fill:rgb(0%,0%,0%);fill-opacity:1;" d="M 11.84375 51.984375 L 11.828125 52.5625 L 6.78125 54.96875 L 6.78125 54.984375 L 11.75 57.578125 L 11.734375 58.15625 L 5.625 54.953125 Z M 11.84375 51.984375 "/>
<path style="fill:none;stroke-width:4;stroke-linecap:round;stroke-linejoin:round;stroke:rgb(100%,100%,100%);stroke-opacity:1;stroke-miterlimit:10;" d="M 2.184332 -8.230367 L 2.194487 -1.338616 C 2.1898 -1.057405 2.205097 -0.803209 2.24448 -0.587679 C 2.270388 -0.501298 2.312374 -0.441996 2.366598 -0.413745 C 2.424793 -0.389334 2.541704 -0.371758 2.70952 -0.361148 L 3.052701 -0.324174 L 3.162061 -0.322351 L 3.156593 0.00572837 L 0.187474 0.00312457 L 0.192942 -0.324955 L 0.302302 -0.323132 L 0.646785 -0.364272 C 0.842201 -0.368829 0.967704 -0.397992 1.023295 -0.45176 C 1.074916 -0.501688 1.108245 -0.62615 1.123281 -0.825146 L 1.16312 -1.340178 L 1.161557 -6.872223 L 1.123281 -7.388557 C 1.114819 -7.584038 1.077845 -7.709671 1.020171 -7.765328 C 0.966467 -7.824825 0.842136 -7.865965 0.647046 -7.880937 L 0.303604 -7.902288 L 0.194244 -7.904111 L 0.184089 -8.23245 Z M 8.458331 -0.241893 C 7.79781 0.00885294 7.194183 0.127717 6.655196 0.118734 C 5.830766 0.124527 5.155534 -0.148482 4.637507 -0.71188 C 4.115509 -1.271438 3.854152 -1.998551 3.861313 -2.896994 C 3.863591 -3.736916 4.093898 -4.428487 4.552102 -4.963894 C 5.018248 -5.506983 5.616603 -5.778299 6.347165 -5.777843 C 7.022983 -5.774393 7.538797 -5.547016 7.898512 -5.095646 C 8.262069 -4.640306 8.450454 -3.988639 8.459893 -3.148521 L 8.45807 -3.039161 L 5.004644 -3.049837 C 4.999566 -2.276377 5.107038 -1.692473 5.319183 -1.294351 C 5.649085 -0.695021 6.155851 -0.393565 6.835639 -0.393956 C 7.468494 -0.391222 8.00976 -0.518938 8.451561 -0.77333 Z M 5.010111 -3.377916 L 7.354057 -3.370105 L 7.357963 -3.604447 C 7.364667 -4.006735 7.346245 -4.307865 7.310313 -4.49599 C 7.270605 -4.691992 7.199391 -4.872891 7.100446 -5.030812 C 6.894355 -5.323349 6.619393 -5.468576 6.279466 -5.466428 C 5.892801 -5.472873 5.580996 -5.28273 5.348085 -4.903746 C 5.122921 -4.520726 5.00894 -4.010836 5.010111 -3.377916 Z M 10.27162 -5.196739 L 9.44335 -5.194917 L 9.450901 -5.647979 L 10.279171 -5.649801 L 10.283858 -5.931012 C 10.280799 -6.450667 10.314844 -6.852499 10.382022 -7.132668 C 10.445229 -7.408997 10.578153 -7.649003 10.768947 -7.845069 C 11.063633 -8.180049 11.488444 -8.352681 12.043249 -8.355155 C 12.531593 -8.354829 12.99826 -8.225941 13.443315 -7.972395 L 13.438628 -6.753554 L 12.797832 -6.748607 L 12.783771 -6.842604 C 12.763787 -7.049997 12.758645 -7.210262 12.760598 -7.327433 C 12.764568 -7.565681 12.701101 -7.742545 12.581977 -7.861734 C 12.458882 -7.977082 12.264443 -8.031111 12.006536 -8.027596 C 11.733136 -8.032153 11.539478 -7.898643 11.421721 -7.631037 C 11.344714 -7.464328 11.307349 -7.097712 11.309757 -6.539001 L 11.310539 -5.648239 L 12.732737 -5.65579 L 12.725707 -5.233974 L 11.303508 -5.226423 L 11.316788 -1.335036 C 11.312101 -1.053825 11.331434 -0.807375 11.382664 -0.599461 C 11.408442 -0.505268 11.450298 -0.438155 11.504522 -0.409904 C 11.562717 -0.385493 11.691345 -0.367722 11.878689 -0.356786 L 12.253116 -0.319292 L 12.409605 -0.332311 L 12.404137 -0.00423118 L 9.325398 0.00696518 L 9.330866 -0.321114 L 9.424603 -0.319552 L 9.769086 -0.360692 C 9.976219 -0.365053 10.101722 -0.394216 10.145596 -0.44818 C 10.197217 -0.498108 10.230545 -0.62257 10.245582 -0.821566 L 10.285421 -1.336598 Z M 17.061498 -0.0320919 C 16.798123 0.0650951 16.551087 0.11958 16.32436 0.127521 C 15.793054 0.12648 15.369415 -0.00559818 15.065421 -0.28414 C 14.880681 -0.451305 14.750946 -0.637086 14.683963 -0.837449 C 14.624922 -1.045493 14.591007 -1.354695 14.589966 -1.761018 L 14.585279 -5.230328 L 13.757009 -5.228506 L 13.764039 -5.650322 L 14.592309 -5.652145 L 14.593872 -6.683512 L 15.629405 -6.931915 L 15.623677 -5.650582 L 17.202103 -5.65553 L 17.195073 -5.233713 L 15.616646 -5.228766 L 15.61899 -1.618851 C 15.618599 -1.126601 15.668006 -0.809328 15.759335 -0.663254 C 15.89968 -0.41088 16.135845 -0.281927 16.471736 -0.276329 C 16.635906 -0.281406 16.836138 -0.340578 17.068528 -0.453908 Z M 24.48436 -0.0294881 C 24.220985 0.0676989 23.973949 0.122184 23.747223 0.130125 C 23.215916 0.129084 22.792277 -0.00299438 22.488283 -0.281536 C 22.303543 -0.448701 22.173809 -0.634482 22.106826 -0.834845 C 22.047784 -1.042889 22.01387 -1.352091 22.012828 -1.758415 L 22.008141 -5.227725 L 21.179871 -5.225902 L 21.186901 -5.647718 L 22.015172 -5.649541 L 22.016734 -6.680908 L 23.052267 -6.929311 L 23.046539 -5.647979 L 24.624966 -5.652926 L 24.617935 -5.231109 L 23.039509 -5.226162 L 23.041852 -1.616247 C 23.041461 -1.123998 23.090869 -0.806724 23.182197 -0.66065 C 23.322542 -0.408277 23.558707 -0.279323 23.894598 -0.273725 C 24.058768 -0.278802 24.259001 -0.337974 24.49139 -0.451305 Z M 28.08373 0.132078 C 27.271213 0.12635 26.623126 -0.134487 26.143635 -0.665988 C 25.660304 -1.201461 25.422381 -1.928183 25.429671 -2.834437 C 25.433187 -3.748568 25.675731 -4.471189 26.153269 -4.994554 C 26.638553 -5.513883 27.299269 -5.776346 28.135285 -5.774133 C 28.967526 -5.779796 29.623425 -5.51883 30.106886 -4.991169 C 30.594189 -4.459537 30.840053 -3.740496 30.836733 -2.838082 C 30.829052 -1.908394 30.582537 -1.181932 30.097252 -0.662603 C 29.607997 -0.139434 28.935565 0.122835 28.08373 0.132078 Z M 28.10456 -0.180118 C 28.581187 -0.179988 28.972148 -0.43132 29.273408 -0.926369 C 29.58261 -1.429098 29.737797 -2.067226 29.742875 -2.840686 C 29.74346 -3.57906 29.585865 -4.202867 29.273929 -4.708135 C 28.96974 -5.209368 28.587176 -5.461872 28.130078 -5.461676 C 27.669204 -5.469358 27.286054 -5.217895 26.976852 -4.715165 C 26.675397 -4.2084 26.524246 -3.578019 26.52353 -2.831833 C 26.518843 -2.081807 26.672403 -1.450254 26.976592 -0.949022 C 27.276811 -0.443949 27.655404 -0.187604 28.10456 -0.180118 Z M 36.784475 -4.106331 L 36.785256 -1.340309 C 36.780569 -1.059098 36.795866 -0.804901 36.835249 -0.589371 C 36.861157 -0.50299 36.903143 -0.443688 36.957367 -0.415437 C 37.015562 -0.391026 37.132473 -0.373451 37.300289 -0.36284 L 37.64347 -0.325866 L 37.877812 -0.32196 L 37.872344 0.00611894 L 34.778243 0.00143209 L 34.783711 -0.326647 L 34.893071 -0.324825 L 35.237554 -0.365965 C 35.43297 -0.370521 35.558473 -0.399684 35.614064 -0.453453 C 35.665685 -0.503381 35.699014 -0.627842 35.71405 -0.826838 L 35.753889 -1.341871 L 35.74087 -4.31125 L 35.717956 -4.811702 C 35.709494 -5.007182 35.67252 -5.132816 35.614846 -5.188472 C 35.553331 -5.248099 35.421188 -5.28937 35.226097 -5.304341 L 34.882656 -5.325693 L 34.773556 -5.343138 L 34.778764 -5.655595 L 36.779007 -5.653512 L 36.776924 -4.590899 C 37.247236 -5.383953 37.859391 -5.780057 38.609482 -5.779276 C 38.71103 -5.777583 38.831912 -5.763848 38.968286 -5.742041 L 38.973494 -4.179237 L 38.395189 -4.173249 L 38.365505 -4.267506 L 38.325146 -4.658858 C 38.315317 -4.772319 38.289214 -4.846983 38.250677 -4.87888 C 38.220083 -4.918458 38.15017 -4.943064 38.048622 -4.944756 C 37.798462 -4.937205 37.558911 -4.863062 37.341689 -4.722131 C 37.120691 -4.589076 36.933608 -4.381227 36.784475 -4.106331 Z M 41.474969 -5.653382 L 41.481218 -1.340178 C 41.476531 -1.058968 41.491829 -0.804771 41.531211 -0.589241 C 41.557119 -0.50286 41.599106 -0.443558 41.65333 -0.415307 C 41.711525 -0.390896 41.828436 -0.373321 41.996251 -0.36271 L 42.339432 -0.325736 L 42.448792 -0.323913 L 42.443324 0.00416608 L 39.474205 0.00156228 L 39.479673 -0.326517 L 39.589033 -0.324694 L 39.933517 -0.365835 C 40.128932 -0.370391 40.254436 -0.399554 40.310027 -0.453322 C 40.361647 -0.50325 40.394976 -0.627712 40.410013 -0.826708 L 40.449851 -1.341741 L 40.436832 -4.31112 L 40.413919 -4.811571 C 40.405456 -5.007052 40.368482 -5.132686 40.310808 -5.188342 C 40.249293 -5.247969 40.11715 -5.289239 39.92206 -5.304211 L 39.578618 -5.325562 L 39.469519 -5.343008 L 39.474726 -5.655465 Z M 40.445164 -6.686311 L 40.446727 -7.717678 L 41.478094 -7.716116 L 41.476531 -6.684749 Z M 44.033338 -0.227182 C 43.63769 -0.397861 43.44644 -0.64327 43.451648 -0.955727 C 43.454903 -1.151012 43.524164 -1.321757 43.663337 -1.467895 C 43.810387 -1.617809 44.067252 -1.793241 44.437709 -1.986313 C 44.072981 -2.136943 43.791705 -2.372132 43.58991 -2.688038 C 43.384339 -3.011821 43.281164 -3.384686 43.280317 -3.802727 C 43.278625 -4.404401 43.474171 -4.885585 43.866955 -5.246277 C 44.255768 -5.603128 44.774446 -5.78201 45.422989 -5.782921 C 45.817595 -5.784158 46.175814 -5.711772 46.497579 -5.561858 L 48.484803 -5.716263 L 48.224422 -5.095516 L 46.852998 -5.321527 C 47.302806 -4.884283 47.528751 -4.376541 47.530769 -3.794395 C 47.529011 -3.220126 47.333531 -2.742848 46.944392 -2.366468 C 46.551282 -1.986248 46.051938 -1.795324 45.450329 -1.797537 C 45.219892 -1.801377 44.974353 -1.836724 44.717618 -1.903512 C 44.464528 -1.720204 44.339871 -1.507408 44.347617 -1.268964 C 44.343581 -1.026811 44.560413 -0.9099 44.998048 -0.914326 L 45.904432 -0.914847 C 46.787252 -0.907947 47.379423 -0.808221 47.681008 -0.619575 C 48.017485 -0.414721 48.187644 -0.0759009 48.179897 0.388878 C 48.178726 0.927996 47.933187 1.361465 47.439375 1.689219 C 46.941593 2.020813 46.286345 2.189605 45.477668 2.187847 C 44.696397 2.18264 44.069335 2.066705 43.608136 1.844145 C 43.142967 1.625425 42.905565 1.336273 42.903807 0.972912 C 42.899901 0.504032 43.277779 0.100116 44.033338 -0.227182 Z M 44.312726 -3.863656 C 44.312986 -2.707241 44.678365 -2.126853 45.408928 -2.126397 C 45.760572 -2.12835 46.028634 -2.272341 46.212983 -2.550557 C 46.401368 -2.83652 46.49823 -3.256839 46.499662 -3.81158 C 46.496733 -4.339046 46.398114 -4.750903 46.207515 -5.035368 C 46.024858 -5.327515 45.757708 -5.472612 45.417781 -5.470464 C 45.062166 -5.464671 44.786293 -5.320811 44.598103 -5.046565 C 44.405942 -4.768478 44.309471 -4.371593 44.312726 -3.863656 Z M 44.312986 -0.128758 C 44.047008 0.124657 43.916818 0.435031 43.922416 0.802363 C 43.916883 1.134348 44.057032 1.398439 44.346836 1.590795 C 44.632799 1.77918 45.021872 1.875521 45.514122 1.875911 C 46.022059 1.872657 46.426365 1.758284 46.723068 1.536636 C 47.015931 1.311016 47.169426 1.008844 47.17561 0.637802 C 47.168579 0.356396 47.085909 0.159678 46.935279 0.0555912 C 46.780938 -0.0602781 46.496798 -0.123616 46.09451 -0.13032 Z M 50.841377 -4.590899 C 51.086004 -4.969687 51.387785 -5.261574 51.74672 -5.466559 C 52.113531 -5.675319 52.490366 -5.782335 52.877031 -5.775891 C 53.365375 -5.775565 53.749501 -5.616798 54.02557 -5.30356 C 54.297668 -4.986482 54.438729 -4.542663 54.441137 -3.983952 L 54.444001 -1.342912 L 54.482277 -0.826578 C 54.486769 -0.627257 54.515931 -0.501753 54.569765 -0.450068 C 54.627439 -0.394411 54.759843 -0.368764 54.959034 -0.365444 L 55.317838 -0.32821 L 55.411575 -0.326647 L 55.406107 0.00143209 L 52.452611 -0.000911336 L 52.458079 -0.328991 L 52.551816 -0.327428 L 52.8963 -0.368569 C 53.091715 -0.373125 53.217219 -0.402288 53.27281 -0.456056 C 53.32443 -0.505984 53.357759 -0.630446 53.372796 -0.829442 L 53.412634 -1.344475 L 53.407166 -3.829286 C 53.403391 -4.305978 53.338686 -4.64304 53.220734 -4.832532 C 53.099006 -5.0299 52.874037 -5.127413 52.553639 -5.124939 C 52.084759 -5.121034 51.509448 -4.825892 50.835648 -4.247197 L 50.849709 -1.340309 C 50.845022 -1.059098 50.860319 -0.804901 50.899702 -0.589371 C 50.92561 -0.50299 50.967596 -0.443688 51.02182 -0.415437 C 51.080015 -0.391026 51.196926 -0.373451 51.364742 -0.36284 L 51.707923 -0.325866 L 51.817283 -0.324044 L 51.811815 0.00403589 L 48.842696 0.00143209 L 48.848164 -0.326647 L 48.957524 -0.324825 L 49.302007 -0.365965 C 49.497423 -0.370521 49.622926 -0.399684 49.678517 -0.453453 C 49.730138 -0.503381 49.763466 -0.627842 49.778503 -0.826838 L 49.818342 -1.341871 L 49.816779 -6.873915 L 49.778503 -7.39025 C 49.770041 -7.58573 49.733067 -7.711364 49.675393 -7.76702 C 49.621689 -7.826517 49.497358 -7.867657 49.302268 -7.882629 L 48.958826 -7.90398 L 48.849466 -7.905803 L 48.839311 -8.234143 L 50.839554 -8.23206 Z M 59.153243 -0.0298787 C 58.889868 0.0673084 58.642832 0.121793 58.416106 0.129735 C 57.8848 0.128693 57.46116 -0.00338495 57.157166 -0.281927 C 56.972426 -0.449091 56.842692 -0.634873 56.775709 -0.835236 C 56.716668 -1.04328 56.682753 -1.352481 56.681711 -1.758805 L 56.677025 -5.228115 L 55.848754 -5.226292 L 55.855784 -5.648109 L 56.684055 -5.649931 L 56.685617 -6.681299 L 57.72115 -6.929702 L 57.715422 -5.648369 L 59.293849 -5.653316 L 59.286818 -5.2315 L 57.708392 -5.226553 L 57.710735 -1.616637 C 57.710345 -1.124388 57.759752 -0.807114 57.85108 -0.661041 C 57.991425 -0.408667 58.22759 -0.279714 58.563481 -0.274116 C 58.727651 -0.279193 58.927884 -0.338364 59.160273 -0.451695 Z M 59.153243 -0.0298787 " transform="matrix(0.999861,-0.0166644,0.0166644,0.999861,72,77)"/>
<path style=" stroke:none;fill-rule:nonzero;fill:rgb(0%,0%,0%);fill-opacity:1;" d="M 74.046875 68.734375 L 74.171875 75.625 C 74.171875 75.90625 74.191406 76.160156 74.234375 76.375 C 74.261719 76.460938 74.304688 76.519531 74.359375 76.546875 C 74.417969 76.570312 74.535156 76.585938 74.703125 76.59375 L 75.046875 76.625 L 75.15625 76.625 L 75.15625 76.953125 L 72.1875 77 L 72.1875 76.671875 L 72.296875 76.671875 L 72.640625 76.625 C 72.835938 76.617188 72.960938 76.585938 73.015625 76.53125 C 73.066406 76.480469 73.097656 76.355469 73.109375 76.15625 L 73.140625 75.640625 L 73.046875 70.109375 L 73 69.59375 C 72.988281 69.398438 72.949219 69.273438 72.890625 69.21875 C 72.835938 69.160156 72.710938 69.121094 72.515625 69.109375 L 72.171875 69.09375 L 72.0625 69.09375 L 72.046875 68.765625 Z M 80.453125 76.617188 C 79.796875 76.878906 79.195312 77.007812 78.65625 77.007812 C 77.832031 77.027344 77.152344 76.765625 76.625 76.210938 C 76.09375 75.660156 75.820312 74.9375 75.8125 74.039062 C 75.800781 73.199219 76.019531 72.503906 76.46875 71.960938 C 76.925781 71.410156 77.519531 71.128906 78.25 71.117188 C 78.925781 71.109375 79.445312 71.328125 79.8125 71.773438 C 80.183594 72.222656 80.382812 72.871094 80.40625 73.710938 L 80.40625 73.820312 L 76.953125 73.867188 C 76.960938 74.640625 77.078125 75.222656 77.296875 75.617188 C 77.636719 76.210938 78.148438 76.503906 78.828125 76.492188 C 79.460938 76.484375 80 76.347656 80.4375 76.085938 Z M 76.953125 73.539062 L 79.296875 73.507812 L 79.296875 73.273438 C 79.296875 72.871094 79.273438 72.570312 79.234375 72.382812 C 79.191406 72.1875 79.117188 72.007812 79.015625 71.851562 C 78.804688 71.5625 78.527344 71.421875 78.1875 71.429688 C 77.800781 71.429688 77.492188 71.625 77.265625 72.007812 C 77.046875 72.394531 76.941406 72.90625 76.953125 73.539062 Z M 82.183594 71.632812 L 81.355469 71.648438 L 81.355469 71.195312 L 82.183594 71.179688 L 82.183594 70.898438 C 82.171875 70.378906 82.199219 69.976562 82.261719 69.695312 C 82.320312 69.417969 82.449219 69.175781 82.636719 68.976562 C 82.925781 68.636719 83.347656 68.457031 83.902344 68.445312 C 84.390625 68.4375 84.859375 68.558594 85.308594 68.804688 L 85.324219 70.023438 L 84.683594 70.039062 L 84.667969 69.945312 C 84.644531 69.738281 84.636719 69.578125 84.636719 69.460938 C 84.636719 69.222656 84.570312 69.046875 84.449219 68.929688 C 84.324219 68.816406 84.128906 68.765625 83.871094 68.773438 C 83.597656 68.773438 83.40625 68.910156 83.292969 69.179688 C 83.21875 69.347656 83.1875 69.714844 83.199219 70.273438 L 83.214844 71.164062 L 84.636719 71.132812 L 84.636719 71.554688 L 83.214844 71.585938 L 83.292969 75.476562 C 83.292969 75.757812 83.316406 76.003906 83.371094 76.210938 C 83.398438 76.304688 83.441406 76.371094 83.496094 76.398438 C 83.554688 76.421875 83.683594 76.4375 83.871094 76.445312 L 84.246094 76.476562 L 84.402344 76.460938 L 84.402344 76.789062 L 81.324219 76.851562 L 81.324219 76.523438 L 81.417969 76.523438 L 81.761719 76.476562 C 81.96875 76.46875 82.09375 76.4375 82.136719 76.382812 C 82.1875 76.332031 82.21875 76.207031 82.230469 76.007812 L 82.261719 75.492188 Z M 89.058594 76.683594 C 88.796875 76.785156 88.550781 76.84375 88.324219 76.855469 C 87.792969 76.863281 87.367188 76.738281 87.058594 76.464844 C 86.871094 76.300781 86.738281 76.117188 86.667969 75.917969 C 86.605469 75.710938 86.566406 75.402344 86.558594 74.996094 L 86.496094 71.527344 L 85.667969 71.542969 L 85.667969 71.121094 L 86.496094 71.105469 L 86.480469 70.074219 L 87.511719 69.808594 L 87.527344 71.089844 L 89.105469 71.058594 L 89.105469 71.480469 L 87.527344 71.511719 L 87.589844 75.121094 C 87.597656 75.613281 87.652344 75.929688 87.746094 76.074219 C 87.890625 76.324219 88.128906 76.449219 88.464844 76.449219 C 88.628906 76.441406 88.828125 76.378906 89.058594 76.261719 Z M 96.480469 76.5625 C 96.21875 76.664062 95.972656 76.722656 95.746094 76.734375 C 95.214844 76.742188 94.789062 76.617188 94.480469 76.34375 C 94.292969 76.179688 94.160156 75.996094 94.089844 75.796875 C 94.027344 75.589844 93.988281 75.28125 93.980469 74.875 L 93.917969 71.40625 L 93.089844 71.421875 L 93.089844 71 L 93.917969 70.984375 L 93.902344 69.953125 L 94.933594 69.6875 L 94.949219 70.96875 L 96.527344 70.9375 L 96.527344 71.359375 L 94.949219 71.390625 L 95.011719 75 C 95.019531 75.492188 95.074219 75.808594 95.167969 75.953125 C 95.3125 76.203125 95.550781 76.328125 95.886719 76.328125 C 96.050781 76.320312 96.25 76.257812 96.480469 76.140625 Z M 100.082031 76.664062 C 99.269531 76.671875 98.617188 76.421875 98.128906 75.898438 C 97.636719 75.371094 97.386719 74.648438 97.378906 73.742188 C 97.367188 72.828125 97.597656 72.101562 98.066406 71.570312 C 98.542969 71.042969 99.199219 70.769531 100.035156 70.757812 C 100.867188 70.738281 101.527344 70.988281 102.019531 71.507812 C 102.515625 72.03125 102.773438 72.746094 102.785156 73.648438 C 102.792969 74.578125 102.558594 75.308594 102.082031 75.835938 C 101.601562 76.367188 100.933594 76.640625 100.082031 76.664062 Z M 100.097656 76.351562 C 100.574219 76.34375 100.960938 76.085938 101.253906 75.585938 C 101.554688 75.078125 101.699219 74.4375 101.691406 73.664062 C 101.679688 72.925781 101.511719 72.304688 101.191406 71.804688 C 100.878906 71.308594 100.492188 71.0625 100.035156 71.070312 C 99.574219 71.070312 99.195312 71.328125 98.894531 71.835938 C 98.601562 72.347656 98.460938 72.980469 98.472656 73.726562 C 98.480469 74.476562 98.644531 75.105469 98.957031 75.601562 C 99.265625 76.101562 99.648438 76.351562 100.097656 76.351562 Z M 108.710938 72.28125 L 108.757812 75.046875 C 108.757812 75.328125 108.777344 75.582031 108.820312 75.796875 C 108.847656 75.882812 108.890625 75.941406 108.945312 75.96875 C 109.003906 75.992188 109.121094 76.007812 109.289062 76.015625 L 109.632812 76.046875 L 109.867188 76.046875 L 109.867188 76.375 L 106.773438 76.421875 L 106.773438 76.09375 L 106.882812 76.09375 L 107.226562 76.046875 C 107.421875 76.039062 107.546875 76.007812 107.601562 75.953125 C 107.652344 75.902344 107.683594 75.777344 107.695312 75.578125 L 107.726562 75.0625 L 107.664062 72.09375 L 107.632812 71.59375 C 107.621094 71.398438 107.582031 71.273438 107.523438 71.21875 C 107.460938 71.160156 107.328125 71.121094 107.132812 71.109375 L 106.789062 71.09375 L 106.679688 71.078125 L 106.679688 70.765625 L 108.679688 70.734375 L 108.695312 71.796875 C 109.152344 70.996094 109.757812 70.589844 110.507812 70.578125 C 110.609375 70.578125 110.730469 70.589844 110.867188 70.609375 L 110.898438 72.171875 L 110.320312 72.1875 L 110.289062 72.09375 L 110.242188 71.703125 C 110.230469 71.589844 110.203125 71.515625 110.164062 71.484375 C 110.132812 71.445312 110.0625 71.421875 109.960938 71.421875 C 109.710938 71.433594 109.472656 71.511719 109.257812 71.65625 C 109.039062 71.792969 108.855469 72.003906 108.710938 72.28125 Z M 113.375 70.65625 L 113.453125 74.96875 C 113.453125 75.25 113.472656 75.503906 113.515625 75.71875 C 113.542969 75.804688 113.585938 75.863281 113.640625 75.890625 C 113.699219 75.914062 113.816406 75.929688 113.984375 75.9375 L 114.328125 75.96875 L 114.4375 75.96875 L 114.4375 76.296875 L 111.46875 76.34375 L 111.46875 76.015625 L 111.578125 76.015625 L 111.921875 75.96875 C 112.117188 75.960938 112.242188 75.929688 112.296875 75.875 C 112.347656 75.824219 112.378906 75.699219 112.390625 75.5 L 112.421875 74.984375 L 112.359375 72.015625 L 112.328125 71.515625 C 112.316406 71.320312 112.277344 71.195312 112.21875 71.140625 C 112.15625 71.082031 112.023438 71.042969 111.828125 71.03125 L 111.484375 71.015625 L 111.375 71 L 111.375 70.6875 Z M 112.328125 69.640625 L 112.3125 68.609375 L 113.34375 68.59375 L 113.359375 69.625 Z M 116.023438 76.039062 C 115.625 75.875 115.429688 75.632812 115.429688 75.320312 C 115.429688 75.125 115.496094 74.953125 115.632812 74.804688 C 115.777344 74.652344 116.03125 74.472656 116.398438 74.273438 C 116.03125 74.128906 115.746094 73.898438 115.539062 73.585938 C 115.328125 73.265625 115.21875 72.894531 115.210938 72.476562 C 115.199219 71.875 115.386719 71.390625 115.773438 71.023438 C 116.15625 70.660156 116.671875 70.472656 117.320312 70.460938 C 117.714844 70.453125 118.074219 70.519531 118.398438 70.664062 L 120.382812 70.476562 L 120.132812 71.101562 L 118.757812 70.898438 C 119.214844 71.328125 119.449219 71.832031 119.460938 72.414062 C 119.46875 72.988281 119.28125 73.46875 118.898438 73.851562 C 118.511719 74.238281 118.015625 74.4375 117.414062 74.445312 C 117.183594 74.445312 116.9375 74.414062 116.679688 74.351562 C 116.429688 74.539062 116.308594 74.753906 116.320312 74.992188 C 116.320312 75.234375 116.539062 75.347656 116.976562 75.335938 L 117.882812 75.320312 C 118.765625 75.3125 119.359375 75.402344 119.664062 75.585938 C 120.003906 75.785156 120.179688 76.121094 120.179688 76.585938 C 120.1875 77.125 119.949219 77.5625 119.460938 77.898438 C 118.96875 78.238281 118.316406 78.417969 117.507812 78.429688 C 116.726562 78.4375 116.097656 78.332031 115.632812 78.117188 C 115.164062 77.90625 114.921875 77.621094 114.914062 77.257812 C 114.902344 76.789062 115.273438 76.378906 116.023438 76.039062 Z M 116.242188 72.398438 C 116.261719 73.554688 116.636719 74.128906 117.367188 74.117188 C 117.71875 74.109375 117.984375 73.960938 118.164062 73.679688 C 118.347656 73.390625 118.4375 72.96875 118.429688 72.414062 C 118.417969 71.886719 118.3125 71.476562 118.117188 71.195312 C 117.929688 70.90625 117.660156 70.765625 117.320312 70.773438 C 116.964844 70.785156 116.691406 70.933594 116.507812 71.210938 C 116.320312 71.492188 116.230469 71.890625 116.242188 72.398438 Z M 116.304688 76.132812 C 116.042969 76.390625 115.917969 76.703125 115.929688 77.070312 C 115.929688 77.402344 116.074219 77.664062 116.367188 77.851562 C 116.65625 78.035156 117.046875 78.125 117.539062 78.117188 C 118.046875 78.105469 118.449219 77.984375 118.742188 77.757812 C 119.03125 77.527344 119.179688 77.222656 119.179688 76.851562 C 119.167969 76.570312 119.082031 76.375 118.929688 76.273438 C 118.773438 76.160156 118.488281 76.101562 118.085938 76.101562 Z M 122.757812 71.5625 C 122.996094 71.179688 123.292969 70.882812 123.648438 70.671875 C 124.011719 70.457031 124.386719 70.34375 124.773438 70.34375 C 125.261719 70.335938 125.648438 70.488281 125.929688 70.796875 C 126.207031 71.109375 126.355469 71.550781 126.367188 72.109375 L 126.414062 74.75 L 126.460938 75.265625 C 126.46875 75.464844 126.5 75.589844 126.554688 75.640625 C 126.613281 75.695312 126.746094 75.71875 126.945312 75.71875 L 127.304688 75.75 L 127.398438 75.75 L 127.398438 76.078125 L 124.445312 76.125 L 124.445312 75.796875 L 124.539062 75.796875 L 124.882812 75.75 C 125.078125 75.742188 125.203125 75.710938 125.257812 75.65625 C 125.308594 75.605469 125.339844 75.480469 125.351562 75.28125 L 125.382812 74.765625 L 125.335938 72.28125 C 125.324219 71.804688 125.253906 71.46875 125.132812 71.28125 C 125.007812 71.085938 124.78125 70.992188 124.460938 71 C 123.992188 71.011719 123.421875 71.316406 122.757812 71.90625 L 122.820312 74.8125 C 122.820312 75.09375 122.839844 75.347656 122.882812 75.5625 C 122.910156 75.648438 122.953125 75.707031 123.007812 75.734375 C 123.066406 75.757812 123.183594 75.773438 123.351562 75.78125 L 123.695312 75.8125 L 123.804688 75.8125 L 123.804688 76.140625 L 120.835938 76.1875 L 120.835938 75.859375 L 120.945312 75.859375 L 121.289062 75.8125 C 121.484375 75.804688 121.609375 75.773438 121.664062 75.71875 C 121.714844 75.667969 121.746094 75.542969 121.757812 75.34375 L 121.789062 74.828125 L 121.695312 69.296875 L 121.648438 68.78125 C 121.636719 68.585938 121.597656 68.460938 121.539062 68.40625 C 121.484375 68.347656 121.359375 68.308594 121.164062 68.296875 L 120.820312 68.28125 L 120.710938 68.28125 L 120.695312 67.953125 L 122.695312 67.921875 Z M 131.144531 75.984375 C 130.882812 76.085938 130.636719 76.144531 130.410156 76.15625 C 129.878906 76.164062 129.453125 76.039062 129.144531 75.765625 C 128.957031 75.601562 128.824219 75.417969 128.753906 75.21875 C 128.691406 75.011719 128.652344 74.703125 128.644531 74.296875 L 128.582031 70.828125 L 127.753906 70.84375 L 127.753906 70.421875 L 128.582031 70.40625 L 128.566406 69.375 L 129.597656 69.109375 L 129.613281 70.390625 L 131.191406 70.359375 L 131.191406 70.78125 L 129.613281 70.8125 L 129.675781 74.421875 C 129.683594 74.914062 129.738281 75.230469 129.832031 75.375 C 129.976562 75.625 130.214844 75.75 130.550781 75.75 C 130.714844 75.742188 130.914062 75.679688 131.144531 75.5625 Z M 131.144531 75.984375 "/>
<path style="fill:none;stroke-width:4;stroke-linecap:round;stroke-linejoin:round;stroke:rgb(100%,100%,100%);stroke-opacity:1;stroke-miterlimit:10;" d="M 1.15635 0.00364533 L 1.150361 -0.57466 L 6.177267 -3.084988 L 6.177527 -3.100611 L 1.155829 -5.59089 L 1.14984 -6.169195 L 7.333617 -3.081343 Z M 1.15635 0.00364533 " transform="matrix(0.999861,-0.0166644,0.0166644,0.999861,50,76)"/>
<path style=" stroke:none;fill-rule:nonzero;fill:rgb(0%,0%,0%);fill-opacity:1;" d="M 51.15625 75.984375 L 51.140625 75.40625 L 56.125 72.8125 L 56.125 72.796875 L 51.0625 70.390625 L 51.046875 69.8125 L 57.28125 72.796875 Z M 51.15625 75.984375 "/>
<path style="fill:none;stroke-width:4;stroke-linecap:round;stroke-linejoin:round;stroke:rgb(100%,100%,100%);stroke-opacity:1;stroke-miterlimit:10;" d="M 1.15635 0.00364533 L 1.150361 -0.57466 L 6.177267 -3.084988 L 6.177527 -3.100611 L 1.155829 -5.59089 L 1.14984 -6.169195 L 7.333617 -3.081343 Z M 1.15635 0.00364533 " transform="matrix(0.999861,-0.0166644,0.0166644,0.999861,143,75)"/>
<path style=" stroke:none;fill-rule:nonzero;fill:rgb(0%,0%,0%);fill-opacity:1;" d="M 144.15625 74.984375 L 144.140625 74.40625 L 149.125 71.8125 L 149.125 71.796875 L 144.0625 69.390625 L 144.046875 68.8125 L 150.28125 71.796875 Z M 144.15625 74.984375 "/>
<path style="fill:none;stroke-width:4;stroke-linecap:round;stroke-linejoin:round;stroke:rgb(100%,100%,100%);stroke-opacity:1;stroke-miterlimit:10;" d="M 1.15635 0.00364533 L 1.150361 -0.57466 L 6.177267 -3.084988 L 6.177527 -3.100611 L 1.155829 -5.59089 L 1.14984 -6.169195 L 7.333617 -3.081343 Z M 1.15635 0.00364533 " transform="matrix(0.999861,-0.0166644,0.0166644,0.999861,35,77)"/>
<path style=" stroke:none;fill-rule:nonzero;fill:rgb(0%,0%,0%);fill-opacity:1;" d="M 36.15625 76.984375 L 36.140625 76.40625 L 41.125 73.8125 L 41.125 73.796875 L 36.0625 71.390625 L 36.046875 70.8125 L 42.28125 73.796875 Z M 36.15625 76.984375 "/>
<path style="fill:none;stroke-width:4;stroke-linecap:round;stroke-linejoin:round;stroke:rgb(100%,100%,100%);stroke-opacity:1;stroke-miterlimit:10;" d="M 1.15635 0.00364533 L 1.150361 -0.57466 L 6.177267 -3.084988 L 6.177527 -3.100611 L 1.155829 -5.59089 L 1.14984 -6.169195 L 7.333617 -3.081343 Z M 1.15635 0.00364533 " transform="matrix(0.999861,-0.0166644,0.0166644,0.999861,158,75)"/>
<path style=" stroke:none;fill-rule:nonzero;fill:rgb(0%,0%,0%);fill-opacity:1;" d="M 159.15625 74.984375 L 159.140625 74.40625 L 164.125 71.8125 L 164.125 71.796875 L 159.0625 69.390625 L 159.046875 68.8125 L 165.28125 71.796875 Z M 159.15625 74.984375 "/>
<path style="fill:none;stroke-width:4;stroke-linecap:round;stroke-linejoin:round;stroke:rgb(100%,100%,100%);stroke-opacity:1;stroke-miterlimit:10;" d="M 1.15635 0.00364533 L 1.150361 -0.57466 L 6.177267 -3.084988 L 6.177527 -3.100611 L 1.155829 -5.59089 L 1.14984 -6.169195 L 7.333617 -3.081343 Z M 1.15635 0.00364533 " transform="matrix(0.999861,-0.0166644,0.0166644,0.999861,19,77)"/>
<path style=" stroke:none;fill-rule:nonzero;fill:rgb(0%,0%,0%);fill-opacity:1;" d="M 20.15625 76.984375 L 20.140625 76.40625 L 25.125 73.8125 L 25.125 73.796875 L 20.0625 71.390625 L 20.046875 70.8125 L 26.28125 73.796875 Z M 20.15625 76.984375 "/>
<path style="fill:none;stroke-width:4;stroke-linecap:round;stroke-linejoin:round;stroke:rgb(100%,100%,100%);stroke-opacity:1;stroke-miterlimit:10;" d="M 1.15635 0.00364533 L 1.150361 -0.57466 L 6.177267 -3.084988 L 6.177527 -3.100611 L 1.155829 -5.59089 L 1.14984 -6.169195 L 7.333617 -3.081343 Z M 1.15635 0.00364533 " transform="matrix(0.999861,-0.0166644,0.0166644,0.999861,173,74)"/>
<path style=" stroke:none;fill-rule:nonzero;fill:rgb(0%,0%,0%);fill-opacity:1;" d="M 174.15625 73.984375 L 174.140625 73.40625 L 179.125 70.8125 L 179.125 70.796875 L 174.0625 68.390625 L 174.046875 67.8125 L 180.28125 70.796875 Z M 174.15625 73.984375 "/>
<path style="fill:none;stroke-width:4;stroke-linecap:round;stroke-linejoin:round;stroke:rgb(100%,100%,100%);stroke-opacity:1;stroke-miterlimit:10;" d="M 1.15635 0.00364533 L 1.150361 -0.57466 L 6.177267 -3.084988 L 6.177527 -3.100611 L 1.155829 -5.59089 L 1.14984 -6.169195 L 7.333617 -3.081343 Z M 1.15635 0.00364533 " transform="matrix(0.999861,-0.0166644,0.0166644,0.999861,4,77)"/>
<path style=" stroke:none;fill-rule:nonzero;fill:rgb(0%,0%,0%);fill-opacity:1;" d="M 5.15625 76.984375 L 5.140625 76.40625 L 10.125 73.8125 L 10.125 73.796875 L 5.0625 71.390625 L 5.046875 70.8125 L 11.28125 73.796875 Z M 5.15625 76.984375 "/>
<path style="fill:none;stroke-width:4;stroke-linecap:round;stroke-linejoin:round;stroke:rgb(100%,100%,100%);stroke-opacity:1;stroke-miterlimit:10;" d="M 1.15635 0.00364533 L 1.150361 -0.57466 L 6.177267 -3.084988 L 6.177527 -3.100611 L 1.155829 -5.59089 L 1.14984 -6.169195 L 7.333617 -3.081343 Z M 1.15635 0.00364533 " transform="matrix(0.999861,-0.0166644,0.0166644,0.999861,189,74)"/>
<path style=" stroke:none;fill-rule:nonzero;fill:rgb(0%,0%,0%);fill-opacity:1;" d="M 190.15625 73.984375 L 190.140625 73.40625 L 195.125 70.8125 L 195.125 70.796875 L 190.0625 68.390625 L 190.046875 67.8125 L 196.28125 70.796875 Z M 190.15625 73.984375 "/>
</g>
</svg>
