<?xml version="1.0" encoding="UTF-8"?>
<svg xmlns="http://www.w3.org/2000/svg" xmlns:xlink="http://www.w3.org/1999/xlink" width="200pt" height="150pt" viewBox="0 0 200 150" version="1.1">
<g id="surface2">
<rect x="0" y="0" width="200" height="150" style="fill:rgb(100%,100%,100%);fill-opacity:1;stroke:none;"/>
<path style=" stroke:none;fill-rule:nonzero;fill:rgb(100%,0%,0%);fill-opacity:1;" d="M 29 124 C 29 129.332031 21 129.332031 21 124 C 21 118.667969 29 118.667969 29 124 "/>
<path style=" stroke:none;fill-rule:nonzero;fill:rgb(100%,0%,0%);fill-opacity:1;" d="M 103 50 C 103 55.332031 95 55.332031 95 50 C 95 44.667969 103 44.667969 103 50 "/>
<path style=" stroke:none;fill-rule:nonzero;fill:rgb(0%,0%,0%);fill-opacity:1;" d="M 21.210938 126.867188 L 20.382812 128.789062 C 20.257812 129.050781 20.183594 129.230469 20.164062 129.320312 L 19.945312 130.007812 C 19.902344 130.132812 19.882812 130.238281 19.882812 130.320312 C 19.882812 130.582031 20.136719 130.710938 20.648438 130.710938 L 21.304688 130.710938 L 21.304688 131.320312 L 17.554688 131.320312 L 17.554688 130.710938 L 17.757812 130.710938 L 18.226562 130.679688 C 18.441406 130.671875 18.617188 130.609375 18.742188 130.492188 C 18.863281 130.371094 18.996094 130.144531 19.132812 129.820312 L 19.570312 128.789062 L 24.664062 116.679688 L 25.351562 116.679688 L 30.414062 128.851562 L 30.914062 129.867188 C 31.089844 130.242188 31.242188 130.472656 31.367188 130.554688 C 31.488281 130.628906 31.773438 130.683594 32.210938 130.710938 L 32.445312 130.710938 L 32.445312 131.320312 L 27.070312 131.320312 L 27.070312 130.710938 L 27.851562 130.710938 C 28.359375 130.710938 28.617188 130.582031 28.617188 130.320312 C 28.617188 129.9375 28.480469 129.425781 28.210938 128.789062 L 27.398438 126.867188 Z M 21.523438 126.070312 L 27.054688 126.070312 L 24.304688 119.492188 Z M 21.523438 126.070312 "/>
<path style=" stroke:none;fill-rule:nonzero;fill:rgb(0%,0%,0%);fill-opacity:1;" d="M 98.332031 54.707031 L 99.113281 56.644531 C 99.203125 56.925781 99.277344 57.105469 99.332031 57.175781 L 99.675781 57.832031 C 99.726562 57.949219 99.785156 58.039062 99.847656 58.097656 C 100.023438 58.277344 100.292969 58.183594 100.660156 57.816406 L 101.128906 57.347656 L 101.566406 57.785156 L 98.910156 60.441406 L 98.472656 60.003906 L 98.613281 59.863281 L 98.925781 59.519531 C 99.070312 59.355469 99.144531 59.1875 99.144531 59.019531 C 99.152344 58.84375 99.089844 58.59375 98.957031 58.269531 L 98.535156 57.222656 L 93.582031 45.050781 L 94.066406 44.566406 L 106.253906 49.597656 L 107.332031 49.957031 C 107.726562 50.105469 107.992188 50.160156 108.128906 50.128906 C 108.273438 50.089844 108.507812 49.925781 108.832031 49.644531 L 109.003906 49.472656 L 109.441406 49.910156 L 105.644531 53.707031 L 105.207031 53.269531 L 105.753906 52.722656 C 106.117188 52.359375 106.210938 52.089844 106.035156 51.910156 C 105.761719 51.640625 105.296875 51.375 104.644531 51.113281 L 102.707031 50.332031 Z M 98.003906 53.910156 L 101.910156 50.003906 L 95.316406 47.316406 Z M 98.003906 53.910156 "/>
</g>
</svg>
