<?xml version="1.0" encoding="UTF-8"?>
<svg xmlns="http://www.w3.org/2000/svg" xmlns:xlink="http://www.w3.org/1999/xlink" width="400pt" height="300pt" viewBox="0 0 400 300" version="1.1">
<defs>
<clipPath id="clip1">
  <rect width="400" height="300"/>
</clipPath>
<g id="surface6" clip-path="url(#clip1)">
<path style="fill-rule:nonzero;fill:rgb(6.666667%,6.666667%,6.666667%);fill-opacity:1;stroke-width:3.408;stroke-linecap:butt;stroke-linejoin:miter;stroke:rgb(93.333333%,93.333333%,93.333333%);stroke-opacity:1;stroke-miterlimit:4;" d="M 66.274062 1.767187 C 24.94 1.767187 1.70375 23.141094 1.70375 66.804219 L 1.70375 516.925 C 1.70375 557.769688 22.597344 579.157188 63.895156 579.157188 L 515.919063 579.157188 C 557.225938 579.157188 578.15125 558.839063 578.15125 516.925 L 578.15125 66.804219 C 578.15125 24.201406 557.225938 1.767187 514.627656 1.767187 C 514.623125 1.767187 66.133594 1.626719 66.274062 1.767187 Z M 66.274062 1.767187 " transform="matrix(0.862069,0,0,0.862069,-200,-1)"/>
<path style=" stroke:none;fill-rule:nonzero;fill:rgb(100%,100%,100%);fill-opacity:1;" d="M 52.179688 391.804688 L 61.117188 465.207031 C 62.191406 473.222656 67 477.894531 75.546875 479.222656 C 81.421875 480.027344 86.566406 478.363281 90.972656 474.21875 C 95.378906 470.078125 97.183594 465.070312 96.382812 459.191406 L 85.832031 375.785156 C 84.761719 369.636719 81.039062 365.917969 77.480469 360.960938 L 50.125 322.8125 L 76.574219 276.734375 L 89.792969 293.5625 C 90.863281 295.167969 92.46875 296.371094 94.613281 297.167969 L 124.324219 311.597656 C 125.652344 312.128906 126.851562 312.394531 127.917969 312.394531 C 131.660156 312.394531 134.871094 310.925781 137.542969 307.984375 C 140.21875 305.046875 141.554688 301.707031 141.554688 297.964844 C 141.554688 291.289062 138.347656 286.882812 131.929688 284.746094 L 109.03125 271.929688 L 76.171875 232.246094 C 71.628906 226.90625 65.21875 223.570312 56.9375 222.230469 C 42.515625 220.097656 31.695312 225.171875 24.480469 237.457031 L -11.984375 300.375 C -14.390625 304.382812 -15.457031 309.324219 -15.1875 315.195312 L -13.992188 394.9375 L -41.640625 454.246094 C -42.707031 456.652344 -43.371094 458.652344 -43.632812 460.25 C -44.441406 465.332031 -43.375 469.804688 -40.433594 473.679688 C -37.496094 477.550781 -33.488281 479.890625 -28.410156 480.699219 C -19.863281 482.027344 -13.855469 479.085938 -10.382812 471.878906 L 20.078125 406.957031 C 21.144531 404.554688 21.679688 402.019531 21.679688 399.351562 L 21.277344 350.058594 Z M 73.371094 218.625 C 80.585938 218.625 86.863281 216.019531 92.203125 210.808594 C 97.542969 205.601562 100.214844 199.257812 100.214844 191.78125 C 100.214844 184.566406 97.542969 178.289062 92.203125 172.945312 C 86.863281 167.601562 80.585938 164.929688 73.371094 164.929688 C 65.886719 164.929688 59.539062 167.601562 54.332031 172.945312 C 49.121094 178.289062 46.515625 184.566406 46.515625 191.78125 C 46.515625 199.257812 49.121094 205.601562 54.332031 210.808594 C 59.539062 216.019531 65.886719 218.625 73.371094 218.625 Z M -20.398438 291.960938 L 19.675781 223.039062 C 22.347656 218.5 21.414062 215.027344 16.875 212.621094 L 4.046875 205 C -0.496094 202.335938 -3.96875 203.273438 -6.371094 207.8125 L -46.445312 276.734375 C -49.113281 281.277344 -48.175781 284.75 -43.632812 287.152344 L -30.816406 294.761719 C -26.277344 297.433594 -22.804688 296.5 -20.398438 291.960938 Z M -20.398438 291.960938 "/>
<path style="fill:none;stroke-width:12.867066;stroke-linecap:round;stroke-linejoin:miter;stroke:rgb(100%,100%,100%);stroke-opacity:1;stroke-miterlimit:4;" d="M 378.767187 360.28875 L 378.767187 540.659688 " transform="matrix(0.862069,0,0,0.862069,-200,-1)"/>
<path style="fill-rule:evenodd;fill:rgb(100%,100%,100%);fill-opacity:1;stroke-width:22.944344;stroke-linecap:round;stroke-linejoin:round;stroke:rgb(100%,100%,100%);stroke-opacity:1;stroke-miterlimit:4;" d="M 31.673437 267.243281 L 288.300781 130.376875 L 544.928125 267.243281 L 527.745625 284.742969 L 441.950938 250.133281 L 288.210156 231.632187 L 134.115937 249.865938 L 48.769844 284.357813 Z M 31.673437 267.243281 " transform="matrix(0.862069,0,0,0.862069,-200,-82.034483)"/>
<path style="fill-rule:nonzero;fill:rgb(100%,100%,100%);fill-opacity:1;stroke-width:25.165224;stroke-linecap:round;stroke-linejoin:round;stroke:rgb(100%,100%,100%);stroke-opacity:1;stroke-miterlimit:4;" d="M 456.799844 266.577187 L 488.795 266.577187 L 488.795 574.706719 L 456.799844 574.706719 Z M 456.799844 266.577187 " transform="matrix(0.862069,0,0,0.862069,-200,-82.034483)"/>
<path style="fill-rule:nonzero;fill:rgb(100%,100%,100%);fill-opacity:1;stroke-width:25.165224;stroke-linecap:round;stroke-linejoin:round;stroke:rgb(100%,100%,100%);stroke-opacity:1;stroke-miterlimit:4;" d="M 84.802344 266.577187 L 116.7975 266.577187 L 116.7975 574.706719 L 84.802344 574.706719 Z M 84.802344 266.577187 " transform="matrix(0.862069,0,0,0.862069,-200,-82.034483)"/>
</g>
<clipPath id="clip2">
  <rect width="400" height="300"/>
</clipPath>
<g id="surface8" clip-path="url(#clip2)">
<path style="fill-rule:nonzero;fill:rgb(6.666667%,6.666667%,6.666667%);fill-opacity:1;stroke-width:3.408;stroke-linecap:butt;stroke-linejoin:miter;stroke:rgb(93.333333%,93.333333%,93.333333%);stroke-opacity:1;stroke-miterlimit:4;" d="M 66.267999 1.778656 C 24.935398 1.749528 1.691272 23.129464 1.7204 66.792303 L 1.7204 516.936078 C 1.7204 557.773504 22.576032 579.15344 63.879505 579.15344 L 515.945727 579.15344 C 557.2492 579.15344 578.13396 558.851239 578.163088 516.936078 L 578.163088 66.792303 C 578.163088 24.207199 557.220072 1.749528 514.634968 1.749528 C 514.60584 1.778656 66.12236 1.633016 66.267999 1.778656 Z M 66.267999 1.778656 " transform="matrix(0.0670532,-0.0670532,0.0670532,0.0670532,161.109127,100)"/>
<path style=" stroke:none;fill-rule:nonzero;fill:rgb(100%,100%,100%);fill-opacity:1;" d="M 211.277344 110.9375 L 217.683594 115.953125 C 218.390625 116.492188 219.125 116.480469 219.894531 115.921875 C 220.414062 115.527344 220.683594 114.996094 220.703125 114.332031 C 220.726562 113.667969 220.476562 113.136719 219.957031 112.742188 L 212.648438 107.074219 C 212.085938 106.679688 211.507812 106.679688 210.847656 106.570312 L 205.75 105.730469 L 204.222656 100.089844 L 206.5625 100.371094 C 206.769531 100.414062 206.988281 100.382812 207.214844 100.277344 L 210.648438 99.089844 C 210.792969 99.027344 210.910156 98.953125 210.992188 98.871094 C 211.28125 98.578125 211.417969 98.214844 211.398438 97.777344 C 211.375 97.34375 211.222656 96.976562 210.929688 96.6875 C 210.410156 96.167969 209.816406 96.074219 209.152344 96.40625 L 206.375 97.191406 L 200.734375 96.660156 C 199.964844 96.597656 199.207031 96.839844 198.457031 97.378906 C 197.167969 98.335938 196.722656 99.570312 197.117188 101.085938 L 199.175781 108.816406 C 199.300781 109.316406 199.601562 109.785156 200.078125 110.21875 L 206.375 116.328125 L 208.835938 123.09375 C 208.941406 123.363281 209.042969 123.570312 209.148438 123.714844 C 209.480469 124.171875 209.910156 124.4375 210.441406 124.511719 C 210.972656 124.582031 211.464844 124.453125 211.921875 124.121094 C 212.691406 123.558594 212.929688 122.863281 212.640625 122.03125 L 209.957031 114.613281 C 209.855469 114.34375 209.699219 114.105469 209.492188 113.898438 L 205.625 110.09375 Z M 199.457031 95.820312 C 200.015625 95.257812 200.300781 94.566406 200.3125 93.746094 C 200.324219 92.925781 200.035156 92.226562 199.457031 91.644531 C 198.894531 91.082031 198.199219 90.800781 197.367188 90.800781 C 196.535156 90.800781 195.839844 91.082031 195.277344 91.644531 C 194.695312 92.226562 194.410156 92.925781 194.421875 93.746094 C 194.429688 94.566406 194.71875 95.257812 195.277344 95.820312 C 195.859375 96.402344 196.554688 96.691406 197.367188 96.691406 C 198.175781 96.691406 198.875 96.402344 199.457031 95.820312 Z M 197.867188 108.816406 L 195.621094 100.339844 C 195.476562 99.777344 195.132812 99.582031 194.59375 99.746094 L 193.003906 100.152344 C 192.441406 100.296875 192.246094 100.640625 192.410156 101.179688 L 194.65625 109.660156 C 194.800781 110.21875 195.144531 110.417969 195.683594 110.25 L 197.273438 109.84375 C 197.835938 109.699219 198.03125 109.359375 197.867188 108.816406 Z M 197.867188 108.816406 "/>
<path style="fill:none;stroke-width:12.867066;stroke-linecap:round;stroke-linejoin:miter;stroke:rgb(100%,100%,100%);stroke-opacity:1;stroke-miterlimit:4;" d="M 378.75295 360.285811 L 378.75295 540.646252 " transform="matrix(0.0670532,-0.0670532,0.0670532,0.0670532,161.109127,100)"/>
<path style="fill-rule:evenodd;fill:rgb(100%,100%,100%);fill-opacity:1;stroke-width:22.944344;stroke-linecap:round;stroke-linejoin:round;stroke:rgb(100%,100%,100%);stroke-opacity:1;stroke-miterlimit:4;" d="M 31.663961 267.225935 L 288.281449 130.382694 L 544.928065 267.255063 L 527.742558 284.73185 L 441.931534 250.127812 L 288.223193 231.631546 L 134.136189 249.86566 L 48.791213 284.353187 Z M 31.663961 267.225935 " transform="matrix(0.0670532,-0.0670532,0.0670532,0.0670532,154.806123,93.696996)"/>
<path style="fill-rule:nonzero;fill:rgb(100%,100%,100%);fill-opacity:1;stroke-width:25.165224;stroke-linecap:round;stroke-linejoin:round;stroke:rgb(100%,100%,100%);stroke-opacity:1;stroke-miterlimit:4;" d="M 456.815931 266.58512 L 488.798451 266.58512 L 488.798451 574.700873 L 456.815931 574.700873 Z M 456.815931 266.58512 " transform="matrix(0.0670532,-0.0670532,0.0670532,0.0670532,154.806123,93.696996)"/>
<path style="fill-rule:nonzero;fill:rgb(100%,100%,100%);fill-opacity:1;stroke-width:25.165224;stroke-linecap:round;stroke-linejoin:round;stroke:rgb(100%,100%,100%);stroke-opacity:1;stroke-miterlimit:4;" d="M 84.793394 266.58512 L 116.775914 266.58512 L 116.775914 574.700873 L 84.793394 574.700873 Z M 84.793394 266.58512 " transform="matrix(0.0670532,-0.0670532,0.0670532,0.0670532,154.806123,93.696996)"/>
</g>
<clipPath id="clip3">
  <rect width="400" height="300"/>
</clipPath>
<g id="surface10" clip-path="url(#clip3)">
<path style=" stroke:none;fill-rule:nonzero;fill:rgb(100%,0%,0%);fill-opacity:1;" d="M 54 249 C 54 254.332031 46 254.332031 46 249 C 46 243.667969 54 243.667969 54 249 "/>
<path style=" stroke:none;fill-rule:nonzero;fill:rgb(100%,0%,0%);fill-opacity:1;" d="M 204 100 C 204 105.332031 196 105.332031 196 100 C 196 94.667969 204 94.667969 204 100 "/>
</g>
</defs>
<g id="surface2">
<rect x="0" y="0" width="400" height="300" style="fill:rgb(100%,100%,100%);fill-opacity:1;stroke:none;"/>
<use xlink:href="#surface6"/>
<use xlink:href="#surface8"/>
<use xlink:href="#surface10"/>
</g>
</svg>
