<?xml version="1.0" encoding="UTF-8"?>
<svg xmlns="http://www.w3.org/2000/svg" xmlns:xlink="http://www.w3.org/1999/xlink" width="200pt" height="150pt" viewBox="0 0 200 150" version="1.1">
<g id="surface2">
<rect x="0" y="0" width="200" height="150" style="fill:rgb(100%,100%,100%);fill-opacity:1;stroke:none;"/>
<path style=" stroke:none;fill-rule:nonzero;fill:rgb(0%,0%,100%);fill-opacity:1;" d="M 45 124 C 45 129.523438 36.046875 134 25 134 C 13.953125 134 5 129.523438 5 124 C 5 118.476562 13.953125 114 25 114 C 36.046875 114 45 118.476562 45 124 "/>
<path style=" stroke:none;fill-rule:nonzero;fill:rgb(0%,0%,100%);fill-opacity:1;" d="M 123.75 25.25 C 130.582031 32.085938 125.042969 48.707031 111.375 62.375 C 97.707031 76.042969 81.085938 81.582031 74.25 74.75 C 67.417969 67.914062 72.957031 51.292969 86.625 37.625 C 100.292969 23.957031 116.914062 18.417969 123.75 25.25 "/>
<path style=" stroke:none;fill-rule:nonzero;fill:rgb(100%,0%,0%);fill-opacity:1;" d="M 29 124 C 29 129.332031 21 129.332031 21 124 C 21 118.667969 29 118.667969 29 124 "/>
<path style=" stroke:none;fill-rule:nonzero;fill:rgb(100%,0%,0%);fill-opacity:1;" d="M 103 50 C 103 55.332031 95 55.332031 95 50 C 95 44.667969 103 44.667969 103 50 "/>
</g>
</svg>
