<?xml version="1.0" encoding="UTF-8"?>
<svg xmlns="http://www.w3.org/2000/svg" xmlns:xlink="http://www.w3.org/1999/xlink" width="400pt" height="300pt" viewBox="0 0 400 300" version="1.1">
<defs>
<clipPath id="clip1">
  <rect width="5" height="5"/>
</clipPath>
<g id="surface1" clip-path="url(#clip1)">
<rect x="0" y="0" width="5" height="5" style="fill:rgb(0%,0%,0%);fill-opacity:0;stroke:none;"/>
<path style=" stroke:none;fill-rule:nonzero;fill:rgb(0%,0%,0%);fill-opacity:1;" d="M 2.285156 4.078125 L 2.535156 4.734375 C 2.566406 4.808594 2.597656 4.859375 2.628906 4.890625 L 2.722656 5.109375 C 2.742188 5.152344 2.761719 5.183594 2.785156 5.203125 C 2.847656 5.265625 2.941406 5.234375 3.066406 5.109375 L 3.175781 5 L 3.222656 4.953125 L 3.363281 5.09375 L 2.472656 5.984375 L 2.332031 5.84375 L 2.378906 5.796875 L 2.472656 5.671875 C 2.523438 5.621094 2.550781 5.5625 2.550781 5.5 C 2.550781 5.4375 2.527344 5.355469 2.488281 5.25 L 2.347656 4.921875 L 0.691406 0.859375 L 0.847656 0.703125 L 4.925781 2.375 L 5.285156 2.484375 C 5.417969 2.539062 5.507812 2.558594 5.550781 2.546875 C 5.589844 2.539062 5.667969 2.484375 5.785156 2.390625 L 5.847656 2.328125 L 5.988281 2.46875 L 4.722656 3.734375 L 4.582031 3.59375 L 4.613281 3.5625 L 4.769531 3.40625 C 4.882812 3.292969 4.910156 3.203125 4.847656 3.140625 C 4.753906 3.046875 4.601562 2.960938 4.394531 2.875 L 3.738281 2.625 L 2.285156 4.078125 Z M 2.175781 3.8125 L 3.488281 2.5 L 1.285156 1.609375 L 2.175781 3.8125 Z M 2.175781 3.8125 "/>
</g>
<pattern id="pattern0" patternUnits="userSpaceOnUse" width="5" height="5">
<use xlink:href="#surface1"/>
</pattern>
<clipPath id="clip2">
  <rect width="8" height="8"/>
</clipPath>
<g id="surface2" clip-path="url(#clip2)">
<rect x="0" y="0" width="8" height="8" style="fill:rgb(0%,0%,0%);fill-opacity:0;stroke:none;"/>
<path style=" stroke:none;fill-rule:nonzero;fill:rgb(0%,0%,0%);fill-opacity:1;" d="M 1.984375 5.53125 L 1.53125 6.5625 C 1.46875 6.699219 1.429688 6.792969 1.421875 6.84375 L 1.3125 7.203125 C 1.289062 7.277344 1.28125 7.335938 1.28125 7.375 C 1.28125 7.511719 1.410156 7.578125 1.671875 7.578125 L 1.953125 7.578125 L 2.03125 7.578125 L 2.03125 7.90625 L 0.03125 7.90625 L 0.03125 7.578125 L 0.140625 7.578125 L 0.390625 7.5625 C 0.503906 7.5625 0.59375 7.53125 0.65625 7.46875 C 0.726562 7.398438 0.800781 7.277344 0.875 7.109375 L 1.109375 6.5625 L 3.828125 0.09375 L 4.1875 0.09375 L 6.890625 6.59375 L 7.15625 7.125 C 7.25 7.335938 7.328125 7.460938 7.390625 7.5 C 7.460938 7.542969 7.617188 7.570312 7.859375 7.578125 L 7.96875 7.578125 L 7.96875 7.90625 L 5.109375 7.90625 L 5.109375 7.578125 L 5.203125 7.578125 L 5.53125 7.578125 C 5.800781 7.578125 5.9375 7.511719 5.9375 7.375 C 5.9375 7.167969 5.863281 6.898438 5.71875 6.5625 L 5.28125 5.53125 L 1.984375 5.53125 Z M 2.15625 5.109375 L 5.09375 5.109375 L 3.625 1.59375 L 2.15625 5.109375 Z M 2.15625 5.109375 "/>
</g>
<pattern id="pattern1" patternUnits="userSpaceOnUse" width="8" height="8">
<use xlink:href="#surface2"/>
</pattern>
<pattern id="pattern2" patternUnits="userSpaceOnUse" width="5" height="5">
<use xlink:href="#surface1"/>
</pattern>
<pattern id="pattern3" patternUnits="userSpaceOnUse" width="5" height="5">
<use xlink:href="#surface1"/>
</pattern>
</defs>
<g id="surface0">
<rect x="0" y="0" width="400" height="300" style="fill:rgb(100%,100%,100%);fill-opacity:1;stroke:none;"/>
<path style=" stroke:none;fill-rule:evenodd;fill:rgb(70.588235%,70.588235%,39.215686%);fill-opacity:1;" d="M 203.46875 109.300781 L 196.523438 128.160156 L 211.410156 137.09375 L 227.292969 117.242188 L 203.46875 109.300781 Z M 203.46875 109.300781 "/>
<path style=" stroke:none;fill-rule:evenodd;fill:url(#pattern0);" d="M 203.46875 109.300781 L 196.523438 128.160156 L 211.410156 137.09375 L 227.292969 117.242188 L 203.46875 109.300781 "/>
<path style=" stroke:none;fill-rule:evenodd;fill:rgb(70.588235%,70.588235%,70.588235%);fill-opacity:1;" d="M 335.476562 74.5625 L 279.894531 126.175781 L 399 124.191406 L 315.625 109.300781 L 389.074219 87.464844 L 335.476562 74.5625 Z M 335.476562 74.5625 "/>
<path style=" stroke:none;fill-rule:evenodd;fill:url(#pattern1);" d="M 335.476562 74.5625 L 279.894531 126.175781 L 399 124.191406 L 315.625 109.300781 L 389.074219 87.464844 L 335.476562 74.5625 "/>
<path style=" stroke:none;fill-rule:evenodd;fill:rgb(70.588235%,70.588235%,39.215686%);fill-opacity:1;" d="M 32.753906 123.199219 L 59.550781 167.863281 L 179.648438 100.371094 L 32.753906 123.199219 Z M 32.753906 123.199219 "/>
<path style=" stroke:none;fill-rule:evenodd;fill:url(#pattern2);" d="M 32.753906 123.199219 L 59.550781 167.863281 L 179.648438 100.371094 L 32.753906 123.199219 "/>
<path style=" stroke:none;fill-rule:evenodd;fill:rgb(70.588235%,70.588235%,39.215686%);fill-opacity:1;" d="M 152.851562 162.898438 L 0 195.652344 L 75.433594 224.4375 L 230.269531 186.71875 L 152.851562 162.898438 Z M 134.984375 180.765625 L 143.917969 194.660156 L 45.65625 200.617188 L 134.984375 180.765625 Z M 134.984375 180.765625 "/>
<path style=" stroke:none;fill-rule:evenodd;fill:url(#pattern3);" d="M 152.851562 162.898438 L 0 195.652344 L 75.433594 224.4375 L 230.269531 186.71875 L 152.851562 162.898438 M 134.984375 180.765625 L 143.917969 194.660156 L 45.65625 200.617188 L 134.984375 180.765625 "/>
</g>
</svg>
