<?xml version="1.0" encoding="UTF-8"?>
<svg xmlns="http://www.w3.org/2000/svg" xmlns:xlink="http://www.w3.org/1999/xlink" width="400pt" height="300pt" viewBox="0 0 400 300" version="1.1">
<g id="surface0">
<rect x="0" y="0" width="400" height="300" style="fill:rgb(100%,100%,100%);fill-opacity:1;stroke:none;"/>
<path style=" stroke:none;fill-rule:evenodd;fill:rgb(70.588235%,0%,0%);fill-opacity:1;" d="M 203.46875 109.300781 L 196.523438 128.160156 L 211.410156 137.09375 L 227.292969 117.242188 L 203.46875 109.300781 Z M 203.46875 109.300781 "/>
<path style=" stroke:none;fill-rule:evenodd;fill:rgb(70.588235%,70.588235%,70.588235%);fill-opacity:1;" d="M 196.699219 128.269531 L 196.519531 128.160156 L 197.78125 124.75 L 199 125.96875 Z M 196.699219 128.269531 "/>
<path style=" stroke:none;fill-rule:evenodd;fill:rgb(70.588235%,70.588235%,70.588235%);fill-opacity:1;" d="M 200.410156 124.550781 L 198.539062 122.679688 L 198.828125 121.890625 L 199.699219 121.019531 L 201.828125 123.140625 Z M 200.410156 124.550781 "/>
<path style=" stroke:none;fill-rule:evenodd;fill:rgb(70.588235%,70.588235%,70.588235%);fill-opacity:1;" d="M 203.238281 121.730469 L 201.121094 119.601562 L 204.648438 116.070312 L 206.78125 118.191406 Z M 203.238281 121.730469 "/>
<path style=" stroke:none;fill-rule:evenodd;fill:rgb(70.588235%,70.588235%,70.588235%);fill-opacity:1;" d="M 208.191406 116.78125 L 206.070312 114.660156 L 207.480469 113.238281 L 209.601562 115.359375 Z M 208.191406 116.78125 "/>
<path style=" stroke:none;fill-rule:evenodd;fill:rgb(70.588235%,70.588235%,70.588235%);fill-opacity:1;" d="M 211.019531 113.949219 L 208.898438 111.828125 L 209.441406 111.289062 L 212.621094 112.351562 Z M 211.019531 113.949219 "/>
<path style=" stroke:none;fill-rule:evenodd;fill:rgb(70.588235%,0%,0%);fill-opacity:1;" d="M 335.476562 74.5625 L 279.894531 126.175781 L 399 124.191406 L 315.625 109.300781 L 389.074219 87.464844 L 335.476562 74.5625 Z M 335.476562 74.5625 "/>
<path style=" stroke:none;fill-rule:evenodd;fill:rgb(70.588235%,70.588235%,70.588235%);fill-opacity:1;" d="M 279.898438 126.179688 L 280 126.078125 L 280.101562 126.179688 Z M 279.898438 126.179688 "/>
<path style=" stroke:none;fill-rule:evenodd;fill:rgb(70.588235%,70.588235%,70.588235%);fill-opacity:1;" d="M 282.871094 126.128906 L 281.46875 124.71875 L 282.941406 123.359375 L 284.699219 125.121094 L 283.699219 126.121094 Z M 282.871094 126.128906 "/>
<path style=" stroke:none;fill-rule:evenodd;fill:rgb(70.588235%,70.588235%,70.588235%);fill-opacity:1;" d="M 310.699219 125.671875 L 309.449219 124.410156 L 310.859375 123 L 312.980469 125.121094 L 312.46875 125.640625 Z M 310.699219 125.671875 "/>
<path style=" stroke:none;fill-rule:evenodd;fill:rgb(70.588235%,70.588235%,70.588235%);fill-opacity:1;" d="M 338.519531 125.199219 L 337.730469 124.410156 L 339.140625 123 L 341.269531 125.121094 L 341.230469 125.160156 Z M 338.519531 125.199219 "/>
<path style=" stroke:none;fill-rule:evenodd;fill:rgb(70.588235%,70.588235%,70.588235%);fill-opacity:1;" d="M 366.441406 124.730469 L 366.070312 124.359375 L 369.601562 120.828125 L 371.71875 122.949219 L 370 124.671875 Z M 366.441406 124.730469 "/>
<path style=" stroke:none;fill-rule:evenodd;fill:rgb(70.588235%,70.588235%,70.588235%);fill-opacity:1;" d="M 394.441406 124.269531 L 395.199219 123.511719 L 396.570312 123.761719 L 397.03125 124.21875 Z M 394.441406 124.269531 "/>
<path style=" stroke:none;fill-rule:evenodd;fill:rgb(70.588235%,70.588235%,70.588235%);fill-opacity:1;" d="M 342.679688 123.710938 L 340.558594 121.589844 L 344.089844 118.050781 L 346.21875 120.171875 Z M 342.679688 123.710938 "/>
<path style=" stroke:none;fill-rule:evenodd;fill:rgb(70.588235%,70.588235%,70.588235%);fill-opacity:1;" d="M 314.398438 123.710938 L 312.269531 121.589844 L 315.808594 118.050781 L 317.929688 120.171875 Z M 314.398438 123.710938 "/>
<path style=" stroke:none;fill-rule:evenodd;fill:rgb(70.588235%,70.588235%,70.588235%);fill-opacity:1;" d="M 286.109375 123.710938 L 284.398438 122 L 288.070312 118.589844 L 289.648438 120.171875 Z M 286.109375 123.710938 "/>
<path style=" stroke:none;fill-rule:evenodd;fill:rgb(70.588235%,70.588235%,70.588235%);fill-opacity:1;" d="M 373.140625 121.539062 L 371.011719 119.410156 L 371.199219 119.21875 L 374.191406 119.761719 L 374.550781 120.121094 Z M 373.140625 121.539062 "/>
<path style=" stroke:none;fill-rule:evenodd;fill:rgb(70.588235%,70.588235%,70.588235%);fill-opacity:1;" d="M 347.628906 118.761719 L 345.511719 116.640625 L 346.921875 115.21875 L 349.039062 117.339844 Z M 347.628906 118.761719 "/>
<path style=" stroke:none;fill-rule:evenodd;fill:rgb(70.588235%,70.588235%,70.588235%);fill-opacity:1;" d="M 319.351562 118.761719 L 317.21875 116.640625 L 318.640625 115.21875 L 320.761719 117.339844 Z M 319.351562 118.761719 "/>
<path style=" stroke:none;fill-rule:evenodd;fill:rgb(70.588235%,70.588235%,70.588235%);fill-opacity:1;" d="M 291.058594 118.761719 L 289.53125 117.230469 L 291 115.871094 L 292.480469 117.339844 Z M 291.058594 118.761719 "/>
<path style=" stroke:none;fill-rule:evenodd;fill:rgb(70.588235%,70.588235%,70.588235%);fill-opacity:1;" d="M 350.460938 115.929688 L 349.960938 115.429688 L 350.808594 115.578125 Z M 350.460938 115.929688 "/>
<path style=" stroke:none;fill-rule:evenodd;fill:rgb(70.588235%,70.588235%,70.588235%);fill-opacity:1;" d="M 322.171875 115.929688 L 320.050781 113.808594 L 323.210938 110.648438 L 324.140625 110.820312 L 325.710938 112.390625 Z M 322.171875 115.929688 "/>
<path style=" stroke:none;fill-rule:evenodd;fill:rgb(70.588235%,70.588235%,70.588235%);fill-opacity:1;" d="M 293.890625 115.929688 L 292.46875 114.511719 L 296.140625 111.101562 L 297.429688 112.390625 Z M 293.890625 115.929688 "/>
<path style=" stroke:none;fill-rule:evenodd;fill:rgb(70.588235%,70.588235%,70.588235%);fill-opacity:1;" d="M 298.839844 110.980469 L 297.601562 109.738281 L 299.070312 108.378906 L 300.25 109.558594 Z M 298.839844 110.980469 "/>
<path style=" stroke:none;fill-rule:evenodd;fill:rgb(70.588235%,70.588235%,70.588235%);fill-opacity:1;" d="M 301.671875 108.148438 L 300.539062 107.019531 L 304.199219 103.609375 L 305.199219 104.621094 Z M 301.671875 108.148438 "/>
<path style=" stroke:none;fill-rule:evenodd;fill:rgb(70.588235%,70.588235%,70.588235%);fill-opacity:1;" d="M 328.339844 105.519531 L 331.371094 102.488281 L 333.011719 104.128906 Z M 328.339844 105.519531 "/>
<path style=" stroke:none;fill-rule:evenodd;fill:rgb(70.588235%,70.588235%,70.588235%);fill-opacity:1;" d="M 334.898438 103.199219 L 332.78125 101.078125 L 334.191406 99.671875 L 336.320312 101.789062 Z M 334.898438 103.199219 "/>
<path style=" stroke:none;fill-rule:evenodd;fill:rgb(70.588235%,70.588235%,70.588235%);fill-opacity:1;" d="M 306.621094 103.199219 L 305.671875 102.25 L 307.128906 100.890625 L 308.03125 101.789062 Z M 306.621094 103.199219 "/>
<path style=" stroke:none;fill-rule:evenodd;fill:rgb(70.588235%,70.588235%,70.588235%);fill-opacity:1;" d="M 337.730469 100.371094 L 335.609375 98.25 L 339.140625 94.71875 L 341.269531 96.839844 Z M 337.730469 100.371094 "/>
<path style=" stroke:none;fill-rule:evenodd;fill:rgb(70.588235%,70.588235%,70.588235%);fill-opacity:1;" d="M 309.449219 100.371094 L 308.601562 99.519531 L 312.261719 96.121094 L 312.980469 96.839844 Z M 309.449219 100.371094 "/>
<path style=" stroke:none;fill-rule:evenodd;fill:rgb(70.588235%,70.588235%,70.588235%);fill-opacity:1;" d="M 342.679688 95.421875 L 340.558594 93.300781 L 341.96875 91.890625 L 344.089844 94.011719 Z M 342.679688 95.421875 "/>
<path style=" stroke:none;fill-rule:evenodd;fill:rgb(70.588235%,70.588235%,70.588235%);fill-opacity:1;" d="M 314.398438 95.421875 L 313.730469 94.761719 L 315.199219 93.398438 L 315.808594 94.011719 Z M 314.398438 95.421875 "/>
<path style=" stroke:none;fill-rule:evenodd;fill:rgb(70.588235%,70.588235%,70.588235%);fill-opacity:1;" d="M 368.980469 93.441406 L 368.839844 93.300781 L 370.261719 91.890625 L 371.160156 92.789062 Z M 368.980469 93.441406 "/>
<path style=" stroke:none;fill-rule:evenodd;fill:rgb(70.588235%,70.588235%,70.588235%);fill-opacity:1;" d="M 345.511719 92.589844 L 343.390625 90.46875 L 346.921875 86.941406 L 349.039062 89.058594 Z M 345.511719 92.589844 "/>
<path style=" stroke:none;fill-rule:evenodd;fill:rgb(70.588235%,70.588235%,70.588235%);fill-opacity:1;" d="M 317.21875 92.589844 L 316.660156 92.03125 L 320.328125 88.628906 L 320.761719 89.058594 Z M 317.21875 92.589844 "/>
<path style=" stroke:none;fill-rule:evenodd;fill:rgb(70.588235%,70.588235%,70.588235%);fill-opacity:1;" d="M 373.339844 92.140625 L 371.671875 90.46875 L 375.210938 86.941406 L 377.328125 89.058594 L 374.621094 91.769531 Z M 373.339844 92.140625 "/>
<path style=" stroke:none;fill-rule:evenodd;fill:rgb(70.588235%,70.588235%,70.588235%);fill-opacity:1;" d="M 378.738281 87.640625 L 376.621094 85.519531 L 377.46875 84.679688 L 378.96875 85.039062 L 380.160156 86.230469 Z M 378.738281 87.640625 "/>
<path style=" stroke:none;fill-rule:evenodd;fill:rgb(70.588235%,70.588235%,70.588235%);fill-opacity:1;" d="M 350.460938 87.640625 L 348.339844 85.519531 L 349.75 84.109375 L 351.871094 86.230469 Z M 350.460938 87.640625 "/>
<path style=" stroke:none;fill-rule:evenodd;fill:rgb(70.588235%,70.588235%,70.588235%);fill-opacity:1;" d="M 322.171875 87.640625 L 321.800781 87.269531 L 323.261719 85.898438 L 323.589844 86.230469 Z M 322.171875 87.640625 "/>
<path style=" stroke:none;fill-rule:evenodd;fill:rgb(70.588235%,70.588235%,70.588235%);fill-opacity:1;" d="M 353.289062 84.820312 L 351.171875 82.691406 L 354.679688 79.179688 L 354.738281 79.199219 L 356.820312 81.28125 Z M 353.289062 84.820312 "/>
<path style=" stroke:none;fill-rule:evenodd;fill:rgb(70.588235%,70.588235%,70.588235%);fill-opacity:1;" d="M 325 84.820312 L 324.730469 84.550781 L 328.398438 81.140625 L 328.539062 81.28125 Z M 325 84.820312 "/>
<path style=" stroke:none;fill-rule:evenodd;fill:rgb(70.588235%,70.588235%,70.588235%);fill-opacity:1;" d="M 329.949219 79.871094 L 329.859375 79.78125 L 331.328125 78.410156 L 331.371094 78.449219 Z M 329.949219 79.871094 "/>
<path style=" stroke:none;fill-rule:evenodd;fill:rgb(70.588235%,0%,0%);fill-opacity:1;" d="M 32.753906 123.199219 L 59.550781 167.863281 L 179.648438 100.371094 L 32.753906 123.199219 Z M 32.753906 123.199219 "/>
<path style=" stroke:none;fill-rule:evenodd;fill:rgb(70.588235%,70.588235%,70.588235%);fill-opacity:1;" d="M 54.539062 157.289062 L 52.421875 155.171875 L 55.949219 151.628906 L 58.070312 153.761719 Z M 54.539062 157.289062 "/>
<path style=" stroke:none;fill-rule:evenodd;fill:rgb(70.588235%,70.588235%,70.588235%);fill-opacity:1;" d="M 78.859375 157.011719 L 79.289062 156.578125 L 79.410156 156.699219 Z M 78.859375 157.011719 "/>
<path style=" stroke:none;fill-rule:evenodd;fill:rgb(70.588235%,70.588235%,70.588235%);fill-opacity:1;" d="M 81.21875 155.691406 L 80.699219 155.171875 L 84.238281 151.628906 L 85.738281 153.140625 Z M 81.21875 155.691406 "/>
<path style=" stroke:none;fill-rule:evenodd;fill:rgb(70.588235%,70.588235%,70.588235%);fill-opacity:1;" d="M 59.488281 152.339844 L 57.371094 150.21875 L 58.78125 148.808594 L 60.898438 150.929688 Z M 59.488281 152.339844 "/>
<path style=" stroke:none;fill-rule:evenodd;fill:rgb(70.588235%,70.588235%,70.588235%);fill-opacity:1;" d="M 87.550781 152.121094 L 85.648438 150.21875 L 87.058594 148.808594 L 89.191406 150.929688 L 88.550781 151.558594 Z M 87.550781 152.121094 "/>
<path style=" stroke:none;fill-rule:evenodd;fill:rgb(70.588235%,70.588235%,70.588235%);fill-opacity:1;" d="M 90.601562 149.511719 L 88.480469 147.390625 L 92.011719 143.859375 L 94.140625 145.980469 Z M 90.601562 149.511719 "/>
<path style=" stroke:none;fill-rule:evenodd;fill:rgb(70.588235%,70.588235%,70.588235%);fill-opacity:1;" d="M 62.320312 149.511719 L 60.191406 147.390625 L 63.730469 143.859375 L 65.851562 145.980469 Z M 62.320312 149.511719 "/>
<path style=" stroke:none;fill-rule:evenodd;fill:rgb(70.588235%,70.588235%,70.588235%);fill-opacity:1;" d="M 95.550781 144.558594 L 93.429688 142.441406 L 94.839844 141.03125 L 96.960938 143.148438 Z M 95.550781 144.558594 "/>
<path style=" stroke:none;fill-rule:evenodd;fill:rgb(70.588235%,70.588235%,70.588235%);fill-opacity:1;" d="M 67.269531 144.558594 L 65.140625 142.441406 L 66.558594 141.03125 L 68.679688 143.148438 Z M 67.269531 144.558594 "/>
<path style=" stroke:none;fill-rule:evenodd;fill:rgb(70.588235%,70.588235%,70.588235%);fill-opacity:1;" d="M 98.378906 141.730469 L 96.261719 139.609375 L 99.789062 136.078125 L 101.910156 138.199219 Z M 98.378906 141.730469 "/>
<path style=" stroke:none;fill-rule:evenodd;fill:rgb(70.588235%,70.588235%,70.588235%);fill-opacity:1;" d="M 70.089844 141.730469 L 67.96875 139.609375 L 71.511719 136.078125 L 73.628906 138.199219 Z M 70.089844 141.730469 "/>
<path style=" stroke:none;fill-rule:evenodd;fill:rgb(70.588235%,70.588235%,70.588235%);fill-opacity:1;" d="M 44.421875 139.121094 L 42.300781 137 L 43.710938 135.589844 L 45.828125 137.710938 Z M 44.421875 139.121094 "/>
<path style=" stroke:none;fill-rule:evenodd;fill:rgb(70.588235%,70.588235%,70.588235%);fill-opacity:1;" d="M 103.328125 136.789062 L 101.210938 134.660156 L 102.621094 133.25 L 104.738281 135.371094 Z M 103.328125 136.789062 "/>
<path style=" stroke:none;fill-rule:evenodd;fill:rgb(70.588235%,70.588235%,70.588235%);fill-opacity:1;" d="M 75.039062 136.789062 L 72.921875 134.660156 L 74.339844 133.25 L 76.460938 135.371094 Z M 75.039062 136.789062 "/>
<path style=" stroke:none;fill-rule:evenodd;fill:rgb(70.588235%,70.588235%,70.588235%);fill-opacity:1;" d="M 47.25 136.300781 L 45.128906 134.171875 L 48.660156 130.640625 L 50.78125 132.761719 Z M 47.25 136.300781 "/>
<path style=" stroke:none;fill-rule:evenodd;fill:rgb(70.588235%,70.588235%,70.588235%);fill-opacity:1;" d="M 106.160156 133.960938 L 104.039062 131.839844 L 107.570312 128.300781 L 109.691406 130.421875 Z M 106.160156 133.960938 "/>
<path style=" stroke:none;fill-rule:evenodd;fill:rgb(70.588235%,70.588235%,70.588235%);fill-opacity:1;" d="M 77.871094 133.960938 L 75.75 131.839844 L 79.289062 128.300781 L 81.410156 130.421875 Z M 77.871094 133.960938 "/>
<path style=" stroke:none;fill-rule:evenodd;fill:rgb(70.588235%,70.588235%,70.588235%);fill-opacity:1;" d="M 52.199219 131.351562 L 50.078125 129.21875 L 51.488281 127.808594 L 53.609375 129.929688 Z M 52.199219 131.351562 "/>
<path style=" stroke:none;fill-rule:evenodd;fill:rgb(70.588235%,70.588235%,70.588235%);fill-opacity:1;" d="M 111.109375 129.011719 L 108.980469 126.890625 L 110.398438 125.46875 L 112.519531 127.589844 Z M 111.109375 129.011719 "/>
<path style=" stroke:none;fill-rule:evenodd;fill:rgb(70.588235%,70.588235%,70.588235%);fill-opacity:1;" d="M 82.820312 129.011719 L 80.699219 126.890625 L 82.109375 125.46875 L 84.238281 127.589844 Z M 82.820312 129.011719 "/>
<path style=" stroke:none;fill-rule:evenodd;fill:rgb(70.588235%,70.588235%,70.588235%);fill-opacity:1;" d="M 55.03125 128.519531 L 52.910156 126.398438 L 56.441406 122.859375 L 58.558594 124.980469 Z M 55.03125 128.519531 "/>
<path style=" stroke:none;fill-rule:evenodd;fill:rgb(70.588235%,70.588235%,70.588235%);fill-opacity:1;" d="M 113.929688 126.179688 L 111.808594 124.058594 L 115.351562 120.519531 L 117.46875 122.640625 Z M 113.929688 126.179688 "/>
<path style=" stroke:none;fill-rule:evenodd;fill:rgb(70.588235%,70.588235%,70.588235%);fill-opacity:1;" d="M 85.648438 126.179688 L 83.53125 124.058594 L 87.058594 120.519531 L 89.191406 122.640625 Z M 85.648438 126.179688 "/>
<path style=" stroke:none;fill-rule:evenodd;fill:rgb(70.588235%,70.588235%,70.588235%);fill-opacity:1;" d="M 59.980469 123.570312 L 57.859375 121.449219 L 59.269531 120.03125 L 61.390625 122.148438 Z M 59.980469 123.570312 "/>
<path style=" stroke:none;fill-rule:evenodd;fill:rgb(70.588235%,70.588235%,70.588235%);fill-opacity:1;" d="M 118.878906 121.230469 L 116.761719 119.109375 L 118.179688 117.691406 L 120.300781 119.808594 Z M 118.878906 121.230469 "/>
<path style=" stroke:none;fill-rule:evenodd;fill:rgb(70.588235%,70.588235%,70.588235%);fill-opacity:1;" d="M 90.601562 121.230469 L 88.480469 119.109375 L 89.890625 117.691406 L 92.011719 119.808594 Z M 90.601562 121.230469 "/>
<path style=" stroke:none;fill-rule:evenodd;fill:rgb(70.588235%,70.588235%,70.588235%);fill-opacity:1;" d="M 62.808594 120.738281 L 60.890625 118.828125 L 65.421875 118.121094 Z M 62.808594 120.738281 "/>
<path style=" stroke:none;fill-rule:evenodd;fill:rgb(70.588235%,70.588235%,70.588235%);fill-opacity:1;" d="M 143.421875 120.730469 L 143.628906 120.519531 L 143.691406 120.578125 Z M 143.421875 120.730469 "/>
<path style=" stroke:none;fill-rule:evenodd;fill:rgb(70.588235%,70.588235%,70.588235%);fill-opacity:1;" d="M 145.5 119.558594 L 145.050781 119.109375 L 146.460938 117.691406 L 147.308594 118.539062 Z M 145.5 119.558594 "/>
<path style=" stroke:none;fill-rule:evenodd;fill:rgb(70.588235%,70.588235%,70.588235%);fill-opacity:1;" d="M 121.710938 118.398438 L 119.589844 116.28125 L 123.128906 112.738281 L 125.25 114.859375 Z M 121.710938 118.398438 "/>
<path style=" stroke:none;fill-rule:evenodd;fill:rgb(70.588235%,70.588235%,70.588235%);fill-opacity:1;" d="M 93.429688 118.398438 L 91.308594 116.28125 L 93.878906 113.699219 L 95.539062 113.441406 L 96.960938 114.859375 Z M 93.429688 118.398438 "/>
<path style=" stroke:none;fill-rule:evenodd;fill:rgb(70.588235%,70.588235%,70.588235%);fill-opacity:1;" d="M 149.121094 117.519531 L 147.878906 116.28125 L 151.410156 112.738281 L 153.53125 114.859375 L 153.101562 115.289062 Z M 149.121094 117.519531 "/>
<path style=" stroke:none;fill-rule:evenodd;fill:rgb(70.588235%,70.588235%,70.588235%);fill-opacity:1;" d="M 154.949219 113.449219 L 152.828125 111.328125 L 154.238281 109.921875 L 156.359375 112.039062 Z M 154.949219 113.449219 "/>
<path style=" stroke:none;fill-rule:evenodd;fill:rgb(70.588235%,70.588235%,70.588235%);fill-opacity:1;" d="M 126.660156 113.449219 L 124.539062 111.328125 L 125.960938 109.921875 L 128.078125 112.039062 Z M 126.660156 113.449219 "/>
<path style=" stroke:none;fill-rule:evenodd;fill:rgb(70.588235%,70.588235%,70.588235%);fill-opacity:1;" d="M 98.378906 113.449219 L 97.988281 113.058594 L 98.910156 112.921875 Z M 98.378906 113.449219 "/>
<path style=" stroke:none;fill-rule:evenodd;fill:rgb(70.588235%,70.588235%,70.588235%);fill-opacity:1;" d="M 157.78125 110.621094 L 155.648438 108.5 L 159.191406 104.96875 L 161.308594 107.089844 Z M 157.78125 110.621094 "/>
<path style=" stroke:none;fill-rule:evenodd;fill:rgb(70.588235%,70.588235%,70.588235%);fill-opacity:1;" d="M 129.488281 110.621094 L 127.371094 108.5 L 127.378906 108.488281 L 132.410156 107.710938 Z M 129.488281 110.621094 "/>
<path style=" stroke:none;fill-rule:evenodd;fill:rgb(70.588235%,70.588235%,70.588235%);fill-opacity:1;" d="M 162.71875 105.671875 L 160.601562 103.550781 L 160.859375 103.289062 L 162.859375 102.980469 L 164.140625 104.261719 Z M 162.71875 105.671875 "/>
<path style=" stroke:none;fill-rule:evenodd;fill:rgb(70.588235%,70.588235%,70.588235%);fill-opacity:1;" d="M 165.550781 102.839844 L 165.308594 102.601562 L 165.878906 102.511719 Z M 165.550781 102.839844 "/>
<path style=" stroke:none;fill-rule:evenodd;fill:rgb(70.588235%,0%,0%);fill-opacity:1;" d="M 152.851562 162.898438 L 0 195.652344 L 75.433594 224.4375 L 230.269531 186.71875 L 152.851562 162.898438 Z M 134.984375 180.765625 L 143.917969 194.660156 L 45.65625 200.617188 L 134.984375 180.765625 Z M 134.984375 180.765625 "/>
<path style=" stroke:none;fill-rule:evenodd;fill:rgb(70.588235%,70.588235%,70.588235%);fill-opacity:1;" d="M 71.5 222.941406 L 70.050781 222.390625 L 70.5 221.941406 Z M 71.5 222.941406 "/>
<path style=" stroke:none;fill-rule:evenodd;fill:rgb(70.588235%,70.588235%,70.588235%);fill-opacity:1;" d="M 74.03125 222.648438 L 71.910156 220.53125 L 73.320312 219.109375 L 75.449219 221.238281 Z M 74.03125 222.648438 "/>
<path style=" stroke:none;fill-rule:evenodd;fill:rgb(70.588235%,70.588235%,70.588235%);fill-opacity:1;" d="M 76.859375 219.820312 L 74.738281 217.699219 L 78.269531 214.160156 L 80.398438 216.289062 Z M 76.859375 219.820312 "/>
<path style=" stroke:none;fill-rule:evenodd;fill:rgb(70.588235%,70.588235%,70.588235%);fill-opacity:1;" d="M 103.039062 217.71875 L 103.019531 217.699219 L 106.558594 214.160156 L 108.679688 216.289062 L 108.609375 216.359375 Z M 103.039062 217.71875 "/>
<path style=" stroke:none;fill-rule:evenodd;fill:rgb(70.588235%,70.588235%,70.588235%);fill-opacity:1;" d="M 50.910156 215.078125 L 49.578125 214.570312 L 49.988281 214.160156 Z M 50.910156 215.078125 "/>
<path style=" stroke:none;fill-rule:evenodd;fill:rgb(70.588235%,70.588235%,70.588235%);fill-opacity:1;" d="M 110.089844 214.871094 L 107.96875 212.75 L 109.390625 211.339844 L 111.511719 213.460938 Z M 110.089844 214.871094 "/>
<path style=" stroke:none;fill-rule:evenodd;fill:rgb(70.588235%,70.588235%,70.588235%);fill-opacity:1;" d="M 81.808594 214.871094 L 79.691406 212.75 L 81.101562 211.339844 L 83.21875 213.460938 Z M 81.808594 214.871094 "/>
<path style=" stroke:none;fill-rule:evenodd;fill:rgb(70.588235%,70.588235%,70.588235%);fill-opacity:1;" d="M 53.53125 214.871094 L 51.398438 212.75 L 52.820312 211.339844 L 54.941406 213.460938 Z M 53.53125 214.871094 "/>
<path style=" stroke:none;fill-rule:evenodd;fill:rgb(70.588235%,70.588235%,70.588235%);fill-opacity:1;" d="M 112.921875 212.039062 L 110.800781 209.921875 L 114.339844 206.390625 L 116.460938 208.511719 Z M 112.921875 212.039062 "/>
<path style=" stroke:none;fill-rule:evenodd;fill:rgb(70.588235%,70.588235%,70.588235%);fill-opacity:1;" d="M 84.640625 212.039062 L 82.519531 209.921875 L 86.050781 206.390625 L 88.171875 208.511719 Z M 84.640625 212.039062 "/>
<path style=" stroke:none;fill-rule:evenodd;fill:rgb(70.588235%,70.588235%,70.588235%);fill-opacity:1;" d="M 56.351562 212.039062 L 54.230469 209.921875 L 57.769531 206.390625 L 59.890625 208.511719 Z M 56.351562 212.039062 "/>
<path style=" stroke:none;fill-rule:evenodd;fill:rgb(70.588235%,70.588235%,70.588235%);fill-opacity:1;" d="M 140.398438 208.609375 L 142.621094 206.390625 L 143.96875 207.738281 Z M 140.398438 208.609375 "/>
<path style=" stroke:none;fill-rule:evenodd;fill:rgb(70.588235%,70.588235%,70.588235%);fill-opacity:1;" d="M 30.308594 207.21875 L 29.109375 206.761719 L 29.480469 206.390625 Z M 30.308594 207.21875 "/>
<path style=" stroke:none;fill-rule:evenodd;fill:rgb(70.588235%,70.588235%,70.588235%);fill-opacity:1;" d="M 146.160156 207.089844 L 144.039062 204.96875 L 145.449219 203.558594 L 147.570312 205.679688 Z M 146.160156 207.089844 "/>
<path style=" stroke:none;fill-rule:evenodd;fill:rgb(70.588235%,70.588235%,70.588235%);fill-opacity:1;" d="M 117.871094 207.089844 L 115.75 204.96875 L 117.171875 203.558594 L 119.289062 205.679688 Z M 117.871094 207.089844 "/>
<path style=" stroke:none;fill-rule:evenodd;fill:rgb(70.588235%,70.588235%,70.588235%);fill-opacity:1;" d="M 89.589844 207.089844 L 87.46875 204.96875 L 88.878906 203.558594 L 91 205.679688 Z M 89.589844 207.089844 "/>
<path style=" stroke:none;fill-rule:evenodd;fill:rgb(70.588235%,70.588235%,70.588235%);fill-opacity:1;" d="M 61.300781 207.089844 L 59.179688 204.96875 L 60.601562 203.558594 L 62.71875 205.679688 Z M 61.300781 207.089844 "/>
<path style=" stroke:none;fill-rule:evenodd;fill:rgb(70.588235%,70.588235%,70.588235%);fill-opacity:1;" d="M 33.019531 207.089844 L 30.898438 204.96875 L 32.308594 203.558594 L 34.429688 205.679688 Z M 33.019531 207.089844 "/>
<path style=" stroke:none;fill-rule:evenodd;fill:rgb(70.588235%,70.588235%,70.588235%);fill-opacity:1;" d="M 148.988281 204.261719 L 146.859375 202.140625 L 150.398438 198.609375 L 152.519531 200.730469 Z M 148.988281 204.261719 "/>
<path style=" stroke:none;fill-rule:evenodd;fill:rgb(70.588235%,70.588235%,70.588235%);fill-opacity:1;" d="M 120.699219 204.261719 L 118.578125 202.140625 L 122.121094 198.609375 L 124.238281 200.730469 Z M 120.699219 204.261719 "/>
<path style=" stroke:none;fill-rule:evenodd;fill:rgb(70.588235%,70.588235%,70.588235%);fill-opacity:1;" d="M 92.421875 204.261719 L 90.300781 202.140625 L 93.828125 198.609375 L 95.949219 200.730469 Z M 92.421875 204.261719 "/>
<path style=" stroke:none;fill-rule:evenodd;fill:rgb(70.588235%,70.588235%,70.588235%);fill-opacity:1;" d="M 64.128906 204.261719 L 62.011719 202.140625 L 64.691406 199.46875 L 66.308594 199.371094 L 67.671875 200.730469 Z M 64.128906 204.261719 "/>
<path style=" stroke:none;fill-rule:evenodd;fill:rgb(70.588235%,70.588235%,70.588235%);fill-opacity:1;" d="M 35.851562 204.261719 L 33.730469 202.140625 L 37.261719 198.609375 L 39.378906 200.730469 Z M 35.851562 204.261719 "/>
<path style=" stroke:none;fill-rule:evenodd;fill:rgb(70.588235%,70.588235%,70.588235%);fill-opacity:1;" d="M 11.710938 200.121094 L 11.578125 200.070312 L 9.550781 198.039062 L 10.960938 196.628906 L 13.078125 198.75 Z M 11.710938 200.121094 "/>
<path style=" stroke:none;fill-rule:evenodd;fill:rgb(70.588235%,70.588235%,70.588235%);fill-opacity:1;" d="M 177.78125 199.511719 L 178.679688 198.609375 L 179.230469 199.148438 Z M 177.78125 199.511719 "/>
<path style=" stroke:none;fill-rule:evenodd;fill:rgb(70.588235%,70.588235%,70.588235%);fill-opacity:1;" d="M 153.941406 199.308594 L 151.808594 197.191406 L 153.230469 195.78125 L 155.351562 197.898438 Z M 153.941406 199.308594 "/>
<path style=" stroke:none;fill-rule:evenodd;fill:rgb(70.588235%,70.588235%,70.588235%);fill-opacity:1;" d="M 125.648438 199.308594 L 123.53125 197.191406 L 124.910156 195.808594 L 124.96875 195.808594 L 127.070312 197.898438 Z M 125.648438 199.308594 "/>
<path style=" stroke:none;fill-rule:evenodd;fill:rgb(70.588235%,70.588235%,70.588235%);fill-opacity:1;" d="M 97.371094 199.308594 L 95.648438 197.589844 L 98.308594 197.429688 L 98.78125 197.898438 Z M 97.371094 199.308594 "/>
<path style=" stroke:none;fill-rule:evenodd;fill:rgb(70.588235%,70.588235%,70.588235%);fill-opacity:1;" d="M 69.078125 199.308594 L 68.980469 199.210938 L 69.199219 199.191406 Z M 69.078125 199.308594 "/>
<path style=" stroke:none;fill-rule:evenodd;fill:rgb(70.588235%,70.588235%,70.588235%);fill-opacity:1;" d="M 40.800781 199.308594 L 38.679688 197.191406 L 40.089844 195.78125 L 42.210938 197.898438 Z M 40.800781 199.308594 "/>
<path style=" stroke:none;fill-rule:evenodd;fill:rgb(70.588235%,70.588235%,70.588235%);fill-opacity:1;" d="M 181.511719 198.601562 L 180.101562 197.191406 L 181.511719 195.78125 L 183.628906 197.898438 L 183.390625 198.140625 Z M 181.511719 198.601562 "/>
<path style=" stroke:none;fill-rule:evenodd;fill:rgb(70.588235%,70.588235%,70.588235%);fill-opacity:1;" d="M 14.5 197.328125 L 12.371094 195.210938 L 15.191406 192.390625 L 16.371094 192.140625 L 18.03125 193.800781 Z M 14.5 197.328125 "/>
<path style=" stroke:none;fill-rule:evenodd;fill:rgb(70.588235%,70.588235%,70.588235%);fill-opacity:1;" d="M 185.050781 196.488281 L 182.929688 194.371094 L 186.460938 190.828125 L 188.578125 192.949219 Z M 185.050781 196.488281 "/>
<path style=" stroke:none;fill-rule:evenodd;fill:rgb(70.588235%,70.588235%,70.588235%);fill-opacity:1;" d="M 156.761719 196.488281 L 154.640625 194.371094 L 158.179688 190.828125 L 160.300781 192.949219 Z M 156.761719 196.488281 "/>
<path style=" stroke:none;fill-rule:evenodd;fill:rgb(70.588235%,70.588235%,70.588235%);fill-opacity:1;" d="M 128.480469 196.488281 L 127.640625 195.648438 L 129.429688 195.539062 Z M 128.480469 196.488281 "/>
<path style=" stroke:none;fill-rule:evenodd;fill:rgb(70.588235%,70.588235%,70.588235%);fill-opacity:1;" d="M 43.628906 196.488281 L 41.511719 194.371094 L 45.039062 190.828125 L 47.160156 192.949219 Z M 43.628906 196.488281 "/>
<path style=" stroke:none;fill-rule:evenodd;fill:rgb(70.588235%,70.588235%,70.588235%);fill-opacity:1;" d="M 70.511719 195.089844 L 69.789062 194.371094 L 73.320312 190.828125 L 75.449219 192.949219 L 74.101562 194.300781 Z M 70.511719 195.089844 "/>
<path style=" stroke:none;fill-rule:evenodd;fill:rgb(70.588235%,70.588235%,70.588235%);fill-opacity:1;" d="M 19.449219 192.378906 L 18.710938 191.640625 L 20.589844 191.238281 Z M 19.449219 192.378906 "/>
<path style=" stroke:none;fill-rule:evenodd;fill:rgb(70.588235%,70.588235%,70.588235%);fill-opacity:1;" d="M 190 191.539062 L 187.878906 189.421875 L 189.289062 188 L 191.410156 190.121094 Z M 190 191.539062 "/>
<path style=" stroke:none;fill-rule:evenodd;fill:rgb(70.588235%,70.588235%,70.588235%);fill-opacity:1;" d="M 161.710938 191.539062 L 159.589844 189.421875 L 161.011719 188 L 163.128906 190.121094 Z M 161.710938 191.539062 "/>
<path style=" stroke:none;fill-rule:evenodd;fill:rgb(70.588235%,70.588235%,70.588235%);fill-opacity:1;" d="M 76.859375 191.539062 L 74.738281 189.421875 L 76.148438 188 L 78.269531 190.121094 Z M 76.859375 191.539062 "/>
<path style=" stroke:none;fill-rule:evenodd;fill:rgb(70.588235%,70.588235%,70.588235%);fill-opacity:1;" d="M 48.578125 191.539062 L 46.449219 189.421875 L 47.871094 188 L 49.988281 190.121094 Z M 48.578125 191.539062 "/>
<path style=" stroke:none;fill-rule:evenodd;fill:rgb(70.588235%,70.588235%,70.588235%);fill-opacity:1;" d="M 215.179688 190.398438 L 216.261719 189.308594 L 216.921875 189.96875 Z M 215.179688 190.398438 "/>
<path style=" stroke:none;fill-rule:evenodd;fill:rgb(70.588235%,70.588235%,70.588235%);fill-opacity:1;" d="M 219.199219 189.421875 L 217.679688 187.898438 L 219.089844 186.488281 L 221.210938 188.609375 L 220.789062 189.03125 Z M 219.199219 189.421875 "/>
<path style=" stroke:none;fill-rule:evenodd;fill:rgb(70.588235%,70.588235%,70.588235%);fill-opacity:1;" d="M 192.828125 188.710938 L 190.699219 186.589844 L 194.238281 183.050781 L 196.359375 185.171875 Z M 192.828125 188.710938 "/>
<path style=" stroke:none;fill-rule:evenodd;fill:rgb(70.588235%,70.588235%,70.588235%);fill-opacity:1;" d="M 164.539062 188.710938 L 162.421875 186.589844 L 165.960938 183.050781 L 168.078125 185.171875 Z M 164.539062 188.710938 "/>
<path style=" stroke:none;fill-rule:evenodd;fill:rgb(70.588235%,70.588235%,70.588235%);fill-opacity:1;" d="M 79.691406 188.710938 L 77.570312 186.589844 L 81.101562 183.050781 L 83.21875 185.171875 Z M 79.691406 188.710938 "/>
<path style=" stroke:none;fill-rule:evenodd;fill:rgb(70.588235%,70.588235%,70.588235%);fill-opacity:1;" d="M 51.398438 188.710938 L 49.28125 186.589844 L 51.191406 184.679688 L 53.878906 184.109375 L 54.941406 185.171875 Z M 51.398438 188.710938 "/>
<path style=" stroke:none;fill-rule:evenodd;fill:rgb(70.588235%,70.588235%,70.588235%);fill-opacity:1;" d="M 222.628906 187.191406 L 220.5 185.070312 L 221.539062 184.03125 L 224.789062 185.03125 Z M 222.628906 187.191406 "/>
<path style=" stroke:none;fill-rule:evenodd;fill:rgb(70.588235%,70.588235%,70.588235%);fill-opacity:1;" d="M 106.378906 187.121094 L 105.851562 186.589844 L 109.390625 183.050781 L 111.511719 185.171875 L 110.46875 186.210938 Z M 106.378906 187.121094 "/>
<path style=" stroke:none;fill-rule:evenodd;fill:rgb(70.588235%,70.588235%,70.588235%);fill-opacity:1;" d="M 138.589844 186.371094 L 136.929688 183.789062 L 137.671875 183.050781 L 139.789062 185.171875 Z M 138.589844 186.371094 "/>
<path style=" stroke:none;fill-rule:evenodd;fill:rgb(70.588235%,70.588235%,70.588235%);fill-opacity:1;" d="M 197.78125 183.761719 L 195.648438 181.640625 L 197.070312 180.21875 L 199.191406 182.339844 Z M 197.78125 183.761719 "/>
<path style=" stroke:none;fill-rule:evenodd;fill:rgb(70.588235%,70.588235%,70.588235%);fill-opacity:1;" d="M 169.488281 183.761719 L 167.371094 181.640625 L 168.78125 180.21875 L 170.910156 182.339844 Z M 169.488281 183.761719 "/>
<path style=" stroke:none;fill-rule:evenodd;fill:rgb(70.588235%,70.588235%,70.588235%);fill-opacity:1;" d="M 141.210938 183.761719 L 139.089844 181.640625 L 140.5 180.21875 L 142.621094 182.339844 Z M 141.210938 183.761719 "/>
<path style=" stroke:none;fill-rule:evenodd;fill:rgb(70.588235%,70.588235%,70.588235%);fill-opacity:1;" d="M 112.921875 183.761719 L 110.800781 181.640625 L 112.21875 180.21875 L 114.339844 182.339844 Z M 112.921875 183.761719 "/>
<path style=" stroke:none;fill-rule:evenodd;fill:rgb(70.588235%,70.588235%,70.588235%);fill-opacity:1;" d="M 84.640625 183.761719 L 82.519531 181.640625 L 83.929688 180.21875 L 86.050781 182.339844 Z M 84.640625 183.761719 "/>
<path style=" stroke:none;fill-rule:evenodd;fill:rgb(70.588235%,70.588235%,70.588235%);fill-opacity:1;" d="M 56.351562 183.761719 L 56.199219 183.609375 L 56.578125 183.53125 Z M 56.351562 183.761719 "/>
<path style=" stroke:none;fill-rule:evenodd;fill:rgb(70.588235%,70.588235%,70.588235%);fill-opacity:1;" d="M 200.601562 180.929688 L 198.480469 178.808594 L 199.910156 177.378906 L 203.148438 178.378906 Z M 200.601562 180.929688 "/>
<path style=" stroke:none;fill-rule:evenodd;fill:rgb(70.588235%,70.588235%,70.588235%);fill-opacity:1;" d="M 172.320312 180.929688 L 170.199219 178.808594 L 173.730469 175.269531 L 175.859375 177.390625 Z M 172.320312 180.929688 "/>
<path style=" stroke:none;fill-rule:evenodd;fill:rgb(70.588235%,70.588235%,70.588235%);fill-opacity:1;" d="M 144.039062 180.929688 L 141.910156 178.808594 L 145.449219 175.269531 L 147.570312 177.390625 Z M 144.039062 180.929688 "/>
<path style=" stroke:none;fill-rule:evenodd;fill:rgb(70.588235%,70.588235%,70.588235%);fill-opacity:1;" d="M 115.75 180.929688 L 113.628906 178.808594 L 117.171875 175.269531 L 119.289062 177.390625 Z M 115.75 180.929688 "/>
<path style=" stroke:none;fill-rule:evenodd;fill:rgb(70.588235%,70.588235%,70.588235%);fill-opacity:1;" d="M 87.46875 180.929688 L 85.351562 178.808594 L 87.191406 176.96875 L 89.980469 176.371094 L 91 177.390625 Z M 87.46875 180.929688 "/>
<path style=" stroke:none;fill-rule:evenodd;fill:rgb(70.588235%,70.588235%,70.588235%);fill-opacity:1;" d="M 177.269531 175.980469 L 175.148438 173.859375 L 176.558594 172.441406 L 178.679688 174.570312 Z M 177.269531 175.980469 "/>
<path style=" stroke:none;fill-rule:evenodd;fill:rgb(70.588235%,70.588235%,70.588235%);fill-opacity:1;" d="M 148.988281 175.980469 L 146.859375 173.859375 L 148.28125 172.441406 L 150.398438 174.570312 Z M 148.988281 175.980469 "/>
<path style=" stroke:none;fill-rule:evenodd;fill:rgb(70.588235%,70.588235%,70.588235%);fill-opacity:1;" d="M 120.699219 175.980469 L 118.578125 173.859375 L 119.988281 172.441406 L 122.121094 174.570312 Z M 120.699219 175.980469 "/>
<path style=" stroke:none;fill-rule:evenodd;fill:rgb(70.588235%,70.588235%,70.588235%);fill-opacity:1;" d="M 92.421875 175.980469 L 92.308594 175.871094 L 92.589844 175.808594 Z M 92.421875 175.980469 "/>
<path style=" stroke:none;fill-rule:evenodd;fill:rgb(70.588235%,70.588235%,70.588235%);fill-opacity:1;" d="M 180.101562 173.148438 L 177.980469 171.03125 L 178.28125 170.730469 L 181.53125 171.71875 Z M 180.101562 173.148438 "/>
<path style=" stroke:none;fill-rule:evenodd;fill:rgb(70.588235%,70.588235%,70.588235%);fill-opacity:1;" d="M 151.808594 173.148438 L 149.691406 171.03125 L 153.230469 167.5 L 155.351562 169.621094 Z M 151.808594 173.148438 "/>
<path style=" stroke:none;fill-rule:evenodd;fill:rgb(70.588235%,70.588235%,70.588235%);fill-opacity:1;" d="M 123.53125 173.148438 L 121.410156 171.03125 L 123.179688 169.261719 L 126.078125 168.640625 L 127.070312 169.621094 Z M 123.53125 173.148438 "/>
<path style=" stroke:none;fill-rule:evenodd;fill:rgb(70.588235%,70.588235%,70.588235%);fill-opacity:1;" d="M 156.761719 168.199219 L 154.640625 166.078125 L 156.058594 164.671875 L 158.179688 166.789062 Z M 156.761719 168.199219 "/>
<path style=" stroke:none;fill-rule:evenodd;fill:rgb(70.588235%,70.588235%,70.588235%);fill-opacity:1;" d="M 128.480469 168.199219 L 128.421875 168.140625 L 128.578125 168.101562 Z M 128.480469 168.199219 "/>
<path style=" stroke:none;fill-rule:evenodd;fill:rgb(70.588235%,70.588235%,70.588235%);fill-opacity:1;" d="M 159.589844 165.371094 L 159.019531 164.800781 L 159.890625 165.070312 Z M 159.589844 165.371094 "/>
</g>
</svg>
