<?xml version="1.0" encoding="UTF-8"?>
<svg xmlns="http://www.w3.org/2000/svg" xmlns:xlink="http://www.w3.org/1999/xlink" width="400pt" height="300pt" viewBox="0 0 400 300" version="1.1">
<defs>
<clipPath id="clip1">
  <rect width="400" height="300"/>
</clipPath>
<g id="surface6" clip-path="url(#clip1)">
<path style=" stroke:none;fill-rule:evenodd;fill:rgb(70.588235%,0%,0%);fill-opacity:1;" d="M 203.46875 109.300781 L 196.523438 128.160156 L 211.410156 137.09375 L 227.292969 117.242188 Z M 203.46875 109.300781 "/>
<path style=" stroke:none;fill-rule:evenodd;fill:rgb(70.588235%,70.588235%,70.588235%);fill-opacity:1;" d="M 224.820312 116.421875 L 227.289062 117.238281 L 211.410156 137.089844 L 206.871094 134.359375 Z M 224.820312 116.421875 "/>
<path style=" stroke:none;fill-rule:evenodd;fill:rgb(70.588235%,70.588235%,70.588235%);fill-opacity:1;" d="M 203.601562 109.339844 L 218.449219 114.289062 L 201.558594 131.179688 L 196.519531 128.160156 L 203.371094 109.570312 Z M 203.601562 109.339844 "/>
<path style=" stroke:none;fill-rule:evenodd;fill:rgb(70.588235%,0%,0%);fill-opacity:1;" d="M 335.476562 74.5625 L 279.894531 126.175781 L 399 124.191406 L 315.625 109.300781 L 389.074219 87.464844 Z M 335.476562 74.5625 "/>
<path style=" stroke:none;fill-rule:evenodd;fill:rgb(70.588235%,70.588235%,70.588235%);fill-opacity:1;" d="M 335.480469 74.558594 L 341.558594 76.03125 L 291.609375 125.980469 L 279.898438 126.179688 Z M 335.480469 74.558594 "/>
<path style=" stroke:none;fill-rule:evenodd;fill:rgb(70.588235%,70.588235%,70.588235%);fill-opacity:1;" d="M 316.609375 109.46875 L 333.410156 112.46875 L 320.378906 125.5 L 300.238281 125.839844 Z M 316.609375 109.46875 "/>
<path style=" stroke:none;fill-rule:evenodd;fill:rgb(70.588235%,70.588235%,70.588235%);fill-opacity:1;" d="M 340.601562 113.761719 L 357.398438 116.761719 L 349.140625 125.019531 L 329 125.359375 Z M 340.601562 113.761719 "/>
<path style=" stroke:none;fill-rule:evenodd;fill:rgb(70.588235%,70.588235%,70.588235%);fill-opacity:1;" d="M 364.601562 118.050781 L 381.398438 121.050781 L 377.910156 124.539062 L 357.769531 124.878906 Z M 364.601562 118.050781 "/>
<path style=" stroke:none;fill-rule:evenodd;fill:rgb(70.588235%,70.588235%,70.588235%);fill-opacity:1;" d="M 388.601562 122.328125 L 399 124.191406 L 386.53125 124.398438 Z M 388.601562 122.328125 "/>
<path style=" stroke:none;fill-rule:evenodd;fill:rgb(70.588235%,70.588235%,70.588235%);fill-opacity:1;" d="M 348.410156 77.671875 L 364.359375 81.519531 L 345.441406 100.441406 L 317.269531 108.808594 Z M 348.410156 77.671875 "/>
<path style=" stroke:none;fill-rule:evenodd;fill:rgb(70.588235%,70.588235%,70.588235%);fill-opacity:1;" d="M 371.199219 83.160156 L 387.148438 87.011719 L 385.679688 88.480469 L 357.511719 96.851562 Z M 371.199219 83.160156 "/>
<path style=" stroke:none;fill-rule:evenodd;fill:rgb(70.588235%,0%,0%);fill-opacity:1;" d="M 32.753906 123.199219 L 59.550781 167.863281 L 179.648438 100.371094 Z M 32.753906 123.199219 "/>
<path style=" stroke:none;fill-rule:evenodd;fill:rgb(70.588235%,70.588235%,70.588235%);fill-opacity:1;" d="M 141.609375 106.28125 L 106.300781 141.589844 L 61.101562 166.988281 L 118.160156 109.929688 Z M 141.609375 106.28125 "/>
<path style=" stroke:none;fill-rule:evenodd;fill:rgb(70.588235%,70.588235%,70.588235%);fill-opacity:1;" d="M 108.121094 111.488281 L 56.621094 162.988281 L 49.199219 150.609375 L 84.679688 115.128906 Z M 108.121094 111.488281 "/>
<path style=" stroke:none;fill-rule:evenodd;fill:rgb(70.588235%,70.588235%,70.588235%);fill-opacity:1;" d="M 74.628906 116.691406 L 46.011719 145.308594 L 38.589844 132.929688 L 51.191406 120.328125 Z M 74.628906 116.691406 "/>
<path style=" stroke:none;fill-rule:evenodd;fill:rgb(70.588235%,70.588235%,70.588235%);fill-opacity:1;" d="M 175.101562 101.078125 L 170.878906 105.300781 L 125.679688 130.699219 L 151.660156 104.71875 Z M 175.101562 101.078125 "/>
<path style=" stroke:none;fill-rule:evenodd;fill:rgb(70.588235%,70.588235%,70.588235%);fill-opacity:1;" d="M 41.140625 121.898438 L 35.410156 127.628906 L 32.75 123.199219 Z M 41.140625 121.898438 "/>
<path style=" stroke:none;fill-rule:evenodd;fill:rgb(70.588235%,0%,0%);fill-opacity:1;" d="M 152.851562 162.898438 L 0 195.652344 L 75.433594 224.4375 L 230.269531 186.71875 Z M 134.984375 180.765625 L 143.917969 194.660156 L 45.65625 200.617188 Z M 134.984375 180.765625 "/>
<path style=" stroke:none;fill-rule:evenodd;fill:rgb(70.588235%,70.588235%,70.588235%);fill-opacity:1;" d="M 107.601562 196.859375 L 81.5 222.960938 L 75.429688 224.441406 L 64.421875 220.238281 L 86.519531 198.140625 Z M 107.601562 196.859375 "/>
<path style=" stroke:none;fill-rule:evenodd;fill:rgb(70.588235%,70.588235%,70.588235%);fill-opacity:1;" d="M 137.710938 195.039062 L 118.898438 213.851562 L 92.71875 220.230469 L 116.640625 196.308594 Z M 137.710938 195.039062 "/>
<path style=" stroke:none;fill-rule:evenodd;fill:rgb(70.588235%,70.588235%,70.588235%);fill-opacity:1;" d="M 77.488281 198.691406 L 58.28125 217.898438 L 43.949219 212.429688 L 56.410156 199.96875 Z M 77.488281 198.691406 "/>
<path style=" stroke:none;fill-rule:evenodd;fill:rgb(70.588235%,70.588235%,70.588235%);fill-opacity:1;" d="M 172.339844 168.890625 L 187.480469 173.550781 L 156.289062 204.738281 L 130.109375 211.121094 Z M 172.339844 168.890625 "/>
<path style=" stroke:none;fill-rule:evenodd;fill:rgb(70.588235%,70.588235%,70.588235%);fill-opacity:1;" d="M 30.488281 189.121094 L 17.339844 202.269531 L 3.011719 196.800781 L 5.289062 194.519531 Z M 30.488281 189.121094 "/>
<path style=" stroke:none;fill-rule:evenodd;fill:rgb(70.588235%,70.588235%,70.588235%);fill-opacity:1;" d="M 193.960938 175.550781 L 209.101562 180.210938 L 193.679688 195.628906 L 167.5 202.011719 Z M 193.960938 175.550781 "/>
<path style=" stroke:none;fill-rule:evenodd;fill:rgb(70.588235%,70.588235%,70.588235%);fill-opacity:1;" d="M 47.730469 200.160156 L 45.660156 200.621094 L 47.371094 200.519531 L 37.808594 210.078125 L 23.480469 204.609375 L 41.289062 186.800781 L 66.488281 181.398438 Z M 47.730469 200.160156 "/>
<path style=" stroke:none;fill-rule:evenodd;fill:rgb(70.588235%,70.588235%,70.588235%);fill-opacity:1;" d="M 102.488281 173.691406 L 84.109375 192.070312 L 58.648438 197.730469 L 77.289062 179.089844 Z M 102.488281 173.691406 "/>
<path style=" stroke:none;fill-rule:evenodd;fill:rgb(70.588235%,70.588235%,70.588235%);fill-opacity:1;" d="M 215.601562 182.199219 L 230.269531 186.71875 L 204.898438 192.898438 Z M 215.601562 182.199219 "/>
<path style=" stroke:none;fill-rule:evenodd;fill:rgb(70.588235%,70.588235%,70.588235%);fill-opacity:1;" d="M 138.480469 165.980469 L 120.46875 183.988281 L 95.011719 189.648438 L 113.28125 171.378906 Z M 138.480469 165.980469 "/>
<path style=" stroke:none;fill-rule:evenodd;fill:rgb(70.588235%,70.588235%,70.588235%);fill-opacity:1;" d="M 152.851562 162.898438 L 165.851562 166.898438 L 141.640625 191.109375 L 134.988281 180.761719 L 131.390625 181.558594 L 149.289062 163.660156 Z M 152.851562 162.898438 "/>
</g>
</defs>
<g id="surface2">
<rect x="0" y="0" width="400" height="300" style="fill:rgb(100%,100%,100%);fill-opacity:1;stroke:none;"/>
<use xlink:href="#surface6"/>
</g>
</svg>
