<?xml version="1.0" encoding="UTF-8"?>
<svg xmlns="http://www.w3.org/2000/svg" xmlns:xlink="http://www.w3.org/1999/xlink" width="300pt" height="300pt" viewBox="0 0 300 300" version="1.1">
<g id="surface0">
<rect x="0" y="0" width="300" height="300" style="fill:rgb(64.705882%,74.901961%,86.666667%);fill-opacity:1;stroke:none;"/>
<path style=" stroke:none;fill-rule:evenodd;fill:rgb(53.333333%,53.333333%,53.333333%);fill-opacity:1;" d="M 0 299 L 99.667969 299 L 99.667969 199.332031 L 0 199.332031 L 0 299 Z M 0 299 "/>
<path style="fill:none;stroke-width:1;stroke-linecap:round;stroke-linejoin:round;stroke:rgb(0%,0%,0%);stroke-opacity:1;stroke-miterlimit:10;" d="M 0 299 L 99.667969 299 L 99.667969 199.332031 L 0 199.332031 L 0 299 "/>
<path style=" stroke:none;fill-rule:evenodd;fill:rgb(53.333333%,53.333333%,53.333333%);fill-opacity:1;" d="M 99.667969 299 L 199.332031 299 L 199.332031 199.332031 L 99.667969 199.332031 L 99.667969 299 Z M 99.667969 299 "/>
<path style="fill:none;stroke-width:1;stroke-linecap:round;stroke-linejoin:round;stroke:rgb(0%,0%,0%);stroke-opacity:1;stroke-miterlimit:10;" d="M 99.667969 299 L 199.332031 299 L 199.332031 199.332031 L 99.667969 199.332031 L 99.667969 299 "/>
<path style=" stroke:none;fill-rule:evenodd;fill:rgb(53.333333%,53.333333%,53.333333%);fill-opacity:1;" d="M 199.332031 299 L 299 299 L 299 199.332031 L 199.332031 199.332031 L 199.332031 299 Z M 199.332031 299 "/>
<path style="fill:none;stroke-width:1;stroke-linecap:round;stroke-linejoin:round;stroke:rgb(0%,0%,0%);stroke-opacity:1;stroke-miterlimit:10;" d="M 199.332031 299 L 299 299 L 299 199.332031 L 199.332031 199.332031 L 199.332031 299 "/>
<path style=" stroke:none;fill-rule:evenodd;fill:rgb(53.333333%,53.333333%,53.333333%);fill-opacity:1;" d="M 0 199.332031 L 99.667969 199.332031 L 99.667969 99.667969 L 0 99.667969 L 0 199.332031 Z M 0 199.332031 "/>
<path style="fill:none;stroke-width:1;stroke-linecap:round;stroke-linejoin:round;stroke:rgb(0%,0%,0%);stroke-opacity:1;stroke-miterlimit:10;" d="M 0 199.332031 L 99.667969 199.332031 L 99.667969 99.667969 L 0 99.667969 L 0 199.332031 "/>
<path style=" stroke:none;fill-rule:evenodd;fill:rgb(53.333333%,53.333333%,53.333333%);fill-opacity:1;" d="M 99.667969 199.332031 L 199.332031 199.332031 L 199.332031 99.667969 L 99.667969 99.667969 L 99.667969 199.332031 Z M 99.667969 199.332031 "/>
<path style="fill:none;stroke-width:1;stroke-linecap:round;stroke-linejoin:round;stroke:rgb(0%,0%,0%);stroke-opacity:1;stroke-miterlimit:10;" d="M 99.667969 199.332031 L 199.332031 199.332031 L 199.332031 99.667969 L 99.667969 99.667969 L 99.667969 199.332031 "/>
<path style=" stroke:none;fill-rule:evenodd;fill:rgb(53.333333%,53.333333%,53.333333%);fill-opacity:1;" d="M 199.332031 199.332031 L 299 199.332031 L 299 99.667969 L 199.332031 99.667969 L 199.332031 199.332031 Z M 199.332031 199.332031 "/>
<path style="fill:none;stroke-width:1;stroke-linecap:round;stroke-linejoin:round;stroke:rgb(0%,0%,0%);stroke-opacity:1;stroke-miterlimit:10;" d="M 199.332031 199.332031 L 299 199.332031 L 299 99.667969 L 199.332031 99.667969 L 199.332031 199.332031 "/>
<path style=" stroke:none;fill-rule:evenodd;fill:rgb(53.333333%,53.333333%,53.333333%);fill-opacity:1;" d="M 0 99.667969 L 99.667969 99.667969 L 99.667969 0 L 0 0 L 0 99.667969 Z M 0 99.667969 "/>
<path style="fill:none;stroke-width:1;stroke-linecap:round;stroke-linejoin:round;stroke:rgb(0%,0%,0%);stroke-opacity:1;stroke-miterlimit:10;" d="M 0 99.667969 L 99.667969 99.667969 L 99.667969 0 L 0 0 L 0 99.667969 "/>
<path style=" stroke:none;fill-rule:evenodd;fill:rgb(53.333333%,53.333333%,53.333333%);fill-opacity:1;" d="M 99.667969 99.667969 L 199.332031 99.667969 L 199.332031 0 L 99.667969 0 L 99.667969 99.667969 Z M 99.667969 99.667969 "/>
<path style="fill:none;stroke-width:1;stroke-linecap:round;stroke-linejoin:round;stroke:rgb(0%,0%,0%);stroke-opacity:1;stroke-miterlimit:10;" d="M 99.667969 99.667969 L 199.332031 99.667969 L 199.332031 0 L 99.667969 0 L 99.667969 99.667969 "/>
<path style=" stroke:none;fill-rule:evenodd;fill:rgb(53.333333%,53.333333%,53.333333%);fill-opacity:1;" d="M 199.332031 99.667969 L 299 99.667969 L 299 0 L 199.332031 0 L 199.332031 99.667969 Z M 199.332031 99.667969 "/>
<path style="fill:none;stroke-width:1;stroke-linecap:round;stroke-linejoin:round;stroke:rgb(0%,0%,0%);stroke-opacity:1;stroke-miterlimit:10;" d="M 199.332031 99.667969 L 299 99.667969 L 299 0 L 199.332031 0 L 199.332031 99.667969 "/>
<path style=" stroke:none;fill-rule:evenodd;fill:rgb(100%,0%,0%);fill-opacity:1;" d="M 254.167969 49.832031 C 254.167969 56.5 244.167969 56.5 244.167969 49.832031 C 244.167969 43.167969 254.167969 43.167969 254.167969 49.832031 "/>
<path style=" stroke:none;fill-rule:evenodd;fill:rgb(0%,0%,0%);fill-opacity:1;" d="M 254.078125 36.609375 L 254.078125 36.28125 L 257.125 36.28125 L 257.125 36.609375 L 257.03125 36.609375 L 256.671875 36.640625 C 256.503906 36.652344 256.390625 36.671875 256.328125 36.703125 C 256.273438 36.734375 256.242188 36.792969 256.234375 36.875 C 256.179688 37.105469 256.15625 37.359375 256.15625 37.640625 L 256.15625 40.9375 C 256.15625 41.742188 256.175781 42.261719 256.21875 42.5 C 256.257812 42.742188 256.363281 42.96875 256.53125 43.1875 C 256.863281 43.625 257.367188 43.84375 258.046875 43.84375 C 258.671875 43.84375 259.175781 43.65625 259.5625 43.28125 C 259.769531 43.0625 259.90625 42.824219 259.96875 42.5625 C 260.03125 42.304688 260.0625 41.839844 260.0625 41.171875 L 260.0625 37.640625 L 260.03125 37.125 C 260.019531 36.929688 259.984375 36.804688 259.921875 36.75 C 259.867188 36.6875 259.742188 36.652344 259.546875 36.640625 L 259.1875 36.609375 L 259.09375 36.609375 L 259.09375 36.28125 L 261.578125 36.28125 L 261.578125 36.609375 L 261.46875 36.609375 L 261.125 36.640625 C 260.957031 36.652344 260.84375 36.671875 260.78125 36.703125 C 260.726562 36.734375 260.691406 36.792969 260.671875 36.875 C 260.628906 37.09375 260.609375 37.351562 260.609375 37.640625 L 260.609375 40.875 C 260.609375 41.585938 260.566406 42.105469 260.484375 42.4375 C 260.410156 42.773438 260.253906 43.085938 260.015625 43.375 C 259.554688 43.917969 258.847656 44.1875 257.890625 44.1875 C 257.066406 44.1875 256.410156 43.992188 255.921875 43.59375 C 255.609375 43.335938 255.382812 43.011719 255.25 42.625 C 255.113281 42.242188 255.046875 41.734375 255.046875 41.109375 L 255.046875 37.640625 L 255.015625 37.125 C 255.003906 36.929688 254.96875 36.804688 254.90625 36.75 C 254.851562 36.6875 254.726562 36.652344 254.53125 36.640625 L 254.1875 36.609375 L 254.078125 36.609375 Z M 263.9375 40.609375 L 263.9375 42.65625 L 263.96875 43.171875 C 263.96875 43.382812 264.003906 43.511719 264.078125 43.5625 C 264.148438 43.617188 264.351562 43.652344 264.6875 43.671875 L 264.78125 43.671875 L 264.78125 44 L 261.890625 44 L 261.890625 43.671875 L 262 43.671875 L 262.34375 43.640625 C 262.539062 43.632812 262.664062 43.601562 262.71875 43.546875 C 262.78125 43.496094 262.816406 43.371094 262.828125 43.171875 L 262.859375 42.65625 L 262.859375 37.640625 L 262.828125 37.125 C 262.816406 36.929688 262.78125 36.804688 262.71875 36.75 C 262.664062 36.6875 262.539062 36.652344 262.34375 36.640625 L 262 36.609375 L 261.890625 36.609375 L 261.890625 36.28125 L 263.75 36.28125 L 264.265625 36.28125 L 264.6875 36.265625 L 265.109375 36.25 C 265.890625 36.25 266.484375 36.417969 266.890625 36.75 C 267.296875 37.085938 267.5 37.570312 267.5 38.203125 C 267.5 38.726562 267.359375 39.171875 267.078125 39.546875 C 266.804688 39.921875 266.414062 40.199219 265.90625 40.375 L 267.421875 42.640625 L 267.90625 43.3125 C 268.007812 43.460938 268.09375 43.554688 268.15625 43.59375 C 268.226562 43.636719 268.332031 43.65625 268.46875 43.65625 C 268.507812 43.65625 268.625 43.664062 268.8125 43.671875 L 268.921875 43.671875 L 268.921875 44 L 266.953125 44 L 264.84375 40.609375 L 263.9375 40.609375 Z M 263.953125 40.25 L 264.34375 40.25 C 264.789062 40.25 265.144531 40.199219 265.40625 40.09375 C 265.675781 39.992188 265.894531 39.808594 266.0625 39.546875 C 266.269531 39.234375 266.375 38.824219 266.375 38.3125 C 266.375 37.804688 266.273438 37.40625 266.078125 37.125 C 265.953125 36.9375 265.785156 36.8125 265.578125 36.75 C 265.367188 36.679688 265.070312 36.640625 264.6875 36.640625 L 263.953125 36.640625 L 263.953125 40.25 Z M 263.953125 40.25 "/>
<path style=" stroke:none;fill-rule:evenodd;fill:rgb(100%,0%,0%);fill-opacity:1;" d="M 154.5 49.832031 C 154.5 56.5 144.5 56.5 144.5 49.832031 C 144.5 43.167969 154.5 43.167969 154.5 49.832031 "/>
<path style=" stroke:none;fill-rule:evenodd;fill:rgb(0%,0%,0%);fill-opacity:1;" d="M 142.078125 34.609375 L 142.078125 34.28125 L 145.125 34.28125 L 145.125 34.609375 L 145.03125 34.609375 L 144.671875 34.640625 C 144.503906 34.652344 144.390625 34.671875 144.328125 34.703125 C 144.273438 34.734375 144.242188 34.792969 144.234375 34.875 C 144.179688 35.105469 144.15625 35.359375 144.15625 35.640625 L 144.15625 38.9375 C 144.15625 39.742188 144.175781 40.261719 144.21875 40.5 C 144.257812 40.742188 144.363281 40.96875 144.53125 41.1875 C 144.863281 41.625 145.367188 41.84375 146.046875 41.84375 C 146.671875 41.84375 147.175781 41.65625 147.5625 41.28125 C 147.769531 41.0625 147.90625 40.824219 147.96875 40.5625 C 148.03125 40.304688 148.0625 39.839844 148.0625 39.171875 L 148.0625 35.640625 L 148.03125 35.125 C 148.019531 34.929688 147.984375 34.804688 147.921875 34.75 C 147.867188 34.6875 147.742188 34.652344 147.546875 34.640625 L 147.1875 34.609375 L 147.09375 34.609375 L 147.09375 34.28125 L 149.578125 34.28125 L 149.578125 34.609375 L 149.46875 34.609375 L 149.125 34.640625 C 148.957031 34.652344 148.84375 34.671875 148.78125 34.703125 C 148.726562 34.734375 148.691406 34.792969 148.671875 34.875 C 148.628906 35.09375 148.609375 35.351562 148.609375 35.640625 L 148.609375 38.875 C 148.609375 39.585938 148.566406 40.105469 148.484375 40.4375 C 148.410156 40.773438 148.253906 41.085938 148.015625 41.375 C 147.554688 41.917969 146.847656 42.1875 145.890625 42.1875 C 145.066406 42.1875 144.410156 41.992188 143.921875 41.59375 C 143.609375 41.335938 143.382812 41.011719 143.25 40.625 C 143.113281 40.242188 143.046875 39.734375 143.046875 39.109375 L 143.046875 35.640625 L 143.015625 35.125 C 143.003906 34.929688 142.96875 34.804688 142.90625 34.75 C 142.851562 34.6875 142.726562 34.652344 142.53125 34.640625 L 142.1875 34.609375 L 142.078125 34.609375 Z M 156.484375 41.59375 C 155.785156 41.992188 154.96875 42.1875 154.03125 42.1875 C 152.851562 42.1875 151.921875 41.828125 151.234375 41.109375 C 150.554688 40.382812 150.21875 39.386719 150.21875 38.125 C 150.21875 36.710938 150.628906 35.632812 151.453125 34.890625 C 152.054688 34.359375 152.894531 34.09375 153.96875 34.09375 C 154.5625 34.09375 155.289062 34.203125 156.15625 34.421875 L 156.34375 34.484375 L 156.34375 35.953125 L 155.703125 35.953125 L 155.703125 35.84375 C 155.691406 35.742188 155.6875 35.640625 155.6875 35.546875 C 155.6875 35.257812 155.613281 35.046875 155.46875 34.921875 C 155.300781 34.789062 155.070312 34.671875 154.78125 34.578125 C 154.488281 34.484375 154.203125 34.4375 153.921875 34.4375 C 153.140625 34.4375 152.515625 34.773438 152.046875 35.4375 C 151.585938 36.105469 151.359375 37 151.359375 38.125 C 151.359375 39.242188 151.628906 40.109375 152.171875 40.734375 C 152.710938 41.359375 153.472656 41.671875 154.453125 41.671875 C 155.085938 41.671875 155.765625 41.480469 156.484375 41.09375 L 156.484375 41.59375 Z M 156.484375 41.59375 "/>
<path style=" stroke:none;fill-rule:evenodd;fill:rgb(100%,0%,0%);fill-opacity:1;" d="M 54.832031 49.832031 C 54.832031 56.5 44.832031 56.5 44.832031 49.832031 C 44.832031 43.167969 54.832031 43.167969 54.832031 49.832031 "/>
<path style=" stroke:none;fill-rule:evenodd;fill:rgb(0%,0%,0%);fill-opacity:1;" d="M 31.078125 36.609375 L 31.078125 36.28125 L 34.125 36.28125 L 34.125 36.609375 L 34.03125 36.609375 L 33.671875 36.640625 C 33.503906 36.652344 33.390625 36.671875 33.328125 36.703125 C 33.273438 36.734375 33.242188 36.792969 33.234375 36.875 C 33.179688 37.105469 33.15625 37.359375 33.15625 37.640625 L 33.15625 40.9375 C 33.15625 41.742188 33.175781 42.261719 33.21875 42.5 C 33.257812 42.742188 33.363281 42.96875 33.53125 43.1875 C 33.863281 43.625 34.367188 43.84375 35.046875 43.84375 C 35.671875 43.84375 36.175781 43.65625 36.5625 43.28125 C 36.769531 43.0625 36.90625 42.824219 36.96875 42.5625 C 37.03125 42.304688 37.0625 41.839844 37.0625 41.171875 L 37.0625 37.640625 L 37.03125 37.125 C 37.019531 36.929688 36.984375 36.804688 36.921875 36.75 C 36.867188 36.6875 36.742188 36.652344 36.546875 36.640625 L 36.1875 36.609375 L 36.09375 36.609375 L 36.09375 36.28125 L 38.578125 36.28125 L 38.578125 36.609375 L 38.46875 36.609375 L 38.125 36.640625 C 37.957031 36.652344 37.84375 36.671875 37.78125 36.703125 C 37.726562 36.734375 37.691406 36.792969 37.671875 36.875 C 37.628906 37.09375 37.609375 37.351562 37.609375 37.640625 L 37.609375 40.875 C 37.609375 41.585938 37.566406 42.105469 37.484375 42.4375 C 37.410156 42.773438 37.253906 43.085938 37.015625 43.375 C 36.554688 43.917969 35.847656 44.1875 34.890625 44.1875 C 34.066406 44.1875 33.410156 43.992188 32.921875 43.59375 C 32.609375 43.335938 32.382812 43.011719 32.25 42.625 C 32.113281 42.242188 32.046875 41.734375 32.046875 41.109375 L 32.046875 37.640625 L 32.015625 37.125 C 32.003906 36.929688 31.96875 36.804688 31.90625 36.75 C 31.851562 36.6875 31.726562 36.652344 31.53125 36.640625 L 31.1875 36.609375 L 31.078125 36.609375 Z M 44.421875 44 L 38.890625 44 L 38.890625 43.671875 L 39 43.671875 L 39.34375 43.640625 C 39.539062 43.632812 39.664062 43.601562 39.71875 43.546875 C 39.78125 43.496094 39.816406 43.371094 39.828125 43.171875 L 39.859375 42.65625 L 39.859375 37.640625 L 39.828125 37.125 C 39.816406 36.929688 39.78125 36.804688 39.71875 36.75 C 39.664062 36.6875 39.539062 36.652344 39.34375 36.640625 L 39 36.609375 L 38.890625 36.609375 L 38.890625 36.28125 L 41.921875 36.28125 L 41.921875 36.609375 L 41.8125 36.609375 L 41.46875 36.640625 C 41.269531 36.652344 41.140625 36.6875 41.078125 36.75 C 41.023438 36.804688 40.992188 36.929688 40.984375 37.125 L 40.953125 37.640625 L 40.953125 42.65625 C 40.953125 43.117188 40.984375 43.382812 41.046875 43.453125 C 41.117188 43.515625 41.382812 43.546875 41.84375 43.546875 L 42.640625 43.546875 C 43.097656 43.546875 43.429688 43.515625 43.640625 43.453125 C 43.773438 43.414062 43.847656 43.292969 43.859375 43.09375 L 43.875 42.5625 L 43.875 42.453125 L 44.421875 42.453125 L 44.421875 44 Z M 44.421875 44 "/>
<path style=" stroke:none;fill-rule:evenodd;fill:rgb(100%,0%,0%);fill-opacity:1;" d="M 254.167969 149.5 C 254.167969 156.167969 244.167969 156.167969 244.167969 149.5 C 244.167969 142.832031 254.167969 142.832031 254.167969 149.5 "/>
<path style=" stroke:none;fill-rule:evenodd;fill:rgb(0%,0%,0%);fill-opacity:1;" d="M 262.8125 152.59375 C 262.113281 152.992188 261.296875 153.1875 260.359375 153.1875 C 259.179688 153.1875 258.25 152.828125 257.5625 152.109375 C 256.882812 151.382812 256.546875 150.386719 256.546875 149.125 C 256.546875 147.710938 256.957031 146.632812 257.78125 145.890625 C 258.382812 145.359375 259.222656 145.09375 260.296875 145.09375 C 260.890625 145.09375 261.617188 145.203125 262.484375 145.421875 L 262.671875 145.484375 L 262.671875 146.953125 L 262.03125 146.953125 L 262.03125 146.84375 C 262.019531 146.742188 262.015625 146.640625 262.015625 146.546875 C 262.015625 146.257812 261.941406 146.046875 261.796875 145.921875 C 261.628906 145.789062 261.398438 145.671875 261.109375 145.578125 C 260.816406 145.484375 260.53125 145.4375 260.25 145.4375 C 259.46875 145.4375 258.84375 145.773438 258.375 146.4375 C 257.914062 147.105469 257.6875 148 257.6875 149.125 C 257.6875 150.242188 257.957031 151.109375 258.5 151.734375 C 259.039062 152.359375 259.800781 152.671875 260.78125 152.671875 C 261.414062 152.671875 262.09375 152.480469 262.8125 152.09375 L 262.8125 152.59375 Z M 265.6875 149.609375 L 265.6875 151.65625 L 265.71875 152.171875 C 265.71875 152.382812 265.753906 152.511719 265.828125 152.5625 C 265.898438 152.617188 266.101562 152.652344 266.4375 152.671875 L 266.53125 152.671875 L 266.53125 153 L 263.640625 153 L 263.640625 152.671875 L 263.75 152.671875 L 264.09375 152.640625 C 264.289062 152.632812 264.414062 152.601562 264.46875 152.546875 C 264.53125 152.496094 264.566406 152.371094 264.578125 152.171875 L 264.609375 151.65625 L 264.609375 146.640625 L 264.578125 146.125 C 264.566406 145.929688 264.53125 145.804688 264.46875 145.75 C 264.414062 145.6875 264.289062 145.652344 264.09375 145.640625 L 263.75 145.609375 L 263.640625 145.609375 L 263.640625 145.28125 L 265.5 145.28125 L 266.015625 145.28125 L 266.4375 145.265625 L 266.859375 145.25 C 267.640625 145.25 268.234375 145.417969 268.640625 145.75 C 269.046875 146.085938 269.25 146.570312 269.25 147.203125 C 269.25 147.726562 269.109375 148.171875 268.828125 148.546875 C 268.554688 148.921875 268.164062 149.199219 267.65625 149.375 L 269.171875 151.640625 L 269.65625 152.3125 C 269.757812 152.460938 269.84375 152.554688 269.90625 152.59375 C 269.976562 152.636719 270.082031 152.65625 270.21875 152.65625 C 270.257812 152.65625 270.375 152.664062 270.5625 152.671875 L 270.671875 152.671875 L 270.671875 153 L 268.703125 153 L 266.59375 149.609375 L 265.6875 149.609375 Z M 265.703125 149.25 L 266.09375 149.25 C 266.539062 149.25 266.894531 149.199219 267.15625 149.09375 C 267.425781 148.992188 267.644531 148.808594 267.8125 148.546875 C 268.019531 148.234375 268.125 147.824219 268.125 147.3125 C 268.125 146.804688 268.023438 146.40625 267.828125 146.125 C 267.703125 145.9375 267.535156 145.8125 267.328125 145.75 C 267.117188 145.679688 266.820312 145.640625 266.4375 145.640625 L 265.703125 145.640625 L 265.703125 149.25 Z M 265.703125 149.25 "/>
<path style=" stroke:none;fill-rule:evenodd;fill:rgb(100%,0%,0%);fill-opacity:1;" d="M 154.5 149.5 C 154.5 156.167969 144.5 156.167969 144.5 149.5 C 144.5 142.832031 154.5 142.832031 154.5 149.5 "/>
<path style=" stroke:none;fill-rule:evenodd;fill:rgb(0%,0%,0%);fill-opacity:1;" d="M 135.953125 139.625 L 135.5 140.65625 C 135.4375 140.792969 135.398438 140.886719 135.390625 140.9375 L 135.28125 141.296875 C 135.257812 141.371094 135.25 141.429688 135.25 141.46875 C 135.25 141.605469 135.378906 141.671875 135.640625 141.671875 L 135.921875 141.671875 L 136 141.671875 L 136 142 L 134 142 L 134 141.671875 L 134.109375 141.671875 L 134.359375 141.65625 C 134.472656 141.65625 134.5625 141.625 134.625 141.5625 C 134.695312 141.492188 134.769531 141.371094 134.84375 141.203125 L 135.078125 140.65625 L 137.796875 134.1875 L 138.15625 134.1875 L 140.859375 140.6875 L 141.125 141.21875 C 141.21875 141.429688 141.296875 141.554688 141.359375 141.59375 C 141.429688 141.636719 141.585938 141.664062 141.828125 141.671875 L 141.9375 141.671875 L 141.9375 142 L 139.078125 142 L 139.078125 141.671875 L 139.171875 141.671875 L 139.5 141.671875 C 139.769531 141.671875 139.90625 141.605469 139.90625 141.46875 C 139.90625 141.261719 139.832031 140.992188 139.6875 140.65625 L 139.25 139.625 L 135.953125 139.625 Z M 136.125 139.203125 L 139.0625 139.203125 L 137.59375 135.6875 L 136.125 139.203125 Z M 142.019531 134.609375 L 142.019531 134.28125 L 145.066406 134.28125 L 145.066406 134.609375 L 144.972656 134.609375 L 144.613281 134.640625 C 144.445312 134.652344 144.332031 134.671875 144.269531 134.703125 C 144.214844 134.734375 144.183594 134.792969 144.175781 134.875 C 144.121094 135.105469 144.097656 135.359375 144.097656 135.640625 L 144.097656 138.9375 C 144.097656 139.742188 144.117188 140.261719 144.160156 140.5 C 144.199219 140.742188 144.304688 140.96875 144.472656 141.1875 C 144.804688 141.625 145.308594 141.84375 145.988281 141.84375 C 146.613281 141.84375 147.117188 141.65625 147.503906 141.28125 C 147.710938 141.0625 147.847656 140.824219 147.910156 140.5625 C 147.972656 140.304688 148.003906 139.839844 148.003906 139.171875 L 148.003906 135.640625 L 147.972656 135.125 C 147.960938 134.929688 147.925781 134.804688 147.863281 134.75 C 147.808594 134.6875 147.683594 134.652344 147.488281 134.640625 L 147.128906 134.609375 L 147.035156 134.609375 L 147.035156 134.28125 L 149.519531 134.28125 L 149.519531 134.609375 L 149.410156 134.609375 L 149.066406 134.640625 C 148.898438 134.652344 148.785156 134.671875 148.722656 134.703125 C 148.667969 134.734375 148.632812 134.792969 148.613281 134.875 C 148.570312 135.09375 148.550781 135.351562 148.550781 135.640625 L 148.550781 138.875 C 148.550781 139.585938 148.507812 140.105469 148.425781 140.4375 C 148.351562 140.773438 148.195312 141.085938 147.957031 141.375 C 147.496094 141.917969 146.789062 142.1875 145.832031 142.1875 C 145.007812 142.1875 144.351562 141.992188 143.863281 141.59375 C 143.550781 141.335938 143.324219 141.011719 143.191406 140.625 C 143.054688 140.242188 142.988281 139.734375 142.988281 139.109375 L 142.988281 135.640625 L 142.957031 135.125 C 142.945312 134.929688 142.910156 134.804688 142.847656 134.75 C 142.792969 134.6875 142.667969 134.652344 142.472656 134.640625 L 142.128906 134.609375 L 142.019531 134.609375 Z M 152.597656 134.703125 L 151.363281 134.703125 L 150.832031 134.734375 C 150.644531 134.734375 150.523438 134.761719 150.472656 134.8125 C 150.417969 134.855469 150.394531 134.964844 150.394531 135.140625 C 150.394531 135.320312 150.394531 135.46875 150.394531 135.59375 L 150.378906 135.703125 L 149.832031 135.703125 L 149.832031 134.28125 L 156.457031 134.28125 L 156.457031 135.703125 L 155.910156 135.703125 L 155.910156 135.59375 C 155.898438 135.46875 155.894531 135.320312 155.894531 135.140625 C 155.894531 134.964844 155.867188 134.855469 155.816406 134.8125 C 155.761719 134.761719 155.648438 134.734375 155.472656 134.734375 L 154.925781 134.703125 L 153.691406 134.703125 L 153.691406 140.65625 L 153.722656 141.171875 C 153.730469 141.371094 153.761719 141.496094 153.816406 141.546875 C 153.878906 141.601562 154.007812 141.632812 154.207031 141.640625 L 154.566406 141.671875 L 154.785156 141.671875 L 154.785156 142 L 151.503906 142 L 151.503906 141.671875 L 151.738281 141.671875 L 152.082031 141.640625 C 152.277344 141.632812 152.402344 141.601562 152.457031 141.546875 C 152.519531 141.496094 152.554688 141.371094 152.566406 141.171875 L 152.597656 140.65625 L 152.597656 134.703125 Z M 160.777344 142.1875 C 159.816406 142.1875 159.015625 141.882812 158.371094 141.265625 C 157.609375 140.546875 157.230469 139.507812 157.230469 138.140625 C 157.230469 136.890625 157.546875 135.90625 158.183594 135.1875 C 158.828125 134.460938 159.707031 134.09375 160.824219 134.09375 C 161.9375 134.09375 162.816406 134.453125 163.464844 135.171875 C 164.109375 135.890625 164.433594 136.875 164.433594 138.125 C 164.433594 139.398438 164.109375 140.390625 163.464844 141.109375 C 162.816406 141.828125 161.921875 142.1875 160.777344 142.1875 Z M 160.792969 141.84375 C 161.574219 141.84375 162.183594 141.523438 162.621094 140.875 C 163.058594 140.21875 163.277344 139.304688 163.277344 138.125 C 163.277344 136.980469 163.058594 136.078125 162.621094 135.421875 C 162.183594 134.765625 161.582031 134.4375 160.824219 134.4375 C 160.0625 134.4375 159.464844 134.765625 159.027344 135.421875 C 158.597656 136.078125 158.386719 136.984375 158.386719 138.140625 C 158.386719 139.289062 158.597656 140.195312 159.027344 140.859375 C 159.453125 141.515625 160.042969 141.84375 160.792969 141.84375 Z M 160.792969 141.84375 "/>
<path style=" stroke:none;fill-rule:evenodd;fill:rgb(100%,0%,0%);fill-opacity:1;" d="M 54.832031 149.5 C 54.832031 156.167969 44.832031 156.167969 44.832031 149.5 C 44.832031 142.832031 54.832031 142.832031 54.832031 149.5 "/>
<path style=" stroke:none;fill-rule:evenodd;fill:rgb(0%,0%,0%);fill-opacity:1;" d="M 36.8125 152.59375 C 36.113281 152.992188 35.296875 153.1875 34.359375 153.1875 C 33.179688 153.1875 32.25 152.828125 31.5625 152.109375 C 30.882812 151.382812 30.546875 150.386719 30.546875 149.125 C 30.546875 147.710938 30.957031 146.632812 31.78125 145.890625 C 32.382812 145.359375 33.222656 145.09375 34.296875 145.09375 C 34.890625 145.09375 35.617188 145.203125 36.484375 145.421875 L 36.671875 145.484375 L 36.671875 146.953125 L 36.03125 146.953125 L 36.03125 146.84375 C 36.019531 146.742188 36.015625 146.640625 36.015625 146.546875 C 36.015625 146.257812 35.941406 146.046875 35.796875 145.921875 C 35.628906 145.789062 35.398438 145.671875 35.109375 145.578125 C 34.816406 145.484375 34.53125 145.4375 34.25 145.4375 C 33.46875 145.4375 32.84375 145.773438 32.375 146.4375 C 31.914062 147.105469 31.6875 148 31.6875 149.125 C 31.6875 150.242188 31.957031 151.109375 32.5 151.734375 C 33.039062 152.359375 33.800781 152.671875 34.78125 152.671875 C 35.414062 152.671875 36.09375 152.480469 36.8125 152.09375 L 36.8125 152.59375 Z M 43.171875 153 L 37.640625 153 L 37.640625 152.671875 L 37.75 152.671875 L 38.09375 152.640625 C 38.289062 152.632812 38.414062 152.601562 38.46875 152.546875 C 38.53125 152.496094 38.566406 152.371094 38.578125 152.171875 L 38.609375 151.65625 L 38.609375 146.640625 L 38.578125 146.125 C 38.566406 145.929688 38.53125 145.804688 38.46875 145.75 C 38.414062 145.6875 38.289062 145.652344 38.09375 145.640625 L 37.75 145.609375 L 37.640625 145.609375 L 37.640625 145.28125 L 40.671875 145.28125 L 40.671875 145.609375 L 40.5625 145.609375 L 40.21875 145.640625 C 40.019531 145.652344 39.890625 145.6875 39.828125 145.75 C 39.773438 145.804688 39.742188 145.929688 39.734375 146.125 L 39.703125 146.640625 L 39.703125 151.65625 C 39.703125 152.117188 39.734375 152.382812 39.796875 152.453125 C 39.867188 152.515625 40.132812 152.546875 40.59375 152.546875 L 41.390625 152.546875 C 41.847656 152.546875 42.179688 152.515625 42.390625 152.453125 C 42.523438 152.414062 42.597656 152.292969 42.609375 152.09375 L 42.625 151.5625 L 42.625 151.453125 L 43.171875 151.453125 L 43.171875 153 Z M 43.171875 153 "/>
<path style=" stroke:none;fill-rule:evenodd;fill:rgb(100%,0%,0%);fill-opacity:1;" d="M 254.167969 249.167969 C 254.167969 255.832031 244.167969 255.832031 244.167969 249.167969 C 244.167969 242.5 254.167969 242.5 254.167969 249.167969 "/>
<path style=" stroke:none;fill-rule:evenodd;fill:rgb(0%,0%,0%);fill-opacity:1;" d="M 259.75 262 L 254.21875 262 L 254.21875 261.671875 L 254.328125 261.671875 L 254.671875 261.640625 C 254.867188 261.632812 254.992188 261.601562 255.046875 261.546875 C 255.109375 261.496094 255.144531 261.371094 255.15625 261.171875 L 255.1875 260.65625 L 255.1875 255.640625 L 255.15625 255.125 C 255.144531 254.929688 255.109375 254.804688 255.046875 254.75 C 254.992188 254.6875 254.867188 254.652344 254.671875 254.640625 L 254.328125 254.609375 L 254.21875 254.609375 L 254.21875 254.28125 L 257.25 254.28125 L 257.25 254.609375 L 257.140625 254.609375 L 256.796875 254.640625 C 256.597656 254.652344 256.46875 254.6875 256.40625 254.75 C 256.351562 254.804688 256.320312 254.929688 256.3125 255.125 L 256.28125 255.640625 L 256.28125 260.65625 C 256.28125 261.117188 256.3125 261.382812 256.375 261.453125 C 256.445312 261.515625 256.710938 261.546875 257.171875 261.546875 L 257.96875 261.546875 C 258.425781 261.546875 258.757812 261.515625 258.96875 261.453125 C 259.101562 261.414062 259.175781 261.292969 259.1875 261.09375 L 259.203125 260.5625 L 259.203125 260.453125 L 259.75 260.453125 L 259.75 262 Z M 262.210938 258.609375 L 262.210938 260.65625 L 262.242188 261.171875 C 262.242188 261.382812 262.277344 261.511719 262.351562 261.5625 C 262.421875 261.617188 262.625 261.652344 262.960938 261.671875 L 263.054688 261.671875 L 263.054688 262 L 260.164062 262 L 260.164062 261.671875 L 260.273438 261.671875 L 260.617188 261.640625 C 260.8125 261.632812 260.9375 261.601562 260.992188 261.546875 C 261.054688 261.496094 261.089844 261.371094 261.101562 261.171875 L 261.132812 260.65625 L 261.132812 255.640625 L 261.101562 255.125 C 261.089844 254.929688 261.054688 254.804688 260.992188 254.75 C 260.9375 254.6875 260.8125 254.652344 260.617188 254.640625 L 260.273438 254.609375 L 260.164062 254.609375 L 260.164062 254.28125 L 262.023438 254.28125 L 262.539062 254.28125 L 262.960938 254.265625 L 263.382812 254.25 C 264.164062 254.25 264.757812 254.417969 265.164062 254.75 C 265.570312 255.085938 265.773438 255.570312 265.773438 256.203125 C 265.773438 256.726562 265.632812 257.171875 265.351562 257.546875 C 265.078125 257.921875 264.6875 258.199219 264.179688 258.375 L 265.695312 260.640625 L 266.179688 261.3125 C 266.28125 261.460938 266.367188 261.554688 266.429688 261.59375 C 266.5 261.636719 266.605469 261.65625 266.742188 261.65625 C 266.78125 261.65625 266.898438 261.664062 267.085938 261.671875 L 267.195312 261.671875 L 267.195312 262 L 265.226562 262 L 263.117188 258.609375 L 262.210938 258.609375 Z M 262.226562 258.25 L 262.617188 258.25 C 263.0625 258.25 263.417969 258.199219 263.679688 258.09375 C 263.949219 257.992188 264.167969 257.808594 264.335938 257.546875 C 264.542969 257.234375 264.648438 256.824219 264.648438 256.3125 C 264.648438 255.804688 264.546875 255.40625 264.351562 255.125 C 264.226562 254.9375 264.058594 254.8125 263.851562 254.75 C 263.640625 254.679688 263.34375 254.640625 262.960938 254.640625 L 262.226562 254.640625 L 262.226562 258.25 Z M 262.226562 258.25 "/>
<path style=" stroke:none;fill-rule:evenodd;fill:rgb(100%,0%,0%);fill-opacity:1;" d="M 154.5 249.167969 C 154.5 255.832031 144.5 255.832031 144.5 249.167969 C 144.5 242.5 154.5 242.5 154.5 249.167969 "/>
<path style=" stroke:none;fill-rule:evenodd;fill:rgb(0%,0%,0%);fill-opacity:1;" d="M 148.75 264 L 143.21875 264 L 143.21875 263.671875 L 143.328125 263.671875 L 143.671875 263.640625 C 143.867188 263.632812 143.992188 263.601562 144.046875 263.546875 C 144.109375 263.496094 144.144531 263.371094 144.15625 263.171875 L 144.1875 262.65625 L 144.1875 257.640625 L 144.15625 257.125 C 144.144531 256.929688 144.109375 256.804688 144.046875 256.75 C 143.992188 256.6875 143.867188 256.652344 143.671875 256.640625 L 143.328125 256.609375 L 143.21875 256.609375 L 143.21875 256.28125 L 146.25 256.28125 L 146.25 256.609375 L 146.140625 256.609375 L 145.796875 256.640625 C 145.597656 256.652344 145.46875 256.6875 145.40625 256.75 C 145.351562 256.804688 145.320312 256.929688 145.3125 257.125 L 145.28125 257.640625 L 145.28125 262.65625 C 145.28125 263.117188 145.3125 263.382812 145.375 263.453125 C 145.445312 263.515625 145.710938 263.546875 146.171875 263.546875 L 146.96875 263.546875 C 147.425781 263.546875 147.757812 263.515625 147.96875 263.453125 C 148.101562 263.414062 148.175781 263.292969 148.1875 263.09375 L 148.203125 262.5625 L 148.203125 262.453125 L 148.75 262.453125 L 148.75 264 Z M 155.757812 263.59375 C 155.058594 263.992188 154.242188 264.1875 153.304688 264.1875 C 152.125 264.1875 151.195312 263.828125 150.507812 263.109375 C 149.828125 262.382812 149.492188 261.386719 149.492188 260.125 C 149.492188 258.710938 149.902344 257.632812 150.726562 256.890625 C 151.328125 256.359375 152.167969 256.09375 153.242188 256.09375 C 153.835938 256.09375 154.5625 256.203125 155.429688 256.421875 L 155.617188 256.484375 L 155.617188 257.953125 L 154.976562 257.953125 L 154.976562 257.84375 C 154.964844 257.742188 154.960938 257.640625 154.960938 257.546875 C 154.960938 257.257812 154.886719 257.046875 154.742188 256.921875 C 154.574219 256.789062 154.34375 256.671875 154.054688 256.578125 C 153.761719 256.484375 153.476562 256.4375 153.195312 256.4375 C 152.414062 256.4375 151.789062 256.773438 151.320312 257.4375 C 150.859375 258.105469 150.632812 259 150.632812 260.125 C 150.632812 261.242188 150.902344 262.109375 151.445312 262.734375 C 151.984375 263.359375 152.746094 263.671875 153.726562 263.671875 C 154.359375 263.671875 155.039062 263.480469 155.757812 263.09375 L 155.757812 263.59375 Z M 155.757812 263.59375 "/>
<path style=" stroke:none;fill-rule:evenodd;fill:rgb(100%,0%,0%);fill-opacity:1;" d="M 54.832031 249.167969 C 54.832031 255.832031 44.832031 255.832031 44.832031 249.167969 C 44.832031 242.5 54.832031 242.5 54.832031 249.167969 "/>
<path style=" stroke:none;fill-rule:evenodd;fill:rgb(0%,0%,0%);fill-opacity:1;" d="M 38.75 262 L 33.21875 262 L 33.21875 261.671875 L 33.328125 261.671875 L 33.671875 261.640625 C 33.867188 261.632812 33.992188 261.601562 34.046875 261.546875 C 34.109375 261.496094 34.144531 261.371094 34.15625 261.171875 L 34.1875 260.65625 L 34.1875 255.640625 L 34.15625 255.125 C 34.144531 254.929688 34.109375 254.804688 34.046875 254.75 C 33.992188 254.6875 33.867188 254.652344 33.671875 254.640625 L 33.328125 254.609375 L 33.21875 254.609375 L 33.21875 254.28125 L 36.25 254.28125 L 36.25 254.609375 L 36.140625 254.609375 L 35.796875 254.640625 C 35.597656 254.652344 35.46875 254.6875 35.40625 254.75 C 35.351562 254.804688 35.320312 254.929688 35.3125 255.125 L 35.28125 255.640625 L 35.28125 260.65625 C 35.28125 261.117188 35.3125 261.382812 35.375 261.453125 C 35.445312 261.515625 35.710938 261.546875 36.171875 261.546875 L 36.96875 261.546875 C 37.425781 261.546875 37.757812 261.515625 37.96875 261.453125 C 38.101562 261.414062 38.175781 261.292969 38.1875 261.09375 L 38.203125 260.5625 L 38.203125 260.453125 L 38.75 260.453125 L 38.75 262 Z M 44.695312 262 L 39.164062 262 L 39.164062 261.671875 L 39.273438 261.671875 L 39.617188 261.640625 C 39.8125 261.632812 39.9375 261.601562 39.992188 261.546875 C 40.054688 261.496094 40.089844 261.371094 40.101562 261.171875 L 40.132812 260.65625 L 40.132812 255.640625 L 40.101562 255.125 C 40.089844 254.929688 40.054688 254.804688 39.992188 254.75 C 39.9375 254.6875 39.8125 254.652344 39.617188 254.640625 L 39.273438 254.609375 L 39.164062 254.609375 L 39.164062 254.28125 L 42.195312 254.28125 L 42.195312 254.609375 L 42.085938 254.609375 L 41.742188 254.640625 C 41.542969 254.652344 41.414062 254.6875 41.351562 254.75 C 41.296875 254.804688 41.265625 254.929688 41.257812 255.125 L 41.226562 255.640625 L 41.226562 260.65625 C 41.226562 261.117188 41.257812 261.382812 41.320312 261.453125 C 41.390625 261.515625 41.65625 261.546875 42.117188 261.546875 L 42.914062 261.546875 C 43.371094 261.546875 43.703125 261.515625 43.914062 261.453125 C 44.046875 261.414062 44.121094 261.292969 44.132812 261.09375 L 44.148438 260.5625 L 44.148438 260.453125 L 44.695312 260.453125 L 44.695312 262 Z M 44.695312 262 "/>
</g>
</svg>
