<?xml version="1.0" encoding="UTF-8"?>
<svg xmlns="http://www.w3.org/2000/svg" xmlns:xlink="http://www.w3.org/1999/xlink" width="150pt" height="150pt" viewBox="0 0 150 150" version="1.1">
<g id="surface2">
<rect x="0" y="0" width="150" height="150" style="fill:rgb(64.705882%,74.901961%,86.666667%);fill-opacity:1;stroke:none;"/>
<path style=" stroke:none;fill-rule:evenodd;fill:rgb(53.333333%,53.333333%,53.333333%);fill-opacity:1;" d="M 0 149 L 49.667969 149 L 49.667969 99.332031 L 0 99.332031 Z M 0 149 "/>
<path style="fill:none;stroke-width:1;stroke-linecap:round;stroke-linejoin:round;stroke:rgb(0%,0%,0%);stroke-opacity:1;stroke-miterlimit:10;" d="M 0 149 L 49.667969 149 L 49.667969 99.332031 L 0 99.332031 L 0 149 "/>
<path style=" stroke:none;fill-rule:evenodd;fill:rgb(53.333333%,53.333333%,53.333333%);fill-opacity:1;" d="M 49.667969 149 L 99.332031 149 L 99.332031 99.332031 L 49.667969 99.332031 Z M 49.667969 149 "/>
<path style="fill:none;stroke-width:1;stroke-linecap:round;stroke-linejoin:round;stroke:rgb(0%,0%,0%);stroke-opacity:1;stroke-miterlimit:10;" d="M 49.667969 149 L 99.332031 149 L 99.332031 99.332031 L 49.667969 99.332031 L 49.667969 149 "/>
<path style=" stroke:none;fill-rule:evenodd;fill:rgb(53.333333%,53.333333%,53.333333%);fill-opacity:1;" d="M 99.332031 149 L 149 149 L 149 99.332031 L 99.332031 99.332031 Z M 99.332031 149 "/>
<path style="fill:none;stroke-width:1;stroke-linecap:round;stroke-linejoin:round;stroke:rgb(0%,0%,0%);stroke-opacity:1;stroke-miterlimit:10;" d="M 99.332031 149 L 149 149 L 149 99.332031 L 99.332031 99.332031 L 99.332031 149 "/>
<path style=" stroke:none;fill-rule:evenodd;fill:rgb(53.333333%,53.333333%,53.333333%);fill-opacity:1;" d="M 0 99.332031 L 49.667969 99.332031 L 49.667969 49.667969 L 0 49.667969 Z M 0 99.332031 "/>
<path style="fill:none;stroke-width:1;stroke-linecap:round;stroke-linejoin:round;stroke:rgb(0%,0%,0%);stroke-opacity:1;stroke-miterlimit:10;" d="M 0 99.332031 L 49.667969 99.332031 L 49.667969 49.667969 L 0 49.667969 L 0 99.332031 "/>
<path style=" stroke:none;fill-rule:evenodd;fill:rgb(53.333333%,53.333333%,53.333333%);fill-opacity:1;" d="M 49.667969 99.332031 L 99.332031 99.332031 L 99.332031 49.667969 L 49.667969 49.667969 Z M 49.667969 99.332031 "/>
<path style="fill:none;stroke-width:1;stroke-linecap:round;stroke-linejoin:round;stroke:rgb(0%,0%,0%);stroke-opacity:1;stroke-miterlimit:10;" d="M 49.667969 99.332031 L 99.332031 99.332031 L 99.332031 49.667969 L 49.667969 49.667969 L 49.667969 99.332031 "/>
<path style=" stroke:none;fill-rule:evenodd;fill:rgb(53.333333%,53.333333%,53.333333%);fill-opacity:1;" d="M 99.332031 99.332031 L 149 99.332031 L 149 49.667969 L 99.332031 49.667969 Z M 99.332031 99.332031 "/>
<path style="fill:none;stroke-width:1;stroke-linecap:round;stroke-linejoin:round;stroke:rgb(0%,0%,0%);stroke-opacity:1;stroke-miterlimit:10;" d="M 99.332031 99.332031 L 149 99.332031 L 149 49.667969 L 99.332031 49.667969 L 99.332031 99.332031 "/>
<path style=" stroke:none;fill-rule:evenodd;fill:rgb(53.333333%,53.333333%,53.333333%);fill-opacity:1;" d="M 0 49.667969 L 49.667969 49.667969 L 49.667969 0 L 0 0 Z M 0 49.667969 "/>
<path style="fill:none;stroke-width:1;stroke-linecap:round;stroke-linejoin:round;stroke:rgb(0%,0%,0%);stroke-opacity:1;stroke-miterlimit:10;" d="M 0 49.667969 L 49.667969 49.667969 L 49.667969 0 L 0 0 L 0 49.667969 "/>
<path style=" stroke:none;fill-rule:evenodd;fill:rgb(53.333333%,53.333333%,53.333333%);fill-opacity:1;" d="M 49.667969 49.667969 L 99.332031 49.667969 L 99.332031 0 L 49.667969 0 Z M 49.667969 49.667969 "/>
<path style="fill:none;stroke-width:1;stroke-linecap:round;stroke-linejoin:round;stroke:rgb(0%,0%,0%);stroke-opacity:1;stroke-miterlimit:10;" d="M 49.667969 49.667969 L 99.332031 49.667969 L 99.332031 0 L 49.667969 0 L 49.667969 49.667969 "/>
<path style=" stroke:none;fill-rule:evenodd;fill:rgb(53.333333%,53.333333%,53.333333%);fill-opacity:1;" d="M 99.332031 49.667969 L 149 49.667969 L 149 0 L 99.332031 0 Z M 99.332031 49.667969 "/>
<path style="fill:none;stroke-width:1;stroke-linecap:round;stroke-linejoin:round;stroke:rgb(0%,0%,0%);stroke-opacity:1;stroke-miterlimit:10;" d="M 99.332031 49.667969 L 149 49.667969 L 149 0 L 99.332031 0 L 99.332031 49.667969 "/>
<path style=" stroke:none;fill-rule:evenodd;fill:rgb(100%,0%,0%);fill-opacity:1;" d="M 129.167969 24.832031 C 129.167969 31.5 119.167969 31.5 119.167969 24.832031 C 119.167969 18.167969 129.167969 18.167969 129.167969 24.832031 "/>
<path style=" stroke:none;fill-rule:evenodd;fill:rgb(0%,0%,0%);fill-opacity:1;" d="M 130.078125 11.609375 L 130.078125 11.28125 L 133.125 11.28125 L 133.125 11.609375 L 133.03125 11.609375 L 132.671875 11.640625 C 132.503906 11.652344 132.386719 11.675781 132.328125 11.703125 C 132.273438 11.734375 132.242188 11.792969 132.234375 11.875 C 132.179688 12.105469 132.15625 12.363281 132.15625 12.640625 L 132.15625 15.9375 C 132.15625 16.742188 132.175781 17.261719 132.21875 17.5 C 132.257812 17.742188 132.363281 17.972656 132.53125 18.1875 C 132.863281 18.625 133.367188 18.84375 134.046875 18.84375 C 134.667969 18.84375 135.175781 18.65625 135.5625 18.28125 C 135.769531 18.066406 135.90625 17.824219 135.96875 17.5625 C 136.027344 17.304688 136.0625 16.839844 136.0625 16.171875 L 136.0625 12.640625 L 136.03125 12.125 C 136.019531 11.929688 135.980469 11.804688 135.921875 11.75 C 135.867188 11.691406 135.742188 11.652344 135.546875 11.640625 L 135.1875 11.609375 L 135.09375 11.609375 L 135.09375 11.28125 L 137.578125 11.28125 L 137.578125 11.609375 L 137.46875 11.609375 L 137.125 11.640625 C 136.957031 11.652344 136.839844 11.675781 136.78125 11.703125 C 136.726562 11.734375 136.691406 11.792969 136.671875 11.875 C 136.628906 12.09375 136.609375 12.351562 136.609375 12.640625 L 136.609375 15.875 C 136.609375 16.585938 136.566406 17.105469 136.484375 17.4375 C 136.410156 17.773438 136.253906 18.085938 136.015625 18.375 C 135.554688 18.917969 134.847656 19.1875 133.890625 19.1875 C 133.066406 19.1875 132.410156 18.992188 131.921875 18.59375 C 131.609375 18.335938 131.382812 18.011719 131.25 17.625 C 131.113281 17.242188 131.046875 16.734375 131.046875 16.109375 L 131.046875 12.640625 L 131.015625 12.125 C 131.003906 11.929688 130.964844 11.804688 130.90625 11.75 C 130.851562 11.691406 130.726562 11.652344 130.53125 11.640625 L 130.1875 11.609375 Z M 139.9375 15.609375 L 139.9375 17.65625 L 139.96875 18.171875 C 139.96875 18.382812 140.003906 18.511719 140.078125 18.5625 C 140.148438 18.617188 140.351562 18.652344 140.6875 18.671875 L 140.78125 18.671875 L 140.78125 19 L 137.890625 19 L 137.890625 18.671875 L 138 18.671875 L 138.34375 18.640625 C 138.539062 18.632812 138.664062 18.601562 138.71875 18.546875 C 138.777344 18.496094 138.816406 18.371094 138.828125 18.171875 L 138.859375 17.65625 L 138.859375 12.640625 L 138.828125 12.125 C 138.816406 11.929688 138.777344 11.804688 138.71875 11.75 C 138.664062 11.691406 138.539062 11.652344 138.34375 11.640625 L 138 11.609375 L 137.890625 11.609375 L 137.890625 11.28125 L 140.265625 11.28125 L 141.109375 11.25 C 141.886719 11.25 142.484375 11.417969 142.890625 11.75 C 143.292969 12.085938 143.5 12.570312 143.5 13.203125 C 143.5 13.726562 143.355469 14.175781 143.078125 14.546875 C 142.804688 14.921875 142.414062 15.199219 141.90625 15.375 L 143.421875 17.640625 L 143.90625 18.3125 C 144.007812 18.460938 144.09375 18.554688 144.15625 18.59375 C 144.226562 18.636719 144.332031 18.65625 144.46875 18.65625 C 144.507812 18.65625 144.625 18.664062 144.8125 18.671875 L 144.921875 18.671875 L 144.921875 19 L 142.953125 19 L 140.84375 15.609375 Z M 139.953125 15.25 L 140.34375 15.25 C 140.789062 15.25 141.144531 15.199219 141.40625 15.09375 C 141.675781 14.992188 141.894531 14.808594 142.0625 14.546875 C 142.269531 14.238281 142.375 13.824219 142.375 13.3125 C 142.375 12.804688 142.273438 12.40625 142.078125 12.125 C 141.953125 11.941406 141.785156 11.8125 141.578125 11.75 C 141.367188 11.679688 141.070312 11.640625 140.6875 11.640625 L 139.953125 11.640625 Z M 139.953125 15.25 "/>
<path style=" stroke:none;fill-rule:evenodd;fill:rgb(100%,0%,0%);fill-opacity:1;" d="M 79.5 24.832031 C 79.5 31.5 69.5 31.5 69.5 24.832031 C 69.5 18.167969 79.5 18.167969 79.5 24.832031 "/>
<path style=" stroke:none;fill-rule:evenodd;fill:rgb(0%,0%,0%);fill-opacity:1;" d="M 68.078125 9.609375 L 68.078125 9.28125 L 71.125 9.28125 L 71.125 9.609375 L 71.03125 9.609375 L 70.671875 9.640625 C 70.503906 9.652344 70.386719 9.675781 70.328125 9.703125 C 70.273438 9.734375 70.242188 9.792969 70.234375 9.875 C 70.179688 10.105469 70.15625 10.363281 70.15625 10.640625 L 70.15625 13.9375 C 70.15625 14.742188 70.175781 15.261719 70.21875 15.5 C 70.257812 15.742188 70.363281 15.972656 70.53125 16.1875 C 70.863281 16.625 71.367188 16.84375 72.046875 16.84375 C 72.667969 16.84375 73.175781 16.65625 73.5625 16.28125 C 73.769531 16.066406 73.90625 15.824219 73.96875 15.5625 C 74.027344 15.304688 74.0625 14.839844 74.0625 14.171875 L 74.0625 10.640625 L 74.03125 10.125 C 74.019531 9.929688 73.980469 9.804688 73.921875 9.75 C 73.867188 9.691406 73.742188 9.652344 73.546875 9.640625 L 73.1875 9.609375 L 73.09375 9.609375 L 73.09375 9.28125 L 75.578125 9.28125 L 75.578125 9.609375 L 75.46875 9.609375 L 75.125 9.640625 C 74.957031 9.652344 74.839844 9.675781 74.78125 9.703125 C 74.726562 9.734375 74.691406 9.792969 74.671875 9.875 C 74.628906 10.09375 74.609375 10.351562 74.609375 10.640625 L 74.609375 13.875 C 74.609375 14.585938 74.566406 15.105469 74.484375 15.4375 C 74.410156 15.773438 74.253906 16.085938 74.015625 16.375 C 73.554688 16.917969 72.847656 17.1875 71.890625 17.1875 C 71.066406 17.1875 70.410156 16.992188 69.921875 16.59375 C 69.609375 16.335938 69.382812 16.011719 69.25 15.625 C 69.113281 15.242188 69.046875 14.734375 69.046875 14.109375 L 69.046875 10.640625 L 69.015625 10.125 C 69.003906 9.929688 68.964844 9.804688 68.90625 9.75 C 68.851562 9.691406 68.726562 9.652344 68.53125 9.640625 L 68.1875 9.609375 Z M 82.484375 16.59375 C 81.785156 16.992188 80.964844 17.1875 80.03125 17.1875 C 78.851562 17.1875 77.917969 16.828125 77.234375 16.109375 C 76.554688 15.382812 76.21875 14.386719 76.21875 13.125 C 76.21875 11.710938 76.628906 10.632812 77.453125 9.890625 C 78.054688 9.363281 78.894531 9.09375 79.96875 9.09375 C 80.558594 9.09375 81.289062 9.207031 82.15625 9.421875 L 82.34375 9.484375 L 82.34375 10.953125 L 81.703125 10.953125 L 81.703125 10.84375 C 81.691406 10.742188 81.6875 10.640625 81.6875 10.546875 C 81.6875 10.257812 81.613281 10.046875 81.46875 9.921875 C 81.300781 9.789062 81.070312 9.671875 80.78125 9.578125 C 80.488281 9.488281 80.199219 9.4375 79.921875 9.4375 C 79.140625 9.4375 78.511719 9.773438 78.046875 10.4375 C 77.585938 11.105469 77.359375 12.003906 77.359375 13.125 C 77.359375 14.242188 77.628906 15.113281 78.171875 15.734375 C 78.710938 16.359375 79.472656 16.671875 80.453125 16.671875 C 81.085938 16.671875 81.765625 16.480469 82.484375 16.09375 Z M 82.484375 16.59375 "/>
<path style=" stroke:none;fill-rule:evenodd;fill:rgb(100%,0%,0%);fill-opacity:1;" d="M 29.832031 24.832031 C 29.832031 31.5 19.832031 31.5 19.832031 24.832031 C 19.832031 18.167969 29.832031 18.167969 29.832031 24.832031 "/>
<path style=" stroke:none;fill-rule:evenodd;fill:rgb(0%,0%,0%);fill-opacity:1;" d="M 6.078125 11.609375 L 6.078125 11.28125 L 9.125 11.28125 L 9.125 11.609375 L 9.03125 11.609375 L 8.671875 11.640625 C 8.503906 11.652344 8.386719 11.675781 8.328125 11.703125 C 8.273438 11.734375 8.242188 11.792969 8.234375 11.875 C 8.179688 12.105469 8.15625 12.363281 8.15625 12.640625 L 8.15625 15.9375 C 8.15625 16.742188 8.175781 17.261719 8.21875 17.5 C 8.257812 17.742188 8.363281 17.972656 8.53125 18.1875 C 8.863281 18.625 9.367188 18.84375 10.046875 18.84375 C 10.667969 18.84375 11.175781 18.65625 11.5625 18.28125 C 11.769531 18.066406 11.90625 17.824219 11.96875 17.5625 C 12.027344 17.304688 12.0625 16.839844 12.0625 16.171875 L 12.0625 12.640625 L 12.03125 12.125 C 12.019531 11.929688 11.980469 11.804688 11.921875 11.75 C 11.867188 11.691406 11.742188 11.652344 11.546875 11.640625 L 11.1875 11.609375 L 11.09375 11.609375 L 11.09375 11.28125 L 13.578125 11.28125 L 13.578125 11.609375 L 13.46875 11.609375 L 13.125 11.640625 C 12.957031 11.652344 12.839844 11.675781 12.78125 11.703125 C 12.726562 11.734375 12.691406 11.792969 12.671875 11.875 C 12.628906 12.09375 12.609375 12.351562 12.609375 12.640625 L 12.609375 15.875 C 12.609375 16.585938 12.566406 17.105469 12.484375 17.4375 C 12.410156 17.773438 12.253906 18.085938 12.015625 18.375 C 11.554688 18.917969 10.847656 19.1875 9.890625 19.1875 C 9.066406 19.1875 8.410156 18.992188 7.921875 18.59375 C 7.609375 18.335938 7.382812 18.011719 7.25 17.625 C 7.113281 17.242188 7.046875 16.734375 7.046875 16.109375 L 7.046875 12.640625 L 7.015625 12.125 C 7.003906 11.929688 6.964844 11.804688 6.90625 11.75 C 6.851562 11.691406 6.726562 11.652344 6.53125 11.640625 L 6.1875 11.609375 Z M 19.421875 19 L 13.890625 19 L 13.890625 18.671875 L 14 18.671875 L 14.34375 18.640625 C 14.539062 18.632812 14.664062 18.601562 14.71875 18.546875 C 14.777344 18.496094 14.816406 18.371094 14.828125 18.171875 L 14.859375 17.65625 L 14.859375 12.640625 L 14.828125 12.125 C 14.816406 11.929688 14.777344 11.804688 14.71875 11.75 C 14.664062 11.691406 14.539062 11.652344 14.34375 11.640625 L 14 11.609375 L 13.890625 11.609375 L 13.890625 11.28125 L 16.921875 11.28125 L 16.921875 11.609375 L 16.8125 11.609375 L 16.46875 11.640625 C 16.269531 11.652344 16.136719 11.691406 16.078125 11.75 C 16.023438 11.804688 15.992188 11.929688 15.984375 12.125 L 15.953125 12.640625 L 15.953125 17.65625 C 15.953125 18.117188 15.984375 18.382812 16.046875 18.453125 C 16.117188 18.515625 16.382812 18.546875 16.84375 18.546875 L 17.640625 18.546875 C 18.097656 18.546875 18.429688 18.515625 18.640625 18.453125 C 18.773438 18.414062 18.847656 18.292969 18.859375 18.09375 L 18.875 17.5625 L 18.875 17.453125 L 19.421875 17.453125 Z M 19.421875 19 "/>
<path style=" stroke:none;fill-rule:evenodd;fill:rgb(100%,0%,0%);fill-opacity:1;" d="M 129.167969 74.5 C 129.167969 81.167969 119.167969 81.167969 119.167969 74.5 C 119.167969 67.832031 129.167969 67.832031 129.167969 74.5 "/>
<path style=" stroke:none;fill-rule:evenodd;fill:rgb(0%,0%,0%);fill-opacity:1;" d="M 137.8125 77.59375 C 137.113281 77.992188 136.292969 78.1875 135.359375 78.1875 C 134.179688 78.1875 133.246094 77.828125 132.5625 77.109375 C 131.882812 76.382812 131.546875 75.386719 131.546875 74.125 C 131.546875 72.710938 131.957031 71.632812 132.78125 70.890625 C 133.382812 70.363281 134.222656 70.09375 135.296875 70.09375 C 135.886719 70.09375 136.617188 70.207031 137.484375 70.421875 L 137.671875 70.484375 L 137.671875 71.953125 L 137.03125 71.953125 L 137.03125 71.84375 C 137.019531 71.742188 137.015625 71.640625 137.015625 71.546875 C 137.015625 71.257812 136.941406 71.046875 136.796875 70.921875 C 136.628906 70.789062 136.398438 70.671875 136.109375 70.578125 C 135.816406 70.488281 135.527344 70.4375 135.25 70.4375 C 134.46875 70.4375 133.839844 70.773438 133.375 71.4375 C 132.914062 72.105469 132.6875 73.003906 132.6875 74.125 C 132.6875 75.242188 132.957031 76.113281 133.5 76.734375 C 134.039062 77.359375 134.800781 77.671875 135.78125 77.671875 C 136.414062 77.671875 137.09375 77.480469 137.8125 77.09375 Z M 140.6875 74.609375 L 140.6875 76.65625 L 140.71875 77.171875 C 140.71875 77.382812 140.753906 77.511719 140.828125 77.5625 C 140.898438 77.617188 141.101562 77.652344 141.4375 77.671875 L 141.53125 77.671875 L 141.53125 78 L 138.640625 78 L 138.640625 77.671875 L 138.75 77.671875 L 139.09375 77.640625 C 139.289062 77.632812 139.414062 77.601562 139.46875 77.546875 C 139.527344 77.496094 139.566406 77.371094 139.578125 77.171875 L 139.609375 76.65625 L 139.609375 71.640625 L 139.578125 71.125 C 139.566406 70.929688 139.527344 70.804688 139.46875 70.75 C 139.414062 70.691406 139.289062 70.652344 139.09375 70.640625 L 138.75 70.609375 L 138.640625 70.609375 L 138.640625 70.28125 L 141.015625 70.28125 L 141.859375 70.25 C 142.636719 70.25 143.234375 70.417969 143.640625 70.75 C 144.042969 71.085938 144.25 71.570312 144.25 72.203125 C 144.25 72.726562 144.105469 73.175781 143.828125 73.546875 C 143.554688 73.921875 143.164062 74.199219 142.65625 74.375 L 144.171875 76.640625 L 144.65625 77.3125 C 144.757812 77.460938 144.84375 77.554688 144.90625 77.59375 C 144.976562 77.636719 145.082031 77.65625 145.21875 77.65625 C 145.257812 77.65625 145.375 77.664062 145.5625 77.671875 L 145.671875 77.671875 L 145.671875 78 L 143.703125 78 L 141.59375 74.609375 Z M 140.703125 74.25 L 141.09375 74.25 C 141.539062 74.25 141.894531 74.199219 142.15625 74.09375 C 142.425781 73.992188 142.644531 73.808594 142.8125 73.546875 C 143.019531 73.238281 143.125 72.824219 143.125 72.3125 C 143.125 71.804688 143.023438 71.40625 142.828125 71.125 C 142.703125 70.941406 142.535156 70.8125 142.328125 70.75 C 142.117188 70.679688 141.820312 70.640625 141.4375 70.640625 L 140.703125 70.640625 Z M 140.703125 74.25 "/>
<path style=" stroke:none;fill-rule:evenodd;fill:rgb(100%,0%,0%);fill-opacity:1;" d="M 79.5 74.5 C 79.5 81.167969 69.5 81.167969 69.5 74.5 C 69.5 67.832031 79.5 67.832031 79.5 74.5 "/>
<path style=" stroke:none;fill-rule:evenodd;fill:rgb(0%,0%,0%);fill-opacity:1;" d="M 60.953125 63.625 L 60.5 64.65625 C 60.4375 64.792969 60.398438 64.886719 60.390625 64.9375 L 60.28125 65.296875 C 60.257812 65.371094 60.25 65.429688 60.25 65.46875 C 60.25 65.605469 60.378906 65.671875 60.640625 65.671875 L 61 65.671875 L 61 66 L 59 66 L 59 65.671875 L 59.109375 65.671875 L 59.359375 65.65625 C 59.472656 65.65625 59.5625 65.625 59.625 65.5625 C 59.695312 65.492188 59.769531 65.371094 59.84375 65.203125 L 60.078125 64.65625 L 62.796875 58.1875 L 63.15625 58.1875 L 65.859375 64.6875 L 66.125 65.21875 C 66.214844 65.429688 66.296875 65.554688 66.359375 65.59375 C 66.429688 65.636719 66.585938 65.664062 66.828125 65.671875 L 66.9375 65.671875 L 66.9375 66 L 64.078125 66 L 64.078125 65.671875 L 64.5 65.671875 C 64.769531 65.671875 64.90625 65.605469 64.90625 65.46875 C 64.90625 65.261719 64.832031 64.992188 64.6875 64.65625 L 64.25 63.625 Z M 61.125 63.203125 L 64.0625 63.203125 L 62.59375 59.6875 Z M 67.019531 58.609375 L 67.019531 58.28125 L 70.066406 58.28125 L 70.066406 58.609375 L 69.972656 58.609375 L 69.613281 58.640625 C 69.445312 58.652344 69.328125 58.675781 69.269531 58.703125 C 69.214844 58.734375 69.183594 58.792969 69.175781 58.875 C 69.121094 59.105469 69.097656 59.363281 69.097656 59.640625 L 69.097656 62.9375 C 69.097656 63.742188 69.117188 64.261719 69.160156 64.5 C 69.199219 64.742188 69.304688 64.972656 69.472656 65.1875 C 69.804688 65.625 70.308594 65.84375 70.988281 65.84375 C 71.609375 65.84375 72.117188 65.65625 72.503906 65.28125 C 72.710938 65.066406 72.847656 64.824219 72.910156 64.5625 C 72.96875 64.304688 73.003906 63.839844 73.003906 63.171875 L 73.003906 59.640625 L 72.972656 59.125 C 72.960938 58.929688 72.921875 58.804688 72.863281 58.75 C 72.808594 58.691406 72.683594 58.652344 72.488281 58.640625 L 72.128906 58.609375 L 72.035156 58.609375 L 72.035156 58.28125 L 74.519531 58.28125 L 74.519531 58.609375 L 74.410156 58.609375 L 74.066406 58.640625 C 73.898438 58.652344 73.78125 58.675781 73.722656 58.703125 C 73.667969 58.734375 73.632812 58.792969 73.613281 58.875 C 73.570312 59.09375 73.550781 59.351562 73.550781 59.640625 L 73.550781 62.875 C 73.550781 63.585938 73.507812 64.105469 73.425781 64.4375 C 73.351562 64.773438 73.195312 65.085938 72.957031 65.375 C 72.496094 65.917969 71.789062 66.1875 70.832031 66.1875 C 70.007812 66.1875 69.351562 65.992188 68.863281 65.59375 C 68.550781 65.335938 68.324219 65.011719 68.191406 64.625 C 68.054688 64.242188 67.988281 63.734375 67.988281 63.109375 L 67.988281 59.640625 L 67.957031 59.125 C 67.945312 58.929688 67.90625 58.804688 67.847656 58.75 C 67.792969 58.691406 67.667969 58.652344 67.472656 58.640625 L 67.128906 58.609375 Z M 77.597656 58.703125 L 76.363281 58.703125 L 75.832031 58.734375 C 75.644531 58.734375 75.523438 58.761719 75.472656 58.8125 C 75.417969 58.855469 75.394531 58.964844 75.394531 59.140625 C 75.394531 59.320312 75.394531 59.472656 75.394531 59.59375 L 75.378906 59.703125 L 74.832031 59.703125 L 74.832031 58.28125 L 81.457031 58.28125 L 81.457031 59.703125 L 80.910156 59.703125 L 80.910156 59.59375 C 80.898438 59.472656 80.894531 59.320312 80.894531 59.140625 C 80.894531 58.964844 80.867188 58.855469 80.816406 58.8125 C 80.761719 58.761719 80.648438 58.734375 80.472656 58.734375 L 79.925781 58.703125 L 78.691406 58.703125 L 78.691406 64.65625 L 78.722656 65.171875 C 78.730469 65.371094 78.761719 65.496094 78.816406 65.546875 C 78.875 65.601562 79.007812 65.632812 79.207031 65.640625 L 79.566406 65.671875 L 79.785156 65.671875 L 79.785156 66 L 76.503906 66 L 76.503906 65.671875 L 76.738281 65.671875 L 77.082031 65.640625 C 77.277344 65.632812 77.402344 65.601562 77.457031 65.546875 C 77.515625 65.496094 77.554688 65.371094 77.566406 65.171875 L 77.597656 64.65625 Z M 85.777344 66.1875 C 84.816406 66.1875 84.015625 65.882812 83.371094 65.265625 C 82.609375 64.550781 82.230469 63.507812 82.230469 62.140625 C 82.230469 60.894531 82.546875 59.90625 83.183594 59.1875 C 83.828125 58.460938 84.707031 58.09375 85.824219 58.09375 C 86.9375 58.09375 87.816406 58.457031 88.464844 59.171875 C 89.109375 59.890625 89.433594 60.878906 89.433594 62.125 C 89.433594 63.398438 89.109375 64.394531 88.464844 65.109375 C 87.816406 65.828125 86.921875 66.1875 85.777344 66.1875 Z M 85.792969 65.84375 C 86.570312 65.84375 87.183594 65.523438 87.621094 64.875 C 88.054688 64.222656 88.277344 63.304688 88.277344 62.125 C 88.277344 60.980469 88.054688 60.078125 87.621094 59.421875 C 87.183594 58.769531 86.582031 58.4375 85.824219 58.4375 C 85.0625 58.4375 84.460938 58.769531 84.027344 59.421875 C 83.597656 60.078125 83.386719 60.988281 83.386719 62.140625 C 83.386719 63.289062 83.597656 64.195312 84.027344 64.859375 C 84.453125 65.515625 85.042969 65.84375 85.792969 65.84375 Z M 85.792969 65.84375 "/>
<path style=" stroke:none;fill-rule:evenodd;fill:rgb(100%,0%,0%);fill-opacity:1;" d="M 29.832031 74.5 C 29.832031 81.167969 19.832031 81.167969 19.832031 74.5 C 19.832031 67.832031 29.832031 67.832031 29.832031 74.5 "/>
<path style=" stroke:none;fill-rule:evenodd;fill:rgb(0%,0%,0%);fill-opacity:1;" d="M 10.8125 77.59375 C 10.113281 77.992188 9.292969 78.1875 8.359375 78.1875 C 7.179688 78.1875 6.246094 77.828125 5.5625 77.109375 C 4.882812 76.382812 4.546875 75.386719 4.546875 74.125 C 4.546875 72.710938 4.957031 71.632812 5.78125 70.890625 C 6.382812 70.363281 7.222656 70.09375 8.296875 70.09375 C 8.886719 70.09375 9.617188 70.207031 10.484375 70.421875 L 10.671875 70.484375 L 10.671875 71.953125 L 10.03125 71.953125 L 10.03125 71.84375 C 10.019531 71.742188 10.015625 71.640625 10.015625 71.546875 C 10.015625 71.257812 9.941406 71.046875 9.796875 70.921875 C 9.628906 70.789062 9.398438 70.671875 9.109375 70.578125 C 8.816406 70.488281 8.527344 70.4375 8.25 70.4375 C 7.46875 70.4375 6.839844 70.773438 6.375 71.4375 C 5.914062 72.105469 5.6875 73.003906 5.6875 74.125 C 5.6875 75.242188 5.957031 76.113281 6.5 76.734375 C 7.039062 77.359375 7.800781 77.671875 8.78125 77.671875 C 9.414062 77.671875 10.09375 77.480469 10.8125 77.09375 Z M 17.171875 78 L 11.640625 78 L 11.640625 77.671875 L 11.75 77.671875 L 12.09375 77.640625 C 12.289062 77.632812 12.414062 77.601562 12.46875 77.546875 C 12.527344 77.496094 12.566406 77.371094 12.578125 77.171875 L 12.609375 76.65625 L 12.609375 71.640625 L 12.578125 71.125 C 12.566406 70.929688 12.527344 70.804688 12.46875 70.75 C 12.414062 70.691406 12.289062 70.652344 12.09375 70.640625 L 11.75 70.609375 L 11.640625 70.609375 L 11.640625 70.28125 L 14.671875 70.28125 L 14.671875 70.609375 L 14.5625 70.609375 L 14.21875 70.640625 C 14.019531 70.652344 13.886719 70.691406 13.828125 70.75 C 13.773438 70.804688 13.742188 70.929688 13.734375 71.125 L 13.703125 71.640625 L 13.703125 76.65625 C 13.703125 77.117188 13.734375 77.382812 13.796875 77.453125 C 13.867188 77.515625 14.132812 77.546875 14.59375 77.546875 L 15.390625 77.546875 C 15.847656 77.546875 16.179688 77.515625 16.390625 77.453125 C 16.523438 77.414062 16.597656 77.292969 16.609375 77.09375 L 16.625 76.5625 L 16.625 76.453125 L 17.171875 76.453125 Z M 17.171875 78 "/>
<path style=" stroke:none;fill-rule:evenodd;fill:rgb(100%,0%,0%);fill-opacity:1;" d="M 129.167969 124.167969 C 129.167969 130.832031 119.167969 130.832031 119.167969 124.167969 C 119.167969 117.5 129.167969 117.5 129.167969 124.167969 "/>
<path style=" stroke:none;fill-rule:evenodd;fill:rgb(0%,0%,0%);fill-opacity:1;" d="M 134.75 136 L 129.21875 136 L 129.21875 135.671875 L 129.328125 135.671875 L 129.671875 135.640625 C 129.867188 135.632812 129.992188 135.601562 130.046875 135.546875 C 130.105469 135.496094 130.144531 135.371094 130.15625 135.171875 L 130.1875 134.65625 L 130.1875 129.640625 L 130.15625 129.125 C 130.144531 128.929688 130.105469 128.804688 130.046875 128.75 C 129.992188 128.691406 129.867188 128.652344 129.671875 128.640625 L 129.328125 128.609375 L 129.21875 128.609375 L 129.21875 128.28125 L 132.25 128.28125 L 132.25 128.609375 L 132.140625 128.609375 L 131.796875 128.640625 C 131.597656 128.652344 131.464844 128.691406 131.40625 128.75 C 131.351562 128.804688 131.320312 128.929688 131.3125 129.125 L 131.28125 129.640625 L 131.28125 134.65625 C 131.28125 135.117188 131.3125 135.382812 131.375 135.453125 C 131.445312 135.515625 131.710938 135.546875 132.171875 135.546875 L 132.96875 135.546875 C 133.425781 135.546875 133.757812 135.515625 133.96875 135.453125 C 134.101562 135.414062 134.175781 135.292969 134.1875 135.09375 L 134.203125 134.5625 L 134.203125 134.453125 L 134.75 134.453125 Z M 137.210938 132.609375 L 137.210938 134.65625 L 137.242188 135.171875 C 137.242188 135.382812 137.277344 135.511719 137.351562 135.5625 C 137.421875 135.617188 137.625 135.652344 137.960938 135.671875 L 138.054688 135.671875 L 138.054688 136 L 135.164062 136 L 135.164062 135.671875 L 135.273438 135.671875 L 135.617188 135.640625 C 135.8125 135.632812 135.9375 135.601562 135.992188 135.546875 C 136.050781 135.496094 136.089844 135.371094 136.101562 135.171875 L 136.132812 134.65625 L 136.132812 129.640625 L 136.101562 129.125 C 136.089844 128.929688 136.050781 128.804688 135.992188 128.75 C 135.9375 128.691406 135.8125 128.652344 135.617188 128.640625 L 135.273438 128.609375 L 135.164062 128.609375 L 135.164062 128.28125 L 137.539062 128.28125 L 138.382812 128.25 C 139.160156 128.25 139.757812 128.417969 140.164062 128.75 C 140.566406 129.085938 140.773438 129.570312 140.773438 130.203125 C 140.773438 130.726562 140.628906 131.175781 140.351562 131.546875 C 140.078125 131.921875 139.6875 132.199219 139.179688 132.375 L 140.695312 134.640625 L 141.179688 135.3125 C 141.28125 135.460938 141.367188 135.554688 141.429688 135.59375 C 141.5 135.636719 141.605469 135.65625 141.742188 135.65625 C 141.78125 135.65625 141.898438 135.664062 142.085938 135.671875 L 142.195312 135.671875 L 142.195312 136 L 140.226562 136 L 138.117188 132.609375 Z M 137.226562 132.25 L 137.617188 132.25 C 138.0625 132.25 138.417969 132.199219 138.679688 132.09375 C 138.949219 131.992188 139.167969 131.808594 139.335938 131.546875 C 139.542969 131.238281 139.648438 130.824219 139.648438 130.3125 C 139.648438 129.804688 139.546875 129.40625 139.351562 129.125 C 139.226562 128.941406 139.058594 128.8125 138.851562 128.75 C 138.640625 128.679688 138.34375 128.640625 137.960938 128.640625 L 137.226562 128.640625 Z M 137.226562 132.25 "/>
<path style=" stroke:none;fill-rule:evenodd;fill:rgb(100%,0%,0%);fill-opacity:1;" d="M 79.5 124.167969 C 79.5 130.832031 69.5 130.832031 69.5 124.167969 C 69.5 117.5 79.5 117.5 79.5 124.167969 "/>
<path style=" stroke:none;fill-rule:evenodd;fill:rgb(0%,0%,0%);fill-opacity:1;" d="M 73.75 139 L 68.21875 139 L 68.21875 138.671875 L 68.328125 138.671875 L 68.671875 138.640625 C 68.867188 138.632812 68.992188 138.601562 69.046875 138.546875 C 69.105469 138.496094 69.144531 138.371094 69.15625 138.171875 L 69.1875 137.65625 L 69.1875 132.640625 L 69.15625 132.125 C 69.144531 131.929688 69.105469 131.804688 69.046875 131.75 C 68.992188 131.691406 68.867188 131.652344 68.671875 131.640625 L 68.328125 131.609375 L 68.21875 131.609375 L 68.21875 131.28125 L 71.25 131.28125 L 71.25 131.609375 L 71.140625 131.609375 L 70.796875 131.640625 C 70.597656 131.652344 70.464844 131.691406 70.40625 131.75 C 70.351562 131.804688 70.320312 131.929688 70.3125 132.125 L 70.28125 132.640625 L 70.28125 137.65625 C 70.28125 138.117188 70.3125 138.382812 70.375 138.453125 C 70.445312 138.515625 70.710938 138.546875 71.171875 138.546875 L 71.96875 138.546875 C 72.425781 138.546875 72.757812 138.515625 72.96875 138.453125 C 73.101562 138.414062 73.175781 138.292969 73.1875 138.09375 L 73.203125 137.5625 L 73.203125 137.453125 L 73.75 137.453125 Z M 80.757812 138.59375 C 80.058594 138.992188 79.238281 139.1875 78.304688 139.1875 C 77.125 139.1875 76.191406 138.828125 75.507812 138.109375 C 74.828125 137.382812 74.492188 136.386719 74.492188 135.125 C 74.492188 133.710938 74.902344 132.632812 75.726562 131.890625 C 76.328125 131.363281 77.167969 131.09375 78.242188 131.09375 C 78.832031 131.09375 79.5625 131.207031 80.429688 131.421875 L 80.617188 131.484375 L 80.617188 132.953125 L 79.976562 132.953125 L 79.976562 132.84375 C 79.964844 132.742188 79.960938 132.640625 79.960938 132.546875 C 79.960938 132.257812 79.886719 132.046875 79.742188 131.921875 C 79.574219 131.789062 79.34375 131.671875 79.054688 131.578125 C 78.761719 131.488281 78.472656 131.4375 78.195312 131.4375 C 77.414062 131.4375 76.785156 131.773438 76.320312 132.4375 C 75.859375 133.105469 75.632812 134.003906 75.632812 135.125 C 75.632812 136.242188 75.902344 137.113281 76.445312 137.734375 C 76.984375 138.359375 77.746094 138.671875 78.726562 138.671875 C 79.359375 138.671875 80.039062 138.480469 80.757812 138.09375 Z M 80.757812 138.59375 "/>
<path style=" stroke:none;fill-rule:evenodd;fill:rgb(100%,0%,0%);fill-opacity:1;" d="M 29.832031 124.167969 C 29.832031 130.832031 19.832031 130.832031 19.832031 124.167969 C 19.832031 117.5 29.832031 117.5 29.832031 124.167969 "/>
<path style=" stroke:none;fill-rule:evenodd;fill:rgb(0%,0%,0%);fill-opacity:1;" d="M 13.75 137 L 8.21875 137 L 8.21875 136.671875 L 8.328125 136.671875 L 8.671875 136.640625 C 8.867188 136.632812 8.992188 136.601562 9.046875 136.546875 C 9.105469 136.496094 9.144531 136.371094 9.15625 136.171875 L 9.1875 135.65625 L 9.1875 130.640625 L 9.15625 130.125 C 9.144531 129.929688 9.105469 129.804688 9.046875 129.75 C 8.992188 129.691406 8.867188 129.652344 8.671875 129.640625 L 8.328125 129.609375 L 8.21875 129.609375 L 8.21875 129.28125 L 11.25 129.28125 L 11.25 129.609375 L 11.140625 129.609375 L 10.796875 129.640625 C 10.597656 129.652344 10.464844 129.691406 10.40625 129.75 C 10.351562 129.804688 10.320312 129.929688 10.3125 130.125 L 10.28125 130.640625 L 10.28125 135.65625 C 10.28125 136.117188 10.3125 136.382812 10.375 136.453125 C 10.445312 136.515625 10.710938 136.546875 11.171875 136.546875 L 11.96875 136.546875 C 12.425781 136.546875 12.757812 136.515625 12.96875 136.453125 C 13.101562 136.414062 13.175781 136.292969 13.1875 136.09375 L 13.203125 135.5625 L 13.203125 135.453125 L 13.75 135.453125 Z M 19.695312 137 L 14.164062 137 L 14.164062 136.671875 L 14.273438 136.671875 L 14.617188 136.640625 C 14.8125 136.632812 14.9375 136.601562 14.992188 136.546875 C 15.050781 136.496094 15.089844 136.371094 15.101562 136.171875 L 15.132812 135.65625 L 15.132812 130.640625 L 15.101562 130.125 C 15.089844 129.929688 15.050781 129.804688 14.992188 129.75 C 14.9375 129.691406 14.8125 129.652344 14.617188 129.640625 L 14.273438 129.609375 L 14.164062 129.609375 L 14.164062 129.28125 L 17.195312 129.28125 L 17.195312 129.609375 L 17.085938 129.609375 L 16.742188 129.640625 C 16.542969 129.652344 16.410156 129.691406 16.351562 129.75 C 16.296875 129.804688 16.265625 129.929688 16.257812 130.125 L 16.226562 130.640625 L 16.226562 135.65625 C 16.226562 136.117188 16.257812 136.382812 16.320312 136.453125 C 16.390625 136.515625 16.65625 136.546875 17.117188 136.546875 L 17.914062 136.546875 C 18.371094 136.546875 18.703125 136.515625 18.914062 136.453125 C 19.046875 136.414062 19.121094 136.292969 19.132812 136.09375 L 19.148438 135.5625 L 19.148438 135.453125 L 19.695312 135.453125 Z M 19.695312 137 "/>
</g>
</svg>
