<?xml version="1.0" encoding="UTF-8"?>
<svg xmlns="http://www.w3.org/2000/svg" xmlns:xlink="http://www.w3.org/1999/xlink" width="400pt" height="300pt" viewBox="0 0 400 300" version="1.1">
<defs>
<clipPath id="clip1">
  <rect width="400" height="300"/>
</clipPath>
<g id="surface6" clip-path="url(#clip1)">
<path style=" stroke:none;fill-rule:evenodd;fill:rgb(70.588235%,0%,0%);fill-opacity:1;" d="M 203.46875 109.300781 L 196.523438 128.160156 L 211.410156 137.09375 L 227.292969 117.242188 Z M 203.46875 109.300781 "/>
<path style=" stroke:none;fill-rule:evenodd;fill:rgb(70.588235%,70.588235%,70.588235%);fill-opacity:1;" d="M 208.960938 131.171875 L 211.078125 133.300781 L 209.660156 134.710938 L 207.539062 132.589844 Z M 208.960938 131.171875 "/>
<path style=" stroke:none;fill-rule:evenodd;fill:rgb(70.588235%,70.588235%,70.588235%);fill-opacity:1;" d="M 213.910156 126.21875 L 216.03125 128.351562 L 212.488281 131.878906 L 210.371094 129.761719 Z M 213.910156 126.21875 "/>
<path style=" stroke:none;fill-rule:evenodd;fill:rgb(70.588235%,70.588235%,70.588235%);fill-opacity:1;" d="M 216.730469 123.398438 L 218.859375 125.519531 L 217.441406 126.929688 L 215.320312 124.808594 Z M 216.730469 123.398438 "/>
<path style=" stroke:none;fill-rule:evenodd;fill:rgb(70.588235%,70.588235%,70.588235%);fill-opacity:1;" d="M 221.679688 118.449219 L 223.800781 120.570312 L 220.269531 124.101562 L 218.148438 121.980469 Z M 221.679688 118.449219 "/>
<path style=" stroke:none;fill-rule:evenodd;fill:rgb(70.588235%,70.588235%,70.588235%);fill-opacity:1;" d="M 223.988281 116.140625 L 225.550781 116.660156 L 226.628906 117.738281 L 225.21875 119.148438 L 223.101562 117.03125 Z M 223.988281 116.140625 "/>
<path style=" stroke:none;fill-rule:evenodd;fill:rgb(70.588235%,70.588235%,70.588235%);fill-opacity:1;" d="M 203.46875 109.300781 L 205.78125 110.070312 L 205.898438 110.191406 L 202.359375 113.730469 L 201.980469 113.351562 Z M 203.46875 109.300781 "/>
<path style=" stroke:none;fill-rule:evenodd;fill:rgb(70.588235%,0%,0%);fill-opacity:1;" d="M 335.476562 74.5625 L 279.894531 126.175781 L 399 124.191406 L 315.625 109.300781 L 389.074219 87.464844 Z M 335.476562 74.5625 "/>
<path style=" stroke:none;fill-rule:evenodd;fill:rgb(70.588235%,70.588235%,70.588235%);fill-opacity:1;" d="M 292.101562 124.949219 L 293.109375 125.960938 L 291.058594 125.988281 Z M 292.101562 124.949219 "/>
<path style=" stroke:none;fill-rule:evenodd;fill:rgb(70.588235%,70.588235%,70.588235%);fill-opacity:1;" d="M 294.929688 122.121094 L 297.050781 124.238281 L 295.628906 125.660156 L 293.511719 123.539062 Z M 294.929688 122.121094 "/>
<path style=" stroke:none;fill-rule:evenodd;fill:rgb(70.588235%,70.588235%,70.588235%);fill-opacity:1;" d="M 320.378906 124.949219 L 320.921875 125.488281 L 319.820312 125.511719 Z M 320.378906 124.949219 "/>
<path style=" stroke:none;fill-rule:evenodd;fill:rgb(70.588235%,70.588235%,70.588235%);fill-opacity:1;" d="M 323.210938 122.121094 L 325.328125 124.238281 L 324.140625 125.441406 L 323.710938 125.449219 L 321.800781 123.539062 Z M 323.210938 122.121094 "/>
<path style=" stroke:none;fill-rule:evenodd;fill:rgb(70.588235%,70.588235%,70.588235%);fill-opacity:1;" d="M 350.21875 123.398438 L 351.800781 124.980469 L 349.011719 125.03125 L 348.800781 124.820312 Z M 350.21875 123.398438 "/>
<path style=" stroke:none;fill-rule:evenodd;fill:rgb(70.588235%,70.588235%,70.588235%);fill-opacity:1;" d="M 378.5 123.398438 L 379.609375 124.511719 L 377.351562 124.550781 Z M 378.5 123.398438 "/>
<path style=" stroke:none;fill-rule:evenodd;fill:rgb(70.588235%,70.588235%,70.588235%);fill-opacity:1;" d="M 380.941406 120.960938 L 381.898438 121.140625 L 383.449219 122.691406 L 382.039062 124.109375 L 379.910156 121.988281 Z M 380.941406 120.960938 "/>
<path style=" stroke:none;fill-rule:evenodd;fill:rgb(70.588235%,70.588235%,70.588235%);fill-opacity:1;" d="M 355.171875 118.449219 L 357.289062 120.570312 L 353.75 124.109375 L 351.628906 121.988281 Z M 355.171875 118.449219 "/>
<path style=" stroke:none;fill-rule:evenodd;fill:rgb(70.588235%,70.588235%,70.588235%);fill-opacity:1;" d="M 328.160156 117.171875 L 330.28125 119.289062 L 326.75 122.828125 L 324.628906 120.710938 Z M 328.160156 117.171875 "/>
<path style=" stroke:none;fill-rule:evenodd;fill:rgb(70.588235%,70.588235%,70.588235%);fill-opacity:1;" d="M 299.878906 117.171875 L 302 119.289062 L 298.460938 122.828125 L 296.339844 120.710938 Z M 299.878906 117.171875 "/>
<path style=" stroke:none;fill-rule:evenodd;fill:rgb(70.588235%,70.588235%,70.588235%);fill-opacity:1;" d="M 356.941406 116.679688 L 359.519531 117.140625 L 360.121094 117.738281 L 358.699219 119.160156 L 356.578125 117.039062 Z M 356.941406 116.679688 "/>
<path style=" stroke:none;fill-rule:evenodd;fill:rgb(70.588235%,70.588235%,70.588235%);fill-opacity:1;" d="M 330.988281 114.339844 L 333.109375 116.460938 L 331.699219 117.878906 L 329.570312 115.761719 Z M 330.988281 114.339844 "/>
<path style=" stroke:none;fill-rule:evenodd;fill:rgb(70.588235%,70.588235%,70.588235%);fill-opacity:1;" d="M 302.699219 114.339844 L 304.828125 116.460938 L 303.410156 117.878906 L 301.289062 115.761719 Z M 302.699219 114.339844 "/>
<path style=" stroke:none;fill-rule:evenodd;fill:rgb(70.588235%,70.588235%,70.588235%);fill-opacity:1;" d="M 332.941406 112.390625 L 336.539062 113.03125 L 334.519531 115.050781 L 332.398438 112.929688 Z M 332.941406 112.390625 "/>
<path style=" stroke:none;fill-rule:evenodd;fill:rgb(70.588235%,70.588235%,70.588235%);fill-opacity:1;" d="M 307.648438 109.390625 L 309.78125 111.511719 L 306.238281 115.050781 L 304.121094 112.929688 Z M 307.648438 109.390625 "/>
<path style=" stroke:none;fill-rule:evenodd;fill:rgb(70.588235%,70.588235%,70.588235%);fill-opacity:1;" d="M 310.480469 106.570312 L 312.601562 108.691406 L 311.191406 110.101562 L 309.070312 107.980469 Z M 310.480469 106.570312 "/>
<path style=" stroke:none;fill-rule:evenodd;fill:rgb(70.588235%,70.588235%,70.588235%);fill-opacity:1;" d="M 315.429688 101.621094 L 317.550781 103.738281 L 314.019531 107.269531 L 311.898438 105.148438 Z M 315.429688 101.621094 "/>
<path style=" stroke:none;fill-rule:evenodd;fill:rgb(70.588235%,70.588235%,70.588235%);fill-opacity:1;" d="M 318.261719 98.789062 L 320.378906 100.910156 L 318.96875 102.320312 L 316.851562 100.199219 Z M 318.261719 98.789062 "/>
<path style=" stroke:none;fill-rule:evenodd;fill:rgb(70.588235%,70.588235%,70.588235%);fill-opacity:1;" d="M 346.550781 98.789062 L 347.570312 99.808594 L 345.390625 100.460938 L 345.128906 100.199219 Z M 346.550781 98.789062 "/>
<path style=" stroke:none;fill-rule:evenodd;fill:rgb(70.588235%,70.588235%,70.588235%);fill-opacity:1;" d="M 323.210938 93.839844 L 325.328125 95.960938 L 321.800781 99.488281 L 319.679688 97.371094 Z M 323.210938 93.839844 "/>
<path style=" stroke:none;fill-rule:evenodd;fill:rgb(70.588235%,70.588235%,70.588235%);fill-opacity:1;" d="M 351.5 93.839844 L 353.621094 95.960938 L 350.691406 98.878906 L 349.75 99.160156 L 347.960938 97.371094 Z M 351.5 93.839844 "/>
<path style=" stroke:none;fill-rule:evenodd;fill:rgb(70.588235%,70.588235%,70.588235%);fill-opacity:1;" d="M 354.320312 91.011719 L 356.449219 93.128906 L 355.03125 94.539062 L 352.910156 92.421875 Z M 354.320312 91.011719 "/>
<path style=" stroke:none;fill-rule:evenodd;fill:rgb(70.588235%,70.588235%,70.588235%);fill-opacity:1;" d="M 326.039062 91.011719 L 328.160156 93.128906 L 326.75 94.539062 L 324.628906 92.421875 Z M 326.039062 91.011719 "/>
<path style=" stroke:none;fill-rule:evenodd;fill:rgb(70.588235%,70.588235%,70.588235%);fill-opacity:1;" d="M 359.269531 86.058594 L 361.390625 88.179688 L 357.859375 91.71875 L 355.738281 89.589844 Z M 359.269531 86.058594 "/>
<path style=" stroke:none;fill-rule:evenodd;fill:rgb(70.588235%,70.588235%,70.588235%);fill-opacity:1;" d="M 330.988281 86.058594 L 333.109375 88.179688 L 329.570312 91.71875 L 327.449219 89.589844 Z M 330.988281 86.058594 "/>
<path style=" stroke:none;fill-rule:evenodd;fill:rgb(70.588235%,70.588235%,70.588235%);fill-opacity:1;" d="M 386.28125 87.339844 L 387.019531 88.078125 L 384.910156 88.710938 Z M 386.28125 87.339844 "/>
<path style=" stroke:none;fill-rule:evenodd;fill:rgb(70.588235%,70.588235%,70.588235%);fill-opacity:1;" d="M 362.101562 83.230469 L 364.21875 85.351562 L 362.808594 86.769531 L 360.691406 84.640625 Z M 362.101562 83.230469 "/>
<path style=" stroke:none;fill-rule:evenodd;fill:rgb(70.588235%,70.588235%,70.588235%);fill-opacity:1;" d="M 333.820312 83.230469 L 335.941406 85.351562 L 334.519531 86.769531 L 332.398438 84.640625 Z M 333.820312 83.230469 "/>
<path style=" stroke:none;fill-rule:evenodd;fill:rgb(70.588235%,70.588235%,70.588235%);fill-opacity:1;" d="M 363.929688 81.410156 L 367.339844 82.238281 L 365.640625 83.941406 L 363.519531 81.820312 Z M 363.929688 81.410156 "/>
<path style=" stroke:none;fill-rule:evenodd;fill:rgb(70.588235%,70.588235%,70.588235%);fill-opacity:1;" d="M 338.769531 78.28125 L 340.890625 80.398438 L 337.351562 83.941406 L 335.230469 81.820312 Z M 338.769531 78.28125 "/>
<path style=" stroke:none;fill-rule:evenodd;fill:rgb(70.588235%,70.588235%,70.588235%);fill-opacity:1;" d="M 341.128906 75.921875 L 342.371094 76.21875 L 343.71875 77.570312 L 342.300781 78.988281 L 340.179688 76.871094 Z M 341.128906 75.921875 "/>
<path style=" stroke:none;fill-rule:evenodd;fill:rgb(70.588235%,0%,0%);fill-opacity:1;" d="M 32.753906 123.199219 L 59.550781 167.863281 L 179.648438 100.371094 Z M 32.753906 123.199219 "/>
<path style=" stroke:none;fill-rule:evenodd;fill:rgb(70.588235%,70.588235%,70.588235%);fill-opacity:1;" d="M 60.511719 163.480469 L 62.628906 165.609375 L 61.441406 166.800781 L 61.160156 166.960938 L 59.101562 164.898438 Z M 60.511719 163.480469 "/>
<path style=" stroke:none;fill-rule:evenodd;fill:rgb(70.588235%,70.588235%,70.588235%);fill-opacity:1;" d="M 65.460938 158.53125 L 67.578125 160.660156 L 64.050781 164.191406 L 61.929688 162.070312 Z M 65.460938 158.53125 "/>
<path style=" stroke:none;fill-rule:evenodd;fill:rgb(70.588235%,70.588235%,70.588235%);fill-opacity:1;" d="M 68.289062 155.710938 L 70.410156 157.828125 L 69 159.238281 L 66.878906 157.121094 Z M 68.289062 155.710938 "/>
<path style=" stroke:none;fill-rule:evenodd;fill:rgb(70.588235%,70.588235%,70.588235%);fill-opacity:1;" d="M 73.238281 150.761719 L 75.359375 152.878906 L 71.828125 156.410156 L 69.710938 154.289062 Z M 73.238281 150.761719 "/>
<path style=" stroke:none;fill-rule:evenodd;fill:rgb(70.588235%,70.588235%,70.588235%);fill-opacity:1;" d="M 76.070312 147.929688 L 78.191406 150.050781 L 76.78125 151.460938 L 74.660156 149.339844 Z M 76.070312 147.929688 "/>
<path style=" stroke:none;fill-rule:evenodd;fill:rgb(70.588235%,70.588235%,70.588235%);fill-opacity:1;" d="M 47.78125 147.929688 L 49.910156 150.050781 L 49.25 150.699219 L 47.660156 148.050781 Z M 47.78125 147.929688 "/>
<path style=" stroke:none;fill-rule:evenodd;fill:rgb(70.588235%,70.588235%,70.588235%);fill-opacity:1;" d="M 81.019531 142.980469 L 83.140625 145.101562 L 79.601562 148.628906 L 77.480469 146.511719 Z M 81.019531 142.980469 "/>
<path style=" stroke:none;fill-rule:evenodd;fill:rgb(70.588235%,70.588235%,70.588235%);fill-opacity:1;" d="M 50.609375 145.101562 L 52.730469 147.21875 L 51.320312 148.628906 L 49.199219 146.511719 Z M 50.609375 145.101562 "/>
<path style=" stroke:none;fill-rule:evenodd;fill:rgb(70.588235%,70.588235%,70.588235%);fill-opacity:1;" d="M 55.558594 140.148438 L 57.679688 142.269531 L 54.148438 145.808594 L 52.03125 143.679688 Z M 55.558594 140.148438 "/>
<path style=" stroke:none;fill-rule:evenodd;fill:rgb(70.588235%,70.588235%,70.588235%);fill-opacity:1;" d="M 83.851562 140.148438 L 85.96875 142.269531 L 84.550781 143.679688 L 82.429688 141.558594 Z M 83.851562 140.148438 "/>
<path style=" stroke:none;fill-rule:evenodd;fill:rgb(70.588235%,70.588235%,70.588235%);fill-opacity:1;" d="M 88.800781 135.199219 L 90.921875 137.320312 L 87.378906 140.859375 L 85.261719 138.738281 Z M 88.800781 135.199219 "/>
<path style=" stroke:none;fill-rule:evenodd;fill:rgb(70.588235%,70.588235%,70.588235%);fill-opacity:1;" d="M 58.390625 137.320312 L 60.511719 139.441406 L 59.101562 140.859375 L 56.980469 138.738281 Z M 58.390625 137.320312 "/>
<path style=" stroke:none;fill-rule:evenodd;fill:rgb(70.588235%,70.588235%,70.588235%);fill-opacity:1;" d="M 63.339844 132.371094 L 65.460938 134.488281 L 61.929688 138.03125 L 59.808594 135.910156 Z M 63.339844 132.371094 "/>
<path style=" stroke:none;fill-rule:evenodd;fill:rgb(70.588235%,70.588235%,70.588235%);fill-opacity:1;" d="M 117.078125 135.199219 L 117.289062 135.410156 L 116.328125 135.949219 Z M 117.078125 135.199219 "/>
<path style=" stroke:none;fill-rule:evenodd;fill:rgb(70.588235%,70.588235%,70.588235%);fill-opacity:1;" d="M 91.628906 132.371094 L 93.75 134.488281 L 92.328125 135.910156 L 90.210938 133.789062 Z M 91.628906 132.371094 "/>
<path style=" stroke:none;fill-rule:evenodd;fill:rgb(70.588235%,70.588235%,70.588235%);fill-opacity:1;" d="M 119.910156 132.371094 L 120.921875 133.378906 L 119.101562 134.390625 L 118.5 133.789062 Z M 119.910156 132.371094 "/>
<path style=" stroke:none;fill-rule:evenodd;fill:rgb(70.588235%,70.588235%,70.588235%);fill-opacity:1;" d="M 96.578125 127.421875 L 98.699219 129.539062 L 95.160156 133.078125 L 93.039062 130.960938 Z M 96.578125 127.421875 "/>
<path style=" stroke:none;fill-rule:evenodd;fill:rgb(70.588235%,70.588235%,70.588235%);fill-opacity:1;" d="M 66.171875 129.539062 L 68.289062 131.660156 L 66.878906 133.078125 L 64.761719 130.960938 Z M 66.171875 129.539062 "/>
<path style=" stroke:none;fill-rule:evenodd;fill:rgb(70.588235%,70.588235%,70.588235%);fill-opacity:1;" d="M 40.011719 127.421875 L 42.128906 129.539062 L 38.648438 133.019531 L 37.058594 130.371094 Z M 40.011719 127.421875 "/>
<path style=" stroke:none;fill-rule:evenodd;fill:rgb(70.588235%,70.588235%,70.588235%);fill-opacity:1;" d="M 124.859375 127.421875 L 126.980469 129.539062 L 126.011719 130.511719 L 122.730469 132.359375 L 121.320312 130.960938 Z M 124.859375 127.421875 "/>
<path style=" stroke:none;fill-rule:evenodd;fill:rgb(70.588235%,70.588235%,70.588235%);fill-opacity:1;" d="M 71.121094 124.589844 L 73.238281 126.710938 L 69.710938 130.25 L 67.578125 128.128906 Z M 71.121094 124.589844 "/>
<path style=" stroke:none;fill-rule:evenodd;fill:rgb(70.588235%,70.588235%,70.588235%);fill-opacity:1;" d="M 127.691406 124.589844 L 129.808594 126.710938 L 128.398438 128.128906 L 126.269531 126.011719 Z M 127.691406 124.589844 "/>
<path style=" stroke:none;fill-rule:evenodd;fill:rgb(70.588235%,70.588235%,70.588235%);fill-opacity:1;" d="M 99.398438 124.589844 L 101.53125 126.710938 L 100.109375 128.128906 L 97.988281 126.011719 Z M 99.398438 124.589844 "/>
<path style=" stroke:none;fill-rule:evenodd;fill:rgb(70.588235%,70.588235%,70.588235%);fill-opacity:1;" d="M 42.839844 124.589844 L 44.960938 126.710938 L 43.539062 128.128906 L 41.421875 126.011719 Z M 42.839844 124.589844 "/>
<path style=" stroke:none;fill-rule:evenodd;fill:rgb(70.588235%,70.588235%,70.588235%);fill-opacity:1;" d="M 132.640625 119.640625 L 134.761719 121.761719 L 131.21875 125.300781 L 129.101562 123.179688 Z M 132.640625 119.640625 "/>
<path style=" stroke:none;fill-rule:evenodd;fill:rgb(70.588235%,70.588235%,70.588235%);fill-opacity:1;" d="M 104.351562 119.640625 L 106.46875 121.761719 L 102.941406 125.300781 L 100.820312 123.179688 Z M 104.351562 119.640625 "/>
<path style=" stroke:none;fill-rule:evenodd;fill:rgb(70.588235%,70.588235%,70.588235%);fill-opacity:1;" d="M 73.949219 121.761719 L 76.070312 123.890625 L 74.660156 125.300781 L 72.53125 123.179688 Z M 73.949219 121.761719 "/>
<path style=" stroke:none;fill-rule:evenodd;fill:rgb(70.588235%,70.588235%,70.588235%);fill-opacity:1;" d="M 48.839844 120.699219 L 49.910156 121.761719 L 46.371094 125.300781 L 44.25 123.179688 L 46.339844 121.089844 Z M 48.839844 120.699219 "/>
<path style=" stroke:none;fill-rule:evenodd;fill:rgb(70.588235%,70.588235%,70.588235%);fill-opacity:1;" d="M 78.898438 116.808594 L 81.019531 118.941406 L 77.480469 122.46875 L 75.359375 120.351562 Z M 78.898438 116.808594 "/>
<path style=" stroke:none;fill-rule:evenodd;fill:rgb(70.588235%,70.588235%,70.588235%);fill-opacity:1;" d="M 135.46875 116.808594 L 137.589844 118.941406 L 136.171875 120.351562 L 134.050781 118.230469 Z M 135.46875 116.808594 "/>
<path style=" stroke:none;fill-rule:evenodd;fill:rgb(70.588235%,70.588235%,70.588235%);fill-opacity:1;" d="M 107.179688 116.808594 L 109.300781 118.941406 L 107.890625 120.351562 L 105.769531 118.230469 Z M 107.179688 116.808594 "/>
<path style=" stroke:none;fill-rule:evenodd;fill:rgb(70.588235%,70.588235%,70.588235%);fill-opacity:1;" d="M 51.359375 120.308594 L 51.320312 120.351562 L 51.289062 120.320312 Z M 51.359375 120.308594 "/>
<path style=" stroke:none;fill-rule:evenodd;fill:rgb(70.588235%,70.588235%,70.588235%);fill-opacity:1;" d="M 140.421875 111.871094 L 142.539062 113.988281 L 139 117.519531 L 136.878906 115.398438 Z M 140.421875 111.871094 "/>
<path style=" stroke:none;fill-rule:evenodd;fill:rgb(70.588235%,70.588235%,70.588235%);fill-opacity:1;" d="M 112.128906 111.871094 L 114.25 113.988281 L 110.71875 117.519531 L 108.601562 115.398438 Z M 112.128906 111.871094 "/>
<path style=" stroke:none;fill-rule:evenodd;fill:rgb(70.588235%,70.588235%,70.588235%);fill-opacity:1;" d="M 83.109375 115.371094 L 83.851562 116.109375 L 82.429688 117.519531 L 80.660156 115.75 Z M 83.109375 115.371094 "/>
<path style=" stroke:none;fill-rule:evenodd;fill:rgb(70.588235%,70.588235%,70.588235%);fill-opacity:1;" d="M 143.238281 109.039062 L 145.371094 111.160156 L 143.949219 112.570312 L 141.828125 110.449219 Z M 143.238281 109.039062 "/>
<path style=" stroke:none;fill-rule:evenodd;fill:rgb(70.588235%,70.588235%,70.588235%);fill-opacity:1;" d="M 116.160156 110.238281 L 117.078125 111.160156 L 115.671875 112.570312 L 113.71875 110.621094 Z M 116.160156 110.238281 "/>
<path style=" stroke:none;fill-rule:evenodd;fill:rgb(70.588235%,70.588235%,70.588235%);fill-opacity:1;" d="M 149.210938 105.101562 L 150.320312 106.210938 L 146.78125 109.738281 L 144.660156 107.621094 L 146.808594 105.46875 Z M 149.210938 105.101562 "/>
<path style=" stroke:none;fill-rule:evenodd;fill:rgb(70.588235%,70.588235%,70.588235%);fill-opacity:1;" d="M 151.828125 104.691406 L 151.730469 104.789062 L 151.660156 104.71875 Z M 151.828125 104.691406 "/>
<path style=" stroke:none;fill-rule:evenodd;fill:rgb(70.588235%,0%,0%);fill-opacity:1;" d="M 152.851562 162.898438 L 0 195.652344 L 75.433594 224.4375 L 230.269531 186.71875 Z M 134.984375 180.765625 L 143.917969 194.660156 L 45.65625 200.617188 Z M 134.984375 180.765625 "/>
<path style=" stroke:none;fill-rule:evenodd;fill:rgb(70.588235%,70.588235%,70.588235%);fill-opacity:1;" d="M 63.820312 218.238281 L 65.941406 220.359375 L 65.609375 220.691406 L 62.539062 219.519531 Z M 63.820312 218.238281 "/>
<path style=" stroke:none;fill-rule:evenodd;fill:rgb(70.588235%,70.588235%,70.588235%);fill-opacity:1;" d="M 92.109375 218.238281 L 93.828125 219.960938 L 91.550781 220.511719 L 90.691406 219.648438 Z M 92.109375 218.238281 "/>
<path style=" stroke:none;fill-rule:evenodd;fill:rgb(70.588235%,70.588235%,70.588235%);fill-opacity:1;" d="M 97.058594 213.289062 L 99.179688 215.410156 L 95.640625 218.941406 L 93.519531 216.820312 Z M 97.058594 213.289062 "/>
<path style=" stroke:none;fill-rule:evenodd;fill:rgb(70.588235%,70.588235%,70.588235%);fill-opacity:1;" d="M 68.769531 213.289062 L 70.890625 215.410156 L 67.359375 218.941406 L 65.238281 216.820312 Z M 68.769531 213.289062 "/>
<path style=" stroke:none;fill-rule:evenodd;fill:rgb(70.588235%,70.588235%,70.588235%);fill-opacity:1;" d="M 99.878906 210.460938 L 102.011719 212.578125 L 100.589844 213.988281 L 98.46875 211.871094 Z M 99.878906 210.460938 "/>
<path style=" stroke:none;fill-rule:evenodd;fill:rgb(70.588235%,70.588235%,70.588235%);fill-opacity:1;" d="M 71.601562 210.460938 L 73.71875 212.578125 L 72.308594 213.988281 L 70.191406 211.871094 Z M 71.601562 210.460938 "/>
<path style=" stroke:none;fill-rule:evenodd;fill:rgb(70.588235%,70.588235%,70.588235%);fill-opacity:1;" d="M 43.320312 210.460938 L 45.441406 212.578125 L 45.140625 212.878906 L 42.070312 211.710938 Z M 43.320312 210.460938 "/>
<path style=" stroke:none;fill-rule:evenodd;fill:rgb(70.588235%,70.588235%,70.588235%);fill-opacity:1;" d="M 128.171875 210.460938 L 129.078125 211.371094 L 126.800781 211.921875 L 126.75 211.871094 Z M 128.171875 210.460938 "/>
<path style=" stroke:none;fill-rule:evenodd;fill:rgb(70.588235%,70.588235%,70.588235%);fill-opacity:1;" d="M 104.828125 205.511719 L 106.960938 207.628906 L 103.421875 211.160156 L 101.300781 209.039062 Z M 104.828125 205.511719 "/>
<path style=" stroke:none;fill-rule:evenodd;fill:rgb(70.588235%,70.588235%,70.588235%);fill-opacity:1;" d="M 76.550781 205.511719 L 78.671875 207.628906 L 75.140625 211.160156 L 73.011719 209.039062 Z M 76.550781 205.511719 "/>
<path style=" stroke:none;fill-rule:evenodd;fill:rgb(70.588235%,70.588235%,70.588235%);fill-opacity:1;" d="M 48.269531 205.511719 L 50.390625 207.628906 L 46.851562 211.160156 L 44.730469 209.039062 Z M 48.269531 205.511719 "/>
<path style=" stroke:none;fill-rule:evenodd;fill:rgb(70.588235%,70.588235%,70.588235%);fill-opacity:1;" d="M 133.121094 205.511719 L 135.238281 207.628906 L 132.269531 210.589844 L 131.359375 210.820312 L 129.578125 209.039062 Z M 133.121094 205.511719 "/>
<path style=" stroke:none;fill-rule:evenodd;fill:rgb(70.588235%,70.588235%,70.588235%);fill-opacity:1;" d="M 135.949219 202.679688 L 138.070312 204.800781 L 136.648438 206.210938 L 134.53125 204.089844 Z M 135.949219 202.679688 "/>
<path style=" stroke:none;fill-rule:evenodd;fill:rgb(70.588235%,70.588235%,70.588235%);fill-opacity:1;" d="M 107.660156 202.679688 L 109.78125 204.800781 L 108.371094 206.210938 L 106.25 204.089844 Z M 107.660156 202.679688 "/>
<path style=" stroke:none;fill-rule:evenodd;fill:rgb(70.588235%,70.588235%,70.588235%);fill-opacity:1;" d="M 79.378906 202.679688 L 81.5 204.800781 L 80.089844 206.210938 L 77.960938 204.089844 Z M 79.378906 202.679688 "/>
<path style=" stroke:none;fill-rule:evenodd;fill:rgb(70.588235%,70.588235%,70.588235%);fill-opacity:1;" d="M 51.089844 202.679688 L 53.210938 204.800781 L 51.800781 206.210938 L 49.679688 204.089844 Z M 51.089844 202.679688 "/>
<path style=" stroke:none;fill-rule:evenodd;fill:rgb(70.588235%,70.588235%,70.588235%);fill-opacity:1;" d="M 22.808594 202.679688 L 24.929688 204.800781 L 24.671875 205.058594 L 21.601562 203.890625 Z M 22.808594 202.679688 "/>
<path style=" stroke:none;fill-rule:evenodd;fill:rgb(70.588235%,70.588235%,70.588235%);fill-opacity:1;" d="M 140.898438 197.730469 L 143.019531 199.851562 L 139.480469 203.390625 L 137.359375 201.269531 Z M 140.898438 197.730469 "/>
<path style=" stroke:none;fill-rule:evenodd;fill:rgb(70.588235%,70.588235%,70.588235%);fill-opacity:1;" d="M 112.609375 197.730469 L 114.730469 199.851562 L 111.199219 203.390625 L 109.078125 201.269531 Z M 112.609375 197.730469 "/>
<path style=" stroke:none;fill-rule:evenodd;fill:rgb(70.588235%,70.588235%,70.588235%);fill-opacity:1;" d="M 84.839844 198.238281 L 86.449219 199.851562 L 82.910156 203.390625 L 80.789062 201.269531 L 83.75 198.308594 Z M 84.839844 198.238281 "/>
<path style=" stroke:none;fill-rule:evenodd;fill:rgb(70.588235%,70.588235%,70.588235%);fill-opacity:1;" d="M 58.148438 199.859375 L 54.628906 203.390625 L 52.511719 201.269531 L 53.640625 200.140625 Z M 58.148438 199.859375 "/>
<path style=" stroke:none;fill-rule:evenodd;fill:rgb(70.588235%,70.588235%,70.588235%);fill-opacity:1;" d="M 27.761719 197.730469 L 29.878906 199.851562 L 26.339844 203.390625 L 24.21875 201.269531 Z M 27.761719 197.730469 "/>
<path style=" stroke:none;fill-rule:evenodd;fill:rgb(70.588235%,70.588235%,70.588235%);fill-opacity:1;" d="M 164.230469 202.679688 L 164.328125 202.78125 L 164.058594 202.851562 Z M 164.230469 202.679688 "/>
<path style=" stroke:none;fill-rule:evenodd;fill:rgb(70.588235%,70.588235%,70.588235%);fill-opacity:1;" d="M 169.179688 197.730469 L 171.300781 199.851562 L 169.671875 201.480469 L 166.601562 202.230469 L 165.640625 201.269531 Z M 169.179688 197.730469 "/>
<path style=" stroke:none;fill-rule:evenodd;fill:rgb(70.588235%,70.588235%,70.588235%);fill-opacity:1;" d="M 56.039062 197.730469 L 56.519531 198.210938 L 55.289062 198.480469 Z M 56.039062 197.730469 "/>
<path style=" stroke:none;fill-rule:evenodd;fill:rgb(70.588235%,70.588235%,70.588235%);fill-opacity:1;" d="M 172.011719 194.898438 L 174.128906 197.019531 L 172.71875 198.441406 L 170.589844 196.320312 Z M 172.011719 194.898438 "/>
<path style=" stroke:none;fill-rule:evenodd;fill:rgb(70.588235%,70.588235%,70.588235%);fill-opacity:1;" d="M 143.71875 194.898438 L 145.851562 197.019531 L 144.429688 198.441406 L 142.308594 196.320312 Z M 143.71875 194.898438 "/>
<path style=" stroke:none;fill-rule:evenodd;fill:rgb(70.588235%,70.588235%,70.588235%);fill-opacity:1;" d="M 116.839844 196.300781 L 117.558594 197.019531 L 116.148438 198.441406 L 114.171875 196.460938 Z M 116.839844 196.300781 "/>
<path style=" stroke:none;fill-rule:evenodd;fill:rgb(70.588235%,70.588235%,70.588235%);fill-opacity:1;" d="M 88.261719 198.039062 L 87.859375 198.441406 L 87.5 198.078125 Z M 88.261719 198.039062 "/>
<path style=" stroke:none;fill-rule:evenodd;fill:rgb(70.588235%,70.588235%,70.588235%);fill-opacity:1;" d="M 30.589844 194.898438 L 32.710938 197.019531 L 31.289062 198.441406 L 29.171875 196.320312 Z M 30.589844 194.898438 "/>
<path style=" stroke:none;fill-rule:evenodd;fill:rgb(70.588235%,70.588235%,70.588235%);fill-opacity:1;" d="M 58.871094 194.898438 L 60.988281 197.019531 L 60.75 197.269531 L 58.828125 197.691406 L 57.460938 196.320312 Z M 58.871094 194.898438 "/>
<path style=" stroke:none;fill-rule:evenodd;fill:rgb(70.588235%,70.588235%,70.588235%);fill-opacity:1;" d="M 2.511719 195.109375 L 4.421875 197.019531 L 4.191406 197.25 L 1.128906 196.078125 L 1.980469 195.230469 Z M 2.511719 195.109375 "/>
<path style=" stroke:none;fill-rule:evenodd;fill:rgb(70.588235%,70.588235%,70.588235%);fill-opacity:1;" d="M 176.960938 189.949219 L 179.078125 192.070312 L 175.539062 195.609375 L 173.421875 193.488281 Z M 176.960938 189.949219 "/>
<path style=" stroke:none;fill-rule:evenodd;fill:rgb(70.588235%,70.588235%,70.588235%);fill-opacity:1;" d="M 148.671875 189.949219 L 150.800781 192.070312 L 147.261719 195.609375 L 145.140625 193.488281 Z M 148.671875 189.949219 "/>
<path style=" stroke:none;fill-rule:evenodd;fill:rgb(70.588235%,70.588235%,70.588235%);fill-opacity:1;" d="M 63.820312 189.949219 L 65.941406 192.070312 L 62.410156 195.609375 L 60.289062 193.488281 Z M 63.820312 189.949219 "/>
<path style=" stroke:none;fill-rule:evenodd;fill:rgb(70.588235%,70.588235%,70.588235%);fill-opacity:1;" d="M 35.539062 189.949219 L 37.660156 192.070312 L 34.121094 195.609375 L 32 193.488281 Z M 35.539062 189.949219 "/>
<path style=" stroke:none;fill-rule:evenodd;fill:rgb(70.588235%,70.588235%,70.588235%);fill-opacity:1;" d="M 7.378906 194.070312 L 5.839844 195.609375 L 4.839844 194.609375 Z M 7.378906 194.070312 "/>
<path style=" stroke:none;fill-rule:evenodd;fill:rgb(70.588235%,70.588235%,70.588235%);fill-opacity:1;" d="M 201.828125 193.371094 L 202.050781 193.589844 L 201.460938 193.738281 Z M 201.828125 193.371094 "/>
<path style=" stroke:none;fill-rule:evenodd;fill:rgb(70.588235%,70.588235%,70.588235%);fill-opacity:1;" d="M 204.660156 190.539062 L 206.601562 192.480469 L 204.328125 193.039062 L 203.238281 191.949219 Z M 204.660156 190.539062 "/>
<path style=" stroke:none;fill-rule:evenodd;fill:rgb(70.588235%,70.588235%,70.588235%);fill-opacity:1;" d="M 209.601562 185.589844 L 211.730469 187.710938 L 208.191406 191.25 L 206.070312 189.121094 Z M 209.601562 185.589844 "/>
<path style=" stroke:none;fill-rule:evenodd;fill:rgb(70.588235%,70.588235%,70.588235%);fill-opacity:1;" d="M 179.789062 187.121094 L 181.910156 189.238281 L 180.488281 190.660156 L 178.371094 188.539062 Z M 179.789062 187.121094 "/>
<path style=" stroke:none;fill-rule:evenodd;fill:rgb(70.588235%,70.588235%,70.588235%);fill-opacity:1;" d="M 151.5 187.121094 L 153.621094 189.238281 L 152.210938 190.660156 L 150.089844 188.539062 Z M 151.5 187.121094 "/>
<path style=" stroke:none;fill-rule:evenodd;fill:rgb(70.588235%,70.588235%,70.588235%);fill-opacity:1;" d="M 66.648438 187.121094 L 68.769531 189.238281 L 67.359375 190.660156 L 65.238281 188.539062 Z M 66.648438 187.121094 "/>
<path style=" stroke:none;fill-rule:evenodd;fill:rgb(70.588235%,70.588235%,70.588235%);fill-opacity:1;" d="M 38.621094 187.371094 L 40.488281 189.238281 L 39.070312 190.660156 L 36.949219 188.539062 L 37.980469 187.511719 Z M 38.621094 187.371094 "/>
<path style=" stroke:none;fill-rule:evenodd;fill:rgb(70.588235%,70.588235%,70.588235%);fill-opacity:1;" d="M 92.109375 189.949219 L 92.390625 190.230469 L 91.671875 190.390625 Z M 92.109375 189.949219 "/>
<path style=" stroke:none;fill-rule:evenodd;fill:rgb(70.588235%,70.588235%,70.588235%);fill-opacity:1;" d="M 94.929688 187.121094 L 97.019531 189.199219 L 94.699219 189.71875 L 93.519531 188.539062 Z M 94.929688 187.121094 "/>
<path style=" stroke:none;fill-rule:evenodd;fill:rgb(70.588235%,70.588235%,70.588235%);fill-opacity:1;" d="M 184.738281 182.171875 L 186.859375 184.289062 L 183.320312 187.828125 L 181.199219 185.710938 Z M 184.738281 182.171875 "/>
<path style=" stroke:none;fill-rule:evenodd;fill:rgb(70.588235%,70.588235%,70.588235%);fill-opacity:1;" d="M 156.449219 182.171875 L 158.570312 184.289062 L 155.039062 187.828125 L 152.921875 185.710938 Z M 156.449219 182.171875 "/>
<path style=" stroke:none;fill-rule:evenodd;fill:rgb(70.588235%,70.588235%,70.588235%);fill-opacity:1;" d="M 99.878906 182.171875 L 102.011719 184.289062 L 98.46875 187.828125 L 96.351562 185.710938 Z M 99.878906 182.171875 "/>
<path style=" stroke:none;fill-rule:evenodd;fill:rgb(70.588235%,70.588235%,70.588235%);fill-opacity:1;" d="M 71.601562 182.171875 L 73.71875 184.289062 L 70.191406 187.828125 L 68.058594 185.710938 Z M 71.601562 182.171875 "/>
<path style=" stroke:none;fill-rule:evenodd;fill:rgb(70.588235%,70.588235%,70.588235%);fill-opacity:1;" d="M 43.371094 186.359375 L 41.898438 187.828125 L 40.949219 186.878906 Z M 43.371094 186.359375 "/>
<path style=" stroke:none;fill-rule:evenodd;fill:rgb(70.588235%,70.588235%,70.588235%);fill-opacity:1;" d="M 212.429688 182.761719 L 214.550781 184.878906 L 213.140625 186.300781 L 211.019531 184.179688 Z M 212.429688 182.761719 "/>
<path style=" stroke:none;fill-rule:evenodd;fill:rgb(70.588235%,70.588235%,70.588235%);fill-opacity:1;" d="M 214.308594 181.808594 L 216.851562 182.589844 L 215.96875 183.46875 Z M 214.308594 181.808594 "/>
<path style=" stroke:none;fill-rule:evenodd;fill:rgb(70.588235%,70.588235%,70.588235%);fill-opacity:1;" d="M 187.570312 179.339844 L 189.691406 181.46875 L 188.269531 182.878906 L 186.148438 180.761719 Z M 187.570312 179.339844 "/>
<path style=" stroke:none;fill-rule:evenodd;fill:rgb(70.588235%,70.588235%,70.588235%);fill-opacity:1;" d="M 159.28125 179.339844 L 161.398438 181.46875 L 159.988281 182.878906 L 157.871094 180.761719 Z M 159.28125 179.339844 "/>
<path style=" stroke:none;fill-rule:evenodd;fill:rgb(70.588235%,70.588235%,70.588235%);fill-opacity:1;" d="M 102.710938 179.339844 L 104.828125 181.46875 L 103.421875 182.878906 L 101.300781 180.761719 Z M 102.710938 179.339844 "/>
<path style=" stroke:none;fill-rule:evenodd;fill:rgb(70.588235%,70.588235%,70.588235%);fill-opacity:1;" d="M 74.730469 179.640625 L 76.550781 181.46875 L 75.140625 182.878906 L 73.011719 180.761719 L 73.96875 179.800781 Z M 74.730469 179.640625 "/>
<path style=" stroke:none;fill-rule:evenodd;fill:rgb(70.588235%,70.588235%,70.588235%);fill-opacity:1;" d="M 128.171875 182.171875 L 128.261719 182.261719 L 128.03125 182.308594 Z M 128.171875 182.171875 "/>
<path style=" stroke:none;fill-rule:evenodd;fill:rgb(70.588235%,70.588235%,70.588235%);fill-opacity:1;" d="M 131 179.339844 L 132.878906 181.230469 L 130.558594 181.738281 L 129.578125 180.761719 Z M 131 179.339844 "/>
<path style=" stroke:none;fill-rule:evenodd;fill:rgb(70.588235%,70.588235%,70.588235%);fill-opacity:1;" d="M 191.96875 174.941406 L 193.550781 175.421875 L 194.640625 176.519531 L 191.101562 180.050781 L 188.980469 177.929688 Z M 191.96875 174.941406 "/>
<path style=" stroke:none;fill-rule:evenodd;fill:rgb(70.588235%,70.588235%,70.588235%);fill-opacity:1;" d="M 164.230469 174.390625 L 166.351562 176.519531 L 162.820312 180.050781 L 160.699219 177.929688 Z M 164.230469 174.390625 "/>
<path style=" stroke:none;fill-rule:evenodd;fill:rgb(70.588235%,70.588235%,70.588235%);fill-opacity:1;" d="M 135.949219 174.390625 L 138.070312 176.519531 L 134.53125 180.050781 L 132.410156 177.929688 Z M 135.949219 174.390625 "/>
<path style=" stroke:none;fill-rule:evenodd;fill:rgb(70.588235%,70.588235%,70.588235%);fill-opacity:1;" d="M 107.660156 174.390625 L 109.78125 176.519531 L 106.25 180.050781 L 104.128906 177.929688 Z M 107.660156 174.390625 "/>
<path style=" stroke:none;fill-rule:evenodd;fill:rgb(70.588235%,70.588235%,70.588235%);fill-opacity:1;" d="M 79.371094 178.640625 L 77.960938 180.050781 L 77.050781 179.140625 Z M 79.371094 178.640625 "/>
<path style=" stroke:none;fill-rule:evenodd;fill:rgb(70.588235%,70.588235%,70.588235%);fill-opacity:1;" d="M 167.058594 171.570312 L 169.179688 173.691406 L 167.769531 175.101562 L 165.640625 172.980469 Z M 167.058594 171.570312 "/>
<path style=" stroke:none;fill-rule:evenodd;fill:rgb(70.588235%,70.588235%,70.588235%);fill-opacity:1;" d="M 138.769531 171.570312 L 140.898438 173.691406 L 139.480469 175.101562 L 137.359375 172.980469 Z M 138.769531 171.570312 "/>
<path style=" stroke:none;fill-rule:evenodd;fill:rgb(70.588235%,70.588235%,70.588235%);fill-opacity:1;" d="M 110.820312 171.898438 L 112.609375 173.691406 L 111.199219 175.101562 L 109.078125 172.980469 L 109.96875 172.089844 Z M 110.820312 171.898438 "/>
<path style=" stroke:none;fill-rule:evenodd;fill:rgb(70.588235%,70.588235%,70.588235%);fill-opacity:1;" d="M 170.339844 168.28125 L 173.589844 169.28125 L 170.589844 172.269531 L 168.46875 170.148438 Z M 170.339844 168.28125 "/>
<path style=" stroke:none;fill-rule:evenodd;fill:rgb(70.588235%,70.588235%,70.588235%);fill-opacity:1;" d="M 143.71875 166.621094 L 145.851562 168.738281 L 142.308594 172.269531 L 140.191406 170.148438 Z M 143.71875 166.621094 "/>
<path style=" stroke:none;fill-rule:evenodd;fill:rgb(70.588235%,70.588235%,70.588235%);fill-opacity:1;" d="M 115.371094 170.929688 L 114.03125 172.269531 L 113.160156 171.398438 Z M 115.371094 170.929688 "/>
<path style=" stroke:none;fill-rule:evenodd;fill:rgb(70.588235%,70.588235%,70.588235%);fill-opacity:1;" d="M 146.929688 164.171875 L 148.671875 165.910156 L 147.261719 167.320312 L 145.140625 165.199219 L 145.960938 164.378906 Z M 146.929688 164.171875 "/>
<path style=" stroke:none;fill-rule:evenodd;fill:rgb(70.588235%,70.588235%,70.588235%);fill-opacity:1;" d="M 151.371094 163.21875 L 150.089844 164.5 L 149.261719 163.671875 Z M 151.371094 163.21875 "/>
</g>
</defs>
<g id="surface2">
<rect x="0" y="0" width="400" height="300" style="fill:rgb(100%,100%,100%);fill-opacity:1;stroke:none;"/>
<use xlink:href="#surface6"/>
</g>
</svg>
