<?xml version="1.0" encoding="UTF-8"?>
<svg xmlns="http://www.w3.org/2000/svg" xmlns:xlink="http://www.w3.org/1999/xlink" width="400pt" height="300pt" viewBox="0 0 400 300" version="1.1">
<g id="surface2">
<rect x="0" y="0" width="400" height="300" style="fill:rgb(100%,100%,0%);fill-opacity:1;stroke:none;"/>
<path style="fill:none;stroke-width:1;stroke-linecap:round;stroke-linejoin:round;stroke:rgb(70.588235%,0%,0%);stroke-opacity:1;stroke-miterlimit:10;" d="M 203.785156 108.355469 L 203.683594 108.324219 L 203.632812 108.316406 L 203.578125 108.308594 L 203.527344 108.304688 L 203.472656 108.300781 L 203.421875 108.304688 L 203.367188 108.308594 L 203.316406 108.3125 L 203.261719 108.324219 L 203.210938 108.335938 L 203.160156 108.351562 L 203.109375 108.371094 L 203.0625 108.390625 L 203.011719 108.414062 L 202.964844 108.4375 L 202.921875 108.464844 L 202.835938 108.527344 L 202.796875 108.5625 L 202.757812 108.601562 L 202.6875 108.679688 L 202.625 108.765625 L 202.597656 108.8125 L 202.550781 108.90625 L 202.53125 108.957031 L 195.585938 127.816406 L 195.566406 127.863281 L 195.550781 127.917969 L 195.542969 127.96875 L 195.53125 128.019531 L 195.527344 128.074219 L 195.523438 128.125 L 195.523438 128.234375 L 195.53125 128.285156 L 195.539062 128.339844 L 195.5625 128.441406 L 195.578125 128.492188 L 195.597656 128.542969 L 195.644531 128.636719 L 195.699219 128.730469 L 195.730469 128.773438 L 195.800781 128.851562 L 195.839844 128.890625 L 195.878906 128.925781 L 195.917969 128.957031 L 195.964844 128.988281 L 196.007812 129.019531 L 210.894531 137.949219 L 210.941406 137.976562 L 210.988281 138 L 211.039062 138.023438 L 211.191406 138.070312 L 211.242188 138.078125 L 211.296875 138.085938 L 211.347656 138.089844 L 211.402344 138.09375 L 211.457031 138.09375 L 211.507812 138.089844 L 211.5625 138.082031 L 211.613281 138.074219 L 211.664062 138.058594 L 211.714844 138.046875 L 211.816406 138.007812 L 211.910156 137.960938 L 211.957031 137.929688 L 212 137.902344 L 212.042969 137.867188 L 212.082031 137.835938 L 212.121094 137.796875 L 212.191406 137.71875 L 228.070312 117.867188 L 228.132812 117.78125 L 228.160156 117.738281 L 228.207031 117.644531 L 228.226562 117.597656 L 228.242188 117.546875 L 228.257812 117.5 L 228.269531 117.449219 L 228.277344 117.398438 L 228.285156 117.34375 L 228.292969 117.242188 L 228.289062 117.1875 L 228.285156 117.136719 L 228.269531 117.035156 L 228.257812 116.984375 L 228.242188 116.933594 L 228.226562 116.886719 L 228.207031 116.835938 L 228.183594 116.789062 L 228.160156 116.746094 L 228.132812 116.699219 L 228.101562 116.65625 L 228.070312 116.617188 L 228 116.539062 L 227.964844 116.503906 L 227.925781 116.46875 L 227.839844 116.40625 L 227.796875 116.378906 L 227.703125 116.332031 L 227.65625 116.3125 L 227.605469 116.292969 L 203.785156 108.355469 "/>
<path style="fill:none;stroke-width:1;stroke-linecap:round;stroke-linejoin:round;stroke:rgb(70.588235%,0%,0%);stroke-opacity:1;stroke-miterlimit:10;" d="M 204.074219 110.558594 L 197.746094 127.730469 L 211.175781 135.785156 L 225.613281 117.738281 L 204.074219 110.558594 "/>
<path style="fill:none;stroke-width:1;stroke-linecap:round;stroke-linejoin:round;stroke:rgb(70.588235%,0%,0%);stroke-opacity:1;stroke-miterlimit:10;" d="M 335.710938 73.589844 L 335.660156 73.582031 L 335.609375 73.570312 L 335.507812 73.5625 L 335.453125 73.5625 L 335.351562 73.570312 L 335.300781 73.578125 L 335.199219 73.601562 L 335.148438 73.617188 L 335.054688 73.65625 L 335.007812 73.679688 L 334.960938 73.707031 L 334.917969 73.734375 L 334.875 73.765625 L 334.835938 73.796875 L 334.796875 73.832031 L 279.214844 125.441406 L 279.175781 125.480469 L 279.140625 125.519531 L 279.109375 125.558594 L 279.046875 125.644531 L 279.023438 125.6875 L 278.996094 125.734375 L 278.976562 125.78125 L 278.957031 125.832031 L 278.925781 125.933594 L 278.914062 125.984375 L 278.898438 126.085938 L 278.894531 126.140625 L 278.894531 126.191406 L 278.898438 126.242188 L 278.902344 126.296875 L 278.910156 126.347656 L 278.933594 126.449219 L 278.949219 126.5 L 278.96875 126.546875 L 278.988281 126.597656 L 279.011719 126.644531 L 279.039062 126.6875 L 279.066406 126.734375 L 279.097656 126.777344 L 279.128906 126.816406 L 279.199219 126.894531 L 279.238281 126.929688 L 279.277344 126.960938 L 279.363281 127.023438 L 279.410156 127.050781 L 279.457031 127.074219 L 279.550781 127.113281 L 279.601562 127.132812 L 279.703125 127.15625 L 279.753906 127.164062 L 279.808594 127.171875 L 279.859375 127.175781 L 279.914062 127.175781 L 399.015625 125.191406 L 399.070312 125.1875 L 399.121094 125.183594 L 399.171875 125.175781 L 399.226562 125.164062 L 399.277344 125.152344 L 399.328125 125.136719 L 399.375 125.117188 L 399.425781 125.097656 L 399.472656 125.074219 L 399.515625 125.046875 L 399.5625 125.019531 L 399.605469 124.988281 L 399.722656 124.882812 L 399.757812 124.84375 L 399.789062 124.800781 L 399.820312 124.761719 L 399.851562 124.714844 L 399.878906 124.671875 L 399.902344 124.625 L 399.921875 124.574219 L 399.941406 124.527344 L 399.972656 124.425781 L 399.984375 124.375 L 399.992188 124.324219 L 399.996094 124.269531 L 400 124.21875 L 400 124.164062 L 399.996094 124.113281 L 399.992188 124.058594 L 399.984375 124.007812 L 399.972656 123.957031 L 399.941406 123.855469 L 399.921875 123.804688 L 399.902344 123.757812 L 399.878906 123.710938 L 399.851562 123.667969 L 399.824219 123.621094 L 399.792969 123.578125 L 399.6875 123.460938 L 399.648438 123.425781 L 399.5625 123.363281 L 399.519531 123.335938 L 399.472656 123.308594 L 399.425781 123.285156 L 399.378906 123.265625 L 399.328125 123.246094 L 399.226562 123.214844 L 399.175781 123.207031 L 319.953125 109.058594 L 389.359375 88.425781 L 389.410156 88.410156 L 389.457031 88.390625 L 389.507812 88.367188 L 389.550781 88.34375 L 389.597656 88.320312 L 389.726562 88.226562 L 389.835938 88.117188 L 389.898438 88.03125 L 389.925781 87.988281 L 389.953125 87.941406 L 389.976562 87.898438 L 390 87.847656 L 390.015625 87.800781 L 390.035156 87.75 L 390.058594 87.648438 L 390.066406 87.597656 L 390.070312 87.542969 L 390.074219 87.492188 L 390.074219 87.441406 L 390.070312 87.386719 L 390.066406 87.335938 L 390.058594 87.285156 L 390.035156 87.183594 L 390.015625 87.132812 L 390 87.082031 L 389.953125 86.988281 L 389.925781 86.945312 L 389.898438 86.898438 L 389.867188 86.859375 L 389.835938 86.816406 L 389.800781 86.777344 L 389.683594 86.671875 L 389.640625 86.640625 L 389.597656 86.613281 L 389.550781 86.585938 L 389.503906 86.5625 L 389.410156 86.523438 L 389.359375 86.507812 L 389.308594 86.496094 L 335.710938 73.589844 "/>
<path style="fill:none;stroke-width:1;stroke-linecap:round;stroke-linejoin:round;stroke:rgb(70.588235%,0%,0%);stroke-opacity:1;stroke-miterlimit:10;" d="M 335.765625 75.660156 L 282.488281 125.132812 L 388.675781 123.363281 L 315.449219 110.285156 L 315.398438 110.277344 L 315.347656 110.261719 L 315.300781 110.246094 L 315.25 110.226562 L 315.203125 110.207031 L 315.15625 110.183594 L 315.109375 110.15625 L 315.066406 110.128906 L 314.980469 110.066406 L 314.941406 110.03125 L 314.90625 109.996094 L 314.871094 109.957031 L 314.835938 109.914062 L 314.804688 109.871094 L 314.75 109.785156 L 314.726562 109.738281 L 314.703125 109.6875 L 314.6875 109.640625 L 314.667969 109.589844 L 314.644531 109.488281 L 314.636719 109.4375 L 314.628906 109.382812 L 314.628906 109.226562 L 314.644531 109.125 L 314.652344 109.070312 L 314.667969 109.019531 L 314.683594 108.972656 L 314.703125 108.921875 L 314.722656 108.875 L 314.746094 108.828125 L 314.773438 108.78125 L 314.800781 108.738281 L 314.832031 108.695312 L 314.863281 108.65625 L 314.898438 108.617188 L 314.9375 108.578125 L 314.976562 108.542969 L 315.015625 108.511719 L 315.101562 108.449219 L 315.148438 108.425781 L 315.195312 108.398438 L 315.242188 108.378906 L 315.292969 108.359375 L 315.34375 108.34375 L 385.222656 87.566406 L 335.765625 75.660156 "/>
<path style="fill:none;stroke-width:1;stroke-linecap:round;stroke-linejoin:round;stroke:rgb(70.588235%,0%,0%);stroke-opacity:1;stroke-miterlimit:10;" d="M 32.601562 122.210938 L 32.546875 122.21875 L 32.496094 122.230469 L 32.445312 122.246094 L 32.394531 122.265625 L 32.347656 122.285156 L 32.253906 122.332031 L 32.207031 122.359375 L 32.121094 122.421875 L 32.042969 122.492188 L 31.972656 122.570312 L 31.910156 122.65625 L 31.882812 122.703125 L 31.835938 122.796875 L 31.816406 122.847656 L 31.785156 122.949219 L 31.773438 123 L 31.765625 123.050781 L 31.757812 123.105469 L 31.753906 123.15625 L 31.753906 123.261719 L 31.761719 123.316406 L 31.777344 123.417969 L 31.824219 123.570312 L 31.847656 123.617188 L 31.871094 123.667969 L 31.894531 123.710938 L 58.695312 168.375 L 58.722656 168.421875 L 58.753906 168.464844 L 58.789062 168.507812 L 58.824219 168.546875 L 58.898438 168.621094 L 59.027344 168.714844 L 59.074219 168.738281 L 59.121094 168.765625 L 59.171875 168.785156 L 59.21875 168.804688 L 59.320312 168.835938 L 59.375 168.847656 L 59.425781 168.855469 L 59.480469 168.859375 L 59.53125 168.863281 L 59.585938 168.863281 L 59.636719 168.859375 L 59.691406 168.851562 L 59.742188 168.84375 L 59.796875 168.832031 L 59.898438 168.800781 L 59.945312 168.78125 L 59.996094 168.757812 L 60.042969 168.734375 L 180.140625 101.242188 L 180.183594 101.214844 L 180.269531 101.152344 L 180.308594 101.121094 L 180.347656 101.085938 L 180.386719 101.046875 L 180.417969 101.007812 L 180.453125 100.964844 L 180.480469 100.921875 L 180.511719 100.878906 L 180.558594 100.785156 L 180.578125 100.738281 L 180.597656 100.6875 L 180.613281 100.636719 L 180.636719 100.535156 L 180.644531 100.484375 L 180.648438 100.429688 L 180.648438 100.324219 L 180.644531 100.273438 L 180.636719 100.222656 L 180.628906 100.167969 L 180.617188 100.117188 L 180.601562 100.066406 L 180.585938 100.019531 L 180.566406 99.96875 L 180.519531 99.875 L 180.492188 99.832031 L 180.460938 99.785156 L 180.429688 99.746094 L 180.394531 99.703125 L 180.359375 99.667969 L 180.324219 99.628906 L 180.28125 99.597656 L 180.242188 99.5625 L 180.199219 99.535156 L 180.152344 99.507812 L 180.109375 99.480469 L 180.058594 99.457031 L 180.011719 99.4375 L 179.960938 99.417969 L 179.914062 99.40625 L 179.859375 99.390625 L 179.757812 99.375 L 179.707031 99.371094 L 179.601562 99.371094 L 179.546875 99.375 L 179.496094 99.382812 L 32.601562 122.210938 "/>
<path style="fill:none;stroke-width:1;stroke-linecap:round;stroke-linejoin:round;stroke:rgb(70.588235%,0%,0%);stroke-opacity:1;stroke-miterlimit:10;" d="M 34.375 123.957031 L 59.910156 166.515625 L 174.339844 102.207031 L 34.375 123.957031 "/>
<path style="fill:none;stroke-width:1;stroke-linecap:round;stroke-linejoin:round;stroke:rgb(70.588235%,0%,0%);stroke-opacity:1;stroke-miterlimit:10;" d="M 153.144531 161.945312 L 153.097656 161.929688 L 153.046875 161.917969 L 152.945312 161.902344 L 152.894531 161.898438 L 152.84375 161.898438 L 152.691406 161.910156 L 152.640625 161.921875 L -0.210938 194.675781 L -0.261719 194.6875 L -0.3125 194.703125 L -0.359375 194.71875 L -0.410156 194.738281 L -0.457031 194.761719 L -0.5 194.789062 L -0.546875 194.816406 L -0.589844 194.84375 L -0.628906 194.875 L -0.671875 194.910156 L -0.746094 194.984375 L -0.777344 195.023438 L -0.839844 195.109375 L -0.867188 195.15625 L -0.890625 195.199219 L -0.914062 195.246094 L -0.933594 195.296875 L -0.953125 195.34375 L -0.964844 195.394531 L -0.980469 195.445312 L -0.988281 195.5 L -0.996094 195.550781 L -1 195.601562 L -1 195.707031 L -0.996094 195.757812 L -0.988281 195.8125 L -0.964844 195.914062 L -0.949219 195.964844 L -0.933594 196.011719 L -0.914062 196.0625 L -0.890625 196.109375 L -0.863281 196.15625 L -0.808594 196.242188 L -0.777344 196.285156 L -0.707031 196.363281 L -0.667969 196.398438 L -0.628906 196.429688 L -0.585938 196.464844 L -0.5 196.519531 L -0.40625 196.566406 L -0.355469 196.585938 L 75.078125 225.371094 L 75.171875 225.402344 L 75.222656 225.414062 L 75.269531 225.421875 L 75.320312 225.429688 L 75.421875 225.4375 L 75.46875 225.4375 L 75.519531 225.433594 L 75.621094 225.417969 L 75.667969 225.40625 L 230.503906 187.691406 L 230.554688 187.679688 L 230.605469 187.660156 L 230.652344 187.644531 L 230.746094 187.597656 L 230.792969 187.570312 L 230.835938 187.542969 L 230.878906 187.511719 L 230.917969 187.480469 L 230.996094 187.410156 L 231.027344 187.371094 L 231.0625 187.328125 L 231.09375 187.285156 L 231.148438 187.199219 L 231.171875 187.152344 L 231.191406 187.105469 L 231.210938 187.054688 L 231.226562 187.007812 L 231.242188 186.957031 L 231.257812 186.855469 L 231.265625 186.800781 L 231.269531 186.75 L 231.269531 186.699219 L 231.265625 186.644531 L 231.261719 186.59375 L 231.253906 186.542969 L 231.230469 186.441406 L 231.214844 186.390625 L 231.175781 186.296875 L 231.152344 186.25 L 231.125 186.203125 L 231.097656 186.160156 L 231.066406 186.117188 L 231.035156 186.078125 L 231 186.039062 L 230.925781 185.964844 L 230.882812 185.933594 L 230.84375 185.902344 L 230.800781 185.871094 L 230.753906 185.847656 L 230.707031 185.820312 L 230.613281 185.78125 L 230.5625 185.765625 L 153.144531 161.945312 M 134.519531 181.890625 L 142.152344 193.765625 L 58.195312 198.855469 L 134.519531 181.890625 "/>
<path style="fill:none;stroke-width:1;stroke-linecap:round;stroke-linejoin:round;stroke:rgb(70.588235%,0%,0%);stroke-opacity:1;stroke-miterlimit:10;" d="M 152.804688 163.929688 L 3.511719 195.921875 L 75.5 223.390625 L 226.503906 186.609375 L 152.804688 163.929688 M 134.769531 179.789062 L 134.820312 179.777344 L 134.871094 179.769531 L 134.925781 179.765625 L 135.03125 179.765625 L 135.085938 179.769531 L 135.1875 179.785156 L 135.238281 179.796875 L 135.292969 179.8125 L 135.339844 179.832031 L 135.390625 179.851562 L 135.484375 179.898438 L 135.53125 179.925781 L 135.574219 179.957031 L 135.613281 179.988281 L 135.65625 180.023438 L 135.695312 180.058594 L 135.765625 180.136719 L 135.828125 180.222656 L 144.757812 194.121094 L 144.785156 194.164062 L 144.8125 194.210938 L 144.851562 194.304688 L 144.871094 194.355469 L 144.882812 194.402344 L 144.898438 194.453125 L 144.90625 194.507812 L 144.914062 194.558594 L 144.917969 194.609375 L 144.917969 194.714844 L 144.914062 194.765625 L 144.90625 194.816406 L 144.871094 194.96875 L 144.851562 195.019531 L 144.832031 195.066406 L 144.785156 195.160156 L 144.730469 195.246094 L 144.695312 195.289062 L 144.664062 195.328125 L 144.589844 195.402344 L 144.550781 195.433594 L 144.464844 195.496094 L 144.421875 195.523438 L 144.375 195.550781 L 144.234375 195.609375 L 144.183594 195.625 L 144.082031 195.648438 L 144.03125 195.652344 L 143.976562 195.660156 L 45.71875 201.613281 L 45.664062 201.617188 L 45.613281 201.613281 L 45.558594 201.609375 L 45.507812 201.605469 L 45.355469 201.570312 L 45.304688 201.550781 L 45.210938 201.511719 L 45.117188 201.457031 L 45.074219 201.429688 L 45.035156 201.398438 L 44.992188 201.363281 L 44.957031 201.328125 L 44.917969 201.292969 L 44.886719 201.25 L 44.851562 201.210938 L 44.796875 201.125 L 44.769531 201.078125 L 44.746094 201.03125 L 44.726562 200.980469 L 44.707031 200.933594 L 44.691406 200.882812 L 44.679688 200.832031 L 44.664062 200.730469 L 44.660156 200.675781 L 44.65625 200.625 L 44.65625 200.570312 L 44.660156 200.519531 L 44.675781 200.417969 L 44.6875 200.367188 L 44.71875 200.265625 L 44.738281 200.21875 L 44.761719 200.167969 L 44.785156 200.125 L 44.8125 200.078125 L 44.875 199.992188 L 44.90625 199.953125 L 44.941406 199.914062 L 45.019531 199.84375 L 45.105469 199.78125 L 45.148438 199.753906 L 45.289062 199.683594 L 45.390625 199.652344 L 45.441406 199.640625 L 134.769531 179.789062 "/>
</g>
</svg>
