<?xml version="1.0" encoding="UTF-8"?>
<svg xmlns="http://www.w3.org/2000/svg" xmlns:xlink="http://www.w3.org/1999/xlink" width="200pt" height="150pt" viewBox="0 0 200 150" version="1.1">
<g id="surface2">
<rect x="0" y="0" width="200" height="150" style="fill:rgb(100%,100%,100%);fill-opacity:1;stroke:none;"/>
<path style=" stroke:none;fill-rule:evenodd;fill:rgb(70.588235%,70.588235%,70.588235%);fill-opacity:1;" d="M 101.480469 54.453125 L 98.015625 63.855469 L 105.441406 68.3125 L 113.359375 58.410156 Z M 101.480469 54.453125 "/>
<path style=" stroke:none;fill-rule:evenodd;fill:rgb(70.588235%,70.588235%,70.588235%);fill-opacity:1;" d="M 167.320312 37.125 L 139.597656 62.867188 L 199 61.875 L 157.417969 54.453125 L 194.050781 43.5625 Z M 167.320312 37.125 "/>
<path style=" stroke:none;fill-rule:evenodd;fill:rgb(70.588235%,70.588235%,70.588235%);fill-opacity:1;" d="M 16.335938 61.382812 L 29.703125 83.65625 L 89.597656 49.996094 Z M 16.335938 61.382812 "/>
<path style=" stroke:none;fill-rule:evenodd;fill:rgb(70.588235%,70.588235%,70.588235%);fill-opacity:1;" d="M 76.234375 81.183594 L 0 97.519531 L 37.621094 111.875 L 114.847656 93.0625 Z M 67.324219 90.09375 L 71.777344 97.023438 L 22.769531 99.992188 Z M 67.324219 90.09375 "/>
<path style=" stroke:none;fill-rule:evenodd;fill:rgb(0%,0%,0%);fill-opacity:1;" d="M 56.71875 107.207031 C 56.164062 107.433594 55.625 107.550781 55.09375 107.550781 C 54.238281 107.550781 53.546875 107.265625 53.015625 106.691406 C 52.484375 106.121094 52.21875 105.378906 52.21875 104.472656 C 52.21875 103.558594 52.472656 102.824219 52.984375 102.269531 C 53.492188 101.71875 54.164062 101.441406 55 101.441406 C 55.445312 101.441406 56.019531 101.53125 56.71875 101.707031 L 56.71875 103.097656 L 56.0625 103.097656 L 56.0625 103.003906 C 56.0625 102.578125 55.992188 102.292969 55.859375 102.144531 C 55.660156 101.917969 55.378906 101.800781 55.015625 101.800781 C 54.492188 101.800781 54.082031 102.035156 53.78125 102.503906 C 53.476562 102.964844 53.328125 103.59375 53.328125 104.394531 C 53.328125 105.207031 53.503906 105.847656 53.859375 106.316406 C 54.222656 106.785156 54.710938 107.019531 55.328125 107.019531 C 55.859375 107.019531 56.320312 106.933594 56.71875 106.753906 Z M 60.5625 107.550781 C 59.71875 107.550781 59.046875 107.277344 58.546875 106.722656 C 58.054688 106.171875 57.8125 105.425781 57.8125 104.488281 C 57.8125 103.550781 58.0625 102.8125 58.5625 102.269531 C 59.0625 101.71875 59.738281 101.441406 60.59375 101.441406 C 61.457031 101.441406 62.132812 101.71875 62.625 102.269531 C 63.125 102.8125 63.375 103.550781 63.375 104.488281 C 63.375 105.4375 63.125 106.1875 62.625 106.738281 C 62.125 107.28125 61.4375 107.550781 60.5625 107.550781 Z M 60.578125 107.207031 C 61.066406 107.207031 61.46875 106.953125 61.78125 106.441406 C 62.09375 105.933594 62.25 105.28125 62.25 104.488281 C 62.25 103.71875 62.085938 103.074219 61.765625 102.550781 C 61.453125 102.03125 61.0625 101.769531 60.59375 101.769531 C 60.125 101.769531 59.726562 102.03125 59.40625 102.550781 C 59.09375 103.074219 58.9375 103.71875 58.9375 104.488281 C 58.9375 105.269531 59.09375 105.921875 59.40625 106.441406 C 59.71875 106.953125 60.109375 107.207031 60.578125 107.207031 Z M 68.609375 107.410156 L 68.609375 106.316406 C 68.359375 106.703125 68.046875 107.003906 67.671875 107.222656 C 67.296875 107.441406 66.910156 107.550781 66.515625 107.550781 C 66.015625 107.550781 65.617188 107.386719 65.328125 107.050781 C 65.046875 106.71875 64.90625 106.265625 64.90625 105.691406 L 64.90625 102.972656 L 64.875 102.441406 C 64.851562 102.234375 64.816406 102.105469 64.765625 102.050781 C 64.710938 101.988281 64.582031 101.953125 64.375 101.941406 L 64.015625 101.910156 L 63.90625 101.910156 L 63.90625 101.582031 L 65.953125 101.582031 L 65.953125 105.519531 C 65.953125 106.011719 66.023438 106.359375 66.171875 106.566406 C 66.316406 106.765625 66.566406 106.863281 66.921875 106.863281 C 67.160156 106.863281 67.441406 106.78125 67.765625 106.613281 C 68.097656 106.4375 68.378906 106.21875 68.609375 105.957031 L 68.609375 102.972656 L 68.578125 102.441406 C 68.566406 102.234375 68.53125 102.105469 68.46875 102.050781 C 68.414062 101.988281 68.285156 101.953125 68.078125 101.941406 L 67.71875 101.910156 L 67.625 101.910156 L 67.625 101.582031 L 69.671875 101.582031 L 69.671875 106.019531 L 69.703125 106.550781 C 69.710938 106.761719 69.742188 106.890625 69.796875 106.941406 C 69.859375 106.996094 69.992188 107.03125 70.203125 107.050781 L 70.5625 107.066406 L 70.671875 107.082031 L 70.671875 107.410156 Z M 73.109375 102.675781 C 73.359375 102.292969 73.671875 101.988281 74.046875 101.769531 C 74.421875 101.550781 74.8125 101.441406 75.21875 101.441406 C 75.71875 101.441406 76.109375 101.609375 76.390625 101.941406 C 76.679688 102.277344 76.828125 102.730469 76.828125 103.300781 L 76.828125 106.019531 L 76.859375 106.550781 C 76.867188 106.761719 76.898438 106.890625 76.953125 106.941406 C 77.015625 106.996094 77.148438 107.03125 77.359375 107.050781 L 77.71875 107.066406 L 77.8125 107.082031 L 77.8125 107.410156 L 74.765625 107.410156 L 74.765625 107.082031 L 74.859375 107.066406 L 75.234375 107.050781 C 75.429688 107.03125 75.554688 106.996094 75.609375 106.941406 C 75.671875 106.890625 75.710938 106.761719 75.734375 106.550781 L 75.765625 106.019531 L 75.765625 103.472656 C 75.765625 102.972656 75.695312 102.625 75.5625 102.425781 C 75.4375 102.230469 75.207031 102.128906 74.875 102.128906 C 74.394531 102.128906 73.804688 102.425781 73.109375 103.019531 L 73.109375 106.019531 C 73.109375 106.3125 73.132812 106.566406 73.1875 106.785156 C 73.207031 106.878906 73.242188 106.949219 73.296875 106.988281 C 73.359375 107.019531 73.472656 107.042969 73.640625 107.050781 L 74 107.066406 L 74.109375 107.082031 L 74.109375 107.410156 L 71.0625 107.410156 L 71.0625 107.082031 L 71.15625 107.066406 L 71.515625 107.050781 C 71.722656 107.03125 71.851562 106.996094 71.90625 106.941406 C 71.96875 106.890625 72.003906 106.761719 72.015625 106.550781 L 72.046875 106.019531 L 72.046875 102.972656 L 72.015625 102.441406 C 72.003906 102.234375 71.96875 102.105469 71.90625 102.050781 C 71.851562 101.988281 71.722656 101.953125 71.515625 101.941406 L 71.15625 101.910156 L 71.0625 101.910156 L 71.0625 101.582031 L 73.109375 101.582031 Z M 81.6875 107.378906 C 81.414062 107.492188 81.160156 107.550781 80.921875 107.550781 C 80.367188 107.550781 79.9375 107.40625 79.625 107.113281 C 79.4375 106.949219 79.304688 106.761719 79.234375 106.550781 C 79.171875 106.332031 79.140625 106.011719 79.140625 105.582031 L 79.140625 102.019531 L 78.28125 102.019531 L 78.28125 101.582031 L 79.140625 101.582031 L 79.140625 100.519531 L 80.203125 100.253906 L 80.203125 101.582031 L 81.8125 101.582031 L 81.8125 102.019531 L 80.203125 102.019531 L 80.203125 105.722656 C 80.203125 106.234375 80.25 106.574219 80.34375 106.738281 C 80.488281 106.988281 80.734375 107.113281 81.078125 107.113281 C 81.242188 107.113281 81.445312 107.058594 81.6875 106.941406 Z M 84.375 103.160156 L 84.375 106.019531 C 84.375 106.3125 84.398438 106.566406 84.453125 106.785156 C 84.472656 106.878906 84.507812 106.949219 84.5625 106.988281 C 84.625 107.019531 84.738281 107.042969 84.90625 107.050781 L 85.265625 107.066406 L 85.5 107.082031 L 85.5 107.410156 L 82.328125 107.410156 L 82.328125 107.082031 L 82.421875 107.066406 L 82.78125 107.050781 C 82.988281 107.03125 83.117188 106.996094 83.171875 106.941406 C 83.234375 106.890625 83.269531 106.761719 83.28125 106.550781 L 83.3125 106.019531 L 83.3125 102.972656 L 83.28125 102.441406 C 83.269531 102.234375 83.234375 102.105469 83.171875 102.050781 C 83.117188 101.988281 82.988281 101.953125 82.78125 101.941406 L 82.421875 101.910156 L 82.328125 101.910156 L 82.328125 101.582031 L 84.375 101.582031 L 84.375 102.675781 C 84.851562 101.855469 85.484375 101.441406 86.265625 101.441406 C 86.378906 101.441406 86.5 101.464844 86.625 101.503906 L 86.625 103.097656 L 86.03125 103.097656 L 86.03125 103.003906 L 85.96875 102.597656 C 85.957031 102.484375 85.929688 102.410156 85.890625 102.378906 C 85.859375 102.339844 85.789062 102.316406 85.6875 102.316406 C 85.425781 102.316406 85.179688 102.390625 84.953125 102.535156 C 84.734375 102.683594 84.539062 102.890625 84.375 103.160156 Z M 87.859375 109.535156 L 89.765625 107.410156 L 87.9375 102.988281 C 87.738281 102.519531 87.59375 102.230469 87.5 102.113281 C 87.40625 101.988281 87.265625 101.921875 87.078125 101.910156 L 86.96875 101.910156 L 86.96875 101.582031 L 89.640625 101.582031 L 89.640625 101.910156 L 89.171875 101.910156 C 88.921875 101.910156 88.796875 101.972656 88.796875 102.097656 C 88.796875 102.140625 88.804688 102.199219 88.828125 102.269531 C 88.847656 102.300781 88.894531 102.421875 88.96875 102.628906 C 89 102.746094 89.039062 102.863281 89.09375 102.988281 L 90.40625 106.113281 L 91.796875 102.972656 L 91.921875 102.644531 L 92.078125 102.269531 C 92.085938 102.21875 92.09375 102.167969 92.09375 102.113281 C 92.09375 101.980469 91.960938 101.910156 91.703125 101.910156 L 91.296875 101.910156 L 91.296875 101.582031 L 93.03125 101.582031 L 93.03125 101.910156 L 92.9375 101.910156 C 92.800781 101.921875 92.691406 101.972656 92.609375 102.066406 C 92.535156 102.152344 92.453125 102.300781 92.359375 102.519531 C 92.328125 102.59375 92.257812 102.75 92.15625 102.988281 L 89.203125 109.535156 Z M 98.625 102.675781 C 98.875 102.292969 99.1875 101.988281 99.5625 101.769531 C 99.9375 101.550781 100.328125 101.441406 100.734375 101.441406 C 101.234375 101.441406 101.625 101.609375 101.90625 101.941406 C 102.195312 102.277344 102.34375 102.730469 102.34375 103.300781 L 102.34375 106.019531 L 102.375 106.550781 C 102.382812 106.761719 102.414062 106.890625 102.46875 106.941406 C 102.53125 106.996094 102.664062 107.03125 102.875 107.050781 L 103.234375 107.066406 L 103.328125 107.082031 L 103.328125 107.410156 L 100.28125 107.410156 L 100.28125 107.082031 L 100.375 107.066406 L 100.75 107.050781 C 100.945312 107.03125 101.070312 106.996094 101.125 106.941406 C 101.1875 106.890625 101.226562 106.761719 101.25 106.550781 L 101.28125 106.019531 L 101.28125 103.472656 C 101.28125 102.972656 101.210938 102.625 101.078125 102.425781 C 100.953125 102.230469 100.722656 102.128906 100.390625 102.128906 C 99.910156 102.128906 99.320312 102.425781 98.625 103.019531 L 98.625 106.019531 C 98.625 106.3125 98.648438 106.566406 98.703125 106.785156 C 98.722656 106.878906 98.757812 106.949219 98.8125 106.988281 C 98.875 107.019531 98.988281 107.042969 99.15625 107.050781 L 99.515625 107.066406 L 99.625 107.082031 L 99.625 107.410156 L 96.578125 107.410156 L 96.578125 107.082031 L 96.671875 107.066406 L 97.03125 107.050781 C 97.238281 107.03125 97.367188 106.996094 97.421875 106.941406 C 97.484375 106.890625 97.519531 106.761719 97.53125 106.550781 L 97.5625 106.019531 L 97.5625 102.972656 L 97.53125 102.441406 C 97.519531 102.234375 97.484375 102.105469 97.421875 102.050781 C 97.367188 101.988281 97.238281 101.953125 97.03125 101.941406 L 96.671875 101.910156 L 96.578125 101.910156 L 96.578125 101.582031 L 98.625 101.582031 Z M 107.46875 106.613281 C 107.113281 106.957031 106.796875 107.203125 106.515625 107.347656 C 106.242188 107.480469 105.9375 107.550781 105.59375 107.550781 C 105.101562 107.550781 104.691406 107.394531 104.359375 107.082031 C 104.023438 106.761719 103.859375 106.363281 103.859375 105.894531 C 103.859375 105.34375 104.078125 104.894531 104.515625 104.550781 C 104.785156 104.332031 105.101562 104.183594 105.46875 104.097656 C 105.84375 104.003906 106.351562 103.957031 107 103.957031 L 107.21875 103.957031 L 107.21875 103.238281 C 107.21875 102.324219 106.867188 101.863281 106.171875 101.863281 C 105.847656 101.863281 105.5625 101.964844 105.3125 102.160156 C 105.164062 102.277344 105.070312 102.527344 105.03125 102.910156 L 105.03125 103.003906 L 104.3125 103.003906 L 104.3125 101.941406 C 105.050781 101.609375 105.738281 101.441406 106.375 101.441406 C 106.925781 101.441406 107.375 101.574219 107.71875 101.832031 C 107.9375 102 108.082031 102.183594 108.15625 102.378906 C 108.238281 102.566406 108.28125 102.839844 108.28125 103.191406 L 108.28125 105.800781 C 108.28125 106.261719 108.316406 106.589844 108.390625 106.785156 C 108.472656 106.972656 108.617188 107.066406 108.828125 107.066406 C 108.890625 107.066406 108.984375 107.050781 109.109375 107.019531 L 109.140625 107.410156 C 108.890625 107.503906 108.660156 107.550781 108.453125 107.550781 C 107.929688 107.550781 107.601562 107.238281 107.46875 106.613281 Z M 107.21875 106.488281 L 107.21875 104.300781 L 106.96875 104.300781 C 106.351562 104.300781 105.867188 104.433594 105.515625 104.691406 C 105.160156 104.941406 104.984375 105.292969 104.984375 105.738281 C 104.984375 106.082031 105.09375 106.363281 105.3125 106.582031 C 105.53125 106.800781 105.800781 106.910156 106.125 106.910156 C 106.4375 106.910156 106.800781 106.769531 107.21875 106.488281 Z M 111.546875 102.675781 C 112.160156 101.855469 112.832031 101.441406 113.5625 101.441406 C 113.96875 101.441406 114.300781 101.550781 114.5625 101.769531 C 114.820312 101.980469 114.988281 102.28125 115.0625 102.675781 C 115.4375 102.21875 115.773438 101.902344 116.078125 101.722656 C 116.390625 101.535156 116.742188 101.441406 117.140625 101.441406 C 117.628906 101.441406 118.007812 101.597656 118.28125 101.910156 C 118.5625 102.214844 118.703125 102.628906 118.703125 103.160156 L 118.703125 106.019531 C 118.703125 106.3125 118.726562 106.566406 118.78125 106.785156 C 118.800781 106.878906 118.835938 106.949219 118.890625 106.988281 C 118.953125 107.019531 119.066406 107.042969 119.234375 107.050781 L 119.59375 107.066406 L 119.703125 107.082031 L 119.703125 107.410156 L 116.65625 107.410156 L 116.65625 107.082031 L 116.75 107.066406 L 117.125 107.050781 C 117.289062 107.042969 117.398438 107.019531 117.453125 106.988281 C 117.515625 106.949219 117.554688 106.878906 117.578125 106.785156 C 117.617188 106.566406 117.640625 106.3125 117.640625 106.019531 L 117.640625 103.363281 C 117.640625 102.90625 117.582031 102.589844 117.46875 102.410156 C 117.351562 102.222656 117.140625 102.128906 116.828125 102.128906 C 116.304688 102.128906 115.738281 102.433594 115.125 103.035156 L 115.125 106.019531 L 115.15625 106.550781 C 115.164062 106.761719 115.195312 106.890625 115.25 106.941406 C 115.3125 106.996094 115.445312 107.03125 115.65625 107.050781 L 116.015625 107.066406 L 116.125 107.082031 L 116.125 107.410156 L 113.078125 107.410156 L 113.078125 107.082031 L 113.171875 107.066406 L 113.546875 107.050781 C 113.710938 107.042969 113.820312 107.019531 113.875 106.988281 C 113.9375 106.949219 113.976562 106.878906 114 106.785156 C 114.039062 106.566406 114.0625 106.3125 114.0625 106.019531 L 114.0625 103.363281 C 114.0625 102.90625 114.003906 102.589844 113.890625 102.410156 C 113.773438 102.222656 113.566406 102.128906 113.265625 102.128906 C 112.703125 102.128906 112.128906 102.433594 111.546875 103.035156 L 111.546875 106.019531 C 111.546875 106.3125 111.570312 106.566406 111.625 106.785156 C 111.644531 106.878906 111.679688 106.949219 111.734375 106.988281 C 111.796875 107.019531 111.910156 107.042969 112.078125 107.050781 L 112.4375 107.066406 L 112.546875 107.082031 L 112.546875 107.410156 L 109.5 107.410156 L 109.5 107.082031 L 109.59375 107.066406 L 109.953125 107.050781 C 110.160156 107.03125 110.289062 106.996094 110.34375 106.941406 C 110.40625 106.890625 110.441406 106.761719 110.453125 106.550781 L 110.484375 106.019531 L 110.484375 102.972656 L 110.453125 102.441406 C 110.441406 102.234375 110.40625 102.105469 110.34375 102.050781 C 110.289062 101.988281 110.160156 101.953125 109.953125 101.941406 L 109.59375 101.910156 L 109.5 101.910156 L 109.5 101.582031 L 111.546875 101.582031 Z M 124.96875 107.144531 C 124.289062 107.414062 123.675781 107.550781 123.125 107.550781 C 122.269531 107.550781 121.570312 107.265625 121.03125 106.691406 C 120.5 106.109375 120.234375 105.359375 120.234375 104.441406 C 120.234375 103.558594 120.472656 102.839844 120.953125 102.285156 C 121.429688 101.722656 122.046875 101.441406 122.796875 101.441406 C 123.492188 101.441406 124.03125 101.675781 124.40625 102.144531 C 124.78125 102.613281 124.96875 103.285156 124.96875 104.160156 L 124.96875 104.269531 L 121.40625 104.269531 C 121.40625 105.074219 121.515625 105.671875 121.734375 106.066406 C 122.078125 106.691406 122.597656 107.003906 123.296875 107.003906 C 123.953125 107.003906 124.507812 106.871094 124.96875 106.597656 Z M 121.421875 103.925781 L 123.84375 103.925781 L 123.84375 103.691406 C 123.84375 103.265625 123.820312 102.953125 123.78125 102.753906 C 123.75 102.558594 123.679688 102.378906 123.578125 102.222656 C 123.367188 101.921875 123.085938 101.769531 122.734375 101.769531 C 122.328125 101.769531 122.003906 101.96875 121.765625 102.363281 C 121.535156 102.75 121.421875 103.269531 121.421875 103.925781 Z M 121.421875 103.925781 "/>
<path style=" stroke:none;fill-rule:evenodd;fill:rgb(0%,0%,0%);fill-opacity:1;" d="M 13.320312 76.089844 C 12.765625 76.316406 12.226562 76.433594 11.695312 76.433594 C 10.839844 76.433594 10.148438 76.148438 9.617188 75.574219 C 9.085938 75.003906 8.820312 74.261719 8.820312 73.355469 C 8.820312 72.441406 9.074219 71.707031 9.585938 71.152344 C 10.09375 70.601562 10.765625 70.324219 11.601562 70.324219 C 12.046875 70.324219 12.621094 70.414062 13.320312 70.589844 L 13.320312 71.980469 L 12.664062 71.980469 L 12.664062 71.886719 C 12.664062 71.460938 12.59375 71.175781 12.460938 71.027344 C 12.261719 70.800781 11.980469 70.683594 11.617188 70.683594 C 11.09375 70.683594 10.683594 70.917969 10.382812 71.386719 C 10.078125 71.847656 9.929688 72.476562 9.929688 73.277344 C 9.929688 74.089844 10.105469 74.730469 10.460938 75.199219 C 10.824219 75.667969 11.3125 75.902344 11.929688 75.902344 C 12.460938 75.902344 12.921875 75.816406 13.320312 75.636719 Z M 17.164062 76.433594 C 16.320312 76.433594 15.648438 76.160156 15.148438 75.605469 C 14.65625 75.054688 14.414062 74.308594 14.414062 73.371094 C 14.414062 72.433594 14.664062 71.695312 15.164062 71.152344 C 15.664062 70.601562 16.339844 70.324219 17.195312 70.324219 C 18.058594 70.324219 18.734375 70.601562 19.226562 71.152344 C 19.726562 71.695312 19.976562 72.433594 19.976562 73.371094 C 19.976562 74.320312 19.726562 75.070312 19.226562 75.621094 C 18.726562 76.164062 18.039062 76.433594 17.164062 76.433594 Z M 17.179688 76.089844 C 17.667969 76.089844 18.070312 75.835938 18.382812 75.324219 C 18.695312 74.816406 18.851562 74.164062 18.851562 73.371094 C 18.851562 72.601562 18.6875 71.957031 18.367188 71.433594 C 18.054688 70.914062 17.664062 70.652344 17.195312 70.652344 C 16.726562 70.652344 16.328125 70.914062 16.007812 71.433594 C 15.695312 71.957031 15.539062 72.601562 15.539062 73.371094 C 15.539062 74.152344 15.695312 74.804688 16.007812 75.324219 C 16.320312 75.835938 16.710938 76.089844 17.179688 76.089844 Z M 25.210938 76.292969 L 25.210938 75.199219 C 24.960938 75.585938 24.648438 75.886719 24.273438 76.105469 C 23.898438 76.324219 23.511719 76.433594 23.117188 76.433594 C 22.617188 76.433594 22.21875 76.269531 21.929688 75.933594 C 21.648438 75.601562 21.507812 75.148438 21.507812 74.574219 L 21.507812 71.855469 L 21.476562 71.324219 C 21.453125 71.117188 21.417969 70.988281 21.367188 70.933594 C 21.3125 70.871094 21.183594 70.835938 20.976562 70.824219 L 20.617188 70.792969 L 20.507812 70.792969 L 20.507812 70.464844 L 22.554688 70.464844 L 22.554688 74.402344 C 22.554688 74.894531 22.625 75.242188 22.773438 75.449219 C 22.917969 75.648438 23.167969 75.746094 23.523438 75.746094 C 23.761719 75.746094 24.042969 75.664062 24.367188 75.496094 C 24.699219 75.320312 24.980469 75.101562 25.210938 74.839844 L 25.210938 71.855469 L 25.179688 71.324219 C 25.167969 71.117188 25.132812 70.988281 25.070312 70.933594 C 25.015625 70.871094 24.886719 70.835938 24.679688 70.824219 L 24.320312 70.792969 L 24.226562 70.792969 L 24.226562 70.464844 L 26.273438 70.464844 L 26.273438 74.902344 L 26.304688 75.433594 C 26.3125 75.644531 26.34375 75.773438 26.398438 75.824219 C 26.460938 75.878906 26.59375 75.914062 26.804688 75.933594 L 27.164062 75.949219 L 27.273438 75.964844 L 27.273438 76.292969 Z M 29.710938 71.558594 C 29.960938 71.175781 30.273438 70.871094 30.648438 70.652344 C 31.023438 70.433594 31.414062 70.324219 31.820312 70.324219 C 32.320312 70.324219 32.710938 70.492188 32.992188 70.824219 C 33.28125 71.160156 33.429688 71.613281 33.429688 72.183594 L 33.429688 74.902344 L 33.460938 75.433594 C 33.46875 75.644531 33.5 75.773438 33.554688 75.824219 C 33.617188 75.878906 33.75 75.914062 33.960938 75.933594 L 34.320312 75.949219 L 34.414062 75.964844 L 34.414062 76.292969 L 31.367188 76.292969 L 31.367188 75.964844 L 31.460938 75.949219 L 31.835938 75.933594 C 32.03125 75.914062 32.15625 75.878906 32.210938 75.824219 C 32.273438 75.773438 32.3125 75.644531 32.335938 75.433594 L 32.367188 74.902344 L 32.367188 72.355469 C 32.367188 71.855469 32.296875 71.507812 32.164062 71.308594 C 32.039062 71.113281 31.808594 71.011719 31.476562 71.011719 C 30.996094 71.011719 30.40625 71.308594 29.710938 71.902344 L 29.710938 74.902344 C 29.710938 75.195312 29.734375 75.449219 29.789062 75.667969 C 29.808594 75.761719 29.84375 75.832031 29.898438 75.871094 C 29.960938 75.902344 30.074219 75.925781 30.242188 75.933594 L 30.601562 75.949219 L 30.710938 75.964844 L 30.710938 76.292969 L 27.664062 76.292969 L 27.664062 75.964844 L 27.757812 75.949219 L 28.117188 75.933594 C 28.324219 75.914062 28.453125 75.878906 28.507812 75.824219 C 28.570312 75.773438 28.605469 75.644531 28.617188 75.433594 L 28.648438 74.902344 L 28.648438 71.855469 L 28.617188 71.324219 C 28.605469 71.117188 28.570312 70.988281 28.507812 70.933594 C 28.453125 70.871094 28.324219 70.835938 28.117188 70.824219 L 27.757812 70.792969 L 27.664062 70.792969 L 27.664062 70.464844 L 29.710938 70.464844 Z M 38.289062 76.261719 C 38.015625 76.375 37.761719 76.433594 37.523438 76.433594 C 36.96875 76.433594 36.539062 76.289062 36.226562 75.996094 C 36.039062 75.832031 35.90625 75.644531 35.835938 75.433594 C 35.773438 75.214844 35.742188 74.894531 35.742188 74.464844 L 35.742188 70.902344 L 34.882812 70.902344 L 34.882812 70.464844 L 35.742188 70.464844 L 35.742188 69.402344 L 36.804688 69.136719 L 36.804688 70.464844 L 38.414062 70.464844 L 38.414062 70.902344 L 36.804688 70.902344 L 36.804688 74.605469 C 36.804688 75.117188 36.851562 75.457031 36.945312 75.621094 C 37.089844 75.871094 37.335938 75.996094 37.679688 75.996094 C 37.84375 75.996094 38.046875 75.941406 38.289062 75.824219 Z M 40.976562 72.042969 L 40.976562 74.902344 C 40.976562 75.195312 41 75.449219 41.054688 75.667969 C 41.074219 75.761719 41.109375 75.832031 41.164062 75.871094 C 41.226562 75.902344 41.339844 75.925781 41.507812 75.933594 L 41.867188 75.949219 L 42.101562 75.964844 L 42.101562 76.292969 L 38.929688 76.292969 L 38.929688 75.964844 L 39.023438 75.949219 L 39.382812 75.933594 C 39.589844 75.914062 39.71875 75.878906 39.773438 75.824219 C 39.835938 75.773438 39.871094 75.644531 39.882812 75.433594 L 39.914062 74.902344 L 39.914062 71.855469 L 39.882812 71.324219 C 39.871094 71.117188 39.835938 70.988281 39.773438 70.933594 C 39.71875 70.871094 39.589844 70.835938 39.382812 70.824219 L 39.023438 70.792969 L 38.929688 70.792969 L 38.929688 70.464844 L 40.976562 70.464844 L 40.976562 71.558594 C 41.453125 70.738281 42.085938 70.324219 42.867188 70.324219 C 42.980469 70.324219 43.101562 70.347656 43.226562 70.386719 L 43.226562 71.980469 L 42.632812 71.980469 L 42.632812 71.886719 L 42.570312 71.480469 C 42.558594 71.367188 42.53125 71.292969 42.492188 71.261719 C 42.460938 71.222656 42.390625 71.199219 42.289062 71.199219 C 42.027344 71.199219 41.78125 71.273438 41.554688 71.417969 C 41.335938 71.566406 41.140625 71.773438 40.976562 72.042969 Z M 44.460938 78.417969 L 46.367188 76.292969 L 44.539062 71.871094 C 44.339844 71.402344 44.195312 71.113281 44.101562 70.996094 C 44.007812 70.871094 43.867188 70.804688 43.679688 70.792969 L 43.570312 70.792969 L 43.570312 70.464844 L 46.242188 70.464844 L 46.242188 70.792969 L 45.773438 70.792969 C 45.523438 70.792969 45.398438 70.855469 45.398438 70.980469 C 45.398438 71.023438 45.40625 71.082031 45.429688 71.152344 C 45.449219 71.183594 45.496094 71.304688 45.570312 71.511719 C 45.601562 71.628906 45.640625 71.746094 45.695312 71.871094 L 47.007812 74.996094 L 48.398438 71.855469 L 48.523438 71.527344 L 48.679688 71.152344 C 48.6875 71.101562 48.695312 71.050781 48.695312 70.996094 C 48.695312 70.863281 48.5625 70.792969 48.304688 70.792969 L 47.898438 70.792969 L 47.898438 70.464844 L 49.632812 70.464844 L 49.632812 70.792969 L 49.539062 70.792969 C 49.402344 70.804688 49.292969 70.855469 49.210938 70.949219 C 49.136719 71.035156 49.054688 71.183594 48.960938 71.402344 C 48.929688 71.476562 48.859375 71.632812 48.757812 71.871094 L 45.804688 78.417969 Z M 55.226562 71.558594 C 55.476562 71.175781 55.789062 70.871094 56.164062 70.652344 C 56.539062 70.433594 56.929688 70.324219 57.335938 70.324219 C 57.835938 70.324219 58.226562 70.492188 58.507812 70.824219 C 58.796875 71.160156 58.945312 71.613281 58.945312 72.183594 L 58.945312 74.902344 L 58.976562 75.433594 C 58.984375 75.644531 59.015625 75.773438 59.070312 75.824219 C 59.132812 75.878906 59.265625 75.914062 59.476562 75.933594 L 59.835938 75.949219 L 59.929688 75.964844 L 59.929688 76.292969 L 56.882812 76.292969 L 56.882812 75.964844 L 56.976562 75.949219 L 57.351562 75.933594 C 57.546875 75.914062 57.671875 75.878906 57.726562 75.824219 C 57.789062 75.773438 57.828125 75.644531 57.851562 75.433594 L 57.882812 74.902344 L 57.882812 72.355469 C 57.882812 71.855469 57.8125 71.507812 57.679688 71.308594 C 57.554688 71.113281 57.324219 71.011719 56.992188 71.011719 C 56.511719 71.011719 55.921875 71.308594 55.226562 71.902344 L 55.226562 74.902344 C 55.226562 75.195312 55.25 75.449219 55.304688 75.667969 C 55.324219 75.761719 55.359375 75.832031 55.414062 75.871094 C 55.476562 75.902344 55.589844 75.925781 55.757812 75.933594 L 56.117188 75.949219 L 56.226562 75.964844 L 56.226562 76.292969 L 53.179688 76.292969 L 53.179688 75.964844 L 53.273438 75.949219 L 53.632812 75.933594 C 53.839844 75.914062 53.96875 75.878906 54.023438 75.824219 C 54.085938 75.773438 54.121094 75.644531 54.132812 75.433594 L 54.164062 74.902344 L 54.164062 71.855469 L 54.132812 71.324219 C 54.121094 71.117188 54.085938 70.988281 54.023438 70.933594 C 53.96875 70.871094 53.839844 70.835938 53.632812 70.824219 L 53.273438 70.792969 L 53.179688 70.792969 L 53.179688 70.464844 L 55.226562 70.464844 Z M 64.070312 75.496094 C 63.714844 75.839844 63.398438 76.085938 63.117188 76.230469 C 62.84375 76.363281 62.539062 76.433594 62.195312 76.433594 C 61.703125 76.433594 61.292969 76.277344 60.960938 75.964844 C 60.625 75.644531 60.460938 75.246094 60.460938 74.777344 C 60.460938 74.226562 60.679688 73.777344 61.117188 73.433594 C 61.386719 73.214844 61.703125 73.066406 62.070312 72.980469 C 62.445312 72.886719 62.953125 72.839844 63.601562 72.839844 L 63.820312 72.839844 L 63.820312 72.121094 C 63.820312 71.207031 63.46875 70.746094 62.773438 70.746094 C 62.449219 70.746094 62.164062 70.847656 61.914062 71.042969 C 61.765625 71.160156 61.671875 71.410156 61.632812 71.792969 L 61.632812 71.886719 L 60.914062 71.886719 L 60.914062 70.824219 C 61.652344 70.492188 62.339844 70.324219 62.976562 70.324219 C 63.527344 70.324219 63.976562 70.457031 64.320312 70.714844 C 64.539062 70.882812 64.683594 71.066406 64.757812 71.261719 C 64.839844 71.449219 64.882812 71.722656 64.882812 72.074219 L 64.882812 74.683594 C 64.882812 75.144531 64.917969 75.472656 64.992188 75.667969 C 65.074219 75.855469 65.21875 75.949219 65.429688 75.949219 C 65.492188 75.949219 65.585938 75.933594 65.710938 75.902344 L 65.742188 76.292969 C 65.492188 76.386719 65.261719 76.433594 65.054688 76.433594 C 64.53125 76.433594 64.203125 76.121094 64.070312 75.496094 Z M 63.820312 75.371094 L 63.820312 73.183594 L 63.570312 73.183594 C 62.953125 73.183594 62.46875 73.316406 62.117188 73.574219 C 61.761719 73.824219 61.585938 74.175781 61.585938 74.621094 C 61.585938 74.964844 61.695312 75.246094 61.914062 75.464844 C 62.132812 75.683594 62.402344 75.792969 62.726562 75.792969 C 63.039062 75.792969 63.402344 75.652344 63.820312 75.371094 Z M 68.148438 71.558594 C 68.761719 70.738281 69.433594 70.324219 70.164062 70.324219 C 70.570312 70.324219 70.902344 70.433594 71.164062 70.652344 C 71.421875 70.863281 71.589844 71.164062 71.664062 71.558594 C 72.039062 71.101562 72.375 70.785156 72.679688 70.605469 C 72.992188 70.417969 73.34375 70.324219 73.742188 70.324219 C 74.230469 70.324219 74.609375 70.480469 74.882812 70.792969 C 75.164062 71.097656 75.304688 71.511719 75.304688 72.042969 L 75.304688 74.902344 C 75.304688 75.195312 75.328125 75.449219 75.382812 75.667969 C 75.402344 75.761719 75.4375 75.832031 75.492188 75.871094 C 75.554688 75.902344 75.667969 75.925781 75.835938 75.933594 L 76.195312 75.949219 L 76.304688 75.964844 L 76.304688 76.292969 L 73.257812 76.292969 L 73.257812 75.964844 L 73.351562 75.949219 L 73.726562 75.933594 C 73.890625 75.925781 74 75.902344 74.054688 75.871094 C 74.117188 75.832031 74.15625 75.761719 74.179688 75.667969 C 74.21875 75.449219 74.242188 75.195312 74.242188 74.902344 L 74.242188 72.246094 C 74.242188 71.789062 74.183594 71.472656 74.070312 71.292969 C 73.953125 71.105469 73.742188 71.011719 73.429688 71.011719 C 72.90625 71.011719 72.339844 71.316406 71.726562 71.917969 L 71.726562 74.902344 L 71.757812 75.433594 C 71.765625 75.644531 71.796875 75.773438 71.851562 75.824219 C 71.914062 75.878906 72.046875 75.914062 72.257812 75.933594 L 72.617188 75.949219 L 72.726562 75.964844 L 72.726562 76.292969 L 69.679688 76.292969 L 69.679688 75.964844 L 69.773438 75.949219 L 70.148438 75.933594 C 70.3125 75.925781 70.421875 75.902344 70.476562 75.871094 C 70.539062 75.832031 70.578125 75.761719 70.601562 75.667969 C 70.640625 75.449219 70.664062 75.195312 70.664062 74.902344 L 70.664062 72.246094 C 70.664062 71.789062 70.605469 71.472656 70.492188 71.292969 C 70.375 71.105469 70.167969 71.011719 69.867188 71.011719 C 69.304688 71.011719 68.730469 71.316406 68.148438 71.917969 L 68.148438 74.902344 C 68.148438 75.195312 68.171875 75.449219 68.226562 75.667969 C 68.246094 75.761719 68.28125 75.832031 68.335938 75.871094 C 68.398438 75.902344 68.511719 75.925781 68.679688 75.933594 L 69.039062 75.949219 L 69.148438 75.964844 L 69.148438 76.292969 L 66.101562 76.292969 L 66.101562 75.964844 L 66.195312 75.949219 L 66.554688 75.933594 C 66.761719 75.914062 66.890625 75.878906 66.945312 75.824219 C 67.007812 75.773438 67.042969 75.644531 67.054688 75.433594 L 67.085938 74.902344 L 67.085938 71.855469 L 67.054688 71.324219 C 67.042969 71.117188 67.007812 70.988281 66.945312 70.933594 C 66.890625 70.871094 66.761719 70.835938 66.554688 70.824219 L 66.195312 70.792969 L 66.101562 70.792969 L 66.101562 70.464844 L 68.148438 70.464844 Z M 81.570312 76.027344 C 80.890625 76.296875 80.277344 76.433594 79.726562 76.433594 C 78.871094 76.433594 78.171875 76.148438 77.632812 75.574219 C 77.101562 74.992188 76.835938 74.242188 76.835938 73.324219 C 76.835938 72.441406 77.074219 71.722656 77.554688 71.167969 C 78.03125 70.605469 78.648438 70.324219 79.398438 70.324219 C 80.09375 70.324219 80.632812 70.558594 81.007812 71.027344 C 81.382812 71.496094 81.570312 72.167969 81.570312 73.042969 L 81.570312 73.152344 L 78.007812 73.152344 C 78.007812 73.957031 78.117188 74.554688 78.335938 74.949219 C 78.679688 75.574219 79.199219 75.886719 79.898438 75.886719 C 80.554688 75.886719 81.109375 75.753906 81.570312 75.480469 Z M 78.023438 72.808594 L 80.445312 72.808594 L 80.445312 72.574219 C 80.445312 72.148438 80.421875 71.835938 80.382812 71.636719 C 80.351562 71.441406 80.28125 71.261719 80.179688 71.105469 C 79.96875 70.804688 79.6875 70.652344 79.335938 70.652344 C 78.929688 70.652344 78.605469 70.851562 78.367188 71.246094 C 78.136719 71.632812 78.023438 72.152344 78.023438 72.808594 Z M 78.023438 72.808594 "/>
<path style=" stroke:none;fill-rule:evenodd;fill:rgb(0%,0%,0%);fill-opacity:1;" d="M 133.238281 63.035156 C 132.683594 63.261719 132.144531 63.378906 131.613281 63.378906 C 130.757812 63.378906 130.066406 63.09375 129.535156 62.519531 C 129.003906 61.949219 128.738281 61.207031 128.738281 60.300781 C 128.738281 59.386719 128.992188 58.652344 129.503906 58.097656 C 130.011719 57.546875 130.683594 57.269531 131.519531 57.269531 C 131.964844 57.269531 132.539062 57.359375 133.238281 57.535156 L 133.238281 58.925781 L 132.582031 58.925781 L 132.582031 58.832031 C 132.582031 58.40625 132.511719 58.121094 132.378906 57.972656 C 132.179688 57.746094 131.898438 57.628906 131.535156 57.628906 C 131.011719 57.628906 130.601562 57.863281 130.300781 58.332031 C 129.996094 58.792969 129.847656 59.421875 129.847656 60.222656 C 129.847656 61.035156 130.023438 61.675781 130.378906 62.144531 C 130.742188 62.613281 131.230469 62.847656 131.847656 62.847656 C 132.378906 62.847656 132.839844 62.761719 133.238281 62.582031 Z M 137.082031 63.378906 C 136.238281 63.378906 135.566406 63.105469 135.066406 62.550781 C 134.574219 62 134.332031 61.253906 134.332031 60.316406 C 134.332031 59.378906 134.582031 58.640625 135.082031 58.097656 C 135.582031 57.546875 136.257812 57.269531 137.113281 57.269531 C 137.976562 57.269531 138.652344 57.546875 139.144531 58.097656 C 139.644531 58.640625 139.894531 59.378906 139.894531 60.316406 C 139.894531 61.265625 139.644531 62.015625 139.144531 62.566406 C 138.644531 63.109375 137.957031 63.378906 137.082031 63.378906 Z M 137.097656 63.035156 C 137.585938 63.035156 137.988281 62.78125 138.300781 62.269531 C 138.613281 61.761719 138.769531 61.109375 138.769531 60.316406 C 138.769531 59.546875 138.605469 58.902344 138.285156 58.378906 C 137.972656 57.859375 137.582031 57.597656 137.113281 57.597656 C 136.644531 57.597656 136.246094 57.859375 135.925781 58.378906 C 135.613281 58.902344 135.457031 59.546875 135.457031 60.316406 C 135.457031 61.097656 135.613281 61.75 135.925781 62.269531 C 136.238281 62.78125 136.628906 63.035156 137.097656 63.035156 Z M 145.128906 63.238281 L 145.128906 62.144531 C 144.878906 62.53125 144.566406 62.832031 144.191406 63.050781 C 143.816406 63.269531 143.429688 63.378906 143.035156 63.378906 C 142.535156 63.378906 142.136719 63.214844 141.847656 62.878906 C 141.566406 62.546875 141.425781 62.09375 141.425781 61.519531 L 141.425781 58.800781 L 141.394531 58.269531 C 141.371094 58.0625 141.335938 57.933594 141.285156 57.878906 C 141.230469 57.816406 141.101562 57.78125 140.894531 57.769531 L 140.535156 57.738281 L 140.425781 57.738281 L 140.425781 57.410156 L 142.472656 57.410156 L 142.472656 61.347656 C 142.472656 61.839844 142.542969 62.1875 142.691406 62.394531 C 142.835938 62.59375 143.085938 62.691406 143.441406 62.691406 C 143.679688 62.691406 143.960938 62.609375 144.285156 62.441406 C 144.617188 62.265625 144.898438 62.046875 145.128906 61.785156 L 145.128906 58.800781 L 145.097656 58.269531 C 145.085938 58.0625 145.050781 57.933594 144.988281 57.878906 C 144.933594 57.816406 144.804688 57.78125 144.597656 57.769531 L 144.238281 57.738281 L 144.144531 57.738281 L 144.144531 57.410156 L 146.191406 57.410156 L 146.191406 61.847656 L 146.222656 62.378906 C 146.230469 62.589844 146.261719 62.71875 146.316406 62.769531 C 146.378906 62.824219 146.511719 62.859375 146.722656 62.878906 L 147.082031 62.894531 L 147.191406 62.910156 L 147.191406 63.238281 Z M 149.628906 58.503906 C 149.878906 58.121094 150.191406 57.816406 150.566406 57.597656 C 150.941406 57.378906 151.332031 57.269531 151.738281 57.269531 C 152.238281 57.269531 152.628906 57.4375 152.910156 57.769531 C 153.199219 58.105469 153.347656 58.558594 153.347656 59.128906 L 153.347656 61.847656 L 153.378906 62.378906 C 153.386719 62.589844 153.417969 62.71875 153.472656 62.769531 C 153.535156 62.824219 153.667969 62.859375 153.878906 62.878906 L 154.238281 62.894531 L 154.332031 62.910156 L 154.332031 63.238281 L 151.285156 63.238281 L 151.285156 62.910156 L 151.378906 62.894531 L 151.753906 62.878906 C 151.949219 62.859375 152.074219 62.824219 152.128906 62.769531 C 152.191406 62.71875 152.230469 62.589844 152.253906 62.378906 L 152.285156 61.847656 L 152.285156 59.300781 C 152.285156 58.800781 152.214844 58.453125 152.082031 58.253906 C 151.957031 58.058594 151.726562 57.957031 151.394531 57.957031 C 150.914062 57.957031 150.324219 58.253906 149.628906 58.847656 L 149.628906 61.847656 C 149.628906 62.140625 149.652344 62.394531 149.707031 62.613281 C 149.726562 62.707031 149.761719 62.777344 149.816406 62.816406 C 149.878906 62.847656 149.992188 62.871094 150.160156 62.878906 L 150.519531 62.894531 L 150.628906 62.910156 L 150.628906 63.238281 L 147.582031 63.238281 L 147.582031 62.910156 L 147.675781 62.894531 L 148.035156 62.878906 C 148.242188 62.859375 148.371094 62.824219 148.425781 62.769531 C 148.488281 62.71875 148.523438 62.589844 148.535156 62.378906 L 148.566406 61.847656 L 148.566406 58.800781 L 148.535156 58.269531 C 148.523438 58.0625 148.488281 57.933594 148.425781 57.878906 C 148.371094 57.816406 148.242188 57.78125 148.035156 57.769531 L 147.675781 57.738281 L 147.582031 57.738281 L 147.582031 57.410156 L 149.628906 57.410156 Z M 158.207031 63.207031 C 157.933594 63.320312 157.679688 63.378906 157.441406 63.378906 C 156.886719 63.378906 156.457031 63.234375 156.144531 62.941406 C 155.957031 62.777344 155.824219 62.589844 155.753906 62.378906 C 155.691406 62.160156 155.660156 61.839844 155.660156 61.410156 L 155.660156 57.847656 L 154.800781 57.847656 L 154.800781 57.410156 L 155.660156 57.410156 L 155.660156 56.347656 L 156.722656 56.082031 L 156.722656 57.410156 L 158.332031 57.410156 L 158.332031 57.847656 L 156.722656 57.847656 L 156.722656 61.550781 C 156.722656 62.0625 156.769531 62.402344 156.863281 62.566406 C 157.007812 62.816406 157.253906 62.941406 157.597656 62.941406 C 157.761719 62.941406 157.964844 62.886719 158.207031 62.769531 Z M 160.894531 58.988281 L 160.894531 61.847656 C 160.894531 62.140625 160.917969 62.394531 160.972656 62.613281 C 160.992188 62.707031 161.027344 62.777344 161.082031 62.816406 C 161.144531 62.847656 161.257812 62.871094 161.425781 62.878906 L 161.785156 62.894531 L 162.019531 62.910156 L 162.019531 63.238281 L 158.847656 63.238281 L 158.847656 62.910156 L 158.941406 62.894531 L 159.300781 62.878906 C 159.507812 62.859375 159.636719 62.824219 159.691406 62.769531 C 159.753906 62.71875 159.789062 62.589844 159.800781 62.378906 L 159.832031 61.847656 L 159.832031 58.800781 L 159.800781 58.269531 C 159.789062 58.0625 159.753906 57.933594 159.691406 57.878906 C 159.636719 57.816406 159.507812 57.78125 159.300781 57.769531 L 158.941406 57.738281 L 158.847656 57.738281 L 158.847656 57.410156 L 160.894531 57.410156 L 160.894531 58.503906 C 161.371094 57.683594 162.003906 57.269531 162.785156 57.269531 C 162.898438 57.269531 163.019531 57.292969 163.144531 57.332031 L 163.144531 58.925781 L 162.550781 58.925781 L 162.550781 58.832031 L 162.488281 58.425781 C 162.476562 58.3125 162.449219 58.238281 162.410156 58.207031 C 162.378906 58.167969 162.308594 58.144531 162.207031 58.144531 C 161.945312 58.144531 161.699219 58.21875 161.472656 58.363281 C 161.253906 58.511719 161.058594 58.71875 160.894531 58.988281 Z M 164.378906 65.363281 L 166.285156 63.238281 L 164.457031 58.816406 C 164.257812 58.347656 164.113281 58.058594 164.019531 57.941406 C 163.925781 57.816406 163.785156 57.75 163.597656 57.738281 L 163.488281 57.738281 L 163.488281 57.410156 L 166.160156 57.410156 L 166.160156 57.738281 L 165.691406 57.738281 C 165.441406 57.738281 165.316406 57.800781 165.316406 57.925781 C 165.316406 57.96875 165.324219 58.027344 165.347656 58.097656 C 165.367188 58.128906 165.414062 58.25 165.488281 58.457031 C 165.519531 58.574219 165.558594 58.691406 165.613281 58.816406 L 166.925781 61.941406 L 168.316406 58.800781 L 168.441406 58.472656 L 168.597656 58.097656 C 168.605469 58.046875 168.613281 57.996094 168.613281 57.941406 C 168.613281 57.808594 168.480469 57.738281 168.222656 57.738281 L 167.816406 57.738281 L 167.816406 57.410156 L 169.550781 57.410156 L 169.550781 57.738281 L 169.457031 57.738281 C 169.320312 57.75 169.210938 57.800781 169.128906 57.894531 C 169.054688 57.980469 168.972656 58.128906 168.878906 58.347656 C 168.847656 58.421875 168.777344 58.578125 168.675781 58.816406 L 165.722656 65.363281 Z M 175.144531 58.503906 C 175.394531 58.121094 175.707031 57.816406 176.082031 57.597656 C 176.457031 57.378906 176.847656 57.269531 177.253906 57.269531 C 177.753906 57.269531 178.144531 57.4375 178.425781 57.769531 C 178.714844 58.105469 178.863281 58.558594 178.863281 59.128906 L 178.863281 61.847656 L 178.894531 62.378906 C 178.902344 62.589844 178.933594 62.71875 178.988281 62.769531 C 179.050781 62.824219 179.183594 62.859375 179.394531 62.878906 L 179.753906 62.894531 L 179.847656 62.910156 L 179.847656 63.238281 L 176.800781 63.238281 L 176.800781 62.910156 L 176.894531 62.894531 L 177.269531 62.878906 C 177.464844 62.859375 177.589844 62.824219 177.644531 62.769531 C 177.707031 62.71875 177.746094 62.589844 177.769531 62.378906 L 177.800781 61.847656 L 177.800781 59.300781 C 177.800781 58.800781 177.730469 58.453125 177.597656 58.253906 C 177.472656 58.058594 177.242188 57.957031 176.910156 57.957031 C 176.429688 57.957031 175.839844 58.253906 175.144531 58.847656 L 175.144531 61.847656 C 175.144531 62.140625 175.167969 62.394531 175.222656 62.613281 C 175.242188 62.707031 175.277344 62.777344 175.332031 62.816406 C 175.394531 62.847656 175.507812 62.871094 175.675781 62.878906 L 176.035156 62.894531 L 176.144531 62.910156 L 176.144531 63.238281 L 173.097656 63.238281 L 173.097656 62.910156 L 173.191406 62.894531 L 173.550781 62.878906 C 173.757812 62.859375 173.886719 62.824219 173.941406 62.769531 C 174.003906 62.71875 174.039062 62.589844 174.050781 62.378906 L 174.082031 61.847656 L 174.082031 58.800781 L 174.050781 58.269531 C 174.039062 58.0625 174.003906 57.933594 173.941406 57.878906 C 173.886719 57.816406 173.757812 57.78125 173.550781 57.769531 L 173.191406 57.738281 L 173.097656 57.738281 L 173.097656 57.410156 L 175.144531 57.410156 Z M 183.988281 62.441406 C 183.632812 62.785156 183.316406 63.03125 183.035156 63.175781 C 182.761719 63.308594 182.457031 63.378906 182.113281 63.378906 C 181.621094 63.378906 181.210938 63.222656 180.878906 62.910156 C 180.542969 62.589844 180.378906 62.191406 180.378906 61.722656 C 180.378906 61.171875 180.597656 60.722656 181.035156 60.378906 C 181.304688 60.160156 181.621094 60.011719 181.988281 59.925781 C 182.363281 59.832031 182.871094 59.785156 183.519531 59.785156 L 183.738281 59.785156 L 183.738281 59.066406 C 183.738281 58.152344 183.386719 57.691406 182.691406 57.691406 C 182.367188 57.691406 182.082031 57.792969 181.832031 57.988281 C 181.683594 58.105469 181.589844 58.355469 181.550781 58.738281 L 181.550781 58.832031 L 180.832031 58.832031 L 180.832031 57.769531 C 181.570312 57.4375 182.257812 57.269531 182.894531 57.269531 C 183.445312 57.269531 183.894531 57.402344 184.238281 57.660156 C 184.457031 57.828125 184.601562 58.011719 184.675781 58.207031 C 184.757812 58.394531 184.800781 58.667969 184.800781 59.019531 L 184.800781 61.628906 C 184.800781 62.089844 184.835938 62.417969 184.910156 62.613281 C 184.992188 62.800781 185.136719 62.894531 185.347656 62.894531 C 185.410156 62.894531 185.503906 62.878906 185.628906 62.847656 L 185.660156 63.238281 C 185.410156 63.332031 185.179688 63.378906 184.972656 63.378906 C 184.449219 63.378906 184.121094 63.066406 183.988281 62.441406 Z M 183.738281 62.316406 L 183.738281 60.128906 L 183.488281 60.128906 C 182.871094 60.128906 182.386719 60.261719 182.035156 60.519531 C 181.679688 60.769531 181.503906 61.121094 181.503906 61.566406 C 181.503906 61.910156 181.613281 62.191406 181.832031 62.410156 C 182.050781 62.628906 182.320312 62.738281 182.644531 62.738281 C 182.957031 62.738281 183.320312 62.597656 183.738281 62.316406 Z M 188.066406 58.503906 C 188.679688 57.683594 189.351562 57.269531 190.082031 57.269531 C 190.488281 57.269531 190.820312 57.378906 191.082031 57.597656 C 191.339844 57.808594 191.507812 58.109375 191.582031 58.503906 C 191.957031 58.046875 192.292969 57.730469 192.597656 57.550781 C 192.910156 57.363281 193.261719 57.269531 193.660156 57.269531 C 194.148438 57.269531 194.527344 57.425781 194.800781 57.738281 C 195.082031 58.042969 195.222656 58.457031 195.222656 58.988281 L 195.222656 61.847656 C 195.222656 62.140625 195.246094 62.394531 195.300781 62.613281 C 195.320312 62.707031 195.355469 62.777344 195.410156 62.816406 C 195.472656 62.847656 195.585938 62.871094 195.753906 62.878906 L 196.113281 62.894531 L 196.222656 62.910156 L 196.222656 63.238281 L 193.175781 63.238281 L 193.175781 62.910156 L 193.269531 62.894531 L 193.644531 62.878906 C 193.808594 62.871094 193.917969 62.847656 193.972656 62.816406 C 194.035156 62.777344 194.074219 62.707031 194.097656 62.613281 C 194.136719 62.394531 194.160156 62.140625 194.160156 61.847656 L 194.160156 59.191406 C 194.160156 58.734375 194.101562 58.417969 193.988281 58.238281 C 193.871094 58.050781 193.660156 57.957031 193.347656 57.957031 C 192.824219 57.957031 192.257812 58.261719 191.644531 58.863281 L 191.644531 61.847656 L 191.675781 62.378906 C 191.683594 62.589844 191.714844 62.71875 191.769531 62.769531 C 191.832031 62.824219 191.964844 62.859375 192.175781 62.878906 L 192.535156 62.894531 L 192.644531 62.910156 L 192.644531 63.238281 L 189.597656 63.238281 L 189.597656 62.910156 L 189.691406 62.894531 L 190.066406 62.878906 C 190.230469 62.871094 190.339844 62.847656 190.394531 62.816406 C 190.457031 62.777344 190.496094 62.707031 190.519531 62.613281 C 190.558594 62.394531 190.582031 62.140625 190.582031 61.847656 L 190.582031 59.191406 C 190.582031 58.734375 190.523438 58.417969 190.410156 58.238281 C 190.292969 58.050781 190.085938 57.957031 189.785156 57.957031 C 189.222656 57.957031 188.648438 58.261719 188.066406 58.863281 L 188.066406 61.847656 C 188.066406 62.140625 188.089844 62.394531 188.144531 62.613281 C 188.164062 62.707031 188.199219 62.777344 188.253906 62.816406 C 188.316406 62.847656 188.429688 62.871094 188.597656 62.878906 L 188.957031 62.894531 L 189.066406 62.910156 L 189.066406 63.238281 L 186.019531 63.238281 L 186.019531 62.910156 L 186.113281 62.894531 L 186.472656 62.878906 C 186.679688 62.859375 186.808594 62.824219 186.863281 62.769531 C 186.925781 62.71875 186.960938 62.589844 186.972656 62.378906 L 187.003906 61.847656 L 187.003906 58.800781 L 186.972656 58.269531 C 186.960938 58.0625 186.925781 57.933594 186.863281 57.878906 C 186.808594 57.816406 186.679688 57.78125 186.472656 57.769531 L 186.113281 57.738281 L 186.019531 57.738281 L 186.019531 57.410156 L 188.066406 57.410156 Z M 201.488281 62.972656 C 200.808594 63.242188 200.195312 63.378906 199.644531 63.378906 C 198.789062 63.378906 198.089844 63.09375 197.550781 62.519531 C 197.019531 61.9375 196.753906 61.1875 196.753906 60.269531 C 196.753906 59.386719 196.992188 58.667969 197.472656 58.113281 C 197.949219 57.550781 198.566406 57.269531 199.316406 57.269531 C 200.011719 57.269531 200.550781 57.503906 200.925781 57.972656 C 201.300781 58.441406 201.488281 59.113281 201.488281 59.988281 L 201.488281 60.097656 L 197.925781 60.097656 C 197.925781 60.902344 198.035156 61.5 198.253906 61.894531 C 198.597656 62.519531 199.117188 62.832031 199.816406 62.832031 C 200.472656 62.832031 201.027344 62.699219 201.488281 62.425781 Z M 197.941406 59.753906 L 200.363281 59.753906 L 200.363281 59.519531 C 200.363281 59.09375 200.339844 58.78125 200.300781 58.582031 C 200.269531 58.386719 200.199219 58.207031 200.097656 58.050781 C 199.886719 57.75 199.605469 57.597656 199.253906 57.597656 C 198.847656 57.597656 198.523438 57.796875 198.285156 58.191406 C 198.054688 58.578125 197.941406 59.097656 197.941406 59.753906 Z M 197.941406 59.753906 "/>
</g>
</svg>
