<?xml version="1.0" encoding="UTF-8"?>
<svg xmlns="http://www.w3.org/2000/svg" xmlns:xlink="http://www.w3.org/1999/xlink" width="300pt" height="300pt" viewBox="0 0 300 300" version="1.1">
<defs>
<clipPath id="clip1">
  <rect width="300" height="300"/>
</clipPath>
<g id="surface6" clip-path="url(#clip1)">
<path style=" stroke:none;fill-rule:evenodd;fill:rgb(53.333333%,53.333333%,53.333333%);fill-opacity:1;" d="M 0 299 L 99.667969 299 L 99.667969 199.332031 L 0 199.332031 Z M 0 299 "/>
<path style="fill:none;stroke-width:1;stroke-linecap:round;stroke-linejoin:round;stroke:rgb(0%,0%,0%);stroke-opacity:1;stroke-miterlimit:10;" d="M 0 299 L 99.667969 299 L 99.667969 199.332031 L 0 199.332031 L 0 299 "/>
</g>
<clipPath id="clip2">
  <rect width="300" height="300"/>
</clipPath>
<g id="surface8" clip-path="url(#clip2)">
<path style=" stroke:none;fill-rule:evenodd;fill:rgb(53.333333%,53.333333%,53.333333%);fill-opacity:1;" d="M 99.667969 299 L 199.332031 299 L 199.332031 199.332031 L 99.667969 199.332031 Z M 99.667969 299 "/>
<path style="fill:none;stroke-width:1;stroke-linecap:round;stroke-linejoin:round;stroke:rgb(0%,0%,0%);stroke-opacity:1;stroke-miterlimit:10;" d="M 99.667969 299 L 199.332031 299 L 199.332031 199.332031 L 99.667969 199.332031 L 99.667969 299 "/>
</g>
<clipPath id="clip3">
  <rect width="300" height="300"/>
</clipPath>
<g id="surface10" clip-path="url(#clip3)">
<path style=" stroke:none;fill-rule:evenodd;fill:rgb(53.333333%,53.333333%,53.333333%);fill-opacity:1;" d="M 199.332031 299 L 299 299 L 299 199.332031 L 199.332031 199.332031 Z M 199.332031 299 "/>
<path style="fill:none;stroke-width:1;stroke-linecap:round;stroke-linejoin:round;stroke:rgb(0%,0%,0%);stroke-opacity:1;stroke-miterlimit:10;" d="M 199.332031 299 L 299 299 L 299 199.332031 L 199.332031 199.332031 L 199.332031 299 "/>
</g>
<clipPath id="clip4">
  <rect width="300" height="300"/>
</clipPath>
<g id="surface12" clip-path="url(#clip4)">
<path style=" stroke:none;fill-rule:evenodd;fill:rgb(53.333333%,53.333333%,53.333333%);fill-opacity:1;" d="M 0 199.332031 L 99.667969 199.332031 L 99.667969 99.667969 L 0 99.667969 Z M 0 199.332031 "/>
<path style="fill:none;stroke-width:1;stroke-linecap:round;stroke-linejoin:round;stroke:rgb(0%,0%,0%);stroke-opacity:1;stroke-miterlimit:10;" d="M 0 199.332031 L 99.667969 199.332031 L 99.667969 99.667969 L 0 99.667969 L 0 199.332031 "/>
</g>
<clipPath id="clip5">
  <rect width="300" height="300"/>
</clipPath>
<g id="surface14" clip-path="url(#clip5)">
<path style=" stroke:none;fill-rule:evenodd;fill:rgb(53.333333%,53.333333%,53.333333%);fill-opacity:1;" d="M 99.667969 199.332031 L 199.332031 199.332031 L 199.332031 99.667969 L 99.667969 99.667969 Z M 99.667969 199.332031 "/>
<path style="fill:none;stroke-width:1;stroke-linecap:round;stroke-linejoin:round;stroke:rgb(0%,0%,0%);stroke-opacity:1;stroke-miterlimit:10;" d="M 99.667969 199.332031 L 199.332031 199.332031 L 199.332031 99.667969 L 99.667969 99.667969 L 99.667969 199.332031 "/>
</g>
<clipPath id="clip6">
  <rect width="300" height="300"/>
</clipPath>
<g id="surface16" clip-path="url(#clip6)">
<path style=" stroke:none;fill-rule:evenodd;fill:rgb(53.333333%,53.333333%,53.333333%);fill-opacity:1;" d="M 199.332031 199.332031 L 299 199.332031 L 299 99.667969 L 199.332031 99.667969 Z M 199.332031 199.332031 "/>
<path style="fill:none;stroke-width:1;stroke-linecap:round;stroke-linejoin:round;stroke:rgb(0%,0%,0%);stroke-opacity:1;stroke-miterlimit:10;" d="M 199.332031 199.332031 L 299 199.332031 L 299 99.667969 L 199.332031 99.667969 L 199.332031 199.332031 "/>
</g>
<clipPath id="clip7">
  <rect width="300" height="300"/>
</clipPath>
<g id="surface18" clip-path="url(#clip7)">
<path style=" stroke:none;fill-rule:evenodd;fill:rgb(53.333333%,53.333333%,53.333333%);fill-opacity:1;" d="M 0 99.667969 L 99.667969 99.667969 L 99.667969 0 L 0 0 Z M 0 99.667969 "/>
<path style="fill:none;stroke-width:1;stroke-linecap:round;stroke-linejoin:round;stroke:rgb(0%,0%,0%);stroke-opacity:1;stroke-miterlimit:10;" d="M 0 99.667969 L 99.667969 99.667969 L 99.667969 0 L 0 0 L 0 99.667969 "/>
</g>
<clipPath id="clip8">
  <rect width="300" height="300"/>
</clipPath>
<g id="surface20" clip-path="url(#clip8)">
<path style=" stroke:none;fill-rule:evenodd;fill:rgb(53.333333%,53.333333%,53.333333%);fill-opacity:1;" d="M 99.667969 99.667969 L 199.332031 99.667969 L 199.332031 0 L 99.667969 0 Z M 99.667969 99.667969 "/>
<path style="fill:none;stroke-width:1;stroke-linecap:round;stroke-linejoin:round;stroke:rgb(0%,0%,0%);stroke-opacity:1;stroke-miterlimit:10;" d="M 99.667969 99.667969 L 199.332031 99.667969 L 199.332031 0 L 99.667969 0 L 99.667969 99.667969 "/>
</g>
<clipPath id="clip9">
  <rect width="300" height="300"/>
</clipPath>
<g id="surface22" clip-path="url(#clip9)">
<path style=" stroke:none;fill-rule:evenodd;fill:rgb(53.333333%,53.333333%,53.333333%);fill-opacity:1;" d="M 199.332031 99.667969 L 299 99.667969 L 299 0 L 199.332031 0 Z M 199.332031 99.667969 "/>
<path style="fill:none;stroke-width:1;stroke-linecap:round;stroke-linejoin:round;stroke:rgb(0%,0%,0%);stroke-opacity:1;stroke-miterlimit:10;" d="M 199.332031 99.667969 L 299 99.667969 L 299 0 L 199.332031 0 L 199.332031 99.667969 "/>
</g>
</defs>
<g id="surface2">
<rect x="0" y="0" width="300" height="300" style="fill:rgb(64.705882%,74.901961%,86.666667%);fill-opacity:1;stroke:none;"/>
<use xlink:href="#surface6"/>
<use xlink:href="#surface8"/>
<use xlink:href="#surface10"/>
<use xlink:href="#surface12"/>
<use xlink:href="#surface14"/>
<use xlink:href="#surface16"/>
<use xlink:href="#surface18"/>
<use xlink:href="#surface20"/>
<use xlink:href="#surface22"/>
<path style=" stroke:none;fill-rule:nonzero;fill:rgb(100%,0%,0%);fill-opacity:1;" d="M 254.167969 49.832031 C 254.167969 56.5 244.167969 56.5 244.167969 49.832031 C 244.167969 43.167969 254.167969 43.167969 254.167969 49.832031 "/>
<path style=" stroke:none;fill-rule:nonzero;fill:rgb(0%,0%,0%);fill-opacity:1;" d="M 255.078125 36.609375 L 255.078125 36.28125 L 258.125 36.28125 L 258.125 36.609375 L 258.03125 36.609375 L 257.671875 36.640625 C 257.503906 36.652344 257.390625 36.671875 257.328125 36.703125 C 257.273438 36.734375 257.242188 36.792969 257.234375 36.875 C 257.179688 37.105469 257.15625 37.359375 257.15625 37.640625 L 257.15625 40.9375 C 257.15625 41.742188 257.175781 42.261719 257.21875 42.5 C 257.257812 42.742188 257.363281 42.96875 257.53125 43.1875 C 257.863281 43.625 258.367188 43.84375 259.046875 43.84375 C 259.671875 43.84375 260.175781 43.65625 260.5625 43.28125 C 260.769531 43.0625 260.90625 42.824219 260.96875 42.5625 C 261.03125 42.304688 261.0625 41.839844 261.0625 41.171875 L 261.0625 37.640625 L 261.03125 37.125 C 261.019531 36.929688 260.984375 36.804688 260.921875 36.75 C 260.867188 36.6875 260.742188 36.652344 260.546875 36.640625 L 260.1875 36.609375 L 260.09375 36.609375 L 260.09375 36.28125 L 262.578125 36.28125 L 262.578125 36.609375 L 262.46875 36.609375 L 262.125 36.640625 C 261.957031 36.652344 261.84375 36.671875 261.78125 36.703125 C 261.726562 36.734375 261.691406 36.792969 261.671875 36.875 C 261.628906 37.09375 261.609375 37.351562 261.609375 37.640625 L 261.609375 40.875 C 261.609375 41.585938 261.566406 42.105469 261.484375 42.4375 C 261.410156 42.773438 261.253906 43.085938 261.015625 43.375 C 260.554688 43.917969 259.847656 44.1875 258.890625 44.1875 C 258.066406 44.1875 257.410156 43.992188 256.921875 43.59375 C 256.609375 43.335938 256.382812 43.011719 256.25 42.625 C 256.113281 42.242188 256.046875 41.734375 256.046875 41.109375 L 256.046875 37.640625 L 256.015625 37.125 C 256.003906 36.929688 255.96875 36.804688 255.90625 36.75 C 255.851562 36.6875 255.726562 36.652344 255.53125 36.640625 L 255.1875 36.609375 Z M 264.9375 40.609375 L 264.9375 42.65625 L 264.96875 43.171875 C 264.96875 43.382812 265.003906 43.511719 265.078125 43.5625 C 265.148438 43.617188 265.351562 43.652344 265.6875 43.671875 L 265.78125 43.671875 L 265.78125 44 L 262.890625 44 L 262.890625 43.671875 L 263 43.671875 L 263.34375 43.640625 C 263.539062 43.632812 263.664062 43.601562 263.71875 43.546875 C 263.78125 43.496094 263.816406 43.371094 263.828125 43.171875 L 263.859375 42.65625 L 263.859375 37.640625 L 263.828125 37.125 C 263.816406 36.929688 263.78125 36.804688 263.71875 36.75 C 263.664062 36.6875 263.539062 36.652344 263.34375 36.640625 L 263 36.609375 L 262.890625 36.609375 L 262.890625 36.28125 L 265.265625 36.28125 L 266.109375 36.25 C 266.890625 36.25 267.484375 36.417969 267.890625 36.75 C 268.296875 37.085938 268.5 37.570312 268.5 38.203125 C 268.5 38.726562 268.359375 39.171875 268.078125 39.546875 C 267.804688 39.921875 267.414062 40.199219 266.90625 40.375 L 268.421875 42.640625 L 268.90625 43.3125 C 269.007812 43.460938 269.09375 43.554688 269.15625 43.59375 C 269.226562 43.636719 269.332031 43.65625 269.46875 43.65625 C 269.507812 43.65625 269.625 43.664062 269.8125 43.671875 L 269.921875 43.671875 L 269.921875 44 L 267.953125 44 L 265.84375 40.609375 Z M 264.953125 40.25 L 265.34375 40.25 C 265.789062 40.25 266.144531 40.199219 266.40625 40.09375 C 266.675781 39.992188 266.894531 39.808594 267.0625 39.546875 C 267.269531 39.234375 267.375 38.824219 267.375 38.3125 C 267.375 37.804688 267.273438 37.40625 267.078125 37.125 C 266.953125 36.9375 266.785156 36.8125 266.578125 36.75 C 266.367188 36.679688 266.070312 36.640625 265.6875 36.640625 L 264.953125 36.640625 Z M 264.953125 40.25 "/>
<path style=" stroke:none;fill-rule:nonzero;fill:rgb(100%,0%,0%);fill-opacity:1;" d="M 154.5 49.832031 C 154.5 56.5 144.5 56.5 144.5 49.832031 C 144.5 43.167969 154.5 43.167969 154.5 49.832031 "/>
<path style=" stroke:none;fill-rule:nonzero;fill:rgb(0%,0%,0%);fill-opacity:1;" d="M 143.078125 34.609375 L 143.078125 34.28125 L 146.125 34.28125 L 146.125 34.609375 L 146.03125 34.609375 L 145.671875 34.640625 C 145.503906 34.652344 145.390625 34.671875 145.328125 34.703125 C 145.273438 34.734375 145.242188 34.792969 145.234375 34.875 C 145.179688 35.105469 145.15625 35.359375 145.15625 35.640625 L 145.15625 38.9375 C 145.15625 39.742188 145.175781 40.261719 145.21875 40.5 C 145.257812 40.742188 145.363281 40.96875 145.53125 41.1875 C 145.863281 41.625 146.367188 41.84375 147.046875 41.84375 C 147.671875 41.84375 148.175781 41.65625 148.5625 41.28125 C 148.769531 41.0625 148.90625 40.824219 148.96875 40.5625 C 149.03125 40.304688 149.0625 39.839844 149.0625 39.171875 L 149.0625 35.640625 L 149.03125 35.125 C 149.019531 34.929688 148.984375 34.804688 148.921875 34.75 C 148.867188 34.6875 148.742188 34.652344 148.546875 34.640625 L 148.1875 34.609375 L 148.09375 34.609375 L 148.09375 34.28125 L 150.578125 34.28125 L 150.578125 34.609375 L 150.46875 34.609375 L 150.125 34.640625 C 149.957031 34.652344 149.84375 34.671875 149.78125 34.703125 C 149.726562 34.734375 149.691406 34.792969 149.671875 34.875 C 149.628906 35.09375 149.609375 35.351562 149.609375 35.640625 L 149.609375 38.875 C 149.609375 39.585938 149.566406 40.105469 149.484375 40.4375 C 149.410156 40.773438 149.253906 41.085938 149.015625 41.375 C 148.554688 41.917969 147.847656 42.1875 146.890625 42.1875 C 146.066406 42.1875 145.410156 41.992188 144.921875 41.59375 C 144.609375 41.335938 144.382812 41.011719 144.25 40.625 C 144.113281 40.242188 144.046875 39.734375 144.046875 39.109375 L 144.046875 35.640625 L 144.015625 35.125 C 144.003906 34.929688 143.96875 34.804688 143.90625 34.75 C 143.851562 34.6875 143.726562 34.652344 143.53125 34.640625 L 143.1875 34.609375 Z M 157.484375 41.59375 C 156.785156 41.992188 155.96875 42.1875 155.03125 42.1875 C 153.851562 42.1875 152.921875 41.828125 152.234375 41.109375 C 151.554688 40.382812 151.21875 39.386719 151.21875 38.125 C 151.21875 36.710938 151.628906 35.632812 152.453125 34.890625 C 153.054688 34.359375 153.894531 34.09375 154.96875 34.09375 C 155.5625 34.09375 156.289062 34.203125 157.15625 34.421875 L 157.34375 34.484375 L 157.34375 35.953125 L 156.703125 35.953125 L 156.703125 35.84375 C 156.691406 35.742188 156.6875 35.640625 156.6875 35.546875 C 156.6875 35.257812 156.613281 35.046875 156.46875 34.921875 C 156.300781 34.789062 156.070312 34.671875 155.78125 34.578125 C 155.488281 34.484375 155.203125 34.4375 154.921875 34.4375 C 154.140625 34.4375 153.515625 34.773438 153.046875 35.4375 C 152.585938 36.105469 152.359375 37 152.359375 38.125 C 152.359375 39.242188 152.628906 40.109375 153.171875 40.734375 C 153.710938 41.359375 154.472656 41.671875 155.453125 41.671875 C 156.085938 41.671875 156.765625 41.480469 157.484375 41.09375 Z M 157.484375 41.59375 "/>
<path style=" stroke:none;fill-rule:nonzero;fill:rgb(100%,0%,0%);fill-opacity:1;" d="M 54.832031 49.832031 C 54.832031 56.5 44.832031 56.5 44.832031 49.832031 C 44.832031 43.167969 54.832031 43.167969 54.832031 49.832031 "/>
<path style=" stroke:none;fill-rule:nonzero;fill:rgb(0%,0%,0%);fill-opacity:1;" d="M 31.078125 36.609375 L 31.078125 36.28125 L 34.125 36.28125 L 34.125 36.609375 L 34.03125 36.609375 L 33.671875 36.640625 C 33.503906 36.652344 33.390625 36.671875 33.328125 36.703125 C 33.273438 36.734375 33.242188 36.792969 33.234375 36.875 C 33.179688 37.105469 33.15625 37.359375 33.15625 37.640625 L 33.15625 40.9375 C 33.15625 41.742188 33.175781 42.261719 33.21875 42.5 C 33.257812 42.742188 33.363281 42.96875 33.53125 43.1875 C 33.863281 43.625 34.367188 43.84375 35.046875 43.84375 C 35.671875 43.84375 36.175781 43.65625 36.5625 43.28125 C 36.769531 43.0625 36.90625 42.824219 36.96875 42.5625 C 37.03125 42.304688 37.0625 41.839844 37.0625 41.171875 L 37.0625 37.640625 L 37.03125 37.125 C 37.019531 36.929688 36.984375 36.804688 36.921875 36.75 C 36.867188 36.6875 36.742188 36.652344 36.546875 36.640625 L 36.1875 36.609375 L 36.09375 36.609375 L 36.09375 36.28125 L 38.578125 36.28125 L 38.578125 36.609375 L 38.46875 36.609375 L 38.125 36.640625 C 37.957031 36.652344 37.84375 36.671875 37.78125 36.703125 C 37.726562 36.734375 37.691406 36.792969 37.671875 36.875 C 37.628906 37.09375 37.609375 37.351562 37.609375 37.640625 L 37.609375 40.875 C 37.609375 41.585938 37.566406 42.105469 37.484375 42.4375 C 37.410156 42.773438 37.253906 43.085938 37.015625 43.375 C 36.554688 43.917969 35.847656 44.1875 34.890625 44.1875 C 34.066406 44.1875 33.410156 43.992188 32.921875 43.59375 C 32.609375 43.335938 32.382812 43.011719 32.25 42.625 C 32.113281 42.242188 32.046875 41.734375 32.046875 41.109375 L 32.046875 37.640625 L 32.015625 37.125 C 32.003906 36.929688 31.96875 36.804688 31.90625 36.75 C 31.851562 36.6875 31.726562 36.652344 31.53125 36.640625 L 31.1875 36.609375 Z M 44.421875 44 L 38.890625 44 L 38.890625 43.671875 L 39 43.671875 L 39.34375 43.640625 C 39.539062 43.632812 39.664062 43.601562 39.71875 43.546875 C 39.78125 43.496094 39.816406 43.371094 39.828125 43.171875 L 39.859375 42.65625 L 39.859375 37.640625 L 39.828125 37.125 C 39.816406 36.929688 39.78125 36.804688 39.71875 36.75 C 39.664062 36.6875 39.539062 36.652344 39.34375 36.640625 L 39 36.609375 L 38.890625 36.609375 L 38.890625 36.28125 L 41.921875 36.28125 L 41.921875 36.609375 L 41.8125 36.609375 L 41.46875 36.640625 C 41.269531 36.652344 41.140625 36.6875 41.078125 36.75 C 41.023438 36.804688 40.992188 36.929688 40.984375 37.125 L 40.953125 37.640625 L 40.953125 42.65625 C 40.953125 43.117188 40.984375 43.382812 41.046875 43.453125 C 41.117188 43.515625 41.382812 43.546875 41.84375 43.546875 L 42.640625 43.546875 C 43.097656 43.546875 43.429688 43.515625 43.640625 43.453125 C 43.773438 43.414062 43.847656 43.292969 43.859375 43.09375 L 43.875 42.5625 L 43.875 42.453125 L 44.421875 42.453125 Z M 44.421875 44 "/>
<path style=" stroke:none;fill-rule:nonzero;fill:rgb(100%,0%,0%);fill-opacity:1;" d="M 254.167969 149.5 C 254.167969 156.167969 244.167969 156.167969 244.167969 149.5 C 244.167969 142.832031 254.167969 142.832031 254.167969 149.5 "/>
<path style=" stroke:none;fill-rule:nonzero;fill:rgb(0%,0%,0%);fill-opacity:1;" d="M 262.8125 152.59375 C 262.113281 152.992188 261.296875 153.1875 260.359375 153.1875 C 259.179688 153.1875 258.25 152.828125 257.5625 152.109375 C 256.882812 151.382812 256.546875 150.386719 256.546875 149.125 C 256.546875 147.710938 256.957031 146.632812 257.78125 145.890625 C 258.382812 145.359375 259.222656 145.09375 260.296875 145.09375 C 260.890625 145.09375 261.617188 145.203125 262.484375 145.421875 L 262.671875 145.484375 L 262.671875 146.953125 L 262.03125 146.953125 L 262.03125 146.84375 C 262.019531 146.742188 262.015625 146.640625 262.015625 146.546875 C 262.015625 146.257812 261.941406 146.046875 261.796875 145.921875 C 261.628906 145.789062 261.398438 145.671875 261.109375 145.578125 C 260.816406 145.484375 260.53125 145.4375 260.25 145.4375 C 259.46875 145.4375 258.84375 145.773438 258.375 146.4375 C 257.914062 147.105469 257.6875 148 257.6875 149.125 C 257.6875 150.242188 257.957031 151.109375 258.5 151.734375 C 259.039062 152.359375 259.800781 152.671875 260.78125 152.671875 C 261.414062 152.671875 262.09375 152.480469 262.8125 152.09375 Z M 265.6875 149.609375 L 265.6875 151.65625 L 265.71875 152.171875 C 265.71875 152.382812 265.753906 152.511719 265.828125 152.5625 C 265.898438 152.617188 266.101562 152.652344 266.4375 152.671875 L 266.53125 152.671875 L 266.53125 153 L 263.640625 153 L 263.640625 152.671875 L 263.75 152.671875 L 264.09375 152.640625 C 264.289062 152.632812 264.414062 152.601562 264.46875 152.546875 C 264.53125 152.496094 264.566406 152.371094 264.578125 152.171875 L 264.609375 151.65625 L 264.609375 146.640625 L 264.578125 146.125 C 264.566406 145.929688 264.53125 145.804688 264.46875 145.75 C 264.414062 145.6875 264.289062 145.652344 264.09375 145.640625 L 263.75 145.609375 L 263.640625 145.609375 L 263.640625 145.28125 L 266.015625 145.28125 L 266.859375 145.25 C 267.640625 145.25 268.234375 145.417969 268.640625 145.75 C 269.046875 146.085938 269.25 146.570312 269.25 147.203125 C 269.25 147.726562 269.109375 148.171875 268.828125 148.546875 C 268.554688 148.921875 268.164062 149.199219 267.65625 149.375 L 269.171875 151.640625 L 269.65625 152.3125 C 269.757812 152.460938 269.84375 152.554688 269.90625 152.59375 C 269.976562 152.636719 270.082031 152.65625 270.21875 152.65625 C 270.257812 152.65625 270.375 152.664062 270.5625 152.671875 L 270.671875 152.671875 L 270.671875 153 L 268.703125 153 L 266.59375 149.609375 Z M 265.703125 149.25 L 266.09375 149.25 C 266.539062 149.25 266.894531 149.199219 267.15625 149.09375 C 267.425781 148.992188 267.644531 148.808594 267.8125 148.546875 C 268.019531 148.234375 268.125 147.824219 268.125 147.3125 C 268.125 146.804688 268.023438 146.40625 267.828125 146.125 C 267.703125 145.9375 267.535156 145.8125 267.328125 145.75 C 267.117188 145.679688 266.820312 145.640625 266.4375 145.640625 L 265.703125 145.640625 Z M 265.703125 149.25 "/>
<path style=" stroke:none;fill-rule:nonzero;fill:rgb(100%,0%,0%);fill-opacity:1;" d="M 154.5 149.5 C 154.5 156.167969 144.5 156.167969 144.5 149.5 C 144.5 142.832031 154.5 142.832031 154.5 149.5 "/>
<path style=" stroke:none;fill-rule:nonzero;fill:rgb(0%,0%,0%);fill-opacity:1;" d="M 115.953125 141.625 L 115.5 142.65625 C 115.4375 142.792969 115.398438 142.886719 115.390625 142.9375 L 115.28125 143.296875 C 115.257812 143.371094 115.25 143.429688 115.25 143.46875 C 115.25 143.605469 115.378906 143.671875 115.640625 143.671875 L 116 143.671875 L 116 144 L 114 144 L 114 143.671875 L 114.109375 143.671875 L 114.359375 143.65625 C 114.472656 143.65625 114.5625 143.625 114.625 143.5625 C 114.695312 143.492188 114.769531 143.371094 114.84375 143.203125 L 115.078125 142.65625 L 117.796875 136.1875 L 118.15625 136.1875 L 120.859375 142.6875 L 121.125 143.21875 C 121.21875 143.429688 121.296875 143.554688 121.359375 143.59375 C 121.429688 143.636719 121.585938 143.664062 121.828125 143.671875 L 121.9375 143.671875 L 121.9375 144 L 119.078125 144 L 119.078125 143.671875 L 119.5 143.671875 C 119.769531 143.671875 119.90625 143.605469 119.90625 143.46875 C 119.90625 143.261719 119.832031 142.992188 119.6875 142.65625 L 119.25 141.625 Z M 116.125 141.203125 L 119.0625 141.203125 L 117.59375 137.6875 Z M 122.019531 136.609375 L 122.019531 136.28125 L 125.066406 136.28125 L 125.066406 136.609375 L 124.972656 136.609375 L 124.613281 136.640625 C 124.445312 136.652344 124.332031 136.671875 124.269531 136.703125 C 124.214844 136.734375 124.183594 136.792969 124.175781 136.875 C 124.121094 137.105469 124.097656 137.359375 124.097656 137.640625 L 124.097656 140.9375 C 124.097656 141.742188 124.117188 142.261719 124.160156 142.5 C 124.199219 142.742188 124.304688 142.96875 124.472656 143.1875 C 124.804688 143.625 125.308594 143.84375 125.988281 143.84375 C 126.613281 143.84375 127.117188 143.65625 127.503906 143.28125 C 127.710938 143.0625 127.847656 142.824219 127.910156 142.5625 C 127.972656 142.304688 128.003906 141.839844 128.003906 141.171875 L 128.003906 137.640625 L 127.972656 137.125 C 127.960938 136.929688 127.925781 136.804688 127.863281 136.75 C 127.808594 136.6875 127.683594 136.652344 127.488281 136.640625 L 127.128906 136.609375 L 127.035156 136.609375 L 127.035156 136.28125 L 129.519531 136.28125 L 129.519531 136.609375 L 129.410156 136.609375 L 129.066406 136.640625 C 128.898438 136.652344 128.785156 136.671875 128.722656 136.703125 C 128.667969 136.734375 128.632812 136.792969 128.613281 136.875 C 128.570312 137.09375 128.550781 137.351562 128.550781 137.640625 L 128.550781 140.875 C 128.550781 141.585938 128.507812 142.105469 128.425781 142.4375 C 128.351562 142.773438 128.195312 143.085938 127.957031 143.375 C 127.496094 143.917969 126.789062 144.1875 125.832031 144.1875 C 125.007812 144.1875 124.351562 143.992188 123.863281 143.59375 C 123.550781 143.335938 123.324219 143.011719 123.191406 142.625 C 123.054688 142.242188 122.988281 141.734375 122.988281 141.109375 L 122.988281 137.640625 L 122.957031 137.125 C 122.945312 136.929688 122.910156 136.804688 122.847656 136.75 C 122.792969 136.6875 122.667969 136.652344 122.472656 136.640625 L 122.128906 136.609375 Z M 132.597656 136.703125 L 131.363281 136.703125 L 130.832031 136.734375 C 130.644531 136.734375 130.523438 136.761719 130.472656 136.8125 C 130.417969 136.855469 130.394531 136.964844 130.394531 137.140625 C 130.394531 137.320312 130.394531 137.46875 130.394531 137.59375 L 130.378906 137.703125 L 129.832031 137.703125 L 129.832031 136.28125 L 136.457031 136.28125 L 136.457031 137.703125 L 135.910156 137.703125 L 135.910156 137.59375 C 135.898438 137.46875 135.894531 137.320312 135.894531 137.140625 C 135.894531 136.964844 135.867188 136.855469 135.816406 136.8125 C 135.761719 136.761719 135.648438 136.734375 135.472656 136.734375 L 134.925781 136.703125 L 133.691406 136.703125 L 133.691406 142.65625 L 133.722656 143.171875 C 133.730469 143.371094 133.761719 143.496094 133.816406 143.546875 C 133.878906 143.601562 134.007812 143.632812 134.207031 143.640625 L 134.566406 143.671875 L 134.785156 143.671875 L 134.785156 144 L 131.503906 144 L 131.503906 143.671875 L 131.738281 143.671875 L 132.082031 143.640625 C 132.277344 143.632812 132.402344 143.601562 132.457031 143.546875 C 132.519531 143.496094 132.554688 143.371094 132.566406 143.171875 L 132.597656 142.65625 Z M 140.777344 144.1875 C 139.816406 144.1875 139.015625 143.882812 138.371094 143.265625 C 137.609375 142.546875 137.230469 141.507812 137.230469 140.140625 C 137.230469 138.890625 137.546875 137.90625 138.183594 137.1875 C 138.828125 136.460938 139.707031 136.09375 140.824219 136.09375 C 141.9375 136.09375 142.816406 136.453125 143.464844 137.171875 C 144.109375 137.890625 144.433594 138.875 144.433594 140.125 C 144.433594 141.398438 144.109375 142.390625 143.464844 143.109375 C 142.816406 143.828125 141.921875 144.1875 140.777344 144.1875 Z M 140.792969 143.84375 C 141.574219 143.84375 142.183594 143.523438 142.621094 142.875 C 143.058594 142.21875 143.277344 141.304688 143.277344 140.125 C 143.277344 138.980469 143.058594 138.078125 142.621094 137.421875 C 142.183594 136.765625 141.582031 136.4375 140.824219 136.4375 C 140.0625 136.4375 139.464844 136.765625 139.027344 137.421875 C 138.597656 138.078125 138.386719 138.984375 138.386719 140.140625 C 138.386719 141.289062 138.597656 142.195312 139.027344 142.859375 C 139.453125 143.515625 140.042969 143.84375 140.792969 143.84375 Z M 140.792969 143.84375 "/>
<path style=" stroke:none;fill-rule:nonzero;fill:rgb(100%,0%,0%);fill-opacity:1;" d="M 54.832031 149.5 C 54.832031 156.167969 44.832031 156.167969 44.832031 149.5 C 44.832031 142.832031 54.832031 142.832031 54.832031 149.5 "/>
<path style=" stroke:none;fill-rule:nonzero;fill:rgb(0%,0%,0%);fill-opacity:1;" d="M 35.8125 152.59375 C 35.113281 152.992188 34.296875 153.1875 33.359375 153.1875 C 32.179688 153.1875 31.25 152.828125 30.5625 152.109375 C 29.882812 151.382812 29.546875 150.386719 29.546875 149.125 C 29.546875 147.710938 29.957031 146.632812 30.78125 145.890625 C 31.382812 145.359375 32.222656 145.09375 33.296875 145.09375 C 33.890625 145.09375 34.617188 145.203125 35.484375 145.421875 L 35.671875 145.484375 L 35.671875 146.953125 L 35.03125 146.953125 L 35.03125 146.84375 C 35.019531 146.742188 35.015625 146.640625 35.015625 146.546875 C 35.015625 146.257812 34.941406 146.046875 34.796875 145.921875 C 34.628906 145.789062 34.398438 145.671875 34.109375 145.578125 C 33.816406 145.484375 33.53125 145.4375 33.25 145.4375 C 32.46875 145.4375 31.84375 145.773438 31.375 146.4375 C 30.914062 147.105469 30.6875 148 30.6875 149.125 C 30.6875 150.242188 30.957031 151.109375 31.5 151.734375 C 32.039062 152.359375 32.800781 152.671875 33.78125 152.671875 C 34.414062 152.671875 35.09375 152.480469 35.8125 152.09375 Z M 42.171875 153 L 36.640625 153 L 36.640625 152.671875 L 36.75 152.671875 L 37.09375 152.640625 C 37.289062 152.632812 37.414062 152.601562 37.46875 152.546875 C 37.53125 152.496094 37.566406 152.371094 37.578125 152.171875 L 37.609375 151.65625 L 37.609375 146.640625 L 37.578125 146.125 C 37.566406 145.929688 37.53125 145.804688 37.46875 145.75 C 37.414062 145.6875 37.289062 145.652344 37.09375 145.640625 L 36.75 145.609375 L 36.640625 145.609375 L 36.640625 145.28125 L 39.671875 145.28125 L 39.671875 145.609375 L 39.5625 145.609375 L 39.21875 145.640625 C 39.019531 145.652344 38.890625 145.6875 38.828125 145.75 C 38.773438 145.804688 38.742188 145.929688 38.734375 146.125 L 38.703125 146.640625 L 38.703125 151.65625 C 38.703125 152.117188 38.734375 152.382812 38.796875 152.453125 C 38.867188 152.515625 39.132812 152.546875 39.59375 152.546875 L 40.390625 152.546875 C 40.847656 152.546875 41.179688 152.515625 41.390625 152.453125 C 41.523438 152.414062 41.597656 152.292969 41.609375 152.09375 L 41.625 151.5625 L 41.625 151.453125 L 42.171875 151.453125 Z M 42.171875 153 "/>
<path style=" stroke:none;fill-rule:nonzero;fill:rgb(100%,0%,0%);fill-opacity:1;" d="M 254.167969 249.167969 C 254.167969 255.832031 244.167969 255.832031 244.167969 249.167969 C 244.167969 242.5 254.167969 242.5 254.167969 249.167969 "/>
<path style=" stroke:none;fill-rule:nonzero;fill:rgb(0%,0%,0%);fill-opacity:1;" d="M 260.75 262 L 255.21875 262 L 255.21875 261.671875 L 255.328125 261.671875 L 255.671875 261.640625 C 255.867188 261.632812 255.992188 261.601562 256.046875 261.546875 C 256.109375 261.496094 256.144531 261.371094 256.15625 261.171875 L 256.1875 260.65625 L 256.1875 255.640625 L 256.15625 255.125 C 256.144531 254.929688 256.109375 254.804688 256.046875 254.75 C 255.992188 254.6875 255.867188 254.652344 255.671875 254.640625 L 255.328125 254.609375 L 255.21875 254.609375 L 255.21875 254.28125 L 258.25 254.28125 L 258.25 254.609375 L 258.140625 254.609375 L 257.796875 254.640625 C 257.597656 254.652344 257.46875 254.6875 257.40625 254.75 C 257.351562 254.804688 257.320312 254.929688 257.3125 255.125 L 257.28125 255.640625 L 257.28125 260.65625 C 257.28125 261.117188 257.3125 261.382812 257.375 261.453125 C 257.445312 261.515625 257.710938 261.546875 258.171875 261.546875 L 258.96875 261.546875 C 259.425781 261.546875 259.757812 261.515625 259.96875 261.453125 C 260.101562 261.414062 260.175781 261.292969 260.1875 261.09375 L 260.203125 260.5625 L 260.203125 260.453125 L 260.75 260.453125 Z M 263.210938 258.609375 L 263.210938 260.65625 L 263.242188 261.171875 C 263.242188 261.382812 263.277344 261.511719 263.351562 261.5625 C 263.421875 261.617188 263.625 261.652344 263.960938 261.671875 L 264.054688 261.671875 L 264.054688 262 L 261.164062 262 L 261.164062 261.671875 L 261.273438 261.671875 L 261.617188 261.640625 C 261.8125 261.632812 261.9375 261.601562 261.992188 261.546875 C 262.054688 261.496094 262.089844 261.371094 262.101562 261.171875 L 262.132812 260.65625 L 262.132812 255.640625 L 262.101562 255.125 C 262.089844 254.929688 262.054688 254.804688 261.992188 254.75 C 261.9375 254.6875 261.8125 254.652344 261.617188 254.640625 L 261.273438 254.609375 L 261.164062 254.609375 L 261.164062 254.28125 L 263.539062 254.28125 L 264.382812 254.25 C 265.164062 254.25 265.757812 254.417969 266.164062 254.75 C 266.570312 255.085938 266.773438 255.570312 266.773438 256.203125 C 266.773438 256.726562 266.632812 257.171875 266.351562 257.546875 C 266.078125 257.921875 265.6875 258.199219 265.179688 258.375 L 266.695312 260.640625 L 267.179688 261.3125 C 267.28125 261.460938 267.367188 261.554688 267.429688 261.59375 C 267.5 261.636719 267.605469 261.65625 267.742188 261.65625 C 267.78125 261.65625 267.898438 261.664062 268.085938 261.671875 L 268.195312 261.671875 L 268.195312 262 L 266.226562 262 L 264.117188 258.609375 Z M 263.226562 258.25 L 263.617188 258.25 C 264.0625 258.25 264.417969 258.199219 264.679688 258.09375 C 264.949219 257.992188 265.167969 257.808594 265.335938 257.546875 C 265.542969 257.234375 265.648438 256.824219 265.648438 256.3125 C 265.648438 255.804688 265.546875 255.40625 265.351562 255.125 C 265.226562 254.9375 265.058594 254.8125 264.851562 254.75 C 264.640625 254.679688 264.34375 254.640625 263.960938 254.640625 L 263.226562 254.640625 Z M 263.226562 258.25 "/>
<path style=" stroke:none;fill-rule:nonzero;fill:rgb(100%,0%,0%);fill-opacity:1;" d="M 154.5 249.167969 C 154.5 255.832031 144.5 255.832031 144.5 249.167969 C 144.5 242.5 154.5 242.5 154.5 249.167969 "/>
<path style=" stroke:none;fill-rule:nonzero;fill:rgb(0%,0%,0%);fill-opacity:1;" d="M 148.75 264 L 143.21875 264 L 143.21875 263.671875 L 143.328125 263.671875 L 143.671875 263.640625 C 143.867188 263.632812 143.992188 263.601562 144.046875 263.546875 C 144.109375 263.496094 144.144531 263.371094 144.15625 263.171875 L 144.1875 262.65625 L 144.1875 257.640625 L 144.15625 257.125 C 144.144531 256.929688 144.109375 256.804688 144.046875 256.75 C 143.992188 256.6875 143.867188 256.652344 143.671875 256.640625 L 143.328125 256.609375 L 143.21875 256.609375 L 143.21875 256.28125 L 146.25 256.28125 L 146.25 256.609375 L 146.140625 256.609375 L 145.796875 256.640625 C 145.597656 256.652344 145.46875 256.6875 145.40625 256.75 C 145.351562 256.804688 145.320312 256.929688 145.3125 257.125 L 145.28125 257.640625 L 145.28125 262.65625 C 145.28125 263.117188 145.3125 263.382812 145.375 263.453125 C 145.445312 263.515625 145.710938 263.546875 146.171875 263.546875 L 146.96875 263.546875 C 147.425781 263.546875 147.757812 263.515625 147.96875 263.453125 C 148.101562 263.414062 148.175781 263.292969 148.1875 263.09375 L 148.203125 262.5625 L 148.203125 262.453125 L 148.75 262.453125 Z M 155.757812 263.59375 C 155.058594 263.992188 154.242188 264.1875 153.304688 264.1875 C 152.125 264.1875 151.195312 263.828125 150.507812 263.109375 C 149.828125 262.382812 149.492188 261.386719 149.492188 260.125 C 149.492188 258.710938 149.902344 257.632812 150.726562 256.890625 C 151.328125 256.359375 152.167969 256.09375 153.242188 256.09375 C 153.835938 256.09375 154.5625 256.203125 155.429688 256.421875 L 155.617188 256.484375 L 155.617188 257.953125 L 154.976562 257.953125 L 154.976562 257.84375 C 154.964844 257.742188 154.960938 257.640625 154.960938 257.546875 C 154.960938 257.257812 154.886719 257.046875 154.742188 256.921875 C 154.574219 256.789062 154.34375 256.671875 154.054688 256.578125 C 153.761719 256.484375 153.476562 256.4375 153.195312 256.4375 C 152.414062 256.4375 151.789062 256.773438 151.320312 257.4375 C 150.859375 258.105469 150.632812 259 150.632812 260.125 C 150.632812 261.242188 150.902344 262.109375 151.445312 262.734375 C 151.984375 263.359375 152.746094 263.671875 153.726562 263.671875 C 154.359375 263.671875 155.039062 263.480469 155.757812 263.09375 Z M 155.757812 263.59375 "/>
<path style=" stroke:none;fill-rule:nonzero;fill:rgb(100%,0%,0%);fill-opacity:1;" d="M 54.832031 249.167969 C 54.832031 255.832031 44.832031 255.832031 44.832031 249.167969 C 44.832031 242.5 54.832031 242.5 54.832031 249.167969 "/>
<path style=" stroke:none;fill-rule:nonzero;fill:rgb(0%,0%,0%);fill-opacity:1;" d="M 38.75 262 L 33.21875 262 L 33.21875 261.671875 L 33.328125 261.671875 L 33.671875 261.640625 C 33.867188 261.632812 33.992188 261.601562 34.046875 261.546875 C 34.109375 261.496094 34.144531 261.371094 34.15625 261.171875 L 34.1875 260.65625 L 34.1875 255.640625 L 34.15625 255.125 C 34.144531 254.929688 34.109375 254.804688 34.046875 254.75 C 33.992188 254.6875 33.867188 254.652344 33.671875 254.640625 L 33.328125 254.609375 L 33.21875 254.609375 L 33.21875 254.28125 L 36.25 254.28125 L 36.25 254.609375 L 36.140625 254.609375 L 35.796875 254.640625 C 35.597656 254.652344 35.46875 254.6875 35.40625 254.75 C 35.351562 254.804688 35.320312 254.929688 35.3125 255.125 L 35.28125 255.640625 L 35.28125 260.65625 C 35.28125 261.117188 35.3125 261.382812 35.375 261.453125 C 35.445312 261.515625 35.710938 261.546875 36.171875 261.546875 L 36.96875 261.546875 C 37.425781 261.546875 37.757812 261.515625 37.96875 261.453125 C 38.101562 261.414062 38.175781 261.292969 38.1875 261.09375 L 38.203125 260.5625 L 38.203125 260.453125 L 38.75 260.453125 Z M 44.695312 262 L 39.164062 262 L 39.164062 261.671875 L 39.273438 261.671875 L 39.617188 261.640625 C 39.8125 261.632812 39.9375 261.601562 39.992188 261.546875 C 40.054688 261.496094 40.089844 261.371094 40.101562 261.171875 L 40.132812 260.65625 L 40.132812 255.640625 L 40.101562 255.125 C 40.089844 254.929688 40.054688 254.804688 39.992188 254.75 C 39.9375 254.6875 39.8125 254.652344 39.617188 254.640625 L 39.273438 254.609375 L 39.164062 254.609375 L 39.164062 254.28125 L 42.195312 254.28125 L 42.195312 254.609375 L 42.085938 254.609375 L 41.742188 254.640625 C 41.542969 254.652344 41.414062 254.6875 41.351562 254.75 C 41.296875 254.804688 41.265625 254.929688 41.257812 255.125 L 41.226562 255.640625 L 41.226562 260.65625 C 41.226562 261.117188 41.257812 261.382812 41.320312 261.453125 C 41.390625 261.515625 41.65625 261.546875 42.117188 261.546875 L 42.914062 261.546875 C 43.371094 261.546875 43.703125 261.515625 43.914062 261.453125 C 44.046875 261.414062 44.121094 261.292969 44.132812 261.09375 L 44.148438 260.5625 L 44.148438 260.453125 L 44.695312 260.453125 Z M 44.695312 262 "/>
</g>
</svg>
