<?xml version="1.0" encoding="UTF-8"?>
<svg xmlns="http://www.w3.org/2000/svg" xmlns:xlink="http://www.w3.org/1999/xlink" width="400pt" height="300pt" viewBox="0 0 400 300" version="1.1">
<defs>
<clipPath id="clip1">
  <rect width="24" height="16"/>
</clipPath>
<g id="surface1" clip-path="url(#clip1)">
<rect x="0" y="0" width="24" height="16" style="fill:rgb(0%,0%,0%);fill-opacity:0;stroke:none;"/>
<path style="fill:none;stroke-width:1;stroke-linecap:round;stroke-linejoin:round;stroke:rgb(0%,0%,0%);stroke-opacity:1;stroke-miterlimit:10;" d="M 2.808594 15.714844 L 21.191406 0.285156 M 9.921875 -0.699219 L 21.191406 0.285156 L 20.207031 11.558594 "/>
</g>
<pattern id="pattern0" patternUnits="userSpaceOnUse" width="24" height="16">
<use xlink:href="#surface1"/>
</pattern>
<clipPath id="clip2">
  <rect width="12" height="8"/>
</clipPath>
<g id="surface2" clip-path="url(#clip2)">
<rect x="0" y="0" width="12" height="8" style="fill:rgb(0%,0%,0%);fill-opacity:0;stroke:none;"/>
<path style="fill:none;stroke-width:1;stroke-linecap:round;stroke-linejoin:round;stroke:rgb(0%,0%,0%);stroke-opacity:1;stroke-miterlimit:10;" d="M 0 4 L 12 4 M 8 0 L 12 4 L 8 8 "/>
</g>
<pattern id="pattern1" patternUnits="userSpaceOnUse" width="12" height="8">
<use xlink:href="#surface2"/>
</pattern>
<pattern id="pattern2" patternUnits="userSpaceOnUse" width="24" height="16">
<use xlink:href="#surface1"/>
</pattern>
<pattern id="pattern3" patternUnits="userSpaceOnUse" width="24" height="16">
<use xlink:href="#surface1"/>
</pattern>
</defs>
<g id="surface0">
<rect x="0" y="0" width="400" height="300" style="fill:rgb(100%,100%,100%);fill-opacity:1;stroke:none;"/>
<path style=" stroke:none;fill-rule:evenodd;fill:rgb(70.588235%,70.588235%,39.215686%);fill-opacity:1;" d="M 203.46875 109.300781 L 196.523438 128.160156 L 211.410156 137.09375 L 227.292969 117.242188 L 203.46875 109.300781 Z M 203.46875 109.300781 "/>
<path style=" stroke:none;fill-rule:evenodd;fill:url(#pattern0);" d="M 203.46875 109.300781 L 196.523438 128.160156 L 211.410156 137.09375 L 227.292969 117.242188 L 203.46875 109.300781 "/>
<path style=" stroke:none;fill-rule:evenodd;fill:rgb(70.588235%,70.588235%,70.588235%);fill-opacity:1;" d="M 335.476562 74.5625 L 279.894531 126.175781 L 399 124.191406 L 315.625 109.300781 L 389.074219 87.464844 L 335.476562 74.5625 Z M 335.476562 74.5625 "/>
<path style=" stroke:none;fill-rule:evenodd;fill:url(#pattern1);" d="M 335.476562 74.5625 L 279.894531 126.175781 L 399 124.191406 L 315.625 109.300781 L 389.074219 87.464844 L 335.476562 74.5625 "/>
<path style=" stroke:none;fill-rule:evenodd;fill:rgb(70.588235%,70.588235%,39.215686%);fill-opacity:1;" d="M 32.753906 123.199219 L 59.550781 167.863281 L 179.648438 100.371094 L 32.753906 123.199219 Z M 32.753906 123.199219 "/>
<path style=" stroke:none;fill-rule:evenodd;fill:url(#pattern2);" d="M 32.753906 123.199219 L 59.550781 167.863281 L 179.648438 100.371094 L 32.753906 123.199219 "/>
<path style=" stroke:none;fill-rule:evenodd;fill:rgb(70.588235%,70.588235%,39.215686%);fill-opacity:1;" d="M 152.851562 162.898438 L 0 195.652344 L 75.433594 224.4375 L 230.269531 186.71875 L 152.851562 162.898438 Z M 134.984375 180.765625 L 143.917969 194.660156 L 45.65625 200.617188 L 134.984375 180.765625 Z M 134.984375 180.765625 "/>
<path style=" stroke:none;fill-rule:evenodd;fill:url(#pattern3);" d="M 152.851562 162.898438 L 0 195.652344 L 75.433594 224.4375 L 230.269531 186.71875 L 152.851562 162.898438 M 134.984375 180.765625 L 143.917969 194.660156 L 45.65625 200.617188 L 134.984375 180.765625 "/>
</g>
</svg>
