<?xml version="1.0" encoding="UTF-8"?>
<svg xmlns="http://www.w3.org/2000/svg" xmlns:xlink="http://www.w3.org/1999/xlink" width="400pt" height="300pt" viewBox="0 0 400 300" version="1.1">
<g id="surface0">
<rect x="0" y="0" width="400" height="300" style="fill:rgb(100%,100%,100%);fill-opacity:1;stroke:none;"/>
<path style=" stroke:none;fill-rule:evenodd;fill:rgb(70.588235%,70.588235%,70.588235%);fill-opacity:1;" d="M 203.46875 109.300781 L 196.523438 128.160156 L 211.410156 137.09375 L 227.292969 117.242188 L 203.46875 109.300781 Z M 203.46875 109.300781 "/>
<path style=" stroke:none;fill-rule:evenodd;fill:rgb(70.588235%,70.588235%,70.588235%);fill-opacity:1;" d="M 335.476562 74.5625 L 279.894531 126.175781 L 399 124.191406 L 315.625 109.300781 L 389.074219 87.464844 L 335.476562 74.5625 Z M 335.476562 74.5625 "/>
<path style=" stroke:none;fill-rule:evenodd;fill:rgb(70.588235%,70.588235%,70.588235%);fill-opacity:1;" d="M 32.753906 123.199219 L 59.550781 167.863281 L 179.648438 100.371094 L 32.753906 123.199219 Z M 32.753906 123.199219 "/>
<path style=" stroke:none;fill-rule:evenodd;fill:rgb(70.588235%,70.588235%,70.588235%);fill-opacity:1;" d="M 152.851562 162.898438 L 0 195.652344 L 75.433594 224.4375 L 230.269531 186.71875 L 152.851562 162.898438 Z M 134.984375 180.765625 L 143.917969 194.660156 L 45.65625 200.617188 L 134.984375 180.765625 Z M 134.984375 180.765625 "/>
<path style=" stroke:none;fill-rule:evenodd;fill:rgb(0%,0%,0%);fill-opacity:1;" d="M 146.890625 201.8125 C 146.347656 202.019531 145.816406 202.125 145.296875 202.125 C 144.472656 202.125 143.800781 201.851562 143.28125 201.296875 C 142.769531 200.746094 142.515625 200.027344 142.515625 199.140625 C 142.515625 198.265625 142.757812 197.5625 143.25 197.03125 C 143.75 196.492188 144.40625 196.21875 145.21875 196.21875 C 145.644531 196.21875 146.203125 196.304688 146.890625 196.46875 L 146.890625 197.828125 L 146.25 197.828125 L 146.234375 197.734375 C 146.234375 197.320312 146.171875 197.039062 146.046875 196.890625 C 145.859375 196.671875 145.582031 196.5625 145.21875 196.5625 C 144.71875 196.5625 144.320312 196.792969 144.03125 197.25 C 143.738281 197.699219 143.59375 198.308594 143.59375 199.078125 C 143.59375 199.859375 143.765625 200.480469 144.109375 200.9375 C 144.453125 201.398438 144.925781 201.625 145.53125 201.625 C 146.039062 201.625 146.492188 201.539062 146.890625 201.359375 L 146.890625 201.8125 Z M 150.601562 202.125 C 149.789062 202.125 149.140625 201.859375 148.664062 201.328125 C 148.183594 200.796875 147.945312 200.078125 147.945312 199.171875 C 147.945312 198.257812 148.183594 197.539062 148.664062 197.015625 C 149.152344 196.484375 149.8125 196.21875 150.648438 196.21875 C 151.480469 196.21875 152.136719 196.484375 152.617188 197.015625 C 153.105469 197.539062 153.351562 198.25 153.351562 199.15625 C 153.351562 200.085938 153.105469 200.8125 152.617188 201.34375 C 152.125 201.867188 151.453125 202.125 150.601562 202.125 Z M 150.617188 201.8125 C 151.09375 201.8125 151.484375 201.5625 151.789062 201.0625 C 152.101562 200.5625 152.257812 199.929688 152.257812 199.15625 C 152.257812 198.417969 152.101562 197.796875 151.789062 197.296875 C 151.484375 196.789062 151.105469 196.53125 150.648438 196.53125 C 150.1875 196.53125 149.804688 196.789062 149.492188 197.296875 C 149.1875 197.796875 149.039062 198.421875 149.039062 199.171875 C 149.039062 199.921875 149.1875 200.554688 149.492188 201.0625 C 149.792969 201.5625 150.167969 201.8125 150.617188 201.8125 Z M 158.421875 202 L 158.421875 200.9375 C 158.179688 201.3125 157.878906 201.605469 157.515625 201.8125 C 157.148438 202.019531 156.773438 202.125 156.390625 202.125 C 155.898438 202.125 155.515625 201.96875 155.234375 201.65625 C 154.960938 201.335938 154.828125 200.890625 154.828125 200.328125 L 154.828125 197.6875 L 154.796875 197.1875 C 154.773438 196.992188 154.738281 196.867188 154.6875 196.8125 C 154.632812 196.75 154.507812 196.714844 154.3125 196.703125 L 153.953125 196.671875 L 153.859375 196.65625 L 153.859375 196.34375 L 155.84375 196.34375 L 155.84375 200.171875 C 155.84375 200.640625 155.910156 200.976562 156.046875 201.171875 C 156.191406 201.371094 156.4375 201.46875 156.78125 201.46875 C 157.019531 201.46875 157.296875 201.386719 157.609375 201.21875 C 157.921875 201.054688 158.191406 200.84375 158.421875 200.59375 L 158.421875 197.6875 L 158.390625 197.1875 C 158.378906 196.980469 158.34375 196.851562 158.28125 196.796875 C 158.226562 196.746094 158.101562 196.714844 157.90625 196.703125 L 157.546875 196.671875 L 157.453125 196.65625 L 157.453125 196.34375 L 159.453125 196.34375 L 159.453125 200.65625 L 159.484375 201.171875 C 159.492188 201.371094 159.523438 201.496094 159.578125 201.546875 C 159.640625 201.601562 159.769531 201.632812 159.96875 201.640625 L 160.328125 201.671875 L 160.421875 201.671875 L 160.421875 202 L 158.421875 202 Z M 162.796875 197.40625 C 163.035156 197.03125 163.335938 196.742188 163.703125 196.53125 C 164.066406 196.324219 164.441406 196.21875 164.828125 196.21875 C 165.316406 196.21875 165.695312 196.382812 165.96875 196.703125 C 166.25 197.015625 166.390625 197.453125 166.390625 198.015625 L 166.390625 200.65625 L 166.4375 201.171875 C 166.445312 201.371094 166.476562 201.496094 166.53125 201.546875 C 166.582031 201.601562 166.707031 201.632812 166.90625 201.640625 L 167.265625 201.671875 L 167.359375 201.671875 L 167.359375 202 L 164.40625 202 L 164.40625 201.671875 L 164.5 201.671875 L 164.84375 201.640625 C 165.039062 201.632812 165.164062 201.601562 165.21875 201.546875 C 165.28125 201.496094 165.316406 201.371094 165.328125 201.171875 L 165.359375 200.65625 L 165.359375 198.171875 C 165.359375 197.695312 165.296875 197.359375 165.171875 197.171875 C 165.046875 196.976562 164.820312 196.875 164.5 196.875 C 164.03125 196.875 163.460938 197.167969 162.796875 197.75 L 162.796875 200.65625 C 162.796875 200.9375 162.816406 201.1875 162.859375 201.40625 C 162.878906 201.492188 162.914062 201.546875 162.96875 201.578125 C 163.03125 201.609375 163.144531 201.632812 163.3125 201.640625 L 163.65625 201.671875 L 163.765625 201.671875 L 163.765625 202 L 160.796875 202 L 160.796875 201.671875 L 160.90625 201.671875 L 161.25 201.640625 C 161.445312 201.632812 161.570312 201.601562 161.625 201.546875 C 161.6875 201.496094 161.722656 201.371094 161.734375 201.171875 L 161.765625 200.65625 L 161.765625 197.6875 L 161.734375 197.1875 C 161.722656 196.992188 161.6875 196.867188 161.625 196.8125 C 161.570312 196.75 161.445312 196.714844 161.25 196.703125 L 160.90625 196.671875 L 160.796875 196.65625 L 160.796875 196.34375 L 162.796875 196.34375 L 162.796875 197.40625 Z M 171.105469 201.96875 C 170.84375 202.070312 170.597656 202.125 170.371094 202.125 C 169.839844 202.125 169.417969 201.992188 169.105469 201.71875 C 168.925781 201.554688 168.800781 201.367188 168.730469 201.15625 C 168.667969 200.949219 168.636719 200.640625 168.636719 200.234375 L 168.636719 196.765625 L 167.808594 196.765625 L 167.808594 196.34375 L 168.636719 196.34375 L 168.636719 195.3125 L 169.667969 195.0625 L 169.667969 196.34375 L 171.246094 196.34375 L 171.246094 196.765625 L 169.667969 196.765625 L 169.667969 200.375 C 169.667969 200.867188 169.714844 201.1875 169.808594 201.34375 C 169.941406 201.59375 170.175781 201.71875 170.511719 201.71875 C 170.675781 201.71875 170.875 201.664062 171.105469 201.546875 L 171.105469 201.96875 Z M 173.722656 197.890625 L 173.722656 200.65625 C 173.722656 200.9375 173.742188 201.1875 173.785156 201.40625 C 173.804688 201.492188 173.839844 201.546875 173.894531 201.578125 C 173.957031 201.609375 174.070312 201.632812 174.238281 201.640625 L 174.582031 201.671875 L 174.816406 201.671875 L 174.816406 202 L 171.722656 202 L 171.722656 201.671875 L 171.832031 201.671875 L 172.175781 201.640625 C 172.371094 201.632812 172.496094 201.601562 172.550781 201.546875 C 172.613281 201.496094 172.648438 201.371094 172.660156 201.171875 L 172.691406 200.65625 L 172.691406 197.6875 L 172.660156 197.1875 C 172.648438 196.992188 172.613281 196.867188 172.550781 196.8125 C 172.496094 196.75 172.371094 196.714844 172.175781 196.703125 L 171.832031 196.671875 L 171.722656 196.65625 L 171.722656 196.34375 L 173.722656 196.34375 L 173.722656 197.40625 C 174.191406 196.617188 174.800781 196.21875 175.550781 196.21875 C 175.652344 196.21875 175.773438 196.234375 175.910156 196.265625 L 175.910156 197.828125 L 175.332031 197.828125 L 175.316406 197.734375 L 175.269531 197.34375 C 175.257812 197.230469 175.230469 197.15625 175.191406 197.125 C 175.160156 197.085938 175.089844 197.0625 174.988281 197.0625 C 174.738281 197.0625 174.503906 197.136719 174.285156 197.28125 C 174.066406 197.417969 173.878906 197.621094 173.722656 197.890625 Z M 177.089844 204.0625 L 178.949219 202 L 177.167969 197.71875 C 176.980469 197.261719 176.839844 196.976562 176.746094 196.859375 C 176.660156 196.746094 176.527344 196.683594 176.339844 196.671875 L 176.230469 196.65625 L 176.230469 196.34375 L 178.808594 196.34375 L 178.808594 196.65625 L 178.699219 196.65625 L 178.371094 196.671875 C 178.121094 196.671875 177.996094 196.734375 177.996094 196.859375 C 177.996094 196.902344 178.011719 196.953125 178.042969 197.015625 C 178.050781 197.046875 178.09375 197.164062 178.167969 197.359375 C 178.199219 197.476562 178.238281 197.59375 178.292969 197.71875 L 179.558594 200.75 L 180.902344 197.703125 L 181.027344 197.375 L 181.183594 197.015625 C 181.191406 196.964844 181.199219 196.917969 181.199219 196.875 C 181.199219 196.742188 181.074219 196.671875 180.824219 196.671875 L 180.574219 196.65625 L 180.433594 196.65625 L 180.433594 196.34375 L 182.121094 196.34375 L 182.121094 196.65625 L 182.011719 196.671875 C 181.886719 196.683594 181.78125 196.730469 181.699219 196.8125 C 181.625 196.898438 181.546875 197.046875 181.464844 197.265625 C 181.433594 197.328125 181.363281 197.476562 181.261719 197.703125 L 178.386719 204.0625 L 177.089844 204.0625 Z M 187.546875 197.40625 C 187.785156 197.03125 188.085938 196.742188 188.453125 196.53125 C 188.816406 196.324219 189.191406 196.21875 189.578125 196.21875 C 190.066406 196.21875 190.445312 196.382812 190.71875 196.703125 C 191 197.015625 191.140625 197.453125 191.140625 198.015625 L 191.140625 200.65625 L 191.1875 201.171875 C 191.195312 201.371094 191.226562 201.496094 191.28125 201.546875 C 191.332031 201.601562 191.457031 201.632812 191.65625 201.640625 L 192.015625 201.671875 L 192.109375 201.671875 L 192.109375 202 L 189.15625 202 L 189.15625 201.671875 L 189.25 201.671875 L 189.59375 201.640625 C 189.789062 201.632812 189.914062 201.601562 189.96875 201.546875 C 190.03125 201.496094 190.066406 201.371094 190.078125 201.171875 L 190.109375 200.65625 L 190.109375 198.171875 C 190.109375 197.695312 190.046875 197.359375 189.921875 197.171875 C 189.796875 196.976562 189.570312 196.875 189.25 196.875 C 188.78125 196.875 188.210938 197.167969 187.546875 197.75 L 187.546875 200.65625 C 187.546875 200.9375 187.566406 201.1875 187.609375 201.40625 C 187.628906 201.492188 187.664062 201.546875 187.71875 201.578125 C 187.78125 201.609375 187.894531 201.632812 188.0625 201.640625 L 188.40625 201.671875 L 188.515625 201.671875 L 188.515625 202 L 185.546875 202 L 185.546875 201.671875 L 185.65625 201.671875 L 186 201.640625 C 186.195312 201.632812 186.320312 201.601562 186.375 201.546875 C 186.4375 201.496094 186.472656 201.371094 186.484375 201.171875 L 186.515625 200.65625 L 186.515625 197.6875 L 186.484375 197.1875 C 186.472656 196.992188 186.4375 196.867188 186.375 196.8125 C 186.320312 196.75 186.195312 196.714844 186 196.703125 L 185.65625 196.671875 L 185.546875 196.65625 L 185.546875 196.34375 L 187.546875 196.34375 L 187.546875 197.40625 Z M 196.125 201.21875 C 195.78125 201.5625 195.472656 201.804688 195.203125 201.9375 C 194.941406 202.0625 194.644531 202.125 194.3125 202.125 C 193.832031 202.125 193.429688 201.976562 193.109375 201.671875 C 192.785156 201.371094 192.625 200.992188 192.625 200.53125 C 192.625 200 192.832031 199.570312 193.25 199.234375 C 193.519531 199.015625 193.832031 198.867188 194.1875 198.78125 C 194.550781 198.699219 195.046875 198.65625 195.671875 198.65625 L 195.890625 198.65625 L 195.890625 197.953125 C 195.890625 197.058594 195.550781 196.609375 194.875 196.609375 C 194.550781 196.609375 194.269531 196.710938 194.03125 196.90625 C 193.882812 197.023438 193.796875 197.261719 193.765625 197.625 L 193.75 197.734375 L 193.0625 197.734375 L 193.0625 196.6875 C 193.78125 196.375 194.445312 196.21875 195.0625 196.21875 C 195.59375 196.21875 196.03125 196.34375 196.375 196.59375 C 196.582031 196.75 196.722656 196.921875 196.796875 197.109375 C 196.867188 197.296875 196.90625 197.5625 196.90625 197.90625 L 196.90625 200.4375 C 196.90625 200.886719 196.941406 201.203125 197.015625 201.390625 C 197.097656 201.570312 197.238281 201.65625 197.4375 201.65625 C 197.507812 201.65625 197.601562 201.640625 197.71875 201.609375 L 197.75 202 C 197.5 202.082031 197.273438 202.125 197.078125 202.125 C 196.578125 202.125 196.257812 201.824219 196.125 201.21875 Z M 195.890625 201.109375 L 195.890625 198.984375 L 195.640625 198.984375 C 195.035156 198.984375 194.5625 199.109375 194.21875 199.359375 C 193.882812 199.601562 193.71875 199.945312 193.71875 200.390625 C 193.71875 200.714844 193.820312 200.984375 194.03125 201.203125 C 194.238281 201.414062 194.503906 201.515625 194.828125 201.515625 C 195.128906 201.515625 195.484375 201.382812 195.890625 201.109375 Z M 200.089844 197.40625 C 200.683594 196.617188 201.332031 196.21875 202.042969 196.21875 C 202.4375 196.21875 202.761719 196.324219 203.011719 196.53125 C 203.261719 196.730469 203.421875 197.023438 203.496094 197.40625 C 203.859375 196.96875 204.191406 196.664062 204.496094 196.484375 C 204.796875 196.308594 205.136719 196.21875 205.511719 196.21875 C 205.980469 196.21875 206.347656 196.371094 206.621094 196.671875 C 206.890625 196.964844 207.027344 197.371094 207.027344 197.890625 L 207.027344 200.65625 C 207.027344 200.9375 207.050781 201.1875 207.105469 201.40625 C 207.125 201.492188 207.160156 201.546875 207.214844 201.578125 C 207.265625 201.609375 207.375 201.632812 207.542969 201.640625 L 207.902344 201.671875 L 207.996094 201.671875 L 207.996094 202 L 205.042969 202 L 205.042969 201.671875 L 205.136719 201.671875 L 205.496094 201.640625 C 205.652344 201.632812 205.753906 201.609375 205.808594 201.578125 C 205.871094 201.546875 205.910156 201.492188 205.933594 201.40625 C 205.972656 201.1875 205.996094 200.9375 205.996094 200.65625 L 205.996094 198.078125 C 205.996094 197.632812 205.9375 197.324219 205.824219 197.15625 C 205.707031 196.980469 205.503906 196.890625 205.214844 196.890625 C 204.703125 196.890625 204.152344 197.183594 203.558594 197.765625 L 203.558594 200.65625 L 203.589844 201.171875 C 203.597656 201.371094 203.628906 201.496094 203.683594 201.546875 C 203.746094 201.601562 203.875 201.632812 204.074219 201.640625 L 204.433594 201.671875 L 204.527344 201.671875 L 204.527344 202 L 201.558594 202 L 201.558594 201.671875 L 201.667969 201.671875 L 202.011719 201.640625 C 202.175781 201.632812 202.285156 201.609375 202.339844 201.578125 C 202.402344 201.546875 202.441406 201.492188 202.464844 201.40625 C 202.503906 201.1875 202.527344 200.9375 202.527344 200.65625 L 202.527344 198.078125 C 202.527344 197.632812 202.46875 197.324219 202.355469 197.15625 C 202.238281 196.980469 202.035156 196.890625 201.746094 196.890625 C 201.203125 196.890625 200.652344 197.183594 200.089844 197.765625 L 200.089844 200.65625 C 200.089844 200.9375 200.109375 201.1875 200.152344 201.40625 C 200.171875 201.492188 200.207031 201.546875 200.261719 201.578125 C 200.324219 201.609375 200.4375 201.632812 200.605469 201.640625 L 200.949219 201.671875 L 201.058594 201.671875 L 201.058594 202 L 198.089844 202 L 198.089844 201.671875 L 198.199219 201.671875 L 198.542969 201.640625 C 198.738281 201.632812 198.863281 201.601562 198.917969 201.546875 C 198.980469 201.496094 199.015625 201.371094 199.027344 201.171875 L 199.058594 200.65625 L 199.058594 197.6875 L 199.027344 197.1875 C 199.015625 196.992188 198.980469 196.867188 198.917969 196.8125 C 198.863281 196.75 198.738281 196.714844 198.542969 196.703125 L 198.199219 196.671875 L 198.089844 196.65625 L 198.089844 196.34375 L 200.089844 196.34375 L 200.089844 197.40625 Z M 213.105469 201.75 C 212.449219 202 211.847656 202.125 211.308594 202.125 C 210.484375 202.125 209.8125 201.851562 209.292969 201.296875 C 208.769531 200.734375 208.511719 200.007812 208.511719 199.109375 C 208.511719 198.265625 208.738281 197.574219 209.199219 197.03125 C 209.667969 196.492188 210.265625 196.21875 210.996094 196.21875 C 211.671875 196.21875 212.191406 196.449219 212.558594 196.90625 C 212.921875 197.355469 213.105469 198 213.105469 198.84375 L 213.105469 198.953125 L 209.652344 198.953125 C 209.652344 199.726562 209.753906 200.308594 209.964844 200.703125 C 210.296875 201.308594 210.800781 201.609375 211.480469 201.609375 C 212.113281 201.609375 212.65625 201.480469 213.105469 201.21875 L 213.105469 201.75 Z M 209.667969 198.625 L 212.011719 198.625 L 212.011719 198.390625 C 212.011719 197.984375 211.988281 197.6875 211.949219 197.5 C 211.917969 197.304688 211.847656 197.125 211.746094 196.96875 C 211.546875 196.679688 211.277344 196.53125 210.933594 196.53125 C 210.546875 196.53125 210.238281 196.726562 210.011719 197.109375 C 209.78125 197.484375 209.667969 197.992188 209.667969 198.625 Z M 209.667969 198.625 "/>
<path style=" stroke:none;fill-rule:evenodd;fill:rgb(0%,0%,0%);fill-opacity:1;" d="M 59.890625 138.8125 C 59.347656 139.019531 58.816406 139.125 58.296875 139.125 C 57.472656 139.125 56.800781 138.851562 56.28125 138.296875 C 55.769531 137.746094 55.515625 137.027344 55.515625 136.140625 C 55.515625 135.265625 55.757812 134.5625 56.25 134.03125 C 56.75 133.492188 57.40625 133.21875 58.21875 133.21875 C 58.644531 133.21875 59.203125 133.304688 59.890625 133.46875 L 59.890625 134.828125 L 59.25 134.828125 L 59.234375 134.734375 C 59.234375 134.320312 59.171875 134.039062 59.046875 133.890625 C 58.859375 133.671875 58.582031 133.5625 58.21875 133.5625 C 57.71875 133.5625 57.320312 133.792969 57.03125 134.25 C 56.738281 134.699219 56.59375 135.308594 56.59375 136.078125 C 56.59375 136.859375 56.765625 137.480469 57.109375 137.9375 C 57.453125 138.398438 57.925781 138.625 58.53125 138.625 C 59.039062 138.625 59.492188 138.539062 59.890625 138.359375 L 59.890625 138.8125 Z M 63.601562 139.125 C 62.789062 139.125 62.140625 138.859375 61.664062 138.328125 C 61.183594 137.796875 60.945312 137.078125 60.945312 136.171875 C 60.945312 135.257812 61.183594 134.539062 61.664062 134.015625 C 62.152344 133.484375 62.8125 133.21875 63.648438 133.21875 C 64.480469 133.21875 65.136719 133.484375 65.617188 134.015625 C 66.105469 134.539062 66.351562 135.25 66.351562 136.15625 C 66.351562 137.085938 66.105469 137.8125 65.617188 138.34375 C 65.125 138.867188 64.453125 139.125 63.601562 139.125 Z M 63.617188 138.8125 C 64.09375 138.8125 64.484375 138.5625 64.789062 138.0625 C 65.101562 137.5625 65.257812 136.929688 65.257812 136.15625 C 65.257812 135.417969 65.101562 134.796875 64.789062 134.296875 C 64.484375 133.789062 64.105469 133.53125 63.648438 133.53125 C 63.1875 133.53125 62.804688 133.789062 62.492188 134.296875 C 62.1875 134.796875 62.039062 135.421875 62.039062 136.171875 C 62.039062 136.921875 62.1875 137.554688 62.492188 138.0625 C 62.792969 138.5625 63.167969 138.8125 63.617188 138.8125 Z M 71.421875 139 L 71.421875 137.9375 C 71.179688 138.3125 70.878906 138.605469 70.515625 138.8125 C 70.148438 139.019531 69.773438 139.125 69.390625 139.125 C 68.898438 139.125 68.515625 138.96875 68.234375 138.65625 C 67.960938 138.335938 67.828125 137.890625 67.828125 137.328125 L 67.828125 134.6875 L 67.796875 134.1875 C 67.773438 133.992188 67.738281 133.867188 67.6875 133.8125 C 67.632812 133.75 67.507812 133.714844 67.3125 133.703125 L 66.953125 133.671875 L 66.859375 133.65625 L 66.859375 133.34375 L 68.84375 133.34375 L 68.84375 137.171875 C 68.84375 137.640625 68.910156 137.976562 69.046875 138.171875 C 69.191406 138.371094 69.4375 138.46875 69.78125 138.46875 C 70.019531 138.46875 70.296875 138.386719 70.609375 138.21875 C 70.921875 138.054688 71.191406 137.84375 71.421875 137.59375 L 71.421875 134.6875 L 71.390625 134.1875 C 71.378906 133.980469 71.34375 133.851562 71.28125 133.796875 C 71.226562 133.746094 71.101562 133.714844 70.90625 133.703125 L 70.546875 133.671875 L 70.453125 133.65625 L 70.453125 133.34375 L 72.453125 133.34375 L 72.453125 137.65625 L 72.484375 138.171875 C 72.492188 138.371094 72.523438 138.496094 72.578125 138.546875 C 72.640625 138.601562 72.769531 138.632812 72.96875 138.640625 L 73.328125 138.671875 L 73.421875 138.671875 L 73.421875 139 L 71.421875 139 Z M 75.796875 134.40625 C 76.035156 134.03125 76.335938 133.742188 76.703125 133.53125 C 77.066406 133.324219 77.441406 133.21875 77.828125 133.21875 C 78.316406 133.21875 78.695312 133.382812 78.96875 133.703125 C 79.25 134.015625 79.390625 134.453125 79.390625 135.015625 L 79.390625 137.65625 L 79.4375 138.171875 C 79.445312 138.371094 79.476562 138.496094 79.53125 138.546875 C 79.582031 138.601562 79.707031 138.632812 79.90625 138.640625 L 80.265625 138.671875 L 80.359375 138.671875 L 80.359375 139 L 77.40625 139 L 77.40625 138.671875 L 77.5 138.671875 L 77.84375 138.640625 C 78.039062 138.632812 78.164062 138.601562 78.21875 138.546875 C 78.28125 138.496094 78.316406 138.371094 78.328125 138.171875 L 78.359375 137.65625 L 78.359375 135.171875 C 78.359375 134.695312 78.296875 134.359375 78.171875 134.171875 C 78.046875 133.976562 77.820312 133.875 77.5 133.875 C 77.03125 133.875 76.460938 134.167969 75.796875 134.75 L 75.796875 137.65625 C 75.796875 137.9375 75.816406 138.1875 75.859375 138.40625 C 75.878906 138.492188 75.914062 138.546875 75.96875 138.578125 C 76.03125 138.609375 76.144531 138.632812 76.3125 138.640625 L 76.65625 138.671875 L 76.765625 138.671875 L 76.765625 139 L 73.796875 139 L 73.796875 138.671875 L 73.90625 138.671875 L 74.25 138.640625 C 74.445312 138.632812 74.570312 138.601562 74.625 138.546875 C 74.6875 138.496094 74.722656 138.371094 74.734375 138.171875 L 74.765625 137.65625 L 74.765625 134.6875 L 74.734375 134.1875 C 74.722656 133.992188 74.6875 133.867188 74.625 133.8125 C 74.570312 133.75 74.445312 133.714844 74.25 133.703125 L 73.90625 133.671875 L 73.796875 133.65625 L 73.796875 133.34375 L 75.796875 133.34375 L 75.796875 134.40625 Z M 84.105469 138.96875 C 83.84375 139.070312 83.597656 139.125 83.371094 139.125 C 82.839844 139.125 82.417969 138.992188 82.105469 138.71875 C 81.925781 138.554688 81.800781 138.367188 81.730469 138.15625 C 81.667969 137.949219 81.636719 137.640625 81.636719 137.234375 L 81.636719 133.765625 L 80.808594 133.765625 L 80.808594 133.34375 L 81.636719 133.34375 L 81.636719 132.3125 L 82.667969 132.0625 L 82.667969 133.34375 L 84.246094 133.34375 L 84.246094 133.765625 L 82.667969 133.765625 L 82.667969 137.375 C 82.667969 137.867188 82.714844 138.1875 82.808594 138.34375 C 82.941406 138.59375 83.175781 138.71875 83.511719 138.71875 C 83.675781 138.71875 83.875 138.664062 84.105469 138.546875 L 84.105469 138.96875 Z M 86.722656 134.890625 L 86.722656 137.65625 C 86.722656 137.9375 86.742188 138.1875 86.785156 138.40625 C 86.804688 138.492188 86.839844 138.546875 86.894531 138.578125 C 86.957031 138.609375 87.070312 138.632812 87.238281 138.640625 L 87.582031 138.671875 L 87.816406 138.671875 L 87.816406 139 L 84.722656 139 L 84.722656 138.671875 L 84.832031 138.671875 L 85.175781 138.640625 C 85.371094 138.632812 85.496094 138.601562 85.550781 138.546875 C 85.613281 138.496094 85.648438 138.371094 85.660156 138.171875 L 85.691406 137.65625 L 85.691406 134.6875 L 85.660156 134.1875 C 85.648438 133.992188 85.613281 133.867188 85.550781 133.8125 C 85.496094 133.75 85.371094 133.714844 85.175781 133.703125 L 84.832031 133.671875 L 84.722656 133.65625 L 84.722656 133.34375 L 86.722656 133.34375 L 86.722656 134.40625 C 87.191406 133.617188 87.800781 133.21875 88.550781 133.21875 C 88.652344 133.21875 88.773438 133.234375 88.910156 133.265625 L 88.910156 134.828125 L 88.332031 134.828125 L 88.316406 134.734375 L 88.269531 134.34375 C 88.257812 134.230469 88.230469 134.15625 88.191406 134.125 C 88.160156 134.085938 88.089844 134.0625 87.988281 134.0625 C 87.738281 134.0625 87.503906 134.136719 87.285156 134.28125 C 87.066406 134.417969 86.878906 134.621094 86.722656 134.890625 Z M 90.089844 141.0625 L 91.949219 139 L 90.167969 134.71875 C 89.980469 134.261719 89.839844 133.976562 89.746094 133.859375 C 89.660156 133.746094 89.527344 133.683594 89.339844 133.671875 L 89.230469 133.65625 L 89.230469 133.34375 L 91.808594 133.34375 L 91.808594 133.65625 L 91.699219 133.65625 L 91.371094 133.671875 C 91.121094 133.671875 90.996094 133.734375 90.996094 133.859375 C 90.996094 133.902344 91.011719 133.953125 91.042969 134.015625 C 91.050781 134.046875 91.09375 134.164062 91.167969 134.359375 C 91.199219 134.476562 91.238281 134.59375 91.292969 134.71875 L 92.558594 137.75 L 93.902344 134.703125 L 94.027344 134.375 L 94.183594 134.015625 C 94.191406 133.964844 94.199219 133.917969 94.199219 133.875 C 94.199219 133.742188 94.074219 133.671875 93.824219 133.671875 L 93.574219 133.65625 L 93.433594 133.65625 L 93.433594 133.34375 L 95.121094 133.34375 L 95.121094 133.65625 L 95.011719 133.671875 C 94.886719 133.683594 94.78125 133.730469 94.699219 133.8125 C 94.625 133.898438 94.546875 134.046875 94.464844 134.265625 C 94.433594 134.328125 94.363281 134.476562 94.261719 134.703125 L 91.386719 141.0625 L 90.089844 141.0625 Z M 100.546875 134.40625 C 100.785156 134.03125 101.085938 133.742188 101.453125 133.53125 C 101.816406 133.324219 102.191406 133.21875 102.578125 133.21875 C 103.066406 133.21875 103.445312 133.382812 103.71875 133.703125 C 104 134.015625 104.140625 134.453125 104.140625 135.015625 L 104.140625 137.65625 L 104.1875 138.171875 C 104.195312 138.371094 104.226562 138.496094 104.28125 138.546875 C 104.332031 138.601562 104.457031 138.632812 104.65625 138.640625 L 105.015625 138.671875 L 105.109375 138.671875 L 105.109375 139 L 102.15625 139 L 102.15625 138.671875 L 102.25 138.671875 L 102.59375 138.640625 C 102.789062 138.632812 102.914062 138.601562 102.96875 138.546875 C 103.03125 138.496094 103.066406 138.371094 103.078125 138.171875 L 103.109375 137.65625 L 103.109375 135.171875 C 103.109375 134.695312 103.046875 134.359375 102.921875 134.171875 C 102.796875 133.976562 102.570312 133.875 102.25 133.875 C 101.78125 133.875 101.210938 134.167969 100.546875 134.75 L 100.546875 137.65625 C 100.546875 137.9375 100.566406 138.1875 100.609375 138.40625 C 100.628906 138.492188 100.664062 138.546875 100.71875 138.578125 C 100.78125 138.609375 100.894531 138.632812 101.0625 138.640625 L 101.40625 138.671875 L 101.515625 138.671875 L 101.515625 139 L 98.546875 139 L 98.546875 138.671875 L 98.65625 138.671875 L 99 138.640625 C 99.195312 138.632812 99.320312 138.601562 99.375 138.546875 C 99.4375 138.496094 99.472656 138.371094 99.484375 138.171875 L 99.515625 137.65625 L 99.515625 134.6875 L 99.484375 134.1875 C 99.472656 133.992188 99.4375 133.867188 99.375 133.8125 C 99.320312 133.75 99.195312 133.714844 99 133.703125 L 98.65625 133.671875 L 98.546875 133.65625 L 98.546875 133.34375 L 100.546875 133.34375 L 100.546875 134.40625 Z M 109.125 138.21875 C 108.78125 138.5625 108.472656 138.804688 108.203125 138.9375 C 107.941406 139.0625 107.644531 139.125 107.3125 139.125 C 106.832031 139.125 106.429688 138.976562 106.109375 138.671875 C 105.785156 138.371094 105.625 137.992188 105.625 137.53125 C 105.625 137 105.832031 136.570312 106.25 136.234375 C 106.519531 136.015625 106.832031 135.867188 107.1875 135.78125 C 107.550781 135.699219 108.046875 135.65625 108.671875 135.65625 L 108.890625 135.65625 L 108.890625 134.953125 C 108.890625 134.058594 108.550781 133.609375 107.875 133.609375 C 107.550781 133.609375 107.269531 133.710938 107.03125 133.90625 C 106.882812 134.023438 106.796875 134.261719 106.765625 134.625 L 106.75 134.734375 L 106.0625 134.734375 L 106.0625 133.6875 C 106.78125 133.375 107.445312 133.21875 108.0625 133.21875 C 108.59375 133.21875 109.03125 133.34375 109.375 133.59375 C 109.582031 133.75 109.722656 133.921875 109.796875 134.109375 C 109.867188 134.296875 109.90625 134.5625 109.90625 134.90625 L 109.90625 137.4375 C 109.90625 137.886719 109.941406 138.203125 110.015625 138.390625 C 110.097656 138.570312 110.238281 138.65625 110.4375 138.65625 C 110.507812 138.65625 110.601562 138.640625 110.71875 138.609375 L 110.75 139 C 110.5 139.082031 110.273438 139.125 110.078125 139.125 C 109.578125 139.125 109.257812 138.824219 109.125 138.21875 Z M 108.890625 138.109375 L 108.890625 135.984375 L 108.640625 135.984375 C 108.035156 135.984375 107.5625 136.109375 107.21875 136.359375 C 106.882812 136.601562 106.71875 136.945312 106.71875 137.390625 C 106.71875 137.714844 106.820312 137.984375 107.03125 138.203125 C 107.238281 138.414062 107.503906 138.515625 107.828125 138.515625 C 108.128906 138.515625 108.484375 138.382812 108.890625 138.109375 Z M 113.089844 134.40625 C 113.683594 133.617188 114.332031 133.21875 115.042969 133.21875 C 115.4375 133.21875 115.761719 133.324219 116.011719 133.53125 C 116.261719 133.730469 116.421875 134.023438 116.496094 134.40625 C 116.859375 133.96875 117.191406 133.664062 117.496094 133.484375 C 117.796875 133.308594 118.136719 133.21875 118.511719 133.21875 C 118.980469 133.21875 119.347656 133.371094 119.621094 133.671875 C 119.890625 133.964844 120.027344 134.371094 120.027344 134.890625 L 120.027344 137.65625 C 120.027344 137.9375 120.050781 138.1875 120.105469 138.40625 C 120.125 138.492188 120.160156 138.546875 120.214844 138.578125 C 120.265625 138.609375 120.375 138.632812 120.542969 138.640625 L 120.902344 138.671875 L 120.996094 138.671875 L 120.996094 139 L 118.042969 139 L 118.042969 138.671875 L 118.136719 138.671875 L 118.496094 138.640625 C 118.652344 138.632812 118.753906 138.609375 118.808594 138.578125 C 118.871094 138.546875 118.910156 138.492188 118.933594 138.40625 C 118.972656 138.1875 118.996094 137.9375 118.996094 137.65625 L 118.996094 135.078125 C 118.996094 134.632812 118.9375 134.324219 118.824219 134.15625 C 118.707031 133.980469 118.503906 133.890625 118.214844 133.890625 C 117.703125 133.890625 117.152344 134.183594 116.558594 134.765625 L 116.558594 137.65625 L 116.589844 138.171875 C 116.597656 138.371094 116.628906 138.496094 116.683594 138.546875 C 116.746094 138.601562 116.875 138.632812 117.074219 138.640625 L 117.433594 138.671875 L 117.527344 138.671875 L 117.527344 139 L 114.558594 139 L 114.558594 138.671875 L 114.667969 138.671875 L 115.011719 138.640625 C 115.175781 138.632812 115.285156 138.609375 115.339844 138.578125 C 115.402344 138.546875 115.441406 138.492188 115.464844 138.40625 C 115.503906 138.1875 115.527344 137.9375 115.527344 137.65625 L 115.527344 135.078125 C 115.527344 134.632812 115.46875 134.324219 115.355469 134.15625 C 115.238281 133.980469 115.035156 133.890625 114.746094 133.890625 C 114.203125 133.890625 113.652344 134.183594 113.089844 134.765625 L 113.089844 137.65625 C 113.089844 137.9375 113.109375 138.1875 113.152344 138.40625 C 113.171875 138.492188 113.207031 138.546875 113.261719 138.578125 C 113.324219 138.609375 113.4375 138.632812 113.605469 138.640625 L 113.949219 138.671875 L 114.058594 138.671875 L 114.058594 139 L 111.089844 139 L 111.089844 138.671875 L 111.199219 138.671875 L 111.542969 138.640625 C 111.738281 138.632812 111.863281 138.601562 111.917969 138.546875 C 111.980469 138.496094 112.015625 138.371094 112.027344 138.171875 L 112.058594 137.65625 L 112.058594 134.6875 L 112.027344 134.1875 C 112.015625 133.992188 111.980469 133.867188 111.917969 133.8125 C 111.863281 133.75 111.738281 133.714844 111.542969 133.703125 L 111.199219 133.671875 L 111.089844 133.65625 L 111.089844 133.34375 L 113.089844 133.34375 L 113.089844 134.40625 Z M 126.105469 138.75 C 125.449219 139 124.847656 139.125 124.308594 139.125 C 123.484375 139.125 122.8125 138.851562 122.292969 138.296875 C 121.769531 137.734375 121.511719 137.007812 121.511719 136.109375 C 121.511719 135.265625 121.738281 134.574219 122.199219 134.03125 C 122.667969 133.492188 123.265625 133.21875 123.996094 133.21875 C 124.671875 133.21875 125.191406 133.449219 125.558594 133.90625 C 125.921875 134.355469 126.105469 135 126.105469 135.84375 L 126.105469 135.953125 L 122.652344 135.953125 C 122.652344 136.726562 122.753906 137.308594 122.964844 137.703125 C 123.296875 138.308594 123.800781 138.609375 124.480469 138.609375 C 125.113281 138.609375 125.65625 138.480469 126.105469 138.21875 L 126.105469 138.75 Z M 122.667969 135.625 L 125.011719 135.625 L 125.011719 135.390625 C 125.011719 134.984375 124.988281 134.6875 124.949219 134.5 C 124.917969 134.304688 124.847656 134.125 124.746094 133.96875 C 124.546875 133.679688 124.277344 133.53125 123.933594 133.53125 C 123.546875 133.53125 123.238281 133.726562 123.011719 134.109375 C 122.78125 134.484375 122.667969 134.992188 122.667969 135.625 Z M 122.667969 135.625 "/>
<path style=" stroke:none;fill-rule:evenodd;fill:rgb(0%,0%,0%);fill-opacity:1;" d="M 299.890625 112.8125 C 299.347656 113.019531 298.816406 113.125 298.296875 113.125 C 297.472656 113.125 296.800781 112.851562 296.28125 112.296875 C 295.769531 111.746094 295.515625 111.027344 295.515625 110.140625 C 295.515625 109.265625 295.757812 108.5625 296.25 108.03125 C 296.75 107.492188 297.40625 107.21875 298.21875 107.21875 C 298.644531 107.21875 299.203125 107.304688 299.890625 107.46875 L 299.890625 108.828125 L 299.25 108.828125 L 299.234375 108.734375 C 299.234375 108.320312 299.171875 108.039062 299.046875 107.890625 C 298.859375 107.671875 298.582031 107.5625 298.21875 107.5625 C 297.71875 107.5625 297.320312 107.792969 297.03125 108.25 C 296.738281 108.699219 296.59375 109.308594 296.59375 110.078125 C 296.59375 110.859375 296.765625 111.480469 297.109375 111.9375 C 297.453125 112.398438 297.925781 112.625 298.53125 112.625 C 299.039062 112.625 299.492188 112.539062 299.890625 112.359375 L 299.890625 112.8125 Z M 303.601562 113.125 C 302.789062 113.125 302.140625 112.859375 301.664062 112.328125 C 301.183594 111.796875 300.945312 111.078125 300.945312 110.171875 C 300.945312 109.257812 301.183594 108.539062 301.664062 108.015625 C 302.152344 107.484375 302.8125 107.21875 303.648438 107.21875 C 304.480469 107.21875 305.136719 107.484375 305.617188 108.015625 C 306.105469 108.539062 306.351562 109.25 306.351562 110.15625 C 306.351562 111.085938 306.105469 111.8125 305.617188 112.34375 C 305.125 112.867188 304.453125 113.125 303.601562 113.125 Z M 303.617188 112.8125 C 304.09375 112.8125 304.484375 112.5625 304.789062 112.0625 C 305.101562 111.5625 305.257812 110.929688 305.257812 110.15625 C 305.257812 109.417969 305.101562 108.796875 304.789062 108.296875 C 304.484375 107.789062 304.105469 107.53125 303.648438 107.53125 C 303.1875 107.53125 302.804688 107.789062 302.492188 108.296875 C 302.1875 108.796875 302.039062 109.421875 302.039062 110.171875 C 302.039062 110.921875 302.1875 111.554688 302.492188 112.0625 C 302.792969 112.5625 303.167969 112.8125 303.617188 112.8125 Z M 311.421875 113 L 311.421875 111.9375 C 311.179688 112.3125 310.878906 112.605469 310.515625 112.8125 C 310.148438 113.019531 309.773438 113.125 309.390625 113.125 C 308.898438 113.125 308.515625 112.96875 308.234375 112.65625 C 307.960938 112.335938 307.828125 111.890625 307.828125 111.328125 L 307.828125 108.6875 L 307.796875 108.1875 C 307.773438 107.992188 307.738281 107.867188 307.6875 107.8125 C 307.632812 107.75 307.507812 107.714844 307.3125 107.703125 L 306.953125 107.671875 L 306.859375 107.65625 L 306.859375 107.34375 L 308.84375 107.34375 L 308.84375 111.171875 C 308.84375 111.640625 308.910156 111.976562 309.046875 112.171875 C 309.191406 112.371094 309.4375 112.46875 309.78125 112.46875 C 310.019531 112.46875 310.296875 112.386719 310.609375 112.21875 C 310.921875 112.054688 311.191406 111.84375 311.421875 111.59375 L 311.421875 108.6875 L 311.390625 108.1875 C 311.378906 107.980469 311.34375 107.851562 311.28125 107.796875 C 311.226562 107.746094 311.101562 107.714844 310.90625 107.703125 L 310.546875 107.671875 L 310.453125 107.65625 L 310.453125 107.34375 L 312.453125 107.34375 L 312.453125 111.65625 L 312.484375 112.171875 C 312.492188 112.371094 312.523438 112.496094 312.578125 112.546875 C 312.640625 112.601562 312.769531 112.632812 312.96875 112.640625 L 313.328125 112.671875 L 313.421875 112.671875 L 313.421875 113 L 311.421875 113 Z M 315.796875 108.40625 C 316.035156 108.03125 316.335938 107.742188 316.703125 107.53125 C 317.066406 107.324219 317.441406 107.21875 317.828125 107.21875 C 318.316406 107.21875 318.695312 107.382812 318.96875 107.703125 C 319.25 108.015625 319.390625 108.453125 319.390625 109.015625 L 319.390625 111.65625 L 319.4375 112.171875 C 319.445312 112.371094 319.476562 112.496094 319.53125 112.546875 C 319.582031 112.601562 319.707031 112.632812 319.90625 112.640625 L 320.265625 112.671875 L 320.359375 112.671875 L 320.359375 113 L 317.40625 113 L 317.40625 112.671875 L 317.5 112.671875 L 317.84375 112.640625 C 318.039062 112.632812 318.164062 112.601562 318.21875 112.546875 C 318.28125 112.496094 318.316406 112.371094 318.328125 112.171875 L 318.359375 111.65625 L 318.359375 109.171875 C 318.359375 108.695312 318.296875 108.359375 318.171875 108.171875 C 318.046875 107.976562 317.820312 107.875 317.5 107.875 C 317.03125 107.875 316.460938 108.167969 315.796875 108.75 L 315.796875 111.65625 C 315.796875 111.9375 315.816406 112.1875 315.859375 112.40625 C 315.878906 112.492188 315.914062 112.546875 315.96875 112.578125 C 316.03125 112.609375 316.144531 112.632812 316.3125 112.640625 L 316.65625 112.671875 L 316.765625 112.671875 L 316.765625 113 L 313.796875 113 L 313.796875 112.671875 L 313.90625 112.671875 L 314.25 112.640625 C 314.445312 112.632812 314.570312 112.601562 314.625 112.546875 C 314.6875 112.496094 314.722656 112.371094 314.734375 112.171875 L 314.765625 111.65625 L 314.765625 108.6875 L 314.734375 108.1875 C 314.722656 107.992188 314.6875 107.867188 314.625 107.8125 C 314.570312 107.75 314.445312 107.714844 314.25 107.703125 L 313.90625 107.671875 L 313.796875 107.65625 L 313.796875 107.34375 L 315.796875 107.34375 L 315.796875 108.40625 Z M 324.105469 112.96875 C 323.84375 113.070312 323.597656 113.125 323.371094 113.125 C 322.839844 113.125 322.417969 112.992188 322.105469 112.71875 C 321.925781 112.554688 321.800781 112.367188 321.730469 112.15625 C 321.667969 111.949219 321.636719 111.640625 321.636719 111.234375 L 321.636719 107.765625 L 320.808594 107.765625 L 320.808594 107.34375 L 321.636719 107.34375 L 321.636719 106.3125 L 322.667969 106.0625 L 322.667969 107.34375 L 324.246094 107.34375 L 324.246094 107.765625 L 322.667969 107.765625 L 322.667969 111.375 C 322.667969 111.867188 322.714844 112.1875 322.808594 112.34375 C 322.941406 112.59375 323.175781 112.71875 323.511719 112.71875 C 323.675781 112.71875 323.875 112.664062 324.105469 112.546875 L 324.105469 112.96875 Z M 326.722656 108.890625 L 326.722656 111.65625 C 326.722656 111.9375 326.742188 112.1875 326.785156 112.40625 C 326.804688 112.492188 326.839844 112.546875 326.894531 112.578125 C 326.957031 112.609375 327.070312 112.632812 327.238281 112.640625 L 327.582031 112.671875 L 327.816406 112.671875 L 327.816406 113 L 324.722656 113 L 324.722656 112.671875 L 324.832031 112.671875 L 325.175781 112.640625 C 325.371094 112.632812 325.496094 112.601562 325.550781 112.546875 C 325.613281 112.496094 325.648438 112.371094 325.660156 112.171875 L 325.691406 111.65625 L 325.691406 108.6875 L 325.660156 108.1875 C 325.648438 107.992188 325.613281 107.867188 325.550781 107.8125 C 325.496094 107.75 325.371094 107.714844 325.175781 107.703125 L 324.832031 107.671875 L 324.722656 107.65625 L 324.722656 107.34375 L 326.722656 107.34375 L 326.722656 108.40625 C 327.191406 107.617188 327.800781 107.21875 328.550781 107.21875 C 328.652344 107.21875 328.773438 107.234375 328.910156 107.265625 L 328.910156 108.828125 L 328.332031 108.828125 L 328.316406 108.734375 L 328.269531 108.34375 C 328.257812 108.230469 328.230469 108.15625 328.191406 108.125 C 328.160156 108.085938 328.089844 108.0625 327.988281 108.0625 C 327.738281 108.0625 327.503906 108.136719 327.285156 108.28125 C 327.066406 108.417969 326.878906 108.621094 326.722656 108.890625 Z M 330.089844 115.0625 L 331.949219 113 L 330.167969 108.71875 C 329.980469 108.261719 329.839844 107.976562 329.746094 107.859375 C 329.660156 107.746094 329.527344 107.683594 329.339844 107.671875 L 329.230469 107.65625 L 329.230469 107.34375 L 331.808594 107.34375 L 331.808594 107.65625 L 331.699219 107.65625 L 331.371094 107.671875 C 331.121094 107.671875 330.996094 107.734375 330.996094 107.859375 C 330.996094 107.902344 331.011719 107.953125 331.042969 108.015625 C 331.050781 108.046875 331.09375 108.164062 331.167969 108.359375 C 331.199219 108.476562 331.238281 108.59375 331.292969 108.71875 L 332.558594 111.75 L 333.902344 108.703125 L 334.027344 108.375 L 334.183594 108.015625 C 334.191406 107.964844 334.199219 107.917969 334.199219 107.875 C 334.199219 107.742188 334.074219 107.671875 333.824219 107.671875 L 333.574219 107.65625 L 333.433594 107.65625 L 333.433594 107.34375 L 335.121094 107.34375 L 335.121094 107.65625 L 335.011719 107.671875 C 334.886719 107.683594 334.78125 107.730469 334.699219 107.8125 C 334.625 107.898438 334.546875 108.046875 334.464844 108.265625 C 334.433594 108.328125 334.363281 108.476562 334.261719 108.703125 L 331.386719 115.0625 L 330.089844 115.0625 Z M 340.546875 108.40625 C 340.785156 108.03125 341.085938 107.742188 341.453125 107.53125 C 341.816406 107.324219 342.191406 107.21875 342.578125 107.21875 C 343.066406 107.21875 343.445312 107.382812 343.71875 107.703125 C 344 108.015625 344.140625 108.453125 344.140625 109.015625 L 344.140625 111.65625 L 344.1875 112.171875 C 344.195312 112.371094 344.226562 112.496094 344.28125 112.546875 C 344.332031 112.601562 344.457031 112.632812 344.65625 112.640625 L 345.015625 112.671875 L 345.109375 112.671875 L 345.109375 113 L 342.15625 113 L 342.15625 112.671875 L 342.25 112.671875 L 342.59375 112.640625 C 342.789062 112.632812 342.914062 112.601562 342.96875 112.546875 C 343.03125 112.496094 343.066406 112.371094 343.078125 112.171875 L 343.109375 111.65625 L 343.109375 109.171875 C 343.109375 108.695312 343.046875 108.359375 342.921875 108.171875 C 342.796875 107.976562 342.570312 107.875 342.25 107.875 C 341.78125 107.875 341.210938 108.167969 340.546875 108.75 L 340.546875 111.65625 C 340.546875 111.9375 340.566406 112.1875 340.609375 112.40625 C 340.628906 112.492188 340.664062 112.546875 340.71875 112.578125 C 340.78125 112.609375 340.894531 112.632812 341.0625 112.640625 L 341.40625 112.671875 L 341.515625 112.671875 L 341.515625 113 L 338.546875 113 L 338.546875 112.671875 L 338.65625 112.671875 L 339 112.640625 C 339.195312 112.632812 339.320312 112.601562 339.375 112.546875 C 339.4375 112.496094 339.472656 112.371094 339.484375 112.171875 L 339.515625 111.65625 L 339.515625 108.6875 L 339.484375 108.1875 C 339.472656 107.992188 339.4375 107.867188 339.375 107.8125 C 339.320312 107.75 339.195312 107.714844 339 107.703125 L 338.65625 107.671875 L 338.546875 107.65625 L 338.546875 107.34375 L 340.546875 107.34375 L 340.546875 108.40625 Z M 349.125 112.21875 C 348.78125 112.5625 348.472656 112.804688 348.203125 112.9375 C 347.941406 113.0625 347.644531 113.125 347.3125 113.125 C 346.832031 113.125 346.429688 112.976562 346.109375 112.671875 C 345.785156 112.371094 345.625 111.992188 345.625 111.53125 C 345.625 111 345.832031 110.570312 346.25 110.234375 C 346.519531 110.015625 346.832031 109.867188 347.1875 109.78125 C 347.550781 109.699219 348.046875 109.65625 348.671875 109.65625 L 348.890625 109.65625 L 348.890625 108.953125 C 348.890625 108.058594 348.550781 107.609375 347.875 107.609375 C 347.550781 107.609375 347.269531 107.710938 347.03125 107.90625 C 346.882812 108.023438 346.796875 108.261719 346.765625 108.625 L 346.75 108.734375 L 346.0625 108.734375 L 346.0625 107.6875 C 346.78125 107.375 347.445312 107.21875 348.0625 107.21875 C 348.59375 107.21875 349.03125 107.34375 349.375 107.59375 C 349.582031 107.75 349.722656 107.921875 349.796875 108.109375 C 349.867188 108.296875 349.90625 108.5625 349.90625 108.90625 L 349.90625 111.4375 C 349.90625 111.886719 349.941406 112.203125 350.015625 112.390625 C 350.097656 112.570312 350.238281 112.65625 350.4375 112.65625 C 350.507812 112.65625 350.601562 112.640625 350.71875 112.609375 L 350.75 113 C 350.5 113.082031 350.273438 113.125 350.078125 113.125 C 349.578125 113.125 349.257812 112.824219 349.125 112.21875 Z M 348.890625 112.109375 L 348.890625 109.984375 L 348.640625 109.984375 C 348.035156 109.984375 347.5625 110.109375 347.21875 110.359375 C 346.882812 110.601562 346.71875 110.945312 346.71875 111.390625 C 346.71875 111.714844 346.820312 111.984375 347.03125 112.203125 C 347.238281 112.414062 347.503906 112.515625 347.828125 112.515625 C 348.128906 112.515625 348.484375 112.382812 348.890625 112.109375 Z M 353.089844 108.40625 C 353.683594 107.617188 354.332031 107.21875 355.042969 107.21875 C 355.4375 107.21875 355.761719 107.324219 356.011719 107.53125 C 356.261719 107.730469 356.421875 108.023438 356.496094 108.40625 C 356.859375 107.96875 357.191406 107.664062 357.496094 107.484375 C 357.796875 107.308594 358.136719 107.21875 358.511719 107.21875 C 358.980469 107.21875 359.347656 107.371094 359.621094 107.671875 C 359.890625 107.964844 360.027344 108.371094 360.027344 108.890625 L 360.027344 111.65625 C 360.027344 111.9375 360.050781 112.1875 360.105469 112.40625 C 360.125 112.492188 360.160156 112.546875 360.214844 112.578125 C 360.265625 112.609375 360.375 112.632812 360.542969 112.640625 L 360.902344 112.671875 L 360.996094 112.671875 L 360.996094 113 L 358.042969 113 L 358.042969 112.671875 L 358.136719 112.671875 L 358.496094 112.640625 C 358.652344 112.632812 358.753906 112.609375 358.808594 112.578125 C 358.871094 112.546875 358.910156 112.492188 358.933594 112.40625 C 358.972656 112.1875 358.996094 111.9375 358.996094 111.65625 L 358.996094 109.078125 C 358.996094 108.632812 358.9375 108.324219 358.824219 108.15625 C 358.707031 107.980469 358.503906 107.890625 358.214844 107.890625 C 357.703125 107.890625 357.152344 108.183594 356.558594 108.765625 L 356.558594 111.65625 L 356.589844 112.171875 C 356.597656 112.371094 356.628906 112.496094 356.683594 112.546875 C 356.746094 112.601562 356.875 112.632812 357.074219 112.640625 L 357.433594 112.671875 L 357.527344 112.671875 L 357.527344 113 L 354.558594 113 L 354.558594 112.671875 L 354.667969 112.671875 L 355.011719 112.640625 C 355.175781 112.632812 355.285156 112.609375 355.339844 112.578125 C 355.402344 112.546875 355.441406 112.492188 355.464844 112.40625 C 355.503906 112.1875 355.527344 111.9375 355.527344 111.65625 L 355.527344 109.078125 C 355.527344 108.632812 355.46875 108.324219 355.355469 108.15625 C 355.238281 107.980469 355.035156 107.890625 354.746094 107.890625 C 354.203125 107.890625 353.652344 108.183594 353.089844 108.765625 L 353.089844 111.65625 C 353.089844 111.9375 353.109375 112.1875 353.152344 112.40625 C 353.171875 112.492188 353.207031 112.546875 353.261719 112.578125 C 353.324219 112.609375 353.4375 112.632812 353.605469 112.640625 L 353.949219 112.671875 L 354.058594 112.671875 L 354.058594 113 L 351.089844 113 L 351.089844 112.671875 L 351.199219 112.671875 L 351.542969 112.640625 C 351.738281 112.632812 351.863281 112.601562 351.917969 112.546875 C 351.980469 112.496094 352.015625 112.371094 352.027344 112.171875 L 352.058594 111.65625 L 352.058594 108.6875 L 352.027344 108.1875 C 352.015625 107.992188 351.980469 107.867188 351.917969 107.8125 C 351.863281 107.75 351.738281 107.714844 351.542969 107.703125 L 351.199219 107.671875 L 351.089844 107.65625 L 351.089844 107.34375 L 353.089844 107.34375 L 353.089844 108.40625 Z M 366.105469 112.75 C 365.449219 113 364.847656 113.125 364.308594 113.125 C 363.484375 113.125 362.8125 112.851562 362.292969 112.296875 C 361.769531 111.734375 361.511719 111.007812 361.511719 110.109375 C 361.511719 109.265625 361.738281 108.574219 362.199219 108.03125 C 362.667969 107.492188 363.265625 107.21875 363.996094 107.21875 C 364.671875 107.21875 365.191406 107.449219 365.558594 107.90625 C 365.921875 108.355469 366.105469 109 366.105469 109.84375 L 366.105469 109.953125 L 362.652344 109.953125 C 362.652344 110.726562 362.753906 111.308594 362.964844 111.703125 C 363.296875 112.308594 363.800781 112.609375 364.480469 112.609375 C 365.113281 112.609375 365.65625 112.480469 366.105469 112.21875 L 366.105469 112.75 Z M 362.667969 109.625 L 365.011719 109.625 L 365.011719 109.390625 C 365.011719 108.984375 364.988281 108.6875 364.949219 108.5 C 364.917969 108.304688 364.847656 108.125 364.746094 107.96875 C 364.546875 107.679688 364.277344 107.53125 363.933594 107.53125 C 363.546875 107.53125 363.238281 107.726562 363.011719 108.109375 C 362.78125 108.484375 362.667969 108.992188 362.667969 109.625 Z M 362.667969 109.625 "/>
<path style=" stroke:none;fill-rule:evenodd;fill:rgb(0%,0%,0%);fill-opacity:1;" d="M 178.890625 131.8125 C 178.347656 132.019531 177.816406 132.125 177.296875 132.125 C 176.472656 132.125 175.800781 131.851562 175.28125 131.296875 C 174.769531 130.746094 174.515625 130.027344 174.515625 129.140625 C 174.515625 128.265625 174.757812 127.5625 175.25 127.03125 C 175.75 126.492188 176.40625 126.21875 177.21875 126.21875 C 177.644531 126.21875 178.203125 126.304688 178.890625 126.46875 L 178.890625 127.828125 L 178.25 127.828125 L 178.234375 127.734375 C 178.234375 127.320312 178.171875 127.039062 178.046875 126.890625 C 177.859375 126.671875 177.582031 126.5625 177.21875 126.5625 C 176.71875 126.5625 176.320312 126.792969 176.03125 127.25 C 175.738281 127.699219 175.59375 128.308594 175.59375 129.078125 C 175.59375 129.859375 175.765625 130.480469 176.109375 130.9375 C 176.453125 131.398438 176.925781 131.625 177.53125 131.625 C 178.039062 131.625 178.492188 131.539062 178.890625 131.359375 L 178.890625 131.8125 Z M 182.601562 132.125 C 181.789062 132.125 181.140625 131.859375 180.664062 131.328125 C 180.183594 130.796875 179.945312 130.078125 179.945312 129.171875 C 179.945312 128.257812 180.183594 127.539062 180.664062 127.015625 C 181.152344 126.484375 181.8125 126.21875 182.648438 126.21875 C 183.480469 126.21875 184.136719 126.484375 184.617188 127.015625 C 185.105469 127.539062 185.351562 128.25 185.351562 129.15625 C 185.351562 130.085938 185.105469 130.8125 184.617188 131.34375 C 184.125 131.867188 183.453125 132.125 182.601562 132.125 Z M 182.617188 131.8125 C 183.09375 131.8125 183.484375 131.5625 183.789062 131.0625 C 184.101562 130.5625 184.257812 129.929688 184.257812 129.15625 C 184.257812 128.417969 184.101562 127.796875 183.789062 127.296875 C 183.484375 126.789062 183.105469 126.53125 182.648438 126.53125 C 182.1875 126.53125 181.804688 126.789062 181.492188 127.296875 C 181.1875 127.796875 181.039062 128.421875 181.039062 129.171875 C 181.039062 129.921875 181.1875 130.554688 181.492188 131.0625 C 181.792969 131.5625 182.167969 131.8125 182.617188 131.8125 Z M 190.421875 132 L 190.421875 130.9375 C 190.179688 131.3125 189.878906 131.605469 189.515625 131.8125 C 189.148438 132.019531 188.773438 132.125 188.390625 132.125 C 187.898438 132.125 187.515625 131.96875 187.234375 131.65625 C 186.960938 131.335938 186.828125 130.890625 186.828125 130.328125 L 186.828125 127.6875 L 186.796875 127.1875 C 186.773438 126.992188 186.738281 126.867188 186.6875 126.8125 C 186.632812 126.75 186.507812 126.714844 186.3125 126.703125 L 185.953125 126.671875 L 185.859375 126.65625 L 185.859375 126.34375 L 187.84375 126.34375 L 187.84375 130.171875 C 187.84375 130.640625 187.910156 130.976562 188.046875 131.171875 C 188.191406 131.371094 188.4375 131.46875 188.78125 131.46875 C 189.019531 131.46875 189.296875 131.386719 189.609375 131.21875 C 189.921875 131.054688 190.191406 130.84375 190.421875 130.59375 L 190.421875 127.6875 L 190.390625 127.1875 C 190.378906 126.980469 190.34375 126.851562 190.28125 126.796875 C 190.226562 126.746094 190.101562 126.714844 189.90625 126.703125 L 189.546875 126.671875 L 189.453125 126.65625 L 189.453125 126.34375 L 191.453125 126.34375 L 191.453125 130.65625 L 191.484375 131.171875 C 191.492188 131.371094 191.523438 131.496094 191.578125 131.546875 C 191.640625 131.601562 191.769531 131.632812 191.96875 131.640625 L 192.328125 131.671875 L 192.421875 131.671875 L 192.421875 132 L 190.421875 132 Z M 194.796875 127.40625 C 195.035156 127.03125 195.335938 126.742188 195.703125 126.53125 C 196.066406 126.324219 196.441406 126.21875 196.828125 126.21875 C 197.316406 126.21875 197.695312 126.382812 197.96875 126.703125 C 198.25 127.015625 198.390625 127.453125 198.390625 128.015625 L 198.390625 130.65625 L 198.4375 131.171875 C 198.445312 131.371094 198.476562 131.496094 198.53125 131.546875 C 198.582031 131.601562 198.707031 131.632812 198.90625 131.640625 L 199.265625 131.671875 L 199.359375 131.671875 L 199.359375 132 L 196.40625 132 L 196.40625 131.671875 L 196.5 131.671875 L 196.84375 131.640625 C 197.039062 131.632812 197.164062 131.601562 197.21875 131.546875 C 197.28125 131.496094 197.316406 131.371094 197.328125 131.171875 L 197.359375 130.65625 L 197.359375 128.171875 C 197.359375 127.695312 197.296875 127.359375 197.171875 127.171875 C 197.046875 126.976562 196.820312 126.875 196.5 126.875 C 196.03125 126.875 195.460938 127.167969 194.796875 127.75 L 194.796875 130.65625 C 194.796875 130.9375 194.816406 131.1875 194.859375 131.40625 C 194.878906 131.492188 194.914062 131.546875 194.96875 131.578125 C 195.03125 131.609375 195.144531 131.632812 195.3125 131.640625 L 195.65625 131.671875 L 195.765625 131.671875 L 195.765625 132 L 192.796875 132 L 192.796875 131.671875 L 192.90625 131.671875 L 193.25 131.640625 C 193.445312 131.632812 193.570312 131.601562 193.625 131.546875 C 193.6875 131.496094 193.722656 131.371094 193.734375 131.171875 L 193.765625 130.65625 L 193.765625 127.6875 L 193.734375 127.1875 C 193.722656 126.992188 193.6875 126.867188 193.625 126.8125 C 193.570312 126.75 193.445312 126.714844 193.25 126.703125 L 192.90625 126.671875 L 192.796875 126.65625 L 192.796875 126.34375 L 194.796875 126.34375 L 194.796875 127.40625 Z M 203.105469 131.96875 C 202.84375 132.070312 202.597656 132.125 202.371094 132.125 C 201.839844 132.125 201.417969 131.992188 201.105469 131.71875 C 200.925781 131.554688 200.800781 131.367188 200.730469 131.15625 C 200.667969 130.949219 200.636719 130.640625 200.636719 130.234375 L 200.636719 126.765625 L 199.808594 126.765625 L 199.808594 126.34375 L 200.636719 126.34375 L 200.636719 125.3125 L 201.667969 125.0625 L 201.667969 126.34375 L 203.246094 126.34375 L 203.246094 126.765625 L 201.667969 126.765625 L 201.667969 130.375 C 201.667969 130.867188 201.714844 131.1875 201.808594 131.34375 C 201.941406 131.59375 202.175781 131.71875 202.511719 131.71875 C 202.675781 131.71875 202.875 131.664062 203.105469 131.546875 L 203.105469 131.96875 Z M 205.722656 127.890625 L 205.722656 130.65625 C 205.722656 130.9375 205.742188 131.1875 205.785156 131.40625 C 205.804688 131.492188 205.839844 131.546875 205.894531 131.578125 C 205.957031 131.609375 206.070312 131.632812 206.238281 131.640625 L 206.582031 131.671875 L 206.816406 131.671875 L 206.816406 132 L 203.722656 132 L 203.722656 131.671875 L 203.832031 131.671875 L 204.175781 131.640625 C 204.371094 131.632812 204.496094 131.601562 204.550781 131.546875 C 204.613281 131.496094 204.648438 131.371094 204.660156 131.171875 L 204.691406 130.65625 L 204.691406 127.6875 L 204.660156 127.1875 C 204.648438 126.992188 204.613281 126.867188 204.550781 126.8125 C 204.496094 126.75 204.371094 126.714844 204.175781 126.703125 L 203.832031 126.671875 L 203.722656 126.65625 L 203.722656 126.34375 L 205.722656 126.34375 L 205.722656 127.40625 C 206.191406 126.617188 206.800781 126.21875 207.550781 126.21875 C 207.652344 126.21875 207.773438 126.234375 207.910156 126.265625 L 207.910156 127.828125 L 207.332031 127.828125 L 207.316406 127.734375 L 207.269531 127.34375 C 207.257812 127.230469 207.230469 127.15625 207.191406 127.125 C 207.160156 127.085938 207.089844 127.0625 206.988281 127.0625 C 206.738281 127.0625 206.503906 127.136719 206.285156 127.28125 C 206.066406 127.417969 205.878906 127.621094 205.722656 127.890625 Z M 209.089844 134.0625 L 210.949219 132 L 209.167969 127.71875 C 208.980469 127.261719 208.839844 126.976562 208.746094 126.859375 C 208.660156 126.746094 208.527344 126.683594 208.339844 126.671875 L 208.230469 126.65625 L 208.230469 126.34375 L 210.808594 126.34375 L 210.808594 126.65625 L 210.699219 126.65625 L 210.371094 126.671875 C 210.121094 126.671875 209.996094 126.734375 209.996094 126.859375 C 209.996094 126.902344 210.011719 126.953125 210.042969 127.015625 C 210.050781 127.046875 210.09375 127.164062 210.167969 127.359375 C 210.199219 127.476562 210.238281 127.59375 210.292969 127.71875 L 211.558594 130.75 L 212.902344 127.703125 L 213.027344 127.375 L 213.183594 127.015625 C 213.191406 126.964844 213.199219 126.917969 213.199219 126.875 C 213.199219 126.742188 213.074219 126.671875 212.824219 126.671875 L 212.574219 126.65625 L 212.433594 126.65625 L 212.433594 126.34375 L 214.121094 126.34375 L 214.121094 126.65625 L 214.011719 126.671875 C 213.886719 126.683594 213.78125 126.730469 213.699219 126.8125 C 213.625 126.898438 213.546875 127.046875 213.464844 127.265625 C 213.433594 127.328125 213.363281 127.476562 213.261719 127.703125 L 210.386719 134.0625 L 209.089844 134.0625 Z M 219.546875 127.40625 C 219.785156 127.03125 220.085938 126.742188 220.453125 126.53125 C 220.816406 126.324219 221.191406 126.21875 221.578125 126.21875 C 222.066406 126.21875 222.445312 126.382812 222.71875 126.703125 C 223 127.015625 223.140625 127.453125 223.140625 128.015625 L 223.140625 130.65625 L 223.1875 131.171875 C 223.195312 131.371094 223.226562 131.496094 223.28125 131.546875 C 223.332031 131.601562 223.457031 131.632812 223.65625 131.640625 L 224.015625 131.671875 L 224.109375 131.671875 L 224.109375 132 L 221.15625 132 L 221.15625 131.671875 L 221.25 131.671875 L 221.59375 131.640625 C 221.789062 131.632812 221.914062 131.601562 221.96875 131.546875 C 222.03125 131.496094 222.066406 131.371094 222.078125 131.171875 L 222.109375 130.65625 L 222.109375 128.171875 C 222.109375 127.695312 222.046875 127.359375 221.921875 127.171875 C 221.796875 126.976562 221.570312 126.875 221.25 126.875 C 220.78125 126.875 220.210938 127.167969 219.546875 127.75 L 219.546875 130.65625 C 219.546875 130.9375 219.566406 131.1875 219.609375 131.40625 C 219.628906 131.492188 219.664062 131.546875 219.71875 131.578125 C 219.78125 131.609375 219.894531 131.632812 220.0625 131.640625 L 220.40625 131.671875 L 220.515625 131.671875 L 220.515625 132 L 217.546875 132 L 217.546875 131.671875 L 217.65625 131.671875 L 218 131.640625 C 218.195312 131.632812 218.320312 131.601562 218.375 131.546875 C 218.4375 131.496094 218.472656 131.371094 218.484375 131.171875 L 218.515625 130.65625 L 218.515625 127.6875 L 218.484375 127.1875 C 218.472656 126.992188 218.4375 126.867188 218.375 126.8125 C 218.320312 126.75 218.195312 126.714844 218 126.703125 L 217.65625 126.671875 L 217.546875 126.65625 L 217.546875 126.34375 L 219.546875 126.34375 L 219.546875 127.40625 Z M 228.125 131.21875 C 227.78125 131.5625 227.472656 131.804688 227.203125 131.9375 C 226.941406 132.0625 226.644531 132.125 226.3125 132.125 C 225.832031 132.125 225.429688 131.976562 225.109375 131.671875 C 224.785156 131.371094 224.625 130.992188 224.625 130.53125 C 224.625 130 224.832031 129.570312 225.25 129.234375 C 225.519531 129.015625 225.832031 128.867188 226.1875 128.78125 C 226.550781 128.699219 227.046875 128.65625 227.671875 128.65625 L 227.890625 128.65625 L 227.890625 127.953125 C 227.890625 127.058594 227.550781 126.609375 226.875 126.609375 C 226.550781 126.609375 226.269531 126.710938 226.03125 126.90625 C 225.882812 127.023438 225.796875 127.261719 225.765625 127.625 L 225.75 127.734375 L 225.0625 127.734375 L 225.0625 126.6875 C 225.78125 126.375 226.445312 126.21875 227.0625 126.21875 C 227.59375 126.21875 228.03125 126.34375 228.375 126.59375 C 228.582031 126.75 228.722656 126.921875 228.796875 127.109375 C 228.867188 127.296875 228.90625 127.5625 228.90625 127.90625 L 228.90625 130.4375 C 228.90625 130.886719 228.941406 131.203125 229.015625 131.390625 C 229.097656 131.570312 229.238281 131.65625 229.4375 131.65625 C 229.507812 131.65625 229.601562 131.640625 229.71875 131.609375 L 229.75 132 C 229.5 132.082031 229.273438 132.125 229.078125 132.125 C 228.578125 132.125 228.257812 131.824219 228.125 131.21875 Z M 227.890625 131.109375 L 227.890625 128.984375 L 227.640625 128.984375 C 227.035156 128.984375 226.5625 129.109375 226.21875 129.359375 C 225.882812 129.601562 225.71875 129.945312 225.71875 130.390625 C 225.71875 130.714844 225.820312 130.984375 226.03125 131.203125 C 226.238281 131.414062 226.503906 131.515625 226.828125 131.515625 C 227.128906 131.515625 227.484375 131.382812 227.890625 131.109375 Z M 232.089844 127.40625 C 232.683594 126.617188 233.332031 126.21875 234.042969 126.21875 C 234.4375 126.21875 234.761719 126.324219 235.011719 126.53125 C 235.261719 126.730469 235.421875 127.023438 235.496094 127.40625 C 235.859375 126.96875 236.191406 126.664062 236.496094 126.484375 C 236.796875 126.308594 237.136719 126.21875 237.511719 126.21875 C 237.980469 126.21875 238.347656 126.371094 238.621094 126.671875 C 238.890625 126.964844 239.027344 127.371094 239.027344 127.890625 L 239.027344 130.65625 C 239.027344 130.9375 239.050781 131.1875 239.105469 131.40625 C 239.125 131.492188 239.160156 131.546875 239.214844 131.578125 C 239.265625 131.609375 239.375 131.632812 239.542969 131.640625 L 239.902344 131.671875 L 239.996094 131.671875 L 239.996094 132 L 237.042969 132 L 237.042969 131.671875 L 237.136719 131.671875 L 237.496094 131.640625 C 237.652344 131.632812 237.753906 131.609375 237.808594 131.578125 C 237.871094 131.546875 237.910156 131.492188 237.933594 131.40625 C 237.972656 131.1875 237.996094 130.9375 237.996094 130.65625 L 237.996094 128.078125 C 237.996094 127.632812 237.9375 127.324219 237.824219 127.15625 C 237.707031 126.980469 237.503906 126.890625 237.214844 126.890625 C 236.703125 126.890625 236.152344 127.183594 235.558594 127.765625 L 235.558594 130.65625 L 235.589844 131.171875 C 235.597656 131.371094 235.628906 131.496094 235.683594 131.546875 C 235.746094 131.601562 235.875 131.632812 236.074219 131.640625 L 236.433594 131.671875 L 236.527344 131.671875 L 236.527344 132 L 233.558594 132 L 233.558594 131.671875 L 233.667969 131.671875 L 234.011719 131.640625 C 234.175781 131.632812 234.285156 131.609375 234.339844 131.578125 C 234.402344 131.546875 234.441406 131.492188 234.464844 131.40625 C 234.503906 131.1875 234.527344 130.9375 234.527344 130.65625 L 234.527344 128.078125 C 234.527344 127.632812 234.46875 127.324219 234.355469 127.15625 C 234.238281 126.980469 234.035156 126.890625 233.746094 126.890625 C 233.203125 126.890625 232.652344 127.183594 232.089844 127.765625 L 232.089844 130.65625 C 232.089844 130.9375 232.109375 131.1875 232.152344 131.40625 C 232.171875 131.492188 232.207031 131.546875 232.261719 131.578125 C 232.324219 131.609375 232.4375 131.632812 232.605469 131.640625 L 232.949219 131.671875 L 233.058594 131.671875 L 233.058594 132 L 230.089844 132 L 230.089844 131.671875 L 230.199219 131.671875 L 230.542969 131.640625 C 230.738281 131.632812 230.863281 131.601562 230.917969 131.546875 C 230.980469 131.496094 231.015625 131.371094 231.027344 131.171875 L 231.058594 130.65625 L 231.058594 127.6875 L 231.027344 127.1875 C 231.015625 126.992188 230.980469 126.867188 230.917969 126.8125 C 230.863281 126.75 230.738281 126.714844 230.542969 126.703125 L 230.199219 126.671875 L 230.089844 126.65625 L 230.089844 126.34375 L 232.089844 126.34375 L 232.089844 127.40625 Z M 245.105469 131.75 C 244.449219 132 243.847656 132.125 243.308594 132.125 C 242.484375 132.125 241.8125 131.851562 241.292969 131.296875 C 240.769531 130.734375 240.511719 130.007812 240.511719 129.109375 C 240.511719 128.265625 240.738281 127.574219 241.199219 127.03125 C 241.667969 126.492188 242.265625 126.21875 242.996094 126.21875 C 243.671875 126.21875 244.191406 126.449219 244.558594 126.90625 C 244.921875 127.355469 245.105469 128 245.105469 128.84375 L 245.105469 128.953125 L 241.652344 128.953125 C 241.652344 129.726562 241.753906 130.308594 241.964844 130.703125 C 242.296875 131.308594 242.800781 131.609375 243.480469 131.609375 C 244.113281 131.609375 244.65625 131.480469 245.105469 131.21875 L 245.105469 131.75 Z M 241.667969 128.625 L 244.011719 128.625 L 244.011719 128.390625 C 244.011719 127.984375 243.988281 127.6875 243.949219 127.5 C 243.917969 127.304688 243.847656 127.125 243.746094 126.96875 C 243.546875 126.679688 243.277344 126.53125 242.933594 126.53125 C 242.546875 126.53125 242.238281 126.726562 242.011719 127.109375 C 241.78125 127.484375 241.667969 127.992188 241.667969 128.625 Z M 241.667969 128.625 "/>
</g>
</svg>
